<svg width="38" height="50" viewBox="0 0 38 50" fill="none" xmlns="http://www.w3.org/2000/svg">
<g clip-path="url(#clip0_2701_2179)">
<path d="M7.25372 33.2835L0 24.3964V32.724L7.19666 41.9694L26.1818 24.7375V16.4927L7.25372 33.2835Z" fill="#FFC340"/>
<path d="M17.1721 10.2207H0V16.577H9.47334L17.1721 10.2207Z" fill="#FFC340"/>
<path d="M26.1816 32.9331V39.9132H37.8261V32.9731L26.1816 32.9331Z" fill="#FFC340"/>
<path d="M9.47334 16.5771H0V24.3966L9.47334 16.5771Z" fill="#FBF3E2"/>
<path d="M7.19666 41.9697L0 32.7243V40.558L7.19666 50.0019L26.1818 32.8699V24.7378L7.19666 41.9697Z" fill="#FBF3E2"/>
<path d="M37.8247 39.9141H26.1816V46.2133H37.8247V39.9141Z" fill="#FBF3E2"/>
<path d="M0 -4.03767e-05V10.2204H17.1721L0 24.3962L7.25372 33.279L26.1819 16.4925V32.9336L37.8263 32.9721V-0.00146484L0 -4.03767e-05Z" fill="#FFEF68"/>
</g>
<defs>
<clipPath id="clip0_2701_2179">
<rect width="38" height="50" fill="white"/>
</clipPath>
</defs>
</svg>
