<svg width="38" height="50" viewBox="0 0 38 50" fill="none" xmlns="http://www.w3.org/2000/svg"><g clip-path="url(#a)"><path d="M7.254 33.283L0 24.396v8.328l7.197 9.245 18.985-17.232v-8.244L7.254 33.283zm9.918-23.063H0v6.357h9.473l7.7-6.356zm9.01 22.713v6.98h11.644v-6.94l-11.644-.04z" fill="#FFC340"/><path d="M9.473 16.577H0v7.82l9.473-7.82zM7.197 41.97L0 32.724v7.834l7.197 9.444L26.182 32.87v-8.132L7.197 41.97zm30.628-2.056H26.182v6.3h11.643v-6.3z" fill="#FBF3E2"/><path d="M0 0v10.22h17.172L0 24.396l7.254 8.883 18.928-16.787v16.442l11.644.038V0H0z" fill="#FFEF68"/></g><defs><clipPath id="a"><path fill="#fff" d="M0 0h38v50H0z"/></clipPath></defs></svg>