<svg width="20" height="20" viewBox="0 0 20 20" fill="none" xmlns="http://www.w3.org/2000/svg">
<path d="M10 0C8.1603 0 6.35625 0.5075 4.78637 1.46665C3.21648 2.42581 1.94162 3.79944 1.10205 5.4364C0.262481 7.07336 -0.109245 8.91019 0.027774 10.7448C0.164793 12.5794 0.805245 14.3406 1.87866 15.8347L4.31677 14.0831C3.5656 13.0375 3.11742 11.805 3.02154 10.5212C2.92565 9.23736 3.18578 7.95196 3.7733 6.80644C4.36082 5.66091 5.25296 4.69966 6.35155 4.02845C7.45014 3.35724 8.71259 3.0021 10 3.0021V0Z" fill="#6F6F75"/>
<path d="M10 0C11.7153 0 13.4018 0.441238 14.8974 1.2813C16.3929 2.12137 17.6472 3.33201 18.5398 4.79686C19.4323 6.26171 19.933 7.93152 19.9937 9.64578C20.0545 11.36 19.6733 13.0611 18.8867 14.5855C18.1001 16.1098 16.9347 17.4062 15.5024 18.3501C14.07 19.2939 12.419 19.8535 10.708 19.9749C8.99696 20.0964 7.28346 19.7756 5.73219 19.0435C4.18092 18.3115 2.84404 17.1927 1.85006 15.7947L4.29438 14.0568C4.99025 15.0355 5.92617 15.8187 7.01219 16.3312C8.0982 16.8437 9.29779 17.0683 10.4957 16.9832C11.6935 16.8982 12.8494 16.5065 13.8521 15.8457C14.8548 15.185 15.6708 14.2774 16.2214 13.2102C16.7721 12.143 17.039 10.9521 16.9964 9.75202C16.9539 8.5519 16.6033 7.3829 15.9785 6.35738C15.3537 5.33187 14.4756 4.48432 13.4286 3.8962C12.3816 3.30809 11.2009 2.99919 10 2.99919V0Z" fill="#FFEF68"/>
</svg>
