<svg width="18" height="18" viewBox="0 0 18 18" fill="none" xmlns="http://www.w3.org/2000/svg">
<path fill-rule="evenodd" clip-rule="evenodd" d="M8.95508 0.876128C9.50736 0.876128 9.95508 1.32384 9.95508 1.87613L9.95508 7.9472L16.0261 7.9472C16.5784 7.9472 17.0261 8.39491 17.0261 8.9472C17.0261 9.49948 16.5784 9.94719 16.0261 9.9472L9.95508 9.9472V16.0183C9.95508 16.5705 9.50736 17.0183 8.95508 17.0183C8.40279 17.0183 7.95508 16.5705 7.95508 16.0183V9.9472L1.88401 9.9472C1.33173 9.94719 0.884011 9.49948 0.884011 8.9472C0.88401 8.39491 1.33173 7.9472 1.88401 7.9472L7.95508 7.9472L7.95508 1.87613C7.95508 1.32384 8.40279 0.876128 8.95508 0.876128Z" fill="#2D2D2F"/>
</svg>
