<svg width="156" height="32" viewBox="0 0 156 32" fill="none" xmlns="http://www.w3.org/2000/svg"><path d="M58.399 20.2h-6.962l-.852 2.572h-4.703l6.307-16.86h5.431l6.335 16.86h-4.711l-.845-2.572zm-5.835-3.66h4.702l-2.361-6.85-2.34 6.852zm12.524-5.978h3.861v1.541a5.289 5.289 0 0 1 3.798-1.846v3.764a3.022 3.022 0 0 0-.95-.126c-1.003 0-2.337.432-2.848 1.11v7.767h-3.861v-12.21zm15.253-.305c2.61 0 4.248 1.164 4.965 2.252l-2.511 2.345a2.672 2.672 0 0 0-2.29-1.16 2.753 2.753 0 0 0-1.97.761 2.78 2.78 0 0 0-.86 1.938 2.58 2.58 0 0 0 0 .27 2.857 2.857 0 0 0 .484 1.724c.343.508.839.891 1.415 1.092a2.818 2.818 0 0 0 3.228-1.025l2.511 2.386c-.728 1.064-2.361 2.252-4.968 2.252-3.797 0-6.622-2.58-6.622-6.418s2.82-6.417 6.613-6.417h.005zm14.982 5.406c0-1.491-.778-1.969-2.008-1.969a2.971 2.971 0 0 0-2.34 1.193v7.873H87.11V5.903h3.865v6.133a5.494 5.494 0 0 1 4.199-1.796c2.758 0 4.035 1.57 4.035 3.817v8.715h-3.877l-.009-7.11zm6.409-8.873a2.223 2.223 0 0 1 1.363-2.05 2.196 2.196 0 0 1 2.405.481 2.223 2.223 0 0 1-.334 3.414 2.2 2.2 0 0 1-2.788-.276 2.224 2.224 0 0 1-.646-1.569zm.278 3.765h3.862v12.217h-3.86l-.002-12.217zm12.513-.306c2.611 0 4.252 1.167 4.968 2.253l-2.516 2.347a2.646 2.646 0 0 0-2.285-1.16c-.74.035-1.44.345-1.964.87a2.998 2.998 0 0 0-.193 4.02c.472.574 1.139.95 1.872 1.056.099.006.198.006.296 0a2.71 2.71 0 0 0 2.284-1.193l2.518 2.386c-.728 1.064-2.373 2.252-4.968 2.252-3.798 0-6.622-2.58-6.622-6.418s2.815-6.417 6.61-6.417v.004zm14.905 11.092a4.65 4.65 0 0 1-3.594 1.72c-2.991 0-5.381-2.274-5.381-6.418 0-3.994 2.34-6.396 5.381-6.396a4.487 4.487 0 0 1 3.594 1.749v-1.432h3.861v12.208h-3.861v-1.431zm0-6.544a3.184 3.184 0 0 0-2.341-1.11c-1.528 0-2.661 1.11-2.661 2.935s1.133 2.977 2.661 2.977a3.184 3.184 0 0 0 2.341-1.11v-3.692zm14.854 6.544a4.62 4.62 0 0 1-3.596 1.723c-2.991 0-5.381-2.274-5.381-6.418 0-3.994 2.333-6.397 5.381-6.397a4.514 4.514 0 0 1 3.591 1.749V5.895h3.864v16.877h-3.859v-1.431zm0-6.568a3.158 3.158 0 0 0-2.338-1.11c-1.536 0-2.661 1.11-2.661 2.959s1.104 2.977 2.661 2.977a3.181 3.181 0 0 0 2.338-1.11v-3.716zm5.739-5.99a2.835 2.835 0 0 1 .471-1.57 2.816 2.816 0 0 1 1.26-1.043 2.796 2.796 0 0 1 3.064.607 2.83 2.83 0 0 1 .614 3.077 2.82 2.82 0 0 1-1.033 1.27 2.789 2.789 0 0 1-3.544-.347 2.827 2.827 0 0 1-.82-1.995h-.012zm.442 0c.059.588.333 1.133.769 1.53a2.369 2.369 0 0 0 3.954-1.53 2.388 2.388 0 0 0-.769-1.532 2.366 2.366 0 0 0-3.185 0c-.436.397-.71.943-.769 1.531zm2.29.345h-.55v1.274h-.475v-3.23h1.336a.986.986 0 0 1 1.097.868c.002.038.002.075 0 .112a.949.949 0 0 1-.824.954l.824 1.287h-.553l-.855-1.265zm-.55-1.553v1.143h.854a.568.568 0 0 0 .533-.572.574.574 0 0 0-.533-.571h-.854z" fill="#001722"/><path d="M38.541 20.577a2.28 2.28 0 0 0-1.411-2.115 2.303 2.303 0 0 0-2.502.49 2.283 2.283 0 0 0 1.615 3.905 2.29 2.29 0 0 0 1.618-.668 2.28 2.28 0 0 0 .672-1.612" fill="#2D50A5"/><path d="M.197 28.77a2.316 2.316 0 0 0-.065 1.706 2.287 2.287 0 0 0 1.12 1.28 2.251 2.251 0 0 0 1.683.144 2.276 2.276 0 0 0 1.317-1.07S16.903 4.792 27.19 4.58C34 4.432 34 13.75 34 13.75v.204a2.3 2.3 0 0 0 .736 1.592 2.258 2.258 0 0 0 3.21-.144c.406-.45.62-1.043.593-1.651 0 0 .09-13.625-11.305-13.751h-.282C13.858-.002.197 28.77.197 28.77z" fill="url(#a)"/><defs><linearGradient id="a" x1="-.007" y1="16.004" x2="38.541" y2="16.004" gradientUnits="userSpaceOnUse"><stop stop-color="#6490F9"/><stop offset="1" stop-color="#2D50A5"/></linearGradient></defs></svg>