<svg width="156" height="32" viewBox="0 0 156 32" fill="none" xmlns="http://www.w3.org/2000/svg">
<path d="M58.3986 20.2003H51.4367L50.5845 22.7721H45.8823L52.1891 5.9122H57.62L63.9553 22.7721H59.2436L58.3986 20.2003ZM52.5641 16.5406H57.2663L54.9046 9.68878L52.5641 16.5406ZM65.0875 10.562H68.9494V12.1031C69.4224 11.5498 70.0037 11.1002 70.6571 10.7826C71.3105 10.4649 72.022 10.2858 72.7473 10.2566V14.0213C72.4394 13.9289 72.1189 13.8862 71.7978 13.8948C70.7937 13.8948 69.4598 14.3266 68.9494 15.0042V22.7721H65.0875V10.562ZM80.3405 10.2566C82.9516 10.2566 84.5894 11.4208 85.3062 12.5087L82.7949 14.8539C82.5407 14.4828 82.1977 14.182 81.7973 13.9794C81.397 13.7767 80.9523 13.6787 80.5043 13.6944C79.7733 13.6758 79.0648 13.9495 78.5344 14.4554C78.0039 14.9612 77.6948 15.658 77.6749 16.3927C77.6702 16.4825 77.6702 16.5725 77.6749 16.6623C77.6473 17.2748 77.8172 17.8798 78.1594 18.3875C78.5016 18.8951 78.9977 19.2781 79.5739 19.4794C80.1501 19.6808 80.7755 19.6897 81.3572 19.505C81.9389 19.3202 82.4456 18.9515 82.802 18.4539L85.3133 20.8397C84.5846 21.9037 82.9516 23.0918 80.3453 23.0918C76.5475 23.0918 73.7228 20.5128 73.7228 16.6742C73.7228 12.8356 76.5427 10.2566 80.3358 10.2566H80.3405ZM95.323 15.6626C95.323 14.1716 94.5445 13.6944 93.3149 13.6944C92.8601 13.7008 92.4129 13.8116 92.0072 14.0184C91.6016 14.2251 91.2483 14.5223 90.9745 14.8873V22.7602H87.1102V5.90264H90.9745V12.0363C91.5065 11.4533 92.1564 10.9913 92.8806 10.6814C93.6048 10.3716 94.3866 10.221 95.1735 10.2399C97.9317 10.2399 99.2087 11.8097 99.2087 14.057V22.7721H95.3325L95.323 15.6626ZM101.732 6.79014C101.732 6.35132 101.861 5.92235 102.104 5.55748C102.346 5.19262 102.691 4.90823 103.095 4.7403C103.498 4.57237 103.942 4.52843 104.37 4.61404C104.798 4.69965 105.192 4.91097 105.5 5.22126C105.809 5.53156 106.019 5.9269 106.104 6.35729C106.19 6.78768 106.146 7.23379 105.979 7.63921C105.812 8.04463 105.529 8.39114 105.166 8.63494C104.803 8.87873 104.376 9.00886 103.939 9.00886C103.354 9.00886 102.792 8.77511 102.378 8.35902C101.964 7.94293 101.732 7.37858 101.732 6.79014ZM102.01 10.5548H105.872V22.7721H102.012L102.01 10.5548ZM114.523 10.2494C117.134 10.2494 118.775 11.4161 119.491 12.5016L116.975 14.8491C116.723 14.4774 116.381 14.1761 115.981 13.9734C115.581 13.7706 115.137 13.673 114.69 13.6896C113.95 13.7239 113.25 14.0342 112.726 14.5599C112.202 15.0855 111.892 15.7887 111.856 16.532C111.82 17.2753 112.062 18.0052 112.533 18.579C113.005 19.1528 113.672 19.5293 114.405 19.6349C114.504 19.6408 114.603 19.6408 114.701 19.6349C115.151 19.6411 115.594 19.5354 115.993 19.3273C116.391 19.1191 116.732 18.815 116.985 18.442L119.503 20.8277C118.775 21.8917 117.13 23.0798 114.535 23.0798C110.737 23.0798 107.913 20.5009 107.913 16.6623C107.913 12.8236 110.728 10.2447 114.523 10.2447V10.2494ZM129.428 21.3406C128.993 21.8768 128.445 22.3093 127.823 22.6067C127.202 22.9042 126.522 23.0593 125.834 23.0608C122.843 23.0608 120.453 20.7872 120.453 16.6432C120.453 12.6495 122.793 10.247 125.834 10.247C126.527 10.2397 127.212 10.3938 127.835 10.6972C128.459 11.0006 129.004 11.4451 129.428 11.9958V10.5644H133.289V22.7721H129.428V21.3406ZM129.428 14.7966C129.137 14.457 128.778 14.1826 128.375 13.9915C127.972 13.8004 127.533 13.6967 127.087 13.6873C125.559 13.6873 124.426 14.7966 124.426 16.6217C124.426 18.4468 125.559 19.5991 127.087 19.5991C127.533 19.5883 127.971 19.484 128.374 19.293C128.777 19.102 129.136 18.8283 129.428 18.4897V14.7966ZM144.282 21.3406C143.847 21.8781 143.299 22.3115 142.677 22.6095C142.055 22.9074 141.375 23.0624 140.686 23.0631C137.695 23.0631 135.305 20.7895 135.305 16.6456C135.305 12.6519 137.638 10.2494 140.686 10.2494C141.378 10.2445 142.062 10.3996 142.684 10.7028C143.307 11.0061 143.852 11.4493 144.277 11.9982V5.89549H148.141V22.7721H144.282V21.3406ZM144.282 14.7728C143.992 14.4321 143.634 14.1571 143.231 13.9659C142.828 13.7746 142.389 13.6715 141.944 13.6634C140.408 13.6634 139.283 14.7728 139.283 16.6217C139.283 18.4706 140.387 19.5991 141.944 19.5991C142.389 19.5883 142.827 19.484 143.23 19.2929C143.632 19.1019 143.991 18.8283 144.282 18.4897V14.7728ZM150.021 8.78221C150.02 8.22354 150.184 7.67714 150.492 7.2121C150.8 6.74706 151.239 6.38426 151.752 6.1696C152.265 5.95493 152.83 5.89804 153.375 6.0061C153.921 6.11417 154.422 6.38234 154.816 6.77671C155.209 7.17109 155.478 7.67395 155.587 8.2217C155.697 8.76945 155.642 9.33749 155.43 9.85399C155.218 10.3705 154.859 10.8123 154.397 11.1234C153.935 11.4346 153.392 11.6012 152.836 11.6021C152.468 11.6021 152.103 11.5292 151.763 11.3874C151.423 11.2457 151.114 11.0379 150.853 10.7761C150.593 10.5142 150.387 10.2033 150.246 9.86117C150.105 9.51906 150.033 9.15242 150.033 8.78221H150.021ZM150.463 8.78221C150.522 9.37073 150.796 9.91634 151.232 10.3131C151.669 10.7099 152.236 10.9297 152.825 10.9297C153.413 10.9297 153.981 10.7099 154.417 10.3131C154.853 9.91634 155.128 9.37073 155.186 8.78221C155.128 8.19369 154.853 7.6481 154.417 7.2513C153.981 6.85449 153.413 6.63477 152.825 6.63477C152.236 6.63477 151.669 6.85449 151.232 7.2513C150.796 7.6481 150.522 8.19369 150.463 8.78221ZM152.753 9.12814H152.203V10.4021H151.728V7.17185H153.064C153.324 7.14091 153.586 7.21502 153.792 7.37786C153.997 7.54071 154.13 7.77896 154.161 8.04026C154.163 8.0776 154.163 8.11504 154.161 8.15238C154.163 8.38501 154.08 8.61039 153.929 8.78613C153.777 8.96186 153.567 9.07585 153.337 9.10667L154.161 10.3926H153.608L152.753 9.12814ZM152.203 7.57504V8.71781H153.057C153.202 8.70842 153.337 8.64414 153.436 8.53802C153.535 8.4319 153.59 8.29188 153.59 8.14642C153.59 8.00096 153.535 7.86095 153.436 7.75482C153.337 7.6487 153.202 7.58442 153.057 7.57504H152.203Z" fill="#001722"/>
<path d="M38.5411 20.5773C38.5423 20.1251 38.4088 19.6828 38.1576 19.3062C37.9064 18.9297 37.5487 18.6358 37.1299 18.4618C36.711 18.2878 36.2497 18.2415 35.8044 18.3287C35.3592 18.4159 34.9498 18.6328 34.6283 18.9518C34.3067 19.2709 34.0873 19.6778 33.9979 20.121C33.9084 20.5643 33.953 21.0241 34.1258 21.4422C34.2987 21.8602 34.5921 22.2178 34.969 22.4697C35.3459 22.7216 35.7893 22.8564 36.2431 22.8572C36.85 22.8567 37.432 22.6164 37.8613 22.189C38.2906 21.7616 38.5323 21.182 38.5333 20.5773" fill="#2D50A5"/>
<path d="M0.197393 28.7698C-0.0408843 29.3088 -0.0643359 29.9198 0.131913 30.4759C0.328163 31.0319 0.729014 31.4902 1.25113 31.7554C1.77325 32.0206 2.37647 32.0723 2.93539 31.8999C3.4943 31.7274 3.96591 31.344 4.25217 30.8293C4.25217 30.8293 16.9032 4.79334 27.1902 4.57961C33.9994 4.43195 33.9994 13.7505 33.9994 13.7505C33.9994 13.8191 33.9994 13.8872 33.9994 13.9545C34.0262 14.5626 34.291 15.135 34.7356 15.5458C35.1802 15.9567 35.7682 16.1723 36.3702 16.1452C36.9721 16.1182 37.5388 15.8507 37.9455 15.4016C38.3523 14.9525 38.5657 14.3586 38.5389 13.7505C38.5389 13.7505 38.6293 0.126294 27.2344 9.84044e-08C27.1401 9.84044e-08 27.042 9.84044e-08 26.9516 9.84044e-08C13.8582 -0.00194288 0.197393 28.7698 0.197393 28.7698Z" fill="url(#paint0_linear_8_761)"/>
<defs>
<linearGradient id="paint0_linear_8_761" x1="-0.00650028" y1="16.0044" x2="38.5409" y2="16.0044" gradientUnits="userSpaceOnUse">
<stop stop-color="#6490F9"/>
<stop offset="1" stop-color="#2D50A5"/>
</linearGradient>
</defs>
</svg>
