<svg width="47" height="38" viewBox="0 0 47 38" fill="none" xmlns="http://www.w3.org/2000/svg"><path d="M47 25.008A3 3 0 1 0 43.995 28a2.998 2.998 0 0 0 2.995-2.992" fill="#2D50A5"/><path d="M.23 34.164a2.794 2.794 0 0 0-.076 2.026c.23.66.697 1.205 1.307 1.52.61.315 1.314.376 1.966.171a2.667 2.667 0 0 0 1.538-1.271S19.735 5.692 31.747 5.438c7.95-.175 7.95 10.89 7.95 10.89v.243c.031.722.34 1.402.86 1.89a2.605 2.605 0 0 0 1.908.711 2.624 2.624 0 0 0 1.84-.883 2.77 2.77 0 0 0 .692-1.96S45.103.15 31.798 0h-.33C16.181-.002.23 34.164.23 34.164z" fill="url(#a)"/><defs><linearGradient id="a" x1="-.008" y1="19.005" x2="45" y2="19.005" gradientUnits="userSpaceOnUse"><stop stop-color="#6490F9"/><stop offset="1" stop-color="#2D50A5"/></linearGradient></defs></svg>