<svg width="47" height="38" viewBox="0 0 47 38" fill="none" xmlns="http://www.w3.org/2000/svg">
<path d="M47 25.0076C47.0015 24.4142 46.827 23.8336 46.4985 23.3394C46.17 22.8451 45.7022 22.4594 45.1545 22.231C44.6068 22.0027 44.0036 21.9419 43.4213 22.0564C42.839 22.1708 42.3037 22.4554 41.8832 22.8742C41.4627 23.2929 41.1758 23.827 41.0588 24.4088C40.9419 24.9906 41.0001 25.5941 41.2262 26.1428C41.4522 26.6915 41.836 27.1608 42.3288 27.4914C42.8216 27.822 43.4015 27.999 43.9949 28C44.7886 27.9993 45.5496 27.6839 46.111 27.123C46.6724 26.562 46.9885 25.8013 46.9898 25.0076" fill="#2D50A5"/>
<path d="M0.230472 34.1641C-0.0477358 34.8042 -0.0751175 35.5298 0.15402 36.1901C0.383157 36.8504 0.851184 37.3946 1.4608 37.7095C2.07042 38.0245 2.77473 38.0859 3.42731 37.8811C4.07989 37.6763 4.63053 37.221 4.96476 36.6098C4.96476 36.6098 19.7358 5.69209 31.7467 5.43829C39.6971 5.26294 39.6971 16.3287 39.6971 16.3287C39.6971 16.4102 39.6971 16.491 39.6971 16.571C39.7284 17.2931 40.0376 17.9728 40.5567 18.4607C41.0758 18.9485 41.7623 19.2046 42.4652 19.1724C43.168 19.1403 43.8297 18.8227 44.3045 18.2894C44.7794 17.7561 45.0286 17.0508 44.9974 16.3287C44.9974 16.3287 45.1029 0.149974 31.7984 1.16855e-07C31.6884 1.16855e-07 31.5738 1.16855e-07 31.4683 1.16855e-07C16.1806 -0.00230718 0.230472 34.1641 0.230472 34.1641Z" fill="url(#paint0_linear_60_689)"/>
<defs>
<linearGradient id="paint0_linear_60_689" x1="-0.00758962" y1="19.0052" x2="44.9996" y2="19.0052" gradientUnits="userSpaceOnUse">
<stop stop-color="#6490F9"/>
<stop offset="1" stop-color="#2D50A5"/>
</linearGradient>
</defs>
</svg>
