<svg width="40" height="42" viewBox="0 0 40 42" fill="none" xmlns="http://www.w3.org/2000/svg"><path d="M39.747.926v40.353H15.005c.054-.895.108-1.822.218-2.738.174-1.435.37-2.694.814-4.273.086-.332.238-.409.523-.354.51.077 1.01.142 1.52.232.086.01.196.067.228.144.314.608.848.904 1.444 1.116.805.264 1.597.232 2.435.087 2.02-.353 3.89-1.058 5.662-2.043 1.64-.917 3.085-2.152 4.345-3.555.76-.85 1.48-1.744 2.283-2.706-.281-.067-.424-.122-.576-.132-.88-.087-1.76-.222-2.629-.222-1.26-.022-2.53-.067-3.749.11-2.499.386-4.845 1.248-6.976 2.648-1.283.84-2.49 1.777-2.651 3.543-.446-.044-.814-.054-1.27-.132-.197-.032-.184-.241-.162-.33.25-.796.478-1.59.792-2.34a119.042 119.042 0 0 1 2.195-4.969c.696-1.502 1.434-2.98 2.184-4.45.935-1.82 1.935-3.61 2.87-5.431a176.03 176.03 0 0 0 2.14-4.515 27.84 27.84 0 0 0 1.76-5.132 25.02 25.02 0 0 0 .717-4.914h10.625v.003zM27.185.913c-.032.364-.044.728-.098 1.082v.022c0 .023-.01.055-.01.077a1.69 1.69 0 0 1-.032.145 60.703 60.703 0 0 1-.804 3.388c-.564 2.098-1.457 4.074-2.455 5.995-1 1.911-2.097 3.765-3.151 5.63-.38.651-.772 1.292-1.175 1.967-.456-.277-.902-.518-1.326-.808-.086-.054-.174-.251-.13-.34.478-1.06.37-2.144 0-3.18-.38-1.081-.858-2.12-1.346-3.17-.62-1.312-1.467-2.493-2.458-3.555a21.342 21.342 0 0 0-2.552-2.317c-1.01-.785-2.11-1.445-3.173-2.153-.064-.044-.174-.044-.272-.067-.01.1-.032.167-.032.244-.076 2.208.174 4.37.738 6.49a16.46 16.46 0 0 0 1.947 4.518c.804 1.29 1.64 2.539 2.793 3.533 1.074.927 2.366 1.378 3.649.54.564.354 1.14.696 1.716 1.06-.042.077-.054.122-.086.164-.89 1.667-1.836 3.311-2.682 5-.716 1.426-1.347 2.903-1.977 4.383a36.858 36.858 0 0 0-1.868 5.873 36.9 36.9 0 0 0-.88 5.84H.03V.91h27.154v.002z" fill="#41748D"/><path d="M16.461 32.676c-.022.087-.031.298.162.33.456.078.827.088 1.27.133.162-1.767 1.369-2.706 2.651-3.543 2.129-1.403 4.478-2.262 6.977-2.648 1.216-.177 2.489-.133 3.75-.11.867 0 1.748.132 2.628.222.152.01.294.067.576.132-.804.961-1.52 1.853-2.283 2.706-1.26 1.402-2.705 2.638-4.345 3.555-1.77.982-3.64 1.69-5.662 2.043-.836.145-1.63.177-2.435-.087-.599-.21-1.13-.508-1.445-1.116-.031-.078-.142-.133-.228-.145-.507-.092-1.007-.157-1.518-.234-.282-.055-.434.022-.522.354-.446 1.58-.64 2.837-.814 4.273-.108.917-.162 1.843-.218 2.738h-3.487c.142-1.966.424-3.91.88-5.84a37.114 37.114 0 0 1 1.869-5.873c.63-1.48 1.26-2.96 1.976-4.383.849-1.689 1.793-3.333 2.683-5 .032-.045.044-.087.086-.165-.577-.363-1.153-.707-1.717-1.058-1.28.832-2.572.38-3.649-.549-1.152-.994-1.988-2.24-2.793-3.533a16.436 16.436 0 0 1-1.944-4.514 22.147 22.147 0 0 1-.738-6.49c0-.078.022-.145.032-.242.098.022.205.022.272.067 1.064.708 2.162 1.368 3.173 2.153.902.692 1.77 1.477 2.553 2.314.99 1.062 1.836 2.243 2.457 3.556.488 1.049.966 2.085 1.346 3.169.37 1.039.478 2.12 0 3.18-.044.089.044.286.13.34.424.287.87.531 1.326.805.403-.672.793-1.313 1.175-1.966 1.054-1.866 2.15-3.72 3.151-5.63 1-1.921 1.89-3.897 2.455-5.995.304-1.126.564-2.252.804-3.389a1.34 1.34 0 0 0 .032-.144c0-.023.01-.055.01-.077v-.023c.054-.354.066-.717.098-1.081h12.56v.01H29.117a25.209 25.209 0 0 1-.716 4.913 27.78 27.78 0 0 1-1.76 5.133A176.03 176.03 0 0 1 24.5 15.48c-.935 1.822-1.935 3.61-2.87 5.432a128.301 128.301 0 0 0-2.184 4.45 119.042 119.042 0 0 0-2.195 4.968c-.311.755-.54 1.55-.79 2.345z" fill="#fff"/></svg>