<svg width="40" height="42" viewBox="0 0 40 42" fill="none" xmlns="http://www.w3.org/2000/svg">
<path d="M39.7472 0.925862V41.2788H15.0048C15.0588 40.3844 15.1127 39.4575 15.2231 38.5406C15.3972 37.1055 15.5933 35.8473 16.0372 34.2677C16.123 33.9363 16.275 33.859 16.5595 33.9139C17.0696 33.9911 17.5698 34.0559 18.0798 34.1456C18.1657 34.1555 18.276 34.2128 18.3079 34.2901C18.6218 34.898 19.1563 35.1945 19.7522 35.4063C20.5565 35.6704 21.3486 35.638 22.1872 35.4935C24.2078 35.1397 26.0764 34.4346 27.8493 33.4504C29.4898 32.5335 30.9341 31.2977 32.1945 29.895C32.9547 29.0454 33.6732 28.1509 34.4775 27.1892C34.1955 27.1219 34.0533 27.0671 33.9013 27.0571C33.0209 26.9699 32.1406 26.8354 31.2725 26.8354C30.0121 26.813 28.7419 26.7681 27.5232 26.945C25.0244 27.3312 22.6777 28.1933 20.5467 29.5935C19.2642 30.4332 18.0578 31.37 17.8959 33.1365C17.4496 33.0916 17.0818 33.0817 16.6257 33.0044C16.4295 32.972 16.4418 32.7628 16.4639 32.6731C16.714 31.8783 16.942 31.0835 17.2559 30.3335C17.9523 28.6667 18.6782 26.9998 19.4506 25.3654C20.147 23.863 20.8851 22.3855 21.6355 20.9155C22.5698 19.0942 23.5703 17.3052 24.5045 15.4839C25.2426 13.994 25.9489 12.4816 26.6453 10.9693C27.4055 9.31238 27.9817 7.60319 28.4059 5.83669C28.8081 4.22466 29.046 2.58024 29.122 0.92337H39.7472V0.925862Z" fill="#41748D"/>
<path d="M27.1848 0.913411C27.1529 1.27718 27.1406 1.64094 27.0867 1.99474C27.0867 2.00471 27.0867 2.0047 27.0867 2.01716C27.0867 2.03959 27.0769 2.07198 27.0769 2.0944C27.0671 2.14921 27.0548 2.20403 27.045 2.23891C26.8071 3.37505 26.5447 4.50123 26.2407 5.6274C25.6767 7.72528 24.7841 9.70107 23.786 11.6221C22.7856 13.5331 21.6894 15.3868 20.635 17.2529C20.2549 17.9032 19.8626 18.5435 19.4604 19.2188C19.0043 18.9422 18.558 18.7005 18.1338 18.4115C18.048 18.3567 17.9597 18.1599 18.0038 18.0702C18.482 17.0113 18.3741 15.9274 18.0038 14.891C17.6237 13.8096 17.1456 12.7706 16.6576 11.7217C16.0372 10.4087 15.1912 9.22768 14.2005 8.16628C13.4183 7.32913 12.5502 6.54429 11.6478 5.84915C10.6375 5.06432 9.53893 4.40406 8.47469 3.69646C8.41093 3.65161 8.30058 3.65161 8.2025 3.62919C8.19269 3.72885 8.17062 3.79612 8.17062 3.87336C8.0946 6.08086 8.34472 8.24352 8.90872 10.3638C9.33295 11.9659 9.97542 13.4658 10.8557 14.881C11.6601 16.1716 12.4962 17.4199 13.6488 18.414C14.7228 19.3408 16.0151 19.7918 17.2976 18.9547C17.8616 19.3085 18.4379 19.6498 19.0141 20.0136C18.9724 20.0908 18.9602 20.1356 18.9283 20.178C18.0382 21.8448 17.0916 23.4893 16.2456 25.1785C15.5296 26.6037 14.8994 28.0812 14.2692 29.5611C13.4771 31.4597 12.8665 33.4255 12.4006 35.4337C11.9445 37.3646 11.6625 39.308 11.5203 41.2739H0.0318604V0.910919H27.1848V0.913411Z" fill="#41748D"/>
<path d="M16.4614 32.6756C16.4393 32.7628 16.4295 32.9745 16.6233 33.0069C17.0794 33.0842 17.4496 33.0941 17.8935 33.139C18.0553 31.3725 19.2618 30.4332 20.5443 29.596C22.6728 28.1933 25.0219 27.3337 27.5207 26.9475C28.737 26.7706 30.0097 26.8155 31.2701 26.8379C32.1382 26.8379 33.0185 26.9699 33.8988 27.0596C34.0508 27.0696 34.1931 27.1269 34.4751 27.1917C33.6708 28.1534 32.9547 29.0454 32.1921 29.8975C30.9317 31.3002 29.4874 32.536 27.8469 33.4529C26.0764 34.4346 24.2078 35.1422 22.1848 35.496C21.3486 35.6405 20.5541 35.6729 19.7498 35.4088C19.1515 35.1995 18.6193 34.9005 18.3055 34.2926C18.2736 34.2153 18.1632 34.1605 18.0774 34.1481C17.5698 34.0559 17.0696 33.9911 16.5595 33.9139C16.2775 33.859 16.1255 33.9363 16.0372 34.2677C15.5909 35.8473 15.3972 37.1055 15.2231 38.5406C15.1152 39.4575 15.0612 40.3844 15.0048 41.2789H11.5178C11.6601 39.313 11.9421 37.3696 12.3982 35.4387C12.8665 33.4305 13.4747 31.4647 14.2667 29.5661C14.8969 28.0861 15.5271 26.6062 16.2432 25.1835C17.0916 23.4942 18.0357 21.8498 18.9259 20.183C18.9577 20.1381 18.97 20.0958 19.0117 20.0185C18.4354 19.6548 17.8592 19.3109 17.2952 18.9596C16.0151 19.7918 14.7228 19.3408 13.6463 18.4115C12.4938 17.4174 11.6576 16.1716 10.8533 14.8785C9.97297 13.4658 9.33296 11.9634 8.90873 10.3638C8.34473 8.24352 8.09461 6.08086 8.17063 3.87336C8.17063 3.79612 8.1927 3.72885 8.2025 3.63168C8.30059 3.6541 8.40849 3.6541 8.4747 3.69895C9.53894 4.40655 10.6375 5.06681 11.6478 5.85164C12.5502 6.54429 13.4183 7.32913 14.2005 8.16628C15.1912 9.22768 16.0372 10.4087 16.6576 11.7217C17.1456 12.7706 17.6237 13.8071 18.0038 14.891C18.3741 15.9299 18.482 17.0113 18.0038 18.0702C17.9597 18.1599 18.048 18.3567 18.1338 18.4115C18.558 18.698 19.0043 18.9422 19.4604 19.2163C19.8626 18.5435 20.2525 17.9032 20.635 17.2504C21.6894 15.3843 22.7856 13.5306 23.7861 11.6196C24.7865 9.69858 25.6767 7.72279 26.2407 5.62491C26.5447 4.49874 26.8047 3.37256 27.045 2.23642C27.0548 2.20403 27.0671 2.14921 27.0769 2.09191C27.0769 2.06949 27.0867 2.03709 27.0867 2.01467C27.0867 2.0047 27.0867 2.0047 27.0867 1.99225C27.1406 1.63845 27.1529 1.27468 27.1848 0.910919H39.7448V0.920885H29.1171C29.0411 2.57776 28.8007 4.22218 28.401 5.8342C27.9768 7.6007 27.4006 9.31239 26.6404 10.9668C25.944 12.4791 25.2377 13.9915 24.4996 15.4814C23.5654 17.3028 22.5649 19.0917 21.6306 20.913C20.8802 22.3805 20.1421 23.8605 19.4457 25.3629C18.6733 26.9973 17.9474 28.6642 17.251 30.331C16.9396 31.086 16.7115 31.8808 16.4614 32.6756Z" fill="white"/>
</svg>
