<svg width="44" height="48" viewBox="0 0 44 48" fill="none" xmlns="http://www.w3.org/2000/svg"><path d="M43.056 10.294L27.81 1.426S25.396 0 21.543 0c-4.01 0-6.339 1.47-6.339 1.47L1.082 9.628l21.485 12.455v25.191l14.14-8.148s2.527-1.408 4.445-4.755a15.15 15.15 0 0 0 1.904-5.798V10.294zm-22.99 4.104s3.152-.585 5.817.966l4.236 2.463v5.39c0 2.584-2.16 5.268-2.16 5.268v-9.487l-7.893-4.6zm12.496 20.81l-4.606 2.663v-2.492l3.585-2.07a9.587 9.587 0 0 0 2.839-3.243 9.687 9.687 0 0 0 1.143-4.171V14.654l-9.77-5.674s-1.486-.984-4.154-.984c-2.669 0-4.125.91-4.125.91l-3.43 1.99-2.159-1.265 4.738-2.734s1.85-1.04 4.966-1.04c1.752.012 3.48.396 5.075 1.127l11.018 6.434V25.68c.077 1.887-.793 6.495-5.093 9.528" fill="#005F9E"/><path d="M0 17.783l15.06 8.719v2.6l-8.57-4.957-5.389 3.092 13.95 8.114v2.491L.104 29.164c.04 1.015.953 4.15 2.699 6.573a12.148 12.148 0 0 0 3.797 3.5l13.807 8.044V23.329L.01 11.496 0 17.783z" fill="#005F9E"/></svg>