<svg width="44" height="48" viewBox="0 0 44 48" fill="none" xmlns="http://www.w3.org/2000/svg">
<path d="M43.0557 10.2944L27.8112 1.42614C27.8112 1.42614 25.3959 0 21.5431 0C17.5331 0 15.2041 1.46973 15.2041 1.46973L1.08249 9.628L22.5672 22.0834V47.2744L36.7074 39.1255C36.7074 39.1255 39.2337 37.718 41.1524 34.3706C42.1727 32.5896 42.8204 30.6163 43.0557 28.5726V10.2944ZM20.0656 14.3984C20.0656 14.3984 23.2181 13.813 25.8833 15.3637L30.1185 17.8268C30.1185 17.8268 30.1185 19.9878 30.1185 23.2168C30.1185 25.8013 27.9592 28.4854 27.9592 28.4854V18.9976L20.0656 14.3984ZM32.5616 35.2082L27.9562 37.8706V35.3795L31.5405 33.3088C32.7188 32.4597 33.6899 31.3507 34.3799 30.066C35.0699 28.7813 35.4608 27.3548 35.5229 25.8947V14.6537L25.7537 8.98032C25.7537 8.98032 24.2669 7.99635 21.5986 7.99635C18.9304 7.99635 17.4744 8.90559 17.4744 8.90559L14.0443 10.8953L11.885 9.63112L16.6231 6.89716C16.6231 6.89716 18.4739 5.85714 21.5894 5.85714C23.3405 5.86873 25.0695 6.25281 26.6637 6.98435L37.6821 13.4176V25.6799C37.7593 27.5669 36.8894 32.1753 32.5893 35.2082" fill="#005F9E"/>
<path d="M9.15527e-05 17.783L15.0595 26.5018V29.1018L6.49024 24.1446L1.1013 27.2366L15.0502 35.3513V37.8424L0.10496 29.1641C0.145061 30.1792 1.05812 33.3149 2.80405 35.7374C3.80687 37.1651 5.10183 38.3587 6.60128 39.2374L20.4083 47.2805V23.3288L0.00933578 11.4962L9.15527e-05 17.783Z" fill="#005F9E"/>
</svg>
