<?xml version="1.0" encoding="utf-8"?><svg xmlns="http://www.w3.org/2000/svg" xmlns:xlink="http://www.w3.org/1999/xlink"><symbol viewBox="0 0 24 24" id="Behance" xmlns="http://www.w3.org/2000/svg"><g clip-path="url(#aclip0_6_840)"><path d="M7.109 3c.72 0 1.374.068 1.965.208.592.14 1.101.366 1.523.683.422.316.75.736.985 1.26.232.525.348 1.172.348 1.94 0 .832-.174 1.524-.518 2.08-.347.556-.856 1.008-1.535 1.365.931.294 1.626.804 2.086 1.537.46.732.687 1.614.687 2.644 0 .832-.15 1.55-.443 2.161a4.122 4.122 0 01-1.196 1.492c-.5.384-1.072.669-1.713.854-.641.186-1.3.276-1.978.276H0V3h7.109zm-.422 6.681c.592 0 1.08-.153 1.46-.46.381-.308.572-.81.572-1.502 0-.384-.062-.7-.19-.949a1.504 1.504 0 00-.51-.578 2.01 2.01 0 00-.728-.29 4.388 4.388 0 00-.857-.081H3.323v3.86h3.364zm.19 7.003c.323 0 .633-.037.931-.104.298-.068.559-.186.782-.348a1.69 1.69 0 00.538-.66c.133-.276.203-.633.203-1.063 0-.845-.22-1.45-.654-1.812-.438-.362-1.014-.543-1.734-.543h-3.62v4.53h3.554zm9.952-.348c.45.479 1.1.714 1.945.714.608 0 1.13-.167 1.564-.497.438-.33.703-.683.802-1.054h2.645c-.422 1.433-1.072 2.46-1.945 3.074-.873.615-1.933.927-3.174.927-.86 0-1.634-.15-2.326-.452a4.766 4.766 0 01-1.754-1.284 5.868 5.868 0 01-1.109-1.989 7.895 7.895 0 01-.393-2.54c0-.895.132-1.727.401-2.496a5.992 5.992 0 011.142-1.998 5.447 5.447 0 011.767-1.329c.683-.325 1.445-.484 2.276-.484.931 0 1.742.195 2.433.588a5.055 5.055 0 011.705 1.582c.443.665.766 1.42.964 2.265a9.1 9.1 0 01.211 2.658h-7.89c.04 1.067.285 1.835.736 2.315zm3.397-6.288c-.36-.43-.906-.647-1.639-.647-.48 0-.877.09-1.195.267a2.297 2.297 0 00-.762.66c-.19.262-.323.538-.401.832a3.896 3.896 0 00-.137.786h4.887c-.145-.836-.393-1.464-.753-1.898zm1.461-6.212h-6.108v1.85h6.108v-1.85z"/></g><defs><clipPath id="aclip0_6_840"><path d="M0 0h24v24H0z"/></clipPath></defs></symbol><symbol viewBox="0 0 24 24" id="Dribble" xmlns="http://www.w3.org/2000/svg"><path d="M12 0C5.376 0 0 5.376 0 12s5.376 12 12 12c6.6 0 12-5.376 12-12S18.6 0 12 0zm7.92 5.52c1.44 1.752 2.28 3.96 2.328 6.384-.336-.072-3.72-.744-7.128-.336-.072-.168-.144-.36-.216-.528a27.99 27.99 0 00-.672-1.488c3.744-1.512 5.472-3.744 5.688-4.032zM12 1.776c2.592 0 4.992.984 6.792 2.568-.192.264-1.728 2.328-5.376 3.696-1.68-3.096-3.552-5.616-3.816-6 .768-.168 1.56-.264 2.4-.264zm-4.368.96a66.56 66.56 0 013.792 5.928c-4.8 1.272-9.024 1.248-9.48 1.248C2.64 6.72 4.776 4.08 7.632 2.736zm-5.88 9.288v-.312c.432.024 5.424.072 10.536-1.464.288.576.576 1.152.84 1.752-.12.048-.264.072-.408.12-5.28 1.704-8.088 6.36-8.328 6.744a10.132 10.132 0 01-2.64-6.84zM12 22.248a10.22 10.22 0 01-6.288-2.16c.192-.384 2.256-4.392 8.04-6.408.024-.024.048-.024.072-.024 1.44 3.744 2.04 6.864 2.184 7.776a10.137 10.137 0 01-4.008.816zm5.712-1.752c-.096-.624-.648-3.624-1.992-7.296 3.216-.504 6.024.336 6.384.432a10.184 10.184 0 01-4.392 6.864z"/></symbol><symbol viewBox="0 0 24 24" id="Facebook" xmlns="http://www.w3.org/2000/svg"><path d="M8.743 24h4.971V12h3.857L18 7.8h-4.286V5.143c0-.943.429-1.029.857-1.029h3.343V0h-3.943C9.514 0 8.743 3.086 8.743 5.057V7.8H6V12h2.743v12z"/></symbol><symbol viewBox="0 0 24 24" id="LinkIn" xmlns="http://www.w3.org/2000/svg"><path d="M7.531 19.578a.632.632 0 01-.631.632H4.21a.632.632 0 01-.632-.632V8.304c0-.349.283-.631.632-.631H6.9a.63.63 0 01.631.631v11.274zM5.555 6.61a2.555 2.555 0 110-5.11 2.555 2.555 0 010 5.11zm16.031 13.019c0 .32-.26.58-.58.58h-2.887a.58.58 0 01-.58-.58v-5.288c0-.789.23-3.457-2.062-3.457-1.779 0-2.14 1.826-2.212 2.646v6.099c0 .32-.26.58-.58.58H9.892a.58.58 0 01-.58-.58V8.253c0-.32.26-.58.58-.58h2.791c.32 0 .581.26.581.58v.984c.66-.99 1.64-1.754 3.726-1.754 4.622 0 4.595 4.318 4.595 6.69v5.456z"/></symbol><symbol viewBox="0 0 24 24" id="Telegram" xmlns="http://www.w3.org/2000/svg"><path d="M23.214 1.5c-.078 0-.156 0-.233.078L.466 10.118c-.621.233-.621 1.164 0 1.397l5.202 1.786L8.85 19.59c.077.077.155.155.31.155.078 0 .156 0 .233-.078l2.95-2.484-3.26-2.485.233 3.261-2.33-4.891 12.578-7.53-10.481 9.16 8.152 6.211c.31.233.62.311.854.311.62 0 1.242-.388 1.475-1.087L23.99 2.51c.078-.62-.31-1.009-.776-1.009z"/></symbol><symbol viewBox="0 0 28 24" id="Twiter" xmlns="http://www.w3.org/2000/svg"><path d="M25.064 3.294c-.943.514-1.971.882-3.085 1.102A5.269 5.269 0 0018.379 3c-2.743 0-4.886 1.984-4.886 4.482 0 .367.086.66.086 1.028-4.115-.22-7.715-1.983-10.115-4.702a4.065 4.065 0 00-.685 2.278c0 1.543.857 2.938 2.228 3.673-.771 0-1.543-.22-2.228-.588v.074c0 2.13 1.714 3.967 3.942 4.335-.428.073-.857.146-1.285.146-.343 0-.6 0-.943-.073.6 1.837 2.4 3.086 4.543 3.16-1.715 1.175-3.772 1.91-6.086 1.91-.429 0-.771 0-1.2-.074 2.143 1.249 4.8 1.984 7.543 1.984 9.086 0 13.971-6.76 13.971-12.637v-.588c.943-.661 1.8-1.396 2.486-2.277-.857.367-1.8.587-2.829.734 1.029-.66 1.8-1.47 2.143-2.571z"/></symbol><symbol viewBox="0 0 24 24" id="VK" xmlns="http://www.w3.org/2000/svg"><g clip-path="url(#gclip0_7_369)"><path d="M21.412 14.271c-1.97-1.8-1.713-1.542.685-4.714 1.456-1.971 2.055-3.086 1.884-3.6-.171-.514-1.285-.343-1.285-.343H19.1s-.257 0-.428.086c-.171.086-.343.343-.343.343s-.6 1.457-1.37 2.743c-1.627 2.743-2.227 2.828-2.484 2.657-.6-.429-.428-1.543-.428-2.4 0-2.572.428-3.943-.77-4.2-.429-.086-.686-.343-1.542-.343h-1.2c-.856 0-1.541.257-1.97.514-.428.172-.77.772-.599.772.257 0 .771.171 1.028.6.428.428.428 1.628.428 1.628s.171 3.086-.514 3.429c-.428.257-1.113-.257-2.57-2.657C5.654 7.5 5.054 6.129 5.054 6.129s-.085-.258-.257-.429c-.257-.171-.6-.171-.6-.171H.772s-.514 0-.685.257c-.172.171 0 .6 0 .6s2.655 6.085 5.738 9.257c2.826 2.914 5.91 2.571 5.91 2.571h1.456s.428 0 .685-.171c.171-.257.171-.514.171-.514s0-1.886.857-2.229c.856-.257 2.055 1.8 3.168 2.657.943.6 1.628.514 1.628.514l3.169-.085s1.713-.086.856-1.372c0-.171-.428-1.028-2.312-2.743z"/></g><defs><clipPath id="gclip0_7_369"><path d="M0 0h24v24H0z"/></clipPath></defs></symbol><symbol viewBox="0 0 24 24" id="Youtube" xmlns="http://www.w3.org/2000/svg"><path d="M23.743 6.686s-.257-1.715-.943-2.4c-.943-.943-1.971-.943-2.4-1.029C17.057 3 12 3 12 3s-5.057 0-8.4.257c-.429.086-1.457.086-2.4 1.029-.686.771-.943 2.4-.943 2.4S0 8.657 0 10.629v1.885c0 1.972.257 3.943.257 3.943s.257 1.714.943 2.4c.943.943 2.143.943 2.657 1.029 1.886.171 8.143.257 8.143.257s5.057 0 8.4-.257c.429-.086 1.457-.086 2.4-1.029.686-.771.943-2.4.943-2.4S24 14.486 24 12.514V10.63c0-1.972-.257-3.943-.257-3.943zM9.514 14.743V7.886l6.515 3.428-6.515 3.429z"/></symbol><symbol viewBox="0 0 36 27" id="burger" xmlns="http://www.w3.org/2000/svg"><path fill-rule="evenodd" clip-rule="evenodd" d="M36 3H0V0h36v3zm0 12H0v-3h36v3zm0 12H0v-3h36v3z"/></symbol><symbol viewBox="0 0 12 7" id="chevron-down" xmlns="http://www.w3.org/2000/svg"><path fill-rule="evenodd" clip-rule="evenodd" d="M.293.293a1 1 0 011.414 0L6 4.586 10.293.293a1 1 0 111.414 1.414l-5 5a1 1 0 01-1.414 0l-5-5a1 1 0 010-1.414z"/></symbol><symbol viewBox="0 0 18 18" id="close" xmlns="http://www.w3.org/2000/svg"><path fill-rule="evenodd" clip-rule="evenodd" d="M.44.44a1.5 1.5 0 012.12 0L9 6.878l6.44-6.44a1.5 1.5 0 012.12 2.122L11.122 9l6.44 6.44a1.5 1.5 0 01-2.122 2.12L9 11.122l-6.44 6.44A1.5 1.5 0 01.44 15.44L6.878 9 .439 2.56a1.5 1.5 0 010-2.12z"/></symbol><symbol viewBox="0 0 24 24" id="download" xmlns="http://www.w3.org/2000/svg"><path d="M7 19H6a5 5 0 01-.331-9.99A7 7 0 0118.929 11H19a4 4 0 010 8h-2m-8-4l3 3m0 0l3-3m-3 3v-8"/></symbol><symbol viewBox="0 0 16 16" id="insta" xmlns="http://www.w3.org/2000/svg"><path d="M7.873 1.546c2.102 0 2.35.008 3.18.046.768.035 1.185.163 1.463.27.341.127.65.328.905.59.261.254.463.563.589.905.107.277.236.694.27 1.462.039.83.047 1.079.047 3.181 0 2.102-.008 2.351-.046 3.181-.035.768-.164 1.185-.271 1.462a2.608 2.608 0 01-1.494 1.494c-.278.108-.695.236-1.462.271-.83.038-1.08.046-3.181.046-2.103 0-2.352-.008-3.182-.046-.767-.035-1.184-.163-1.462-.27a2.439 2.439 0 01-.905-.59 2.438 2.438 0 01-.589-.905c-.107-.277-.236-.694-.27-1.462-.039-.83-.047-1.079-.047-3.18 0-2.103.008-2.352.046-3.182.035-.768.164-1.185.271-1.462a2.44 2.44 0 01.59-.905 2.44 2.44 0 01.905-.59c.277-.107.694-.235 1.461-.27.83-.038 1.08-.046 3.182-.046zm0-1.419c-2.138 0-2.407.01-3.246.048-.838.038-1.41.171-1.911.366a3.86 3.86 0 00-1.395.908c-.4.393-.71.869-.908 1.394-.194.5-.327 1.073-.365 1.911C.009 5.594 0 5.862 0 8s.01 2.406.048 3.246c.038.838.17 1.41.365 1.91.198.526.508 1.002.908 1.395.394.4.87.71 1.395.908.5.195 1.073.328 1.91.366.84.038 1.109.048 3.247.048s2.406-.01 3.245-.048c.838-.038 1.41-.171 1.911-.366a4.026 4.026 0 002.303-2.302c.194-.501.327-1.073.366-1.911.038-.84.047-1.108.047-3.246s-.009-2.406-.047-3.246c-.039-.838-.171-1.41-.366-1.91a3.858 3.858 0 00-.908-1.395c-.393-.4-.87-.71-1.395-.908-.5-.195-1.073-.328-1.91-.366-.84-.038-1.108-.048-3.246-.048z"/><path d="M7.873 3.958a4.043 4.043 0 100 8.085 4.043 4.043 0 000-8.085zm0 6.666a2.624 2.624 0 110-5.249 2.624 2.624 0 010 5.25zm4.202-5.882a.945.945 0 100-1.889.945.945 0 000 1.89z"/></symbol><symbol viewBox="0 0 20 20" id="magnifier" xmlns="http://www.w3.org/2000/svg"><path fill-rule="evenodd" clip-rule="evenodd" d="M9 2a7 7 0 100 14A7 7 0 009 2zM0 9a9 9 0 1116.032 5.618l3.675 3.675a1 1 0 01-1.414 1.414l-3.675-3.675A9 9 0 010 9z"/></symbol><symbol viewBox="0 0 31 35" id="play" xmlns="http://www.w3.org/2000/svg"><path d="M29 14.036c2.667 1.54 2.667 5.388 0 6.928L6.5 33.954c-2.667 1.54-6-.384-6-3.464V4.51c0-3.08 3.333-5.004 6-3.464L29 14.036z"/></symbol></svg>