<svg width="973" height="641" viewBox="0 0 973 641" fill="none" xmlns="http://www.w3.org/2000/svg"><g clip-path="url(#a)"><path fill-rule="evenodd" clip-rule="evenodd" d="M774.614 522.55v53.427c.791-.029 1.583-.063 2.379-.109 11.409.223 22.828.446 34.259.671v-50.465c-11.481-1.111-22.9-2.205-34.259-3.283-.779-.087-1.579-.162-2.379-.241z" fill="#BCBEC0"/><path fill-rule="evenodd" clip-rule="evenodd" d="M909.287 544.535v34.009c20.434.433 40.851.881 61.251 1.345v-29.863a10011.642 10011.642 0 0 0-61.251-5.491z" fill="#939598"/><path d="M690.023 543.368l-.129-.875c-17.288 2.583-34.584 7.174-51.867 11.665l.22.834c17.284-4.471 34.555-9.053 51.776-11.624zm-205.682 5.245l-20.342-4.287-.179.863 20.342 4.287.179-.863zm205.691-12.269l-.15-.866c-22.967 3.987-45.976 12.081-68.922 18.506l.238.833c22.983-6.433 45.963-14.515 68.834-18.485v.012zm-156.924 15.385l-69.084-18.293-.225.849 69.08 18.298.229-.854zm156.945-28.892l-.192-.858c-32.017 7.082-64.168 24.163-96.035 31.616l.204.834c32.021-7.499 64.168-24.581 96.023-31.613v.021zm-142.54 29.501a78.775 78.775 0 0 1-4.388-1.133l-79.093-23.022-.246.833 79.089 23.018c1.483.417 2.963.812 4.442 1.15l.196-.858v.012zm142.545-36.005l-.205-.833c-36.984 8.999-74.168 32.684-110.835 37.804l.121.875c36.934-5.183 74.168-28.897 110.935-37.825l-.016-.021zm.02-12.544l-.242-.833c-41.634 11.957-83.697 45.732-124.685 45.703a67.536 67.536 0 0 1-22.005-3.579l-79.076-27.051-.288.834 79.093 27.038a68.58 68.58 0 0 0 22.292 3.625c41.455-.03 83.527-33.901 124.928-45.737h-.017z" fill="#2D2D2F"/><path d="M690.086 497.732l-.262-.834c-41.668 12.836-83.793 49.065-124.74 49.032a63.274 63.274 0 0 1-21.93-3.82l-79.084-28.989-.305.834 79.094 28.98a64.045 64.045 0 0 0 22.233 3.874c41.443-.025 83.594-36.358 125.003-49.069l-.009-.008z" fill="#2D2D2F"/><path d="M690.099 486.021l-.288-.833c-41.667 14.544-84.001 55.509-124.856 55.468a56.484 56.484 0 0 1-21.788-4.283l-79.098-32.763-.333.813 79.085 32.762a57.337 57.337 0 0 0 22.121 4.354c41.409-.042 83.714-41.12 125.144-55.518h.013z" fill="#2D2D2F"/><path d="M690.107 480.355l-.304-.834c-41.668 15.374-84.106 58.631-124.915 58.585a53.587 53.587 0 0 1-21.709-4.512l-79.097-34.579-.35.804 79.093 34.579a54.424 54.424 0 0 0 22.084 4.583c41.396-.05 83.781-43.428 125.219-58.639l-.021.013z" fill="#2D2D2F"/><path d="M690.124 469.381l-.333-.833c-41.705 16.973-84.306 64.667-125.003 64.609a49.07 49.07 0 0 1-21.575-4.937l-79.093-38.175-.379.792 79.08 38.187a49.957 49.957 0 0 0 21.959 5.033c41.363-.059 83.902-47.911 125.357-64.676h-.013z" fill="#2D2D2F"/><path d="M690.128 464.069l-.346-.834c-41.713 17.748-84.402 67.584-125.073 67.53a47.025 47.025 0 0 1-21.509-5.15l-79.093-39.882-.396.783 79.11 39.899a47.98 47.98 0 0 0 21.904 5.246c41.343-.063 83.956-50.049 125.42-67.601l-.017.009z" fill="#2D2D2F"/><path d="M690.145 453.729l-.367-.8c-41.73 19.252-84.585 73.262-125.177 73.195a43.872 43.872 0 0 1-21.384-5.545l-79.093-43.299-.417.771L542.8 521.35a44.7 44.7 0 0 0 21.805 5.657c41.297-.071 84.064-54.239 125.548-73.278h-.008z" fill="#2D2D2F"/><path d="M690.144 448.713l-.379-.796c-41.734 19.998-84.693 76.016-125.227 75.945a42.46 42.46 0 0 1-21.321-5.737l-79.094-44.949-.416.767 79.093 44.945a43.275 43.275 0 0 0 21.755 5.853c41.275-.071 84.118-56.243 125.606-76.028h-.017z" fill="#2D2D2F"/><path d="M690.157 438.964l-.416-.783c-41.747 21.405-84.885 81.365-125.328 81.282-7.142 0-14.196-1.854-21.196-6.108l-79.098-48.165-.458.75 79.093 48.169c7.13 4.333 14.367 6.249 21.667 6.249 41.251-.087 84.219-60.217 125.728-81.386l.008-.008z" fill="#2D2D2F"/><path d="M690.161 434.222l-.417-.779c-41.746 22.081-84.972 83.965-125.373 83.878-7.121 0-14.167-1.904-21.138-6.287l-79.093-49.736-.471.742 79.093 49.74c7.105 4.466 14.33 6.428 21.609 6.428 41.205-.091 84.273-62.13 125.786-83.986h.004z" fill="#2D2D2F"/><path d="M690.17 424.99l-.417-.77c-41.755 23.447-85.151 89.027-125.464 88.931-7.084 0-14.092-2.012-21.03-6.629l-79.093-52.806-.492.729 79.097 52.811c7.084 4.707 14.259 6.782 21.518 6.782 41.154-.1 84.364-65.854 125.894-89.048h-.013z" fill="#2D2D2F"/><path d="M690.178 420.495l-.438-.763c-41.759 24.098-85.243 91.494-125.511 91.389-7.083 0-14.058-2.058-20.975-6.799l-79.093-54.31-.509.725 79.09 54.31c7.046 4.825 14.225 6.958 21.475 6.958 41.13-.104 84.41-67.675 125.952-91.514l.009.004z" fill="#2D2D2F"/><path d="M564.13 508.043c41.08-.108 84.493-71.199 126.053-96.313l-.455-.758c-41.763 25.38-85.418 96.301-125.598 96.192-7.05 0-13.996-2.162-20.871-7.128l-79.093-57.239-.517.712 79.097 57.223c6.996 5.062 14.142 7.295 21.363 7.295h.021v.016z" fill="#2D2D2F"/><path d="M690.19 407.451l-.466-.746c-41.772 26.001-85.502 98.634-125.644 98.521-7.03 0-13.963-2.208-20.834-7.282l-79.093-58.668-.521.704 79.106 58.668c6.983 5.174 14.125 7.458 21.342 7.458 41.059-.117 84.539-72.933 126.11-98.659v.004z" fill="#2D2D2F"/><path d="M563.988 502.327c41.01-.125 84.623-76.291 126.211-103.225l-.475-.738c-41.776 27.218-85.672 103.204-125.731 103.084-7.005 0-13.901-2.3-20.717-7.587l-79.098-61.455-.542.696 79.098 61.48c6.933 5.382 14.042 7.766 21.25 7.766l.004-.021z" fill="#2D2D2F"/><path d="M563.943 500.481c40.988-.129 84.66-77.907 126.252-105.458l-.483-.733c-41.78 27.813-85.752 105.442-125.773 105.312-6.988 0-13.867-2.345-20.667-7.732l-79.094-62.847-.545.688 79.089 62.846c6.921 5.496 14.017 7.916 21.2 7.916l.021.008z" fill="#2D2D2F"/><path d="M563.855 496.878c40.938-.137 84.743-81.132 126.352-109.816l-.5-.729c-41.78 28.98-85.906 109.799-125.836 109.662-6.962 0-13.804-2.429-20.571-8.02l-79.093-65.538-.563.679 79.077 65.534c6.879 5.699 13.954 8.224 21.117 8.224l.017.004z" fill="#2D2D2F"/><path d="M563.813 495.111c40.917-.142 84.776-82.694 126.398-111.941l-.508-.725c-41.785 29.547-85.985 111.924-125.89 111.787-6.95 0-13.784-2.466-20.53-8.162l-79.093-66.854-.567.671 79.093 66.858c6.863 5.795 13.921 8.366 21.08 8.366h.017z" fill="#2D2D2F"/><path d="M563.73 491.661c40.872-.146 84.848-85.748 126.486-116.111l-.517-.712c-41.792 30.655-86.135 116.09-125.969 115.944-6.925 0-13.721-2.549-20.417-8.436l-79.093-69.438-.579.659 79.089 69.441c6.833 5.995 13.867 8.653 21.008 8.653h-.008z" fill="#2D2D2F"/><path d="M563.692 489.971c40.834-.155 84.885-87.24 126.528-118.145l-.525-.708c-41.789 31.196-86.206 118.123-126.003 117.969-6.912 0-13.7-2.583-20.396-8.561l-79.093-70.704-.588.654 79.094 70.708c6.812 6.087 13.833 8.787 20.967 8.787h.016z" fill="#2D2D2F"/><path d="M563.613 486.663c40.805-.159 84.956-90.169 126.611-122.127l-.538-.7c-41.792 32.259-86.343 122.106-126.073 121.948-6.884 0-13.642-2.663-20.313-8.824l-79.093-73.196-.596.646 79.089 73.2c6.783 6.249 13.783 9.053 20.9 9.053h.013z" fill="#2D2D2F"/><path d="M690.228 360.961l-.541-.691c-41.793 32.783-86.41 124.055-126.111 123.889-6.875 0-13.621-2.7-20.271-8.945l-79.098-74.412-.6.642 79.089 74.412c6.771 6.366 13.751 9.165 20.88 9.165 40.784-.162 85.002-91.597 126.669-124.081l-.017.021z" fill="#2D2D2F"/><path d="M563.5 481.867c40.743-.171 85.052-94.401 126.736-127.901l-.558-.688c-41.793 33.8-86.548 127.877-126.178 127.706-6.85 0-13.566-2.771-20.192-9.191l-79.093-76.807-.612.629 79.093 76.807c6.733 6.537 13.7 9.445 20.792 9.445h.012z" fill="#2D2D2F"/><path d="M563.467 480.317c40.718-.175 85.081-95.771 126.765-129.771l-.554-.684c-41.796 34.3-86.61 129.751-126.211 129.568-6.837 0-13.55-2.812-20.158-9.316l-79.093-77.982-.613.625 79.089 77.978c6.721 6.62 13.675 9.582 20.763 9.582h.012zM159.531 589.471V87.623c14.683-20.969 30.713-38.658 47.409-51.944l16.171 36.429v63.226h1.113V71.883l-16.847-37.962-.566.441c-17.042 13.453-33.368 31.43-48.289 52.77l-.104.14v502.199h1.113z" fill="#2D2D2F"/><path d="M539.925 416.271l-.329-.817-75.852 30.313.329.821 75.852-30.317zm71.381-5.124l-.296-.834-71.631 25.314.296.833 71.631-25.313zm-71.393-81.845l-.458-.754-75.773 45.453.455.754 75.776-45.453zm-48.03 59.747l-.409-.787-27.767 14.436.409.787 27.767-14.436zm-.554-184.874l.692-.396-.438-.766-.783.47-27.201 27.193.625.625 27.105-27.126zm.629 82.42l-.546-.692-27.775 21.798.545.691 27.776-21.797zm-.021 23.509l-.525-.716-27.763 20.106.52.712 27.768-20.102zm-133.29 279.367V22.077l8.95-20.086-.804-.362-9.034 20.26.004 567.582h-.004.888zm397.491-85.49l-.375-.058a883.511 883.511 0 0 1-53.36-10.128l-.537-.121v58.047l.416.037a1982.14 1982.14 0 0 0 53.401 4.225l.471.029v-52.031h-.016zm-.884 51.09a1924.766 1924.766 0 0 1-52.501-4.167v-56.135a878.21 878.21 0 0 0 52.501 9.966v50.336z" fill="#2D2D2F"/><path d="M774.768 522.966l-.296-.837-84.656 30.267.296.829 84.656-30.259zM242.645 589.47V260.102h-.884V589.47h.884zm209.708-.374l-132.536-84.494-.475.741 132.536 84.494.475-.741zM332.367 285.058l-1.633-4.133-.821.325 1.633 4.133.821-.325zm28.484 72.116l-23.647-59.876-.825.329 23.647 59.872.825-.325zm-13.217 6.541l-27.655-59.481-.8.371 27.655 59.48.8-.37z" fill="#2D2D2F"/><path d="M252.065 274.771l-9.471-14.861-.746.475 9.476 14.865.741-.479zm21.421 33.613l-14.687-23.039-.742.471 14.683 23.043.746-.475zm100.39 274.209c30.188-.304 60.084-5.574 90.072-8.357l-.079-.88c-30.038 2.788-59.909 8.054-90.002 8.358-42.055.416-84.168 3.162-126.173 3.162-15.771 0-31.53-.392-47.272-1.429l-97.902-6.474-.058.879 97.919 6.474c15.767 1.037 31.538 1.429 47.326 1.429 42.05 0 84.168-2.746 126.185-3.162h-.016z" fill="#2D2D2F"/><path d="M227.948 436.469c39.388-.059 101.569-55.123 146.045-68.205 82.605-24.534 60.305-160.847 90.326-240.804l-.833-.313c-30.001 80.407-8.125 216.341-89.752 240.259-44.746 13.236-107.056 68.225-145.798 68.167-11.45 0-20.767-4.725-27.167-16.769l-97.898-185.082-.783.417 97.897 185.082c6.488 12.277 16.225 17.239 27.917 17.239h.055l-.009.009z" fill="#2D2D2F"/><path d="M228.173 438.947c39.451-.054 101.385-54.544 145.836-67.425 81.668-23.898 60.306-158.494 90.327-237.264l-.833-.308c-30.001 79.228-9.08 213.437-89.748 236.726-44.705 13.032-106.769 67.446-145.578 67.392-11.512 0-20.909-4.716-27.392-16.748l-97.573-181.758-.341-.774-.809.35.359.812 97.585 181.786c6.575 12.27 16.383 17.215 28.117 17.211h.054-.004z" fill="#2D2D2F"/><path d="M228.648 444.001c39.584-.059 100.99-53.373 145.336-65.826 79.668-22.63 60.314-153.702 90.335-230.072l-.833-.321c-30.001 76.833-11.046 207.517-89.748 229.535-44.617 12.611-106.16 65.855-145.094 65.801-11.667 0-21.213-4.696-27.884-16.694l-97.881-176.829-.775.417 97.919 176.833c6.758 12.231 16.725 17.147 28.596 17.147h.029v.009z" fill="#2D2D2F"/><path d="M228.906 446.571c39.63-.054 100.786-52.769 145.082-65.018 78.677-21.98 60.31-151.231 90.331-226.389l-.833-.329c-30.001 75.608-12.046 204.48-89.743 225.869-44.585 12.398-105.836 65.038-144.849 64.992-11.725 0-21.371-4.683-28.13-16.665L103.112 255.49l-.225-.73-.833.259.262.833 97.686 173.633c6.862 12.211 16.908 17.111 28.846 17.111h.054l.004-.025z" fill="#2D2D2F"/><path d="M229.432 451.812c39.755-.054 100.348-51.531 144.553-63.326 76.626-20.71 60.313-146.257 90.33-218.907l-.812-.333c-30.001 73.112-14.1 198.26-89.748 218.386-44.484 11.966-105.181 63.372-144.323 63.326-11.876 0-21.696-4.662-28.659-16.59l-97.919-168.25-.758.437 97.914 168.226c7.084 12.161 17.284 17.031 29.363 17.031h.059z" fill="#2D2D2F"/><path d="M229.707 454.487c39.809-.05 100.118-50.89 144.278-62.493 75.576-20.072 60.313-143.707 90.33-215.086l-.812-.338c-30.001 71.842-15.142 195.077-89.739 214.558-44.439 11.74-104.848 62.492-144.053 62.459-11.954 0-21.863-4.645-28.934-16.552l-97.673-164.93-.125-.509-.858.196.158.646 97.736 165.047c7.179 12.136 17.5 16.985 29.638 16.985h.058l-.004.017z" fill="#2D2D2F"/><path d="M230.282 459.903c39.942-.05 99.635-49.577 143.698-60.73 73.439-18.806 60.318-138.509 90.335-207.284l-.808-.354c-30 69.246-17.284 188.544-89.739 206.779-44.343 11.291-104.136 60.756-143.482 60.706-12.109 0-22.213-4.616-29.517-16.461l-97.902-159.302-.75.463 97.918 159.314c7.413 12.082 17.917 16.881 30.209 16.881h.059l-.021-.012z" fill="#2D2D2F"/><path d="M230.582 462.698c40.001-.05 99.385-48.911 143.394-59.834 72.347-18.173 60.326-135.851 90.339-203.309l-.804-.363c-30 67.909-18.383 185.186-89.739 202.801-44.297 11.065-103.752 59.86-143.186 59.809-12.188 0-22.396-4.582-29.817-16.414l-97.598-155.769-.308-.65-.796.375.333.696 97.623 155.814c7.538 12.045 18.134 16.832 30.521 16.832h.042l-.004.012z" fill="#2D2D2F"/><path d="M231.215 468.352c40.143-.046 98.848-47.52 142.757-57.977 70.11-16.91 60.331-130.401 90.34-195.159l-.796-.371c-30.022 65.196-20.617 178.312-89.74 194.668-44.196 10.59-102.985 57.997-142.556 57.956-12.359 0-22.776-4.583-30.455-16.303l-97.919-149.982-.741.479 97.897 149.982c7.805 11.97 18.601 16.703 31.155 16.703h.042l.016.004z" fill="#2D2D2F"/><path d="M231.566 471.235c40.209-.046 98.568-46.799 142.423-57.022 68.964-16.282 60.326-127.635 90.335-190.994l-.796-.379c-30.021 63.813-21.758 174.762-89.739 190.514-44.138 10.353-102.577 57.044-142.223 56.998-12.447 0-22.976-4.541-30.793-16.248L103.18 307.788l-.217-.633-.833.283.266.737 97.627 146.433c7.942 11.919 18.842 16.627 31.476 16.627h.067z" fill="#2D2D2F"/><path d="M232.248 477.118c40.351-.042 97.977-45.307 141.72-55.052 66.626-15.036 60.334-121.96 90.335-182.478l-.788-.392c-30.025 60.98-24.096 167.48-89.739 182.016-44.034 9.865-101.727 55.072-141.528 55.027-12.625 0-23.388-4.491-31.496-16.082l-97.919-140.245-.717.504 97.894 140.245c8.242 11.811 19.367 16.461 32.176 16.461h.046l.016-.004z" fill="#2D2D2F"/><path d="M232.615 480.117c40.417-.042 97.664-44.536 141.353-54.031 65.418-14.419 60.334-119.057 90.335-178.129l-.784-.395c-30.025 59.522-25.288 163.73-89.739 177.657-43.972 9.628-101.281 54.056-141.161 54.015-12.713 0-23.6-4.466-31.867-15.994l-97.577-136.442-.296-.633-.8.362.338.712 97.618 136.513c8.4 11.749 19.638 16.369 32.538 16.365h.046-.004z" fill="#2D2D2F"/><path d="M233.394 486.242c40.564-.038 96.998-42.912 140.566-51.927 62.988-13.195 60.347-113.103 90.339-169.205l-.779-.417c-30.03 56.552-27.722 156.052-89.735 168.759-43.864 9.12-100.357 51.948-140.391 51.915-12.917 0-24.05-4.408-32.65-15.803l-97.919-130.042-.7.529 97.894 130.047c8.75 11.611 20.238 16.148 33.334 16.148h.033l.008-.004z" fill="#2D2D2F"/><path d="M233.799 489.366c40.634-.038 96.668-42.078 140.161-50.827 61.743-12.582 60.347-110.054 90.335-164.639l-.771-.417c-30.038 55.027-28.967 152.066-89.739 164.197-43.801 8.858-99.869 50.861-140.003 50.828-13.008 0-24.284-4.371-33.063-15.69l-97.643-126.235-.192-.454-.833.341.25.555 97.722 126.305c8.909 11.528 20.526 16.032 33.705 16.032h.05l.021.004z" fill="#2D2D2F"/><path d="M234.66 495.732c40.78-.033 95.907-40.357 139.295-48.577 59.201-11.391 60.355-103.8 90.335-155.269l-.758-.442c-30.043 51.902-31.497 143.908-89.74 154.848-43.68 8.333-98.847 48.595-139.127 48.557-13.217 0-24.776-4.291-33.93-15.415l-97.923-119.331-.683.558 97.918 119.331c9.301 11.345 21.188 15.753 34.584 15.753h.034l-.005-.013z" fill="#2D2D2F"/><path d="M235.111 498.994c40.834-.033 95.514-39.445 138.84-47.398 18.113-3.333 30.834-14.482 40.605-29.688 21.492-33.405 29.167-86.477 49.73-120.773l-.754-.454c-20.68 34.537-28.367 87.61-49.718 120.748-9.712 15.09-22.2 26.017-40.025 29.305-43.61 8.057-98.311 47.415-138.678 47.381-13.334 0-25.03-4.245-34.384-15.277l-97.644-115.324-.245-.483-.788.392.3.575L200.056 483.4c9.504 11.228 21.534 15.586 35.001 15.586h.033l.021.008z" fill="#2D2D2F"/><path d="M236.069 505.635c40.997-.034 94.681-37.529 137.878-44.941 55.268-9.636 60.36-94.009 90.335-140.6l-.741-.479c-30.051 47.015-35.418 130.984-89.744 140.213-43.476 7.499-97.189 44.953-137.723 44.919-13.538 0-25.563-4.137-35.351-14.923l-97.91-108.058-.655.588 97.919 108.057c9.95 10.987 22.28 15.224 35.984 15.224h.008z" fill="#2D2D2F"/><path d="M236.566 509.023c41.08-.034 94.247-36.525 137.377-43.658 53.926-9.069 60.364-90.63 90.335-135.537l-.733-.492c-30.055 45.324-36.747 126.485-89.739 135.154-43.422 7.229-96.61 43.674-137.236 43.641-13.642 0-25.834-4.079-35.834-14.727l-98.14-104.409-.641.605 98.135 104.412c10.183 10.832 22.671 14.998 36.48 14.998l-.004.013z" fill="#2D2D2F"/><path d="M237.624 515.926c41.225-.029 93.335-34.396 136.315-40.958 51.201-7.953 60.372-83.673 90.331-125.122l-.717-.521c-30.063 41.849-39.451 117.178-89.743 124.764-43.285 6.666-95.39 40.983-136.182 40.95-13.875 0-26.405-3.942-36.922-14.261l-97.918-96.159-.617.625 97.919 96.163c10.687 10.494 23.492 14.515 37.525 14.515l.009.004z" fill="#2D2D2F"/><path d="M238.174 519.446c41.305-.025 92.831-33.271 135.761-39.537 49.826-7.412 60.372-80.099 90.327-119.769l-.7-.534c-30.072 40.062-40.834 112.362-89.748 119.424-43.213 6.353-94.752 39.553-135.636 39.528-13.992 0-26.7-3.862-37.501-13.99l-97.56-91.743-.333-.504-.738.479.417.583 97.648 91.819c10.946 10.29 23.925 14.227 38.067 14.227l-.004.017z" fill="#2D2D2F"/><path d="M373.93 490.074c47.042-6.353 60.372-72.725 90.314-108.737l-.675-.566c-30.075 36.378-43.58 102.379-89.756 108.428-43.071 5.745-93.427 36.558-134.473 36.537-14.238 0-27.322-3.682-38.659-13.356l-97.919-83.578-.575.671 97.898 83.577c11.517 9.824 24.854 13.566 39.238 13.566 41.438-.025 91.789-30.876 134.586-36.546l.021.004z" fill="#2D2D2F"/><path d="M373.93 495.316c45.643-5.833 60.372-68.929 90.31-103.05l-.662-.579c-30.084 34.479-44.959 97.196-89.764 102.758-42.997 5.416-92.74 34.971-133.874 34.95-14.35 0-27.63-3.579-39.271-12.986l-97.898-79.211-.558.687 97.918 79.211c11.813 9.558 25.33 13.182 39.826 13.182 41.513-.021 91.252-29.58 133.99-34.962h-.017z" fill="#2D2D2F"/><path d="M241.186 537.702c41.667 0 90.135-26.842 132.736-31.584 42.851-4.866 60.368-61.092 90.302-91.33l-.625-.621c-30.093 30.563-47.714 86.452-89.773 91.072-42.851 4.8-91.335 31.597-132.636 31.576-14.583 0-28.275-3.333-40.538-12.12l-97.919-70.208-.516.721 97.897 70.204c12.434 8.911 26.313 12.286 41.03 12.286h.025l.017.004z" fill="#2D2D2F"/><path d="M373.913 511.697c41.476-4.4 60.372-57.047 90.298-85.277l-.604-.638c-30.101 28.538-49.072 80.865-89.781 85.036-42.78 4.474-90.614 29.796-132.003 29.775-14.712 0-28.592-3.187-41.188-11.611l-97.898-65.558-.491.733 97.918 65.558c12.763 8.537 26.847 11.766 41.668 11.766 41.721 0 89.56-25.368 132.086-29.784h-.005z" fill="#2D2D2F"/><path d="M373.91 523.229c38.75-3.504 60.355-48.677 90.277-72.766l-.551-.688c-30.104 24.356-51.726 69.246-89.797 72.575-42.638 3.804-89.169 25.934-130.719 25.918-14.951 0-29.243-2.854-42.501-10.416l-97.898-55.951-.442.766 97.919 55.952c13.421 7.661 27.884 10.544 42.943 10.544 41.846 0 88.385-22.164 130.794-25.921l-.025-.013z" fill="#2D2D2F"/><path d="M373.906 529.186c37.463-3.087 60.347-44.344 90.264-66.292l-.517-.716c-30.109 22.193-53.005 63.196-89.814 66.129-42.563 3.458-88.447 23.86-130.077 23.848-15.063 0-29.559-2.663-43.164-9.741l-97.918-50.981-.417.779 97.919 50.981c13.75 7.162 28.408 9.849 43.571 9.849 41.901 0 87.798-20.414 130.149-23.856h.004z" fill="#2D2D2F"/><path d="M373.902 541.559c35-2.295 60.317-35.374 90.235-52.91l-.446-.762c-30.109 17.698-55.393 50.577-89.844 52.768-42.425 2.746-87.085 19.394-128.844 19.386-15.275 0-30.171-2.221-44.438-8.145l-97.919-40.691-.337.833 97.898 40.691c14.404 5.978 29.417 8.211 44.78 8.211 41.992 0 86.668-16.664 128.902-19.385l.013.004z" fill="#2D2D2F"/><path d="M373.897 547.946c33.876-1.925 60.293-30.717 90.214-45.936l-.395-.787c-30.109 15.369-56.477 43.994-89.865 45.827-42.363 2.383-86.426 16.998-128.265 16.99-15.375 0-30.45-1.971-45.042-7.232l-97.898-35.35-.296.833 97.898 35.35c14.704 5.307 29.888 7.295 45.338 7.295 42.034 0 86.114-14.636 128.336-16.994l-.025.004z" fill="#2D2D2F"/><path d="M373.888 561.253c31.943-1.25 60.231-21.047 90.165-31.496l-.288-.833c-30.088 10.536-58.334 30.254-89.91 31.45-42.242 1.625-85.302 11.828-127.252 11.828-15.555 0-30.951-1.404-46.105-5.154l-97.919-24.259-.208.833 97.897 24.26c15.242 3.749 30.714 5.178 46.318 5.178 42.084 0 85.16-10.211 127.286-11.823l.016.016z" fill="#2D2D2F"/><path d="M373.885 568.173c31.179-.921 60.188-16.023 90.135-23.993l-.225-.833c-30.076 8.011-59.027 23.068-89.936 23.964-42.188 1.249-84.847 9.057-126.844 9.053-15.625 0-31.154-1.084-46.542-3.983l-97.919-18.494-.158.867 97.919 18.468c15.454 2.917 31.038 4 46.705 4 42.084 0 84.772-7.828 126.869-9.053l-.004.004z" fill="#2D2D2F"/><path d="M229.069 291.719h-.883l-.004 297.747.883.004.004-297.751zm0-11.144v-21.877h-.883v21.877h.883zm0-32.459v-20.664h-.883v20.664h.883zm0-30.876v-19.677h-.883v19.677h.883zm0-29.329v-18.873h-.883v18.873h.883zm0-28.156v-17.943h-.883v17.943h.883zm263.039 429.716l.012-69.05-28.288 5.028.154.867 27.251-4.841-.013 67.996h.884z" fill="#2D2D2F"/><path d="M227.507 431.598c39.276-.058 101.935-56.243 146.495-69.733 84.48-25.806 60.292-165.472 90.322-247.721l-.833-.308c-30.001 82.723-6.25 222.002-89.752 247.187-44.822 13.644-107.619 69.754-146.253 69.692-11.321 0-20.488-4.742-26.725-16.815L103.03 223.831l-.138-.45-.833.258.171.521 97.756 190.14c6.316 12.311 15.904 17.298 27.442 17.298h.079z" fill="#2D2D2F"/><path d="M227.299 429.203c39.217-.058 102.085-56.793 146.703-70.475 85.418-26.443 60.292-167.742 90.322-251.128l-.833-.3c-30.001 83.856-5.317 224.764-89.756 250.582-44.855 13.844-107.885 70.5-146.44 70.442-11.251 0-20.359-4.746-26.518-16.836L102.88 218.461l-.784.417 97.898 193.023c6.25 12.319 15.755 17.323 27.234 17.318h.067l.004-.016zm584.398 96.472l-.416-.038a20051.628 20051.628 0 0 0-34.251-3.287c-.783-.087-1.588-.163-2.388-.238l-.483-.05v54.369h.454a86.5 86.5 0 0 0 2.359-.108c11.408.222 22.828.445 34.259.67h.454v-51.318h.012zm-.883 50.41l-33.842-.662c-.642.041-1.28.071-1.917.096v-52.494c.637.062 1.275.125 1.896.196 11.222 1.072 22.51 2.154 33.863 3.245v49.619zm160.182-26.463l-.417-.038a10507.396 10507.396 0 0 0-61.251-5.495l-.479-.037v34.921h.417c20.433.433 40.851.883 61.251 1.349h.45v-30.717l.029.017zm-.883 29.817c-20.109-.455-40.237-.898-60.385-1.329v-33.096c20.176 1.75 40.304 3.555 60.385 5.416v29.013-.004zm-80.902-99.863h1.025v1.887h-1.025v-1.887zm0-6.557h1.025v1.887h-1.025v-1.887zm0-6.558h1.025v1.887h-1.025v-1.887zm0-6.558h1.025v1.888h-1.025v-1.888zm0-6.553h1.025v1.887h-1.025v-1.887zm0-6.562h1.025v1.887h-1.025v-1.887zm0-6.558h1.025v1.888h-1.025v-1.888zm0-6.557h1.025v1.887h-1.025v-1.887zm0-6.554h1.025v1.887h-1.025v-1.887zm0-13.114h1.025v1.887h-1.025v-1.887zm0-13.115h1.025v1.887h-1.025v-1.887zm0-13.116h1.025v1.888h-1.025v-1.888zm0-13.115h1.025v1.887h-1.025v-1.887zm0-13.11h1.025v1.887h-1.025v-1.887zm0-13.115h1.025v1.887h-1.025v-1.887zm0-13.116h1.025v1.888h-1.025v-1.888zm0-6.557h1.025v1.887h-1.025v-1.887zm0-6.558h1.025v1.887h-1.025v-1.887z" fill="#2D2D2F"/><path fill-rule="evenodd" clip-rule="evenodd" d="M890.236 422.449l-1.025-.004v-1.883l1.025-.004v1.891z" fill="#2D2D2F"/><path d="M889.211 407.447h1.025v1.887h-1.025v-1.887zm0-13.115h1.025v1.887h-1.025v-1.887zm0-13.115h1.025v1.887h-1.025v-1.887zm0-13.112h1.025v1.888h-1.025v-1.888zm0-13.119h1.025v1.888h-1.025v-1.888zm0-13.11h1.025v1.887h-1.025v-1.887zm-260.576-57.535h1.025v1.887h-1.025v-1.887zm0-6.558h1.025v1.887h-1.025v-1.887zm0-6.557h1.025v1.887h-1.025v-1.887zm0-13.116h1.025v1.888h-1.025v-1.888zm0-13.114h1.025v1.887h-1.025v-1.887zm0-13.115h1.025v1.887h-1.025v-1.887zm0-13.115h1.025v1.887h-1.025v-1.887zm0-13.112h1.025v1.888h-1.025v-1.888zm0-13.115h1.025v1.887h-1.025v-1.887zm0-13.114h1.025v1.887h-1.025v-1.887zm0-6.558h1.025v1.887h-1.025v-1.887zm0-6.558h1.025v1.887h-1.025v-1.887z" fill="#2D2D2F"/><path fill-rule="evenodd" clip-rule="evenodd" d="M629.66 266.555h-1.025v-1.887h1.025v1.887z" fill="#2D2D2F"/><path d="M628.635 251.554h1.025v1.887h-1.025v-1.887zm0-13.116h1.025v1.887h-1.025v-1.887zm0-13.111h1.025v1.887h-1.025v-1.887zm0-13.115h1.025v1.887h-1.025v-1.887zm0-13.115h1.025v1.887h-1.025v-1.887zm0-13.116h1.025v1.888h-1.025v-1.888zm68.105 235.083l.468.912-1.679.861-.468-.912 1.679-.861zm5.805-2.888l.469.912-1.679.862-.469-.911 1.679-.863zm5.854-3.089l.468.912-1.679.862-.468-.911 1.679-.863zm5.813-2.922l.469.911-1.679.863-.469-.911 1.679-.863zm5.862-3.101l.468.912-1.679.861-.468-.911 1.679-.862zm5.827-2.984l.468.912-1.679.861-.468-.912 1.679-.861zm5.836-3.005l.468.911-1.679.862-.468-.912 1.679-.861zm5.828-2.994l.469.911-1.678.863-.469-.911 1.678-.863zm5.81-2.898l.469.912-1.679.863-.469-.911 1.679-.864zm5.854-3.07l.467.912-1.68.86-.467-.912 1.68-.86zm5.834-3.025l.468.912-1.679.862-.468-.912 1.679-.862zm5.817-2.908l.469.912-1.679.863-.469-.911 1.679-.864zm5.829-2.979l.469.911-1.679.863-.469-.912 1.679-.862zm5.854-3.1l.468.912-1.679.861-.468-.912 1.679-.861zm5.812-2.893l.469.911-1.679.862-.469-.911 1.679-.862zm5.841-3.021l.47.911-1.679.864-.469-.911 1.678-.864zm5.849-3.08l.468.912-1.679.861-.468-.911 1.679-.862zm5.828-3l.469.912-1.678.864-.469-.911 1.678-.865zm11.651-5.906l.469.911-1.679.864-.469-.912 1.679-.863zm11.681-6.068l.467.912-1.679.861-.468-.912 1.68-.861zm11.654-5.929l.469.911-1.679.863-.469-.912 1.679-.862zm11.664-5.987l.469.911-1.679.863-.469-.911 1.679-.863zm11.667-6.001l.47.911-1.678.864-.47-.911 1.678-.864zm11.667-6.006l.469.911-1.679.863-.469-.911 1.679-.863zm11.662-5.989l.469.911-1.678.864-.47-.912 1.679-.863zm5.838-2.995l.469.912-1.678.864-.47-.912 1.679-.864zm5.84-3.069l.468.911-1.68.862-.468-.912 1.68-.861zm-87.493 44.962l.468.912-1.679.862-.468-.912 1.679-.862zm11.651-5.9l.469.912-1.679.862-.469-.911 1.679-.863zm11.686-6.093l.468.912-1.679.862-.468-.912 1.679-.862zm11.645-5.906l.47.911-1.678.865-.47-.911 1.678-.865zm11.667-5.992l.469.912-1.679.863-.469-.912 1.679-.863zm11.668-5.999l.468.912-1.679.861-.469-.911 1.68-.862zm11.669-6.002l.468.912-1.68.861-.468-.912 1.68-.861zM531.69 221.394l.507.89-1.64.934-.507-.891 1.64-.933zm5.704-3.238l.506.891-1.641.932-.506-.891 1.641-.932zm11.423-6.493l.506.891-1.641.932-.506-.891 1.641-.932zm11.406-6.473l.506.891-1.641.932-.506-.892 1.641-.931zm11.45-6.544l.505.892-1.643.929-.505-.892 1.643-.929zm11.394-6.452l.505.892-1.642.931-.505-.892 1.642-.931z" fill="#2D2D2F"/><path fill-rule="evenodd" clip-rule="evenodd" d="M593.321 187.574l-.508-.892 1.642-.933.504.892-1.638.933z" fill="#2D2D2F"/><path d="M605.88 179.25l.506.892-1.642.93-.506-.891 1.642-.931zm11.385-6.441l.506.891-1.642.932-.506-.892 1.642-.931zm5.721-3.264l.505.893-1.643.929-.504-.892 1.642-.93zm5.682-3.202l.506.891-1.642.932-.506-.892 1.642-.931zm-85.538 48.529l.505.892-1.643.929-.505-.892 1.643-.929zm11.427-6.505l.505.892-1.641.931-.506-.891 1.642-.932zm11.412-6.487l.506.891-1.642.932-.506-.892 1.642-.931zm11.381-6.429l.506.891-1.641.932-.506-.891 1.641-.932zm11.427-6.506l.506.891-1.641.932-.506-.891 1.641-.932zm11.392-6.45l.506.891-1.642.932-.506-.892 1.642-.931zm11.387-6.437l.506.891-1.642.931-.506-.892 1.642-.93zm360.761 247.593l1.185 1.469-.798.644-1.185-1.469.798-.644zm-4.127-5.13l1.185 1.469-.798.643-1.185-1.469.798-.643zm-4.085-5.02l1.186 1.468-.797.644-1.186-1.468.797-.644zm-4.134-5.156l1.185 1.468-.798.644-1.185-1.469.798-.643zm-4.102-5.062l1.184 1.471-.799.642-1.183-1.47.798-.643z" fill="#2D2D2F"/><path fill-rule="evenodd" clip-rule="evenodd" d="M948.812 394.507l-.8.641-1.183-1.47.8-.642 1.183 1.471z" fill="#2D2D2F"/><path d="M939.386 382.784l1.185 1.469-.798.643-1.185-1.469.798-.643zm-8.216-10.14l1.185 1.469-.797.644-1.185-1.469.797-.644zm-8.23-10.224l1.183 1.471-.799.642-1.183-1.471.799-.642zm-8.234-10.22l1.183 1.471-.799.642-1.183-1.471.799-.642zm-8.236-10.23l1.184 1.469-.798.643-1.184-1.469.798-.643zm-8.229-10.185l1.186 1.469-.798.644-1.185-1.469.797-.644zm-4.108-5.079l1.182 1.472-.799.642-1.182-1.472.799-.642zm-4.118-5.112l1.185 1.468-.797.644-1.186-1.468.798-.644zm60.474 77.849l1.189 1.472-.8.646-1.189-1.472.8-.646zm-6.984-11.524l1.184 1.47-.798.643-1.184-1.47.798-.643zm-8.229-10.227l1.184 1.469-.798.643-1.185-1.469.799-.643zm-8.219-10.153l1.185 1.469-.798.643-1.185-1.469.798-.643zm-8.24-10.24L920 358.77l-.799.642-1.183-1.47.799-.643zm-8.233-10.204l1.187 1.468-.798.644-1.186-1.468.797-.644zm-8.225-10.2l1.186 1.468-.798.644-1.185-1.469.797-.643zm-31.121 131.551l1.176 1.476-.802.639-1.176-1.476.802-.639zm-4.096-5.111l1.18 1.473-.8.64-1.18-1.472.8-.641zm-4.093-5.102l1.18 1.474-.801.64-1.179-1.473.8-.641zm-4.093-5.121l1.177 1.476-.802.639-1.176-1.476.801-.639zm-4.105-5.152l1.18 1.473-.8.641-1.18-1.473.8-.641zm-4.095-5.109l1.18 1.473-.801.641-1.179-1.474.8-.64zm-4.096-5.148l1.178 1.475-.801.64-1.178-1.475.801-.64zm-4.09-5.076l1.18 1.473-.8.64-1.18-1.472.8-.641zm-4.11-5.205l1.181 1.473-.8.641-1.181-1.473.8-.641zm-4.09-5.108l1.179 1.474-.801.64-1.179-1.474.801-.64zm-4.093-5.065l1.179 1.474-.8.64-1.18-1.474.801-.64zm-4.102-5.189l1.179 1.474-.8.64-1.179-1.473.8-.641zm-4.096-5.129l1.177 1.475-.802.639-1.176-1.475.801-.639zm-4.09-5.061l1.179 1.474-.8.64-1.18-1.473.801-.641zm-4.104-5.191l1.179 1.473-.8.641-1.179-1.473.8-.641zm-4.094-5.122l1.179 1.474-.801.64-1.178-1.474.8-.64zm-4.094-5.085l1.179 1.473-.8.641-1.18-1.474.801-.64zm-4.095-5.135l1.179 1.474-.8.64-1.179-1.474.8-.64zm-4.098-5.102l1.179 1.475-.801.64-1.178-1.475.8-.64zm-4.097-5.112l1.179 1.474-.8.64-1.18-1.473.801-.641zm-4.093-5.087l1.179 1.474-.8.64-1.179-1.474.8-.64zm-4.098-5.175l1.179 1.474-.801.64-1.179-1.474.801-.64zm-4.095-5.107l1.18 1.474-.8.64-1.18-1.473.8-.641zm-4.1-5.099l1.18 1.473-.8.641-1.18-1.473.8-.641zm-4.093-5.164l1.179 1.474-.8.64-1.179-1.474.8-.64zm-4.094-5.123l1.18 1.474-.801.64-1.179-1.473.8-.641zm-4.102-5.029l1.18 1.473-.8.641-1.18-1.473.8-.641zm-4.091-5.175l1.179 1.474-.8.64-1.179-1.474.8-.64zm-4.1-5.082l1.179 1.474-.801.64-1.179-1.474.801-.64zm-4.091-5.181l1.18 1.473-.8.641-1.18-1.474.8-.64zm-4.105-5.054l1.179 1.473-.8.641-1.179-1.474.8-.64zm-4.088-5.173l1.18 1.473-.801.641-1.179-1.473.8-.641zm-4.097-5.128l1.18 1.474-.8.64-1.18-1.473.8-.641zm-4.098-5.094l1.18 1.473-.8.64-1.18-1.473.8-.64zm-4.096-5.118l1.18 1.473-.801.64-1.18-1.473.801-.64zm-4.096-5.107l1.179 1.474-.801.64-1.179-1.473.801-.641zm-4.1-5.137l1.179 1.473-.8.641-1.179-1.474.8-.64zm-4.103-5.093l1.181 1.473-.8.641-1.181-1.473.8-.641zm-4.087-5.168l1.18 1.474-.801.64-1.179-1.473.8-.641zm-4.097-5.097l1.178 1.474-.8.64-1.179-1.474.801-.64zm-4.085-5.185l1.18 1.474-.8.64-1.18-1.473.8-.641zm-4.112-5.053l1.18 1.473-.8.64-1.18-1.473.8-.64zm-4.082-5.179l1.179 1.474-.801.64-1.179-1.473.801-.641zm-4.11-5.058l1.179 1.473-.8.641-1.179-1.474.8-.64zm-8.189-10.249l1.179 1.473-.8.641-1.179-1.474.8-.64zm-8.189-10.25l1.179 1.473-.801.641-1.179-1.474.801-.64zm-10.498-8.307l1.189 1.472-.799.646-1.189-1.473.799-.645zm-5.9-12.144l1.177 1.475-.801.64-1.177-1.475.801-.64zm-8.192-10.246l1.18 1.473-.801.641-1.179-1.474.8-.64zm-8.19-10.247l1.179 1.474-.8.64-1.179-1.474.8-.64zm-8.189-10.264l1.179 1.474-.801.641-1.179-1.474.801-.641zm-1.356-5.785l1.171 1.472-.8.636-1.17-1.472.799-.636zm-6.822-4.489l1.179 1.474-.8.64-1.18-1.473.801-.641zm61.444 76.796l1.179 1.474-.8.64-1.179-1.474.8-.64zm-8.189-10.251l1.179 1.474-.801.64-1.178-1.474.8-.64zm-8.197-10.223l1.179 1.474-.801.64-1.179-1.474.801-.64zm-8.183-10.262l1.179 1.474-.8.64-1.179-1.474.8-.64zm-8.198-10.218l1.178 1.475-.801.639-1.178-1.474.801-.64zm-8.223-10.171l1.18 1.473-.8.641-1.18-1.474.8-.64zm-8.154-10.338l1.179 1.474-.801.64-1.179-1.474.801-.64zM480.111 456.846l.345.965-2.417.864-.345-.965 2.417-.864zm4.794-1.802l.347.965-2.415.868-.347-.965 2.415-.868zm4.69-1.623l.344.966-2.417.862-.345-.965 2.418-.863zm4.743-1.716l.346.965-2.416.866-.346-.965 2.416-.866zm4.764-1.752l.345.965-2.416.866-.346-.965 2.417-.866zm4.732-1.698l.347.965-2.416.867-.346-.964 2.415-.868zm4.704-1.649l.347.964-2.416.868-.346-.965 2.415-.867zm4.704-1.64l.347.965-2.416.867-.346-.964 2.415-.868zm4.727-1.689l.345.965-2.416.866-.346-.965 2.417-.866zm4.729-1.692l.346.965-2.417.865-.345-.965 2.416-.865zm4.735-1.696l.344.965-2.417.864-.345-.965 2.418-.864zm4.729-1.695l.346.965-2.417.866-.345-.965 2.416-.866zm4.79-1.801l.345.965-2.417.865-.345-.965 2.417-.865z" fill="#2D2D2F"/><path fill-rule="evenodd" clip-rule="evenodd" d="M480.824 421.445l-.417-.937 2.342-1.05.416.933-2.341 1.054zm4.583-2.083l-.417-.933 2.342-1.054.417.937-2.342 1.05zm4.583-2.058l-.416-.933 2.341-1.054.417.937-2.346 1.05h.004zm4.584-2.058l-.417-.937 2.338-1.05.416.933-2.337 1.054zm4.583-2.062l-.416-.934 2.341-1.049.417.933-2.338 1.05h-.004zm4.584-2.058l-.417-.938 2.342-1.05.416.933-2.337 1.055h-.004zm4.583-2.059l-.417-.933 2.342-1.054.417.933-2.338 1.054h-.004zm4.584-2.083l-.417-.933 2.337-1.054.417.937-2.337 1.05zm-33.296-69.432l-.575-.834 2.12-1.441.575.833-2.12 1.442zm4.166-2.825l-.575-.833 2.121-1.438.575.834-2.121 1.441v-.004zm4.167-2.82l-.575-.834 2.125-1.441.575.833-2.125 1.442zm4.167-2.825l-.575-.833 2.121-1.442.575.833-2.121 1.438v.004zm4.167-2.821l-.575-.833 2.125-1.437.575.833-2.125 1.441v-.004zm4.166-2.824l-.575-.834 2.121-1.441.579.833-2.125 1.442zm4.167-2.821l-.579-.833 2.125-1.442.579.834-2.125 1.441zm4.167-2.824l-.575-.834 2.125-1.441.575.833-2.125 1.437v.005zm4.167-2.821l-.58-.833 2.125-1.442.575.834-2.12 1.441z" fill="#2D2D2F"/><path fill-rule="evenodd" clip-rule="evenodd" d="M463.907 589.217c-76.565 0-153.129.034-229.692.104l-131.723.15V404.935l131.723 75.511c70.152 40.212 148.336 58.327 229.692 66.713v42.058z" fill="#fff"/><path d="M1049.12 586.767v-.879c-64.678.417-129.354 1.083-194.034 1.083-12.726 0-25.452-.026-38.18-.079-34.115-.161-68.232-.229-102.352-.204-37.723 0-75.445.017-113.165.05-122.419 0-244.83-.529-367.145-4.97l-130.623-4.758-19.225-.35v.879l19.217.354 130.611 4.754c122.335 4.445 244.758 4.97 367.178 4.974 37.722 0 75.444-.016 113.164-.05 34.12 0 68.236.067 102.348.2 12.728.053 25.456.081 38.184.084 64.685 0 129.369-.663 194.042-1.088h-.02z" fill="#2D2D2F"/><path d="M1049.13 577.926l-.02-.879c-65.476 1.779-130.948 4.508-196.412 4.508a2191 2191 0 0 1-35.797-.292c-31.717-.537-63.476-.692-95.256-.692-42.296 0-84.631.271-126.94.271-120.702 0-241.254-2.212-360.423-19.231l-131.728-18.814-.125.871 131.723 18.814c119.24 17.031 239.838 19.239 360.553 19.239 42.318 0 84.648-.27 126.94-.266 31.78 0 63.535.154 95.244.691 11.945.192 23.881.289 35.809.292 65.489 0 130.965-2.712 196.432-4.491v-.021z" fill="#2D2D2F"/><path d="M1049.13 580.793v-.879c-65.384 1.338-130.756 3.383-196.128 3.379-12.025 0-24.054-.074-36.088-.221-31.592-.416-63.21-.525-94.843-.529-42.626 0-85.269.213-127.92.213-120.289 0-240.488-1.692-359.886-14.624l-131.727-14.269-.088.875 131.724 14.273c119.452 12.916 239.679 14.624 359.977 14.628 42.635 0 85.281-.213 127.92-.208 31.629 0 63.242.116 94.839.524 12.031.15 24.061.224 36.092.221 65.385 0 130.765-2.041 196.138-3.383h-.01z" fill="#2D2D2F"/><path d="M1049.14 569.756l-.04-.879c-65.587 3.029-131.155 7.633-196.719 7.633-11.819 0-23.643-.16-35.471-.479-33.363-.95-66.864-1.209-100.419-1.209-38.609 0-77.293.329-115.948.329-123.627 0-246.917-3.424-366.215-32.192L102.6 511.192l-.208.854 131.727 31.772c119.415 28.796 242.784 32.217 366.424 32.217 38.659 0 77.348-.329 115.948-.329 33.555 0 67.043.254 100.394 1.204 11.839.333 23.673.494 35.501.483 65.605 0 131.185-4.583 196.754-7.637z" fill="#2D2D2F"/><path d="M1049.14 572.415l-.03-.884c-65.559 2.625-131.102 6.612-196.641 6.608-11.85 0-23.703-.139-35.559-.417-32.638-.804-65.368-1.029-98.148-1.033-40.217 0-80.505.338-120.76.338-122.403 0-244.543-3.088-363.687-28.014l-131.727-27.559-.183.863 131.727 27.575c119.248 24.943 241.446 28.026 363.866 28.03 40.263 0 80.547-.333 120.76-.333 32.776 0 65.501.221 98.127 1.025 11.864.278 23.724.416 35.58.416 65.572 0 131.132-3.982 196.675-6.603v-.012z" fill="#2D2D2F"/><path d="M1049.15 562.17l-.06-.879c-65.627 4.191-131.233 10.553-196.834 10.549-11.783 0-23.566-.22-35.346-.659-36.618-1.429-73.527-1.758-110.561-1.758-31.484 0-63.051.234-94.585.234-128.661 0-256.926-3.95-377.395-44.008l-131.728-43.798-.275.833 131.699 43.803c120.631 40.112 248.996 44.049 377.674 44.049 31.551 0 63.118-.234 94.585-.234 37.03 0 73.931.334 110.527 1.763a905.76 905.76 0 0 0 35.38.658c65.66 0 131.282-6.362 196.889-10.553h.03z" fill="#2D2D2F"/><path d="M1049.15 564.64l-.05-.879c-65.624 3.812-131.221 9.582-196.814 9.582-11.792 0-23.584-.201-35.376-.604-35.334-1.25-70.901-1.566-106.565-1.566-34.279 0-68.651.279-102.989.279-126.736 0-253.072-3.875-373.007-40.191l-131.728-39.883-.258.833 131.727 39.887c120.09 36.358 246.518 40.224 373.266 40.224 34.342 0 68.714-.279 102.989-.279 35.66 0 71.219.313 106.532 1.567 11.808.416 23.614.619 35.417.608 65.647 0 131.253-5.791 196.866-9.607l-.01.029z" fill="#2D2D2F"/><path d="M1049.16 555.079l-.08-.875c-65.647 5.274-131.248 13.278-196.891 13.278-11.759 0-23.516-.278-35.272-.834-42.588-2.083-85.78-2.395-129.169-2.399-18.613 0-37.263.058-55.909.058-136.845 0-273.706-3.116-397.458-54.823l-131.732-55.039-.337.809 131.752 55.06c123.961 51.789 260.947 54.885 397.8 54.885 18.65 0 37.301-.055 55.909-.055 43.376 0 86.552.317 129.115 2.4 11.775.575 23.546.833 35.318.833 65.692 0 131.335-8.007 196.964-13.286l-.01-.012z" fill="#2D2D2F"/><path d="M1049.15 557.392l-.06-.879c-65.644 4.924-131.254 12.39-196.872 12.39-11.772 0-23.54-.259-35.304-.775-40.076-1.833-80.623-2.175-121.336-2.175-23.996 0-48.051.113-72.085.113-133.548 0-266.876-3.646-389.099-51.311L102.67 463.378l-.32.833 131.715 51.369c122.406 47.74 255.838 51.394 389.411 51.394 24.055 0 48.11-.117 72.085-.117 40.709 0 81.252.346 121.294 2.179a758.14 758.14 0 0 0 35.347.775c65.68 0 131.311-7.474 196.928-12.394l.02-.025z" fill="#2D2D2F"/><path d="M1049.16 548.434l-.08-.875c-65.667 6.295-131.294 15.832-196.928 15.832-11.746 0-23.484-.305-35.23-.984-195.287-11.369-407.637 19.002-582.511-68.079l-131.728-65.584-.396.788 131.728 65.583c175.224 87.227 387.695 56.789 582.849 68.171 11.767.684 23.525.988 35.284.988 65.722 0 131.369-9.553 197.012-15.832v-.008z" fill="#2D2D2F"/><path d="M1049.16 550.604l-.08-.874c-65.659 5.957-131.281 14.998-196.907 14.998-11.751 0-23.501-.292-35.255-.938-195.179-10.769-405.95 18.794-582.511-64.513l-131.724-62.142-.375.796 131.723 62.146c176.904 83.44 387.787 53.81 582.845 64.576a632.23 632.23 0 0 0 35.301.937c65.709 0 131.357-9.049 196.983-14.998v.012z" fill="#2D2D2F"/><path d="M1049.17 544.223l-.09-.88c-65.672 6.941-131.294 17.465-196.937 17.465-11.733 0-23.475-.337-35.217-1.087-195.496-12.532-410.996 19.11-582.511-74.991l-131.436-72.117-.184-.266-.733.491.308.45 131.624 72.217c171.87 94.276 387.507 62.55 582.857 75.103 11.767.746 23.521 1.087 35.276 1.092 65.734 0 131.39-10.537 197.033-17.473l.01-.004zm-921.145 18.688l-3.754-.296-.066.884 3.75.295.07-.883z" fill="#2D2D2F"/><path d="M126.671 589.471V460.149h-.883v129.322h.883zm-17.487 0v-24.376h-.884v24.376h.884zm-6.255-.001v-22.368l3.829-1.433-.304-.833-4.409 1.646v22.988h.884zm-18.046.001v-54.173H84v54.173h.883zm54.818 0l-.004-27.214-6.988-.604-.079.875 6.188.538.004 26.405h-.004.883zm42.705 0l-.004-29.334-17.267-1.863-.092.875 16.48 1.779.004 28.543h.879z" fill="#2D2D2F"/><path d="M119.129 589.471v-23.827l-12.65-.887-.059.883 11.826.829v23.002h.883zm38.368 0V459.628h-.883v129.843h.883zm40.663 0V438.439h-.883v151.032h.883zm132.603 0V281.087h-.884v308.384h.884zm336.802-265.372l-.375-.8-12.821 6.066.379.796 12.817-6.062zm-109.977-88.852l.625-.113-.158-.866-.838.15-9.654 7.578h-.004l.55.691 9.479-7.44zm64.043 57.022l-.442-.762-11.475 6.616.442.758 11.475-6.612zm24.687 17.986l-.404-.783-12.154 6.278.408.788 12.15-6.283zm163.563 187.727l-.333-.817-8.217 3.395.333.817 8.217-3.395z" fill="#2D2D2F"/><path d="M801.934 500.978V473.16l7.962-4.328-.42-.775-8.425 4.578.004 28.343h.879zm128.324 88.531l-.008-94.505 7.125-1.963-.233-.85-7.775 2.142.008 95.176v.004l.883-.004z" fill="#2D2D2F"/><path d="M937.445 516.493l-.183-.867-7.542 1.583.179.862 7.546-1.578zm-27.05-4.109l-.205-.854-9.954 2.392.204.858 9.955-2.396z" fill="#2D2D2F"/><path d="M937.445 516.493l-.183-.867-7.542 1.583.179.862 7.546-1.578zm-135.51 72.978v-88.493h-.884v88.493h.884zM132.893 461.803l-8.475-3.374-.33.816 8.484 3.379.321-.821zm297.338-238.98h-.887v2.896c-21.801-6.924-43.151-16.173-65.102-25.118v-12.278h-.879v12.87l.275.112c22.226 9.053 43.872 18.448 66.022 25.439l.575.179v-4.1h-.004zm-65.976 96.797v-14.369h-.883v14.369h.883zm30.979 8.833v-3.579h-.883v3.579h.883zm295.164 21.463l-.237-.125c-89.664-47.24-172.412-124.152-225.863-222.694l-.779.416c53.501 98.63 136.253 175.604 225.996 222.936v2.433C600.318 306.3 517.962 230.684 464.294 133.879l-.771.417c53.889 97.205 136.636 173.067 226.23 219.698l.645.334v-4.412z" fill="#2D2D2F"/><path d="M690.398 360.332l-.241-.121c-88.994-45.149-171.374-118.527-225.871-212.495l-.759.437c54.539 94.043 136.941 167.48 225.988 212.725v2.583c-88.531-44.466-170.512-116.511-225.229-208.692l-.755.45c54.939 92.56 137.312 164.839 226.23 209.35l.637.321v-4.558z" fill="#2D2D2F"/><path d="M690.398 371.197l-.246-.12c-88.31-42.979-170.303-112.695-225.871-201.918l-.75.467c55.618 89.293 137.632 159.064 225.988 202.126v2.745C601.684 332.235 520.082 263.889 464.281 176.5l-.741.471c56.038 87.756 138.015 156.318 226.229 198.622l.633.304v-4.7h-.004z" fill="#2D2D2F"/><path d="M690.398 382.525l-.258-.117c-87.585-40.72-169.17-106.629-225.867-190.923l-.729.492c56.726 84.361 138.336 150.319 225.971 191.11v2.917c-87.114-39.962-168.337-104.459-225.246-186.874l-.725.5c57.164 82.757 138.753 147.458 226.229 187.478l.625.287v-4.87z" fill="#2D2D2F"/><path d="M690.398 394.369l-.262-.116c-86.848-38.35-168.037-100.301-225.871-179.479l-.713.517c57.885 79.24 139.078 141.233 225.967 179.658v3.112c-86.36-37.558-167.166-98.055-225.258-175.296l-.704.529c58.334 77.566 139.498 138.242 226.225 175.842l.616.266v-5.033z" fill="#2D2D2F"/><path d="M690.398 406.78l-.271-.112c-86.072-35.879-166.836-93.701-225.879-167.551l-.683.546c59.08 73.904 139.852 131.767 225.95 167.709v3.333c-85.577-35.042-165.958-91.356-225.267-163.21l-.675.559c59.551 72.158 140.29 128.638 226.221 163.73l.608.246v-5.225l-.004-.025z" fill="#2D2D2F"/><path d="M690.398 419.808l-.283-.108c-85.26-33.283-165.591-86.798-225.879-155.09l-.654.579c60.326 68.326 140.656 121.886 225.937 155.223v3.554c-84.768-32.408-164.715-84.352-225.287-150.586l-.65.596c60.834 66.504 141.111 118.606 226.216 151.044l.6.225v-5.437z" fill="#2D2D2F"/><path d="M690.398 433.519l-.291-.1c-84.419-30.555-164.3-79.574-225.888-142.066l-.621.616c61.618 62.526 141.494 111.553 225.917 142.154v3.808c-83.914-29.626-163.412-76.995-225.296-137.359l-.613.629c62.139 60.597 141.966 108.112 226.205 137.763l.591.208v-5.674l-.004.021z" fill="#2D2D2F"/><path d="M690.398 447.996l-.3-.1c-83.539-27.68-162.953-71.953-225.896-128.372l-.587.654c62.955 56.448 142.373 100.73 225.9 128.477v4.091c-83.018-26.701-162.057-69.275-225.317-123.477l-.571.671c63.514 54.414 142.861 97.105 226.196 123.831l.579.183v-5.937l-.004-.021zm358.772 94.181l-.1-.879c-65.67 7.257-131.292 18.256-196.935 18.252-11.734 0-23.471-.35-35.209-1.138-195.612-13.098-412.662 19.019-582.511-78.348l-131.724-75.512-.442.762 131.728 75.512c170.208 97.555 387.399 65.35 582.87 78.47 11.758.783 23.513 1.137 35.267 1.137 65.743 0 131.394-11.011 197.036-18.256h.02z" fill="#2D2D2F"/><path d="M374.03 352.645c87.306-27.78 60.343-172.304 90.377-257.886l-.996-.35c-30 86.127-3.55 230.193-89.697 257.207-44.964 14.248-108.452 71.966-146.824 71.895a36.26 36.26 0 0 1-3.6-.175l-.1 1.05c1.208.121 2.446.179 3.704.179 39.168-.075 102.502-57.909 147.141-71.937l-.005.017zm-49.997-189.019v-13.652h-.887v13.652h.887zm0 27.747v-18.689h-.887v18.689h.887zm0 29.071v-19.489h-.887v19.489h.887zm0 20.573l-.004-10.557h-.879v8.082L298.279 171.1l.004-109.161h-.884l-.004 109.32 25.784 69.912.854-.154zm617.866 348.454v-79.728h-.883v79.728h.883zm-45.271 0v-87.243h-.883v87.243h.883zm-78.151 0v-99.346h-.884v99.346h.884z" fill="#2D2D2F"/><path fill-rule="evenodd" clip-rule="evenodd" d="M463.908 381.059c65.905 43.365 144.369 77.449 226.05 98.884v5.666c-81.339-20.323-159.636-52.594-226.05-93.639v-10.911zm-.001 33.433c67.468 36.279 145.419 64.822 226.05 82.832v6.053c-80.285-16.818-158.045-43.44-226.05-77.265v-11.62zm.001 35.625c69.114 28.776 146.498 51.44 226.05 65.792v6.487c-79.168-13.082-156.366-33.704-226.05-59.876v-12.403z" fill="#fff"/><path fill-rule="evenodd" clip-rule="evenodd" d="M1090.08 567.686c-101.437-8.969-209.31-16.156-313.087-22.76-108.032-7.953-216.134-28.188-313.086-56.659v13.331c97.919 24.714 205.542 42.279 313.086 49.186 103.856 5.729 211.254 11.97 313.087 19.756v-2.854zm-626.172-38.345c72.697 12.303 148.907 22.014 226.05 28.217v7.624c-76.714-4.716-152.711-12.082-226.05-21.426v-14.415z" fill="#fff"/><path opacity=".5" fill-rule="evenodd" clip-rule="evenodd" d="M562.497 566.074v-62.243c16.03 3.975 32.247 7.68 48.65 11.115v54.161a5089.371 5089.371 0 0 1-48.65-3.033z" fill="#FFEF68"/><path fill-rule="evenodd" clip-rule="evenodd" d="M463.907 501.619c-60.363-2.446-118.873-11.595-180.707-14.686-61.318-2.966-125.236 14.123-180.708 34.954v-10.27c54.747-23.993 119.227-43.678 180.708-40.261 62.084 3.566 120.327 14.102 180.707 16.918v13.345z" fill="#fff"/><path fill-rule="evenodd" clip-rule="evenodd" d="M223.232 304.888v200.46c20.001-2.288 40.093-3.258 59.947-2.446 12.226.517 24.338 1.25 36.372 2.083V304.43c-11.846-2.704-23.934-5.029-36.372-6.72-19.563-2.612-39.855.242-59.947 7.178z" fill="#D1D3D4"/><path fill-rule="evenodd" clip-rule="evenodd" d="M689.958 479.942a799.988 799.988 0 0 0 87.035 17.798c103.16 13.599 214.75 28.397 313.087 46.87v2.366c-98.654-17.498-209.865-31.53-313.087-44.415a834.899 834.899 0 0 1-87.035-16.932v-5.687zm0 17.37c28.783 6.428 57.917 11.519 87.035 15.139 103.335 11.416 213.783 23.843 313.087 39.35v2.5c-99.637-14.482-209.669-26.081-313.087-36.742-29.113-3.387-58.239-8.166-87.035-14.198v-6.049zm0 18.597c28.825 5.2 57.917 9.312 87.035 12.228 103.556 9.09 212.754 18.985 313.087 31.338v2.674c-100.692-11.248-209.456-20.268-313.087-28.546-29.093-2.666-58.197-6.429-87.035-11.19v-6.504zm0 41.65a2468.903 2468.903 0 0 0 87.035 5.445c104.014 3.924 210.462 8.195 313.087 13.523v3.104c-103.042-4.054-208.99-7.299-313.087-10.282a3112.946 3112.946 0 0 1-87.035-4.166v-7.624zm0-88.585a743.05 743.05 0 0 0 87.035 19.443c103.035 14.998 215.362 31.284 313.087 51.631v-2.212c-97.429-21.247-210.106-38.295-313.087-53.948a718.73 718.73 0 0 1-87.035-20.235v5.321z" fill="#fff"/><path fill-rule="evenodd" clip-rule="evenodd" d="M463.908 349.592c64.418 50.077 143.39 89.402 226.05 114.061v5.32c-82.339-23.609-161.149-61.213-226.05-109.095v-10.286zM102.492 543.226C159.468 528.97 222.223 517.271 283.2 519.3c61.33 2.121 120.385 8.378 180.707 10.053v14.415c-60.301-1.25-119.64-6.033-180.707-7.645-60.797-1.542-122.949 7.353-180.708 18.189v-11.086zm361.415-93.109c-60.418-3.879-117.919-18.385-180.707-23.297-61.952-4.704-128.028 22.405-180.708 55.447v9.557c53.334-30.096 118.911-54.789 180.708-50.506 62.542 4.474 120.289 17.689 180.707 21.218v-12.419z" fill="#fff"/><path fill-rule="evenodd" clip-rule="evenodd" d="M463.907 414.492c-60.488-4.866-117.29-23.085-180.707-29.251-62.389-5.907-129.961 28.134-180.708 69.625v8.937c51.376-38.746 118.461-70.517 180.708-64.993 63.205 5.758 120.235 22.769 180.707 27.31v-11.628z" fill="#fff"/><path fill-rule="evenodd" clip-rule="evenodd" d="M463.907 381.058c-60.538-5.795-116.669-27.497-180.707-34.837-62.802-7.037-131.774 33.508-180.708 82.906v8.395c49.526-46.827 118.044-85.248 180.708-78.582 63.826 6.958 120.185 27.522 180.707 33.013v-10.895z" fill="#fff"/><path fill-rule="evenodd" clip-rule="evenodd" d="M463.907 349.592c-60.584-6.666-116.11-31.663-180.707-40.1-63.189-8.099-133.482 38.567-180.708 95.443v7.916c47.784-54.435 117.648-99.101 180.708-91.348 64.409 8.087 120.139 31.992 180.707 38.379v-10.29zm157.496-57.701l.041 297.581h6.326l-.038-292.778a557.476 557.476 0 0 1-6.329-4.803zm24.683 17.963l.07 279.617h5.417l-.041-275.946a462.085 462.085 0 0 1-5.446-3.671zm21.271 13.862l.05 265.755h4.7l-.041-262.885a461.858 461.858 0 0 1-4.709-2.87zm-109.535-89.202v354.957h8.958V243.738a542.514 542.514 0 0 1-8.958-9.224z" fill="#fff"/><path fill-rule="evenodd" clip-rule="evenodd" d="M643.128 505.51l15.854-2.475v-71.083l-15.854 4.512v69.046z" fill="#fff"/><path d="M611.572 514.589l-.354-.071a1363.329 1363.329 0 0 1-44.518-10.099l-.208.854c14.578 3.566 29.31 6.91 44.197 10.032v53.327a4340.767 4340.767 0 0 1-43.843-2.716l-.058.879c14.722.975 29.495 1.89 44.318 2.745h.466v-54.993.042zm-388.249-8.667a404.71 404.71 0 0 1 45.864-2.728c4.675 0 9.337.094 13.987.283 12.221.521 24.326 1.25 36.359 2.083l.621.042V303.959l-.446-.104c-11.862-2.704-23.967-5.037-36.429-6.728a110.412 110.412 0 0 0-14.672-.963c-15.054 0-30.363 2.916-45.542 8.17l.187.546-.187-.546-.392.133v201.526l.65-.075v.004zm.513-1.249V305.28c14.95-5.125 30-7.97 44.771-7.97 4.855-.006 9.705.312 14.517.95 12.259 1.666 24.168 3.953 35.868 6.611v199.46a1278.398 1278.398 0 0 0-35.763-2.033c-4.67-.195-9.351-.29-14.042-.288a405.237 405.237 0 0 0-45.351 2.663zm171.07-176.637c-10.279-2.854-20.579-5.862-30.975-8.824l-.242.833c10.392 2.962 20.692 5.97 30.98 8.824l.237-.833zM207.453 128.21l-.492-.73c-41.555 28.472-80.268 81.845-104.023 142.133v-3.228c23.392-62.168 62.556-117.357 104.519-146.491l-.5-.725c-42.188 29.305-81.427 84.644-104.869 146.982l-.029.067v5.737l.833.162c23.609-61.042 62.698-115.244 104.548-143.907h.013z" fill="#2D2D2F"/><path d="M207.457 103.591l-.509-.72c-41.925 29.879-80.888 86.193-104.014 149.84v-2.833c22.746-65.567 62.176-123.735 104.527-154.286l-.513-.712c-42.58 30.717-82.084 89.043-104.868 154.781l-.025.071v5.504l.854.145c22.955-64.475 62.314-121.689 104.548-151.79z" fill="#2D2D2F"/><path d="M207.465 79.902l-.521-.708c-42.288 31.226-81.489 90.36-104.01 157.248v-2.437c22.113-68.846 61.809-129.893 104.531-161.802l-.525-.708c-42.951 32.08-82.702 93.281-104.865 162.31l-.021.062v5.3l.859.133c22.313-67.796 61.934-127.939 104.552-159.398zm256.534 53.765c-60.73-12.615-112.044-60.026-180.699-76.12l-.2.858c68.38 16.002 119.656 63.409 180.716 76.12l.183-.858z" fill="#2D2D2F"/><path d="M207.473 57.08l-.538-.704c-42.626 32.496-82.085 94.381-103.998 164.393v-2.046c21.497-72.037 61.451-135.896 104.536-169.075l-.542-.696c-43.309 33.367-83.335 97.376-104.86 169.563v5.166l.862.125c21.676-70.995 61.547-133.963 104.54-166.726zm256.522 111.879c-60.693-11.636-112.698-55.373-180.703-70.22l-.184.862c67.743 14.76 119.711 58.488 180.716 70.225l.171-.867zm.004-21.447c-60.718-12.228-112.302-58.202-180.704-73.804l-.191.854c68.13 15.51 119.681 61.48 180.716 73.816l.179-.866zm.004-40.508c-60.764-13.332-111.552-63.539-180.7-80.578l-.208.858c68.86 16.944 119.611 67.125 180.716 80.578l.192-.858z" fill="#2D2D2F"/><path d="M283.862 589.471V12.636c58.097 14.952 103.123 53.918 152.557 73.912l.496-1.25c-49.401-19.935-94.681-59.255-153.553-74.158l-.833-.212V589.47h1.333z" fill="#2D2D2F"/><path d="M268.562 285.582c4.878-.002 9.751.329 14.583.992 64.873 9.14 120.003 36.199 180.716 43.449l.105-.88c-60.514-7.207-115.653-34.262-180.696-43.44a106.82 106.82 0 0 0-14.704-1.004c-59.368 0-122.948 47.011-165.628 103.525v-6.029c42.084-58.926 106.252-108.024 165.599-107.999 4.888-.008 9.77.335 14.608 1.025 65.048 9.478 120.003 37.549 180.716 45.074l.109-.879c-60.526-7.5-115.473-35.55-180.7-45.07a102.729 102.729 0 0 0-14.733-1.033c-59.897 0-124.203 49.373-166.399 108.487l-.079.112v7.633l.791.262c42.568-56.856 106.457-104.242 165.716-104.225h-.004z" fill="#2D2D2F"/><path d="M268.47 252.011c4.909-.008 9.811.36 14.663 1.1 65.389 10.149 119.956 40.191 180.716 48.244l.117-.874c-60.543-8.008-115.119-38.05-180.696-48.24a96.855 96.855 0 0 0-14.8-1.113c-59.797.025-124.252 52.165-165.532 114.882v-5.495c40.667-65.101 105.739-119.331 165.499-119.306 4.92-.007 9.834.37 14.696 1.129 65.551 10.473 119.936 41.478 180.716 49.785l.121-.875c-60.556-8.261-114.952-39.266-180.7-49.777a94.806 94.806 0 0 0-14.833-1.146c-60.335.025-125.536 54.54-166.32 119.832l-.067.108v7.224l.813.242c41.13-63.13 105.944-115.745 165.607-115.72z" fill="#2D2D2F"/><path d="M268.383 220.124c4.94-.008 9.873.393 14.746 1.2 65.877 11.107 119.907 43.978 180.716 52.793l.125-.875c-60.572-8.748-114.614-41.632-180.695-52.785a89.837 89.837 0 0 0-14.892-1.216c-60.205.029-125.494 57.051-165.449 125.651v-4.999c39.334-70.963 105.273-130.085 165.42-130.051a87.154 87.154 0 0 1 14.78 1.25c66.026 11.39 119.881 45.186 180.711 54.251l.13-.874c-60.585-8.999-114.457-42.787-180.696-54.252a88.487 88.487 0 0 0-14.929-1.25c-60.755.029-126.794 59.451-166.253 130.609l-.055.096v6.87l.834.221c39.759-69.088 105.456-126.652 165.507-126.652v.013z" fill="#2D2D2F"/><path d="M268.295 189.773a83.699 83.699 0 0 1 14.83 1.3c66.335 12.007 119.856 47.586 180.716 57.122l.138-.871c-60.606-9.473-114.136-45.053-180.696-57.122a85.041 85.041 0 0 0-15-1.312c-60.589.033-126.669 61.692-165.362 135.896v-4.525c38.064-76.557 104.84-140.324 165.345-140.287a82.042 82.042 0 0 1 14.855 1.329c66.489 12.303 119.844 48.744 180.716 58.522l.142-.87c-60.614-9.708-113.986-46.153-180.696-58.523a83.464 83.464 0 0 0-15-1.341c-61.155.033-128.003 64.121-166.17 140.87l-.042.088v6.537l.834.2c38.459-74.762 105.002-137.067 165.42-137.026l-.03.013z" fill="#2D2D2F"/><path d="M268.233 160.809c5-.008 9.989.46 14.9 1.396 66.785 12.878 119.819 51.031 180.716 61.243l.15-.867c-60.63-10.157-113.686-48.327-180.695-61.243a80.136 80.136 0 0 0-15.071-1.399c-60.96.041-127.773 66.129-165.283 145.665v-4.074c36.839-81.882 104.407-150.111 165.254-150.07 5.01-.005 10.01.471 14.929 1.421 66.926 13.161 119.802 52.144 180.716 62.601l.15-.871c-60.639-10.378-113.531-49.361-180.695-62.592a78.65 78.65 0 0 0-15.1-1.442c-61.535.046-129.17 68.588-166.099 150.674l-.034.083v6.249l.834.184c37.213-80.182 104.547-146.995 165.328-146.958z" fill="#2D2D2F"/><path d="M268.137 133.129a75.16 75.16 0 0 1 14.975 1.479c67.21 13.707 119.777 54.323 180.72 65.213l.154-.87c-60.659-10.811-113.244-51.423-180.695-65.205a75.752 75.752 0 0 0-15.154-1.5c-61.306.046-128.832 70.346-165.203 154.982v-3.642c24.046-58.655 62.959-110.761 104.527-138.42l-.488-.734c-41.792 27.818-80.764 80.066-104.889 138.892l-.03.075v5.987l.834.171c36.042-85.353 104.143-156.478 165.24-156.428h.009z" fill="#2D2D2F"/><path d="M268.112 124.272a73.993 73.993 0 0 1 14.975 1.513l.229-1.088a74.803 74.803 0 0 0-15.204-1.533c-20.175 0-41.022 7.745-61.205 21.177l.62.921c20.047-13.332 40.701-20.99 60.585-20.99z" fill="#2D2D2F"/><path d="M463.99 191.298c-60.668-11.024-113.11-52.436-180.699-66.492l-.175.866c67.339 13.974 119.756 55.385 180.712 66.488l.162-.866v.004zm0-14.994c-60.684-11.437-112.831-54.411-180.699-68.996l-.179.862c67.622 14.502 119.706 57.472 180.716 68.996l.162-.862zm.005-21.739C403.29 142.533 351.568 97.297 283.296 81.94l-.192.863c68.006 15.26 119.694 60.493 180.72 72.629l.171-.867zm.004-27.681C403.26 114.086 352.08 65.966 283.304 49.631l-.204.858c68.501 16.248 119.648 64.347 180.72 77.257l.179-.862zm.004-13.327c-60.76-13.165-111.669-62.672-180.7-79.478l-.208.854c68.751 16.698 119.623 66.201 180.716 79.491l.192-.867zM207.761 589.471V34.704h-1.113v554.767h1.113z" fill="#2D2D2F"/><path d="M223.281 423.441c-9.471-.984-17.154-5.912-22.5-16.694L104.758 212.37l-.792.392 96.023 194.376c5.417 10.999 13.463 16.19 23.196 17.178l.092-.875h.004z" fill="#2D2D2F"/><path d="M128.646 589.471v-448.6l-1.008-.229a435.53 435.53 0 0 0-25.659 67.987l-.054.196 1.963 3.975.95-.467-1.784-3.608a434.01 434.01 0 0 1 24.526-65.496v446.242h1.066zm961.874-45.233l-.35-.062c-98.361-18.477-209.959-33.279-313.111-46.874a799.62 799.62 0 0 1-86.989-17.789l-.554-.142v6.578l.333.084a835.656 835.656 0 0 0 87.085 16.944c103.227 12.886 214.433 26.917 313.076 44.415l.51.088v-3.242zm-.88 2.192c-98.539-17.469-209.541-31.463-312.585-44.332a834.291 834.291 0 0 1-86.668-16.836v-4.749a801.213 801.213 0 0 0 86.539 17.66c103.035 13.582 214.475 28.363 312.704 46.803v1.454h.01zm.88 4.991l-.37-.054c-99.32-15.515-209.755-27.943-313.099-39.358-29.109-3.616-58.226-8.703-86.998-15.127l-.533-.125v6.962l.346.075c28.809 6.04 57.951 10.832 87.085 14.21 103.419 10.653 213.442 22.26 313.069 36.733l.5.075v-3.391zm-.88 2.371c-99.518-14.449-209.358-26.026-312.593-36.663-28.984-3.374-57.976-8.124-86.648-14.119v-5.153c28.626 6.378 57.589 11.428 86.548 15.027 103.218 11.403 213.5 23.814 312.693 39.295v1.613zm.88 5.291l-.38-.05c-100.351-12.349-209.549-22.243-313.101-31.338-29.088-2.916-58.185-7.024-87.006-12.219l-.517-.096v7.399l.371.067c28.85 4.762 57.964 8.524 87.085 11.194 103.627 8.282 212.387 17.294 313.068 28.542l.49.055v-3.554h-.01zm-.88 2.57c-100.568-11.223-209.174-20.226-312.606-28.492-28.958-2.654-57.917-6.391-86.635-11.128v-5.599c28.668 5.158 57.614 9.245 86.556 12.14 103.427 9.078 212.467 18.956 312.685 31.288v1.791zm.88 14.452l-.42-.021c-102.628-5.328-209.076-9.582-313.091-13.523a2402.233 2402.233 0 0 1-87.022-5.445l-.475-.042v8.516l.416.029a3231.579 3231.579 0 0 0 87.056 4.166c104.094 2.983 210.042 6.249 313.086 10.282h.45v-3.983.021zm-.88 3.067c-102.918-4.046-208.687-7.287-312.631-10.266a3124.09 3124.09 0 0 1-86.61-4.141v-6.733a2469.312 2469.312 0 0 0 86.581 5.416c103.869 3.921 210.171 8.183 312.66 13.507v2.225-.008zm.88-41.695l-.35-.075c-97.444-21.248-210.134-38.3-313.103-53.952a719.323 719.323 0 0 1-86.985-20.214l-.566-.175v6.249l.316.091a742.693 742.693 0 0 0 87.085 19.456c103.036 14.999 215.359 31.284 313.063 51.632l.53.108v-3.112l.01-.008zm-.88 2.029c-97.614-20.302-209.737-36.579-312.577-51.528a742.758 742.758 0 0 1-86.668-19.339v-4.395a720.046 720.046 0 0 0 86.535 20.081c102.856 15.631 215.383 32.654 312.71 53.864v1.317z" fill="#2D2D2F"/><path d="M690.399 557.15l-.416-.034c-77.131-6.203-153.337-15.915-226.009-28.213l-.517-.088v15.324l.384.05c73.335 9.34 149.357 16.714 226.079 21.43l.467.029v-8.498h.012zm-.883 7.565c-76.406-4.712-152.086-12.057-225.163-21.347v-13.507c72.427 12.236 148.337 21.91 225.163 28.101v6.753zm.883-49.177l-.366-.062c-79.514-14.353-156.874-37.008-225.955-65.768l-.608-.258v13.39l.283.109c69.714 26.184 146.936 46.811 226.134 59.892l.512.084v-7.387zm-.883 6.349c-78.856-13.056-155.736-33.6-225.167-59.655v-11.457c68.889 28.622 145.949 51.181 225.167 65.501v5.611zm.883-24.93l-.345-.075c-80.602-18.007-158.508-46.532-225.934-82.791l-.65-.354v12.636l.242.121c68.043 33.842 145.836 60.472 226.154 77.303l.533.109v-6.949zm-.883 5.866c-79.964-16.803-157.407-43.329-225.167-77v-10.607c67.26 36.079 144.87 64.48 225.167 82.449v5.158zm.883-23.223l-.333-.087c-81.631-21.423-160.057-55.489-225.917-98.822l-.679-.454v11.978l.208.129c66.456 41.074 144.795 73.358 226.171 93.689l.55.137v-6.57zm-.879 5.416c-81.018-20.293-158.995-52.447-225.171-93.322v-9.824c65.718 43.129 143.849 77.029 225.171 98.414v4.753-.021z" fill="#2D2D2F"/><path d="M690.399 463.323l-.316-.096c-82.61-24.643-161.537-63.946-225.9-113.99l-.717-.554v11.411l.183.137c64.951 47.911 143.799 85.54 226.188 109.154l.562.162v-6.249.025zm-.883 5.058c-82.01-23.581-160.491-61.055-225.167-108.737v-9.166c64.251 49.79 142.878 88.898 225.167 113.491v4.412zm-586.94 86.353c53.334-9.999 110.419-18.361 166.691-18.361 4.644 0 9.286.06 13.925.179 61.051 1.609 120.39 6.37 180.708 7.641h.45v-15.286h-.417c-60.305-1.666-119.361-7.915-180.708-10.053a405.39 405.39 0 0 0-14.004-.233c-56.589 0-114.169 10.999-166.824 24.164l.104.417-.104-.417-.334.079v11.965l.521-.095h-.008zm.358-.967v-10.211c52.501-13.132 109.927-24.06 166.279-24.06 4.672 0 9.33.078 13.975.233 61.163 2.113 120.09 8.333 180.282 10.041v13.532c-60.13-1.284-119.327-6.025-180.257-7.633a568.017 568.017 0 0 0-13.946-.179c-56.181 0-113.111 8.303-166.333 18.277zm-.225-61.564c49.238-27.775 108.885-50.931 166.29-50.931 4.742 0 9.471.15 14.167.487 62.501 4.467 120.244 17.686 180.716 21.219l.463.025v-13.299l-.417-.029c-60.389-3.87-117.89-18.377-180.703-23.293a186.51 186.51 0 0 0-14.28-.537c-57.834 0-117.99 25.493-166.699 56.047l-.204.129v10.553l.654-.371h.013zm.225-1.137v-8.557c48.58-30.442 108.527-55.789 166.024-55.785 4.758 0 9.496.178 14.212.533 62.577 4.895 119.957 19.348 180.3 23.272v11.541c-60.206-3.567-117.811-16.723-180.237-21.194-4.722-.327-9.467-.49-14.234-.487-57.388 0-116.869 23.022-166.065 50.677z" fill="#2D2D2F"/><path d="M102.759 464.144c47.41-35.75 108.207-65.551 166.12-65.542 4.788 0 9.555.196 14.284.625 63.151 5.749 120.177 22.76 180.716 27.313l.471.033v-12.498l-.417-.033c-60.418-4.862-117.227-23.073-180.699-29.247-4.775-.455-9.577-.68-14.405-.675-58.401 0-119.698 32.03-166.628 70.408l-.163.13v10.04l.709-.537.012-.017zm.18-1.25v-7.836c46.796-38.233 107.893-70.075 165.903-70.067 4.8 0 9.574.222 14.321.667 63.214 6.145 119.902 24.292 180.307 29.221v10.732c-60.234-4.583-117.131-21.522-180.224-27.272-4.762-.416-9.55-.629-14.367-.629-57.918 0-118.531 29.605-165.94 65.184z" fill="#2D2D2F"/><path d="M102.812 437.86c45.693-43.212 107.582-79.228 165.97-79.22 4.806-.008 9.609.244 14.388.754 63.751 6.945 120.119 27.497 180.716 33.017l.479.038v-11.795l-.416-.037c-60.46-5.783-116.607-27.497-180.7-34.838a130.441 130.441 0 0 0-14.521-.799c-58.93 0-121.294 38.153-166.553 83.852l-.125.125v9.582l.742-.7.02.021zm.138-1.346v-7.191c45.138-45.544 107.31-83.473 165.799-83.46 4.817-.005 9.63.261 14.417.795 63.818 7.316 119.852 28.934 180.32 34.796v10.032c-60.268-5.545-116.498-26.017-180.22-32.971a138.48 138.48 0 0 0-14.484-.762c-58.438 0-120.102 35.775-165.836 78.74l.004.021z" fill="#2D2D2F"/><path d="M268.649 321.057c4.84-.004 9.675.288 14.48.875 64.334 8.074 120.06 31.979 180.716 38.382l.487.05v-11.169l-.392-.046c-60.492-6.666-116.023-31.629-180.699-40.095a113.217 113.217 0 0 0-14.629-.925c-59.431 0-122.794 43.928-166.474 96.522l-.1.121v8.074l.77.291c44.08-50.227 106.998-92.097 165.837-92.072l.004-.008zm-166.174 91.789l-.329-.292.329.292zm.442-1.171v-6.583c43.563-52.422 106.756-96.096 165.695-96.08 4.853-.007 9.702.297 14.517.909 64.376 8.419 119.798 33.329 180.324 40.061v9.403c-60.297-6.449-115.898-30.246-180.216-38.328a119.089 119.089 0 0 0-14.584-.884c-58.922 0-121.565 41.55-165.732 91.502h-.004zm-.271 110.621c51.217-19.236 109.619-35.267 166.478-35.263 4.7 0 9.385.113 14.054.338 61.806 3.091 120.315 12.236 180.712 14.685l.038-.883c-60.331-2.441-118.84-11.586-180.704-14.686a293.767 293.767 0 0 0-14.1-.337c-56.801 0-115.056 15.94-166.186 35.096v-9.341c50.475-22.081 109.202-40.499 166.144-40.499 4.723 0 9.421.129 14.096.387 62.043 3.562 120.29 14.103 180.708 16.919l.042-.879c-60.339-2.816-118.59-13.332-180.7-16.919a249.36 249.36 0 0 0-14.146-.391c-57.238 0-116.16 18.518-166.765 40.691l-.267.112v11.199l.596-.229z" fill="#2D2D2F"/><path d="M690.024 535.473c-78.359-10.415-155.148-26.826-225.983-47.623l-.25.833c70.88 20.831 147.707 37.22 226.117 47.652l.116-.87v.008zm-.012 7.016a1760.66 1760.66 0 0 1-225.996-41.3l-.217.855a1762.05 1762.05 0 0 0 226.109 41.324l.104-.884v.005z" fill="#2D2D2F"/><path d="M567.227 589.913V243.559l-.13-.13a538.047 538.047 0 0 1-8.966-9.215l-.759.3v355.399h9.855zm-.884-.888h-8.104V235.618c2.675 2.8 5.372 5.567 8.092 8.303v345.104h.012z" fill="#2D2D2F"/><path d="M562.768 281.283l-.496-.729-45.922 30.988.496.729 45.922-30.988zm-.08 103.341l-.358-.804-45.772 20.548.367.804 45.763-20.548z" fill="#2D2D2F"/><path fill-rule="evenodd" clip-rule="evenodd" d="M941.454 539.198v25.693c15.894.833 31.757 1.693 47.588 2.579v-23.039a7188.302 7188.302 0 0 0-47.588-5.233zm-123.423 2.97v34.504c26.017.514 52.069 1.044 78.156 1.592v-30.238a18459.2 18459.2 0 0 0-78.156-5.858z" fill="#E6E7E8"/><path fill-rule="evenodd" clip-rule="evenodd" d="M809.684 497.574v-29.126c33.001 6.037 66.847 12.286 100.602 18.86v24.672c-33.709-5.024-67.459-9.79-100.602-14.406zm127.549 18.448v-23.406c21.429 4.283 42.68 8.703 63.587 13.286v20.244a4895.413 4895.413 0 0 0-63.587-10.124zM463.907 100.988v488.483h13.655V126.61a540.277 540.277 0 0 1-13.676-25.634l.021.012zm27.754 185.286v-83.069a542.328 542.328 0 0 0 48.014 55.827v69.904a554.974 554.974 0 0 1-48.014-42.662z" fill="#fff"/><path fill-rule="evenodd" clip-rule="evenodd" d="M491.661 388.662v-78.907a569.788 569.788 0 0 0 48.014 39.054v67.116a703.128 703.128 0 0 1-48.014-27.263z" fill="#E6E7E8"/><path fill-rule="evenodd" clip-rule="evenodd" d="M214.827 517.397V343.001c22.788-8.195 45.993-11.894 68.372-9.261 3.046.362 6.067.766 9.075 1.191v179.474c-3.016-.116-6.041-.222-9.075-.316-22.646-.688-45.592.616-68.372 3.308zm152.366-232.264v31.871c10.912 3.125 21.729 6.274 32.55 9.22v-30.78c-10.813-3.283-21.629-6.807-32.55-10.311z" fill="#fff"/><path d="M295.746 513.788V336.105l-3.296-1.558-.375.8 2.792 1.32v176.471l-2.758.837.262.842 3.375-1.029zM464.57 589.47V94.067l-.512-.112a176.622 176.622 0 0 1-27.142-8.637l-.496 1.225a177.802 177.802 0 0 0 26.825 8.582V589.47h1.325zm-34.338.129v-31.754h-.883v31.754h.883zm-151.791-.129v-75.441h-.883v75.441h.883zm85.811.001v-95.876h-.879v95.876h.879zm.004-110.488v-28.192h-.884v28.192h.884zm-.001-41.84v-11.32l2.884-.949-.28-.838-3.487 1.146v11.961h.883zm725.865 130.1c-101.456-8.969-209.321-16.152-313.094-22.768a1489.851 1489.851 0 0 1-87.01-9.011l-.116.871a1483.567 1483.567 0 0 0 87.085 9.019c103.76 6.62 211.629 13.799 313.055 22.768l.08-.883v.004zm0 2.876c-101.832-7.787-209.246-14.027-313.098-19.756a1703.544 1703.544 0 0 1-87.015-7.87l-.1.875a1699.8 1699.8 0 0 0 87.085 7.874c103.832 5.733 211.255 11.982 313.058 19.756l.07-.883v.004z" fill="#2D2D2F"/><path d="M478.091 590l.025-463.52-.071-.125a540.357 540.357 0 0 1-13.662-25.605l-.075-.158-.163-.079-.233.475-.471.237a534.706 534.706 0 0 0 13.617 25.53l-.021 462.187h-13.125v1.054l14.179.004zm-263.154-71.729a479.679 479.679 0 0 1 56.201-3.487c4.019 0 8.032.061 12.037.183 3.031.097 6.055.204 9.071.321l.917.029V334.168l-.762-.108a393.834 393.834 0 0 0-9.097-1.2 123.518 123.518 0 0 0-14.604-.833c-17.917 0-36.188 3.687-54.168 10.153l-.583.208V518.4l.988-.117v-.012zm-.109-.875l-.1-.875.1.875zm.888-.991V343.617c17.629-6.278 35.484-9.841 52.984-9.841 4.811-.007 9.618.272 14.396.834 2.778.333 5.543.695 8.296 1.087v177.791a1287.59 1287.59 0 0 0-8.162-.283c-4.02-.12-8.048-.181-12.084-.183a479.451 479.451 0 0 0-55.418 3.383h-.012zm140.768-255.524l-6.466-22.118-.85.246 6.471 22.114.845-.242zm-9.671-33.071l-6.258-21.406-.846.25 6.259 21.402.845-.246zm-9.349-31.971l-6.038-20.648-.846.25 6.038 20.648.846-.25zm-9.001-30.768l-5.821-19.923-.846.25 5.825 19.919.842-.246zm-8.679-29.691l-5.6-19.156-.85.25 5.6 19.151.85-.245zm-8.342-28.514l-5.37-18.382-.851.25 5.38 18.381.841-.249zm-8.004-27.393l-5.167-17.66-.846.245 5.162 17.657.851-.242zm-7.696-26.297l-4.946-16.927-.85.25 4.95 16.927.846-.25zm-7.363-25.192l-4.754-16.236-.846.246 4.75 16.231.85-.241zm111.807 267.151l-.313-.095c-10.808-3.3-21.625-6.829-32.542-10.324l-.579-.188v32.821l.32.092c10.913 3.129 21.73 6.274 32.555 9.224l.559.15v-31.68zm-.884 30.53c-10.521-2.879-21.046-5.933-31.667-8.978v-30.93c10.621 3.408 21.146 6.837 31.667 10.049v29.88-.021zm141.02-66.905l-.196-.191a542.024 542.024 0 0 1-47.93-55.76l-1.192.416v83.324l.196.195a554.876 554.876 0 0 0 48.064 42.72l1.079.833V258.76h-.021zm-1.325 68.804a552.446 552.446 0 0 1-46.693-41.57v-80.823a542.537 542.537 0 0 0 46.693 54.118v68.275zm1.324 20.902l-.271-.2a567.824 567.824 0 0 1-47.955-39.008l-1.104-1.008v80.774l.304.191c15.462 9.63 31.482 18.726 48.06 27.289l.966.487v-68.533.008zm-1.325 66.363a691.191 691.191 0 0 1-46.667-26.539v-77.049a570.377 570.377 0 0 0 46.667 37.912v65.693-.017zm357.629 132.784l-.417-.03c-26.117-2.02-52.23-3.966-78.151-5.857l-.479-.034v35.413h.416c26.017.514 52.069 1.044 78.156 1.591h.446v-31.1l.029.017zm-.879 30.192c-25.776-.542-51.533-1.067-77.273-1.575v-33.6c25.634 1.875 51.451 3.799 77.273 5.791v29.384zm14.999-90.864l-.358-.071c-33.751-6.557-67.606-12.807-100.606-18.86l-.521-.096v30.038l.379.054c33.126 4.616 66.901 9.383 100.602 14.39l.504.075v-25.53zm-.883 24.51c-33.405-4.962-66.881-9.691-99.719-14.265v-28.214c32.717 6.004 66.251 12.199 99.719 18.698v23.781zm91.398-5.909l-.35-.07c-20.897-4.583-42.172-9.003-63.589-13.29l-.529-.109v24.322l.375.063c21.362 3.262 42.617 6.632 63.583 10.128l.51.083v-21.127zm-.88 20.086c-20.679-3.442-41.638-6.762-62.701-9.999v-22.498c21.113 4.221 42.084 8.583 62.701 13.099v19.398zm-10.883 18.431l-.392-.041a6654.896 6654.896 0 0 0-47.588-5.237l-.492-.054v26.58h.417c15.898.833 31.759 1.691 47.584 2.574l.467.025v-23.847h.004zm-.883 22.964c-15.523-.866-31.095-1.716-46.718-2.549v-24.789a6842.081 6842.081 0 0 1 46.705 5.141v22.176l.013.021zm-316.069 22.889l-.046-263.577-.212-.125a397.047 397.047 0 0 1-4.696-2.874l-.675-.417.041 266.993h5.588zm-.883-.883h-3.838l-.038-264.527c1.27.783 2.542 1.561 3.817 2.333l.046 262.194h.013zm-19.672.883l-.041-276.634-.196-.129a564.853 564.853 0 0 1-5.417-3.67l-.692-.471.059 280.895 6.287.009zm-.883-.884h-4.534l-.058-278.337a429.693 429.693 0 0 0 4.538 3.066l.041 275.271h.013zm-22.892.884l-.042-293.44-.179-.133a547.172 547.172 0 0 1-6.321-4.8l-.712-.55.041 298.923h7.213zm-.884-.884h-5.45l-.037-296.243a505.483 505.483 0 0 0 5.446 4.124l.041 292.119zM132.659 144.266l-4.079-3.416-.567.679 4.08 3.412.566-.675z" fill="#2D2D2F"/><path fill-rule="evenodd" clip-rule="evenodd" d="M710.646 513.388a1058.088 1058.088 0 0 1-51.668-10.349v-71.087a668.238 668.238 0 0 0 51.668 18.152v63.284zM562.497 384.225V280.904a563.518 563.518 0 0 0 48.659 39.404v90.406a651.721 651.721 0 0 1-48.659-26.489zM367.193 1.813v196.813c23.334 9.641 46.026 19.469 69.41 26.247V51.703c-23.468-12.878-45.993-31.605-69.41-49.89zm0 422.678v131.372c23.15.808 46.251 1.621 69.41 2.187V435.323c-23.243-2.795-46.206-6.849-69.41-10.832z" fill="#fff"/><path opacity=".5" fill-rule="evenodd" clip-rule="evenodd" d="M165.089 437.206v121.506c9.189-.866 18.41-1.651 27.663-2.353V426.091c-9.346 3.258-18.592 6.991-27.663 11.115z" fill="#FFEF68"/><path fill-rule="evenodd" clip-rule="evenodd" d="M132.672 453.871v108.22c7.278-.833 14.589-1.617 21.933-2.35V442.172a389.808 389.808 0 0 0-21.933 11.699z" fill="#E6E7E8"/><path fill-rule="evenodd" clip-rule="evenodd" d="M106.45 470.227v94.989c5.906-.734 11.838-1.447 17.796-2.142V458.841a422.381 422.381 0 0 0-17.796 11.386z" fill="#DCDDDE"/><path d="M165.155 559.37c9.184-.869 18.399-1.655 27.647-2.358l.612-.046V425.157l-.879.309c-9.367 3.262-18.63 7.007-27.717 11.132l.27.604-.27-.604-.388.179v122.66l.725-.067zm.596-1.387V437.627a332.6 332.6 0 0 1 26.338-10.608v128.735c-8.806.667-17.585 1.414-26.338 2.241v-.012zm-33.017 4.674c7.275-.816 14.583-1.6 21.925-2.349l.517-.05V441.251l-.834.417a390.159 390.159 0 0 0-21.958 11.711l.283.5-.283-.5-.288.166v109.196l.638-.075v-.009zm.508-1.208v-107.25a395.788 395.788 0 0 1 20.78-11.107V559.22c-6.945.708-13.873 1.451-20.784 2.229h.004zm-26.733 4.191c5.9-.733 11.829-1.448 17.787-2.145l.417-.046V458.045l-.671.417a425.781 425.781 0 0 0-17.817 11.394l.25.371-.25-.371-.192.133v95.71l.496-.059h-.02zm.383-.937V470.46a424.197 424.197 0 0 1 16.912-10.832v103.05c-5.663.656-11.301 1.333-16.912 2.033v-.008zm504.922-244.737l-.275-.2a562.795 562.795 0 0 1-48.596-39.341l-1.104-1.004V384.6l.325.192a654.234 654.234 0 0 0 48.696 26.526l.954.466v-91.818zm-1.325 89.698a651.534 651.534 0 0 1-47.326-25.831V282.425a563.032 563.032 0 0 0 47.326 38.233v89.022-.016zM214.756 589.471v-51.019h-.883v51.019h.883zm35.476-.001v-53.201h-.883v53.201h.883zm-22.379.001v-52.107h-.884v52.107h.884zm39.038 0v-53.477h-.884v53.477h.884zm-43.91 0v-72.779h-.879v72.779h.879zM437.485 51.177l-.458-.25c-23.375-12.815-45.876-31.513-69.289-49.81L366.309 0v199.214l.546.225c23.334 9.636 46.047 19.481 69.501 26.28l1.129.325V51.177zm-1.75 172.504c-22.729-6.69-44.871-16.248-67.642-25.659V3.62c22.746 17.807 44.717 35.938 67.642 48.603V223.68z" fill="#2D2D2F"/><path opacity=".5" d="M437.485 51.177l-.458-.25c-23.375-12.815-45.876-31.513-69.289-49.81L366.309 0v199.214l.546.225c23.334 9.636 46.047 19.481 69.501 26.28l1.129.325V51.177z" fill="#FFEF68"/><path d="M437.265 434.748l-.584-.071c-23.217-2.804-46.167-6.853-69.376-10.861l-.775-.133v132.792l.637.025c23.155.808 46.251 1.625 69.418 2.191h.68V434.748zM435.94 557.35c-22.713-.558-45.372-1.358-68.085-2.15V425.257c22.746 3.925 45.28 7.891 68.085 10.666V557.35zm258.384-41.857v-61.526h-.883v61.526h.883zm-50.756-9.983v-69.05h-.883v69.05h.883z" fill="#2D2D2F"/><path d="M659.103 432.377l-.242-.85-15.855 4.512.242.85 15.855-4.512zm-.05 71.091l-.138-.87-15.854 2.478.133.867 15.859-2.475zm51.701-52.939l-.2-.858-16.759 3.858.192.862 16.767-3.862z" fill="#2D2D2F"/><path d="M694.016 453.542c-17.084-5.366-34.072-10.832-50.726-17.498l-.33.833c16.692 6.666 33.697 12.14 50.789 17.498l.267-.833zm16.687 60.284l-.108-.875-16.713 2.108a1142.304 1142.304 0 0 1-50.113-9.828l-.217-.446-.792.392.417.833.204.046c16.667 3.666 33.505 6.953 50.418 9.894h.058l16.859-2.12-.013-.004z" fill="#2D2D2F"/><path d="M711.307 449.609l-.47-.142a667.694 667.694 0 0 1-51.614-18.127l-.904-.362v72.582l.517.121a1074.396 1074.396 0 0 0 51.696 10.357l.113-.65-.113.65.78.138V449.6l-.005.009zm-1.321 62.992a1056.568 1056.568 0 0 1-50.346-10.095v-69.575a669.777 669.777 0 0 0 50.346 17.665v62.013-.008zm-486.829 71.224h1.025v2.567h-1.025v-2.567zm0-5.024h1.025v2.566h-1.025v-2.566zm0-5.025h1.025v2.567h-1.025v-2.567zm0-5.024h1.025v2.566h-1.025v-2.566zm0-5.024h1.025v2.566h-1.025v-2.566zm0-5.02h1.025v2.562h-1.025v-2.562zm0-5.024h1.025v2.566h-1.025v-2.566zm0-5.025h1.025v2.567h-1.025v-2.567zm0-5.024h1.025v2.566h-1.025v-2.566zm0-5.025h1.025v2.567h-1.025v-2.567zm0-5.024h1.025v2.566h-1.025v-2.566zm0-5.024h1.025v2.566h-1.025v-2.566zm0-5.025h1.025v2.566h-1.025v-2.566zm0-5.024h1.025v2.566h-1.025v-2.566zm0-5.021h1.025v2.567h-1.025v-2.567zm0-5.024h1.025v2.566h-1.025v-2.566zm0-5.025h1.025v2.567h-1.025v-2.567zm0-5.024h1.025v2.566h-1.025v-2.566zm0-5.024h1.025v2.566h-1.025v-2.566zm0-5.025h1.025v2.566h-1.025v-2.566zm0-5.024h1.025v2.566h-1.025v-2.566zm0-5.025h1.025v2.567h-1.025v-2.567zm0-5.024h1.025v2.566h-1.025v-2.566zm0-5.02h1.025v2.567h-1.025v-2.567zm0-5.024h1.025v2.566h-1.025v-2.566zm0-5.024h1.025v2.566h-1.025v-2.566zm0-5.025h1.025v2.566h-1.025v-2.566zm0-5.025h1.025v2.566h-1.025v-2.566zm0-5.024h1.025v2.567h-1.025v-2.567zm0-5.024h1.025v2.566h-1.025v-2.566zm0-5.021h1.025v2.567h-1.025v-2.567zm0-5.028h1.025v2.566h-1.025v-2.566zm0-5.02h1.025v2.566h-1.025v-2.566zm0-5.025h1.025v2.566h-1.025v-2.566zm0-5.024h1.025v2.566h-1.025v-2.566zm0-5.025h1.025v2.567h-1.025v-2.567zm0-5.024h1.025v2.566h-1.025v-2.566zm0-5.021h1.025v2.563h-1.025v-2.563zm0-5.024h1.025v2.566h-1.025v-2.566zm0-5.024h1.025v2.566h-1.025v-2.566zm0-5.025h1.025v2.566h-1.025v-2.566zm0-5.024h1.025v2.566h-1.025v-2.566zm0-5.025h1.025v2.567h-1.025v-2.567zm0-5.023h1.025v2.566h-1.025v-2.566zm0-5.026h1.025v2.567h-1.025v-2.567zm0-5.019h1.025v2.566h-1.025v-2.566zm0-5.024h1.025v2.566h-1.025v-2.566zm0-5.025h1.025v2.566h-1.025v-2.566zm0-5.024h1.025v2.566h-1.025v-2.566zm0-5.025h1.025v2.567h-1.025v-2.567zm0-5.024h1.025v2.566h-1.025v-2.566zm0-5.025h1.025v2.567h-1.025v-2.567zm0-5.024h1.025v2.566h-1.025v-2.566zm0-5.024h1.025v2.566h-1.025v-2.566zm0-5.025h1.025v2.567h-1.025v-2.567zm0-5.02h1.025v2.566h-1.025v-2.566zm0-5.025h1.025v2.567h-1.025v-2.567zm0-5.024h1.025v2.566h-1.025v-2.566zm0-5.025h1.025v2.567h-1.025v-2.567zm0-5.024h1.025v2.566h-1.025v-2.566zm0-5.024h1.025v2.566h-1.025v-2.566zm0-5.025h1.025v2.567h-1.025v-2.567zm0-5.024h1.025v2.566h-1.025v-2.566zm0-5.025h1.025v2.567h-1.025v-2.567zm0-5.024h1.025v2.566h-1.025v-2.566zm0-5.02h1.025v2.567h-1.025v-2.567zm0-5.025h1.025v2.566h-1.025v-2.566zm0-5.023h1.025v2.566h-1.025v-2.566zm0-5.026h1.025v2.567h-1.025v-2.567zm0-5.023h1.025v2.566h-1.025v-2.566zm0-5.025h1.025v2.567h-1.025v-2.567zm0-5.025h1.025v2.566h-1.025v-2.566zm0-5.023h1.025v2.566h-1.025v-2.566zm0-5.021h1.025v2.566h-1.025v-2.566zm0-5.024h1.025v2.566h-1.025v-2.566zm0-5.025h1.025v2.567h-1.025v-2.567zm0-5.024h1.025v2.566h-1.025v-2.566zm0-5.025h1.025v2.567h-1.025v-2.567zm0-5.024h1.025v2.566h-1.025v-2.566zm0-5.024h1.025v2.566h-1.025v-2.566zm0-5.025h1.025v2.566h-1.025v-2.566zm0-5.02h1.025v2.566h-1.025v-2.566zm0-5.025h1.025v2.567h-1.025v-2.567zm0-5.024h1.025v2.566h-1.025v-2.566zm0-5.024h1.025v2.567h-1.025v-2.567zm0-5.025h1.025v2.566h-1.025v-2.566zm0-5.023h1.025v2.566h-1.025v-2.566zm0-5.021h1.025v2.566h-1.025v-2.566zm0-5.024h1.025v2.566h-1.025v-2.566zm0-5.025h1.025v2.567h-1.025V136.7zm244.255 450.175h1.025v2.566h-1.025v-2.566zm0-5.024h1.025v2.566h-1.025v-2.566zm0-5.025h1.025v2.567h-1.025v-2.567zm0-5.024h1.025v2.566h-1.025v-2.566zm0-5.025h1.025v2.567h-1.025v-2.567zm0-5.024h1.025v2.566h-1.025v-2.566zm0-5.024h1.025v2.566h-1.025v-2.566zm0-5.025h1.025v2.567h-1.025v-2.567zm0-5.024h1.025v2.566h-1.025v-2.566zm0-5.025h1.025v2.567h-1.025v-2.567zm0-5.02h1.025v2.562h-1.025v-2.562zm0-5.024h1.025v2.567h-1.025v-2.567zm0-5.024h1.025v2.566h-1.025v-2.566zm0-5.025h1.025v2.567h-1.025v-2.567zm0-5.024h1.025v2.566h-1.025v-2.566zm0-5.024h1.025v2.566h-1.025v-2.566zm0-5.025h1.025v2.567h-1.025v-2.567zm0-5.024h1.025v2.566h-1.025v-2.566zm0-5.021h1.025v2.567h-1.025v-2.567zm0-5.024h1.025v2.566h-1.025v-2.566zm0-5.024h1.025v2.566h-1.025v-2.566zm0-5.025h1.025v2.566h-1.025v-2.566zm0-5.024h1.025v2.566h-1.025v-2.566zm0-5.025h1.025v2.567h-1.025v-2.567zm0-5.024h1.025v2.566h-1.025v-2.566zm0-5.021h1.025v2.567h-1.025v-2.567zm0-5.024h1.025v2.566h-1.025v-2.566zm0-5.024h1.025v2.566h-1.025v-2.566zm0-5.025h1.025v2.566h-1.025v-2.566zm0-5.024h1.025v2.566h-1.025v-2.566zm0-5.024h1.025v2.567h-1.025v-2.567zm0-5.025h1.025v2.562h-1.025v-2.562zm0-5.024h1.025v2.567h-1.025v-2.567zm0-5.025h1.025v2.566h-1.025v-2.566zm0-5.02h1.025v2.567h-1.025v-2.567zm0-5.024h1.025v2.566h-1.025v-2.566zm0-5.024h1.025v2.566h-1.025v-2.566zm0-5.025h1.025v2.567h-1.025v-2.567zm0-5.024h1.025v2.566h-1.025v-2.566zm0-5.025h1.025v2.567h-1.025v-2.567zm0-5.024h1.025v2.566h-1.025v-2.566zm0-5.02h1.025v2.566h-1.025v-2.566zm0-5.029h1.025v2.567h-1.025v-2.567zm0-5.02h1.025v2.566h-1.025v-2.566zm0-5.025h1.025v2.567h-1.025v-2.567zm0-5.024h1.025v2.566h-1.025v-2.566zm0-5.025h1.025v2.567h-1.025v-2.567zm0-5.024h1.025v2.566h-1.025v-2.566zm0-5.024h1.025v2.566h-1.025v-2.566zm0-5.025h1.025v2.567h-1.025V340.7zm0-5.019h1.025v2.566h-1.025v-2.566zm0-5.025h1.025v2.567h-1.025v-2.567zm0-5.024h1.025v2.562h-1.025v-2.562zm0-5.025h1.025v2.567h-1.025v-2.567zm0-5.024h1.025v2.566h-1.025v-2.566zm0-5.024h1.025v2.566h-1.025v-2.566zm0-5.025h1.025v2.567h-1.025v-2.567zm0-5.024h1.025v2.566h-1.025v-2.566zm0-5.025h1.025v2.567h-1.025v-2.567zm0-5.024h1.025v2.566h-1.025v-2.566zm0-5.024h1.025v2.566h-1.025v-2.566zm0-5.021h1.025v2.566h-1.025v-2.566zm0-5.024h1.025v2.562h-1.025v-2.562zm0-5.025h1.025v2.567h-1.025v-2.567zm0-5.024h1.025v2.566h-1.025v-2.566zm0-5.025h1.025v2.567h-1.025v-2.567zm0-5.024h1.025v2.566h-1.025v-2.566zm0-5.024h1.025v2.566h-1.025v-2.566zm0-5.021h1.025v2.566h-1.025v-2.566zm0-5.023h1.025v2.566h-1.025v-2.566zm0-5.026h1.025v2.567h-1.025V235.2zm0-5.023h1.025v2.566h-1.025v-2.566zm0-5.026h1.025v2.567h-1.025v-2.567zm0-5.023h1.025v2.566h-1.025v-2.566zm0-5.024h1.025v2.566h-1.025v-2.566zm0-5.025h1.025v2.566h-1.025v-2.566zm0-5.02h1.025v2.566h-1.025v-2.566zm0-5.025h1.025v2.567h-1.025v-2.567zm0-5.024h1.025v2.566h-1.025v-2.566zm0-5.025h1.025v2.567h-1.025v-2.567zm0-5.024h1.025v2.566h-1.025v-2.566zm0-5.024h1.025v2.566h-1.025v-2.566zm0-5.025h1.025v2.566h-1.025v-2.566zm0-5.024h1.025v2.566h-1.025v-2.566zm0-5.021h1.025v2.567h-1.025v-2.567zm0-5.024h1.025v2.566h-1.025v-2.566zm0-5.025h1.025v2.567h-1.025v-2.567zm0-5.024h1.025v2.566h-1.025v-2.566zm0-5.024h1.025v2.566h-1.025v-2.566zm0-5.025h1.025v2.566h-1.025v-2.566zm0-5.023h1.025v2.566h-1.025v-2.566zm0-5.026h1.025v2.567h-1.025v-2.567zm0-5.023h1.025v2.566h-1.025v-2.566zm0-5.021h1.025v2.567h-1.025v-2.567zm0-5.024h1.025v2.566h-1.025v-2.566zm0-5.024h1.025v2.566h-1.025v-2.566z" fill="#2D2D2F"/><path fill-rule="evenodd" clip-rule="evenodd" d="M352.826 435.101l-.312-.491.312-.071v.562zm-.709-2.924l-1 .233-1.458-2.295 1-.229 1.458 2.291zm-2.857-4.491l-1 .229-1.458-2.291.999-.233 1.459 2.295zm-2.86-4.496l-1 .233-1.458-2.295 1-.233 1.458 2.295zm-2.857-4.494l-.996.233-1.462-2.296 1-.229 1.458 2.292zm-2.855-4.492l-1 .233-1.458-2.295.996-.234 1.462 2.296zm-2.858-4.495l-1 .233-1.458-2.296 1-.233 1.458 2.296zm-2.858-4.496l-.996.234-1.458-2.296.995-.229 1.459 2.291zm-2.855-4.491l-1 .229-1.458-2.295.996-.229 1.462 2.295zm-2.858-4.495l-1 .233-1.459-2.295 1-.233 1.459 2.295zm-2.859-4.495l-1 .233-1.454-2.295.996-.233 1.458 2.295zm-2.853-4.491l-1 .233-1.458-2.3.995-.229 1.463 2.296zm-2.859-4.495l-1.001.233-1.458-2.296 1-.233 1.459 2.296zm-2.858-4.496l-1 .234-1.458-2.296 1-.229 1.458 2.291zm-2.854-4.491l-1 .234-1.459-2.3 1-.229 1.459 2.295zm-2.859-4.496l-1 .229-1.458-2.291 1-.233 1.458 2.295zm-2.859-4.491l-1 .23-1.455-2.296.996-.233 1.459 2.299zm-2.854-4.495l-1 .229-1.462-2.295 1-.23 1.462 2.296zm-2.858-4.495l-1 .233-1.458-2.295 1-.234 1.458 2.296zm-2.858-4.495l-1 .233-1.459-2.295 1-.234 1.459 2.296zm-2.859-4.491l-.996.229-1.462-2.296 1-.229 1.458 2.296zm-2.854-4.496l-1 .234-1.459-2.3.996-.229 1.463 2.295zm-2.859-4.495l-1 .234-1.458-2.296 1-.233 1.458 2.295zm-2.858-4.491l-.996.229-1.458-2.291.995-.233 1.459 2.295zm-2.859-4.495l-.996.229-1.458-2.291 1-.234 1.454 2.296zm-2.854-4.496l-1 .233-1.458-2.295 1-.234 1.458 2.296zm-2.857-4.495l-1 .233-1.459-2.295 1-.234 1.459 2.296zm-2.855-4.491l-1 .233-1.458-2.296.995-.233 1.463 2.296zm-2.858-4.496l-1 .234-1.459-2.296 1-.233 1.459 2.295z" fill="#2D2D2F"/><path d="M289.87 292.585h1.026v2.566h-1.026v-2.566zm0-5.023h1.026v2.566h-1.026v-2.566zm0-5.026h1.026v2.567h-1.026v-2.567zm0-5.023h1.026v2.566h-1.026v-2.566zm0-5.026h1.026v2.567h-1.026v-2.567zm0-5.019h1.026v2.566h-1.026v-2.566zm0-5.025h1.026v2.567h-1.026v-2.567zm0-5.024h1.026v2.566h-1.026v-2.566zm0-5.024h1.026v2.566h-1.026v-2.566zm0-5.025h1.026v2.566h-1.026v-2.566zm0-5.024h1.026v2.566h-1.026v-2.566zm0-5.025h1.026v2.567h-1.026v-2.567zm0-5.024h1.026v2.566h-1.026v-2.566zm0-5.025h1.026v2.567h-1.026v-2.567zm0-5.024h1.026v2.566h-1.026v-2.566zm0-5.02h1.026v2.566h-1.026v-2.566zm0-5.025h1.026v2.567h-1.026v-2.567zm0-5.023h1.026v2.566h-1.026v-2.566zm0-5.026h1.026v2.567h-1.026v-2.567zm0-5.024h1.026v2.566h-1.026v-2.566zm0-5.025h1.026v2.567h-1.026v-2.567zm0-5.024h1.026v2.566h-1.026v-2.566zm0-5.023h1.026v2.566h-1.026v-2.566zm0-5.021h1.026v2.566h-1.026v-2.566zm0-5.024h1.026v2.566h-1.026v-2.566zm0-5.025h1.026v2.567h-1.026v-2.567zm0-5.024h1.026v2.566h-1.026v-2.566zm0-5.025h1.026v2.567h-1.026v-2.567zm0-5.024h1.026v2.566h-1.026v-2.566zm0-5.024h1.026v2.566h-1.026v-2.566zm0-5.021h1.026v2.566h-1.026v-2.566zm0-5.024h1.026v2.566h-1.026v-2.566zm0-5.025h1.026v2.567h-1.026v-2.567zm0-5.024h1.026v2.566h-1.026v-2.566zm0-5.025h1.026v2.567h-1.026v-2.567zm0-5.024h1.026v2.566h-1.026v-2.566zm0-5.024h1.026v2.566h-1.026v-2.566zm0-5.025h1.026v2.567h-1.026v-2.567zm0-5.024h1.026v2.566h-1.026v-2.566zm0-5.02h1.026v2.567h-1.026v-2.567zm0-5.025h1.026v2.567h-1.026v-2.566zm0-5.024h1.026v2.566h-1.026v-2.566zm0-5.024h1.026v2.566h-1.026v-2.566zm0-5.025h1.026v2.566h-1.026v-2.566zm0-5.024h1.026V74.1h-1.026v-2.567zm0-5.024h1.026v2.566h-1.026V66.51zm0-5.025h1.026v2.567h-1.026v-2.567zm0-5.024h1.026v2.566h-1.026V56.46zm0-5.02h1.026v2.566h-1.026V51.44zm0-5.025h1.026v2.566h-1.026v-2.566zm0-5.025h1.026v2.567h-1.026v-2.566zm0-5.024h1.026v2.567h-1.026v-2.567zm0-5.024h1.026v2.566h-1.026v-2.566z" fill="#2D2D2F"/></g><g filter="url(#b)"><path fill-rule="evenodd" clip-rule="evenodd" d="M729.841 437.516l4.646-1.651L722 429l3.64 13.776 2.726-4.108 3.264 4.177 1.474-1.152-3.263-4.177z" fill="#363B3E"/><path d="M730.662 437.755l3.992-1.419 1.049-.373-.976-.536-12.486-6.865-1.022-.562.298 1.128 3.64 13.776.284 1.077.616-.928 2.342-3.531 2.837 3.631.308.394.394-.308 1.474-1.152.394-.307-.308-.394-2.836-3.631z" stroke="#fff" stroke-opacity=".8"/></g><path stroke="#FFE400" stroke-dasharray="5 5" d="M719.5 427v167M109 427.5h610"/><path stroke="#FFE400" d="M83.5 601v40m-6.146-26.354l12.02 12.021M367 621.5H83"/><path d="M378.408 627v-1.184h3.12v-8.992h-.112l-2.816 2.624-.784-.848 2.96-2.768h2.096v9.984h2.88V627h-7.344zm16.714 0h-7.328v-1.376l3.648-3.36c.522-.48.96-.987 1.312-1.52.352-.544.528-1.088.528-1.632v-.192c0-.619-.171-1.12-.512-1.504-.342-.384-.859-.576-1.552-.576-.342 0-.64.048-.896.144-.256.096-.48.229-.672.4a2.4 2.4 0 0 0-.464.608 3.685 3.685 0 0 0-.288.736l-1.2-.464a4.73 4.73 0 0 1 .432-.96 3.57 3.57 0 0 1 .704-.848 3.435 3.435 0 0 1 1.024-.592c.405-.149.88-.224 1.424-.224.544 0 1.029.08 1.456.24.426.16.784.384 1.072.672.288.288.506.629.656 1.024.16.395.24.832.24 1.312 0 .437-.064.843-.192 1.216a4.685 4.685 0 0 1-.496 1.072 6.462 6.462 0 0 1-.784.976c-.299.32-.624.64-.976.96l-3.008 2.704h5.872V627zm7.066 0v-2.192h-5.392v-1.184l4.672-7.792h2v7.856h1.616v1.12h-1.616V627h-1.28zm-4.128-3.312h4.128v-6.816h-.08l-4.048 6.816zm11.897-3.12c.758 0 1.323-.171 1.696-.512.384-.352.576-.8.576-1.344v-.112c0-.587-.186-1.024-.56-1.312-.362-.299-.842-.448-1.44-.448-.576 0-1.045.128-1.408.384a2.847 2.847 0 0 0-.896 1.008l-.992-.768c.139-.224.304-.443.496-.656a3.492 3.492 0 0 1 1.632-1.008c.352-.107.752-.16 1.2-.16.47 0 .912.064 1.328.192.416.117.774.299 1.072.544.31.235.55.528.72.88.182.352.272.752.272 1.2 0 .363-.058.688-.176.976a2.295 2.295 0 0 1-.448.752 2.669 2.669 0 0 1-.688.544 3.183 3.183 0 0 1-.832.336v.064c.299.064.587.171.864.32.288.139.539.325.752.56.224.224.4.501.528.832.139.32.208.688.208 1.104 0 .48-.09.923-.272 1.328a3 3 0 0 1-.768 1.024c-.33.277-.73.496-1.2.656a4.78 4.78 0 0 1-1.552.24c-.48 0-.906-.053-1.28-.16a3.849 3.849 0 0 1-.992-.432 4.367 4.367 0 0 1-.768-.608 6.03 6.03 0 0 1-.576-.704l1.008-.768c.139.224.288.427.448.608.171.181.358.336.56.464.203.128.432.229.688.304.256.064.555.096.896.096.79 0 1.387-.176 1.792-.528.406-.363.608-.875.608-1.536v-.128c0-.661-.202-1.168-.608-1.52-.405-.363-1.002-.544-1.792-.544h-1.312v-1.168h1.216zm10.218 6.624c-1.333 0-2.309-.507-2.928-1.52-.608-1.013-.912-2.432-.912-4.256 0-1.824.304-3.243.912-4.256.619-1.013 1.595-1.52 2.928-1.52s2.304.507 2.912 1.52c.619 1.013.928 2.432.928 4.256 0 1.824-.309 3.243-.928 4.256-.608 1.013-1.579 1.52-2.912 1.52zm0-1.168c.437 0 .811-.091 1.12-.272.309-.181.56-.437.752-.768.192-.331.331-.72.416-1.168.096-.448.144-.944.144-1.488v-1.824c0-.544-.048-1.04-.144-1.488a3.678 3.678 0 0 0-.416-1.168 2.077 2.077 0 0 0-.752-.768c-.309-.181-.683-.272-1.12-.272-.437 0-.811.091-1.12.272-.309.181-.56.437-.752.768-.192.331-.336.72-.432 1.168a8.004 8.004 0 0 0-.128 1.488v1.824c0 .544.043 1.04.128 1.488.096.448.24.837.432 1.168.192.331.443.587.752.768.309.181.683.272 1.12.272z" fill="#FFE400"/><path stroke="#FFE400" d="M719 621.5H435m278.354-6.854l12.02 12.021M719.5 601v40"/><path d="M16.692 397.008v-3.344h-3.12v-1.088h3.12v-3.344h1.216v3.344h3.12v1.088h-3.12v3.344h-1.216zm13.93.992h-7.328v-1.376l3.648-3.36a8.23 8.23 0 0 0 1.312-1.52c.352-.544.528-1.088.528-1.632v-.192c0-.619-.17-1.12-.512-1.504-.342-.384-.859-.576-1.552-.576-.342 0-.64.048-.896.144-.256.096-.48.229-.672.4a2.413 2.413 0 0 0-.464.608 3.758 3.758 0 0 0-.288.736l-1.2-.464a4.73 4.73 0 0 1 .432-.96 3.57 3.57 0 0 1 .704-.848c.288-.245.63-.443 1.024-.592.405-.149.88-.224 1.424-.224.544 0 1.03.08 1.456.24.426.16.784.384 1.072.672.288.288.506.629.656 1.024.16.395.24.832.24 1.312 0 .437-.064.843-.192 1.216a4.647 4.647 0 0 1-.496 1.072 6.407 6.407 0 0 1-.784.976c-.299.32-.624.64-.976.96l-3.008 2.704h5.872V398zm3.242-1.872c.34 0 .586.091.736.272.16.171.24.395.24.672v.224c0 .437-.129.917-.385 1.44a4.249 4.249 0 0 1-1.072 1.392h-1.072c.32-.341.577-.667.769-.976a2.95 2.95 0 0 0 .431-1.008.803.803 0 0 1-.48-.304.985.985 0 0 1-.143-.544v-.224c0-.277.074-.501.224-.672.16-.181.41-.272.752-.272zm3.59 1.872v-1.184h3.12v-8.992h-.111l-2.816 2.624-.784-.848 2.96-2.768h2.096v9.984h2.88V398h-7.344zm12.987.192c-.64 0-1.2-.08-1.68-.24a3.73 3.73 0 0 1-1.216-.688 2.92 2.92 0 0 1-.736-1.024 3.375 3.375 0 0 1-.24-1.28c0-.768.208-1.376.624-1.824.416-.448.96-.763 1.632-.944v-.128c-.587-.203-1.056-.528-1.408-.976-.342-.459-.512-1.008-.512-1.648 0-.853.309-1.531.928-2.032.618-.512 1.488-.768 2.608-.768s1.989.256 2.608.768c.618.501.928 1.179.928 2.032 0 .64-.176 1.189-.528 1.648-.342.448-.806.773-1.392.976v.128c.672.181 1.216.496 1.632.944.416.448.624 1.056.624 1.824 0 .459-.086.885-.256 1.28-.16.395-.406.736-.736 1.024a3.55 3.55 0 0 1-1.2.688c-.48.16-1.04.24-1.68.24zm0-1.168c.778 0 1.381-.171 1.808-.512.426-.352.64-.848.64-1.488v-.336c0-.64-.214-1.131-.64-1.472-.427-.352-1.03-.528-1.808-.528-.779 0-1.382.176-1.808.528-.427.341-.64.832-.64 1.472v.336c0 .64.213 1.136.64 1.488.426.341 1.029.512 1.808.512zm0-5.456c.704 0 1.237-.149 1.6-.448.362-.299.544-.736.544-1.312v-.24c0-.576-.182-1.013-.544-1.312-.363-.299-.896-.448-1.6-.448-.704 0-1.238.149-1.6.448-.363.299-.544.736-.544 1.312v.24c0 .576.181 1.013.544 1.312.362.299.896.448 1.6.448zm9.593 6.624c-1.333 0-2.309-.507-2.928-1.52-.608-1.013-.912-2.432-.912-4.256 0-1.824.304-3.243.912-4.256.619-1.013 1.595-1.52 2.928-1.52 1.334 0 2.304.507 2.912 1.52.619 1.013.928 2.432.928 4.256 0 1.824-.309 3.243-.928 4.256-.608 1.013-1.578 1.52-2.912 1.52zm0-1.168c.438 0 .811-.091 1.12-.272.31-.181.56-.437.752-.768.192-.331.331-.72.416-1.168.096-.448.144-.944.144-1.488v-1.824c0-.544-.048-1.04-.144-1.488a3.688 3.688 0 0 0-.416-1.168 2.075 2.075 0 0 0-.752-.768c-.309-.181-.682-.272-1.12-.272-.437 0-.81.091-1.12.272-.309.181-.56.437-.752.768-.192.331-.336.72-.432 1.168a7.97 7.97 0 0 0-.128 1.488v1.824c0 .544.043 1.04.128 1.488.096.448.24.837.432 1.168.192.331.443.587.752.768.31.181.683.272 1.12.272zm8.538-4.88c-.384 0-.741-.069-1.072-.208a2.727 2.727 0 0 1-.848-.576 2.8 2.8 0 0 1-.56-.864 2.904 2.904 0 0 1-.208-1.104c0-.395.07-.757.208-1.088.139-.341.326-.635.56-.88.245-.245.528-.437.848-.576.33-.139.688-.208 1.072-.208.384 0 .736.069 1.056.208a2.5 2.5 0 0 1 .848.576c.246.245.438.539.576.88.139.331.208.693.208 1.088 0 .395-.07.763-.208 1.104-.139.331-.33.619-.576.864a2.498 2.498 0 0 1-.848.576c-.32.139-.672.208-1.056.208zm0-1.024c.48 0 .859-.165 1.136-.496.288-.341.432-.752.432-1.232s-.144-.885-.432-1.216c-.277-.341-.656-.512-1.136-.512-.48 0-.864.171-1.152.512-.277.331-.416.736-.416 1.216s.139.891.416 1.232c.288.331.672.496 1.152.496z" fill="#FFE400"/><path d="M85 403H0" stroke="#FFE400"/><path d="M84.146 425.354a.5.5 0 0 0 .708 0l3.181-3.182a.501.501 0 0 0-.707-.708l-2.828 2.829-2.828-2.829a.5.5 0 0 0-.707.708l3.181 3.182zM85 425v-22h-1v22h1z" fill="#FFE400"/><path stroke="#FFE400" d="M66 425.5h37"/><defs><filter id="b" x="717.438" y="425" width="22.482" height="24.186" filterUnits="userSpaceOnUse" color-interpolation-filters="sRGB"><feFlood flood-opacity="0" result="BackgroundImageFix"/><feColorMatrix in="SourceAlpha" values="0 0 0 0 0 0 0 0 0 0 0 0 0 0 0 0 0 0 127 0" result="hardAlpha"/><feOffset dy="1"/><feGaussianBlur stdDeviation="1.5"/><feColorMatrix values="0 0 0 0 0 0 0 0 0 0 0 0 0 0 0 0 0 0 0.25 0"/><feBlend in2="BackgroundImageFix" result="effect1_dropShadow_1845_2912"/><feBlend in="SourceGraphic" in2="effect1_dropShadow_1845_2912" result="shape"/></filter><clipPath id="a"><path fill="#fff" transform="matrix(-1 0 0 1 1157 0)" d="M0 0h1073v590H0z"/></clipPath></defs></svg>