<svg width="360" height="293" viewBox="0 0 360 293" fill="none" xmlns="http://www.w3.org/2000/svg"><path fill-rule="evenodd" clip-rule="evenodd" d="M160.09 259.503v26.532a52.535 52.535 0 0 1-1.18-.054l-16.985.334v-25.062c5.692-.551 11.354-1.095 16.985-1.63.387-.044.783-.081 1.18-.12z" fill="#BCBEC0"/><path fill-rule="evenodd" clip-rule="evenodd" d="M93.319 270.421v16.889c-10.132.215-20.254.438-30.369.668v-14.83a4887.56 4887.56 0 0 1 30.369-2.727z" fill="#939598"/><path d="M202.03 269.843l.064-.435c8.571 1.283 17.147 3.563 25.716 5.793l-.11.414c-8.569-2.22-17.132-4.496-25.67-5.772zm101.978 2.604l10.086-2.129.088.429-10.085 2.129-.089-.429zm-101.982-6.092l.074-.43c11.387 1.98 22.795 6 34.172 9.19l-.118.414c-11.395-3.195-22.789-7.208-34.128-9.18v.006zm77.803 7.64l34.252-9.085.112.422-34.251 9.087-.113-.424zm-77.814-14.349l.095-.426c15.874 3.517 31.815 12 47.615 15.701l-.102.414c-15.876-3.724-31.814-12.207-47.608-15.699v.01zm70.672 14.652a40.217 40.217 0 0 0 2.176-.563l39.214-11.433.122.414-39.212 11.431c-.736.206-1.469.403-2.203.571l-.097-.427v.007zm-70.674-17.881l.101-.414c18.337 4.469 36.773 16.231 54.953 18.774l-.06.434c-18.312-2.574-36.773-14.35-55.002-18.784l.008-.01zm-.01-6.229l.12-.414c20.642 5.938 41.497 22.711 61.819 22.697 3.71.017 7.397-.584 10.91-1.777l39.207-13.434.142.414-39.215 13.427a33.937 33.937 0 0 1-11.052 1.8c-20.553-.014-41.413-16.835-61.939-22.713h.008z" fill="#2D2D2F"/><path d="M201.999 247.179l.13-.413c20.659 6.374 41.545 24.366 61.846 24.349a31.33 31.33 0 0 0 10.873-1.897l39.211-14.396.15.414-39.214 14.392a31.735 31.735 0 0 1-11.024 1.924c-20.547-.013-41.445-18.056-61.976-24.368l.004-.005z" fill="#2D2D2F"/><path d="M201.992 241.364l.143-.414c20.659 7.223 41.648 27.567 61.904 27.546a27.965 27.965 0 0 0 10.803-2.127l39.216-16.27.166.404-39.211 16.27a28.39 28.39 0 0 1-10.968 2.162c-20.53-.021-41.505-20.421-62.046-27.571h-.007z" fill="#2D2D2F"/><path d="M201.988 238.55l.151-.414c20.659 7.634 41.7 29.116 61.933 29.093 3.705.013 7.371-.75 10.764-2.24l39.216-17.173.174.4-39.215 17.172a26.956 26.956 0 0 1-10.949 2.276c-20.524-.025-41.539-21.567-62.084-29.121l.01.007z" fill="#2D2D2F"/><path d="M201.98 233.1l.165-.413c20.678 8.428 41.799 32.114 61.977 32.085a24.295 24.295 0 0 0 10.697-2.452l39.215-18.958.188.393-39.209 18.965a24.739 24.739 0 0 1-10.887 2.499c-20.508-.029-41.599-23.793-62.152-32.119h.006z" fill="#2D2D2F"/><path d="M201.978 230.462l.172-.414c20.681 8.814 41.846 33.563 62.011 33.536a23.277 23.277 0 0 0 10.664-2.558l39.215-19.806.196.389-39.223 19.815a23.76 23.76 0 0 1-10.86 2.605c-20.498-.032-41.626-24.855-62.183-33.571l.008.004z" fill="#2D2D2F"/><path d="M201.97 225.327l.182-.397c20.689 9.56 41.937 36.382 62.063 36.349a21.717 21.717 0 0 0 10.602-2.754l39.215-21.502.206.383-39.214 21.502a22.133 22.133 0 0 1-10.811 2.81c-20.475-.035-41.679-26.936-62.247-36.391h.004z" fill="#2D2D2F"/><path d="M201.97 222.837l.188-.396c20.692 9.931 41.991 37.751 62.088 37.716 3.713 0 7.36-.983 10.571-2.849l39.215-22.322.206.38-39.214 22.32a21.426 21.426 0 0 1-10.786 2.907c-20.465-.035-41.706-27.931-62.276-37.756h.008z" fill="#2D2D2F"/><path d="M201.964 217.994l.206-.389c20.698 10.631 42.087 40.407 62.138 40.366 3.541 0 7.039-.921 10.509-3.033l39.217-23.919.227.372-39.214 23.921c-3.535 2.152-7.124 3.104-10.743 3.104-20.452-.044-41.756-29.905-62.336-40.417l-.004-.005z" fill="#2D2D2F"/><path d="M201.962 215.64l.206-.387c20.698 10.965 42.13 41.698 62.161 41.654 3.53 0 7.024-.945 10.48-3.122l39.214-24.699.234.368-39.215 24.702c-3.522 2.218-7.104 3.192-10.713 3.192-20.43-.046-41.783-30.854-62.365-41.708h-.002z" fill="#2D2D2F"/><path d="M201.957 211.056l.207-.383c20.702 11.644 42.218 44.211 62.206 44.164 3.512 0 6.987-.999 10.426-3.292l39.215-26.224.244.362-39.217 26.226c-3.512 2.338-7.069 3.369-10.668 3.369-20.405-.05-41.828-32.704-62.419-44.222h.006z" fill="#2D2D2F"/><path d="M201.953 208.823l.217-.379c20.704 11.967 42.264 45.437 62.229 45.385 3.512 0 6.97-1.022 10.399-3.376l39.215-26.971.252.36-39.213 26.971c-3.493 2.395-7.052 3.455-10.647 3.455-20.392-.052-41.851-33.609-62.448-45.447l-.004.002z" fill="#2D2D2F"/><path d="M264.448 252.3c-20.367-.054-41.892-35.359-62.497-47.831l.225-.376c20.707 12.604 42.351 47.824 62.272 47.77 3.496 0 6.94-1.074 10.348-3.54l39.215-28.425.256.353-39.217 28.418c-3.468 2.513-7.011 3.622-10.591 3.622h-.011v.009z" fill="#2D2D2F"/><path d="M201.947 202.345l.231-.37c20.711 12.912 42.392 48.982 62.295 48.926 3.485 0 6.923-1.096 10.33-3.616l39.214-29.135.258.349-39.22 29.135c-3.463 2.57-7.004 3.704-10.582 3.704-20.357-.058-41.915-36.219-62.526-48.995v.002z" fill="#2D2D2F"/><path d="M264.519 249.462c-20.333-.062-41.956-37.887-62.576-51.263l.235-.366c20.713 13.517 42.477 51.252 62.339 51.192 3.472 0 6.891-1.142 10.271-3.767l39.217-30.52.268.346-39.216 30.532c-3.438 2.673-6.962 3.856-10.536 3.856l-.002-.01z" fill="#2D2D2F"/><path d="M264.541 248.545c-20.322-.064-41.974-38.689-62.596-52.371l.24-.364c20.714 13.812 42.516 52.363 62.358 52.299 3.465 0 6.876-1.165 10.247-3.84l39.215-31.21.27.341-39.212 31.21c-3.432 2.729-6.95 3.931-10.511 3.931l-.011.004z" fill="#2D2D2F"/><path d="M264.585 246.755c-20.298-.068-42.016-40.291-62.646-54.536l.248-.362c20.714 14.392 42.592 54.528 62.389 54.46 3.453 0 6.845-1.207 10.2-3.983l39.214-32.547.279.337-39.206 32.545c-3.411 2.83-6.919 4.084-10.47 4.084l-.008.002z" fill="#2D2D2F"/><path d="M264.605 245.878c-20.287-.071-42.032-41.067-62.668-55.591l.252-.36c20.716 14.673 42.631 55.582 62.416 55.514 3.446 0 6.834-1.225 10.179-4.053l39.215-33.201.281.334-39.215 33.202c-3.403 2.878-6.902 4.155-10.451 4.155h-.009z" fill="#2D2D2F"/><path d="M264.647 244.164c-20.265-.072-42.068-42.583-62.712-57.662l.256-.354c20.721 15.224 42.706 57.652 62.456 57.58 3.433 0 6.803-1.267 10.122-4.19l39.215-34.483.287.326-39.212 34.486c-3.388 2.977-6.876 4.297-10.416 4.297h.004z" fill="#2D2D2F"/><path d="M264.665 243.325c-20.245-.076-42.086-43.324-62.732-58.672l.26-.351c20.719 15.492 42.741 58.661 62.472 58.584 3.428 0 6.793-1.282 10.113-4.251l39.214-35.113.292.325-39.215 35.115c-3.378 3.022-6.859 4.363-10.395 4.363h-.009z" fill="#2D2D2F"/><path d="M264.705 241.683c-20.232-.079-42.122-44.779-62.774-60.65l.266-.347c20.721 16.019 42.809 60.639 62.508 60.56 3.412 0 6.763-1.322 10.071-4.382l39.214-36.35.296.321-39.213 36.352c-3.363 3.103-6.834 4.496-10.362 4.496h-.006z" fill="#2D2D2F"/><path d="M201.928 179.258l.269-.344c20.721 16.281 42.842 61.607 62.526 61.525 3.409 0 6.753-1.341 10.051-4.442l39.216-36.954.298.319-39.213 36.953c-3.357 3.162-6.817 4.552-10.352 4.552-20.221-.081-42.144-45.488-62.803-61.62l.008.011z" fill="#2D2D2F"/><path d="M264.76 239.301c-20.2-.085-42.169-46.881-62.836-63.517l.277-.342c20.721 16.786 42.911 63.505 62.559 63.42 3.397 0 6.727-1.376 10.012-4.564l39.214-38.143.304.312-39.215 38.144c-3.338 3.246-6.792 4.69-10.309 4.69h-.006z" fill="#2D2D2F"/><path d="M264.777 238.531c-20.188-.086-42.183-47.561-62.85-64.446l.274-.339c20.723 17.034 42.942 64.436 62.576 64.345 3.39 0 6.718-1.397 9.995-4.626l39.214-38.727.304.31-39.213 38.725c-3.332 3.287-6.78 4.758-10.294 4.758h-.006z" fill="#2D2D2F"/><path d="M276.449 206.725l.163-.406 37.608 15.054-.164.408-37.607-15.056zm-35.391-2.545l.147-.413 35.515 12.571-.147.413-35.515-12.571zm35.397-40.644l.228-.375 37.568 22.573-.225.374-37.571-22.572zm23.814 29.671l.202-.391 13.767 7.169-.202.391-13.767-7.169zm.274-91.81l-.342-.197.216-.381.389.234 13.486 13.504-.31.311-13.439-13.471zm-.312 40.93l.271-.344 13.771 10.825-.27.344-13.772-10.825zm.011 11.675l.26-.356 13.765 9.985-.258.354-13.767-9.983zM169.25 250.283l.186-.029a436.82 436.82 0 0 0 26.456-5.03l.267-.06v28.827l-.207.018a978.687 978.687 0 0 1-26.476 2.098l-.234.015v-25.839h.008zm.438 25.371c8.69-.571 17.366-1.26 26.031-2.069v-27.877a434.355 434.355 0 0 1-26.031 4.949v24.997z" fill="#2D2D2F"/><path d="M160.014 259.711l.146-.416 41.973 15.031-.147.412-41.972-15.027zm159.854 32.84l65.711-41.96.236.368-65.712 41.961-.235-.369z" fill="#2D2D2F"/><path d="M358.777 289.322c-14.968-.151-29.79-2.768-44.658-4.15l.039-.437c14.893 1.384 29.703 4 44.623 4.151 20.851.207 41.731 1.57 62.557 1.57 7.819 0 15.632-.194 23.437-.71l48.54-3.215.029.437-48.548 3.215c-7.817.515-15.637.71-23.464.71-20.849 0-41.731-1.364-62.564-1.571h.009zm72.351-72.566c-19.529-.029-50.358-27.375-72.409-33.871-40.956-12.184-29.9-79.879-44.784-119.586l.413-.155c14.874 39.93 4.028 107.437 44.499 119.314 22.185 6.574 53.079 33.882 72.287 33.853 5.677 0 10.297-2.346 13.47-8.328l48.538-91.913.388.207-48.538 91.913c-3.216 6.097-8.044 8.561-13.841 8.561h-.027l.004.005z" fill="#2D2D2F"/><path d="M431.017 217.986c-19.56-.027-50.268-27.087-72.306-33.484-40.492-11.868-29.9-78.71-44.785-117.827l.414-.153c14.874 39.345 4.501 105.994 44.497 117.56 22.165 6.472 52.936 33.494 72.177 33.467 5.709 0 10.367-2.342 13.582-8.317l48.376-90.262.17-.385.401.174-.178.403-48.383 90.277c-3.26 6.093-8.123 8.549-13.941 8.547h-.027.003z" fill="#2D2D2F"/><path d="M430.781 220.496c-19.626-.029-50.071-26.506-72.058-32.69-39.5-11.238-29.904-76.33-44.788-114.256l.413-.16c14.874 38.156 5.476 103.056 44.497 113.99 22.121 6.263 52.634 32.704 71.938 32.677 5.785 0 10.517-2.332 13.825-8.29l48.53-87.815.384.207-48.548 87.817c-3.351 6.074-8.293 8.516-14.179 8.516h-.014v.004z" fill="#2D2D2F"/><path d="M430.653 221.772c-19.649-.027-49.97-26.206-71.932-32.289-39.008-10.915-29.902-75.103-44.786-112.427l.413-.163c14.874 37.547 5.972 101.546 44.495 112.168 22.105 6.158 52.473 32.299 71.816 32.276 5.813 0 10.596-2.325 13.947-8.276l48.416-86.182.112-.362.413.128-.13.414-48.433 86.228c-3.403 6.064-8.383 8.497-14.302 8.497h-.027l-.002-.012z" fill="#2D2D2F"/><path d="M430.393 224.375c-19.711-.027-49.753-25.591-71.67-31.448-37.992-10.285-29.904-72.633-44.786-108.712l.403-.165c14.874 36.308 6.991 98.458 44.497 108.453 22.055 5.942 52.149 31.471 71.556 31.448 5.888 0 10.757-2.315 14.209-8.239l48.548-83.555.376.218-48.546 83.542c-3.512 6.039-8.569 8.458-14.558 8.458h-.029z" fill="#2D2D2F"/><path d="M430.256 225.704c-19.737-.025-49.639-25.273-71.533-31.035-37.471-9.968-29.904-71.366-44.786-106.814l.403-.168c14.874 35.678 7.507 96.878 44.493 106.552 22.032 5.83 51.983 31.034 71.421 31.018 5.927 0 10.84-2.307 14.346-8.22l48.426-81.906.062-.253.426.098-.079.32-48.457 81.964c-3.56 6.027-8.677 8.435-14.695 8.435h-.029l.002.009z" fill="#2D2D2F"/><path d="M429.971 228.393c-19.803-.024-49.399-24.62-71.246-30.159-36.411-9.339-29.906-68.785-44.788-102.939l.401-.176c14.874 34.388 8.569 93.633 44.492 102.689 21.986 5.607 51.631 30.172 71.139 30.147 6.004 0 11.013-2.293 14.635-8.175l48.54-79.111.372.23-48.548 79.117c-3.676 6-8.884 8.384-14.978 8.384h-.029l.01-.007z" fill="#2D2D2F"/><path d="M429.823 229.782c-19.833-.025-49.276-24.29-71.096-29.715-35.87-9.025-29.91-67.465-44.79-100.965l.398-.18c14.875 33.724 9.115 91.965 44.493 100.713 21.963 5.495 51.441 29.727 70.992 29.702 6.043 0 11.105-2.276 14.784-8.152l48.389-77.356.153-.323.395.186-.166.346-48.401 77.379c-3.738 5.981-8.991 8.358-15.133 8.358h-.021l.003.007z" fill="#2D2D2F"/><path d="M429.508 232.589c-19.902-.023-49.009-23.599-70.779-28.792-34.76-8.398-29.912-64.759-44.79-96.919l.394-.184c14.885 32.378 10.222 88.552 44.493 96.675 21.913 5.259 51.061 28.802 70.68 28.781 6.128 0 11.292-2.276 15.1-8.096l48.548-74.483.368.238-48.538 74.483c-3.869 5.944-9.222 8.294-15.447 8.294h-.02l-.009.003z" fill="#2D2D2F"/><path d="M429.335 234.021c-19.936-.023-48.871-23.241-70.614-28.318-34.192-8.086-29.91-63.385-44.788-94.85l.394-.188c14.885 31.69 10.788 86.789 44.493 94.612 21.884 5.141 50.858 28.328 70.515 28.305 6.171 0 11.391-2.255 15.267-8.069l48.387-72.662.107-.314.414.14-.133.367-48.403 72.719c-3.938 5.92-9.342 8.258-15.606 8.258h-.033z" fill="#2D2D2F"/><path d="M428.996 236.942c-20.006-.02-48.577-22.5-70.265-27.339-33.033-7.467-29.914-60.567-44.788-90.62l.39-.195c14.887 30.283 11.947 83.172 44.493 90.391 21.832 4.899 50.437 27.35 70.17 27.327 6.26 0 11.596-2.231 15.616-7.986l48.548-69.648.356.25-48.536 69.648c-4.087 5.865-9.602 8.174-15.953 8.174h-.023l-.008-.002z" fill="#2D2D2F"/><path d="M428.814 238.432c-20.039-.021-48.422-22.117-70.083-26.833-32.434-7.16-29.914-59.124-44.788-88.46l.388-.197c14.887 29.56 12.538 81.311 44.493 88.227 21.801 4.781 50.216 26.845 69.988 26.824 6.303 0 11.701-2.218 15.8-7.943l48.379-67.758.147-.315.396.18-.167.354-48.4 67.794c-4.164 5.834-9.736 8.129-16.132 8.127h-.023.002z" fill="#2D2D2F"/><path d="M428.428 241.473c-20.111-.018-48.092-21.31-69.692-25.787-31.23-6.553-29.921-56.168-44.791-84.029l.386-.207c14.889 28.084 13.745 77.497 44.491 83.808 21.748 4.529 49.757 25.797 69.606 25.781 6.404 0 11.924-2.189 16.188-7.848l48.549-64.58.347.263-48.536 64.582c-4.339 5.766-10.034 8.019-16.527 8.019h-.017l-.004-.002z" fill="#2D2D2F"/><path d="M428.227 243.024c-20.146-.019-47.928-20.897-69.492-25.241-30.612-6.249-29.92-54.654-44.788-81.762l.382-.207c14.893 27.327 14.362 75.518 44.493 81.542 21.717 4.399 49.515 25.258 69.414 25.242 6.449 0 12.04-2.171 16.392-7.792l48.412-62.69.095-.225.414.17-.124.275-48.452 62.724c-4.416 5.725-10.176 7.962-16.71 7.962h-.025l-.011.002z" fill="#2D2D2F"/><path d="M427.8 246.186c-20.219-.017-47.55-20.042-69.063-24.124-29.352-5.657-29.924-51.548-44.788-77.108l.376-.22c14.895 25.775 15.616 71.466 44.493 76.899 21.657 4.138 49.009 24.133 68.98 24.114 6.553 0 12.284-2.131 16.822-7.655l48.551-59.261.339.277-48.549 59.261c-4.611 5.634-10.505 7.823-17.147 7.823h-.016l.002-.006z" fill="#2D2D2F"/><path d="M427.577 247.806c-20.246-.017-47.357-19.589-68.838-23.539-8.98-1.655-15.287-7.191-20.132-14.743-10.655-16.589-14.461-42.945-24.656-59.977l.374-.226c10.253 17.152 14.065 43.508 24.65 59.965 4.816 7.494 11.007 12.921 19.845 14.553 21.622 4.001 48.742 23.547 68.757 23.53 6.611 0 12.409-2.108 17.047-7.586l48.412-57.271.122-.24.391.194-.149.286-48.443 57.31c-4.712 5.576-10.676 7.74-17.353 7.74h-.017l-.01.004z" fill="#2D2D2F"/><path d="M427.102 251.104c-20.327-.017-46.943-18.638-68.36-22.318-27.402-4.786-29.927-46.686-44.789-69.823l.368-.238c14.899 23.348 17.56 65.048 44.495 69.63 21.555 3.725 48.187 22.325 68.284 22.308 6.712 0 12.674-2.054 17.527-7.411l48.544-53.663.324.292-48.548 53.663c-4.934 5.456-11.047 7.56-17.841 7.56h-.004z" fill="#2D2D2F"/><path d="M426.856 252.786c-20.368-.017-46.729-18.139-68.113-21.681-26.736-4.504-29.928-45.008-44.788-67.309l.364-.244c14.901 22.508 18.219 62.813 44.493 67.119 21.528 3.59 47.899 21.689 68.042 21.672 6.763 0 12.808-2.025 17.766-7.313l48.658-51.851.318.3-48.656 51.853c-5.049 5.379-11.24 7.448-18.086 7.448l.002.006z" fill="#2D2D2F"/><path d="M426.331 256.214c-20.44-.014-46.276-17.081-67.585-20.34-25.386-3.949-29.933-41.553-44.787-62.137l.356-.258c14.905 20.782 19.559 58.191 44.495 61.959 21.46 3.31 47.294 20.352 67.519 20.336 6.879 0 13.091-1.958 18.306-7.083l48.548-47.753.306.31-48.549 47.756c-5.299 5.212-11.647 7.208-18.605 7.208l-.004.002z" fill="#2D2D2F"/><path d="M426.058 257.963c-20.479-.013-46.025-16.523-67.31-19.635-24.704-3.68-29.933-39.778-44.784-59.478l.347-.265c14.909 19.895 20.245 55.8 44.497 59.307 21.425 3.155 46.978 19.642 67.248 19.63 6.938 0 13.239-1.918 18.593-6.948l48.371-45.56.165-.25.366.237-.207.29-48.414 45.598c-5.427 5.11-11.862 7.065-18.874 7.065l.002.009z" fill="#2D2D2F"/><path d="M358.75 243.376c-23.324-3.155-29.933-36.116-44.778-54l.334-.281c14.912 18.066 21.608 50.842 44.502 53.846 21.355 2.854 46.321 18.156 66.672 18.145 7.059 0 13.546-1.829 19.167-6.633l48.549-41.505.285.333-48.538 41.505c-5.71 4.879-12.323 6.737-19.455 6.737-20.545-.013-45.509-15.333-66.728-18.149l-.01.002z" fill="#2D2D2F"/><path d="M358.75 245.979c-22.63-2.897-29.933-34.231-44.776-51.176l.328-.287c14.916 17.122 22.291 48.268 44.506 51.031 21.317 2.689 45.98 17.366 66.374 17.356 7.115 0 13.699-1.777 19.471-6.449l48.538-39.337.277.341-48.548 39.337c-5.857 4.747-12.559 6.547-19.746 6.547-20.582-.011-45.243-14.69-66.433-17.363h.009z" fill="#2D2D2F"/><path d="M424.565 267.029c-20.659 0-44.689-13.33-65.811-15.684-21.246-2.417-29.931-30.34-44.772-45.356l.31-.308c14.92 15.178 23.656 42.933 44.509 45.227 21.246 2.384 45.285 15.691 65.762 15.681 7.23 0 14.019-1.655 20.099-6.019l48.548-34.866.256.358-48.538 34.864c-6.164 4.426-13.046 6.101-20.343 6.101h-.012l-.008.002z" fill="#2D2D2F"/><path d="M358.758 254.114c-20.564-2.185-29.932-28.33-44.77-42.349l.3-.317c14.924 14.173 24.33 40.159 44.514 42.23 21.21 2.222 44.926 14.797 65.447 14.787 7.294 0 14.176-1.583 20.421-5.767l48.538-32.557.244.364-48.549 32.558c-6.327 4.239-13.31 5.842-20.658 5.842-20.686 0-44.404-12.598-65.489-14.791h.002z" fill="#2D2D2F"/><path d="M358.76 259.841c-19.213-1.74-29.924-24.174-44.759-36.136l.272-.342c14.926 12.095 25.646 34.389 44.522 36.042 21.141 1.889 44.21 12.879 64.811 12.871 7.413 0 14.499-1.418 21.072-5.173l48.538-27.786.219.381-48.548 27.786c-6.654 3.805-13.825 5.236-21.291 5.236-20.748 0-43.822-11.006-64.848-12.873l.012-.006z" fill="#2D2D2F"/><path d="M358.762 262.8c-18.574-1.533-29.92-22.022-44.753-32.922l.256-.356c14.928 11.022 26.28 31.385 44.53 32.841 21.103 1.717 43.853 11.849 64.493 11.843 7.468 0 14.655-1.322 21.401-4.837l48.548-25.318.206.387-48.548 25.318c-6.817 3.556-14.085 4.891-21.603 4.891-20.774 0-43.53-10.138-64.528-11.847h-.002z" fill="#2D2D2F"/><path d="M358.764 268.944c-17.353-1.14-29.906-17.567-44.739-26.275l.221-.379c14.929 8.789 27.464 25.117 44.545 26.205 21.035 1.364 43.177 9.631 63.881 9.627 7.574 0 14.959-1.102 22.033-4.044l48.548-20.208.168.414-48.538 20.207c-7.142 2.969-14.585 4.078-22.202 4.078-20.82 0-42.971-8.276-63.911-9.627l-.006.002z" fill="#2D2D2F"/><path d="M358.766 272.115c-16.795-.955-29.893-15.254-44.728-22.812l.196-.391c14.928 7.632 28.001 21.848 44.555 22.759 21.004 1.183 42.851 8.441 63.594 8.437 7.623 0 15.098-.979 22.332-3.592l48.538-17.555.147.414-48.538 17.555c-7.291 2.636-14.819 3.623-22.479 3.623-20.84 0-42.696-7.269-63.629-8.44l.012.002z" fill="#2D2D2F"/><path d="M358.77 278.725c-15.837-.621-29.862-10.452-44.703-15.641l.142-.414c14.918 5.232 28.923 15.025 44.578 15.618 20.944.807 42.293 5.874 63.092 5.874 7.712 0 15.345-.697 22.859-2.559l48.548-12.048.104.414-48.538 12.048c-7.557 1.862-15.228 2.571-22.965 2.571-20.865 0-42.222-5.071-63.108-5.871l-.009.008z" fill="#2D2D2F"/><path d="M358.773 282.161c-15.459-.457-29.842-7.957-44.69-11.915l.112-.414c14.911 3.979 29.265 11.456 44.59 11.901 20.917.62 42.068 4.498 62.89 4.496 7.747 0 15.446-.538 23.076-1.978l48.548-9.185.078.431-48.548 9.172c-7.662 1.448-15.389 1.986-23.157 1.986-20.865 0-42.03-3.888-62.901-4.496l.002.002zm-58.616 10.577l-.006-34.291 14.025 2.497-.076.431-13.511-2.404.006 33.767h-.438zm131.19-78.402c-19.473-.029-50.54-27.931-72.632-34.63-41.886-12.815-29.894-82.175-44.782-123.02l.413-.154c14.874 41.082 3.099 110.249 44.499 122.756 22.223 6.776 53.358 34.64 72.513 34.609 5.613 0 10.157-2.354 13.25-8.35l48.455-94.39.069-.224.413.129-.085.258-48.468 94.426c-3.131 6.114-7.885 8.59-13.606 8.59h-.039z" fill="#2D2D2F"/><path d="M431.45 213.147c-19.444-.029-50.614-28.205-72.735-34.999-42.351-13.132-29.894-83.303-44.782-124.713l.413-.149c14.874 41.644 2.636 111.621 44.501 124.442 22.239 6.875 53.49 35.011 72.606 34.982 5.577 0 10.093-2.357 13.147-8.361l48.538-95.859.388.207-48.538 95.857c-3.099 6.118-7.811 8.603-13.502 8.601h-.033l-.003-.008zm-289.746 47.909l.206-.018c5.69-.552 11.35-1.096 16.982-1.633.388-.043.787-.08 1.184-.117l.239-.025v27h-.225a42.55 42.55 0 0 1-1.169-.054l-16.986.333h-.225v-25.486h-.006zm.438 25.035l16.779-.329c.318.021.634.035.95.048v-26.069c-.316.031-.632.062-.94.097-5.564.532-11.16 1.07-16.789 1.612v24.641zm-79.419-13.143l.207-.019a5213.855 5213.855 0 0 1 30.368-2.729l.238-.018v17.342h-.207c-10.131.215-20.254.438-30.368.67h-.224V272.94l-.014.008zm.438 14.807c9.97-.226 19.95-.446 29.939-.66V270.66a5107.817 5107.817 0 0 0-29.939 2.689v14.408-.002zm40.111-49.592h-.508v.937h.508v-.937zm0-3.256h-.508v.937h.508v-.937zm0-3.258h-.508v.938h.508v-.938zm0-3.255h-.508v.937h.508v-.937zm0-3.255h-.508v.937h.508v-.937zm0-3.258h-.508v.937h.508v-.937zm0-3.257h-.508v.937h.508v-.937zm0-3.257h-.508v.937h.508v-.937zm0-3.255h-.508v.938h.508v-.938zm0-6.511h-.508v.937h.508v-.937zm0-6.515h-.508v.937h.508v-.937zm0-6.512h-.508v.937h.508v-.937zm0-6.513h-.508v.937h.508v-.937zm0-6.511h-.508v.937h.508v-.937zm0-6.514h-.508v.937h.508v-.937zm0-6.513h-.508v.938h.508v-.938zm0-3.256h-.508v.937h.508v-.937zm0-3.257h-.508v.937h.508v-.937z" fill="#2D2D2F"/><path fill-rule="evenodd" clip-rule="evenodd" d="M102.764 209.794l.508-.002v-.935l-.508-.003v.94z" fill="#2D2D2F"/><path d="M103.272 202.343h-.508v.937h.508v-.937zm0-6.513h-.508v.937h.508v-.937zm0-6.514h-.508v.938h.508v-.938zm0-6.51h-.508v.937h.508v-.937zm0-6.515h-.508v.937h.508v-.937zm0-6.512h-.508v.938h.508v-.938zm129.194-28.572h-.508v.937h.508v-.937zm0-3.257h-.508v.937h.508v-.937zm0-3.256h-.508v.938h.508v-.938zm0-6.512h-.508v.937h.508v-.937zm0-6.514h-.508v.937h.508v-.937zm0-6.513h-.508v.938h.508v-.938zm0-6.513h-.508v.937h.508v-.937zm0-6.511h-.508v.937h.508v-.937zm0-6.514h-.508v.937h.508v-.937zm0-6.512h-.508v.937h.508v-.938zm0-3.256h-.508v.937h.508v-.937zm0-3.259h-.508v.938h.508v-.937z" fill="#2D2D2F"/><path fill-rule="evenodd" clip-rule="evenodd" d="M231.958 132.375h.508v-.937h-.508v.937z" fill="#2D2D2F"/><path d="M232.466 124.925h-.508v.937h.508v-.937zm0-6.514h-.508v.937h.508v-.937zm0-6.511h-.508v.938h.508v-.938zm0-6.512h-.508v.937h.508v-.937zm0-6.514h-.508v.937h.508v-.937zm0-6.513h-.508v.938h.508v-.938zM198.7 209.105l-.232.453.832.427.232-.453-.832-.427zm-2.879-1.434l-.232.453.833.428.232-.452-.833-.429zm-2.902-1.534l-.232.453.833.428.232-.453-.833-.428zm-2.882-1.451l-.232.453.832.428.232-.452-.832-.429zm-2.907-1.54l-.232.453.833.428.232-.453-.833-.428zm-2.888-1.482l-.232.453.832.428.232-.453-.832-.428zm-2.894-1.492l-.232.453.833.428.232-.453-.833-.428zm-2.89-1.487l-.232.453.832.428.232-.452-.832-.429zm-2.88-1.439l-.232.452.832.429.232-.452-.832-.429zm-2.902-1.524l-.232.453.833.427.232-.453-.833-.427zm-2.893-1.503l-.232.453.832.428.232-.453-.832-.428zm-2.884-1.444l-.232.453.832.428.232-.452-.832-.429zm-2.89-1.48l-.232.453.832.428.232-.452-.832-.429zm-2.903-1.54l-.232.453.833.428.232-.453-.833-.428zm-2.881-1.435l-.233.452.833.429.232-.453-.832-.428zm-2.896-1.502l-.233.453.832.429.233-.453-.832-.429zm-2.9-1.529l-.232.453.833.428.232-.453-.833-.428zm-2.89-1.49l-.232.453.832.429.232-.452-.832-.43zm-5.776-2.932l-.233.452.832.429.233-.453-.832-.428zm-5.792-3.013l-.231.453.832.427.232-.453-.833-.427zm-5.778-2.945l-.232.452.832.429.232-.453-.832-.428zm-5.783-2.973l-.233.453.833.428.232-.452-.832-.429zm-5.784-2.98l-.233.452.832.429.233-.452-.832-.429zm-5.785-2.983l-.232.453.832.428.232-.452-.832-.429zm-5.782-2.974l-.233.452.832.429.233-.452-.832-.429zm-2.894-1.488l-.233.453.832.429.233-.453-.832-.429zm-2.896-1.524l-.232.452.833.428.232-.452-.833-.428zm43.379 22.329l-.232.453.833.428.232-.453-.833-.428zm-5.776-2.93l-.233.453.833.428.232-.453-.832-.428zm-5.794-3.026l-.232.452.832.429.232-.453-.832-.428zm-5.774-2.932l-.233.452.832.429.233-.452-.832-.429zm-5.784-2.976l-.233.452.833.429.232-.453-.832-.428zm-5.785-2.98l-.232.453.832.428.232-.453-.832-.428zm-5.786-2.981l-.232.453.833.428.232-.453-.833-.428zm168.583-54.544l-.252.443.813.463.252-.442-.813-.464zm-2.828-1.607l-.251.442.813.463.251-.443-.813-.462zm-5.664-3.226l-.251.443.814.463.251-.443-.814-.463zm-5.655-3.214l-.251.443.814.462.251-.442-.814-.463zm-5.677-3.25l-.25.444.814.461.251-.443-.815-.461zm-5.649-3.204l-.25.443.814.462.25-.443-.814-.462z" fill="#2D2D2F"/><path fill-rule="evenodd" clip-rule="evenodd" d="M249.975 93.151l.252-.442-.814-.464-.25.443.812.463z" fill="#2D2D2F"/><path d="M243.748 89.018l-.25.443.814.462.25-.443-.814-.462zm-5.644-3.198l-.251.443.814.462.251-.442-.814-.463zm-2.837-1.62l-.25.443.814.461.25-.443-.814-.461zm-2.817-1.592l-.251.443.814.462.251-.442-.814-.463zm42.41 24.1l-.25.443.814.462.25-.443-.814-.462zm-5.665-3.23l-.251.443.814.463.251-.443-.814-.463zm-5.659-3.221l-.251.442.814.463.251-.443-.814-.462zm-5.642-3.194l-.251.443.813.463.251-.443-.813-.463zm-5.666-3.23l-.251.442.814.463.251-.442-.814-.463zm-5.648-3.203l-.251.442.814.463.251-.442-.814-.463zm-5.646-3.198l-.25.443.814.462.25-.443-.814-.462zM27.368 253.517l-.587.73.396.319.587-.73-.396-.319zm2.055-2.565l-.587.73.396.319.587-.73-.396-.319zm2.039-2.532l-.588.729.396.32.588-.729-.396-.32zm2.04-2.534l-.586.73.396.319.587-.73-.397-.319zm2.033-2.52l-.586.731.396.319.587-.731-.397-.319zm2.046-2.548l-.588.73.396.319.588-.729-.396-.32zm2.052-2.557l-.588.729.395.32.588-.729-.395-.32zm2.022-2.494l-.588.729.395.32.588-.729-.395-.32zm2.035-2.526l-.587.73.395.319.588-.729-.395-.32zm2.044-2.54l-.587.73.395.319.588-.729-.396-.32zm2.042-2.542l-.588.73.395.319.588-.729-.395-.32zm2.057-2.572l-.588.729.395.32.588-.729-.395-.32zm2.027-2.507l-.587.731.396.319.587-.731-.396-.319zm2.035-2.516l-.588.729.396.32.588-.729-.396-.32zm2.054-2.575l-.587.73.395.319.587-.729-.395-.32zm2.028-2.496l-.587.73.396.319.587-.73-.396-.319zm2.045-2.548l-.587.73.395.319.588-.729-.396-.32zm2.046-2.554l-.588.729.396.32.588-.73-.396-.319zm2.046-2.548l-.587.729.395.32.588-.73-.396-.319zm2.026-2.494l-.589.729.396.32.588-.729-.396-.32zm2.05-2.56l-.588.73.395.319.588-.729-.396-.32zm2.033-2.514l-.587.73.396.319.587-.73-.396-.319z" fill="#2D2D2F"/><path fill-rule="evenodd" clip-rule="evenodd" d="M73.722 195.917l.397.318.586-.73-.397-.318-.586.73z" fill="#2D2D2F"/><path d="M78.395 190.095l-.587.729.395.32.588-.73-.396-.319zm4.074-5.034l-.588.729.396.32.587-.73-.395-.319zm4.08-5.079l-.587.73.397.319.586-.731-.396-.318zm4.082-5.076l-.586.731.396.319.586-.731-.396-.319zm4.084-5.079l-.587.73.395.319.588-.73-.396-.319zm4.08-5.058l-.588.729.396.32.588-.73-.396-.319zm2.037-2.522l-.587.731.397.318.586-.73-.396-.319zm2.042-2.539l-.588.73.395.319.588-.729-.395-.32zm-29.984 38.66l-.59.731.397.32.59-.731-.397-.32zm3.463-5.723l-.587.73.396.319.587-.729-.396-.32zm4.08-5.078l-.587.73.395.319.588-.73-.396-.319zm4.075-5.043l-.587.73.395.319.588-.729-.396-.32zm4.085-5.084l-.586.73.396.319.586-.73-.396-.319zm4.082-5.068l-.588.729.395.319.588-.729-.395-.319zm4.078-5.065l-.588.729.396.32.587-.729-.395-.32zm15.43 65.328l-.583.733.397.317.583-.733-.397-.317zm2.031-2.537l-.585.731.396.318.585-.731-.396-.318zm2.029-2.534l-.585.732.397.318.585-.732-.397-.318zm2.03-2.543l-.584.733.398.317.583-.733-.397-.317zm2.035-2.559l-.585.731.397.319.585-.732-.397-.318zm2.03-2.537l-.585.731.397.318.585-.731-.397-.318zm2.031-2.556l-.584.733.397.317.584-.732-.397-.318zm2.028-2.521l-.585.731.396.318.585-.731-.396-.318zm2.038-2.584l-.586.731.397.318.585-.731-.396-.318zm2.028-2.537l-.585.732.397.318.585-.732-.397-.318zm2.029-2.516l-.585.732.397.318.585-.732-.397-.318zm2.033-2.578l-.584.732.397.318.584-.732-.397-.318zm2.031-2.546l-.583.732.397.318.584-.733-.398-.317zm2.029-2.514l-.585.732.397.318.584-.732-.396-.318zm2.034-2.577l-.585.732.397.318.585-.732-.397-.318zm2.03-2.544l-.585.732.397.317.585-.732-.397-.317zm2.03-2.526l-.585.732.397.318.585-.732-.397-.318zm2.03-2.549l-.585.731.397.318.585-.732-.397-.317zm2.031-2.534l-.584.732.397.318.585-.732-.398-.318zm2.032-2.54l-.584.732.396.318.585-.732-.397-.318zm2.029-2.525l-.584.732.397.318.584-.732-.397-.318zm2.032-2.57l-.584.732.396.318.585-.732-.397-.318zm2.031-2.536l-.585.731.396.318.585-.731-.396-.318zm2.032-2.532l-.585.731.397.318.585-.731-.397-.318zm2.03-2.565l-.585.732.397.318.584-.732-.396-.318zm2.029-2.544l-.585.732.397.318.585-.732-.397-.318zm2.034-2.498l-.585.732.396.318.585-.732-.396-.318zm2.028-2.57l-.584.732.397.318.584-.732-.397-.318zm2.033-2.523l-.584.732.397.318.584-.732-.397-.318zm2.028-2.574l-.584.732.396.318.585-.732-.397-.318zm2.036-2.509l-.585.732.397.318.584-.732-.396-.318zm2.027-2.569l-.585.732.397.318.585-.732-.397-.318zm2.031-2.546l-.585.732.397.318.585-.732-.397-.318zm2.032-2.53l-.585.731.396.319.585-.732-.396-.318zm2.031-2.542l-.585.731.396.319.585-.732-.396-.318zm2.031-2.537l-.585.732.397.318.584-.732-.396-.318zm2.032-2.549l-.584.731.397.318.584-.731-.397-.318zm2.034-2.531l-.585.731.397.318.585-.731-.397-.318zm2.027-2.566l-.585.732.397.318.584-.732-.396-.318zm2.031-2.531l-.584.732.397.318.584-.732-.397-.318zm2.025-2.574l-.585.731.397.318.585-.731-.397-.318zm2.039-2.511l-.585.732.397.318.585-.732-.397-.318zm2.024-2.571l-.585.732.397.318.585-.732-.397-.318zm2.038-2.512l-.585.732.397.317.585-.731-.397-.318zm4.06-5.09l-.584.732.396.318.585-.732-.397-.318zm4.061-5.091l-.585.732.397.318.584-.732-.396-.318zm5.204-4.125l-.59.731.397.321.589-.731-.396-.321zm2.925-6.03l-.584.733.398.317.583-.732-.397-.318zm4.062-5.089l-.585.732.397.318.585-.732-.397-.318zm4.061-5.088l-.585.732.397.318.584-.732-.396-.318zm4.06-5.098l-.585.732.397.318.584-.732-.396-.318zm.672-2.873l-.58.731.396.316.58-.731-.396-.316zm3.382-2.229l-.584.732.396.318.585-.732-.397-.318zm-30.464 38.137l-.584.732.396.318.585-.732-.397-.318zm4.06-5.09l-.584.732.397.317.584-.732-.397-.317zm4.065-5.077l-.585.732.397.318.584-.732-.396-.318zm4.057-5.096l-.585.732.397.318.585-.732-.397-.318zm4.064-5.075l-.584.732.398.318.584-.732-.398-.318zm4.077-5.051l-.585.732.397.318.585-.732-.397-.318zm4.043-5.133l-.584.732.397.318.584-.732-.397-.318zm80.2 136.685l-.171.479 1.198.43.171-.479-1.198-.43zm-2.377-.894l-.172.479 1.197.431.172-.479-1.197-.431zm-2.325-.806l-.171.479 1.198.429.171-.48-1.198-.428zm-2.351-.852l-.172.479 1.198.43.171-.479-1.197-.43zm-2.362-.871l-.172.48 1.198.429.172-.479-1.198-.43zm-2.347-.843l-.172.479 1.198.431.172-.479-1.198-.431zm-2.332-.819l-.172.479 1.198.43.172-.479-1.198-.43zm-2.333-.815l-.171.479 1.197.431.172-.479-1.198-.431zm-2.343-.838l-.172.479 1.198.43.172-.479-1.198-.43zm-2.345-.841l-.171.479 1.198.43.171-.479-1.198-.43zm-2.347-.842l-.171.48 1.198.428.171-.479-1.198-.429zm-2.345-.842l-.172.479 1.199.43.171-.479-1.198-.43zm-2.375-.894l-.171.479 1.198.429.172-.479-1.199-.429z" fill="#2D2D2F"/><path fill-rule="evenodd" clip-rule="evenodd" d="M305.752 209.294l.206-.465-1.161-.522-.206.464 1.161.523zm-2.273-1.034l.207-.464-1.161-.523-.207.465 1.161.522zm-2.272-1.022l.206-.464-1.161-.523-.206.465 1.163.522h-.002zm-2.273-1.022l.207-.466-1.159-.521-.207.463 1.159.524zm-2.272-1.025l.206-.463-1.161-.521-.206.463 1.159.521h.002zm-2.273-1.022l.207-.465-1.161-.521-.207.463 1.159.523h.002zm-2.272-1.022l.206-.463-1.161-.524-.206.464 1.159.523h.002zm-2.273-1.034l.207-.464-1.159-.523-.207.465 1.159.522zm16.509-34.481l.285-.413-1.052-.716-.285.414 1.052.715zm-2.066-1.402l.285-.414-1.052-.714-.285.414 1.052.716v-.002zm-2.066-1.401l.285-.414-1.054-.716-.285.414 1.054.716zm-2.066-1.403l.285-.414-1.051-.715-.285.413 1.051.714v.002zm-2.066-1.4l.285-.414-1.053-.714-.285.414 1.053.716v-.002zm-2.066-1.403l.285-.414-1.051-.716-.287.414 1.053.716zm-2.066-1.401l.288-.414-1.054-.716-.287.414 1.053.716zm-2.065-1.403l.285-.413-1.054-.716-.285.414 1.054.713v.002zm-2.066-1.4l.287-.414-1.054-.716-.285.414 1.052.716z" fill="#2D2D2F"/><path fill-rule="evenodd" clip-rule="evenodd" d="M314.139 292.611c37.961 0 75.922.017 113.882.052l65.309.074v-91.642l-65.309 37.5c-34.781 19.969-73.546 28.965-113.882 33.13v20.886z" fill="#fff"/><path d="M23.987 291.394v-.436c32.07.207 64.136.538 96.205.538 6.309 0 12.619-.013 18.929-.04 16.914-.08 33.83-.113 50.747-.101 18.703 0 37.405.008 56.107.025 60.696 0 121.387-.263 182.031-2.468l64.764-2.363 9.532-.174v.437l-9.528.175-64.757 2.361c-60.655 2.208-121.353 2.468-182.048 2.47-18.703 0-37.406-.008-56.108-.024-16.916 0-33.831.033-50.744.099-6.31.026-12.621.04-18.932.041-32.07 0-64.141-.329-96.208-.54h.01z" fill="#2D2D2F"/><path d="M23.983 287.004l.01-.436c32.464.883 64.925 2.238 97.382 2.238 5.916 0 11.832-.048 17.748-.145 15.726-.267 31.472-.343 47.229-.343 20.97 0 41.96.134 62.937.134 59.844 0 119.615-1.098 178.699-9.55l65.311-9.343.062.432-65.309 9.343c-59.12 8.458-118.912 9.555-178.763 9.555-20.981 0-41.969-.135-62.937-.133-15.757 0-31.501.077-47.222.344-5.923.095-11.841.143-17.755.145-32.47 0-64.932-1.347-97.392-2.231v-.01z" fill="#2D2D2F"/><path d="M23.985 288.427v-.436c32.416.664 64.828 1.68 97.24 1.678 5.962 0 11.926-.037 17.892-.11 15.664-.207 31.34-.261 47.024-.263 21.134 0 42.276.106 63.423.106 59.64 0 119.234-.84 178.432-7.262l65.311-7.086.043.434-65.309 7.088c-59.224 6.414-118.833 7.262-178.477 7.265-21.139 0-42.283-.106-63.423-.104-15.682 0-31.356.058-47.022.261-5.965.074-11.93.111-17.894.109-32.418 0-64.834-1.013-97.248-1.68h.008z" fill="#2D2D2F"/><path d="M23.98 282.946l.018-.437c32.519 1.504 65.028 3.791 97.534 3.791 5.861 0 11.723-.08 17.587-.238 16.542-.472 33.152-.6 49.788-.6 19.143 0 38.322.163 57.487.163 61.295 0 122.423-1.701 181.571-15.987l65.311-15.776.103.424-65.311 15.778c-59.206 14.301-120.373 16-181.674 16-19.167 0-38.349-.164-57.487-.164-16.636 0-33.24.126-49.775.598-5.87.166-11.737.246-17.602.24-32.527 0-65.042-2.276-97.553-3.792h.002z" fill="#2D2D2F"/><path d="M23.98 284.267l.016-.439c32.502 1.303 64.999 3.283 97.493 3.281 5.875 0 11.752-.069 17.63-.207 16.182-.399 32.41-.511 48.662-.513 19.94 0 39.915.168 59.874.168 60.687 0 121.244-1.533 180.316-13.912l65.311-13.686.091.428-65.311 13.695c-59.124 12.387-119.71 13.918-180.405 13.92-19.963 0-39.936-.166-59.874-.166-16.25 0-32.476.11-48.651.509-5.883.138-11.763.207-17.641.207-32.51 0-65.016-1.978-97.51-3.279l-.002-.006z" fill="#2D2D2F"/><path d="M23.975 279.178l.03-.436c32.537 2.081 65.064 5.241 97.589 5.239 5.843 0 11.684-.109 17.525-.327 18.155-.71 36.455-.873 54.817-.873 15.609 0 31.26.115 46.895.115 63.79 0 127.385-1.961 187.113-21.854l65.311-21.751.137.414-65.297 21.753c-59.809 19.92-123.453 21.875-187.252 21.875-15.642 0-31.294-.116-46.895-.116-18.36 0-36.655.166-54.8.875a446.27 446.27 0 0 1-17.541.327c-32.554 0-65.09-3.159-97.62-5.241h-.012z" fill="#2D2D2F"/><path d="M23.975 280.406l.025-.436c32.536 1.893 65.059 4.758 97.58 4.758 5.846 0 11.693-.1 17.539-.3 17.519-.62 35.153-.778 52.835-.778 16.996 0 34.038.139 51.063.139 62.836 0 125.473-1.924 184.938-19.959l65.311-19.807.128.414-65.311 19.808c-59.541 18.056-122.224 19.976-185.066 19.976-17.027 0-34.069-.138-51.063-.138-17.679 0-35.31.155-52.818.778-5.855.207-11.708.307-17.56.302-32.548 0-65.075-2.876-97.605-4.771l.004.014z" fill="#2D2D2F"/><path d="M23.971 275.657l.035-.434c32.55 2.619 65.076 6.594 97.622 6.594 5.829 0 11.659-.138 17.487-.414 21.116-1.035 42.531-1.19 64.043-1.192 9.228 0 18.475.029 27.72.029 67.847 0 135.704-1.547 197.06-27.225l65.313-27.333.168.401-65.324 27.343c-61.46 25.72-129.378 27.257-197.23 27.257-9.247 0-18.494-.027-27.72-.027-21.506 0-42.912.157-64.015 1.192a359.08 359.08 0 0 1-17.511.413c-32.57 0-65.116-3.976-97.656-6.597l.008-.007z" fill="#2D2D2F"/><path d="M23.973 276.806l.031-.436c32.546 2.445 65.075 6.153 97.609 6.153 5.837 0 11.672-.128 17.504-.385 19.87-.91 39.973-1.08 60.159-1.08 11.897 0 23.824.056 35.74.056 66.213 0 132.317-1.81 192.916-25.481l65.309-25.515.159.414-65.305 25.51c-60.689 23.708-126.845 25.523-193.071 25.523-11.927 0-23.853-.058-35.74-.058-20.184 0-40.285.172-60.138 1.082-5.844.265-11.685.393-17.525.385-32.564 0-65.104-3.712-97.64-6.155l-.008-.013z" fill="#2D2D2F"/><path d="M23.967 272.357l.043-.434c32.556 3.126 65.094 7.862 97.636 7.862a301.3 301.3 0 0 0 17.467-.489c96.824-5.646 202.108 9.437 288.811-33.808l65.311-32.57.196.391-65.311 32.57c-86.877 43.317-192.22 28.202-288.978 33.854-5.834.339-11.664.49-17.494.49-32.585 0-65.133-4.744-97.68-7.862l-.001-.004z" fill="#2D2D2F"/><path d="M23.969 273.435l.04-.434c32.553 2.958 65.089 7.448 97.627 7.448 5.825 0 11.651-.145 17.479-.466 96.77-5.348 201.271 9.333 288.811-32.037l65.309-30.861.186.395-65.309 30.863c-87.709 41.437-192.266 26.722-288.976 32.069-5.836.318-11.67.473-17.502.465-32.58 0-65.127-4.494-97.667-7.448l.002.006z" fill="#2D2D2F"/><path d="M23.965 270.265l.045-.436c32.559 3.447 65.094 8.673 97.64 8.673 5.818 0 11.639-.168 17.461-.54 96.927-6.224 203.773 9.49 288.811-37.241l65.166-35.814.091-.133.363.245-.152.223-65.26 35.863c-85.213 46.819-192.127 31.064-288.982 37.298-5.834.37-11.662.54-17.49.542-32.591 0-65.143-5.233-97.687-8.678l-.006-.002zm189.2-109.315l.186-.397 6.356 3.012-.188.395-6.354-3.01zm54.527-44.124l-.31-.056.078-.43.415.074 4.787 3.764h.002l-.272.343-4.7-3.695zm-31.753 28.318l.219-.378 5.689 3.285-.219.377-5.689-3.284zm-12.24 8.931l.2-.389 6.026 3.118-.202.391-6.024-3.12zm-81.095 93.227l.166-.406 4.074 1.687-.166.405-4.074-1.686z" fill="#2D2D2F"/><path d="M146.544 248.789v-13.814l-3.948-2.15.209-.385 4.177 2.274-.002 14.075h-.436zm-63.623 43.967l.004-46.933-3.532-.974.115-.422 3.855 1.063-.004 47.266v.002l-.438-.002z" fill="#2D2D2F"/><path d="M79.357 256.495l.091-.431 3.74.787-.09.428-3.74-.784zm-37.231 36.242v-38.721l-3.132-.579.077-.428 3.493.641v39.087h-.438z" fill="#2D2D2F"/><path d="M38.998 263.015l.06-.435 3.32.466-.058.434-3.322-.465zm53.772-8.56l.1-.424 4.936 1.188-.102.426-4.935-1.19zm-13.413 2.04l.091-.431 3.74.787-.09.428-3.74-.784zm67.187 36.242V248.79h.438v43.947h-.438zm-98.648-31.229l.066-.435 4.97.762-.066.432-4.97-.759z" fill="#2D2D2F"/><path d="M38.998 263.013l.062-.432 3.318.461-.062.435-3.318-.464zm-21.737 3.896l.05-.434 4.464.494-.05.435-4.464-.495zm313.574-156.253h.44v1.437c10.809-3.438 21.395-8.031 32.278-12.473v-6.098h.436v6.391l-.137.056c-11.019 4.496-21.751 9.162-32.734 12.633l-.285.089v-2.035h.002zm17.352 52.456v-1.777h.438v1.777h-.438zM201.844 173.77l.117-.062c44.456-23.46 85.483-61.655 111.984-110.592l.386.207c-26.526 48.981-67.554 87.207-112.049 110.712v1.209c44.224-23.133 85.056-60.685 111.665-108.76l.382.207c-26.718 48.273-67.744 85.947-112.165 109.105l-.32.165v-2.191z" fill="#2D2D2F"/><path d="M201.844 178.944l.12-.06c44.123-22.422 84.967-58.862 111.987-105.528l.376.218c-27.04 46.702-67.895 83.172-112.045 105.641v1.283c43.893-22.082 84.54-57.861 111.669-103.639l.374.224c-27.239 45.966-68.079 81.86-112.165 103.965l-.316.159v-2.263z" fill="#2D2D2F"/><path d="M201.844 184.339l.122-.06c43.784-21.343 84.436-55.965 111.987-100.274l.372.232C286.75 128.58 246.087 163.23 202.28 184.614v1.364c43.549-20.988 84.007-54.929 111.673-98.328l.368.234c-27.784 43.581-68.428 77.63-112.165 98.638l-.314.151v-2.334h.002z" fill="#2D2D2F"/><path d="M201.844 189.965l.128-.058c43.425-20.222 83.875-52.953 111.985-94.814l.362.244c-28.125 41.894-68.588 74.65-112.037 94.907v1.449c43.191-19.846 83.461-51.875 111.677-92.804l.36.249c-28.342 41.097-68.794 73.228-112.165 93.103l-.31.143v-2.419z" fill="#2D2D2F"/><path d="M201.844 195.848l.13-.058c43.059-19.045 83.313-49.81 111.987-89.131l.354.257c-28.7 39.351-68.956 70.138-112.035 89.22v1.545c42.817-18.652 82.881-48.695 111.683-87.054l.349.263c-28.922 38.52-69.163 68.652-112.163 87.325l-.305.132v-2.499z" fill="#2D2D2F"/><path d="M201.844 202.01l.134-.055c42.675-17.818 82.718-46.534 111.992-83.208l.338.271c-29.292 36.701-69.339 65.437-112.026 83.286v1.655c42.429-17.402 82.282-45.368 111.688-81.051l.334.277c-29.525 35.834-69.556 63.883-112.161 81.31l-.301.122v-2.594l.002-.013z" fill="#2D2D2F"/><path d="M201.844 208.481l.14-.054c42.272-16.529 82.1-43.104 111.992-77.019l.324.288c-29.91 33.931-69.738 60.529-112.02 77.085v1.765c42.028-16.094 81.666-41.89 111.698-74.783l.322.296c-30.162 33.027-69.963 58.901-112.159 75.01l-.297.112v-2.7z" fill="#2D2D2F"/><path d="M201.844 215.289l.144-.05c41.855-15.174 81.46-39.517 111.996-70.551l.308.306c-30.55 31.051-70.153 55.398-112.01 70.595v1.891c41.605-14.713 81.02-38.237 111.702-68.214l.304.313c-30.809 30.093-70.387 53.689-112.153 68.414l-.293.103v-2.818l.002.011z" fill="#2D2D2F"/><path d="M201.844 222.478l.149-.049c41.418-13.747 80.792-35.733 111.999-63.751l.292.325c-31.214 28.032-70.59 50.023-112.002 63.802v2.032c41.16-13.26 80.348-34.403 111.712-61.32l.283.333c-31.49 27.023-70.83 48.224-112.148 61.496l-.287.091v-2.948l.002-.011zM23.965 269.25l.05-.436c32.558 3.604 65.093 9.066 97.639 9.064 5.818 0 11.637-.174 17.457-.565 96.985-6.505 204.599 9.445 288.811-38.909l65.308-37.5.219.379-65.31 37.5c-84.39 48.447-192.074 32.453-288.989 38.969-5.83.389-11.658.564-17.485.564-32.596 0-65.146-5.468-97.69-9.066h-.01z" fill="#2D2D2F"/><path d="M358.7 175.127c-43.286-13.796-29.918-85.568-44.809-128.068l.494-.174c14.874 42.771 1.76 114.316 44.472 127.731 22.293 7.076 53.771 35.739 72.796 35.704.607 0 1.204-.029 1.785-.087l.049.522c-.599.06-1.213.089-1.836.089-19.42-.038-50.821-28.759-72.953-35.725l.002.008zM22.42 292.784v-29.512h.435v29.512h-.436zm1.357-.048v-29.509h.436v29.509h-.436zm13.279.001v-32.466h.438v32.466h-.438zm16.501 0v-35.513h.435v35.513h-.435zm23.592 0v-39.593h.438v39.593h-.438zm22.446 0v-43.326h.438v43.326h-.438zm38.747 0V243.4h.438v49.337h-.438z" fill="#2D2D2F"/><path fill-rule="evenodd" clip-rule="evenodd" d="M314.139 189.237c-32.676 21.536-71.579 38.462-112.076 49.107v2.814c40.328-10.093 79.148-26.119 112.076-46.502v-5.419zm0 16.604c-33.451 18.016-72.099 32.191-112.076 41.135v3.006c39.805-8.352 78.359-21.573 112.076-38.371v-5.77zm0 17.692c-34.267 14.291-72.634 25.546-112.076 32.673v3.222c39.252-6.497 77.526-16.738 112.076-29.735v-6.16z" fill="#fff"/><path fill-rule="evenodd" clip-rule="evenodd" d="M3.68 281.919c50.294-4.454 103.778-8.023 155.231-11.303 53.562-3.949 107.159-13.998 155.228-28.137v6.62c-48.548 12.273-101.908 20.996-155.228 24.426-51.493 2.845-104.74 5.944-155.231 9.811v-1.417zm310.459-19.043c-36.043 6.11-73.828 10.932-112.076 14.013v3.786c38.035-2.342 75.715-6 112.076-10.64v-7.159z" fill="#fff"/><path opacity=".5" fill-rule="evenodd" clip-rule="evenodd" d="M265.258 281.117v-30.91a674.715 674.715 0 0 1-24.121 5.52v26.897c8.064-.465 16.104-.967 24.121-1.507z" fill="#FFEF68"/><path fill-rule="evenodd" clip-rule="evenodd" d="M314.139 249.109c29.929-1.215 58.938-5.758 89.596-7.293 30.401-1.473 62.092 7.013 89.595 17.358v-5.1c-27.144-11.915-59.113-21.691-89.595-19.994-30.782 1.771-59.659 7.003-89.596 8.402v6.627zm-112.076-10.764a396.14 396.14 0 0 1-43.152 8.838c-51.148 6.753-106.474 14.102-155.231 23.276v1.175c48.914-8.689 104.052-15.658 155.231-22.057a413.403 413.403 0 0 0 43.152-8.408v-2.824zm0 8.625a456.543 456.543 0 0 1-43.152 7.518C107.677 260.157 52.916 266.329 3.68 274.03v1.241c49.402-7.192 103.955-12.952 155.231-18.246a482.313 482.313 0 0 0 43.152-7.051v-3.004zm0 9.236a554.008 554.008 0 0 1-43.152 6.072c-51.344 4.515-105.484 9.429-155.231 15.563v1.328c49.924-5.586 103.85-10.065 155.231-14.176a601.962 601.962 0 0 0 43.152-5.557v-3.23zm0 20.684a1221.3 1221.3 0 0 1-43.152 2.704c-51.571 1.949-104.348 4.069-155.231 6.716v1.541c51.09-2.013 103.619-3.625 155.231-5.106a1540.088 1540.088 0 0 0 43.152-2.069v-3.786zm0-43.993a367.839 367.839 0 0 1-43.152 9.656c-51.086 7.448-106.778 15.536-155.231 25.64v-1.098c48.307-10.552 104.172-19.018 155.231-26.791a355.854 355.854 0 0 0 43.152-10.049v2.642zm112.076-59.286c-31.938 24.869-71.093 44.398-112.076 56.644v2.642c40.824-11.724 79.898-30.399 112.076-54.177v-5.109zm179.191 96.16c-28.249-7.08-59.363-12.889-89.595-11.882-30.408 1.054-59.688 4.161-89.596 4.993v7.158c29.898-.62 59.318-2.995 89.596-3.796 30.143-.766 60.958 3.652 89.595 9.033v-5.506z" fill="#fff"/><path fill-rule="evenodd" clip-rule="evenodd" d="M314.139 223.532c29.955-1.926 58.465-9.13 89.596-11.569 30.715-2.336 63.476 11.127 89.595 27.536v4.746c-26.443-14.946-58.956-27.209-89.595-25.082-31.009 2.222-59.641 8.785-89.596 10.537v-6.168z" fill="#fff"/><path fill-rule="evenodd" clip-rule="evenodd" d="M314.139 205.841c29.991-2.417 58.153-11.464 89.596-14.526 30.932-2.934 64.434 13.971 89.595 34.576v4.438c-25.473-19.241-58.733-35.019-89.595-32.276-31.338 2.86-59.614 11.307-89.596 13.562v-5.774z" fill="#fff"/><path fill-rule="evenodd" clip-rule="evenodd" d="M314.139 189.237c30.015-2.878 57.845-13.655 89.596-17.3 31.137-3.495 65.333 16.64 89.595 41.172v4.169c-24.555-23.255-58.527-42.335-89.595-39.025-31.646 3.455-59.589 13.668-89.596 16.395v-5.411z" fill="#fff"/><path fill-rule="evenodd" clip-rule="evenodd" d="M314.139 173.611c30.038-3.31 57.568-15.724 89.596-19.913 31.329-4.022 66.18 19.152 89.595 47.397v3.932c-23.692-27.034-58.33-49.215-89.595-45.364-31.935 4.015-59.566 15.887-89.596 19.059v-5.111zm-78.086-28.655l-.021 147.782h-3.136l.019-145.396a301.798 301.798 0 0 0 3.138-2.386zm-12.238 8.921l-.036 138.86h-2.685l.02-137.037c.907-.603 1.807-1.211 2.701-1.823zm-10.547 6.884l-.025 131.977h-2.33l.021-130.552c.781-.47 1.559-.945 2.334-1.425zm54.308-44.299v176.275h-4.441V121.043a274.793 274.793 0 0 0 4.441-4.581z" fill="#fff"/><path fill-rule="evenodd" clip-rule="evenodd" d="M225.281 251.042l-7.86-1.229v-35.3l7.86 2.24v34.289z" fill="#fff"/><path d="M240.926 255.549l.176-.035a674.455 674.455 0 0 0 22.072-5.015l.103.424a674.938 674.938 0 0 1-21.913 4.982v26.483c7.264-.414 14.51-.863 21.737-1.349l.029.437c-7.299.484-14.623.938-21.972 1.363h-.232v-27.31.02zm107.424-92.645c5.097-1.417 10.203-2.911 15.358-4.382l.12.414c-5.153 1.471-10.26 2.965-15.36 4.382l-.118-.414zM314.094 66.38c30.11-6.265 55.551-29.81 89.591-37.802l.099.426c-33.903 7.947-59.326 31.49-89.6 37.802l-.09-.426zm.002 17.526c30.091-5.779 55.876-27.499 89.593-34.873l.091.428c-33.587 7.33-59.353 29.047-89.6 34.875l-.084-.43zm-.002-10.651c30.104-6.072 55.679-28.903 89.593-36.651l.095.424c-33.779 7.702-59.339 30.531-89.6 36.658l-.088-.43zm-.003-20.117c30.127-6.62 55.308-31.554 89.592-40.016l.103.426c-34.141 8.415-59.303 33.335-89.6 40.016l-.095-.426z" fill="#2D2D2F"/><path d="M403.406 292.736V6.274c-28.805 7.426-51.129 26.777-75.638 36.706l-.246-.621c24.493-9.9 46.943-29.427 76.132-36.828l.413-.105v287.31h-.661z" fill="#2D2D2F"/><path d="M410.992 141.822a52.835 52.835 0 0 0-7.231.492c-32.164 4.539-59.497 17.977-89.599 21.577l-.052-.436c30.003-3.58 57.341-17.015 89.589-21.573a52.923 52.923 0 0 1 7.291-.499c29.434 0 60.958 23.346 82.119 51.412v-2.994c-20.866-29.263-52.68-53.646-82.105-53.634a50.588 50.588 0 0 0-7.243.509c-32.25 4.707-59.497 18.648-89.599 22.384l-.054-.436c30.009-3.724 57.252-17.655 89.591-22.382a50.731 50.731 0 0 1 7.305-.513c29.697 0 61.58 24.519 82.501 53.875l.039.056v3.791l-.392.13c-21.105-28.235-52.781-51.768-82.162-51.759h.002z" fill="#2D2D2F"/><path d="M411.037 125.15a47.699 47.699 0 0 0-7.27.546c-32.419 5.04-59.474 19.96-89.599 23.959l-.058-.435c30.017-3.976 57.076-18.895 89.589-23.956a47.954 47.954 0 0 1 7.338-.552c29.648.012 61.605 25.905 82.072 57.051v-2.729c-20.163-32.329-52.426-59.261-82.055-59.249a46.791 46.791 0 0 0-7.287.561c-32.5 5.201-59.464 20.599-89.599 24.724l-.06-.434c30.024-4.103 56.994-19.5 89.591-24.72a46.806 46.806 0 0 1 7.355-.569c29.914.012 62.241 27.084 82.462 59.509l.033.054v3.588l-.403.12c-20.393-31.351-52.527-57.48-82.109-57.468z" fill="#2D2D2F"/><path d="M411.081 109.314a44.227 44.227 0 0 0-7.312.596c-32.661 5.516-59.449 21.84-89.599 26.218l-.062-.435c30.032-4.344 56.826-20.675 89.589-26.213 2.44-.407 4.91-.609 7.384-.604 29.85.014 62.22 28.332 82.03 62.399v-2.482c-19.502-35.241-52.195-64.602-82.016-64.585a43.16 43.16 0 0 0-7.328.621c-32.736 5.656-59.437 22.44-89.597 26.942l-.064-.435c30.038-4.469 56.748-21.248 89.589-26.942a43.933 43.933 0 0 1 7.402-.621c30.123.015 62.865 29.525 82.429 64.862l.027.048v3.412l-.413.109c-19.713-34.309-52.286-62.896-82.059-62.896v.006z" fill="#2D2D2F"/><path d="M411.124 94.242a41.42 41.42 0 0 0-7.353.646c-32.888 5.963-59.425 23.632-89.599 28.367l-.068-.432c30.048-4.705 56.588-22.374 89.589-28.367a42.14 42.14 0 0 1 7.437-.652c30.04.016 62.803 30.637 81.987 67.487v-2.247c-18.872-38.019-51.98-69.687-81.979-69.668a40.589 40.589 0 0 0-7.365.66c-32.965 6.11-59.418 24.207-89.599 29.063l-.07-.433c30.052-4.82 56.514-22.92 89.589-29.062a41.312 41.312 0 0 1 7.437-.666c30.321.016 63.464 31.843 82.388 69.957l.02.044v3.246l-.413.099c-19.068-37.127-52.06-68.068-82.016-68.048l.015.006z" fill="#2D2D2F"/><path d="M411.155 79.859a39.052 39.052 0 0 0-7.388.693c-33.112 6.395-59.406 25.343-89.599 30.414l-.074-.431c30.06-5.044 56.365-24 89.589-30.413 2.463-.468 4.965-.7 7.472-.696 30.224.021 63.35 32.841 81.947 72.339v-2.023c-18.264-40.663-51.765-74.547-81.933-74.526a38.73 38.73 0 0 0-7.402.706c-33.182 6.535-59.398 25.895-89.599 31.088l-.074-.433c30.064-5.153 56.289-24.513 89.589-31.084a38.96 38.96 0 0 1 7.486-.716c30.509.023 64.043 34.062 82.353 74.826l.016.042v3.103l-.413.091c-18.45-39.819-51.835-72.999-81.97-72.98z" fill="#2D2D2F"/><path d="M411.202 66.112a37.182 37.182 0 0 0-7.424.735c-33.323 6.807-59.386 26.977-89.602 32.385l-.076-.432c30.075-5.369 56.146-25.537 89.589-32.381 2.473-.5 4.99-.75 7.513-.745 30.396.023 63.876 34.934 81.909 76.965v-1.808c-11.923-29.129-31.216-55.005-51.825-68.741l.242-.364c20.72 13.814 40.043 39.761 52.004 68.975l.015.037v2.973l-.414.085c-17.869-42.387-51.634-77.708-81.926-77.683h-.005zM314.098 95c30.079-5.474 56.08-26.04 89.591-33.02l.087.43c-33.387 6.94-59.376 27.505-89.598 33.018l-.08-.43V95zm0-7.448c30.087-5.68 55.942-27.02 89.591-34.264l.089.428c-33.528 7.202-59.351 28.542-89.6 34.264l-.08-.428zm-.002-10.794c30.097-5.975 55.741-28.44 89.591-36.066l.095.429c-33.718 7.578-59.345 30.041-89.602 36.068l-.084-.43zm-.002-13.747c30.114-6.356 55.489-30.252 89.589-38.364l.101.426c-33.963 8.069-59.322 31.955-89.602 38.367l-.088-.429zm-.003-6.619c30.125-6.538 55.366-31.123 89.592-39.47l.103.425c-34.087 8.292-59.31 32.876-89.6 39.476l-.095-.43zM3.46 270.273l.179-.031c48.765-9.176 104.095-16.527 155.238-23.278a395.69 395.69 0 0 0 43.13-8.834l.275-.07v3.266l-.166.042a413.316 413.316 0 0 1-43.177 8.414c-51.18 6.4-106.316 13.368-155.222 22.058l-.256.043v-1.61zm.439 1.089c48.856-8.676 103.891-15.625 154.98-22.016a413.12 413.12 0 0 0 42.971-8.361v-2.359a396.523 396.523 0 0 1-42.906 8.771c-51.086 6.745-106.338 14.085-155.041 23.243v.722h-.004zm-.436 2.478l.182-.027c49.244-7.704 103.999-13.876 155.237-19.545a455.703 455.703 0 0 0 43.133-7.513l.265-.062v3.458l-.172.037c-14.283 3-28.732 5.379-43.177 7.057-51.275 5.29-105.825 11.055-155.22 18.242l-.248.037v-1.684zm.436 1.177c49.342-7.175 103.8-12.924 154.985-18.206a482.8 482.8 0 0 0 42.96-7.012v-2.559a455.884 455.884 0 0 1-42.911 7.462c-51.176 5.663-105.853 11.827-155.034 19.515v.8zm-.436 2.629l.19-.025c49.753-6.132 103.894-11.046 155.235-15.563a555.415 555.415 0 0 0 43.138-6.068l.256-.048v3.675l-.184.033a603.208 603.208 0 0 1-43.177 5.559c-51.379 4.113-105.302 8.588-155.222 14.175l-.242.027v-1.765h.006zm.438 1.276c49.86-5.573 103.707-10.044 154.989-14.149a600.847 600.847 0 0 0 42.954-5.526v-2.781a553.65 553.65 0 0 1-42.915 6.029c-51.279 4.508-105.341 9.414-155.028 15.538v.889zm-.438 7.176l.207-.01c50.885-2.646 103.662-4.758 155.232-6.716 14.402-.64 28.784-1.541 43.146-2.704l.236-.021v4.229l-.207.015a1600.874 1600.874 0 0 1-43.162 2.069c-51.61 1.481-104.14 3.103-155.227 5.106h-.225v-1.978.01zm.436 1.523c51.027-2.009 103.468-3.618 155.003-5.098a1547.349 1547.349 0 0 0 42.942-2.056v-3.344a1222.645 1222.645 0 0 1-42.927 2.69c-51.499 1.947-104.203 4.063-155.018 6.708v1.104-.004zm-.439-20.706l.174-.037c48.315-10.552 104.187-19.02 155.239-26.793a356.05 356.05 0 0 0 43.128-10.039l.281-.087v3.103l-.157.046a367.862 367.862 0 0 1-43.177 9.662c-51.086 7.448-106.776 15.536-155.219 25.641l-.262.053v-1.545l-.006-.004zm.439 1.007c48.397-10.082 103.988-18.165 154.976-25.589a367.73 367.73 0 0 0 42.971-9.604v-2.182a356.507 356.507 0 0 1-42.905 9.972c-50.996 7.763-106.787 16.217-155.042 26.75v.653z" fill="#2D2D2F"/><path d="M201.844 276.685l.206-.016c38.242-3.081 76.025-7.904 112.056-14.011l.256-.044v7.61l-.19.025c-36.36 4.638-74.052 8.3-112.091 10.642l-.231.015v-4.221h-.006zm.438 3.757c37.882-2.34 75.404-5.987 111.636-10.601v-6.707c-35.909 6.076-73.546 10.88-111.636 13.955v3.353zm-.438-24.421l.181-.031c39.424-7.127 77.779-18.379 112.029-32.661l.302-.128v6.65l-.141.054c-34.564 13.003-72.851 23.246-112.117 29.743l-.254.041v-3.668zm.438 3.153c39.096-6.484 77.214-16.686 111.638-29.625v-5.69c-34.155 14.214-72.362 25.417-111.638 32.528v2.787zm-.438-12.382l.171-.037c39.963-8.942 78.589-23.108 112.019-41.114l.322-.176v6.275l-.12.06c-33.736 16.806-72.306 30.031-112.128 38.39l-.264.053v-3.451zm.438 2.913c39.646-8.344 78.043-21.517 111.638-38.238v-5.268c-33.347 17.918-71.827 32.022-111.638 40.945v2.561zm-.438-11.531l.165-.044c40.473-10.638 79.357-27.556 112.01-49.075l.337-.226v5.948l-.103.064c-32.949 20.398-71.79 36.431-112.137 46.527l-.272.069v-3.263zm.436 2.689c40.169-10.077 78.83-26.046 111.64-46.344v-4.879c-32.583 21.418-71.32 38.253-111.64 48.873v2.361-.011z" fill="#2D2D2F"/><path d="M201.844 230.09l.157-.048c40.958-12.238 80.09-31.756 112.002-56.609l.355-.275v5.667l-.091.068c-32.203 23.793-71.296 42.48-112.144 54.207l-.279.081v-3.104.013zm.438 2.511c40.66-11.71 79.571-30.32 111.638-53.999v-4.552c-31.856 24.726-70.839 44.147-111.638 56.36v2.191zm291.006 42.885c-26.443-4.966-54.746-9.118-82.645-9.118-2.303 0-4.605.029-6.905.089-30.269.798-59.689 3.163-89.595 3.794h-.223v-7.591h.207c29.899-.828 59.179-3.931 89.595-4.992 2.309-.079 4.624-.118 6.943-.116 28.057 0 56.605 5.462 82.712 12l-.052.207.052-.207.165.039v5.942l-.258-.047h.004zm-.177-.48v-5.071c-26.031-6.522-54.503-11.949-82.442-11.949-2.316 0-4.626.039-6.929.116-30.325 1.049-59.54 4.138-89.384 4.986v6.72c29.813-.637 59.163-2.991 89.372-3.79 2.301-.058 4.606-.088 6.915-.089 27.854 0 56.08 4.123 82.468 9.077zm.111-30.574c-24.412-13.794-53.985-25.293-82.447-25.293-2.351 0-4.696.074-7.024.242-30.988 2.218-59.617 8.783-89.6 10.537l-.229.013v-6.605l.207-.014c29.941-1.922 58.45-9.126 89.593-11.568a92.199 92.199 0 0 1 7.08-.266c28.674 0 58.499 12.66 82.65 27.833l.101.064v5.241l-.325-.184h-.006zm-.111-.565v-4.25c-24.086-15.117-53.808-27.705-82.315-27.703-2.36 0-4.709.088-7.047.265-31.026 2.431-59.475 9.608-89.393 11.557v5.731c29.85-1.771 58.411-8.305 89.362-10.525 2.341-.162 4.694-.243 7.057-.242 28.453 0 57.944 11.433 82.336 25.167z" fill="#2D2D2F"/><path d="M493.197 230.497c-23.505-17.753-53.649-32.553-82.362-32.548-2.374 0-4.737.097-7.082.31-31.311 2.855-59.584 11.303-89.6 13.564l-.233.017v-6.207l.207-.017c29.955-2.414 58.121-11.458 89.591-14.524a74.12 74.12 0 0 1 7.141-.335c28.956 0 59.347 15.906 82.615 34.965l.081.064v4.987l-.351-.267-.007-.009zm-.089-.62v-3.892c-23.201-18.987-53.493-34.8-82.255-34.796-2.38 0-4.746.111-7.1.331-31.342 3.052-59.448 12.064-89.397 14.512v5.33c29.864-2.276 58.074-10.689 89.356-13.544a81.51 81.51 0 0 1 7.123-.312c28.715 0 58.768 14.702 82.273 32.371z" fill="#2D2D2F"/><path d="M493.171 217.445c-22.655-21.46-53.339-39.346-82.289-39.342a65.883 65.883 0 0 0-7.133.375c-31.608 3.449-59.555 13.655-89.6 16.396l-.237.019v-5.857l.206-.019c29.976-2.872 57.814-13.655 89.592-17.3a64.606 64.606 0 0 1 7.199-.398c29.218 0 60.138 18.948 82.578 41.642l.062.062v4.759l-.368-.348-.01.011zm-.069-.669v-3.571c-22.379-22.617-53.204-41.453-82.203-41.447a63.932 63.932 0 0 0-7.148.395c-31.641 3.633-59.423 14.369-89.403 17.28v4.982c29.881-2.754 57.76-12.921 89.353-16.374a68.641 68.641 0 0 1 7.181-.378c28.974 0 59.547 17.766 82.223 39.103l-.003.01z" fill="#2D2D2F"/><path d="M410.948 159.439a58.803 58.803 0 0 0-7.179.434c-31.897 4.01-59.526 15.881-89.599 19.061l-.242.025v-5.547l.194-.022c29.993-3.311 57.525-15.708 89.592-19.912a56.014 56.014 0 0 1 7.253-.459c29.466 0 60.882 21.815 82.538 47.933l.05.06v4.01l-.382.145c-21.855-24.944-53.05-45.737-82.223-45.724l-.002-.004zm82.39 45.583l.163-.145-.163.145zm-.219-.581v-3.269c-21.599-26.034-52.93-47.723-82.152-47.715a56.438 56.438 0 0 0-7.198.451c-31.918 4.182-59.396 16.552-89.405 19.895v4.67c29.896-3.203 57.463-15.021 89.352-19.034a58.832 58.832 0 0 1 7.23-.439c29.214 0 60.272 20.634 82.171 45.441h.002zm-509.933 88.296v-13.362l.207-.012a508.815 508.815 0 0 0 20.26-1.773l.046.434a514.399 514.399 0 0 1-20.075 1.761v12.952h-.438zm510.067-33.36c-25.394-9.552-54.349-17.514-82.54-17.512-2.33 0-4.653.056-6.968.168-30.644 1.535-59.653 6.076-89.598 7.293l-.018-.439c29.912-1.212 58.921-5.753 89.593-7.293a146.38 146.38 0 0 1 6.991-.167c28.162 0 57.045 7.916 82.396 17.429v-4.639c-25.027-10.965-54.143-20.112-82.375-20.112-2.342 0-4.671.064-6.989.192-30.761 1.769-59.64 7.004-89.596 8.402l-.02-.436c29.916-1.399 58.797-6.621 89.591-8.402 2.33-.132 4.668-.196 7.014-.195 28.379 0 57.592 9.197 82.682 20.208l.133.055v5.562l-.296-.114z" fill="#2D2D2F"/><path d="M202.03 265.92c38.851-5.173 76.923-13.322 112.043-23.65l.124.413c-35.143 10.345-73.234 18.484-112.109 23.665l-.058-.432v.004zm.006 3.484a871.761 871.761 0 0 0 112.049-20.509l.108.424a872.31 872.31 0 0 1-112.106 20.522l-.051-.439v.002z" fill="#2D2D2F"/><path d="M262.913 292.955V120.952l.064-.064a266.769 266.769 0 0 0 4.446-4.576l.376.148v176.495h-4.886zm.438-.44h4.018V117.009a284.328 284.328 0 0 1-4.012 4.123v171.383h-.006z" fill="#2D2D2F"/><path d="M265.124 139.687l.246-.362 22.768 15.389-.246.362-22.768-15.389zm.039 51.32l.178-.4 22.693 10.204-.181.4-22.69-10.204z" fill="#2D2D2F"/><path fill-rule="evenodd" clip-rule="evenodd" d="M37.275 267.56v21.022c-5.064.122-10.122.246-15.174.375V269.85a1891.1 1891.1 0 0 1 15.174-2.29zm40.095.211v12.759c-7.88.414-15.746.84-23.595 1.28v-11.441c7.825-.888 15.69-1.754 23.595-2.598zm61.194 1.474v17.135c-12.9.255-25.816.519-38.75.791v-15.017a9228.6 9228.6 0 0 1 38.75-2.909z" fill="#E6E7E8"/><path fill-rule="evenodd" clip-rule="evenodd" d="M142.701 247.1v-14.464c-16.361 2.998-33.143 6.101-49.878 9.366v12.252c16.713-2.495 33.446-4.862 49.878-7.154zm-63.238 9.161v-11.623a1736.215 1736.215 0 0 0-31.526 6.598v10.053a2423.18 2423.18 0 0 1 31.526-5.028zM39.035 262.8v-9.581a998.874 998.874 0 0 0-21.743 5.172v8.309a1421.529 1421.529 0 0 1 21.743-3.9zM314.139 50.15v242.586h-6.77V62.875a269.144 269.144 0 0 0 6.78-12.73l-.01.006zm-13.761 92.015v-41.253a269.152 269.152 0 0 1-23.805 27.724v34.715a275.184 275.184 0 0 0 23.805-21.186z" fill="#fff"/><path fill-rule="evenodd" clip-rule="evenodd" d="M300.378 193.013v-39.186a282.522 282.522 0 0 1-23.805 19.395v33.331a348.832 348.832 0 0 0 23.805-13.54z" fill="#E6E7E8"/><path fill-rule="evenodd" clip-rule="evenodd" d="M362.09 141.6v15.827c-5.41 1.552-10.773 3.116-16.138 4.579V146.72c5.36-1.63 10.724-3.38 16.138-5.12z" fill="#fff"/><path d="M313.811 292.736V46.714l.254-.056a87.468 87.468 0 0 0 13.457-4.289l.246.608a88.055 88.055 0 0 1-13.301 4.263v245.496h-.656zm17.024.064v-15.77h.438v15.77h-.438zM3.66 281.698c50.304-4.454 103.783-8.021 155.234-11.307a736.871 736.871 0 0 0 43.14-4.475l.058.432a734.674 734.674 0 0 1-43.177 4.48c-51.445 3.287-104.927 6.852-155.214 11.307l-.042-.439v.002zm.003 1.428c50.486-3.866 103.743-6.966 155.233-9.811a841.568 841.568 0 0 0 43.142-3.908l.049.435a841.705 841.705 0 0 1-43.177 3.91c-51.479 2.847-104.74 5.95-155.214 9.811l-.033-.439v.002z" fill="#2D2D2F"/><path d="M307.107 292.999l-.013-230.188.035-.062a267.869 267.869 0 0 0 6.774-12.716l.038-.079.08-.039.116.236.233.118a265.288 265.288 0 0 1-6.751 12.678l.01 229.527h6.508v.523l-7.03.002zm38.626-146.432l.154-.047c5.359-1.639 10.722-3.391 16.135-5.127l.287-.093v16.299l-.159.046c-5.41 1.553-10.773 3.115-16.141 4.58l-.276.075v-15.733zm.438 15.162c5.216-1.43 10.434-2.946 15.7-4.459v-15.36c-5.266 1.693-10.484 3.395-15.7 4.99v14.839-.01zm-69.918-33.226l.097-.095a269.06 269.06 0 0 0 23.764-27.691l.591.207v41.379l-.098.097a275.197 275.197 0 0 1-23.829 21.215l-.536.414v-35.526h.011zm.657 34.169a274.276 274.276 0 0 0 23.15-20.644V101.89a269.192 269.192 0 0 1-23.15 26.876v33.906zm-.657 10.38l.134-.1a281.28 281.28 0 0 0 23.776-19.371l.548-.501v40.113l-.151.095a341.102 341.102 0 0 1-23.828 13.552l-.479.242v-34.034.004zm.657 32.956a342.842 342.842 0 0 0 23.138-13.179v-38.263a283.063 283.063 0 0 1-23.138 18.827v32.624-.009zM99.597 271.95l.206-.015a9053.192 9053.192 0 0 1 38.748-2.909l.238-.016v17.586h-.207c-12.899.255-25.816.519-38.75.79h-.22v-15.445l-.015.009zm.436 14.994c12.779-.269 25.55-.53 38.312-.783v-16.686c-12.71.931-25.51 1.887-38.312 2.876v14.593zm-7.437-45.125l.177-.035c16.734-3.257 33.519-6.36 49.881-9.366l.258-.048v14.917l-.188.027c-16.424 2.293-33.17 4.66-49.878 7.146l-.25.038v-12.679zm.438 12.172c16.562-2.464 33.159-4.813 49.44-7.084v-14.011c-16.221 2.981-32.847 6.058-49.44 9.285v11.81zm-45.316-2.933l.172-.035a1761.39 1761.39 0 0 1 31.53-6.6l.262-.054v12.079l-.186.031a2351.154 2351.154 0 0 0-31.526 5.029l-.254.042v-10.492h.002zm.436 9.975a2546.978 2546.978 0 0 1 31.088-4.966v-11.172a1736.087 1736.087 0 0 0-31.086 6.504v9.621l-.002.013zm-31.083-2.821l.167-.039a1135.1 1135.1 0 0 1 21.748-5.172l.266-.063v10.039l-.181.031a1536.242 1536.242 0 0 0-21.742 3.894l-.26.045v-8.743l.002.008zm.436 8.22c7-1.307 14.102-2.58 21.31-3.817v-9.118a1116.48 1116.48 0 0 0-21.308 5.059v7.876h-.002zm4.375 3.23l.184-.029c5.016-.778 10.076-1.542 15.178-2.292l.25-.037v21.49h-.206c-5.066.124-10.124.25-15.174.377h-.225v-19.519l-.007.01zm.438 19.07c4.908-.124 9.82-.246 14.736-.364v-20.555c-4.958.728-9.87 1.469-14.736 2.224v18.695zm31.23-18.547l.195-.02a3331.95 3331.95 0 0 1 23.594-2.601l.244-.027v13.2h-.207c-7.882.414-15.746.84-23.592 1.279l-.231.012v-11.843h-.003zm.438 11.405a9112.7 9112.7 0 0 1 23.163-1.267v-12.31a3464.36 3464.36 0 0 0-23.156 2.553v11.013l-.007.011zm156.708 11.367l.023-130.895.105-.062c.777-.469 1.553-.945 2.328-1.428l.335-.207-.021 132.592h-2.77zm.438-.439h1.903l.018-131.367c-.629.389-1.26.776-1.892 1.159l-.023 130.208h-.006zm9.753.438l.021-137.379.097-.064a294.05 294.05 0 0 0 2.685-1.823l.343-.234-.029 139.496-3.117.004zm.438-.439h2.248l.029-138.225c-.748.513-1.498 1.021-2.25 1.523l-.021 136.702h-.006zm11.35.44l.021-145.725.089-.067c1.049-.786 2.094-1.58 3.134-2.383l.353-.273-.021 148.448h-3.576zm.438-.439h2.702l.019-147.118c-.897.69-1.797 1.373-2.7 2.049l-.021 145.069z" fill="#2D2D2F"/><path fill-rule="evenodd" clip-rule="evenodd" d="M191.806 254.954a523.426 523.426 0 0 0 25.617-5.14v-35.302a331.037 331.037 0 0 1-25.617 9.014v31.428zm73.452-64.145v-51.31a279.278 279.278 0 0 1-24.125 19.568v44.897a323.137 323.137 0 0 0 24.125-13.155zM362.09.9v97.74c-11.569 4.787-22.82 9.667-34.413 13.034V25.675C339.312 19.28 350.48 9.98 362.09.9zm0 209.907v65.24c-11.478.402-22.931.805-34.413 1.086v-60.947c11.523-1.388 22.908-3.401 34.413-5.379z" fill="#fff"/><path d="M240.806 158.899l.137-.1a279.14 279.14 0 0 0 24.094-19.537l.547-.498v52.233l-.161.095a323.926 323.926 0 0 1-24.144 13.173l-.473.232v-45.598zm.657 44.545a322.904 322.904 0 0 0 23.465-12.828v-50.361a278.966 278.966 0 0 1-23.465 18.987v44.21-.008zM3.461 292.737v-18.763h.438v18.763h-.438zM327.239 25.415l.227-.124c11.59-6.364 22.745-15.65 34.354-24.737l.708-.554v98.931l-.27.112c-11.569 4.786-22.83 9.675-34.459 13.051l-.56.162v-86.84zm.868 85.668c11.269-3.323 22.247-8.069 33.537-12.743V1.798c-11.278 8.843-22.171 17.847-33.537 24.136v85.149z" fill="#2D2D2F"/><path opacity=".5" d="M327.239 25.415l.227-.124c11.59-6.364 22.745-15.65 34.354-24.737l.708-.554v98.931l-.27.112c-11.569 4.786-22.83 9.675-34.459 13.051l-.56.162v-86.84z" fill="#FFEF68"/><path d="M327.348 215.9l.289-.035c11.512-1.392 22.89-3.403 34.397-5.394l.385-.066v65.946l-.316.013c-11.48.401-22.932.807-34.418 1.088h-.337V215.9zm.657 60.886c11.261-.277 22.496-.675 33.757-1.068v-64.531c-11.278 1.949-22.45 3.919-33.757 5.297v60.302zm-128.107-20.787v-30.555h.438v30.555h-.438zm25.164-4.957v-34.291h.438v34.291h-.438z" fill="#2D2D2F"/><path d="M217.361 214.723l.119-.422 7.861 2.24-.12.423-7.86-2.241zm.024 35.305l.069-.432 7.86 1.231-.066.43-7.863-1.229zm-25.633-26.29l.099-.426 8.309 1.915-.095.429-8.313-1.918z" fill="#2D2D2F"/><path d="M200.051 225.234c8.47-2.665 16.892-5.38 25.15-8.69l.163.414c-8.276 3.31-16.707 6.029-25.181 8.689l-.132-.413zm-8.274 29.937l.053-.434 8.287 1.047a567.334 567.334 0 0 0 24.846-4.881l.108-.221.392.194-.207.414-.101.023a574.237 574.237 0 0 1-24.997 4.913h-.029l-8.358-1.053.006-.002z" fill="#2D2D2F"/><path d="M191.477 223.28l.233-.071a330.797 330.797 0 0 0 25.591-9.002l.448-.18v36.046l-.256.06a532.175 532.175 0 0 1-25.632 5.143l-.055-.323.055.323-.386.068v-32.068l.002.004zm.655 31.282a521.982 521.982 0 0 0 24.962-5.013v-34.551a331.716 331.716 0 0 1-24.962 8.772v30.797-.005zm120.27 36.886h-.509v1.275h.509v-1.275zm0-2.495h-.509v1.275h.509v-1.275zm0-2.496h-.509v1.275h.509v-1.275zm0-2.494h-.509v1.274h.509v-1.274zm0-2.496h-.509v1.274h.509v-1.274zm0-2.495h-.509v1.274h.509v-1.274zm0-2.494h-.509v1.274h.509v-1.274zm0-2.497h-.509v1.275h.509v-1.275zm0-2.495h-.509v1.275h.509v-1.275zm0-2.494h-.509v1.275h.509v-1.275zm0-2.493h-.509v1.272h.509v-1.272zm0-2.496h-.509v1.274h.509v-1.274zm0-2.494h-.509v1.274h.509v-1.274zm0-2.496h-.509v1.274h.509v-1.274zm0-2.495h-.509v1.274h.509v-1.274zm0-2.495h-.509v1.275h.509v-1.275zm0-2.496h-.509v1.275h.509v-1.275zm0-2.495h-.509v1.275h.509v-1.275zm0-2.493h-.509v1.275h.509v-1.275zm0-2.495h-.509v1.274h.509v-1.274zm0-2.495h-.509v1.274h.509v-1.274zm0-2.495h-.509v1.274h.509v-1.274zm0-2.495h-.509v1.274h.509v-1.274zm0-2.496h-.509v1.275h.509v-1.275zm0-2.495h-.509v1.275h.509v-1.275zm0-2.494h-.509v1.275h.509v-1.275zm0-2.494h-.509v1.275h.509v-1.275zm0-2.495h-.509v1.274h.509v-1.274zm0-2.496h-.509v1.274h.509v-1.274zm0-2.494h-.509v1.274h.509v-1.274zm0-2.495h-.509v1.274h.509V216.6zm0-2.496h-.509v1.272h.509v-1.272zm0-2.495h-.509v1.275h.509v-1.275zm0-2.496h-.509v1.275h.509v-1.275zm0-2.493h-.509v1.275h.509v-1.275zm0-2.494h-.509v1.274h.509v-1.274zm0-2.495h-.509v1.274h.509v-1.274zm0-2.496h-.509v1.274h.509v-1.274zm0-2.495h-.509v1.274h.509v-1.274zm0-2.494h-.509v1.274h.509v-1.274zm0-2.497h-.509v1.275h.509v-1.275zm0-2.493h-.509v1.275h.509v-1.275zm0-2.497h-.509v1.275h.509v-1.275zm0-2.493h-.509v1.274h.509v-1.274zm0-2.495h-.509v1.274h.509v-1.274zm0-2.495h-.509v1.274h.509v-1.274zm0-2.495h-.509v1.274h.509v-1.274zm0-2.495h-.509v1.274h.509v-1.274zm0-2.497h-.509v1.275h.509v-1.275zm0-2.494h-.509v1.275h.509v-1.275zm0-2.493h-.509v1.275h.509v-1.275zm0-2.495h-.509v1.275h.509v-1.275zm0-2.495h-.509v1.272h.509v-1.272zm0-2.495h-.509v1.274h.509v-1.274zm0-2.496h-.509v1.274h.509v-1.274zm0-2.494h-.509v1.274h.509v-1.274zm0-2.496h-.509v1.275h.509v-1.275zm0-2.496h-.509v1.275h.509v-1.275zm0-2.494h-.509v1.275h.509v-1.275zm0-2.495h-.509v1.275h.509v-1.275zm0-2.496h-.509v1.274h.509v-1.274zm0-2.493h-.509v1.274h.509v-1.274zm0-2.494h-.509v1.272h.509v-1.272zm0-2.496h-.509v1.274h.509v-1.274zm0-2.496h-.509v1.275h.509v-1.275zm0-2.494h-.509v1.275h.509v-1.275zm0-2.496h-.509v1.275h.509v-1.275zm0-2.495h-.509v1.275h.509v-1.275zm0-2.493h-.509v1.274h.509v-1.274zm0-2.494h-.509v1.274h.509v-1.274zm0-2.496h-.509v1.274h.509v-1.274zm0-2.494h-.509v1.274h.509v-1.274zm0-2.497h-.509v1.275h.509v-1.275zm0-2.495h-.509v1.275h.509v-1.275zm0-2.494h-.509v1.275h.509v-1.275zm0-2.496h-.509v1.275h.509v-1.275zm0-2.493h-.509v1.274h.509v-1.274zm0-2.495h-.509v1.274h.509v-1.274zm0-2.495h-.509v1.274h.509v-1.274zm0-2.495h-.509v1.274h.509V94.35zm0-2.496h-.509v1.275h.509v-1.275zm0-2.496h-.509v1.275h.509v-1.275zm0-2.494h-.509v1.275h.509v-1.275zm0-2.495h-.509v1.275h.509v-1.275zm0-2.494h-.509v1.275h.509v-1.275zm0-2.494h-.509v1.274h.509V79.38zm0-2.495h-.509v1.274h.509v-1.274zm0-2.496h-.509v1.274h.509V74.39zm0-2.495h-.509v1.274h.509v-1.274zm0-2.494h-.509v1.274h.509v-1.275zm0-2.497h-.509v1.275h.509v-1.275zm0-2.495h-.509v1.275h.509v-1.275zm0-2.495h-.509v1.275h.509v-1.275zm0-2.493h-.509v1.274h.509V59.42zm0-2.495h-.509v1.274h.509v-1.274zm0-2.495h-.509v1.275h.509v-1.274z" fill="#2D2D2F"/></svg>