<svg width="889" height="590" viewBox="0 0 889 590" fill="none" xmlns="http://www.w3.org/2000/svg"><path fill-rule="evenodd" clip-rule="evenodd" d="M690.613 522.55v53.427c.792-.029 1.584-.063 2.38-.109 11.408.223 22.828.446 34.259.671v-50.465a18697.208 18697.208 0 0 0-34.259-3.283c-.78-.087-1.58-.162-2.38-.241z" fill="#BCBEC0"/><path fill-rule="evenodd" clip-rule="evenodd" d="M825.287 544.535v34.009c20.434.433 40.851.881 61.251 1.345v-29.863a10011.642 10011.642 0 0 0-61.251-5.491z" fill="#939598"/><path d="M606.024 543.368l-.129-.875c-17.288 2.583-34.584 7.174-51.868 11.665l.221.834c17.284-4.471 34.555-9.053 51.776-11.624zm-205.683 5.245l-20.342-4.287-.179.863 20.342 4.287.179-.863zm205.691-12.269l-.15-.866c-22.967 3.987-45.975 12.081-68.922 18.506l.238.833c22.984-6.433 45.963-14.515 68.834-18.485v.012zm-156.923 15.385l-69.085-18.293-.225.849 69.081 18.298.229-.854zm156.944-28.892l-.191-.858c-32.017 7.082-64.168 24.163-96.035 31.616l.204.834c32.021-7.499 64.168-24.581 96.022-31.613v.021zm-142.54 29.501a78.775 78.775 0 0 1-4.388-1.133l-79.093-23.022-.246.833 79.089 23.018c1.484.417 2.963.812 4.442 1.15l.196-.858v.012zm142.545-36.005l-.205-.833c-36.984 8.999-74.168 32.684-110.835 37.804l.121.875c36.934-5.183 74.168-28.897 110.935-37.825l-.016-.021zm.02-12.544l-.241-.833c-41.635 11.957-83.698 45.732-124.686 45.703a67.536 67.536 0 0 1-22.005-3.579l-79.076-27.051-.288.834 79.093 27.038a68.586 68.586 0 0 0 22.293 3.625c41.454-.03 83.526-33.901 124.927-45.737h-.017z" fill="#2D2D2F"/><path d="M606.087 497.732l-.263-.834c-41.667 12.836-83.793 49.065-124.74 49.032a63.264 63.264 0 0 1-21.929-3.82l-79.085-28.989-.304.834 79.093 28.98a64.046 64.046 0 0 0 22.234 3.874c41.442-.025 83.593-36.358 125.002-49.069l-.008-.008z" fill="#2D2D2F"/><path d="M606.099 486.021l-.287-.833c-41.668 14.544-84.002 55.509-124.857 55.468a56.49 56.49 0 0 1-21.788-4.283L380.07 503.61l-.333.813 79.084 32.762a57.339 57.339 0 0 0 22.122 4.354c41.409-.042 83.714-41.12 125.144-55.518h.012z" fill="#2D2D2F"/><path d="M606.107 480.355l-.304-.834c-41.667 15.374-84.106 58.631-124.915 58.585a53.582 53.582 0 0 1-21.708-4.512l-79.098-34.579-.35.804 79.093 34.579a54.43 54.43 0 0 0 22.084 4.583c41.397-.05 83.781-43.428 125.219-58.639l-.021.013z" fill="#2D2D2F"/><path d="M606.124 469.381l-.333-.833c-41.705 16.973-84.306 64.667-125.003 64.609a49.07 49.07 0 0 1-21.575-4.937l-79.093-38.175-.379.792 79.08 38.187a49.957 49.957 0 0 0 21.959 5.033c41.363-.059 83.902-47.911 125.357-64.676h-.013z" fill="#2D2D2F"/><path d="M606.128 464.069l-.345-.834c-41.714 17.748-84.402 67.584-125.074 67.53a47.02 47.02 0 0 1-21.508-5.15l-79.094-39.882-.396.783 79.11 39.899a47.983 47.983 0 0 0 21.905 5.246c41.342-.063 83.956-50.049 125.419-67.601l-.017.009z" fill="#2D2D2F"/><path d="M606.145 453.729l-.367-.8c-41.73 19.252-84.585 73.262-125.177 73.195a43.872 43.872 0 0 1-21.384-5.545l-79.093-43.299-.417.771 79.094 43.299a44.693 44.693 0 0 0 21.804 5.657c41.297-.071 84.064-54.239 125.548-73.278h-.008z" fill="#2D2D2F"/><path d="M606.145 448.713l-.379-.796c-41.734 19.998-84.693 76.016-125.228 75.945a42.466 42.466 0 0 1-21.321-5.737l-79.093-44.949-.417.767 79.094 44.945a43.274 43.274 0 0 0 21.754 5.853c41.276-.071 84.118-56.243 125.607-76.028h-.017z" fill="#2D2D2F"/><path d="M606.157 438.964l-.416-.783c-41.747 21.405-84.885 81.365-125.328 81.282-7.141 0-14.196-1.854-21.196-6.108L380.12 465.19l-.459.75 79.094 48.169c7.129 4.333 14.367 6.249 21.667 6.249 41.25-.087 84.218-60.217 125.727-81.386l.008-.008z" fill="#2D2D2F"/><path d="M606.162 434.222l-.417-.779c-41.747 22.081-84.973 83.965-125.373 83.878-7.121 0-14.167-1.904-21.138-6.287l-79.093-49.736-.471.742 79.093 49.74c7.104 4.466 14.329 6.428 21.609 6.428 41.205-.091 84.272-62.13 125.785-83.986h.005z" fill="#2D2D2F"/><path d="M606.17 424.99l-.417-.77c-41.755 23.447-85.151 89.027-125.464 88.931-7.084 0-14.092-2.012-21.03-6.629l-79.093-52.806-.492.729 79.097 52.811c7.084 4.707 14.259 6.782 21.518 6.782 41.154-.1 84.364-65.854 125.894-89.048h-.013z" fill="#2D2D2F"/><path d="M606.178 420.495l-.437-.763c-41.759 24.098-85.243 91.494-125.511 91.389-7.083 0-14.058-2.058-20.975-6.799l-79.093-54.31-.509.725 79.089 54.31c7.046 4.825 14.226 6.958 21.476 6.958 41.13-.104 84.41-67.675 125.952-91.514l.008.004z" fill="#2D2D2F"/><path d="M480.13 508.043c41.08-.108 84.493-71.199 126.053-96.313l-.455-.758c-41.763 25.38-85.418 96.301-125.598 96.192-7.05 0-13.996-2.162-20.871-7.128l-79.093-57.239-.517.712 79.097 57.223c6.996 5.062 14.142 7.295 21.363 7.295h.021v.016z" fill="#2D2D2F"/><path d="M606.191 407.451l-.467-.746c-41.771 26.001-85.501 98.634-125.644 98.521-7.029 0-13.963-2.208-20.834-7.282l-79.093-58.668-.521.704 79.106 58.668c6.984 5.174 14.125 7.458 21.342 7.458 41.059-.117 84.539-72.933 126.111-98.659v.004z" fill="#2D2D2F"/><path d="M479.988 502.327c41.01-.125 84.623-76.291 126.211-103.225l-.475-.738c-41.776 27.218-85.672 103.204-125.731 103.084-7.005 0-13.901-2.3-20.717-7.587l-79.098-61.455-.542.696 79.098 61.48c6.933 5.382 14.042 7.766 21.25 7.766l.004-.021z" fill="#2D2D2F"/><path d="M479.943 500.481c40.988-.129 84.66-77.907 126.252-105.458l-.483-.733c-41.78 27.813-85.752 105.442-125.773 105.312-6.988 0-13.867-2.345-20.668-7.732l-79.093-62.847-.546.688 79.089 62.846c6.921 5.496 14.017 7.916 21.201 7.916l.021.008z" fill="#2D2D2F"/><path d="M479.855 496.878c40.938-.137 84.743-81.132 126.353-109.816l-.5-.729c-41.78 28.98-85.906 109.799-125.836 109.662-6.963 0-13.805-2.429-20.572-8.02l-79.093-65.538-.562.679 79.076 65.534c6.88 5.699 13.955 8.224 21.117 8.224l.017.004z" fill="#2D2D2F"/><path d="M479.813 495.111c40.918-.142 84.777-82.694 126.399-111.941l-.509-.725c-41.784 29.547-85.985 111.924-125.89 111.787-6.95 0-13.783-2.466-20.529-8.162l-79.093-66.854-.567.671 79.093 66.858c6.863 5.795 13.921 8.366 21.08 8.366h.016z" fill="#2D2D2F"/><path d="M479.73 491.661c40.872-.146 84.848-85.748 126.486-116.111l-.517-.712c-41.792 30.655-86.135 116.09-125.969 115.944-6.925 0-13.721-2.549-20.417-8.436l-79.093-69.438-.579.659 79.089 69.441c6.833 5.995 13.867 8.653 21.008 8.653h-.008z" fill="#2D2D2F"/><path d="M479.693 489.971c40.834-.155 84.885-87.24 126.527-118.145l-.525-.708c-41.788 31.196-86.206 118.123-126.002 117.969-6.913 0-13.7-2.583-20.396-8.561l-79.094-70.704-.587.654 79.093 70.708c6.813 6.087 13.834 8.787 20.967 8.787h.017z" fill="#2D2D2F"/><path d="M479.613 486.663c40.805-.159 84.956-90.169 126.611-122.127l-.537-.7c-41.793 32.259-86.344 122.106-126.074 121.948-6.883 0-13.642-2.663-20.313-8.824l-79.093-73.196-.596.646 79.089 73.2c6.784 6.249 13.784 9.053 20.901 9.053h.012z" fill="#2D2D2F"/><path d="M606.228 360.961l-.541-.691c-41.793 32.783-86.41 124.055-126.111 123.889-6.875 0-13.621-2.7-20.271-8.945l-79.098-74.412-.6.642 79.089 74.412c6.771 6.366 13.751 9.165 20.88 9.165 40.784-.162 85.002-91.597 126.669-124.081l-.017.021z" fill="#2D2D2F"/><path d="M479.501 481.867c40.742-.171 85.052-94.401 126.736-127.901l-.559-.688c-41.792 33.8-86.547 127.877-126.177 127.706-6.85 0-13.567-2.771-20.192-9.191l-79.093-76.807-.613.629 79.093 76.807c6.734 6.537 13.701 9.445 20.792 9.445h.013z" fill="#2D2D2F"/><path d="M479.468 480.317c40.717-.175 85.08-95.771 126.764-129.771l-.554-.684c-41.796 34.3-86.61 129.751-126.21 129.568-6.838 0-13.551-2.812-20.159-9.316l-79.093-77.982-.613.625 79.089 77.978c6.721 6.62 13.675 9.582 20.763 9.582h.013zM75.53 589.471V87.623c14.684-20.969 30.714-38.658 47.41-51.944l16.171 36.429v63.226h1.113V71.883l-16.847-37.962-.566.441c-17.042 13.453-33.368 31.43-48.289 52.77l-.104.14v502.199h1.113z" fill="#2D2D2F"/><path d="M455.925 416.271l-.329-.817-75.851 30.313.329.821 75.851-30.317zm71.381-5.124l-.296-.834-71.63 25.314.295.833 71.631-25.313zm-71.393-81.845l-.458-.754-75.773 45.453.455.754 75.776-45.453zm-48.03 59.747l-.409-.787-27.767 14.436.409.787 27.767-14.436zm-.554-184.874l.692-.396-.438-.766-.783.47-27.201 27.193.625.625 27.105-27.126zm.629 82.42l-.546-.692-27.775 21.798.545.691 27.776-21.797zm-.021 23.509l-.525-.716-27.763 20.106.521.712 27.767-20.102zm-133.29 279.367V22.077l8.95-20.086-.804-.362-9.034 20.26.005 567.582h-.005.888zm397.491-85.49l-.375-.058a883.511 883.511 0 0 1-53.36-10.128l-.537-.121v58.047l.417.037a1977.41 1977.41 0 0 0 53.401 4.225l.471.029v-52.031h-.017zm-.883 51.09a1924.522 1924.522 0 0 1-52.502-4.167v-56.135a878.091 878.091 0 0 0 52.502 9.966v50.336z" fill="#2D2D2F"/><path d="M690.768 522.966l-.296-.837-84.656 30.267.296.829 84.656-30.259zM158.645 589.47V260.102h-.884V589.47h.884zm209.708-.374l-132.536-84.494-.475.741 132.536 84.494.475-.741zM248.367 285.058l-1.633-4.133-.821.325 1.633 4.133.821-.325zm28.484 72.116l-23.646-59.876-.825.329 23.646 59.872.825-.325zm-13.217 6.541l-27.654-59.481-.8.371 27.654 59.48.8-.37z" fill="#2D2D2F"/><path d="M168.066 274.771l-9.471-14.861-.746.475 9.475 14.865.742-.479zm21.421 33.613l-14.688-23.039-.741.471 14.683 23.043.746-.475zm100.389 274.209c30.188-.304 60.085-5.574 90.073-8.357l-.079-.88c-30.038 2.788-59.91 8.054-90.002 8.358-42.055.416-84.168 3.162-126.173 3.162-15.772 0-31.53-.392-47.272-1.429l-97.902-6.474-.059.879 97.919 6.474c15.767 1.037 31.538 1.429 47.326 1.429 42.051 0 84.168-2.746 126.186-3.162h-.017z" fill="#2D2D2F"/><path d="M143.949 436.469c39.388-.059 101.568-55.123 146.044-68.205 82.606-24.534 60.305-160.847 90.327-240.804l-.834-.313c-30 80.407-8.125 216.341-89.751 240.259-44.747 13.236-107.056 68.225-145.799 68.167-11.45 0-20.767-4.725-27.167-16.769L18.871 233.722l-.783.417 97.898 185.082c6.487 12.277 16.225 17.239 27.917 17.239h.054l-.008.009z" fill="#2D2D2F"/><path d="M144.174 438.947c39.45-.054 101.385-54.544 145.836-67.425 81.668-23.898 60.305-158.494 90.326-237.264l-.833-.308c-30.001 79.228-9.079 213.437-89.747 236.726-44.706 13.032-106.769 67.446-145.578 67.392-11.513 0-20.909-4.716-27.393-16.748L19.213 239.562l-.342-.774-.808.35.358.812 97.585 181.786c6.575 12.27 16.384 17.215 28.118 17.211h.054-.004z" fill="#2D2D2F"/><path d="M144.649 444.001c39.584-.059 100.989-53.373 145.336-65.826 79.668-22.63 60.313-153.702 90.335-230.072l-.834-.321c-30 76.833-11.046 207.517-89.747 229.535-44.618 12.611-106.16 65.855-145.094 65.801-11.667 0-21.213-4.696-27.884-16.694L18.88 249.595l-.775.417 97.918 176.833c6.759 12.231 16.725 17.147 28.596 17.147h.03v.009z" fill="#2D2D2F"/><path d="M144.907 446.571c39.63-.054 100.785-52.769 145.082-65.017 78.676-21.981 60.309-151.232 90.331-226.39l-.834-.329c-30 75.608-12.046 204.48-89.743 225.869-44.584 12.398-105.835 65.038-144.849 64.992-11.725 0-21.371-4.683-28.129-16.665L19.113 255.49l-.225-.73-.834.259.263.833 97.685 173.633c6.863 12.211 16.909 17.111 28.847 17.111h.054l.004-.025z" fill="#2D2D2F"/><path d="M145.432 451.812c39.755-.054 100.348-51.531 144.553-63.326 76.626-20.71 60.313-146.257 90.33-218.907l-.812-.333c-30.001 73.112-14.1 198.26-89.748 218.386-44.484 11.966-105.181 63.372-144.323 63.326-11.876 0-21.696-4.662-28.659-16.59l-97.919-168.25-.758.437 97.914 168.226c7.084 12.161 17.284 17.031 29.363 17.031h.059z" fill="#2D2D2F"/><path d="M145.707 454.487c39.809-.05 100.118-50.89 144.278-62.493 75.576-20.072 60.313-143.707 90.33-215.086l-.812-.338c-30.001 71.842-15.142 195.077-89.739 214.558-44.439 11.74-104.848 62.492-144.053 62.459-11.954 0-21.863-4.645-28.934-16.552l-97.673-164.93-.125-.509-.858.196.158.646 97.736 165.047c7.179 12.136 17.5 16.985 29.638 16.985h.058l-.004.017z" fill="#2D2D2F"/><path d="M146.282 459.903c39.942-.05 99.635-49.577 143.698-60.73 73.439-18.806 60.318-138.509 90.335-207.284l-.808-.354c-30 69.246-17.284 188.544-89.739 206.779-44.343 11.291-104.136 60.756-143.482 60.706-12.109 0-22.213-4.616-29.517-16.461L18.867 283.257l-.75.463 97.918 159.314c7.413 12.082 17.917 16.881 30.209 16.881h.059l-.021-.012z" fill="#2D2D2F"/><path d="M146.582 462.698c40.001-.05 99.385-48.911 143.394-59.834 72.347-18.173 60.326-135.851 90.339-203.309l-.804-.363c-30 67.909-18.383 185.186-89.739 202.801-44.297 11.065-103.752 59.859-143.186 59.81-12.188 0-22.396-4.583-29.817-16.415L19.171 289.619l-.308-.65-.796.375.333.696 97.623 155.814c7.538 12.045 18.134 16.832 30.521 16.832h.042l-.004.012z" fill="#2D2D2F"/><path d="M147.215 468.352c40.143-.046 98.848-47.52 142.757-57.977 70.11-16.91 60.331-130.401 90.34-195.159l-.796-.371c-30.022 65.196-20.617 178.312-89.74 194.668-44.196 10.59-102.985 57.997-142.556 57.956-12.359 0-22.776-4.583-30.455-16.303L18.846 301.184l-.741.479 97.897 149.982c7.805 11.97 18.601 16.703 31.155 16.703h.042l.016.004z" fill="#2D2D2F"/><path d="M147.565 471.235c40.209-.046 98.569-46.799 142.424-57.022 68.964-16.282 60.326-127.635 90.335-190.994l-.796-.379c-30.021 63.813-21.759 174.762-89.739 190.514-44.138 10.353-102.577 57.044-142.224 56.998-12.446 0-22.975-4.541-30.792-16.248L19.179 307.788l-.216-.633-.834.283.267.737 97.627 146.433c7.942 11.919 18.842 16.627 31.476 16.627h.066z" fill="#2D2D2F"/><path d="M148.249 477.118c40.35-.042 97.977-45.307 141.719-55.052 66.626-15.036 60.335-121.96 90.335-182.478l-.787-.392c-30.026 60.98-24.097 167.48-89.74 182.016-44.034 9.865-101.727 55.072-141.527 55.027-12.626 0-23.388-4.491-31.497-16.082L18.834 319.912l-.717.504 97.894 140.245c8.241 11.811 19.367 16.461 32.175 16.461h.046l.017-.004z" fill="#2D2D2F"/><path d="M148.615 480.117c40.418-.042 97.665-44.536 141.353-54.031 65.418-14.419 60.335-119.057 90.335-178.129l-.783-.395c-30.026 59.522-25.288 163.73-89.739 177.657-43.972 9.628-101.282 54.056-141.161 54.015-12.713 0-23.601-4.466-31.868-15.994L19.175 326.798l-.296-.633-.8.362.338.712 97.619 136.513c8.4 11.749 19.637 16.369 32.538 16.365h.046-.005z" fill="#2D2D2F"/><path d="M149.394 486.242c40.564-.038 96.998-42.912 140.566-51.927 62.988-13.195 60.347-113.103 90.339-169.205l-.779-.417c-30.03 56.552-27.722 156.052-89.735 168.759-43.864 9.12-100.357 51.948-140.391 51.915-12.917 0-24.05-4.408-32.65-15.803L18.825 339.522l-.7.529 97.894 130.047c8.75 11.611 20.238 16.148 33.334 16.148h.033l.008-.004z" fill="#2D2D2F"/><path d="M149.799 489.366c40.634-.038 96.668-42.078 140.161-50.827 61.743-12.582 60.347-110.054 90.335-164.639l-.771-.417c-30.038 55.027-28.967 152.066-89.739 164.197-43.801 8.858-99.869 50.861-140.003 50.828-13.008 0-24.284-4.371-33.063-15.69L19.076 346.583l-.192-.454-.834.341.25.555 97.723 126.305c8.909 11.528 20.526 16.032 33.705 16.032h.05l.021.004z" fill="#2D2D2F"/><path d="M150.661 495.732c40.78-.033 95.906-40.357 139.294-48.577 59.202-11.391 60.356-103.8 90.336-155.269l-.759-.442c-30.042 51.902-31.496 143.908-89.739 154.848-43.68 8.333-98.848 48.595-139.128 48.557-13.217 0-24.775-4.291-33.93-15.415L18.813 360.103l-.684.558 97.919 119.331c9.3 11.345 21.188 15.753 34.584 15.753h.033l-.004-.013z" fill="#2D2D2F"/><path d="M151.111 498.994c40.835-.033 95.515-39.445 138.841-47.398 18.112-3.333 30.834-14.482 40.605-29.688 21.492-33.405 29.167-86.477 49.73-120.773l-.755-.454c-20.679 34.537-28.367 87.61-49.717 120.748-9.713 15.09-22.201 26.017-40.026 29.305-43.609 8.057-98.31 47.415-138.678 47.381-13.333 0-25.029-4.245-34.384-15.277L19.084 367.514l-.246-.483-.788.392.3.575L116.057 483.4c9.504 11.228 21.533 15.586 35 15.586h.034l.02.008z" fill="#2D2D2F"/><path d="M152.069 505.635c40.997-.034 94.681-37.529 137.878-44.941 55.268-9.636 60.36-94.009 90.335-140.6l-.741-.479c-30.051 47.015-35.418 130.984-89.744 140.213-43.476 7.499-97.189 44.953-137.723 44.919-13.538 0-25.563-4.137-35.351-14.923l-97.91-108.058-.655.588 97.919 108.057c9.95 10.987 22.28 15.224 35.984 15.224h.008z" fill="#2D2D2F"/><path d="M152.566 509.023c41.08-.034 94.247-36.525 137.377-43.658 53.926-9.069 60.364-90.63 90.335-135.537l-.733-.492c-30.055 45.324-36.747 126.485-89.739 135.155-43.422 7.228-96.61 43.673-137.236 43.64-13.642 0-25.834-4.079-35.834-14.727l-98.14-104.409-.641.605 98.135 104.412c10.183 10.832 22.671 14.998 36.48 14.998l-.004.013z" fill="#2D2D2F"/><path d="M153.624 515.926c41.226-.029 93.335-34.396 136.315-40.958 51.201-7.953 60.372-83.673 90.331-125.122l-.717-.521c-30.063 41.849-39.451 117.178-89.743 124.764-43.284 6.666-95.39 40.983-136.182 40.95-13.875 0-26.405-3.942-36.922-14.261l-97.918-96.159-.617.625 97.919 96.163c10.687 10.494 23.492 14.515 37.526 14.515l.008.004z" fill="#2D2D2F"/><path d="M154.174 519.446c41.305-.025 92.831-33.271 135.761-39.537 49.826-7.412 60.372-80.099 90.326-119.769l-.7-.534c-30.071 40.062-40.834 112.362-89.747 119.424-43.213 6.353-94.752 39.553-135.636 39.528-13.992 0-26.701-3.862-37.501-13.99l-97.56-91.743-.333-.504-.738.479.417.583 97.647 91.819c10.947 10.29 23.926 14.227 38.068 14.227l-.004.017z" fill="#2D2D2F"/><path d="M289.93 490.074c47.043-6.353 60.372-72.725 90.315-108.737l-.675-.566c-30.076 36.378-43.58 102.379-89.756 108.428-43.072 5.745-93.427 36.558-134.474 36.537-14.238 0-27.321-3.682-38.659-13.356l-97.918-83.578-.576.671 97.898 83.577c11.517 9.824 24.855 13.566 39.239 13.566 41.438-.025 91.789-30.876 134.586-36.546l.02.004z" fill="#2D2D2F"/><path d="M289.931 495.316c45.642-5.833 60.372-68.929 90.31-103.05l-.663-.579c-30.084 34.479-44.959 97.196-89.764 102.758-42.997 5.416-92.739 34.971-133.873 34.95-14.351 0-27.63-3.579-39.272-12.986l-97.898-79.211-.558.687 97.919 79.211c11.812 9.558 25.329 13.182 39.825 13.182 41.514-.021 91.252-29.58 133.99-34.962h-.016z" fill="#2D2D2F"/><path d="M157.186 537.702c41.668 0 90.136-26.842 132.736-31.584 42.851-4.866 60.368-61.092 90.302-91.33l-.625-.621c-30.092 30.563-47.713 86.452-89.772 91.072-42.851 4.8-91.336 31.597-132.636 31.576-14.584 0-28.276-3.333-40.539-12.12l-97.918-70.208-.517.721 97.898 70.204c12.433 8.911 26.313 12.286 41.03 12.286h.025l.016.004z" fill="#2D2D2F"/><path d="M289.914 511.697c41.476-4.4 60.372-57.047 90.297-85.277l-.604-.638c-30.1 28.538-49.071 80.865-89.781 85.036-42.78 4.474-90.614 29.796-132.002 29.775-14.713 0-28.592-3.187-41.188-11.611l-97.898-65.559-.492.734 97.919 65.558c12.762 8.537 26.846 11.766 41.667 11.766 41.722 0 89.56-25.368 132.086-29.784h-.004z" fill="#2D2D2F"/><path d="M289.91 523.229c38.751-3.504 60.355-48.677 90.277-72.766l-.551-.688c-30.104 24.356-51.726 69.246-89.797 72.575-42.638 3.804-89.169 25.934-130.719 25.918-14.951 0-29.243-2.854-42.501-10.416l-97.898-55.951-.442.766 97.919 55.952c13.421 7.661 27.884 10.544 42.943 10.544 41.846 0 88.385-22.164 130.794-25.921l-.025-.013z" fill="#2D2D2F"/><path d="M289.905 529.186c37.464-3.087 60.347-44.344 90.265-66.292l-.517-.716c-30.109 22.193-53.005 63.196-89.814 66.129-42.564 3.458-88.448 23.86-130.078 23.848-15.062 0-29.559-2.663-43.163-9.741L18.68 491.433l-.417.779 97.918 50.981c13.751 7.162 28.409 9.849 43.572 9.849 41.901 0 87.798-20.414 130.148-23.856h.004z" fill="#2D2D2F"/><path d="M289.901 541.559c35.001-2.295 60.318-35.374 90.235-52.91l-.445-.762c-30.109 17.698-55.393 50.577-89.844 52.768-42.426 2.746-87.085 19.394-128.844 19.386-15.275 0-30.171-2.221-44.438-8.145l-97.919-40.691-.337.833 97.897 40.691c14.405 5.978 29.418 8.211 44.78 8.211 41.993 0 86.669-16.664 128.903-19.385l.012.004z" fill="#2D2D2F"/><path d="M289.897 547.946c33.876-1.925 60.293-30.717 90.214-45.936l-.395-.787c-30.109 15.369-56.477 43.994-89.865 45.827-42.363 2.383-86.426 16.998-128.265 16.99-15.375 0-30.45-1.971-45.042-7.232l-97.898-35.35-.296.833 97.898 35.35c14.704 5.307 29.888 7.295 45.338 7.295 42.034 0 86.114-14.636 128.336-16.994l-.025.004z" fill="#2D2D2F"/><path d="M289.889 561.253c31.942-1.25 60.23-21.047 90.164-31.496l-.287-.833c-30.088 10.536-58.335 30.254-89.91 31.45-42.243 1.625-85.302 11.828-127.253 11.828-15.554 0-30.951-1.404-46.105-5.154l-97.919-24.259-.208.833 97.898 24.26c15.242 3.749 30.713 5.178 46.317 5.178 42.085 0 85.16-10.211 127.286-11.823l.017.016z" fill="#2D2D2F"/><path d="M289.885 568.173c31.18-.921 60.188-16.023 90.135-23.993l-.225-.833c-30.076 8.011-59.026 23.068-89.935 23.964-42.189 1.249-84.848 9.057-126.844 9.053-15.626 0-31.155-1.084-46.543-3.983l-97.918-18.494-.159.867 97.919 18.468c15.454 2.917 31.038 4 46.705 4 42.084 0 84.772-7.828 126.869-9.053l-.004.004z" fill="#2D2D2F"/><path d="M145.069 291.719h-.883l-.004 297.747.883.004.004-297.751zm.001-11.144v-21.877h-.884v21.877h.884zm0-32.459v-20.664h-.884v20.664h.884zm0-30.876v-19.677h-.884v19.677h.884zm0-29.329v-18.873h-.884v18.873h.884zm0-28.156v-17.943h-.884v17.943h.884zm263.038 429.716l.012-69.05-28.288 5.028.155.867 27.25-4.841-.012 67.996h.883z" fill="#2D2D2F"/><path d="M143.507 431.598c39.276-.058 101.935-56.243 146.494-69.733 84.481-25.806 60.293-165.472 90.323-247.721l-.833-.308c-30.001 82.723-6.251 222.002-89.752 247.187-44.822 13.644-107.619 69.754-146.253 69.692-11.321 0-20.488-4.742-26.726-16.815L19.03 223.831l-.138-.45-.834.258.171.521 97.756 190.14c6.317 12.311 15.905 17.298 27.443 17.298h.079z" fill="#2D2D2F"/><path d="M143.299 429.203c39.217-.059 102.085-56.793 146.702-70.475 85.419-26.443 60.293-167.742 90.323-251.128l-.833-.3c-30.001 83.856-5.317 224.764-89.756 250.582-44.855 13.844-107.886 70.5-146.441 70.442-11.25 0-20.358-4.746-26.517-16.836L18.879 218.461l-.783.417 97.898 193.023c6.25 12.319 15.754 17.323 27.234 17.318h.066l.005-.016zm584.399 96.472l-.417-.038a19954.774 19954.774 0 0 0-34.251-3.287c-.783-.087-1.587-.163-2.387-.238l-.484-.05v54.369h.454a86.5 86.5 0 0 0 2.359-.108c11.408.222 22.828.445 34.259.67h.454v-51.318h.013zm-.884 50.41l-33.842-.662c-.642.041-1.279.071-1.917.096v-52.494c.638.062 1.275.125 1.896.196 11.222 1.072 22.51 2.154 33.863 3.245v49.619zm160.182-26.463l-.416-.038a10499.933 10499.933 0 0 0-61.252-5.495l-.479-.037v34.921h.417c20.434.433 40.851.883 61.251 1.349h.45v-30.717l.029.017zm-.883 29.817c-20.109-.455-40.237-.898-60.385-1.329v-33.096c20.176 1.75 40.304 3.555 60.385 5.416v29.013-.004zm-80.901-99.863h1.025v1.887h-1.025v-1.887zm0-6.557h1.025v1.887h-1.025v-1.887zm0-6.558h1.025v1.887h-1.025v-1.887zm0-6.558h1.025v1.888h-1.025v-1.888zm0-6.553h1.025v1.887h-1.025v-1.887zm0-6.562h1.025v1.887h-1.025v-1.887zm0-6.558h1.025v1.888h-1.025v-1.888zm0-6.557h1.025v1.887h-1.025v-1.887zm0-6.554h1.025v1.887h-1.025v-1.887zm0-13.114h1.025v1.887h-1.025v-1.887zm0-13.115h1.025v1.887h-1.025v-1.887zm0-13.116h1.025v1.888h-1.025v-1.888zm0-13.115h1.025v1.887h-1.025v-1.887zm0-13.11h1.025v1.887h-1.025v-1.887zm0-13.115h1.025v1.887h-1.025v-1.887zm0-13.116h1.025v1.888h-1.025v-1.888zm0-6.557h1.025v1.887h-1.025v-1.887zm0-6.558h1.025v1.887h-1.025v-1.887z" fill="#2D2D2F"/><path fill-rule="evenodd" clip-rule="evenodd" d="M806.237 422.449l-1.025-.004v-1.883l1.025-.004v1.891z" fill="#2D2D2F"/><path d="M805.212 407.447h1.025v1.887h-1.025v-1.887zm0-13.115h1.025v1.887h-1.025v-1.887zm0-13.115h1.025v1.887h-1.025v-1.887zm0-13.112h1.025v1.888h-1.025v-1.888zm0-13.119h1.025v1.888h-1.025v-1.888zm0-13.11h1.025v1.887h-1.025v-1.887zm-260.576-57.535h1.025v1.887h-1.025v-1.887zm0-6.558h1.025v1.887h-1.025v-1.887zm0-6.557h1.025v1.887h-1.025v-1.887zm0-13.116h1.025v1.888h-1.025v-1.888zm0-13.114h1.025v1.887h-1.025v-1.887zm0-13.115h1.025v1.887h-1.025v-1.887zm0-13.115h1.025v1.887h-1.025v-1.887zm0-13.112h1.025v1.888h-1.025v-1.888zm0-13.115h1.025v1.887h-1.025v-1.887zm0-13.114h1.025v1.887h-1.025v-1.887zm0-6.558h1.025v1.887h-1.025v-1.887zm0-6.558h1.025v1.887h-1.025v-1.887z" fill="#2D2D2F"/><path fill-rule="evenodd" clip-rule="evenodd" d="M545.661 266.555h-1.025v-1.887h1.025v1.887z" fill="#2D2D2F"/><path d="M544.636 251.554h1.025v1.887h-1.025v-1.887zm0-13.116h1.025v1.887h-1.025v-1.887zm0-13.111h1.025v1.887h-1.025v-1.887zm0-13.115h1.025v1.887h-1.025v-1.887zm0-13.115h1.025v1.887h-1.025v-1.887zm0-13.116h1.025v1.888h-1.025v-1.888zm68.105 235.083l.467.912-1.679.861-.468-.912 1.68-.861zm5.805-2.888l.468.912-1.679.862-.468-.911 1.679-.863zm5.853-3.089l.468.912-1.679.862-.468-.911 1.679-.863zm5.814-2.922l.468.911-1.678.863-.469-.911 1.679-.863zm5.862-3.101l.468.912-1.68.861-.468-.911 1.68-.862zm5.826-2.984l.468.912-1.679.861-.468-.912 1.679-.861zm5.836-3.005l.468.911-1.679.862-.468-.912 1.679-.861zm5.829-2.994l.469.911-1.679.863-.468-.911 1.678-.863zm5.809-2.898l.469.912-1.678.863-.469-.911 1.678-.864zm5.854-3.07l.468.912-1.681.86-.467-.912 1.68-.86zm5.835-3.025l.468.912-1.679.862-.469-.912 1.68-.862zm5.816-2.908l.469.912-1.678.863-.469-.911 1.678-.864zm5.829-2.979l.469.911-1.679.863-.469-.912 1.679-.862zm5.855-3.1l.468.912-1.679.861-.468-.912 1.679-.861zm5.812-2.893l.468.911-1.678.862-.469-.911 1.679-.862zm5.84-3.021l.47.911-1.678.864-.47-.911 1.678-.864zm5.849-3.08l.468.912-1.679.861-.468-.911 1.679-.862zm5.828-3l.47.912-1.678.864-.47-.911 1.678-.865zm11.652-5.906l.468.911-1.678.864-.469-.912 1.679-.863zm11.68-6.068l.468.912-1.679.861-.468-.912 1.679-.861zm11.655-5.929l.469.911-1.679.863-.469-.912 1.679-.862zm11.664-5.987l.469.911-1.679.863-.469-.911 1.679-.863zm11.666-6.001l.47.911-1.678.864-.47-.911 1.678-.864zm11.667-6.006l.469.911-1.678.863-.469-.911 1.678-.863zm11.663-5.989l.469.911-1.678.864-.47-.912 1.679-.863zm5.837-2.995l.469.912-1.678.864-.469-.912 1.678-.864zm5.84-3.069l.468.911-1.679.862-.469-.912 1.68-.861zm-87.492 44.962l.468.912-1.679.862-.468-.912 1.679-.862zm11.651-5.9l.468.912-1.678.862-.469-.911 1.679-.863zm11.685-6.093l.469.912-1.68.862-.468-.912 1.679-.862zm11.645-5.906l.47.911-1.677.865-.47-.911 1.677-.865zm11.668-5.992l.468.912-1.678.863-.469-.912 1.679-.863zm11.667-5.999l.468.912-1.679.861-.468-.911 1.679-.862zm11.669-6.002l.468.912-1.679.861-.468-.912 1.679-.861zM447.691 221.394l.507.89-1.64.934-.507-.891 1.64-.933zm5.704-3.238l.506.891-1.641.932-.506-.891 1.641-.932zm11.423-6.493l.506.891-1.641.932-.506-.891 1.641-.932zm11.406-6.473l.506.891-1.642.932-.506-.892 1.642-.931zm11.45-6.544l.505.892-1.644.929-.504-.892 1.643-.929zm11.393-6.452l.506.892-1.642.931-.506-.892 1.642-.931z" fill="#2D2D2F"/><path fill-rule="evenodd" clip-rule="evenodd" d="M509.322 187.574l-.508-.892 1.642-.933.504.892-1.638.933z" fill="#2D2D2F"/><path d="M521.881 179.25l.505.892-1.642.93-.505-.891 1.642-.931zm11.384-6.441l.506.891-1.642.932-.506-.892 1.642-.931zm5.722-3.264l.505.893-1.643.929-.505-.892 1.643-.93zm5.682-3.202l.506.891-1.642.932-.506-.892 1.642-.931zm-85.539 48.529l.505.892-1.642.929-.505-.892 1.642-.929zm11.427-6.505l.506.892-1.642.931-.506-.891 1.642-.932zm11.413-6.487l.506.891-1.642.932-.506-.892 1.642-.931zm11.381-6.429l.506.891-1.641.932-.507-.891 1.642-.932zm11.427-6.506l.506.891-1.642.932-.506-.891 1.642-.932zm11.391-6.45l.506.891-1.641.932-.507-.892 1.642-.931zm11.387-6.437l.506.891-1.642.931-.506-.892 1.642-.93zm360.761 247.593l1.185 1.469-.797.644-1.186-1.469.798-.644zm-4.126-5.13l1.184 1.469-.798.643-1.184-1.469.798-.643zm-4.085-5.02l1.186 1.468-.798.644-1.186-1.468.798-.644zm-4.135-5.156l1.185 1.468-.797.644-1.185-1.469.797-.643zm-4.101-5.062l1.183 1.471-.799.642-1.183-1.47.799-.643z" fill="#2D2D2F"/><path fill-rule="evenodd" clip-rule="evenodd" d="M864.812 394.507l-.8.641-1.183-1.47.8-.642 1.183 1.471z" fill="#2D2D2F"/><path d="M855.387 382.784l1.185 1.469-.798.643-1.185-1.469.798-.643zm-8.217-10.14l1.185 1.469-.797.644-1.185-1.469.797-.644zm-8.229-10.224l1.183 1.471-.799.642-1.183-1.471.799-.642zm-8.234-10.22l1.183 1.471-.799.642-1.183-1.471.799-.642zm-8.236-10.23l1.184 1.469-.798.643-1.184-1.469.798-.643zm-8.23-10.185l1.186 1.469-.798.644-1.185-1.469.797-.644zm-4.107-5.079l1.182 1.472-.799.642-1.182-1.472.799-.642zm-4.119-5.112l1.186 1.468-.798.644-1.185-1.468.797-.644zm60.475 77.849l1.189 1.472-.8.646-1.189-1.472.8-.646zm-6.985-11.524l1.184 1.47-.798.643-1.184-1.47.798-.643zm-8.229-10.227l1.185 1.469-.798.643-1.185-1.469.798-.643zm-8.219-10.153l1.185 1.469-.798.643-1.185-1.469.798-.643zm-8.239-10.24l1.183 1.471-.799.642-1.183-1.47.799-.643zm-8.233-10.204l1.186 1.468-.797.644-1.186-1.468.797-.644zm-8.225-10.2l1.185 1.468-.797.644-1.186-1.469.798-.643zm-31.121 131.551l1.176 1.476-.802.639-1.176-1.476.802-.639zm-4.096-5.111l1.18 1.473-.8.64-1.18-1.472.8-.641zm-4.093-5.102l1.179 1.474-.8.64-1.179-1.473.8-.641zm-4.094-5.121l1.177 1.476-.802.639-1.176-1.476.801-.639zm-4.105-5.152l1.18 1.473-.8.641-1.18-1.473.8-.641zm-4.095-5.109l1.18 1.473-.8.641-1.18-1.474.8-.64zm-4.096-5.148l1.178 1.475-.801.64-1.178-1.475.801-.64zm-4.089-5.076l1.18 1.473-.8.64-1.18-1.472.8-.641zm-4.111-5.205l1.181 1.473-.8.641-1.18-1.473.799-.641zm-4.09-5.108l1.179 1.474-.801.64-1.179-1.474.801-.64zm-4.092-5.065l1.179 1.474-.801.64-1.179-1.474.801-.64zm-4.102-5.189l1.179 1.474-.8.64-1.18-1.473.801-.641zm-4.097-5.129l1.177 1.475-.801.639-1.177-1.475.801-.639zm-4.09-5.061l1.179 1.474-.8.64-1.179-1.473.8-.641zm-4.103-5.191l1.179 1.473-.8.641-1.18-1.473.801-.641zm-4.094-5.122l1.178 1.474-.8.64-1.179-1.474.801-.64zm-4.095-5.085l1.179 1.473-.8.641-1.179-1.474.8-.64zm-4.095-5.135l1.179 1.474-.8.64-1.179-1.474.8-.64zm-4.097-5.102l1.178 1.475-.801.64-1.178-1.475.801-.64zm-4.098-5.112l1.179 1.474-.8.64-1.179-1.473.8-.641zm-4.093-5.087l1.179 1.474-.8.64-1.179-1.474.8-.64zm-4.097-5.175l1.179 1.474-.801.64-1.179-1.474.801-.64zm-4.096-5.107l1.18 1.474-.8.64-1.18-1.473.8-.641zm-4.099-5.099l1.18 1.473-.8.641-1.18-1.473.8-.641zm-4.094-5.164l1.179 1.474-.8.64-1.179-1.474.8-.64zm-4.093-5.123l1.179 1.474-.8.64-1.18-1.473.801-.641zm-4.102-5.029l1.18 1.473-.8.641-1.18-1.473.8-.641zm-4.092-5.175l1.179 1.474-.8.64-1.179-1.474.8-.64zm-4.1-5.082l1.179 1.474-.8.64-1.179-1.474.8-.64zm-4.09-5.181l1.18 1.473-.801.641-1.179-1.474.8-.64zm-4.105-5.054l1.179 1.473-.8.641-1.179-1.474.8-.64zm-4.089-5.173l1.18 1.473-.8.641-1.18-1.473.8-.641zm-4.097-5.128l1.18 1.474-.8.64-1.18-1.473.8-.641zm-4.097-5.094l1.18 1.473-.8.64-1.18-1.473.8-.64zm-4.097-5.118l1.18 1.473-.8.64-1.18-1.473.8-.64zm-4.096-5.107l1.179 1.474-.8.64-1.179-1.473.8-.641zm-4.1-5.137l1.179 1.473-.8.641-1.179-1.474.8-.64zm-4.102-5.093l1.18 1.473-.8.641-1.18-1.473.8-.641zm-4.087-5.168l1.179 1.474-.8.64-1.179-1.473.8-.641zm-4.098-5.097l1.179 1.474-.801.64-1.179-1.474.801-.64zm-4.084-5.185l1.18 1.474-.8.64-1.18-1.473.8-.641zm-4.112-5.053l1.179 1.473-.8.64-1.18-1.473.801-.64zm-4.083-5.179l1.18 1.474-.801.64-1.179-1.473.8-.641zm-4.109-5.058l1.179 1.473-.801.641-1.179-1.474.801-.64zm-8.19-10.249l1.179 1.473-.8.641-1.179-1.474.8-.64zm-8.189-10.25l1.179 1.473-.801.641-1.179-1.474.801-.64zm-10.497-8.307l1.189 1.472-.8.646-1.189-1.473.8-.645zm-5.901-12.144l1.178 1.475-.801.64-1.178-1.475.801-.64zm-8.191-10.246l1.179 1.473-.8.641-1.18-1.474.801-.64zm-8.191-10.247l1.179 1.474-.8.64-1.179-1.474.8-.64zm-8.188-10.264l1.179 1.474-.801.641-1.179-1.474.801-.641zm-1.356-5.785l1.17 1.472-.8.636-1.17-1.472.8-.636zm-6.823-4.489l1.18 1.474-.801.64-1.179-1.473.8-.641zm61.445 76.796l1.179 1.474-.801.64-1.179-1.474.801-.64zm-8.189-10.251l1.178 1.474-.8.64-1.179-1.474.801-.64zm-8.198-10.223l1.179 1.474-.8.64-1.179-1.474.8-.64zm-8.183-10.262l1.179 1.474-.8.64-1.179-1.474.8-.64zm-8.198-10.218l1.178 1.475-.801.639-1.178-1.474.801-.64zm-8.223-10.171l1.18 1.473-.8.641-1.18-1.474.8-.64zm-8.154-10.338l1.179 1.474-.8.64-1.179-1.474.8-.64zM396.111 456.846l.345.965-2.416.864-.346-.965 2.417-.864zm4.795-1.802l.347.965-2.416.868-.346-.965 2.415-.868zm4.69-1.623l.344.966-2.417.862-.345-.965 2.418-.863zm4.742-1.716l.346.965-2.416.866-.346-.965 2.416-.866zm4.764-1.752l.345.965-2.416.866-.346-.965 2.417-.866zm4.733-1.698l.346.965-2.415.867-.347-.964 2.416-.868zm4.703-1.649l.347.964-2.416.868-.346-.965 2.415-.867zm4.705-1.64l.346.965-2.415.867-.347-.964 2.416-.868zm4.727-1.689l.345.965-2.416.866-.346-.965 2.417-.866zm4.729-1.692l.345.965-2.416.865-.346-.965 2.417-.865zm4.734-1.696l.345.965-2.417.864-.345-.965 2.417-.864zm4.73-1.695l.345.965-2.416.866-.346-.965 2.417-.866zm4.789-1.801l.345.965-2.416.865-.346-.965 2.417-.865z" fill="#2D2D2F"/><path fill-rule="evenodd" clip-rule="evenodd" d="M396.824 421.445l-.417-.937 2.342-1.05.417.933-2.342 1.054zm4.583-2.083l-.416-.933 2.341-1.054.417.937-2.342 1.05zm4.584-2.058l-.417-.933 2.342-1.054.417.937-2.346 1.05h.004zm4.583-2.058l-.416-.937 2.337-1.05.417.933-2.338 1.054zm4.584-2.062l-.417-.934 2.342-1.049.416.933-2.337 1.05h-.004zm4.583-2.058l-.416-.938 2.341-1.05.417.933-2.338 1.055h-.004zm4.584-2.059l-.417-.933 2.342-1.054.416.933-2.337 1.054h-.004zm4.583-2.083l-.417-.933 2.338-1.054.417.937-2.338 1.05zm-33.296-69.432l-.575-.834 2.121-1.441.575.833-2.121 1.442zm4.167-2.825l-.575-.833 2.12-1.438.575.834-2.12 1.441v-.004zm4.166-2.82l-.575-.834 2.125-1.441.575.833-2.125 1.442zm4.167-2.825l-.575-.833 2.121-1.442.575.833-2.121 1.438v.004zm4.167-2.821l-.575-.833 2.125-1.437.575.833-2.125 1.441v-.004zm4.167-2.824l-.575-.834 2.12-1.441.58.833-2.125 1.442zm4.166-2.821l-.579-.833 2.125-1.442.579.834-2.125 1.441zm4.167-2.824l-.575-.834 2.125-1.441.575.833-2.125 1.437v.005zm4.167-2.821l-.579-.833 2.125-1.442.575.834-2.121 1.441z" fill="#2D2D2F"/><path fill-rule="evenodd" clip-rule="evenodd" d="M379.907 589.217c-76.565 0-153.129.034-229.691.104l-131.724.15V404.935l131.724 75.511c70.151 40.212 148.336 58.327 229.691 66.713v42.058z" fill="#fff"/><path d="M965.123 586.767v-.879c-64.68.417-129.357 1.083-194.037 1.083-12.725 0-25.452-.026-38.18-.079-34.115-.161-68.232-.229-102.352-.204-37.723 0-75.445.017-113.165.05-122.419 0-244.829-.529-367.144-4.97L19.621 577.01l-19.225-.35v.879l19.217.354 130.611 4.754c122.336 4.445 244.759 4.97 367.178 4.974 37.723 0 75.444-.016 113.165-.05 34.12 0 68.236.067 102.347.2 12.728.053 25.456.081 38.184.084 64.685 0 129.37-.663 194.046-1.088h-.021z" fill="#2D2D2F"/><path d="M965.131 577.926l-.021-.879c-65.476 1.779-130.948 4.508-196.412 4.508-11.93 0-23.863-.097-35.796-.292-31.718-.537-63.476-.692-95.256-.692-42.297 0-84.631.271-126.94.271-120.703 0-241.255-2.212-360.424-19.231L18.554 542.797l-.124.871 131.723 18.814c119.24 17.031 239.838 19.239 360.553 19.239 42.317 0 84.647-.27 126.94-.266 31.78 0 63.534.154 95.243.691 11.945.192 23.881.289 35.809.292 65.489 0 130.965-2.712 196.433-4.491v-.021z" fill="#2D2D2F"/><path d="M965.127 580.793v-.879c-65.38 1.338-130.752 3.383-196.125 3.379-12.025 0-24.054-.074-36.088-.221-31.592-.416-63.209-.525-94.843-.529-42.626 0-85.269.213-127.919.213-120.29 0-240.488-1.692-359.887-14.624L18.538 553.863l-.088.875 131.724 14.273c119.452 12.916 239.679 14.624 359.978 14.628 42.634 0 85.28-.213 127.919-.208 31.629 0 63.243.116 94.839.524 12.031.15 24.062.224 36.092.221 65.385 0 130.765-2.041 196.142-3.383h-.017z" fill="#2D2D2F"/><path d="M965.14 569.756l-.038-.879c-65.589 3.029-131.157 7.633-196.72 7.633-11.82 0-23.644-.16-35.472-.479-33.363-.95-66.864-1.209-100.419-1.209-38.609 0-77.293.329-115.948.329-123.627 0-246.917-3.424-366.215-32.192L18.6 511.192l-.208.854 131.728 31.772c119.414 28.796 242.783 32.217 366.423 32.217 38.659 0 77.348-.329 115.948-.329 33.555 0 67.043.254 100.394 1.204 11.839.333 23.673.494 35.501.483 65.605 0 131.186-4.583 196.758-7.637h-.004z" fill="#2D2D2F"/><path d="M965.14 572.415l-.034-.884c-65.555 2.625-131.098 6.612-196.637 6.608-11.85 0-23.703-.139-35.559-.417-32.638-.804-65.368-1.029-98.148-1.033-40.217 0-80.505.338-120.76.338-122.403 0-244.543-3.088-363.686-28.014L18.588 521.454l-.184.863 131.728 27.575c119.248 24.943 241.447 28.026 363.866 28.03 40.263 0 80.547-.333 120.76-.333 32.776 0 65.501.221 98.127 1.025 11.864.278 23.724.416 35.58.416 65.572 0 131.132-3.982 196.67-6.603l.005-.012z" fill="#2D2D2F"/><path d="M965.148 562.17l-.058-.879c-65.627 4.191-131.232 10.553-196.833 10.549-11.784 0-23.566-.22-35.347-.659-36.617-1.429-73.526-1.758-110.56-1.758-31.484 0-63.052.234-94.586.234-128.661 0-256.926-3.95-377.395-44.008L18.642 481.851l-.275.833 131.698 43.803c120.632 40.112 248.997 44.049 377.674 44.049 31.551 0 63.118-.234 94.586-.234 37.029 0 73.93.334 110.527 1.763 11.794.45 23.588.669 35.38.658 65.659 0 131.281-6.362 196.891-10.553h.025z" fill="#2D2D2F"/><path d="M965.148 564.64l-.05-.879c-65.622 3.812-131.219 9.582-196.812 9.582-11.792 0-23.584-.201-35.376-.604-35.334-1.25-70.901-1.566-106.565-1.566-34.279 0-68.651.279-102.989.279-126.736 0-253.072-3.875-373.007-40.191L18.621 491.378l-.258.833 131.727 39.887c120.09 36.358 246.518 40.224 373.266 40.224 34.342 0 68.714-.279 102.989-.279 35.659 0 71.218.313 106.532 1.567 11.808.416 23.614.619 35.417.608 65.647 0 131.253-5.791 196.862-9.607l-.008.029z" fill="#2D2D2F"/><path d="M965.156 555.079l-.071-.875c-65.651 5.274-131.252 13.278-196.895 13.278-11.759 0-23.516-.278-35.272-.834-42.588-2.083-85.781-2.395-129.169-2.399-18.613 0-37.263.058-55.909.058-136.845 0-273.706-3.116-397.458-54.823L18.65 454.445l-.337.809 131.752 55.06c123.961 51.789 260.947 54.885 397.8 54.885 18.65 0 37.3-.055 55.909-.055 43.376 0 86.552.317 129.115 2.4 11.775.575 23.546.833 35.317.833 65.693 0 131.336-8.007 196.967-13.286l-.017-.012z" fill="#2D2D2F"/><path d="M965.152 557.392l-.062-.879c-65.643 4.924-131.253 12.39-196.871 12.39a805.6 805.6 0 0 1-35.305-.775c-40.076-1.833-80.622-2.175-121.335-2.175-23.997 0-48.051.113-72.085.113-133.549 0-266.876-3.646-389.099-51.311L18.671 463.378l-.32.833 131.714 51.369c122.407 47.74 255.839 51.394 389.412 51.394 24.055 0 48.109-.117 72.085-.117 40.709 0 81.251.346 121.294 2.179 11.786.533 23.568.792 35.346.775 65.681 0 131.311-7.474 196.933-12.394l.017-.025z" fill="#2D2D2F"/><path d="M965.164 548.434l-.087-.875c-65.664 6.295-131.29 15.832-196.925 15.832-11.746 0-23.483-.305-35.23-.984-195.287-11.369-407.637 19.002-582.511-68.079L18.684 428.744l-.396.788 131.727 65.583c175.224 87.227 387.695 56.789 582.849 68.171 11.767.684 23.526.988 35.284.988 65.722 0 131.369-9.553 197.012-15.832l.004-.008z" fill="#2D2D2F"/><path d="M965.16 550.604l-.079-.874c-65.659 5.957-131.282 14.998-196.908 14.998-11.75 0-23.5-.292-35.255-.938-195.179-10.769-405.949 18.794-582.511-64.513L18.683 437.135l-.374.796 131.723 62.146c176.903 83.44 387.787 53.81 582.845 64.576a632.17 632.17 0 0 0 35.3.937c65.71 0 131.357-9.049 196.987-14.998l-.004.012z" fill="#2D2D2F"/><path d="M965.169 544.223l-.092-.88c-65.668 6.941-131.29 17.465-196.933 17.465-11.733 0-23.475-.337-35.217-1.087-195.496-12.532-410.996 19.11-582.512-74.991L18.98 412.613l-.184-.266-.733.491.308.45 131.624 72.217c171.87 94.276 387.507 62.55 582.857 75.103 11.767.746 23.521 1.087 35.276 1.092 65.734 0 131.39-10.537 197.028-17.473l.013-.004zM44.026 562.911l-3.754-.296-.067.884 3.75.295.071-.883z" fill="#2D2D2F"/><path d="M42.672 589.471V460.149h-.884v129.322h.884zm-17.488 0v-24.376H24.3v24.376h.884zm-6.254-.001v-22.368l3.829-1.433-.304-.833-4.409 1.646v22.988h.884zm-18.047.001v-54.173H0v54.173h.883zm54.818 0l-.004-27.214-6.988-.604-.079.875 6.188.538.004 26.405h-.004.883zm42.705 0l-.004-29.334-17.267-1.863-.092.875 16.48 1.779.004 28.543h.88z" fill="#2D2D2F"/><path d="M35.13 589.471v-23.827l-12.65-.887-.059.883 11.825.829v23.002h.884zm38.367 0V459.628h-.883v129.843h.883zm40.664 0V438.439h-.884v151.032h.884zm132.602 0V281.087h-.883v308.384h.883zm336.803-265.372l-.375-.8-12.822 6.066.38.796 12.817-6.062zm-109.978-88.852l.625-.113-.158-.866-.837.15-9.655 7.578h-.004l.55.691 9.479-7.44zm64.043 57.022l-.441-.762-11.476 6.616.442.758 11.475-6.612zm24.688 17.986l-.404-.783-12.154 6.278.408.788 12.15-6.283zm163.562 187.727l-.334-.817-8.216 3.395.333.817 8.217-3.395z" fill="#2D2D2F"/><path d="M717.935 500.978V473.16l7.962-4.328-.42-.775-8.426 4.578.005 28.343h.879zm128.323 88.531l-.008-94.505 7.125-1.963-.233-.85-7.776 2.142.009 95.176v.004l.883-.004z" fill="#2D2D2F"/><path d="M853.446 516.493l-.184-.867-7.541 1.583.179.862 7.546-1.578zm-27.051-4.109l-.204-.854-9.954 2.392.204.858 9.954-2.396z" fill="#2D2D2F"/><path d="M853.446 516.493l-.184-.867-7.541 1.583.179.862 7.546-1.578zm-135.511 72.978v-88.493h-.884v88.493h.884zM48.892 461.803l-8.475-3.374-.329.816 8.484 3.379.32-.821zm297.34-238.98h-.888v2.896c-21.8-6.924-43.151-16.173-65.101-25.118v-12.278h-.879v12.87l.275.112c22.225 9.053 43.872 18.448 66.022 25.439l.575.179v-4.1h-.004zm-65.977 96.797v-14.369h-.883v14.369h.883zm30.98 8.833v-3.579h-.883v3.579h.883zm295.164 21.463l-.237-.125c-89.664-47.24-172.412-124.152-225.863-222.694l-.779.416c53.501 98.63 136.253 175.604 225.996 222.936v2.433C516.318 306.3 433.963 230.684 380.295 133.879l-.771.417c53.889 97.205 136.636 173.067 226.229 219.698l.646.334v-4.412z" fill="#2D2D2F"/><path d="M606.399 360.332l-.241-.121c-88.994-45.149-171.375-118.527-225.871-212.495l-.759.437c54.539 94.043 136.94 167.48 225.988 212.725v2.583c-88.531-44.466-170.512-116.511-225.229-208.692l-.755.45c54.939 92.56 137.311 164.839 226.23 209.35l.637.321v-4.558z" fill="#2D2D2F"/><path d="M606.399 371.197l-.246-.12c-88.31-42.979-170.303-112.695-225.871-201.918l-.75.467C435.15 258.919 517.164 328.69 605.52 371.752v2.745C517.685 332.235 436.083 263.889 380.282 176.5l-.741.471c56.038 87.756 138.015 156.318 226.229 198.622l.633.304v-4.7h-.004z" fill="#2D2D2F"/><path d="M606.399 382.525l-.258-.117c-87.585-40.72-169.17-106.629-225.867-190.923l-.729.492c56.726 84.361 138.336 150.319 225.971 191.11v2.917C518.402 346.042 437.179 281.545 380.27 199.13l-.725.5c57.164 82.757 138.753 147.458 226.229 187.478l.625.287v-4.87z" fill="#2D2D2F"/><path d="M606.399 394.369l-.262-.116c-86.848-38.35-168.037-100.301-225.871-179.479l-.713.517c57.885 79.24 139.078 141.233 225.967 179.658v3.112c-86.36-37.558-167.166-98.055-225.258-175.296l-.705.529c58.335 77.566 139.499 138.242 226.226 175.842l.616.266v-5.033z" fill="#2D2D2F"/><path d="M606.399 406.78l-.271-.112c-86.072-35.879-166.836-93.701-225.879-167.551l-.683.546c59.08 73.904 139.852 131.767 225.95 167.709v3.333c-85.577-35.042-165.958-91.356-225.267-163.21l-.675.559c59.551 72.158 140.29 128.638 226.221 163.73l.608.246v-5.225l-.004-.025z" fill="#2D2D2F"/><path d="M606.399 419.808l-.283-.108c-85.26-33.283-165.591-86.798-225.879-155.09l-.655.579c60.327 68.326 140.657 121.886 225.938 155.223v3.554c-84.768-32.408-164.715-84.352-225.287-150.586l-.651.596c60.835 66.504 141.112 118.606 226.217 151.044l.6.225v-5.437z" fill="#2D2D2F"/><path d="M606.399 433.519l-.292-.1c-84.418-30.555-164.299-79.574-225.887-142.066l-.621.616c61.618 62.526 141.494 111.553 225.917 142.154v3.808c-83.914-29.626-163.412-76.995-225.296-137.359l-.613.629c62.139 60.597 141.965 108.112 226.205 137.763l.591.208v-5.674l-.004.021z" fill="#2D2D2F"/><path d="M606.399 447.996l-.3-.099c-83.539-27.681-162.953-71.954-225.896-128.373l-.587.654c62.955 56.448 142.373 100.73 225.9 128.477v4.091c-83.018-26.701-162.058-69.275-225.317-123.477l-.571.671c63.514 54.414 142.861 97.105 226.196 123.831l.579.183v-5.937l-.004-.021zm358.77 94.181l-.1-.879c-65.668 7.257-131.29 18.256-196.933 18.252-11.734 0-23.471-.35-35.209-1.138-195.612-13.098-412.662 19.019-582.511-78.348L18.692 404.552l-.442.762 131.728 75.512c170.208 97.555 387.399 65.35 582.87 78.47 11.758.783 23.513 1.137 35.267 1.137 65.743 0 131.394-11.011 197.033-18.256h.021z" fill="#2D2D2F"/><path d="M290.031 352.645c87.306-27.78 60.342-172.304 90.376-257.886l-.995-.35c-30.001 86.127-3.551 230.193-89.698 257.207-44.963 14.248-108.452 71.966-146.824 71.895a36.26 36.26 0 0 1-3.6-.175l-.1 1.05a37.22 37.22 0 0 0 3.704.179c39.168-.075 102.502-57.909 147.141-71.937l-.004.017zm-49.997-189.019v-13.652h-.888v13.652h.888zm0 27.747v-18.689h-.888v18.689h.888zm0 29.071v-19.489h-.888v19.489h.888zm0 20.573l-.004-10.557h-.879v8.082L214.279 171.1l.004-109.161h-.883l-.004 109.32 25.784 69.912.854-.154zM857.9 589.471v-79.728h-.883v79.728h.883zm-45.272 0v-87.243h-.883v87.243h.883zm-78.151 0v-99.346h-.884v99.346h.884z" fill="#2D2D2F"/><path fill-rule="evenodd" clip-rule="evenodd" d="M379.907 381.059c65.906 43.365 144.37 77.449 226.051 98.884v5.666c-81.34-20.323-159.637-52.594-226.051-93.639v-10.911zm0 33.433c67.468 36.279 145.42 64.822 226.051 82.832v6.053c-80.285-16.818-158.045-43.44-226.051-77.265v-11.62zm0 35.625c69.114 28.776 146.499 51.44 226.051 65.792v6.487c-79.169-13.082-156.366-33.704-226.051-59.876v-12.403z" fill="#fff"/><path fill-rule="evenodd" clip-rule="evenodd" d="M1006.08 567.686c-101.437-8.969-209.31-16.156-313.087-22.76-108.032-7.953-216.134-28.188-313.086-56.659v13.331c97.919 24.714 205.542 42.279 313.086 49.186 103.856 5.729 211.254 11.97 313.087 19.756v-2.854zm-626.173-38.345c72.698 12.303 148.907 22.014 226.051 28.217v7.624c-76.714-4.716-152.712-12.082-226.051-21.426v-14.415z" fill="#fff"/><path opacity=".5" fill-rule="evenodd" clip-rule="evenodd" d="M478.497 566.074v-62.243c16.03 3.975 32.247 7.68 48.65 11.115v54.161a5089.371 5089.371 0 0 1-48.65-3.033z" fill="#FFEF68"/><path fill-rule="evenodd" clip-rule="evenodd" d="M379.907 501.619c-60.363-2.446-118.873-11.595-180.707-14.686-61.318-2.966-125.236 14.123-180.708 34.954v-10.27c54.747-23.993 119.227-43.678 180.708-40.261 62.084 3.566 120.327 14.102 180.707 16.918v13.345z" fill="#fff"/><path fill-rule="evenodd" clip-rule="evenodd" d="M139.232 304.888v200.46c20-2.288 40.092-3.258 59.947-2.446 12.225.517 24.338 1.25 36.371 2.083V304.43c-11.846-2.704-23.933-5.029-36.371-6.72-19.563-2.612-39.855.242-59.947 7.178z" fill="#D1D3D4"/><path fill-rule="evenodd" clip-rule="evenodd" d="M605.958 479.942a799.988 799.988 0 0 0 87.035 17.798c103.16 13.599 214.75 28.397 313.087 46.87v2.366c-98.654-17.498-209.865-31.53-313.087-44.415a834.899 834.899 0 0 1-87.035-16.932v-5.687zm0 17.37c28.783 6.428 57.917 11.519 87.035 15.139 103.335 11.416 213.783 23.843 313.087 39.35v2.5c-99.637-14.482-209.669-26.081-313.087-36.742-29.113-3.387-58.239-8.166-87.035-14.198v-6.049zm0 18.597c28.825 5.2 57.917 9.312 87.035 12.228 103.556 9.09 212.754 18.985 313.087 31.338v2.674c-100.692-11.248-209.456-20.268-313.087-28.546-29.093-2.666-58.197-6.429-87.035-11.19v-6.504zm0 41.65a2468.903 2468.903 0 0 0 87.035 5.445c104.014 3.924 210.462 8.195 313.087 13.523v3.104c-103.042-4.054-208.99-7.299-313.087-10.282a3112.946 3112.946 0 0 1-87.035-4.166v-7.624zm0-88.585a743.05 743.05 0 0 0 87.035 19.443c103.035 14.998 215.362 31.284 313.087 51.631v-2.212c-97.429-21.247-210.106-38.295-313.087-53.948a718.73 718.73 0 0 1-87.035-20.235v5.321zM379.907 349.592c64.418 50.077 143.391 89.402 226.051 114.061v5.32c-82.34-23.609-161.149-61.213-226.051-109.095v-10.286zM18.492 543.226C75.468 528.97 138.223 517.271 199.2 519.3c61.33 2.121 120.385 8.378 180.707 10.053v14.415c-60.301-1.25-119.64-6.033-180.707-7.645-60.797-1.542-122.949 7.353-180.708 18.189v-11.086zm361.415-93.109c-60.418-3.879-117.919-18.385-180.707-23.297-61.952-4.704-128.028 22.405-180.708 55.447v9.557c53.334-30.096 118.911-54.789 180.708-50.506 62.542 4.474 120.289 17.689 180.707 21.218v-12.419z" fill="#fff"/><path fill-rule="evenodd" clip-rule="evenodd" d="M379.907 414.492c-60.488-4.866-117.289-23.085-180.707-29.251-62.389-5.907-129.961 28.134-180.708 69.625v8.937c51.376-38.746 118.461-70.517 180.708-64.993 63.205 5.758 120.235 22.769 180.707 27.31v-11.628z" fill="#fff"/><path fill-rule="evenodd" clip-rule="evenodd" d="M379.907 381.058c-60.538-5.795-116.669-27.497-180.707-34.837-62.802-7.037-131.774 33.508-180.708 82.906v8.395c49.526-46.827 118.044-85.248 180.708-78.582 63.826 6.958 120.185 27.522 180.707 33.013v-10.895z" fill="#fff"/><path fill-rule="evenodd" clip-rule="evenodd" d="M379.907 349.592c-60.584-6.666-116.11-31.663-180.707-40.1-63.189-8.099-133.482 38.567-180.708 95.443v7.916C66.276 358.416 136.14 313.75 199.2 321.503c64.409 8.087 120.139 31.992 180.707 38.379v-10.29zm157.495-57.701l.042 297.581h6.325l-.037-292.778a566.65 566.65 0 0 1-6.33-4.803zm24.684 17.963l.071 279.617h5.416l-.041-275.946a470.537 470.537 0 0 1-5.446-3.671zm21.271 13.862l.05 265.755h4.7l-.041-262.885a451.16 451.16 0 0 1-4.709-2.87zm-109.535-89.202v354.957h8.958V243.738a538.71 538.71 0 0 1-8.958-9.224z" fill="#fff"/><path fill-rule="evenodd" clip-rule="evenodd" d="M559.128 505.51l15.854-2.475v-71.083l-15.854 4.512v69.046z" fill="#fff"/><path d="M527.573 514.589l-.354-.071a1362.146 1362.146 0 0 1-44.518-10.099l-.208.854c14.578 3.566 29.31 6.91 44.196 10.032v53.327a4340.567 4340.567 0 0 1-43.842-2.716l-.059.879c14.723.975 29.496 1.89 44.318 2.745h.467v-54.993.042zm-388.25-8.667a404.71 404.71 0 0 1 45.864-2.728c4.675 0 9.338.094 13.988.283 12.221.521 24.325 1.25 36.359 2.083l.621.042V303.959l-.446-.104c-11.863-2.704-23.967-5.037-36.43-6.728a110.408 110.408 0 0 0-14.671-.963c-15.055 0-30.363 2.916-45.543 8.17l.188.546-.188-.546-.392.133v201.526l.65-.075v.004zm.513-1.249V305.28c14.95-5.125 30.001-7.97 44.772-7.97 4.854-.006 9.704.312 14.517.95 12.258 1.666 24.167 3.953 35.867 6.611v199.46a1278.181 1278.181 0 0 0-35.763-2.033c-4.67-.195-9.35-.29-14.042-.288a405.237 405.237 0 0 0-45.351 2.663zm171.07-176.637c-10.279-2.854-20.58-5.862-30.976-8.824l-.241.833c10.392 2.962 20.692 5.97 30.979 8.824l.238-.833zM123.452 128.21l-.491-.73c-41.555 28.472-80.268 81.845-104.023 142.133v-3.228c23.392-62.168 62.555-117.357 104.519-146.491l-.5-.725c-42.189 29.305-81.427 84.644-104.87 146.982l-.028.067v5.737l.833.162C42.5 211.075 81.589 156.873 123.44 128.21h.012z" fill="#2D2D2F"/><path d="M123.457 103.591l-.509-.72c-41.926 29.879-80.889 86.193-104.014 149.84v-2.833C41.68 184.311 81.11 126.143 123.46 95.592l-.513-.712C80.368 125.597 40.863 183.923 18.08 249.66l-.025.071v5.504l.854.145c22.954-64.475 62.313-121.689 104.548-151.79z" fill="#2D2D2F"/><path d="M123.465 79.902l-.521-.708c-42.288 31.226-81.49 90.36-104.01 157.248v-2.437c22.113-68.846 61.81-129.893 104.531-161.802l-.525-.708c-42.951 32.08-82.702 93.281-104.865 162.31l-.02.062v5.3l.858.133c22.313-67.796 61.934-127.939 104.552-159.398zm256.534 53.765c-60.73-12.615-112.044-60.026-180.699-76.12l-.2.858c68.38 16.002 119.656 63.409 180.716 76.12l.183-.858z" fill="#2D2D2F"/><path d="M123.473 57.08l-.537-.704C80.31 88.872 40.851 150.757 18.938 220.77v-2.046C40.434 146.686 80.389 82.827 123.473 49.648l-.542-.696C79.622 82.32 39.597 146.328 18.071 218.515v5.166l.863.125C40.609 152.811 80.48 89.843 123.473 57.08zm256.522 111.879c-60.693-11.636-112.698-55.373-180.704-70.22l-.183.862c67.743 14.76 119.711 58.488 180.716 70.225l.171-.867zm.004-21.447c-60.718-12.228-112.302-58.202-180.704-73.804l-.191.854c68.13 15.51 119.681 61.48 180.716 73.816l.179-.866zm.004-40.508C319.24 93.672 268.451 43.465 199.304 26.426l-.209.858c68.86 16.944 119.611 67.125 180.717 80.578l.191-.858z" fill="#2D2D2F"/><path d="M199.862 589.471V12.636c58.097 14.952 103.123 53.918 152.557 73.912l.496-1.25c-49.401-19.935-94.681-59.255-153.553-74.158l-.833-.212V589.47h1.333z" fill="#2D2D2F"/><path d="M184.562 285.582c4.878-.002 9.751.329 14.584.992 64.872 9.14 120.002 36.199 180.715 43.449l.105-.88c-60.514-7.207-115.653-34.262-180.695-43.44a106.846 106.846 0 0 0-14.705-1.004c-59.368 0-122.948 47.011-165.628 103.525v-6.029c42.084-58.926 106.252-108.024 165.599-107.999 4.888-.008 9.77.335 14.609 1.025 65.047 9.478 120.002 37.549 180.715 45.074l.109-.879c-60.526-7.5-115.473-35.55-180.699-45.07a102.743 102.743 0 0 0-14.734-1.033c-59.897 0-124.203 49.373-166.4 108.487l-.078.112v7.633l.791.262c42.568-56.856 106.457-104.242 165.716-104.225h-.004z" fill="#2D2D2F"/><path d="M184.47 252.011c4.909-.008 9.811.36 14.663 1.1 65.389 10.149 119.956 40.191 180.716 48.244l.117-.874c-60.543-8.008-115.119-38.05-180.696-48.24a96.855 96.855 0 0 0-14.8-1.113c-59.797.025-124.252 52.165-165.532 114.882v-5.495c40.667-65.101 105.739-119.331 165.499-119.306 4.92-.007 9.834.37 14.696 1.129 65.551 10.473 119.936 41.478 180.716 49.785l.121-.875c-60.556-8.261-114.952-39.266-180.7-49.777a94.806 94.806 0 0 0-14.833-1.146c-60.335.025-125.536 54.54-166.32 119.832l-.067.108v7.224l.813.242c41.13-63.13 105.944-115.745 165.607-115.72z" fill="#2D2D2F"/><path d="M184.383 220.124c4.94-.008 9.872.393 14.746 1.2 65.876 11.107 119.906 43.978 180.716 52.793l.125-.875c-60.572-8.748-114.615-41.632-180.695-52.785a89.846 89.846 0 0 0-14.892-1.216c-60.206.029-125.494 57.051-165.45 125.651v-4.999c39.335-70.963 105.274-130.085 165.421-130.051a87.142 87.142 0 0 1 14.779 1.25c66.026 11.39 119.882 45.186 180.712 54.251l.129-.874c-60.584-8.999-114.456-42.787-180.695-54.252a88.499 88.499 0 0 0-14.93-1.25c-60.755.029-126.794 59.451-166.253 130.609l-.054.096v6.87l.833.221c39.76-69.088 105.457-126.652 165.508-126.652v.013z" fill="#2D2D2F"/><path d="M184.295 189.773a83.699 83.699 0 0 1 14.83 1.3c66.334 12.007 119.856 47.586 180.716 57.122l.137-.871c-60.605-9.473-114.135-45.053-180.695-57.122a85.041 85.041 0 0 0-15-1.312c-60.589.033-126.67 61.692-165.362 135.896v-4.525c38.063-76.557 104.84-140.324 165.345-140.287a82.042 82.042 0 0 1 14.855 1.329c66.488 12.303 119.844 48.744 180.716 58.522l.141-.87c-60.613-9.708-113.985-46.153-180.695-58.523a83.464 83.464 0 0 0-15-1.341c-61.156.033-128.003 64.121-166.17 140.87l-.042.088v6.537l.833.2c38.46-74.762 105.003-137.067 165.42-137.026l-.029.013z" fill="#2D2D2F"/><path d="M184.233 160.809c5-.008 9.989.46 14.9 1.396 66.785 12.878 119.819 51.031 180.716 61.243l.15-.867c-60.63-10.157-113.686-48.327-180.695-61.243a80.136 80.136 0 0 0-15.071-1.399c-60.96.041-127.774 66.129-165.283 145.665v-4.074c36.839-81.882 104.407-150.111 165.254-150.07 5.01-.005 10.01.471 14.929 1.421 66.926 13.161 119.802 52.144 180.716 62.601l.15-.871c-60.639-10.378-113.531-49.361-180.695-62.592a78.65 78.65 0 0 0-15.1-1.442c-61.535.046-129.17 68.588-166.1 150.674l-.033.083v6.249l.834.184c37.213-80.182 104.547-146.995 165.328-146.958z" fill="#2D2D2F"/><path d="M184.137 133.129a75.145 75.145 0 0 1 14.975 1.479c67.21 13.707 119.778 54.323 180.72 65.213l.155-.87c-60.66-10.811-113.244-51.423-180.696-65.205a75.752 75.752 0 0 0-15.154-1.5c-61.305.046-128.832 70.346-165.203 154.982v-3.642c24.046-58.655 62.96-110.761 104.527-138.42l-.488-.734c-41.792 27.818-80.764 80.066-104.89 138.892l-.028.075v5.987l.833.171c36.042-85.353 104.144-156.478 165.241-156.428h.008z" fill="#2D2D2F"/><path d="M184.112 124.272a73.993 73.993 0 0 1 14.975 1.513l.229-1.088a74.803 74.803 0 0 0-15.204-1.533c-20.175 0-41.022 7.745-61.205 21.177l.62.921c20.047-13.332 40.701-20.99 60.585-20.99z" fill="#2D2D2F"/><path d="M379.991 191.298c-60.668-11.024-113.111-52.436-180.7-66.492l-.175.866c67.339 13.974 119.757 55.385 180.712 66.488l.163-.866v.004zm0-14.994c-60.685-11.437-112.832-54.411-180.7-68.996l-.179.862c67.622 14.502 119.707 57.472 180.716 68.996l.163-.862zm.004-21.739C319.29 142.533 267.568 97.297 199.296 81.94l-.192.863c68.005 15.26 119.694 60.493 180.72 72.629l.171-.867zm.004-27.681C319.26 114.086 268.08 65.966 199.304 49.631l-.204.858c68.501 16.248 119.648 64.347 180.72 77.257l.179-.862zm.004-13.327c-60.759-13.165-111.669-62.672-180.699-79.478l-.209.854c68.752 16.698 119.624 66.201 180.717 79.491l.191-.867zM123.761 589.471V34.704h-1.113v554.767h1.113z" fill="#2D2D2F"/><path d="M139.282 423.441c-9.471-.984-17.155-5.912-22.501-16.694L20.759 212.37l-.792.392 96.023 194.376c5.416 10.999 13.462 16.19 23.196 17.178l.092-.875h.004z" fill="#2D2D2F"/><path d="M44.647 589.471v-448.6l-1.009-.229a435.382 435.382 0 0 0-25.659 67.987l-.054.196 1.963 3.975.95-.467-1.784-3.608a433.964 433.964 0 0 1 24.526-65.496v446.242h1.067zm961.873-45.233l-.35-.062c-98.361-18.477-209.959-33.279-313.111-46.874a799.717 799.717 0 0 1-86.989-17.789l-.554-.142v6.578l.333.084a835.656 835.656 0 0 0 87.085 16.944c103.227 12.886 214.434 26.917 313.076 44.415l.51.088v-3.242zm-.88 2.192c-98.539-17.469-209.541-31.463-312.585-44.332a834.393 834.393 0 0 1-86.668-16.836v-4.749a801.263 801.263 0 0 0 86.539 17.66c103.035 13.582 214.475 28.363 312.704 46.803v1.454h.01zm.88 4.991l-.37-.054c-99.32-15.515-209.755-27.943-313.099-39.358-29.109-3.616-58.226-8.703-86.998-15.127l-.533-.125v6.962l.346.075c28.809 6.04 57.951 10.832 87.085 14.21 103.419 10.653 213.442 22.26 313.069 36.733l.5.075v-3.391zm-.88 2.371c-99.518-14.449-209.358-26.026-312.593-36.663-28.984-3.374-57.976-8.124-86.648-14.119v-5.153c28.626 6.378 57.589 11.428 86.548 15.027 103.218 11.403 213.5 23.814 312.693 39.295v1.613zm.88 5.291l-.38-.05c-100.352-12.349-209.55-22.243-313.102-31.338-29.088-2.916-58.184-7.024-87.005-12.219l-.517-.096v7.399l.371.067c28.85 4.762 57.963 8.524 87.085 11.194 103.627 8.282 212.387 17.294 313.068 28.542l.49.055v-3.554h-.01zm-.88 2.57c-100.568-11.223-209.175-20.226-312.606-28.492-28.959-2.654-57.918-6.391-86.635-11.128v-5.599c28.667 5.158 57.614 9.245 86.556 12.14 103.427 9.078 212.467 18.956 312.685 31.288v1.791zm.88 14.452l-.42-.021c-102.628-5.328-209.076-9.582-313.091-13.523a2402.233 2402.233 0 0 1-87.022-5.445l-.475-.042v8.516l.416.029a3231.579 3231.579 0 0 0 87.056 4.166c104.094 2.983 210.042 6.249 313.086 10.282h.45v-3.983.021zm-.88 3.067c-102.918-4.046-208.687-7.287-312.631-10.266a3124.09 3124.09 0 0 1-86.61-4.141v-6.733a2469.312 2469.312 0 0 0 86.581 5.416c103.869 3.921 210.171 8.183 312.66 13.507v2.225-.008zm.88-41.695l-.35-.075c-97.444-21.248-210.134-38.3-313.102-53.952a719.323 719.323 0 0 1-86.985-20.214l-.567-.175v6.249l.317.091a742.648 742.648 0 0 0 87.085 19.456c103.035 14.999 215.358 31.284 313.062 51.632l.53.108v-3.112l.01-.008zm-.88 2.029c-97.614-20.302-209.737-36.579-312.577-51.528a742.758 742.758 0 0 1-86.668-19.339v-4.395a720.046 720.046 0 0 0 86.535 20.081c102.856 15.631 215.383 32.654 312.71 53.864v1.317z" fill="#2D2D2F"/><path d="M606.399 557.15l-.416-.034c-77.131-6.203-153.337-15.915-226.009-28.213l-.517-.088v15.324l.384.05c73.334 9.34 149.357 16.714 226.079 21.43l.467.029v-8.498h.012zm-.883 7.565c-76.406-4.712-152.086-12.057-225.163-21.347v-13.507c72.427 12.236 148.336 21.91 225.163 28.101v6.753zm.883-49.177l-.366-.062c-79.514-14.353-156.874-37.008-225.955-65.768l-.608-.258v13.39l.283.109c69.714 26.184 146.936 46.811 226.134 59.892l.512.084v-7.387zm-.883 6.349c-78.856-13.056-155.736-33.6-225.167-59.655v-11.457c68.889 28.622 145.949 51.181 225.167 65.501v5.611zm.883-24.93l-.346-.075c-80.601-18.007-158.507-46.532-225.933-82.791l-.65-.354v12.636l.241.121c68.043 33.842 145.837 60.472 226.155 77.303l.533.109v-6.949zm-.883 5.866c-79.964-16.803-157.407-43.329-225.167-77v-10.607c67.26 36.079 144.869 64.48 225.167 82.449v5.158zm.883-23.223l-.333-.087c-81.631-21.423-160.057-55.489-225.917-98.822l-.679-.454v11.978l.208.129c66.456 41.074 144.795 73.358 226.171 93.689l.55.137v-6.57zm-.879 5.416c-81.018-20.293-158.995-52.447-225.171-93.322v-9.824c65.718 43.129 143.849 77.029 225.171 98.414v4.753-.021z" fill="#2D2D2F"/><path d="M606.399 463.323l-.317-.096c-82.609-24.643-161.536-63.946-225.9-113.99l-.716-.554v11.411l.183.137c64.951 47.911 143.799 85.54 226.188 109.154l.562.162v-6.249.025zm-.883 5.058c-82.01-23.581-160.491-61.055-225.167-108.737v-9.166c64.251 49.79 142.878 88.898 225.167 113.491v4.412zm-586.94 86.353c53.334-9.999 110.418-18.361 166.69-18.361 4.645 0 9.286.06 13.925.179 61.052 1.609 120.39 6.37 180.708 7.641h.45v-15.286h-.417c-60.305-1.666-119.36-7.915-180.707-10.053a405.49 405.49 0 0 0-14.005-.233c-56.588 0-114.168 10.999-166.824 24.164l.104.417-.104-.417-.333.079v11.965l.52-.095h-.007zm.358-.967v-10.211c52.5-13.132 109.927-24.06 166.278-24.06 4.672 0 9.331.078 13.975.233 61.164 2.113 120.09 8.333 180.283 10.041v13.532c-60.13-1.284-119.327-6.025-180.258-7.633a567.89 567.89 0 0 0-13.946-.179c-56.18 0-113.11 8.303-166.332 18.277zm-.225-61.564c49.238-27.775 108.885-50.931 166.29-50.931 4.742 0 9.471.15 14.167.487 62.501 4.467 120.244 17.686 180.716 21.219l.463.025v-13.299l-.417-.029c-60.389-3.87-117.89-18.377-180.703-23.293a186.51 186.51 0 0 0-14.28-.537c-57.834 0-117.99 25.493-166.699 56.047l-.204.129v10.553l.654-.371h.012zm.224-1.137v-8.557c48.58-30.442 108.528-55.789 166.025-55.785 4.758 0 9.496.178 14.212.533 62.577 4.895 119.957 19.348 180.3 23.272v11.541c-60.206-3.567-117.811-16.723-180.237-21.194-4.722-.327-9.467-.49-14.234-.487-57.388 0-116.869 23.022-166.065 50.677z" fill="#2D2D2F"/><path d="M18.759 464.144c47.41-35.75 108.206-65.551 166.12-65.542 4.787 0 9.554.196 14.283.625 63.152 5.749 120.178 22.76 180.716 27.313l.471.033v-12.498l-.417-.033c-60.417-4.862-117.227-23.073-180.699-29.247-4.775-.455-9.576-.68-14.404-.675-58.401 0-119.698 32.03-166.629 70.408l-.162.13v10.04l.708-.537.013-.017zm.179-1.25v-7.836c46.797-38.233 107.894-70.075 165.903-70.067 4.8 0 9.574.222 14.321.667 63.214 6.145 119.903 24.292 180.308 29.221v10.732c-60.235-4.583-117.131-21.522-180.224-27.272a165.027 165.027 0 0 0-14.367-.629c-57.918 0-118.532 29.605-165.941 65.184z" fill="#2D2D2F"/><path d="M18.813 437.86c45.692-43.212 107.581-79.228 165.97-79.22 4.806-.008 9.609.244 14.388.754 63.751 6.945 120.119 27.497 180.716 33.017l.479.038v-11.795l-.417-.037c-60.459-5.783-116.606-27.497-180.699-34.838-4.822-.536-9.67-.803-14.521-.799-58.931 0-121.294 38.153-166.554 83.852l-.125.125v9.582l.742-.7.021.021zm.138-1.346v-7.191c45.138-45.544 107.31-83.473 165.798-83.46 4.817-.005 9.63.261 14.417.795 63.818 7.316 119.853 28.934 180.321 34.796v10.032c-60.268-5.545-116.498-26.017-180.221-32.971a138.46 138.46 0 0 0-14.483-.762c-58.439 0-120.102 35.775-165.837 78.74l.005.021z" fill="#2D2D2F"/><path d="M184.65 321.057c4.839-.004 9.675.288 14.479.875 64.335 8.074 120.061 31.979 180.716 38.382l.488.05v-11.169l-.392-.046c-60.493-6.666-116.023-31.629-180.699-40.095a113.244 113.244 0 0 0-14.63-.925c-59.43 0-122.794 43.928-166.474 96.522l-.1.121v8.074l.77.291c44.08-50.227 106.999-92.097 165.837-92.072l.005-.008zM18.476 412.846l-.33-.292.33.292zm.441-1.171v-6.583c43.564-52.422 106.756-96.096 165.695-96.08 4.853-.007 9.702.297 14.517.909 64.376 8.419 119.798 33.329 180.324 40.061v9.403c-60.297-6.449-115.898-30.246-180.216-38.328a119.073 119.073 0 0 0-14.583-.884c-58.922 0-121.565 41.55-165.733 91.502h-.004zm-.271 110.621c51.218-19.236 109.619-35.267 166.478-35.263 4.7 0 9.385.113 14.055.338 61.805 3.091 120.315 12.236 180.712 14.685l.037-.883c-60.33-2.441-118.84-11.586-180.703-14.686a293.84 293.84 0 0 0-14.101-.337c-56.801 0-115.056 15.94-166.186 35.096v-9.341c50.476-22.081 109.202-40.499 166.145-40.499 4.722 0 9.421.129 14.096.387 62.043 3.562 120.29 14.103 180.707 16.919l.042-.879c-60.339-2.816-118.59-13.332-180.699-16.919-4.7-.264-9.416-.394-14.146-.391-57.239 0-116.16 18.518-166.766 40.691l-.267.112v11.199l.596-.229z" fill="#2D2D2F"/><path d="M606.024 535.473c-78.36-10.415-155.149-26.826-225.983-47.623l-.25.833c70.88 20.831 147.707 37.22 226.117 47.652l.116-.87v.008zm-.012 7.016a1760.66 1760.66 0 0 1-225.996-41.3l-.217.855a1762.05 1762.05 0 0 0 226.109 41.324l.104-.884v.005z" fill="#2D2D2F"/><path d="M483.226 589.913V243.559l-.129-.13a541.895 541.895 0 0 1-8.967-9.215l-.758.3v355.399h9.854zm-.883-.888h-8.105V235.618a593.77 593.77 0 0 0 8.092 8.303v345.104h.013z" fill="#2D2D2F"/><path d="M478.768 281.283l-.496-.729-45.922 30.988.496.729 45.922-30.988zm-.08 103.341l-.358-.804-45.772 20.548.367.804 45.763-20.548z" fill="#2D2D2F"/><path fill-rule="evenodd" clip-rule="evenodd" d="M857.454 539.198v25.693c15.895.833 31.758 1.693 47.589 2.579v-23.039a7181.238 7181.238 0 0 0-47.589-5.233zm-123.423 2.97v34.504c26.017.514 52.069 1.044 78.156 1.592v-30.238a18446.77 18446.77 0 0 0-78.156-5.858z" fill="#E6E7E8"/><path fill-rule="evenodd" clip-rule="evenodd" d="M725.685 497.574v-29.126c33.001 6.037 66.847 12.286 100.602 18.86v24.672c-33.709-5.024-67.46-9.79-100.602-14.406zm127.548 18.448v-23.406c21.43 4.283 42.68 8.703 63.585 13.286v20.244a4886.915 4886.915 0 0 0-63.585-10.124zM379.907 100.988v488.483h13.655V126.61a540.263 540.263 0 0 1-13.675-25.634l.02.012zm27.755 185.286v-83.069a542.205 542.205 0 0 0 48.014 55.827v69.904a554.826 554.826 0 0 1-48.014-42.662z" fill="#fff"/><path fill-rule="evenodd" clip-rule="evenodd" d="M407.662 388.662v-78.907a569.788 569.788 0 0 0 48.014 39.054v67.116a702.888 702.888 0 0 1-48.014-27.263z" fill="#E6E7E8"/><path fill-rule="evenodd" clip-rule="evenodd" d="M130.828 517.397V343.001c22.788-8.195 45.992-11.894 68.372-9.261 3.046.362 6.067.766 9.075 1.191v179.474a1219.21 1219.21 0 0 0-9.075-.316c-22.647-.688-45.593.616-68.372 3.308zm152.365-232.264v31.871c10.913 3.125 21.73 6.274 32.551 9.22v-30.78c-10.813-3.283-21.63-6.807-32.551-10.311z" fill="#fff"/><path d="M211.746 513.788V336.105l-3.296-1.558-.375.8 2.792 1.32v176.471l-2.759.837.263.842 3.375-1.029zM380.57 589.47V94.067l-.513-.112a176.622 176.622 0 0 1-27.142-8.637l-.496 1.225a177.777 177.777 0 0 0 26.826 8.582V589.47h1.325zm-34.338.129v-31.754h-.883v31.754h.883zm-151.791-.129v-75.441h-.883v75.441h.883zm85.81.001v-95.876h-.879v95.876h.879zm.004-110.488v-28.192h-.883v28.192h.883zm0-41.84v-11.32l2.884-.949-.279-.838-3.488 1.146v11.961h.883zm725.865 130.1c-101.457-8.969-209.321-16.152-313.094-22.768a1489.851 1489.851 0 0 1-87.01-9.011l-.117.871a1483.656 1483.656 0 0 0 87.085 9.019c103.761 6.62 211.629 13.799 313.056 22.768l.08-.883v.004zm0 2.876c-101.832-7.787-209.246-14.027-313.098-19.756a1703.505 1703.505 0 0 1-87.014-7.87l-.1.875a1699.597 1699.597 0 0 0 87.085 7.874c103.831 5.733 211.254 11.982 313.057 19.756l.07-.883v.004z" fill="#2D2D2F"/><path d="M394.091 590l.025-463.52-.071-.125a540.357 540.357 0 0 1-13.662-25.605l-.075-.158-.163-.079-.233.475-.471.237a534.706 534.706 0 0 0 13.617 25.53l-.021 462.187h-13.125v1.054l14.179.004zm-263.155-71.729a479.679 479.679 0 0 1 56.201-3.487c4.02 0 8.032.061 12.038.183 3.031.097 6.054.204 9.071.321l.917.029V334.168l-.763-.108a394.47 394.47 0 0 0-9.096-1.2 123.518 123.518 0 0 0-14.604-.833c-17.917 0-36.189 3.687-54.168 10.153l-.584.208V518.4l.988-.117v-.012zm-.108-.875l-.1-.875.1.875zm.887-.991V343.617c17.63-6.278 35.484-9.841 52.985-9.841 4.811-.007 9.618.272 14.396.834 2.777.333 5.543.695 8.296 1.087v177.791c-2.717-.103-5.438-.197-8.163-.283-4.019-.12-8.047-.181-12.084-.183a479.42 479.42 0 0 0-55.417 3.383h-.013zm140.769-255.524l-6.466-22.118-.85.246 6.471 22.114.845-.242zm-9.671-33.071l-6.258-21.406-.846.25 6.259 21.402.845-.246zm-9.35-31.971l-6.037-20.648-.846.25 6.038 20.648.845-.25zm-9-30.768l-5.821-19.923-.846.25 5.825 19.919.842-.246zm-8.679-29.691l-5.6-19.156-.851.25 5.601 19.151.85-.245zm-8.342-28.514l-5.371-18.382-.85.25 5.379 18.381.842-.249zm-8.004-27.393l-5.167-17.66-.846.245 5.162 17.657.851-.242zm-7.696-26.297l-4.946-16.927-.85.25 4.95 16.927.846-.25zm-7.363-25.192l-4.754-16.236-.846.246 4.75 16.231.85-.241zm111.807 267.151l-.313-.095c-10.808-3.3-21.625-6.829-32.542-10.324l-.579-.188v32.821l.32.092c10.913 3.129 21.73 6.274 32.555 9.224l.559.15v-31.68zm-.884 30.53c-10.521-2.879-21.046-5.933-31.667-8.978v-30.93c10.621 3.408 21.146 6.837 31.667 10.049v29.88-.021zm141.019-66.905l-.195-.191a541.901 541.901 0 0 1-47.93-55.76l-1.192.416v83.324l.196.195a554.715 554.715 0 0 0 48.063 42.72l1.079.833V258.76h-.021zm-1.325 68.804a552.433 552.433 0 0 1-46.692-41.57v-80.823a542.397 542.397 0 0 0 46.692 54.118v68.275zm1.325 20.902l-.27-.2a567.679 567.679 0 0 1-47.956-39.008l-1.104-1.008v80.774l.304.191c15.462 9.63 31.482 18.726 48.06 27.289l.966.487v-68.533.008zm-1.325 66.363a691.191 691.191 0 0 1-46.667-26.539v-77.049a570.377 570.377 0 0 0 46.667 37.912v65.693-.017zm357.628 132.784l-.416-.03c-26.118-2.02-52.231-3.966-78.152-5.857l-.479-.034v35.413h.417c26.017.514 52.069 1.044 78.155 1.591h.446v-31.1l.029.017zm-.879 30.192c-25.775-.542-51.533-1.067-77.272-1.575v-33.6a19489.19 19489.19 0 0 1 77.272 5.791v29.384zm15-90.864l-.358-.071c-33.751-6.557-67.606-12.807-100.606-18.86l-.521-.096v30.038l.379.054c33.126 4.616 66.901 9.383 100.602 14.39l.504.075v-25.53zm-.883 24.51c-33.405-4.962-66.881-9.691-99.719-14.265v-28.214c32.718 6.004 66.252 12.199 99.719 18.698v23.781zm91.398-5.909l-.346-.07c-20.901-4.583-42.176-9.003-63.593-13.29l-.529-.109v24.322l.375.063c21.362 3.262 42.617 6.632 63.584 10.128l.513.083v-21.127h-.004zm-.88 20.086c-20.679-3.442-41.638-6.762-62.701-9.999v-22.498c21.113 4.221 42.084 8.583 62.697 13.099v19.373l.004.025zm-10.883 18.431l-.392-.041a6661.243 6661.243 0 0 0-47.588-5.237l-.492-.054v26.58h.417c15.897.833 31.759 1.691 47.584 2.574l.467.025v-23.847h.004zm-.884 22.964c-15.522-.866-31.095-1.716-46.717-2.549v-24.789a6849.049 6849.049 0 0 1 46.705 5.141v22.176l.012.021zm-316.068 22.889l-.046-263.577-.213-.125a405.362 405.362 0 0 1-4.696-2.874l-.675-.417.042 266.993h5.588zm-.884-.883h-3.837l-.038-264.527c1.27.783 2.542 1.561 3.817 2.333l.046 262.194h.012zm-19.671.883l-.041-276.634-.196-.129a564.853 564.853 0 0 1-5.417-3.67l-.692-.471.059 280.895 6.287.009zm-.883-.884h-4.534l-.058-278.337a429.693 429.693 0 0 0 4.538 3.066l.041 275.271h.013zm-22.892.884l-.042-293.44-.179-.133a547.172 547.172 0 0 1-6.321-4.8l-.712-.55.041 298.923h7.213zm-.884-.884h-5.45l-.037-296.243a505.483 505.483 0 0 0 5.446 4.124l.041 292.119zM48.66 144.266l-4.08-3.416-.567.679 4.08 3.412.566-.675z" fill="#2D2D2F"/><path fill-rule="evenodd" clip-rule="evenodd" d="M626.645 513.388a1058.286 1058.286 0 0 1-51.667-10.349v-71.087a668.215 668.215 0 0 0 51.667 18.152v63.284zM478.497 384.225V280.904a563.213 563.213 0 0 0 48.659 39.404v90.406a651.523 651.523 0 0 1-48.659-26.489zM283.193 1.813v196.813c23.334 9.641 46.026 19.469 69.41 26.247V51.703c-23.468-12.878-45.993-31.605-69.41-49.89zm0 422.678v131.372c23.15.808 46.251 1.621 69.41 2.187V435.323c-23.243-2.795-46.206-6.849-69.41-10.832z" fill="#fff"/><path opacity=".5" fill-rule="evenodd" clip-rule="evenodd" d="M81.09 437.206v121.506c9.188-.866 18.41-1.651 27.662-2.353V426.091c-9.346 3.258-18.592 6.991-27.663 11.115z" fill="#FFEF68"/><path fill-rule="evenodd" clip-rule="evenodd" d="M48.672 453.871v108.22c7.278-.833 14.589-1.617 21.934-2.35V442.172a389.834 389.834 0 0 0-21.934 11.699z" fill="#E6E7E8"/><path fill-rule="evenodd" clip-rule="evenodd" d="M22.45 470.227v94.989c5.906-.734 11.838-1.447 17.797-2.142V458.841a421.873 421.873 0 0 0-17.797 11.386z" fill="#DCDDDE"/><path d="M81.156 559.37a1502.26 1502.26 0 0 1 27.646-2.358l.613-.046V425.157l-.88.309c-9.366 3.262-18.63 7.007-27.717 11.132l.271.604-.27-.604-.388.179v122.66l.725-.067zm.595-1.387V437.627a332.594 332.594 0 0 1 26.339-10.608v128.735a1420.8 1420.8 0 0 0-26.339 2.241v-.012zm-33.017 4.674c7.275-.816 14.584-1.6 21.926-2.349l.516-.05V441.251l-.833.417a389.973 389.973 0 0 0-21.959 11.711l.283.5-.283-.5-.287.166v109.196l.637-.075v-.009zm.508-1.208v-107.25a396.135 396.135 0 0 1 20.78-11.107V559.22c-6.945.708-13.872 1.451-20.784 2.229h.005zm-26.733 4.191c5.9-.733 11.83-1.448 17.788-2.145l.416-.046V458.045l-.67.417a426.105 426.105 0 0 0-17.818 11.394l.25.371-.25-.371-.191.133v95.71l.496-.059h-.021zm.383-.937V470.46a423.649 423.649 0 0 1 16.913-10.832v103.05c-5.664.656-11.302 1.333-16.913 2.033v-.008zm504.923-244.737l-.275-.2a562.656 562.656 0 0 1-48.597-39.341l-1.104-1.004V384.6l.325.192a654.234 654.234 0 0 0 48.696 26.526l.955.466v-91.818zm-1.325 89.698a651.325 651.325 0 0 1-47.326-25.831V282.425a562.71 562.71 0 0 0 47.326 38.233v89.022-.016zM130.757 589.471v-51.019h-.884v51.019h.884zm35.475-.001v-53.201h-.883v53.201h.883zm-22.379.001v-52.107h-.884v52.107h.884zm39.038 0v-53.477h-.883v53.477h.883zm-43.909 0v-72.779h-.879v72.779h.879zM353.486 51.177l-.458-.25c-23.376-12.815-45.876-31.513-69.289-49.81L282.31 0v199.214l.546.225c23.333 9.636 46.046 19.481 69.501 26.28l1.129.325V51.177zm-1.75 172.504c-22.73-6.69-44.872-16.248-67.643-25.659V3.62c22.746 17.807 44.718 35.938 67.643 48.603V223.68z" fill="#2D2D2F"/><path opacity=".5" d="M353.486 51.177l-.458-.25c-23.376-12.815-45.876-31.513-69.289-49.81L282.31 0v199.214l.546.225c23.333 9.636 46.046 19.481 69.501 26.28l1.129.325V51.177z" fill="#FFEF68"/><path d="M353.265 434.748l-.583-.071c-23.217-2.804-46.168-6.853-69.376-10.861l-.775-.133v132.792l.637.025c23.155.808 46.251 1.625 69.418 2.191h.679V434.748zM351.94 557.35c-22.713-.558-45.372-1.358-68.084-2.15V425.257c22.746 3.925 45.28 7.891 68.084 10.666V557.35zm258.384-41.857v-61.526h-.883v61.526h.883zm-50.755-9.983v-69.05h-.883v69.05h.883z" fill="#2D2D2F"/><path d="M575.103 432.377l-.242-.85-15.854 4.512.241.85 15.855-4.512zm-.05 71.091l-.138-.87-15.854 2.478.133.867 15.859-2.475zm51.701-52.939l-.2-.858-16.759 3.858.192.862 16.767-3.862z" fill="#2D2D2F"/><path d="M610.016 453.542c-17.084-5.366-34.072-10.832-50.726-17.498l-.329.833c16.692 6.666 33.696 12.14 50.788 17.498l.267-.833zm16.688 60.284l-.108-.875-16.713 2.108a1142.348 1142.348 0 0 1-50.114-9.828l-.216-.446-.792.392.417.833.204.046c16.667 3.666 33.505 6.953 50.417 9.894h.059l16.858-2.12-.012-.004z" fill="#2D2D2F"/><path d="M627.308 449.609l-.471-.142a667.67 667.67 0 0 1-51.613-18.127l-.904-.362v72.582l.516.121a1074.437 1074.437 0 0 0 51.697 10.357l.113-.65-.113.65.779.138V449.6l-.004.009zm-1.321 62.992a1056.609 1056.609 0 0 1-50.347-10.095v-69.575a669.8 669.8 0 0 0 50.347 17.665v62.013-.008zm-486.83 71.224h1.025v2.567h-1.025v-2.567zm0-5.024h1.025v2.566h-1.025v-2.566zm0-5.025h1.025v2.567h-1.025v-2.567zm0-5.024h1.025v2.566h-1.025v-2.566zm0-5.024h1.025v2.566h-1.025v-2.566zm0-5.02h1.025v2.562h-1.025v-2.562zm0-5.024h1.025v2.566h-1.025v-2.566zm0-5.025h1.025v2.567h-1.025v-2.567zm0-5.024h1.025v2.566h-1.025v-2.566zm0-5.025h1.025v2.567h-1.025v-2.567zm0-5.024h1.025v2.566h-1.025v-2.566zm0-5.024h1.025v2.566h-1.025v-2.566zm0-5.025h1.025v2.566h-1.025v-2.566zm0-5.024h1.025v2.566h-1.025v-2.566zm0-5.021h1.025v2.567h-1.025v-2.567zm0-5.024h1.025v2.566h-1.025v-2.566zm0-5.025h1.025v2.567h-1.025v-2.567zm0-5.024h1.025v2.566h-1.025v-2.566zm0-5.024h1.025v2.566h-1.025v-2.566zm0-5.025h1.025v2.566h-1.025v-2.566zm0-5.024h1.025v2.566h-1.025v-2.566zm0-5.025h1.025v2.567h-1.025v-2.567zm0-5.024h1.025v2.566h-1.025v-2.566zm0-5.02h1.025v2.567h-1.025v-2.567zm0-5.024h1.025v2.566h-1.025v-2.566zm0-5.024h1.025v2.566h-1.025v-2.566zm0-5.025h1.025v2.566h-1.025v-2.566zm0-5.025h1.025v2.566h-1.025v-2.566zm0-5.024h1.025v2.567h-1.025v-2.567zm0-5.024h1.025v2.566h-1.025v-2.566zm0-5.021h1.025v2.567h-1.025v-2.567zm0-5.028h1.025v2.566h-1.025v-2.566zm0-5.02h1.025v2.566h-1.025v-2.566zm0-5.025h1.025v2.566h-1.025v-2.566zm0-5.024h1.025v2.566h-1.025v-2.566zm0-5.025h1.025v2.567h-1.025v-2.567zm0-5.024h1.025v2.566h-1.025v-2.566zm0-5.021h1.025v2.563h-1.025v-2.563zm0-5.024h1.025v2.566h-1.025v-2.566zm0-5.024h1.025v2.566h-1.025v-2.566zm0-5.025h1.025v2.566h-1.025v-2.566zm0-5.024h1.025v2.566h-1.025v-2.566zm0-5.025h1.025v2.567h-1.025v-2.567zm0-5.023h1.025v2.566h-1.025v-2.566zm0-5.026h1.025v2.567h-1.025v-2.567zm0-5.019h1.025v2.566h-1.025v-2.566zm0-5.024h1.025v2.566h-1.025v-2.566zm0-5.025h1.025v2.566h-1.025v-2.566zm0-5.024h1.025v2.566h-1.025v-2.566zm0-5.025h1.025v2.567h-1.025v-2.567zm0-5.024h1.025v2.566h-1.025v-2.566zm0-5.025h1.025v2.567h-1.025v-2.567zm0-5.024h1.025v2.566h-1.025v-2.566zm0-5.024h1.025v2.566h-1.025v-2.566zm0-5.025h1.025v2.567h-1.025v-2.567zm0-5.02h1.025v2.566h-1.025v-2.566zm0-5.025h1.025v2.567h-1.025v-2.567zm0-5.024h1.025v2.566h-1.025v-2.566zm0-5.025h1.025v2.567h-1.025v-2.567zm0-5.024h1.025v2.566h-1.025v-2.566zm0-5.024h1.025v2.566h-1.025v-2.566zm0-5.025h1.025v2.567h-1.025v-2.567zm0-5.024h1.025v2.566h-1.025v-2.566zm0-5.025h1.025v2.567h-1.025v-2.567zm0-5.024h1.025v2.566h-1.025v-2.566zm0-5.02h1.025v2.567h-1.025v-2.567zm0-5.025h1.025v2.566h-1.025v-2.566zm0-5.023h1.025v2.566h-1.025v-2.566zm0-5.026h1.025v2.567h-1.025v-2.567zm0-5.023h1.025v2.566h-1.025v-2.566zm0-5.025h1.025v2.567h-1.025v-2.567zm0-5.025h1.025v2.566h-1.025v-2.566zm0-5.023h1.025v2.566h-1.025v-2.566zm0-5.021h1.025v2.566h-1.025v-2.566zm0-5.024h1.025v2.566h-1.025v-2.566zm0-5.025h1.025v2.567h-1.025v-2.567zm0-5.024h1.025v2.566h-1.025v-2.566zm0-5.025h1.025v2.567h-1.025v-2.567zm0-5.024h1.025v2.566h-1.025v-2.566zm0-5.024h1.025v2.566h-1.025v-2.566zm0-5.025h1.025v2.566h-1.025v-2.566zm0-5.02h1.025v2.566h-1.025v-2.566zm0-5.025h1.025v2.567h-1.025v-2.567zm0-5.024h1.025v2.566h-1.025v-2.566zm0-5.024h1.025v2.567h-1.025v-2.567zm0-5.025h1.025v2.566h-1.025v-2.566zm0-5.023h1.025v2.566h-1.025v-2.566zm0-5.021h1.025v2.566h-1.025v-2.566zm0-5.024h1.025v2.566h-1.025v-2.566zm0-5.025h1.025v2.567h-1.025V136.7zm244.255 450.175h1.025v2.566h-1.025v-2.566zm0-5.024h1.025v2.566h-1.025v-2.566zm0-5.025h1.025v2.567h-1.025v-2.567zm0-5.024h1.025v2.566h-1.025v-2.566zm0-5.025h1.025v2.567h-1.025v-2.567zm0-5.024h1.025v2.566h-1.025v-2.566zm0-5.024h1.025v2.566h-1.025v-2.566zm0-5.025h1.025v2.567h-1.025v-2.567zm0-5.024h1.025v2.566h-1.025v-2.566zm0-5.025h1.025v2.567h-1.025v-2.567zm0-5.02h1.025v2.562h-1.025v-2.562zm0-5.024h1.025v2.567h-1.025v-2.567zm0-5.024h1.025v2.566h-1.025v-2.566zm0-5.025h1.025v2.567h-1.025v-2.567zm0-5.024h1.025v2.566h-1.025v-2.566zm0-5.024h1.025v2.566h-1.025v-2.566zm0-5.025h1.025v2.567h-1.025v-2.567zm0-5.024h1.025v2.566h-1.025v-2.566zm0-5.021h1.025v2.567h-1.025v-2.567zm0-5.024h1.025v2.566h-1.025v-2.566zm0-5.024h1.025v2.566h-1.025v-2.566zm0-5.025h1.025v2.566h-1.025v-2.566zm0-5.024h1.025v2.566h-1.025v-2.566zm0-5.025h1.025v2.567h-1.025v-2.567zm0-5.024h1.025v2.566h-1.025v-2.566zm0-5.021h1.025v2.567h-1.025v-2.567zm0-5.024h1.025v2.566h-1.025v-2.566zm0-5.024h1.025v2.566h-1.025v-2.566zm0-5.025h1.025v2.566h-1.025v-2.566zm0-5.024h1.025v2.566h-1.025v-2.566zm0-5.024h1.025v2.567h-1.025v-2.567zm0-5.025h1.025v2.562h-1.025v-2.562zm0-5.024h1.025v2.567h-1.025v-2.567zm0-5.025h1.025v2.566h-1.025v-2.566zm0-5.02h1.025v2.567h-1.025v-2.567zm0-5.024h1.025v2.566h-1.025v-2.566zm0-5.024h1.025v2.566h-1.025v-2.566zm0-5.025h1.025v2.567h-1.025v-2.567zm0-5.024h1.025v2.566h-1.025v-2.566zm0-5.025h1.025v2.567h-1.025v-2.567zm0-5.024h1.025v2.566h-1.025v-2.566zm0-5.02h1.025v2.566h-1.025v-2.566zm0-5.029h1.025v2.567h-1.025v-2.567zm0-5.02h1.025v2.566h-1.025v-2.566zm0-5.025h1.025v2.567h-1.025v-2.567zm0-5.024h1.025v2.566h-1.025v-2.566zm0-5.025h1.025v2.567h-1.025v-2.567zm0-5.024h1.025v2.566h-1.025v-2.566zm0-5.024h1.025v2.566h-1.025v-2.566zm0-5.025h1.025v2.567h-1.025V340.7zm0-5.019h1.025v2.566h-1.025v-2.566zm0-5.025h1.025v2.567h-1.025v-2.567zm0-5.024h1.025v2.562h-1.025v-2.562zm0-5.025h1.025v2.567h-1.025v-2.567zm0-5.024h1.025v2.566h-1.025v-2.566zm0-5.024h1.025v2.566h-1.025v-2.566zm0-5.025h1.025v2.567h-1.025v-2.567zm0-5.024h1.025v2.566h-1.025v-2.566zm0-5.025h1.025v2.567h-1.025v-2.567zm0-5.024h1.025v2.566h-1.025v-2.566zm0-5.024h1.025v2.566h-1.025v-2.566zm0-5.021h1.025v2.566h-1.025v-2.566zm0-5.024h1.025v2.562h-1.025v-2.562zm0-5.025h1.025v2.567h-1.025v-2.567zm0-5.024h1.025v2.566h-1.025v-2.566zm0-5.025h1.025v2.567h-1.025v-2.567zm0-5.024h1.025v2.566h-1.025v-2.566zm0-5.024h1.025v2.566h-1.025v-2.566zm0-5.021h1.025v2.566h-1.025v-2.566zm0-5.023h1.025v2.566h-1.025v-2.566zm0-5.026h1.025v2.567h-1.025V235.2zm0-5.023h1.025v2.566h-1.025v-2.566zm0-5.026h1.025v2.567h-1.025v-2.567zm0-5.023h1.025v2.566h-1.025v-2.566zm0-5.024h1.025v2.566h-1.025v-2.566zm0-5.025h1.025v2.566h-1.025v-2.566zm0-5.02h1.025v2.566h-1.025v-2.566zm0-5.025h1.025v2.567h-1.025v-2.567zm0-5.024h1.025v2.566h-1.025v-2.566zm0-5.025h1.025v2.567h-1.025v-2.567zm0-5.024h1.025v2.566h-1.025v-2.566zm0-5.024h1.025v2.566h-1.025v-2.566zm0-5.025h1.025v2.566h-1.025v-2.566zm0-5.024h1.025v2.566h-1.025v-2.566zm0-5.021h1.025v2.567h-1.025v-2.567zm0-5.024h1.025v2.566h-1.025v-2.566zm0-5.025h1.025v2.567h-1.025v-2.567zm0-5.024h1.025v2.566h-1.025v-2.566zm0-5.024h1.025v2.566h-1.025v-2.566zm0-5.025h1.025v2.566h-1.025v-2.566zm0-5.023h1.025v2.566h-1.025v-2.566zm0-5.026h1.025v2.567h-1.025v-2.567zm0-5.023h1.025v2.566h-1.025v-2.566zm0-5.021h1.025v2.567h-1.025v-2.567zm0-5.024h1.025v2.566h-1.025v-2.566zm0-5.024h1.025v2.566h-1.025v-2.566z" fill="#2D2D2F"/><path fill-rule="evenodd" clip-rule="evenodd" d="M268.826 435.101l-.312-.491.312-.071v.562zm-.708-2.924l-1 .233-1.459-2.295 1-.229 1.459 2.291zm-2.859-4.491l-1 .229-1.458-2.291 1-.233 1.458 2.295zm-2.858-4.496l-1 .233-1.459-2.295 1-.233 1.459 2.295zm-2.858-4.494l-.996.233-1.463-2.296 1-.229 1.459 2.292zm-2.855-4.492l-1 .233-1.458-2.295.996-.234 1.462 2.296zm-2.858-4.495l-1 .233-1.458-2.296 1-.233 1.458 2.296zm-2.859-4.496l-.995.234-1.459-2.296.996-.229 1.458 2.291zm-2.854-4.491l-1 .229-1.458-2.295.996-.229 1.462 2.295zm-2.858-4.495l-1 .233-1.459-2.295 1-.233 1.459 2.295zm-2.859-4.495l-1 .233-1.454-2.295.996-.233 1.458 2.295zm-2.854-4.491l-1 .233-1.458-2.3.996-.229 1.462 2.296zm-2.858-4.495l-1 .233-1.458-2.296 1-.233 1.458 2.296zm-2.858-4.496l-1 .234-1.459-2.296 1-.229 1.459 2.291zm-2.855-4.491l-1 .234-1.458-2.3 1-.229 1.458 2.295zm-2.858-4.496l-1 .229-1.459-2.291 1-.233 1.459 2.295zm-2.859-4.491l-1 .23-1.454-2.296.996-.233 1.458 2.299zm-2.854-4.495l-1 .229-1.462-2.295 1-.23 1.462 2.296zm-2.858-4.495l-1 .233-1.458-2.295 1-.234 1.458 2.296zm-2.858-4.495l-1 .233-1.459-2.295 1-.234 1.459 2.296zm-2.859-4.491l-.996.229-1.462-2.296 1-.229 1.458 2.296zm-2.854-4.496l-1 .234-1.458-2.3.995-.229 1.463 2.295zm-2.858-4.495l-1.001.234-1.458-2.296 1-.233 1.459 2.295zm-2.859-4.491l-.996.229-1.458-2.291.996-.233 1.458 2.295zm-2.858-4.495l-.996.229-1.459-2.291 1.001-.234 1.454 2.296zm-2.855-4.496l-.999.233-1.459-2.295 1-.234 1.458 2.296zm-2.858-4.495l-1 .233-1.458-2.295 1-.234 1.458 2.296zm-2.854-4.491l-1 .233-1.458-2.296.996-.233 1.462 2.296zm-2.859-4.496l-1 .234-1.458-2.296 1-.233 1.458 2.295z" fill="#2D2D2F"/><path d="M205.87 292.585h1.026v2.566h-1.026v-2.566zm0-5.023h1.026v2.566h-1.026v-2.566zm0-5.026h1.026v2.567h-1.026v-2.567zm0-5.023h1.026v2.566h-1.026v-2.566zm0-5.026h1.026v2.567h-1.026v-2.567zm0-5.019h1.026v2.566h-1.026v-2.566zm0-5.025h1.026v2.567h-1.026v-2.567zm0-5.024h1.026v2.566h-1.026v-2.566zm0-5.024h1.026v2.566h-1.026v-2.566zm0-5.025h1.026v2.566h-1.026v-2.566zm0-5.024h1.026v2.566h-1.026v-2.566zm0-5.025h1.026v2.567h-1.026v-2.567zm0-5.024h1.026v2.566h-1.026v-2.566zm0-5.025h1.026v2.567h-1.026v-2.567zm0-5.024h1.026v2.566h-1.026v-2.566zm0-5.02h1.026v2.566h-1.026v-2.566zm0-5.025h1.026v2.567h-1.026v-2.567zm0-5.023h1.026v2.566h-1.026v-2.566zm0-5.026h1.026v2.567h-1.026v-2.567zm0-5.024h1.026v2.566h-1.026v-2.566zm0-5.025h1.026v2.567h-1.026v-2.567zm0-5.024h1.026v2.566h-1.026v-2.566zm0-5.023h1.026v2.566h-1.026v-2.566zm0-5.021h1.026v2.566h-1.026v-2.566zm0-5.024h1.026v2.566h-1.026v-2.566zm0-5.025h1.026v2.567h-1.026v-2.567zm0-5.024h1.026v2.566h-1.026v-2.566zm0-5.025h1.026v2.567h-1.026v-2.567zm0-5.024h1.026v2.566h-1.026v-2.566zm0-5.024h1.026v2.566h-1.026v-2.566zm0-5.021h1.026v2.566h-1.026v-2.566zm0-5.024h1.026v2.566h-1.026v-2.566zm0-5.025h1.026v2.567h-1.026v-2.567zm0-5.024h1.026v2.566h-1.026v-2.566zm0-5.025h1.026v2.567h-1.026v-2.567zm0-5.024h1.026v2.566h-1.026v-2.566zm0-5.024h1.026v2.566h-1.026v-2.566zm0-5.025h1.026v2.567h-1.026v-2.567zm0-5.024h1.026v2.566h-1.026v-2.566zm0-5.02h1.026v2.567h-1.026v-2.567zm0-5.025h1.026v2.567h-1.026v-2.566zm0-5.024h1.026v2.566h-1.026v-2.566zm0-5.024h1.026v2.566h-1.026v-2.566zm0-5.025h1.026v2.566h-1.026v-2.566zm0-5.024h1.026V74.1h-1.026v-2.567zm0-5.024h1.026v2.566h-1.026V66.51zm0-5.025h1.026v2.567h-1.026v-2.567zm0-5.024h1.026v2.566h-1.026V56.46zm0-5.02h1.026v2.566h-1.026V51.44zm0-5.025h1.026v2.566h-1.026v-2.566zm0-5.025h1.026v2.567h-1.026v-2.566zm0-5.024h1.026v2.567h-1.026v-2.567zm0-5.024h1.026v2.566h-1.026v-2.566z" fill="#2D2D2F"/></svg>