<svg width="185" height="39" viewBox="0 0 185 39" fill="none" xmlns="http://www.w3.org/2000/svg"><g clip-path="url(#a)" fill="#2D2D2F"><path d="M19.754 0C8.854 0 0 8.74 0 19.5 0 30.259 8.854 39 19.754 39c10.899 0 19.75-8.741 19.75-19.5 0-10.76-8.852-19.5-19.75-19.5zm0 37.045C9.942 37.045 1.98 29.164 1.98 19.5c0-9.664 7.962-17.546 17.774-17.546 9.811 0 17.773 7.882 17.773 17.546s-7.963 17.545-17.773 17.545z"/><path d="M26.802 7a.464.464 0 0 0-.633.16.45.45 0 0 0-.063.228v6.099a.38.38 0 0 1-.242.357.395.395 0 0 1-.15.03H13.753c-.218 0-.37-.173-.392-.387v-6.1a.493.493 0 0 0-.065-.236.46.46 0 0 0-.63-.15c-4.417 2.684-7.093 7.344-7.093 12.498 0 5.155 2.676 9.815 7.136 12.5a.448.448 0 0 0 .239.064.448.448 0 0 0 .426-.277.435.435 0 0 0 .031-.175v-6.099c0-.214.174-.365.392-.386h11.961a.393.393 0 0 1 .362.238.38.38 0 0 1 .03.148v6.1a.485.485 0 0 0 .065.236.459.459 0 0 0 .63.15c4.46-2.684 7.136-7.344 7.136-12.498 0-5.155-2.72-9.815-7.178-12.5zM11.095 27.145l.066.73-.479-.58a12.453 12.453 0 0 1-2.757-7.806c0-2.835.971-5.586 2.757-7.806l.413-.511.066-.065-.066.751c-.062.614-.09 1.23-.087 1.848v11.57c0 .624.044 1.246.087 1.87zm15.01-4.723a.38.38 0 0 1-.24.357.394.394 0 0 1-.15.029H13.752c-.218 0-.37-.172-.392-.386v-5.845a.38.38 0 0 1 .242-.356.393.393 0 0 1 .15-.029h11.961a.395.395 0 0 1 .278.113.388.388 0 0 1 .114.274v5.843zm2.698 4.874l-.478.58.065-.73c.063-.614.092-1.231.089-1.848V13.7a17.295 17.295 0 0 0-.087-1.847l-.022-.322-.021-.344v-.086l.456.58a12.422 12.422 0 0 1 2.764 7.796c-.003 2.814-.982 5.627-2.766 7.817v.001zm40.507-8.14c-.109-.043-.24-.086-.24-.214a.205.205 0 0 1 .131-.194c.153-.064 3.916-1.396 3.916-5.777 0-4.875-3.33-7.774-8.941-7.774H50.58v28.648h14.836c4.329 0 8.984-3.028 8.984-7.903 0-4.66-3.567-6.292-5.09-6.786zM57.432 11.06a.191.191 0 0 1 .121-.18.199.199 0 0 1 .075-.014h5.395c1.784 0 3.002 1.182 3.002 2.943 0 1.374-1.088 2.855-3.132 2.855h-5.265a.197.197 0 0 1-.139-.056.19.19 0 0 1-.057-.136V11.06zm5.59 17.137h-5.394a.197.197 0 0 1-.181-.119.189.189 0 0 1-.015-.074v-5.712a.19.19 0 0 1 .121-.18.197.197 0 0 1 .075-.014h5.265c2.59 0 4.07 1.096 4.07 3.028 0 1.997-1.37 3.068-3.938 3.068l-.002.003zM120.325 16.6l-1.047-.215c-2.35-.493-4.633-1.116-4.633-3.113 0-1.997 1.892-2.9 3.763-2.9 2.197 0 4.372.967 6.026 2.642l4.307-4.21c-1.85-2.018-5.134-4.338-10.442-4.338-6.396 0-10.703 3.587-10.703 8.934 0 5.649 4.503 7.775 8.288 8.57l1.023.214c3.676.773 5.417 1.353 5.417 3.415 0 1.846-1.676 3.068-4.155 3.068-2.915 0-5.505-1.268-7.462-3.653l-4.416 4.274c2.349 2.749 5.46 5.24 11.965 5.24 5.55 0 11.181-3.178 11.181-9.277-.021-6.25-4.329-7.667-9.115-8.655l.003.004zm57.323-11.403v10.48c0 .025-.005.05-.014.074a.201.201 0 0 1-.107.105.193.193 0 0 1-.075.014h-8.919a.196.196 0 0 1-.181-.12.172.172 0 0 1-.014-.073V5.197h-7.31v28.648h7.312V22.592a.185.185 0 0 1 .057-.137.188.188 0 0 1 .138-.056h8.919a.2.2 0 0 1 .139.056.185.185 0 0 1 .058.137v11.253h7.352V5.197h-7.355zm-31.326 22.785c-3.285 0-6.831-2.703-6.831-8.654 0-5.434 3.33-8.268 6.613-8.268 2.394 0 4.07.988 5.396 3.178l5.612-3.673c-2.871-4.164-6.29-6.056-11.051-6.056-9.333 0-13.51 7.452-13.51 14.819 0 8.955 5.526 15.205 13.423 15.205 5.873 0 8.549-2.127 11.355-6.057l-5.655-3.758c-1.258 2.019-2.633 3.264-5.352 3.264zM90.825 4.466c-7.984 0-13.335 6.035-13.335 15.034 0 8.998 5.352 15.033 13.335 15.033 7.984 0 13.336-6.035 13.336-15.033 0-8.999-5.352-15.034-13.336-15.034zm0 23.516c-3.916 0-6.438-3.328-6.438-8.482 0-5.133 2.524-8.44 6.438-8.44 3.938 0 6.483 3.307 6.483 8.44 0 5.154-2.545 8.482-6.483 8.482z"/></g><defs><clipPath id="a"><path fill="#fff" d="M0 0h185v39H0z"/></clipPath></defs></svg>