<svg width="185" height="39" viewBox="0 0 185 39" fill="none" xmlns="http://www.w3.org/2000/svg">
<g clip-path="url(#clip0_101_3078)">
<path d="M19.7536 0C8.8541 0 0 8.74061 0 19.4996C0 30.2587 8.8541 38.9993 19.7536 38.9993C30.653 38.9993 39.5049 30.2587 39.5049 19.4996C39.5049 8.74061 30.6523 0 19.7536 0ZM19.7536 37.0452C9.9419 37.0452 1.98024 29.1636 1.98024 19.4996C1.98024 9.83565 9.9419 1.95413 19.7536 1.95413C29.5652 1.95413 37.5269 9.83565 37.5269 19.4996C37.5269 29.1636 29.5645 37.0452 19.7536 37.0452Z" fill="#2D2D2F"/>
<path d="M26.8021 7.00043C26.7325 6.95935 26.6531 6.93717 26.5719 6.93615C26.4908 6.93512 26.4109 6.95529 26.3402 6.99459C26.2695 7.03389 26.2106 7.09094 26.1694 7.15996C26.1282 7.22898 26.1063 7.30751 26.1058 7.3876V13.4867C26.106 13.5375 26.096 13.5878 26.0764 13.6348C26.0568 13.6818 26.0279 13.7244 25.9916 13.7604C25.9552 13.7963 25.9119 13.8247 25.8644 13.8441C25.8168 13.8634 25.7658 13.8733 25.7143 13.8731H13.753C13.5354 13.8731 13.383 13.7014 13.3615 13.4867V7.3876C13.3601 7.30457 13.3378 7.22321 13.2964 7.15091C13.2328 7.0484 13.1307 6.97498 13.0123 6.94676C12.894 6.91855 12.7691 6.93785 12.6652 7.00043C8.24884 9.68507 5.573 14.345 5.573 19.4995C5.573 24.654 8.24884 29.314 12.7088 31.9986C12.7807 32.042 12.8636 32.0643 12.9478 32.0629C13.0084 32.0648 13.0687 32.0543 13.125 32.0323C13.1813 32.0102 13.2325 31.9771 13.2753 31.9348C13.3182 31.8925 13.3518 31.842 13.3741 31.7864C13.3964 31.7308 13.407 31.6713 13.4052 31.6115V25.5124C13.4052 25.2976 13.5791 25.1471 13.7966 25.126H25.758C25.8094 25.1258 25.8604 25.1356 25.908 25.155C25.9556 25.1743 25.9988 25.2028 26.0352 25.2387C26.0716 25.2746 26.1004 25.3173 26.12 25.3643C26.1396 25.4113 26.1496 25.4616 26.1494 25.5124V31.6115C26.1504 31.6945 26.1729 31.776 26.2146 31.8482C26.278 31.9506 26.38 32.024 26.4982 32.0523C26.6165 32.0805 26.7412 32.0612 26.845 31.9986C31.305 29.314 33.9809 24.654 33.9809 19.4995C33.9809 14.345 31.2614 9.68507 26.8029 7.00043H26.8021ZM11.0949 27.1451L11.1607 27.8756L10.682 27.2956C8.89645 25.0754 7.92462 22.3241 7.92462 19.4893C7.92462 16.6545 8.89645 13.9032 10.682 11.683L11.0949 11.1717L11.1607 11.1066L11.0949 11.8583C11.033 12.4722 11.0041 13.0889 11.0083 13.7058V25.2764C11.0083 25.8996 11.052 26.522 11.0949 27.1451ZM26.1058 22.4216C26.106 22.4724 26.096 22.5227 26.0764 22.5697C26.0568 22.6167 26.0279 22.6594 25.9916 22.6953C25.9552 22.7312 25.9119 22.7597 25.8644 22.779C25.8168 22.7984 25.7658 22.8082 25.7143 22.808H13.753C13.5354 22.808 13.383 22.6364 13.3615 22.4216V16.5775C13.3615 16.5268 13.3716 16.4766 13.3913 16.4298C13.411 16.383 13.4399 16.3405 13.4762 16.3047C13.5126 16.269 13.5558 16.2406 13.6033 16.2214C13.6508 16.2021 13.7016 16.1923 13.753 16.1925H25.7143C25.7658 16.1923 25.8168 16.2022 25.8644 16.2215C25.9119 16.2409 25.9552 16.2693 25.9916 16.3052C26.0279 16.3412 26.0568 16.3839 26.0764 16.4308C26.096 16.4778 26.106 16.5281 26.1058 16.5789V22.4216ZM28.8031 27.2963L28.325 27.8763L28.3902 27.1458C28.4528 26.5317 28.4824 25.9148 28.479 25.2976V13.7014C28.4831 13.0845 28.4542 12.4679 28.3924 11.854L28.3702 11.5318L28.3487 11.1885V11.1023L28.8053 11.6823C30.593 13.8977 31.5671 16.646 31.5685 19.4784C31.5662 22.2916 30.5872 25.1048 28.8031 27.2949V27.2963Z" fill="#2D2D2F"/>
<path d="M69.3099 19.1562C69.2011 19.1131 69.0708 19.07 69.0708 18.9415C69.0704 18.9 69.0826 18.8594 69.1058 18.8249C69.129 18.7904 69.1622 18.7635 69.2011 18.7479C69.3535 18.6836 73.1171 17.3519 73.1171 12.971C73.1171 8.09623 69.7872 5.19682 64.1757 5.19682H50.5797V33.8454H65.416C69.745 33.8454 74.4003 30.8174 74.4003 25.942C74.4003 21.282 70.8328 19.6501 69.3099 19.1562ZM57.4321 11.0599C57.432 11.0345 57.437 11.0093 57.4468 10.9857C57.4567 10.9622 57.4711 10.9408 57.4893 10.9228C57.5076 10.9048 57.5292 10.8906 57.5531 10.8809C57.5769 10.8712 57.6024 10.8663 57.6282 10.8663H63.0228C64.807 10.8663 66.025 12.0476 66.025 13.8089C66.025 15.183 64.9372 16.6644 62.8926 16.6644H57.6282C57.6025 16.6646 57.5769 16.6598 57.5531 16.6502C57.5293 16.6406 57.5076 16.6264 57.4894 16.6084C57.4711 16.5905 57.4567 16.5692 57.4469 16.5457C57.437 16.5222 57.432 16.497 57.4321 16.4716V11.0599ZM63.0228 28.1971H57.6282C57.6025 28.1973 57.5769 28.1924 57.5531 28.1828C57.5293 28.1732 57.5076 28.159 57.4894 28.1411C57.4711 28.1231 57.4567 28.1018 57.4469 28.0783C57.437 28.0548 57.432 28.0296 57.4321 28.0042V22.2916C57.432 22.2661 57.437 22.2409 57.4468 22.2174C57.4567 22.1939 57.4711 22.1725 57.4893 22.1545C57.5076 22.1365 57.5292 22.1222 57.5531 22.1126C57.5769 22.1029 57.6024 22.0979 57.6282 22.098H62.8926C65.4826 22.098 66.9626 23.1938 66.9626 25.126C66.9626 27.1232 65.5921 28.1942 63.025 28.1942L63.0228 28.1971ZM120.324 16.6002L119.277 16.3854C116.927 15.8916 114.644 15.2692 114.644 13.2719C114.644 11.2747 116.536 10.3725 118.407 10.3725C120.604 10.3725 122.779 11.339 124.433 13.0141L128.74 8.80483C126.89 6.78569 123.606 4.46631 118.298 4.46631C111.902 4.46631 107.595 8.05314 107.595 13.4005C107.595 19.0488 112.098 21.1746 115.883 21.9694L116.906 22.1842C120.582 22.9571 122.323 23.5371 122.323 25.5986C122.323 27.4454 120.647 28.6668 118.168 28.6668C115.253 28.6668 112.663 27.3994 110.706 25.0142L106.29 29.2877C108.639 32.0367 111.75 34.5284 118.255 34.5284C123.805 34.5284 129.436 31.35 129.436 25.2509C129.415 19.0014 125.107 17.5842 120.321 16.5958L120.324 16.6002ZM177.647 5.19682V15.6768C177.647 15.7022 177.642 15.7275 177.633 15.751C177.623 15.7745 177.608 15.7959 177.59 15.8139C177.572 15.8319 177.55 15.8461 177.526 15.8558C177.503 15.8655 177.477 15.8705 177.451 15.8704H168.532C168.506 15.8705 168.481 15.8655 168.457 15.8558C168.433 15.8461 168.412 15.8319 168.393 15.8138C168.375 15.7958 168.361 15.7745 168.351 15.7509C168.341 15.7274 168.336 15.7022 168.337 15.6768V5.19682H161.027V33.8454H168.339V22.5918C168.339 22.5665 168.344 22.5413 168.353 22.5178C168.363 22.4943 168.377 22.473 168.396 22.455C168.414 22.4371 168.435 22.4229 168.459 22.4133C168.483 22.4036 168.509 22.3988 168.534 22.399H177.453C177.479 22.3988 177.505 22.4036 177.529 22.4133C177.552 22.4229 177.574 22.4371 177.592 22.455C177.611 22.4729 177.625 22.4943 177.635 22.5177C177.645 22.5412 177.65 22.5664 177.65 22.5918V33.8454H185.002V5.19682H177.647ZM146.321 27.9823C143.036 27.9823 139.49 25.2794 139.49 19.3279C139.49 13.8943 142.82 11.0599 146.103 11.0599C148.497 11.0599 150.173 12.0476 151.499 14.2384L157.111 10.5654C154.24 6.40144 150.821 4.50941 146.06 4.50941C136.727 4.50941 132.55 11.9607 132.55 19.3279C132.55 28.2833 138.076 34.5328 145.973 34.5328C151.846 34.5328 154.522 32.4063 157.328 28.4761L151.673 24.7184C150.415 26.7368 149.04 27.9823 146.321 27.9823ZM90.8254 4.46631C82.8415 4.46631 77.4898 10.5011 77.4898 19.4996C77.4898 28.4981 82.8415 34.5328 90.8254 34.5328C98.8092 34.5328 104.161 28.4981 104.161 19.4996C104.161 10.5011 98.8092 4.46631 90.8254 4.46631ZM90.8254 27.9823C86.9093 27.9823 84.3874 24.6541 84.3874 19.4996C84.3874 14.367 86.9108 11.0599 90.8254 11.0599C94.7629 11.0599 97.3078 14.367 97.3078 19.4996C97.3078 24.6541 94.7629 27.9823 90.8254 27.9823Z" fill="#2D2D2F"/>
</g>
<defs>
<clipPath id="clip0_101_3078">
<rect width="185" height="39" fill="white"/>
</clipPath>
</defs>
</svg>
