<svg width="169" height="35" viewBox="0 0 169 35" fill="none" xmlns="http://www.w3.org/2000/svg"><g clip-path="url(#a)" fill="#2D2D2F"><path d="M32.6 26.86l1.83-8.11H13.2A3.05 3.05 0 0 0 10.43 21l-.82 3.56a1.76 1.76 0 0 0 1.76 2.3H32.6zM38.77 0h8.92l-8 34.66H30.8l1.31-5.69-6.15 5.69H6.48c-4.5 0-7.3-3.64-6.26-8.15l1.74-7.57a10.87 10.87 0 0 1 10-8.15h24.3m20.73 7.96a3.05 3.05 0 0 0-2.82 2.29l-.82 3.56a1.76 1.76 0 0 0 1.76 2.3h18.5a3.07 3.07 0 0 0 2.82-2.34l.82-3.56a1.77 1.77 0 0 0-1.76-2.25h-18.5zm-1.17-8h24.61c4.56 0 7.4 3.65 6.35 8.15l-1.77 7.57a11 11 0 0 1-10.16 8.15H50.24c-4.56 0-7.4-3.64-6.35-8.15l1.77-7.57a11 11 0 0 1 10.16-8.15zM93.43 0h9.27l-4.27 18.57 14.81-7.82h16.39L108.9 21.94l15.47 12.72H110.6l-13.17-11.8-2.72 11.8h-9.28"/><path d="M136.27 18.75a3.062 3.062 0 0 0-2.84 2.25l-.82 3.56a1.776 1.776 0 0 0 .283 1.607 1.766 1.766 0 0 0 1.477.693h21.29l1.9-8.11h-21.29zm-1.39-8h34l-5.51 23.87h-9.5l1.23-5.33-5.76 5.33h-20c-4.56 0-7.4-3.64-6.35-8.15l1.77-7.57a10.998 10.998 0 0 1 10.12-8.15z"/></g><defs><clipPath id="a"><path fill="#fff" d="M0 0h168.89v34.67H0z"/></clipPath></defs></svg>