<svg width="169" height="35" viewBox="0 0 169 35" fill="none" xmlns="http://www.w3.org/2000/svg">
<g clip-path="url(#clip0_101_3082)">
<path d="M32.5999 26.86L34.4299 18.75H13.1999C12.5604 18.7867 11.9487 19.0237 11.4515 19.4276C10.9543 19.8314 10.5969 20.3816 10.4299 21L9.60994 24.56C9.52222 24.831 9.50156 25.1192 9.54976 25.3999C9.59796 25.6806 9.71357 25.9454 9.88666 26.1716C10.0597 26.3978 10.2851 26.5786 10.5435 26.6985C10.8019 26.8184 11.0855 26.8738 11.3699 26.86H32.5999ZM38.7699 0H47.6899L39.6899 34.66H30.7999L32.1099 28.97L25.9599 34.66H6.47994C1.97994 34.66 -0.820058 31.02 0.219942 26.51L1.95994 18.94C2.53808 16.6918 3.82077 14.6877 5.62021 13.2212C7.41965 11.7546 9.64131 10.9026 11.9599 10.79H36.2599" fill="#2D2D2F"/>
<path d="M56.99 18.75C56.3365 18.7789 55.7096 19.017 55.2019 19.4294C54.6941 19.8417 54.3323 20.4064 54.17 21.04L53.35 24.6C53.2623 24.871 53.2416 25.1592 53.2898 25.4399C53.338 25.7206 53.4536 25.9854 53.6267 26.2116C53.7998 26.4378 54.0252 26.6186 54.2835 26.7385C54.5419 26.8584 54.8255 26.9138 55.11 26.9H73.61C74.2691 26.865 74.8994 26.6184 75.4074 26.1969C75.9154 25.7754 76.274 25.2014 76.43 24.56L77.25 21C77.3256 20.7322 77.337 20.4503 77.2832 20.1773C77.2295 19.9043 77.1122 19.6477 76.9407 19.4286C76.7693 19.2094 76.5485 19.0337 76.2965 18.9158C76.0444 18.7979 75.7681 18.7411 75.49 18.75H56.99ZM55.82 10.75H80.43C84.99 10.75 87.83 14.4 86.78 18.9L85.01 26.47C84.4051 28.7334 83.0934 30.7445 81.2659 32.2104C79.4384 33.6763 77.1907 34.5205 74.85 34.62H50.24C45.68 34.62 42.84 30.98 43.89 26.47L45.66 18.9C46.2649 16.6366 47.5766 14.6255 49.404 13.1596C51.2315 11.6937 53.4793 10.8495 55.82 10.75Z" fill="#2D2D2F"/>
<path d="M93.4301 0H102.7L98.4301 18.57L113.24 10.75H129.63L108.9 21.94L124.37 34.66H110.6L97.4301 22.86L94.7101 34.66H85.4301" fill="#2D2D2F"/>
<path d="M136.27 18.75C135.619 18.7737 134.992 19.0048 134.481 19.4095C133.97 19.8142 133.602 20.3714 133.43 21L132.61 24.56C132.525 24.8309 132.506 25.1183 132.555 25.3981C132.604 25.6778 132.72 25.9415 132.893 26.1671C133.065 26.3926 133.29 26.5733 133.547 26.6939C133.804 26.8145 134.086 26.8715 134.37 26.86H155.66L157.56 18.75H136.27ZM134.88 10.75H168.88L163.37 34.62H153.87L155.1 29.29L149.34 34.62H129.34C124.78 34.62 121.94 30.98 122.99 26.47L124.76 18.9C125.363 16.6429 126.668 14.6364 128.488 13.1711C130.307 11.7058 132.546 10.8578 134.88 10.75Z" fill="#2D2D2F"/>
</g>
<defs>
<clipPath id="clip0_101_3082">
<rect width="168.89" height="34.67" fill="white"/>
</clipPath>
</defs>
</svg>
