<svg width="187" height="45" viewBox="0 0 187 45" fill="none" xmlns="http://www.w3.org/2000/svg"><g clip-path="url(#a)" fill="#2D2D2F"><path d="M23.22 24.552v13.86c0 1.046 0 1.046 1.047 1.245a4.549 4.549 0 0 1 3.7 4.705c0 .413-.094.659-.565.612H2.224c-1.36 0-1.47-.11-1.188-1.454.492-2.332 1.775-3.69 3.973-3.884.481-.042.696-.204.659-.696V15.716c0-2.363.816-4.34 2.868-5.678a5.881 5.881 0 0 1 3.27-.977h10.405c1.01 0 1.047 0 1.047 1.118-.021 4.79-.034 9.58-.037 14.373zm-4.845 2.515V15.141c0-.35.031-.716-.487-.716-1.753 0-3.512-.068-5.233.036-1.324.079-1.67.55-2.01 1.914-.16.927-.207 1.87-.141 2.808v19.344c0 1.046 0 1.046 1.046 1.046h5.904c.952 0 .968 0 .968-1.004-.032-3.824-.047-7.658-.047-11.502zm145.32-.042v11.821a6.136 6.136 0 0 1-1.261 3.764 6.15 6.15 0 0 1-3.302 2.207c-.455.117-.923.17-1.392.157h-6.176a6.058 6.058 0 0 1-6.28-6.19c-.036-2.442 0-4.884 0-7.32V15.403a6.082 6.082 0 0 1 3.721-5.804 5.765 5.765 0 0 1 2.497-.523h5.913a6.174 6.174 0 0 1 5.833 3.856c.31.768.462 1.59.447 2.418.027 3.885 0 7.78 0 11.675zm-4.851-.036V17.87a6.47 6.47 0 0 0-.235-1.897 1.683 1.683 0 0 0-1.45-1.396 19.955 19.955 0 0 0-5.354 0 1.573 1.573 0 0 0-1.397 1.307 7.991 7.991 0 0 0-.272 2.154v17.98a9.23 9.23 0 0 0 .214 1.903c.246 1.145.628 1.569 1.806 1.631a49.68 49.68 0 0 0 4.752 0c1.125-.063 1.434-.444 1.742-1.568.158-.622.23-1.262.215-1.903-.026-3.017-.021-6.029-.021-9.092zm-109.922.083v11.299c0 2.012-.597 3.785-2.161 5.15a5.497 5.497 0 0 1-3.732 1.453h-6.557a6.074 6.074 0 0 1-4.105-1.69 6.062 6.062 0 0 1-1.856-4.03V15.361c0-2.75 1.34-4.706 3.857-5.825a6.348 6.348 0 0 1 2.617-.46c1.71 0 3.427.053 5.139 0 3.752-.14 6.803 2.437 6.772 6.703.014 3.76.022 7.525.026 11.293zm-13.554-.089v9.113a9.78 9.78 0 0 0 .078 1.663c.21 1.26.78 1.777 2.093 1.825 1.455.052 2.91.052 4.365 0 1.266-.048 1.737-.523 2-1.736a9.83 9.83 0 0 0 .214-2.045V18.351a12.673 12.673 0 0 0-.152-1.782c-.194-1.391-.523-2.05-2.47-2.155-1.152-.062-2.308-.031-3.465 0-1.837.037-2.527.722-2.616 2.562v1.15l-.047 8.857zm20.096.032v-16.83c0-1.124 0-1.13 1.093-1.135h2.7c1.074 0 1.079 0 1.084 1.145v13.359c.026 1.568-.21 1.359 1.345 1.37h5.145c1.46 0 1.266.156 1.271-1.329V9.725c-.036-.492.163-.69.665-.68h3.6c.45 0 .618.183.597.612v33.91c0 1.595.178 1.37-1.34 1.386H69.18c-1.046 0-1.046 0-1.046-1.046V31.188c0-.878 0-.889-.932-.894H61.29c-.89 0-.906 0-.911.91v13.102c0 .402-.084.643-.56.632h-3.731c-.45 0-.613-.177-.587-.611.026-.434 0-.769 0-1.156l-.036-16.155zm131.421.083v16.83c0 1.088.099 1.046-1.047 1.046-3.517 0-7.028-.047-10.545 0a6.099 6.099 0 0 1-5.867-5.51c-.047-.471-.026-.942-.026-1.418V10.185c0-1.203-.037-1.12 1.109-1.114h3.088c.487 0 .712.157.675.659v26.335c-.022.683.04 1.366.183 2.034a1.77 1.77 0 0 0 1.811 1.495c1.759.052 3.517 0 5.27.036.414 0 .523-.23.492-.575-.031-.345 0-.6 0-.899V10.65a7.682 7.682 0 0 0 0-.774c-.057-.58.115-.862.775-.836 1.151.047 2.313.026 3.469 0 .43 0 .644.125.618.58v.9l-.005 16.578zm-64.266-.078V10.21c0-1.118 0-1.128 1.099-1.128 3.339 0 6.677.03 10.022 0a6.285 6.285 0 0 1 5.937 3.93c.315.782.469 1.62.453 2.464-.126 2.907-.11 5.819 0 8.726a6.187 6.187 0 0 1-1.806 4.509 6.211 6.211 0 0 1-4.506 1.822h-5.286c-1.046 0-1.046-.13-1.046 1.046v12.323c0 1.203.125 1.103-1.099 1.103h-2.722c-1.219 0-1.046 0-1.046-1.14V27.02zm4.867-7.288v3.973c0 1.689-.204 1.438 1.392 1.459h3.339c.425-.013.85-.05 1.271-.11 1.047-.115 1.434-.816 1.67-1.683.052-.251.074-.508.063-.764 0-1.882.062-3.764 0-5.646-.084-2.092-.801-2.458-2.617-2.547-1.455-.068-2.915.032-4.365 0-.675 0-.774.262-.764.832.016 1.49 0 2.99 0 4.486h.011zm-43.04 7.356v9.249c0 2.833.487 3.283 3.297 3.273.728 0 1.46.026 2.183 0 1.35-.079 1.91-.628 2.093-1.961 0-.084 0-.172.026-.256.168-1.814.168-1.814 2.057-1.814h2.187c.566 0 .764.245.743.773-.052 1.109 0 2.217-.11 3.33-.33 3.09-3.275 5.501-6.054 5.339-1.795-.105-3.601-.073-5.401 0-2.863.105-5.83-2.65-5.846-5.668-.016-3.016 0-6.08 0-9.118 0-5.055.032-10.106 0-15.162a6.191 6.191 0 0 1 4.145-5.615 4.95 4.95 0 0 1 1.381-.256c2.308-.094 4.622-.246 6.92.094a6.036 6.036 0 0 1 4.845 4.998c.114 1.192.163 2.39.147 3.587 0 .523-.183.674-.67.669h-3.6c-.482 0-.692-.146-.681-.664a6.094 6.094 0 0 0-.21-2.034 1.568 1.568 0 0 0-1.308-1.223 13.498 13.498 0 0 0-4.584 0 1.571 1.571 0 0 0-1.314 1.218 6.22 6.22 0 0 0-.21 2.034c-.041 3.043-.036 6.127-.036 9.207zm22.185 2.656V15.486c0-1.045 0-1.045-1.047-1.045h-4.632c-.554 0-.748-.189-.732-.748a73.68 73.68 0 0 0 0-3.848c0-.638.214-.805.816-.795 1.931.026 3.857 0 5.788 0h9.902c1.046 0 1.078 0 1.088 1.046v3.597c0 .57-.204.737-.753.727-1.502-.032-3.004 0-4.501 0-1.083 0-1.094 0-1.094 1.13v28.503c0 .878 0 .889-.926.899-1.073 0-2.146-.026-3.213 0-.56 0-.744-.162-.733-.727.031-1.626 0-3.252 0-4.878l.037-9.604zM178.27.01h5.904c.591 0 .895.116.732.795-.162.68 0 1.276-.188 1.903-.319 1.103-1.01 1.83-2.177 1.846-2.91.047-5.82.073-8.729 0-1.481-.037-2.219-.894-2.35-2.363-.199-2.165-.199-2.165 1.931-2.165L178.27.01z"/></g><defs><clipPath id="a"><path fill="#fff" transform="translate(.89)" d="M0 0h186v45H0z"/></clipPath></defs></svg>