<svg width="187" height="45" viewBox="0 0 187 45" fill="none" xmlns="http://www.w3.org/2000/svg">
<g clip-path="url(#clip0_101_3087)">
<path d="M23.2208 24.5521C23.2208 29.1704 23.2208 33.7905 23.2208 38.4123C23.2208 39.4579 23.2208 39.4579 24.2675 39.6566C25.3501 39.8602 26.3219 40.4495 27.0024 41.3149C27.6829 42.1803 28.0258 43.2631 27.9675 44.3621C27.9675 44.7751 27.8733 45.0209 27.4023 44.9738C27.1877 44.9738 26.9732 44.9738 26.7586 44.9738H2.22446C0.863776 44.9738 0.753865 44.864 1.03647 43.5203C1.52841 41.1885 2.8106 39.8291 5.00863 39.6357C5.4901 39.5939 5.70467 39.4318 5.66804 38.9403C5.66804 38.6423 5.66804 38.3443 5.66804 38.0411C5.66804 30.6029 5.66804 23.1613 5.66804 15.7162C5.66804 13.353 6.48444 11.3767 8.53593 10.0383C9.50536 9.39622 10.6437 9.05596 11.8068 9.06059C15.2713 9.06059 18.7393 9.06059 22.2108 9.06059C23.2208 9.06059 23.2575 9.06059 23.2575 10.1794C23.2365 14.9686 23.2243 19.7594 23.2208 24.5521ZM18.3747 27.0669V18.9839C18.3747 17.703 18.3747 16.422 18.3747 15.1411C18.3747 14.7908 18.4061 14.4248 17.888 14.4248C16.1348 14.4248 14.3764 14.3569 12.6546 14.4614C11.3306 14.5398 10.9851 15.0104 10.645 16.375C10.4857 17.3018 10.4382 18.2444 10.5037 19.1826C10.5037 25.6343 10.5037 32.0825 10.5037 38.5273C10.5037 39.573 10.5037 39.573 11.5504 39.573C13.5181 39.573 15.4859 39.573 17.4536 39.573C18.4061 39.573 18.4218 39.573 18.4218 38.5691C18.3904 34.7455 18.3747 30.9114 18.3747 27.0669Z" fill="#2D2D2F"/>
<path d="M163.695 27.0252C163.695 30.9673 163.695 34.9042 163.695 38.8464C163.703 40.2058 163.26 41.5294 162.434 42.6098C161.608 43.6903 160.447 44.4666 159.132 44.8171C158.677 44.9337 158.209 44.9865 157.74 44.974H151.564C150.739 45.0049 149.915 44.8666 149.145 44.5675C148.374 44.2684 147.673 43.815 147.085 43.2351C146.497 42.6551 146.033 41.961 145.724 41.1955C145.414 40.4299 145.265 39.6091 145.284 38.7836C145.248 36.342 145.284 33.9004 145.284 31.464C145.284 26.1102 145.284 20.7565 145.284 15.4027C145.244 14.1728 145.578 12.9596 146.242 11.9235C146.907 10.8873 147.87 10.0768 149.005 9.59927C149.788 9.24071 150.641 9.06204 151.502 9.07644C153.469 9.07644 155.442 9.07644 157.415 9.07644C158.244 9.06155 159.068 9.21366 159.836 9.52368C160.605 9.83371 161.303 10.2953 161.889 10.8809C162.475 11.4665 162.937 12.164 163.248 12.932C163.558 13.6999 163.71 14.5224 163.695 15.3504C163.722 19.235 163.695 23.1301 163.695 27.0252ZM158.844 26.9886C158.844 23.9457 158.844 20.9081 158.844 17.8704C158.86 17.2296 158.781 16.59 158.609 15.9726C158.55 15.615 158.377 15.286 158.115 15.0345C157.854 14.783 157.519 14.6224 157.159 14.5766C155.383 14.3361 153.582 14.3361 151.805 14.5766C151.461 14.6101 151.137 14.7564 150.884 14.9928C150.631 15.2292 150.464 15.5424 150.408 15.8837C150.22 16.5861 150.128 17.3107 150.136 18.0377C150.136 24.0294 150.136 30.0228 150.136 36.0179C150.141 36.6579 150.213 37.2957 150.35 37.921C150.596 39.066 150.978 39.4895 152.156 39.5522C153.726 39.6254 155.327 39.6306 156.908 39.5522C158.033 39.4895 158.342 39.1078 158.65 37.9837C158.808 37.362 158.88 36.7218 158.865 36.0806C158.839 33.0639 158.844 30.0524 158.844 26.9886Z" fill="#2D2D2F"/>
<path d="M48.9219 27.0721C48.9219 30.84 48.9219 34.6061 48.9219 38.3705C48.9219 40.3834 48.3253 42.1558 46.7605 43.5204C45.744 44.4566 44.4117 44.9756 43.0291 44.9738C40.8416 44.9738 38.6593 44.9738 36.4717 44.9738C34.9388 44.9486 33.4722 44.3448 32.3665 43.2839C31.2608 42.2229 30.5979 40.7832 30.5109 39.2541C30.5109 39.0815 30.5109 38.909 30.5109 38.7313C30.5109 30.9411 30.5109 23.1509 30.5109 15.3607C30.5109 12.6106 31.8506 10.6553 34.3679 9.53641C35.1978 9.20022 36.0896 9.04341 36.9846 9.07632C38.6959 9.07632 40.4124 9.1286 42.1238 9.07632C45.8761 8.93515 48.9272 11.5127 48.8958 15.779C48.9097 19.5399 48.9184 23.3043 48.9219 27.0721ZM35.3675 26.9833C35.3675 30.0209 35.3675 33.0585 35.3675 36.0962C35.3463 36.6516 35.3726 37.2078 35.4459 37.7588C35.6553 39.0188 36.2257 39.5364 37.5393 39.5835C38.9942 39.6357 40.4491 39.6357 41.904 39.5835C43.1704 39.5364 43.6414 39.0606 43.9031 37.8477C44.0459 37.1756 44.1178 36.4904 44.1177 35.8034C44.1177 29.986 44.1177 24.1687 44.1177 18.3513C44.1092 17.7542 44.0584 17.1584 43.9659 16.5685C43.7723 15.1777 43.4426 14.519 41.4957 14.4144C40.3444 14.3517 39.1878 14.383 38.0312 14.4144C36.1943 14.451 35.5035 15.1359 35.4146 16.9763C35.4146 17.3579 35.4146 17.7448 35.4146 18.1265L35.3675 26.9833Z" fill="#2D2D2F"/>
<path d="M55.4637 27.0147V10.1848C55.4637 9.06075 55.4637 9.05551 56.5575 9.05029H59.2579C60.3307 9.05029 60.336 9.05029 60.3412 10.1953V22.785C60.3412 23.0412 60.3412 23.3079 60.3412 23.5536C60.3674 25.1221 60.1319 24.913 61.6862 24.9234C63.4028 24.9234 65.1193 24.9234 66.8306 24.9234C68.2907 24.9234 68.0971 25.0803 68.1023 23.5954C68.1023 19.2281 68.1023 14.8607 68.1023 10.4933C68.1023 10.2371 68.1023 9.97047 68.1023 9.72474C68.0657 9.23328 68.2646 9.03461 68.767 9.04507C69.9654 9.04507 71.1691 9.04507 72.3676 9.04507C72.8176 9.04507 72.9851 9.22805 72.9642 9.65677C72.9642 9.91296 72.9642 10.1796 72.9642 10.4253C72.9642 21.471 72.9642 32.5184 72.9642 43.5675C72.9642 45.1622 73.1421 44.9374 71.6244 44.953C70.8132 44.953 69.9968 44.953 69.1804 44.953C68.1337 44.953 68.1337 44.953 68.1337 43.9074C68.1337 41.5494 68.1337 39.2019 68.1337 36.8387C68.1337 34.9565 68.1337 33.0691 68.1337 31.1869C68.1337 30.3086 68.1337 30.2981 67.2022 30.2929C65.2344 30.2929 63.2632 30.2929 61.2885 30.2929C60.3988 30.2929 60.3831 30.2929 60.3778 31.2026C60.3778 35.2702 60.3778 39.3379 60.3778 43.4055C60.3778 43.7087 60.3778 44.0067 60.3778 44.3047C60.3778 44.7073 60.2941 44.9478 59.8179 44.9374C58.5723 44.9374 57.332 44.9374 56.0865 44.9374C55.6364 44.9374 55.4742 44.7596 55.5003 44.3256C55.5265 43.8917 55.5003 43.5571 55.5003 43.1702L55.4637 27.0147Z" fill="#2D2D2F"/>
<path d="M186.885 27.0983V43.9282C186.885 45.0157 186.984 44.9739 185.838 44.9739C182.321 44.9739 178.81 44.9268 175.293 44.9739C173.812 44.9235 172.4 44.3365 171.32 43.3225C170.241 42.3085 169.568 40.9368 169.426 39.4632C169.379 38.9927 169.4 38.5221 169.4 38.0464V10.1847C169.4 8.98224 169.363 9.06589 170.509 9.07112C171.556 9.07112 172.566 9.07112 173.597 9.07112C174.084 9.07112 174.309 9.22797 174.272 9.72989C174.272 10.0279 174.272 10.3311 174.272 10.6292C174.272 19.1095 174.272 27.588 174.272 36.0648C174.25 36.7477 174.312 37.4307 174.455 38.0987C174.522 38.5261 174.743 38.9144 175.076 39.19C175.41 39.4656 175.833 39.6093 176.266 39.5939C178.025 39.6462 179.783 39.5939 181.536 39.6305C181.95 39.6305 182.059 39.4005 182.028 39.0554C181.997 38.7104 182.028 38.4542 182.028 38.1562V10.6501C182.041 10.3923 182.041 10.134 182.028 9.87628C181.971 9.29594 182.143 9.01361 182.803 9.03975C183.954 9.0868 185.116 9.06589 186.272 9.03975C186.702 9.03975 186.916 9.16524 186.89 9.6201C186.89 9.91811 186.89 10.2214 186.89 10.5194L186.885 27.0983Z" fill="#2D2D2F"/>
<path d="M122.619 27.0199V10.2108C122.619 9.09199 122.619 9.08155 123.718 9.08155C127.057 9.08155 130.395 9.11292 133.74 9.08155C134.584 9.06663 135.422 9.22191 136.205 9.5381C136.988 9.85429 137.698 10.3249 138.295 10.9218C138.891 11.5187 139.361 12.2296 139.677 13.0121C139.992 13.7945 140.146 14.6325 140.13 15.4758C140.004 18.3827 140.02 21.2949 140.13 24.2018C140.148 25.0361 139.998 25.8655 139.687 26.6403C139.377 27.4151 138.913 28.1193 138.324 28.7106C137.734 29.3019 137.031 29.7681 136.257 30.0813C135.483 30.3945 134.653 30.5483 133.818 30.5333H128.532C127.486 30.5333 127.486 30.4026 127.486 31.5789C127.486 35.4723 127.486 39.3656 127.486 43.259V43.902C127.486 45.1045 127.611 45.0052 126.387 45.0052H123.665C122.446 45.0052 122.619 45.0052 122.619 43.8654V27.0199ZM127.486 19.7316C127.486 21.0544 127.486 22.3823 127.486 23.7051C127.486 25.3938 127.282 25.1429 128.878 25.1638C129.992 25.1638 131.107 25.1638 132.217 25.1638C132.642 25.1508 133.067 25.1142 133.488 25.054C134.535 24.939 134.922 24.2384 135.158 23.3705C135.21 23.1197 135.232 22.8632 135.221 22.6072C135.221 20.725 135.283 18.8428 135.221 16.9606C135.137 14.8693 134.42 14.5033 132.604 14.4144C131.149 14.3464 129.689 14.4458 128.239 14.4144C127.564 14.4144 127.465 14.6758 127.475 15.2457C127.491 16.7358 127.475 18.2363 127.475 19.7316H127.486Z" fill="#2D2D2F"/>
<path d="M84.4462 27.0878C84.4462 30.1725 84.4462 33.2572 84.4462 36.3367C84.4462 39.1705 84.9329 39.6201 87.7433 39.6096C88.4707 39.6096 89.2034 39.6358 89.9256 39.6096C91.2758 39.5312 91.8358 38.9822 92.019 37.649C92.019 37.5654 92.019 37.4765 92.0451 37.3928C92.2126 35.5786 92.2126 35.5786 94.1019 35.5786C94.8345 35.5786 95.562 35.5786 96.2894 35.5786C96.8546 35.5786 97.0535 35.8243 97.0325 36.3524C96.9802 37.4608 97.0326 38.5692 96.9227 39.6828C96.5929 42.7728 93.6465 45.183 90.8676 45.0209C89.0726 44.9164 87.267 44.9477 85.4668 45.0209C82.6041 45.1255 79.6368 42.3702 79.6211 39.3535C79.6054 36.3367 79.6211 33.2729 79.6211 30.2353C79.6211 25.1795 79.6525 20.129 79.6211 15.0732C79.6675 13.8297 80.0878 12.6289 80.8271 11.6273C81.5664 10.6258 82.5905 9.86985 83.7659 9.45801C84.2119 9.30735 84.6771 9.22109 85.1475 9.20182C87.4554 9.10771 89.7686 8.95609 92.0661 9.29593C93.2919 9.52648 94.4161 10.1309 95.2839 11.026C96.1518 11.9211 96.7206 13.0628 96.9122 14.2942C97.0264 15.4862 97.0753 16.6835 97.0587 17.8808C97.0587 18.4036 96.8756 18.5553 96.3889 18.55C95.1904 18.55 93.9867 18.55 92.7883 18.55C92.3068 18.55 92.0975 18.4036 92.1079 17.886C92.1532 17.2012 92.0824 16.5136 91.8986 15.8522C91.8315 15.5393 91.6702 15.2544 91.4363 15.0357C91.2024 14.817 90.9072 14.675 90.5902 14.6288C89.0733 14.3674 87.5228 14.3674 86.0058 14.6288C85.6886 14.6737 85.3927 14.8145 85.1579 15.0322C84.9231 15.25 84.7606 15.5343 84.6922 15.847C84.5107 16.5088 84.44 17.196 84.4829 17.8808C84.441 20.9237 84.4462 24.0084 84.4462 27.0878Z" fill="#2D2D2F"/>
<path d="M106.631 29.7439C106.631 24.9896 106.631 20.2371 106.631 15.4863C106.631 14.4407 106.631 14.4407 105.584 14.4407C104.04 14.4407 102.496 14.4407 100.952 14.4407C100.398 14.4407 100.204 14.2524 100.22 13.693C100.251 12.4121 100.256 11.1259 100.22 9.84497C100.22 9.20712 100.434 9.0398 101.036 9.05026C102.967 9.0764 104.893 9.05026 106.824 9.05026H116.726C117.772 9.05026 117.804 9.05026 117.814 10.0959C117.814 11.2932 117.814 12.4957 117.814 13.693C117.814 14.2629 117.61 14.4302 117.061 14.4197C115.559 14.3884 114.057 14.4197 112.56 14.4197C111.477 14.4197 111.466 14.4197 111.466 15.5491V36.9851C111.466 39.3431 111.466 41.6906 111.466 44.0537C111.466 44.9321 111.466 44.9426 110.54 44.953C109.467 44.953 108.394 44.9269 107.327 44.953C106.767 44.953 106.583 44.7909 106.594 44.2263C106.625 42.6003 106.594 40.9743 106.594 39.3483L106.631 29.7439Z" fill="#2D2D2F"/>
<path d="M178.27 0.010498C180.238 0.010498 182.206 0.010498 184.174 0.010498C184.765 0.010498 185.069 0.125515 184.906 0.805194C184.744 1.48487 184.906 2.08091 184.718 2.7083C184.399 3.81148 183.708 4.53821 182.541 4.55389C179.631 4.60095 176.721 4.62709 173.812 4.55389C172.331 4.5173 171.593 3.65984 171.462 2.19069C171.263 0.0261741 171.263 0.0261823 173.393 0.0261823L178.27 0.010498Z" fill="#2D2D2F"/>
</g>
<defs>
<clipPath id="clip0_101_3087">
<rect width="186" height="45" fill="white" transform="translate(0.889893)"/>
</clipPath>
</defs>
</svg>
