<svg width="116" height="45" viewBox="0 0 116 45" fill="none" xmlns="http://www.w3.org/2000/svg"><g clip-path="url(#a)" fill="#2D2D2F"><path d="M9.903 29.399c3.235 0 5.023 1.261 5.023 3.526a12.21 12.21 0 0 1-.396 2.543l-1.05 4.73a13.47 13.47 0 0 0-.37 2.153c0 .645.226.916.766.916.287-.005.573-.043.852-.113l-.255 1.375c-.421.142-.863.21-1.306.203-1.08 0-1.674-.603-1.674-1.723.006-.262.044-.522.112-.774-1.249 1.807-3.009 2.726-5.308 2.726-2.782 0-4.471-1.549-4.471-4.046 0-4.072 4.03-4.588 7.125-4.818 1.022-.058 3.149-.058 3.804-.916.284-.374.51-1.378.51-2.152 0-1.404-1.079-2.094-3.292-2.094-2.555 0-3.919.968-4.487 3.184H3.77c.654-3.2 2.753-4.72 6.132-4.72zm-1.278 8.066c-2.13.142-5.081.459-5.081 3.327 0 1.72 1.249 2.753 3.264 2.753a4.931 4.931 0 0 0 3.379-1.291c1.134-1.003 1.533-1.865 2.127-4.388l.32-1.32c-.831.826-2.93.826-4.009.913v.006zm17.451-6.03c-.342-.03-.454-.055-.738-.055a4.93 4.93 0 0 0-3.008.916c-1.961 1.462-2.584 3.643-3.066 5.909l-1.358 6.298h-1.76l3.124-14.74h1.645l-.767 3.447c1.364-2.466 3.152-3.698 5.43-3.698a5.01 5.01 0 0 1 .907.058l-.41 1.865zm5.11 13.51c-3.635 0-5.749-2.259-5.749-6.166 0-4.734 2.954-9.438 8.06-9.438 3.195 0 5.283 1.894 5.283 4.82v.171h-1.76v-.029c0-2.149-1.363-3.468-3.634-3.468-4.117 0-6.19 4.194-6.19 7.857 0 3.04 1.476 4.733 4.089 4.733 2.213 0 3.973-1.32 4.825-3.672h1.818c-1.032 3.21-3.188 5.192-6.742 5.192zm12.097-12.449c1.505-2.094 3.293-3.097 5.535-3.097 2.555 0 4.258 1.49 4.258 3.759a13.377 13.377 0 0 1-.368 2.694l-1.846 8.651h-1.791l1.817-8.573c.32-1.465.338-1.75.338-2.469 0-1.574-1.105-2.523-2.95-2.523a5.513 5.513 0 0 0-2.528.673 5.578 5.578 0 0 0-1.944 1.766c-.639.917-1.022 1.862-1.364 3.44l-1.628 7.686H39.08l4.257-20.419h1.76l-1.815 8.412zm12.204 12.007h-1.76l3.095-14.74h1.76l-3.095 14.74zm3.692-17.55h-1.76l.594-2.956h1.788l-.622 2.956zm7.974 4.321h-2.95l-1.917 8.918A9.88 9.88 0 0 0 62.002 42c0 .746.511 1.09 1.562 1.09.496-.01.99-.067 1.475-.17l-.32 1.575a8.284 8.284 0 0 1-1.705.145c-1.504 0-2.836-.459-2.836-2.236 0-.517 0-.604.339-2.21l1.897-8.92h-2.613l.342-1.49h2.584l.958-4.476h1.76l-.936 4.476h2.951l-.306 1.49zM73.142 45c-3.689 0-5.873-2.35-5.873-6.308 0-5.276 3.346-9.322 7.747-9.322 3.491 0 5.593 2.258 5.593 6.024.004.72-.053 1.44-.17 2.152H69.111a6.16 6.16 0 0 0-.112 1.204c0 2.981 1.597 4.76 4.229 4.76 2.27 0 4.002-1.346 4.768-3.728h1.818c-.965 3.24-3.15 5.218-6.672 5.218zm5.707-8.919a4.65 4.65 0 0 0 .057-.832c0-2.782-1.475-4.414-4.005-4.414-2.724 0-4.825 1.977-5.563 5.246h9.511zm8.712 8.864c-3.63 0-5.732-2.259-5.732-6.166 0-4.734 2.95-9.438 8.06-9.438 3.21 0 5.28 1.894 5.28 4.82v.171h-1.76v-.029c0-2.149-1.36-3.468-3.631-3.468-4.117 0-6.19 4.194-6.19 7.857 0 3.04 1.476 4.733 4.088 4.733 2.214 0 3.973-1.32 4.826-3.672h1.817c-1.05 3.21-3.21 5.192-6.758 5.192zm16.266-13.671h-2.951l-1.916 8.918A9.88 9.88 0 0 0 98.676 42c0 .746.51 1.09 1.561 1.09.496-.01.99-.067 1.476-.17l-.319 1.575a8.25 8.25 0 0 1-1.703.145c-1.504 0-2.839-.459-2.839-2.236 0-.517 0-.604.342-2.21l1.894-8.92h-2.613l.342-1.49h2.58l.959-4.476h1.759l-.939 4.476h2.955l-.304 1.49zm10.332 2.8v-.2c0-2.007-1.191-2.985-3.606-2.985-2.127 0-3.491.95-3.491 2.44 0 1.836 2.357 2.381 3.973 3.01 2.329.89 3.919 1.807 3.919 4.13 0 3.227-3.066 4.476-5.79 4.476-3.513 0-5.65-1.749-5.65-4.705a3.712 3.712 0 0 1 .029-.516h1.702v.4c0 2.153 1.447 3.356 4.031 3.356 2.299 0 3.89-1.145 3.89-2.81 0-1.833-1.917-2.407-4.2-3.327-1.817-.746-3.606-1.578-3.606-3.872 0-2.465 2.127-4.101 5.391-4.101 3.264 0 5.139 1.578 5.139 4.359v.345h-1.731zm-93.34-13.652h-4.43l-.68-4.563H8.19l-2.584 4.563H.89L12.87 0h4.583l3.366 20.422zm-5.48-7.864L14.23 4.814l-4.315 7.744h5.423zM34.27 0c3.293 0 7.41.174 7.41 4.734 0 2.494-1.475 4.388-3.775 4.84 1.872.645 2.894 2.094 2.894 4.16 0 2.839-1.814 5.533-4.57 6.278-1.163.323-2.127.404-4.542.404H22.32L26.606-.006 34.27 0zm-6.917 16.921h4.203c2.185 0 4.912-.142 4.912-3.152 0-2.553-2.386-2.44-4.174-2.44h-3.756l-1.185 5.592zM29.17 8.32h4.06c1.986 0 4.03-.323 4.03-2.84 0-2.065-2.044-2.007-3.49-2.007h-3.578L29.17 8.32zM52.181 0c3.804 0 4.79.116 6.247.645 2.782 1.033 4.456 3.956 4.456 7.657 0 3.127-1.08 6.28-2.897 8.432-2.753 3.298-5.848 3.672-9.85 3.672H42.7L46.96-.016 52.181 0zm-4.343 16.72h2.67c1.788 0 3.49-.086 4.966-1.232 1.789-1.377 2.98-4.159 2.98-6.911 0-3.501-1.843-4.84-5.165-4.84h-2.724L47.838 16.72z"/></g><defs><clipPath id="a"><path fill="#fff" transform="translate(.89)" d="M0 0h115v45H0z"/></clipPath></defs></svg>