<svg width="116" height="45" viewBox="0 0 116 45" fill="none" xmlns="http://www.w3.org/2000/svg">
<g clip-path="url(#clip0_101_3099)">
<path d="M9.90264 29.3987C13.1379 29.3987 14.9264 30.6603 14.9264 32.9255C14.884 33.7848 14.7513 34.6372 14.5304 35.4682L13.4796 40.1986C13.2981 40.9045 13.1742 41.6243 13.1091 42.3508C13.1091 42.9961 13.3359 43.2672 13.8756 43.2672C14.1632 43.2623 14.4493 43.2244 14.7284 43.1542L14.4729 44.5288C14.052 44.6709 13.6103 44.7397 13.1666 44.7321C12.0872 44.7321 11.4931 44.1287 11.4931 43.009C11.4991 42.7473 11.5367 42.4872 11.6049 42.2346C10.3561 44.0416 8.5964 44.9612 6.29691 44.9612C3.51517 44.9612 1.82568 43.4124 1.82568 40.9149C1.82568 36.8428 5.85618 36.3265 8.9509 36.0974C9.9729 36.0393 12.0999 36.0393 12.7546 35.181C13.0389 34.8067 13.2656 33.8032 13.2656 33.0288C13.2656 31.6251 12.1862 30.9346 9.9729 30.9346C7.41791 30.9346 6.05419 31.9026 5.4857 34.1194H3.77067C4.42538 30.9185 6.52367 29.3987 9.90264 29.3987ZM8.62514 37.4655C6.49492 37.6075 3.54391 37.9237 3.54391 40.7923C3.54391 42.5121 4.79266 43.5447 6.80791 43.5447C8.05477 43.5589 9.26119 43.098 10.1869 42.254C11.3207 41.2505 11.7199 40.3889 12.3139 37.8656L12.6333 36.5459C11.8029 37.3719 9.70463 37.3719 8.62514 37.4591V37.4655Z" fill="#2D2D2F"/>
<path d="M26.0758 31.4349C25.7341 31.4058 25.6223 31.38 25.3381 31.38C24.2635 31.3484 23.2078 31.67 22.3296 32.2964C20.3686 33.7581 19.7458 35.9394 19.2636 38.2045L17.9062 44.5031H16.1465L19.27 29.7634H20.9147L20.1482 33.2096C21.512 30.7443 23.3005 29.5117 25.5776 29.5117C25.881 29.5038 26.1846 29.5233 26.4846 29.5698L26.0758 31.4349Z" fill="#2D2D2F"/>
<path d="M31.1857 44.945C27.5512 44.945 25.437 42.6863 25.437 38.7788C25.437 34.0451 28.3912 29.3406 33.4979 29.3406C36.6917 29.3406 38.7804 31.2347 38.7804 34.1613V34.3323H37.0206V34.3033C37.0206 32.1543 35.6569 30.8346 33.3862 30.8346C29.2694 30.8346 27.1967 35.0293 27.1967 38.6916C27.1967 41.7312 28.6722 43.4253 31.2847 43.4253C33.4979 43.4253 35.2577 42.1055 36.1104 39.7532H37.9276C36.8961 42.9638 34.7403 44.945 31.1857 44.945Z" fill="#2D2D2F"/>
<path d="M43.2835 32.4963C44.7878 30.4022 46.5763 29.3987 48.8183 29.3987C51.3733 29.3987 53.0755 30.8894 53.0755 33.1578C53.0446 34.0662 52.9215 34.9691 52.7082 35.8521L50.8623 44.503H49.0706L50.8878 35.9296C51.2072 34.4646 51.2263 34.1807 51.2263 33.4611C51.2263 31.8865 50.1213 30.9378 48.2753 30.9378C47.3918 30.9559 46.5252 31.1867 45.7476 31.6109C44.97 32.0352 44.3037 32.6407 43.8041 33.3772C43.1654 34.2936 42.7821 35.239 42.4404 36.8169L40.8116 44.503H39.0806L43.3378 24.0842H45.0976L43.2835 32.4963Z" fill="#2D2D2F"/>
<path d="M55.4868 44.5032H53.7271L56.8218 29.7635H58.5815L55.4868 44.5032ZM59.1788 26.953H57.419L58.013 23.9973H59.8015L59.1788 26.953Z" fill="#2D2D2F"/>
<path d="M67.1535 31.2736H64.2025L62.2862 40.1923C62.1358 40.7843 62.0407 41.3893 62.002 41.9993C62.002 42.7446 62.513 43.0899 63.5637 43.0899C64.0598 43.0796 64.5538 43.0224 65.0392 42.9189L64.7199 44.4935C64.1578 44.6007 63.5863 44.6493 63.0144 44.6387C61.5102 44.6387 60.1784 44.1805 60.1784 42.4026C60.1784 41.8863 60.1784 41.7992 60.5169 40.1923L62.414 31.2736H59.8015L60.1432 29.7828H62.727L63.6851 25.3074H65.4448L64.5091 29.7828H67.4601L67.1535 31.2736Z" fill="#2D2D2F"/>
<path d="M73.1418 44.9999C69.453 44.9999 67.2685 42.6509 67.2685 38.6917C67.2685 33.4159 70.6155 29.3696 75.0165 29.3696C78.5072 29.3696 80.6087 31.6283 80.6087 35.3939C80.6127 36.1149 80.556 36.8349 80.4395 37.5462H69.1113C69.0343 37.9426 68.9968 38.3458 68.9995 38.7497C68.9995 41.7312 70.5964 43.5092 73.228 43.5092C75.4988 43.5092 77.2298 42.1636 77.9963 39.7823H79.8135C78.849 43.0219 76.6645 44.9999 73.1418 44.9999ZM78.849 36.0812C78.8931 35.8061 78.9123 35.5274 78.9065 35.2487C78.9065 32.4673 77.431 30.8346 74.9015 30.8346C72.1773 30.8346 70.0758 32.8125 69.338 36.0812H78.849Z" fill="#2D2D2F"/>
<path d="M87.5614 44.945C83.9301 44.945 81.8286 42.6863 81.8286 38.7788C81.8286 34.0451 84.7796 29.3406 89.8896 29.3406C93.0993 29.3406 95.1688 31.2347 95.1688 34.1613V34.3323H93.4091V34.3033C93.4091 32.1543 92.0485 30.8346 89.7778 30.8346C85.6611 30.8346 83.5884 35.0293 83.5884 38.6916C83.5884 41.7312 85.0639 43.4253 87.6763 43.4253C89.8896 43.4253 91.6493 42.1055 92.5021 39.7532H94.3193C93.2686 42.9638 91.1096 44.945 87.5614 44.945Z" fill="#2D2D2F"/>
<path d="M103.827 31.2736H100.876L98.9599 40.1923C98.8095 40.7843 98.7143 41.3893 98.6756 41.9993C98.6756 42.7446 99.1866 43.0899 100.237 43.0899C100.733 43.0795 101.227 43.0222 101.713 42.9189L101.394 44.4935C100.833 44.6007 100.262 44.6494 99.6913 44.6387C98.187 44.6387 96.852 44.1805 96.852 42.4026C96.852 41.8863 96.852 41.7992 97.1937 40.1923L99.0876 31.2736H96.4752L96.8169 29.7828H99.3974L100.356 25.3074H102.115L101.176 29.7828H104.131L103.827 31.2736Z" fill="#2D2D2F"/>
<path d="M114.159 34.0742V33.8741C114.159 31.8671 112.968 30.8894 110.553 30.8894C108.426 30.8894 107.062 31.8381 107.062 33.3288C107.062 35.1648 109.419 35.7102 111.035 36.3394C113.364 37.2299 114.954 38.1463 114.954 40.4696C114.954 43.6963 111.888 44.9451 109.164 44.9451C105.651 44.9451 103.514 43.1962 103.514 40.2405C103.512 40.0679 103.521 39.8954 103.543 39.7242H105.245V40.1243C105.245 42.2766 106.692 43.4801 109.276 43.4801C111.575 43.4801 113.166 42.3346 113.166 40.6696C113.166 38.8369 111.249 38.2625 108.966 37.3429C107.149 36.5975 105.36 35.765 105.36 33.4708C105.36 31.0056 107.487 29.3696 110.751 29.3696C114.015 29.3696 115.89 30.9475 115.89 33.7289V34.0742H114.159Z" fill="#2D2D2F"/>
<path d="M20.8188 20.422H16.3891L15.7088 15.8594H8.19077L5.60704 20.422H0.889893L12.8696 0H17.4526L20.8188 20.422ZM15.3384 12.5584L14.2301 4.81428L9.91539 12.5584H15.3384Z" fill="#2D2D2F"/>
<path d="M34.2708 0.000107186C37.5635 0.000107186 41.6802 0.17435 41.6802 4.73372C41.6802 7.22799 40.2047 9.12208 37.9052 9.57382C39.7768 10.2192 40.7988 11.668 40.7988 13.7331C40.7988 16.5726 38.9847 19.2669 36.2285 20.0123C35.066 20.335 34.1015 20.4156 31.687 20.4156H22.3198L26.6058 -0.00634766L34.2708 0.000107186ZM27.3531 16.9211H31.5561C33.7406 16.9211 36.4681 16.7791 36.4681 13.7686C36.4681 11.2162 34.0823 11.3292 32.2939 11.3292H28.538L27.3531 16.9211ZM29.1704 8.31862H33.2296C35.2161 8.31862 37.2601 7.99595 37.2601 5.4791C37.2601 3.41399 35.2161 3.47207 33.7694 3.47207H30.1924L29.1704 8.31862Z" fill="#2D2D2F"/>
<path d="M52.1813 2.13627e-05C55.985 2.13627e-05 56.9719 0.116184 58.4282 0.645368C61.21 1.67792 62.8835 4.60134 62.8835 8.3024C62.8835 11.4291 61.804 14.5816 59.9868 16.7339C57.2338 20.0316 54.1391 20.4059 50.1373 20.4059H42.6991L46.9595 -0.0161133L52.1813 2.13627e-05ZM47.8378 16.7209H50.5078C52.2963 16.7209 53.9985 16.6338 55.474 15.4883C57.2625 14.1105 58.4538 11.3291 58.4538 8.57667C58.4538 5.07567 56.611 3.73658 53.2895 3.73658H50.5653L47.8378 16.7209Z" fill="#2D2D2F"/>
</g>
<defs>
<clipPath id="clip0_101_3099">
<rect width="115" height="45" fill="white" transform="translate(0.889893)"/>
</clipPath>
</defs>
</svg>
