<svg width="119" height="43" viewBox="0 0 119 43" fill="none" xmlns="http://www.w3.org/2000/svg"><g clip-path="url(#a)" fill-rule="evenodd" clip-rule="evenodd" fill="#2D2D2F"><path d="M8.922 0L6.917 5.621h27.849L36.77 0H8.92zm-3.02 8.432l-2.005 5.634h27.836l2.005-5.634H5.902zm-3.007 8.445L.89 22.498h27.848l2.005-5.621H2.895zm57.201 7.762v.118a11.915 11.915 0 0 1 3.122 1.852 8.147 8.147 0 0 1 2.197 3.026c.49 1.17.707 2.44.63 3.711 0 4.716-2.428 8.104-6.425 9.194a16.763 16.763 0 0 1-4.87.473H42.67V8.55h10.704a19.48 19.48 0 0 1 5.038.473c3.855 1.077 6.426 3.809 6.426 8.169a7.754 7.754 0 0 1-.51 3.023 7.624 7.624 0 0 1-1.637 2.572 8.06 8.06 0 0 1-2.596 1.852zm-10.718 3.638v9.062h4.639a4.87 4.87 0 0 0 3.585-1.011 4.53 4.53 0 0 0 1.018-1.617 4.609 4.609 0 0 0 .268-1.903 5.03 5.03 0 0 0-.874-2.981c-.99-1.248-2.198-1.55-4.28-1.55h-4.356zm0-5.963h3.765a7.625 7.625 0 0 0 2.313-.184 3.697 3.697 0 0 0 1.966-1.506 3.837 3.837 0 0 0 .605-2.434 3.527 3.527 0 0 0-.573-2.406 3.393 3.393 0 0 0-1.998-1.403 8.805 8.805 0 0 0-2.57-.236h-3.56l.052 8.17zM76.12 43V14.329h-9.69V8.55h26.86l-1.916 5.779h-8.533v28.67H76.12zm19.277 0V8.55h21.757l-1.889 5.779h-13.211v7.63h5.384c4.344 0 6.593 1.078 8.161 2.443a10.217 10.217 0 0 1 2.555 3.702c.569 1.414.82 2.941.735 4.468a10.086 10.086 0 0 1-.911 4.77 9.852 9.852 0 0 1-3.022 3.754c-2.08 1.484-4.278 1.904-8.737 1.904H95.398zm6.657-5.779h5.037a4.299 4.299 0 0 0 2.119-.28 4.392 4.392 0 0 0 1.737-1.27 5.076 5.076 0 0 0 .989-3.283 4.625 4.625 0 0 0-.38-2.194 4.515 4.515 0 0 0-1.355-1.746 4.89 4.89 0 0 0-3.174-.867h-4.973v9.64z"/></g><defs><clipPath id="a"><path fill="#fff" transform="translate(.89)" d="M0 0h118v43H0z"/></clipPath></defs></svg>