<svg width="119" height="43" viewBox="0 0 119 43" fill="none" xmlns="http://www.w3.org/2000/svg">
<g clip-path="url(#clip0_101_3113)">
<path fill-rule="evenodd" clip-rule="evenodd" d="M8.92191 0L6.91712 5.62126H34.7657L36.7705 0H8.92191ZM5.90187 8.43189L3.89708 14.0663H31.7328L33.7376 8.43189H5.90187ZM2.89468 16.8769L0.889893 22.4982H28.7385L30.7433 16.8769H2.89468Z" fill="#2D2D2F"/>
<path fill-rule="evenodd" clip-rule="evenodd" d="M60.0955 24.6389V24.7571C61.2221 25.2095 62.275 25.8339 63.2184 26.6089C64.1714 27.4286 64.9235 28.4648 65.4145 29.6348C65.9054 30.8048 66.1216 32.0759 66.0456 33.3465C66.0456 38.0616 63.6168 41.4501 59.62 42.5402C58.027 42.9353 56.3867 43.0946 54.7494 43.013H42.6693V8.54997H53.3743C55.0664 8.48784 56.7593 8.64673 58.412 9.02279C62.2674 10.0998 64.8376 12.8316 64.8376 17.192C64.8706 18.2247 64.6973 19.2534 64.3283 20.2154C63.9593 21.1773 63.4024 22.0523 62.6915 22.787C61.9545 23.5736 61.0721 24.2031 60.0955 24.6389ZM49.3776 28.2769V37.3392H54.0169C55.2953 37.4915 56.5814 37.1288 57.6024 36.3279C58.0511 35.8698 58.3982 35.3183 58.6199 34.711C58.8417 34.1036 58.9329 33.4546 58.8875 32.8081C58.9173 31.7441 58.6109 30.6987 58.0136 29.8267C57.0241 28.579 55.8161 28.2769 53.7342 28.2769H49.3776ZM49.3776 22.3142H53.143C53.9187 22.3713 54.6985 22.3093 55.4562 22.1303C56.2608 21.8727 56.9547 21.3411 57.4223 20.6242C57.89 19.9073 58.1032 19.0482 58.0265 18.1902C58.132 17.3433 57.9281 16.4864 57.4539 15.7836C56.9796 15.0808 56.2683 14.5815 55.4562 14.3814C54.615 14.1767 53.7494 14.0971 52.886 14.145H49.3262L49.3776 22.3142ZM76.121 42.9999V14.3288H66.4312V8.54997H93.2903L91.3754 14.3288H82.8422V42.9999H76.121ZM95.3979 42.9999V8.54997H117.155L115.266 14.3288H102.055V21.9596H107.439C111.783 21.9596 114.032 23.0365 115.6 24.4024C116.712 25.4252 117.585 26.6904 118.155 28.1044C118.724 29.5184 118.975 31.0451 118.89 32.5717C118.979 34.2145 118.666 35.8541 117.979 37.3423C117.293 38.8305 116.254 40.1204 114.957 41.0955C112.876 42.5796 110.678 42.9999 106.219 42.9999H95.3979ZM102.055 37.221H107.092C107.81 37.3077 108.538 37.2115 109.211 36.9411C109.883 36.6707 110.48 36.2345 110.948 35.6712C111.647 34.7304 111.997 33.5673 111.937 32.3878C111.991 31.6355 111.86 30.8814 111.557 30.1935C111.255 29.5056 110.789 28.9057 110.202 28.4477C109.271 27.7995 108.152 27.4939 107.028 27.5808H102.055V37.221Z" fill="#2D2D2F"/>
</g>
<defs>
<clipPath id="clip0_101_3113">
<rect width="118" height="43" fill="white" transform="translate(0.889893)"/>
</clipPath>
</defs>
</svg>
