<svg width="400" height="730" viewBox="0 0 400 730" fill="none" xmlns="http://www.w3.org/2000/svg">
<path d="M389.44 447.799L389.44 442.691L393.242 446.66L394.908 444.933L389.44 439.225L389.44 436.775L391.787 436.775L397.254 442.483L398.909 440.744L395.107 436.775L400 436.775L400 434.326L395.107 434.326L398.909 430.357L397.254 428.618L391.787 434.326L389.44 434.326L389.44 431.876L394.908 426.168L393.242 424.441L389.44 428.41L389.44 423.302L387.093 423.302L387.093 428.41L383.292 424.441L381.626 426.168L387.093 431.876L387.093 434.325L384.747 434.325L379.279 428.618L377.625 430.357L381.426 434.325L376.533 434.325L376.533 436.775L381.426 436.775L377.625 440.744L379.279 442.483L384.747 436.775L387.093 436.775L387.093 439.225L381.626 444.933L383.292 446.66L387.093 442.691L387.093 447.799L389.44 447.799Z" fill="white" fill-opacity="0.5"/>
<path d="M376.289 730L376.289 724.892L380.249 728.861L381.985 727.134L376.289 721.426L376.289 718.977L378.733 718.977L384.429 724.684L386.152 722.945L382.192 718.977L387.289 718.977L387.289 716.527L382.192 716.527L386.152 712.558L384.429 710.819L378.733 716.527L376.289 716.527L376.289 714.077L381.985 708.369L380.249 706.642L376.289 710.611L376.289 705.503L373.845 705.503L373.845 710.611L369.885 706.642L368.149 708.369L373.845 714.077L373.845 716.527L371.4 716.527L365.705 710.819L363.981 712.558L367.941 716.527L362.845 716.527L362.845 718.976L367.941 718.977L363.981 722.945L365.705 724.684L371.4 718.977L373.845 718.977L373.845 721.426L368.149 727.134L369.885 728.861L373.845 724.892L373.845 730L376.289 730Z" fill="white" fill-opacity="0.5"/>
<path d="M354.778 236.148L354.778 231.04L358.738 235.009L360.474 233.282L354.778 227.574L354.778 225.124L357.223 225.124L362.918 230.832L364.641 229.093L360.681 225.124L365.778 225.124L365.778 222.674L360.681 222.674L364.641 218.706L362.918 216.967L357.223 222.674L354.778 222.674L354.778 220.225L360.474 214.517L358.738 212.79L354.778 216.759L354.778 211.651L352.334 211.651L352.334 216.759L348.374 212.79L346.638 214.517L352.334 220.225L352.334 222.674L349.889 222.674L344.194 216.967L342.47 218.706L346.43 222.674L341.334 222.674L341.334 225.124L346.43 225.124L342.47 229.093L344.194 230.832L349.889 225.124L352.334 225.124L352.334 227.574L346.638 233.282L348.374 235.009L352.334 231.04L352.334 236.148L354.778 236.148Z" fill="white" fill-opacity="0.5"/>
<path d="M389 24.4966L389 19.3891L392.96 23.3575L394.696 21.6305L389 15.9228L389 13.4732L391.445 13.4732L397.14 19.1809L398.863 17.4416L394.903 13.4732L400 13.4732L400 11.0235L394.903 11.0235L398.863 7.05503L397.14 5.31577L391.445 11.0235L389 11.0235L389 8.57384L394.696 2.86612L392.96 1.1391L389 5.10755L389 -4.80822e-07L386.556 -5.87671e-07L386.556 5.10755L382.596 1.1391L380.86 2.86612L386.556 8.57384L386.556 11.0235L384.111 11.0235L378.416 5.31577L376.692 7.05502L380.652 11.0235L375.556 11.0235L375.556 13.4732L380.652 13.4732L376.692 17.4416L378.416 19.1809L384.111 13.4732L386.556 13.4732L386.556 15.9228L380.86 21.6305L382.596 23.3575L386.556 19.3891L386.556 24.4966L389 24.4966Z" fill="white" fill-opacity="0.5"/>
<path d="M354.778 95.047L354.778 89.9394L358.738 93.9079L360.474 92.1809L354.778 86.4732L354.778 84.0235L357.223 84.0235L362.918 89.7312L364.641 87.9919L360.681 84.0235L365.778 84.0235L365.778 81.5738L360.681 81.5738L364.641 77.6054L362.918 75.8661L357.223 81.5738L354.778 81.5738L354.778 79.1242L360.474 73.4164L358.738 71.6894L354.778 75.6579L354.778 70.5503L352.334 70.5503L352.334 75.6579L348.374 71.6894L346.638 73.4164L352.334 79.1242L352.334 81.5738L349.889 81.5738L344.194 75.8661L342.47 77.6054L346.43 81.5738L341.334 81.5738L341.334 84.0235L346.43 84.0235L342.47 87.9919L344.194 89.7312L349.889 84.0235L352.334 84.0235L352.334 86.4732L346.638 92.1809L348.374 93.9079L352.334 89.9394L352.334 95.047L354.778 95.047Z" fill="white" fill-opacity="0.5"/>
<path d="M389 165.597L389 160.49L392.96 164.458L394.696 162.731L389 157.024L389 154.574L391.445 154.574L397.14 160.282L398.863 158.542L394.903 154.574L400 154.574L400 152.124L394.903 152.124L398.863 148.156L397.14 146.416L391.445 152.124L389 152.124L389 149.674L394.696 143.967L392.96 142.24L389 146.208L389 141.101L386.556 141.101L386.556 146.208L382.596 142.24L380.86 143.967L386.556 149.674L386.556 152.124L384.111 152.124L378.416 146.416L376.692 148.156L380.652 152.124L375.556 152.124L375.556 154.574L380.652 154.574L376.692 158.542L378.416 160.282L384.111 154.574L386.556 154.574L386.556 157.024L380.86 162.731L382.596 164.458L386.556 160.49L386.556 165.597L389 165.597Z" fill="white" fill-opacity="0.5"/>
<path d="M354.778 659.45L354.778 654.342L358.738 658.311L360.474 656.584L354.778 650.876L354.778 648.426L357.223 648.426L362.918 654.134L364.641 652.395L360.681 648.426L365.778 648.426L365.778 645.976L360.681 645.976L364.641 642.008L362.918 640.269L357.223 645.976L354.778 645.976L354.778 643.527L360.474 637.819L358.738 636.092L354.778 640.061L354.778 634.953L352.334 634.953L352.334 640.061L348.374 636.092L346.638 637.819L352.334 643.527L352.334 645.976L349.889 645.976L344.194 640.269L342.47 642.008L346.43 645.976L341.334 645.976L341.334 648.426L346.43 648.426L342.47 652.395L344.194 654.134L349.889 648.426L352.334 648.426L352.334 650.876L346.638 656.584L348.374 658.311L352.334 654.342L352.334 659.45L354.778 659.45Z" fill="white" fill-opacity="0.5"/>
<path d="M354.778 377.248L354.778 372.141L358.738 376.109L360.474 374.382L354.778 368.674L354.778 366.225L357.223 366.225L362.918 371.933L364.641 370.193L360.681 366.225L365.778 366.225L365.778 363.775L360.681 363.775L364.641 359.807L362.918 358.067L357.223 363.775L354.778 363.775L354.778 361.325L360.474 355.618L358.738 353.891L354.778 357.859L354.778 352.752L352.334 352.752L352.334 357.859L348.374 353.891L346.638 355.618L352.334 361.325L352.334 363.775L349.889 363.775L344.194 358.067L342.47 359.807L346.43 363.775L341.334 363.775L341.334 366.225L346.43 366.225L342.47 370.193L344.194 371.933L349.889 366.225L352.334 366.225L352.334 368.674L346.638 374.382L348.374 376.109L352.334 372.141L352.334 377.248L354.778 377.248Z" fill="white" fill-opacity="0.5"/>
<path d="M389 306.698L389 301.59L392.96 305.559L394.696 303.832L389 298.124L389 295.674L391.444 295.674L397.14 301.382L398.863 299.643L394.903 295.674L400 295.674L400 293.225L394.903 293.225L398.863 289.256L397.14 287.517L391.444 293.225L389 293.225L389 290.775L394.696 285.067L392.96 283.34L389 287.309L389 282.201L386.556 282.201L386.556 287.309L382.596 283.34L380.86 285.067L386.556 290.775L386.556 293.225L384.111 293.225L378.416 287.517L376.692 289.256L380.652 293.225L375.556 293.225L375.556 295.674L380.652 295.674L376.692 299.643L378.416 301.382L384.111 295.674L386.556 295.674L386.556 298.124L380.86 303.832L382.596 305.559L386.556 301.59L386.556 306.698L389 306.698Z" fill="white" fill-opacity="0.5"/>
<path d="M389 588.899L389 583.792L392.96 587.76L394.696 586.033L389 580.326L389 577.876L391.444 577.876L397.14 583.584L398.863 581.844L394.903 577.876L400 577.876L400 575.426L394.903 575.426L398.863 571.458L397.14 569.718L391.444 575.426L389 575.426L389 572.977L394.696 567.269L392.96 565.542L389 569.51L389 564.403L386.556 564.403L386.556 569.51L382.596 565.542L380.86 567.269L386.556 572.977L386.556 575.426L384.111 575.426L378.416 569.718L376.692 571.458L380.652 575.426L375.556 575.426L375.556 577.876L380.652 577.876L376.692 581.844L378.416 583.584L384.111 577.876L386.556 577.876L386.556 580.325L380.86 586.033L382.596 587.76L386.556 583.792L386.556 588.899L389 588.899Z" fill="white" fill-opacity="0.5"/>
<path d="M354.24 518.349L354.24 513.241L358.042 517.21L359.708 515.483L354.24 509.775L354.24 507.325L356.587 507.325L362.055 513.033L363.709 511.294L359.907 507.325L364.8 507.325L364.8 504.876L359.907 504.876L363.709 500.907L362.055 499.168L356.587 504.876L354.24 504.876L354.24 502.426L359.708 496.718L358.042 494.991L354.24 498.96L354.24 493.852L351.894 493.852L351.894 498.96L348.092 494.991L346.426 496.718L351.894 502.426L351.894 504.876L349.547 504.876L344.079 499.168L342.425 500.907L346.227 504.876L341.334 504.876L341.334 507.325L346.227 507.325L342.425 511.294L344.079 513.033L349.547 507.325L351.894 507.325L351.894 509.775L346.426 515.483L348.092 517.21L351.894 513.241L351.894 518.349L354.24 518.349Z" fill="white" fill-opacity="0.5"/>
<path d="M304.107 447.799L304.107 442.691L307.908 446.66L309.574 444.933L304.107 439.225L304.107 436.775L306.453 436.775L311.921 442.483L313.575 440.744L309.774 436.775L314.667 436.775L314.667 434.325L309.774 434.325L313.575 430.357L311.921 428.618L306.453 434.325L304.107 434.325L304.107 431.876L309.574 426.168L307.908 424.441L304.107 428.41L304.107 423.302L301.76 423.302L301.76 428.41L297.958 424.441L296.292 426.168L301.76 431.876L301.76 434.325L299.413 434.325L293.946 428.618L292.291 430.357L296.093 434.325L291.2 434.325L291.2 436.775L296.093 436.775L292.291 440.744L293.946 442.483L299.413 436.775L301.76 436.775L301.76 439.225L296.292 444.933L297.958 446.66L301.76 442.691L301.76 447.799L304.107 447.799Z" fill="white" fill-opacity="0.5"/>
<path d="M290.956 730L290.956 724.892L294.916 728.861L296.651 727.134L290.956 721.426L290.956 718.976L293.4 718.976L299.096 724.684L300.819 722.945L296.859 718.976L301.956 718.976L301.956 716.527L296.859 716.527L300.819 712.558L299.096 710.819L293.4 716.527L290.956 716.527L290.956 714.077L296.651 708.369L294.916 706.642L290.956 710.611L290.956 705.503L288.511 705.503L288.511 710.611L284.551 706.642L282.816 708.369L288.511 714.077L288.511 716.527L286.067 716.527L280.371 710.819L278.648 712.558L282.608 716.527L277.511 716.527L277.511 718.976L282.608 718.976L278.648 722.945L280.371 724.684L286.067 718.976L288.511 718.976L288.511 721.426L282.816 727.134L284.551 728.861L288.511 724.892L288.511 730L290.956 730Z" fill="white" fill-opacity="0.5"/>
<path d="M269.445 236.148L269.445 231.04L273.405 235.009L275.14 233.282L269.445 227.574L269.445 225.124L271.889 225.124L277.585 230.832L279.308 229.093L275.348 225.124L280.445 225.124L280.445 222.674L275.348 222.674L279.308 218.706L277.585 216.967L271.889 222.674L269.445 222.674L269.445 220.225L275.14 214.517L273.405 212.79L269.445 216.759L269.445 211.651L267 211.651L267 216.759L263.04 212.79L261.305 214.517L267 220.225L267 222.674L264.556 222.674L258.86 216.967L257.137 218.706L261.097 222.674L256 222.674L256 225.124L261.097 225.124L257.137 229.093L258.86 230.832L264.556 225.124L267 225.124L267 227.574L261.305 233.282L263.04 235.009L267 231.04L267 236.148L269.445 236.148Z" fill="white" fill-opacity="0.5"/>
<path d="M303.667 24.4966L303.667 19.3891L307.627 23.3575L309.362 21.6305L303.667 15.9228L303.667 13.4732L306.111 13.4732L311.807 19.1809L313.53 17.4416L309.57 13.4732L314.667 13.4732L314.667 11.0235L309.57 11.0235L313.53 7.05502L311.807 5.31577L306.111 11.0235L303.667 11.0235L303.667 8.57384L309.362 2.86612L307.627 1.1391L303.667 5.10754L303.667 -4.21086e-06L301.222 -4.31771e-06L301.222 5.10754L297.262 1.1391L295.527 2.86612L301.222 8.57384L301.222 11.0235L298.778 11.0235L293.082 5.31577L291.359 7.05502L295.319 11.0235L290.222 11.0235L290.222 13.4732L295.319 13.4732L291.359 17.4416L293.082 19.1809L298.778 13.4732L301.222 13.4732L301.222 15.9228L295.527 21.6305L297.262 23.3575L301.222 19.3891L301.222 24.4966L303.667 24.4966Z" fill="white" fill-opacity="0.5"/>
<path d="M269.445 95.047L269.445 89.9394L273.405 93.9079L275.14 92.1808L269.445 86.4732L269.445 84.0235L271.889 84.0235L277.585 89.7312L279.308 87.9919L275.348 84.0235L280.445 84.0235L280.445 81.5738L275.348 81.5738L279.308 77.6054L277.585 75.8661L271.889 81.5738L269.445 81.5738L269.445 79.1241L275.14 73.4164L273.405 71.6894L269.445 75.6579L269.445 70.5503L267 70.5503L267 75.6579L263.04 71.6894L261.305 73.4164L267 79.1241L267 81.5738L264.556 81.5738L258.86 75.8661L257.137 77.6054L261.097 81.5738L256 81.5738L256 84.0235L261.097 84.0235L257.137 87.9919L258.86 89.7312L264.556 84.0235L267 84.0235L267 86.4732L261.305 92.1808L263.04 93.9079L267 89.9394L267 95.047L269.445 95.047Z" fill="white" fill-opacity="0.5"/>
<path d="M303.667 165.597L303.667 160.49L307.627 164.458L309.362 162.731L303.667 157.024L303.667 154.574L306.111 154.574L311.807 160.282L313.53 158.542L309.57 154.574L314.667 154.574L314.667 152.124L309.57 152.124L313.53 148.156L311.807 146.416L306.111 152.124L303.667 152.124L303.667 149.674L309.362 143.967L307.627 142.24L303.667 146.208L303.667 141.101L301.222 141.101L301.222 146.208L297.262 142.24L295.527 143.967L301.222 149.674L301.222 152.124L298.778 152.124L293.082 146.416L291.359 148.156L295.319 152.124L290.222 152.124L290.222 154.574L295.319 154.574L291.359 158.542L293.082 160.282L298.778 154.574L301.222 154.574L301.222 157.024L295.527 162.731L297.262 164.458L301.222 160.49L301.222 165.597L303.667 165.597Z" fill="white" fill-opacity="0.5"/>
<path d="M269.445 659.45L269.445 654.342L273.405 658.311L275.14 656.584L269.445 650.876L269.445 648.426L271.889 648.426L277.585 654.134L279.308 652.395L275.348 648.426L280.445 648.426L280.445 645.976L275.348 645.976L279.308 642.008L277.585 640.269L271.889 645.976L269.445 645.976L269.445 643.527L275.14 637.819L273.405 636.092L269.445 640.061L269.445 634.953L267 634.953L267 640.061L263.04 636.092L261.305 637.819L267 643.527L267 645.976L264.556 645.976L258.86 640.269L257.137 642.008L261.097 645.976L256 645.976L256 648.426L261.097 648.426L257.137 652.395L258.86 654.134L264.556 648.426L267 648.426L267 650.876L261.305 656.584L263.04 658.311L267 654.342L267 659.45L269.445 659.45Z" fill="white" fill-opacity="0.5"/>
<path d="M269.445 377.248L269.445 372.141L273.405 376.109L275.14 374.382L269.445 368.674L269.445 366.225L271.889 366.225L277.585 371.933L279.308 370.193L275.348 366.225L280.445 366.225L280.445 363.775L275.348 363.775L279.308 359.807L277.585 358.067L271.889 363.775L269.445 363.775L269.445 361.325L275.14 355.618L273.405 353.891L269.445 357.859L269.445 352.752L267 352.752L267 357.859L263.04 353.891L261.305 355.618L267 361.325L267 363.775L264.556 363.775L258.86 358.067L257.137 359.807L261.097 363.775L256 363.775L256 366.225L261.097 366.225L257.137 370.193L258.86 371.933L264.556 366.225L267 366.225L267 368.674L261.305 374.382L263.04 376.109L267 372.141L267 377.248L269.445 377.248Z" fill="white" fill-opacity="0.5"/>
<path d="M303.667 306.698L303.667 301.59L307.627 305.559L309.362 303.832L303.667 298.124L303.667 295.674L306.111 295.674L311.807 301.382L313.53 299.643L309.57 295.674L314.667 295.674L314.667 293.225L309.57 293.225L313.53 289.256L311.807 287.517L306.111 293.225L303.667 293.225L303.667 290.775L309.362 285.067L307.627 283.34L303.667 287.309L303.667 282.201L301.222 282.201L301.222 287.309L297.262 283.34L295.527 285.067L301.222 290.775L301.222 293.225L298.778 293.225L293.082 287.517L291.359 289.256L295.319 293.225L290.222 293.225L290.222 295.674L295.319 295.674L291.359 299.643L293.082 301.382L298.778 295.674L301.222 295.674L301.222 298.124L295.527 303.832L297.262 305.559L301.222 301.59L301.222 306.698L303.667 306.698Z" fill="white" fill-opacity="0.5"/>
<path d="M303.667 588.899L303.667 583.792L307.627 587.76L309.362 586.033L303.667 580.325L303.667 577.876L306.111 577.876L311.807 583.584L313.53 581.844L309.57 577.876L314.667 577.876L314.667 575.426L309.57 575.426L313.53 571.458L311.807 569.718L306.111 575.426L303.667 575.426L303.667 572.976L309.362 567.269L307.627 565.542L303.667 569.51L303.667 564.403L301.222 564.403L301.222 569.51L297.262 565.542L295.527 567.269L301.222 572.976L301.222 575.426L298.778 575.426L293.082 569.718L291.359 571.458L295.319 575.426L290.222 575.426L290.222 577.876L295.319 577.876L291.359 581.844L293.082 583.584L298.778 577.876L301.222 577.876L301.222 580.325L295.527 586.033L297.262 587.76L301.222 583.792L301.222 588.899L303.667 588.899Z" fill="white" fill-opacity="0.5"/>
<path d="M268.907 518.349L268.907 513.241L272.708 517.21L274.375 515.483L268.907 509.775L268.907 507.325L271.254 507.325L276.721 513.033L278.376 511.294L274.574 507.325L279.467 507.325L279.467 504.876L274.574 504.876L278.376 500.907L276.721 499.168L271.254 504.876L268.907 504.876L268.907 502.426L274.375 496.718L272.708 494.991L268.907 498.96L268.907 493.852L266.56 493.852L266.56 498.96L262.759 494.991L261.093 496.718L266.56 502.426L266.56 504.876L264.214 504.876L258.746 499.168L257.092 500.907L260.893 504.876L256 504.876L256 507.325L260.893 507.325L257.091 511.294L258.746 513.033L264.214 507.325L266.56 507.325L266.56 509.775L261.093 515.483L262.759 517.21L266.56 513.241L266.56 518.349L268.907 518.349Z" fill="white" fill-opacity="0.5"/>
<path d="M218.773 447.799L218.773 442.691L222.575 446.66L224.241 444.933L218.773 439.225L218.773 436.775L221.12 436.775L226.588 442.483L228.242 440.744L224.44 436.775L229.333 436.775L229.333 434.325L224.44 434.325L228.242 430.357L226.588 428.618L221.12 434.325L218.773 434.325L218.773 431.876L224.241 426.168L222.575 424.441L218.773 428.41L218.773 423.302L216.427 423.302L216.427 428.41L212.625 424.441L210.959 426.168L216.427 431.876L216.427 434.325L214.08 434.325L208.612 428.618L206.958 430.357L210.759 434.325L205.867 434.325L205.867 436.775L210.759 436.775L206.958 440.744L208.612 442.483L214.08 436.775L216.427 436.775L216.427 439.225L210.959 444.933L212.625 446.66L216.427 442.691L216.427 447.799L218.773 447.799Z" fill="white" fill-opacity="0.5"/>
<path d="M205.622 730L205.622 724.892L209.582 728.861L211.318 727.134L205.622 721.426L205.622 718.976L208.067 718.976L213.762 724.684L215.485 722.945L211.525 718.976L216.622 718.976L216.622 716.527L211.525 716.527L215.485 712.558L213.762 710.819L208.067 716.527L205.622 716.527L205.622 714.077L211.318 708.369L209.582 706.642L205.622 710.611L205.622 705.503L203.178 705.503L203.178 710.611L199.218 706.642L197.482 708.369L203.178 714.077L203.178 716.527L200.733 716.527L195.038 710.819L193.314 712.558L197.274 716.527L192.178 716.527L192.178 718.976L197.274 718.976L193.314 722.945L195.038 724.684L200.733 718.976L203.178 718.976L203.178 721.426L197.482 727.134L199.218 728.861L203.178 724.892L203.178 730L205.622 730Z" fill="white" fill-opacity="0.5"/>
<path d="M184.111 236.148L184.111 231.04L188.071 235.009L189.807 233.282L184.111 227.574L184.111 225.124L186.556 225.124L192.251 230.832L193.974 229.093L190.015 225.124L195.111 225.124L195.111 222.674L190.015 222.674L193.974 218.706L192.251 216.967L186.556 222.674L184.111 222.674L184.111 220.225L189.807 214.517L188.071 212.79L184.111 216.759L184.111 211.651L181.667 211.651L181.667 216.759L177.707 212.79L175.971 214.517L181.667 220.225L181.667 222.674L179.222 222.674L173.527 216.967L171.804 218.706L175.764 222.674L170.667 222.674L170.667 225.124L175.764 225.124L171.804 229.093L173.527 230.832L179.222 225.124L181.667 225.124L181.667 227.574L175.971 233.282L177.707 235.009L181.667 231.04L181.667 236.148L184.111 236.148Z" fill="white" fill-opacity="0.5"/>
<path d="M218.333 24.4966L218.333 19.3891L222.293 23.3575L224.029 21.6305L218.333 15.9228L218.333 13.4731L220.778 13.4732L226.473 19.1809L228.196 17.4416L224.237 13.4732L229.333 13.4732L229.333 11.0235L224.237 11.0235L228.196 7.05502L226.473 5.31577L220.778 11.0235L218.333 11.0235L218.333 8.57383L224.029 2.86612L222.293 1.13909L218.333 5.10754L218.333 -7.94091e-06L215.889 -8.04776e-06L215.889 5.10754L211.929 1.13909L210.193 2.86612L215.889 8.57383L215.889 11.0235L213.444 11.0235L207.749 5.31577L206.026 7.05502L209.985 11.0235L204.889 11.0235L204.889 13.4731L209.985 13.4731L206.026 17.4416L207.749 19.1809L213.444 13.4731L215.889 13.4731L215.889 15.9228L210.193 21.6305L211.929 23.3575L215.889 19.3891L215.889 24.4966L218.333 24.4966Z" fill="white" fill-opacity="0.5"/>
<path d="M184.111 95.047L184.111 89.9394L188.071 93.9079L189.807 92.1808L184.111 86.4732L184.111 84.0235L186.556 84.0235L192.251 89.7312L193.974 87.9919L190.015 84.0235L195.111 84.0235L195.111 81.5738L190.015 81.5738L193.974 77.6054L192.251 75.8661L186.556 81.5738L184.111 81.5738L184.111 79.1241L189.807 73.4164L188.071 71.6894L184.111 75.6579L184.111 70.5503L181.667 70.5503L181.667 75.6579L177.707 71.6894L175.971 73.4164L181.667 79.1241L181.667 81.5738L179.222 81.5738L173.527 75.8661L171.804 77.6054L175.764 81.5738L170.667 81.5738L170.667 84.0235L175.764 84.0235L171.804 87.9919L173.527 89.7312L179.222 84.0235L181.667 84.0235L181.667 86.4732L175.971 92.1808L177.707 93.9079L181.667 89.9394L181.667 95.047L184.111 95.047Z" fill="white" fill-opacity="0.5"/>
<path d="M218.333 165.597L218.333 160.49L222.293 164.458L224.029 162.731L218.333 157.024L218.333 154.574L220.778 154.574L226.473 160.282L228.196 158.542L224.237 154.574L229.333 154.574L229.333 152.124L224.237 152.124L228.196 148.156L226.473 146.416L220.778 152.124L218.333 152.124L218.333 149.674L224.029 143.967L222.293 142.24L218.333 146.208L218.333 141.101L215.889 141.101L215.889 146.208L211.929 142.24L210.193 143.967L215.889 149.674L215.889 152.124L213.444 152.124L207.749 146.416L206.026 148.156L209.985 152.124L204.889 152.124L204.889 154.574L209.985 154.574L206.026 158.542L207.749 160.282L213.444 154.574L215.889 154.574L215.889 157.024L210.193 162.731L211.929 164.458L215.889 160.49L215.889 165.597L218.333 165.597Z" fill="white" fill-opacity="0.5"/>
<path d="M184.111 659.45L184.111 654.342L188.071 658.311L189.807 656.584L184.111 650.876L184.111 648.426L186.556 648.426L192.251 654.134L193.974 652.395L190.014 648.426L195.111 648.426L195.111 645.976L190.014 645.976L193.974 642.008L192.251 640.269L186.556 645.976L184.111 645.976L184.111 643.527L189.807 637.819L188.071 636.092L184.111 640.061L184.111 634.953L181.667 634.953L181.667 640.061L177.707 636.092L175.971 637.819L181.667 643.527L181.667 645.976L179.222 645.976L173.527 640.269L171.804 642.008L175.764 645.976L170.667 645.976L170.667 648.426L175.764 648.426L171.804 652.395L173.527 654.134L179.222 648.426L181.667 648.426L181.667 650.876L175.971 656.584L177.707 658.311L181.667 654.342L181.667 659.45L184.111 659.45Z" fill="white" fill-opacity="0.5"/>
<path d="M184.111 377.248L184.111 372.141L188.071 376.109L189.807 374.382L184.111 368.674L184.111 366.225L186.556 366.225L192.251 371.933L193.974 370.193L190.015 366.225L195.111 366.225L195.111 363.775L190.015 363.775L193.974 359.807L192.251 358.067L186.556 363.775L184.111 363.775L184.111 361.325L189.807 355.618L188.071 353.891L184.111 357.859L184.111 352.752L181.667 352.752L181.667 357.859L177.707 353.891L175.971 355.618L181.667 361.325L181.667 363.775L179.222 363.775L173.527 358.067L171.804 359.807L175.764 363.775L170.667 363.775L170.667 366.225L175.764 366.225L171.804 370.193L173.527 371.933L179.222 366.225L181.667 366.225L181.667 368.674L175.971 374.382L177.707 376.109L181.667 372.141L181.667 377.248L184.111 377.248Z" fill="white" fill-opacity="0.5"/>
<path d="M218.333 306.698L218.333 301.59L222.293 305.559L224.029 303.832L218.333 298.124L218.333 295.674L220.778 295.674L226.473 301.382L228.196 299.643L224.236 295.674L229.333 295.674L229.333 293.225L224.236 293.225L228.196 289.256L226.473 287.517L220.778 293.225L218.333 293.225L218.333 290.775L224.029 285.067L222.293 283.34L218.333 287.309L218.333 282.201L215.889 282.201L215.889 287.309L211.929 283.34L210.193 285.067L215.889 290.775L215.889 293.225L213.444 293.225L207.749 287.517L206.026 289.256L209.985 293.225L204.889 293.225L204.889 295.674L209.985 295.674L206.026 299.643L207.749 301.382L213.444 295.674L215.889 295.674L215.889 298.124L210.193 303.832L211.929 305.559L215.889 301.59L215.889 306.698L218.333 306.698Z" fill="white" fill-opacity="0.5"/>
<path d="M218.333 588.899L218.333 583.792L222.293 587.76L224.029 586.033L218.333 580.325L218.333 577.876L220.778 577.876L226.473 583.584L228.196 581.844L224.236 577.876L229.333 577.876L229.333 575.426L224.236 575.426L228.196 571.458L226.473 569.718L220.778 575.426L218.333 575.426L218.333 572.976L224.029 567.269L222.293 565.542L218.333 569.51L218.333 564.403L215.889 564.403L215.889 569.51L211.929 565.542L210.193 567.269L215.889 572.976L215.889 575.426L213.444 575.426L207.749 569.718L206.026 571.458L209.985 575.426L204.889 575.426L204.889 577.876L209.985 577.876L206.026 581.844L207.749 583.584L213.444 577.876L215.889 577.876L215.889 580.325L210.193 586.033L211.929 587.76L215.889 583.792L215.889 588.899L218.333 588.899Z" fill="white" fill-opacity="0.5"/>
<path d="M183.573 518.349L183.573 513.241L187.375 517.21L189.041 515.483L183.573 509.775L183.573 507.325L185.92 507.325L191.388 513.033L193.042 511.294L189.241 507.325L194.133 507.325L194.133 504.876L189.241 504.876L193.042 500.907L191.388 499.168L185.92 504.876L183.573 504.876L183.573 502.426L189.041 496.718L187.375 494.991L183.573 498.96L183.573 493.852L181.227 493.852L181.227 498.96L177.425 494.991L175.759 496.718L181.227 502.426L181.227 504.876L178.88 504.876L173.412 499.168L171.758 500.907L175.56 504.876L170.667 504.876L170.667 507.325L175.56 507.325L171.758 511.294L173.412 513.033L178.88 507.325L181.227 507.325L181.227 509.775L175.759 515.483L177.425 517.21L181.227 513.241L181.227 518.349L183.573 518.349Z" fill="white" fill-opacity="0.5"/>
<path d="M133.44 447.799L133.44 442.691L137.241 446.66L138.907 444.933L133.44 439.225L133.44 436.775L135.786 436.775L141.254 442.483L142.908 440.744L139.107 436.775L144 436.775L144 434.325L139.107 434.325L142.908 430.357L141.254 428.618L135.786 434.325L133.44 434.325L133.44 431.876L138.907 426.168L137.241 424.441L133.44 428.41L133.44 423.302L131.093 423.302L131.093 428.41L127.292 424.441L125.625 426.168L131.093 431.876L131.093 434.325L128.746 434.325L123.279 428.618L121.624 430.357L125.426 434.325L120.533 434.325L120.533 436.775L125.426 436.775L121.624 440.744L123.279 442.483L128.746 436.775L131.093 436.775L131.093 439.225L125.625 444.933L127.292 446.66L131.093 442.691L131.093 447.799L133.44 447.799Z" fill="white" fill-opacity="0.5"/>
<path d="M120.289 730L120.289 724.892L124.249 728.861L125.984 727.134L120.289 721.426L120.289 718.976L122.733 718.976L128.429 724.684L130.152 722.945L126.192 718.976L131.289 718.976L131.289 716.527L126.192 716.527L130.152 712.558L128.429 710.819L122.733 716.527L120.289 716.527L120.289 714.077L125.984 708.369L124.249 706.642L120.289 710.611L120.289 705.503L117.844 705.503L117.844 710.611L113.884 706.642L112.149 708.369L117.844 714.077L117.844 716.527L115.4 716.527L109.704 710.819L107.981 712.558L111.941 716.527L106.844 716.527L106.844 718.976L111.941 718.976L107.981 722.945L109.704 724.684L115.4 718.976L117.844 718.976L117.844 721.426L112.149 727.134L113.884 728.861L117.844 724.892L117.844 730L120.289 730Z" fill="white" fill-opacity="0.5"/>
<path d="M98.7778 236.148L98.7778 231.04L102.738 235.009L104.473 233.282L98.7778 227.574L98.7778 225.124L101.222 225.124L106.918 230.832L108.641 229.093L104.681 225.124L109.778 225.124L109.778 222.674L104.681 222.674L108.641 218.706L106.918 216.967L101.222 222.674L98.7778 222.674L98.7778 220.225L104.473 214.517L102.738 212.79L98.7778 216.759L98.7778 211.651L96.3334 211.651L96.3334 216.759L92.3734 212.79L90.6378 214.517L96.3334 220.225L96.3334 222.674L93.8889 222.674L88.1934 216.967L86.4701 218.706L90.4301 222.674L85.3335 222.674L85.3335 225.124L90.4301 225.124L86.4701 229.093L88.1934 230.832L93.8889 225.124L96.3334 225.124L96.3334 227.574L90.6378 233.282L92.3734 235.009L96.3334 231.04L96.3334 236.148L98.7778 236.148Z" fill="white" fill-opacity="0.5"/>
<path d="M133 24.4966L133 19.3891L136.96 23.3575L138.695 21.6305L133 15.9228L133 13.4731L135.444 13.4731L141.14 19.1809L142.863 17.4416L138.903 13.4731L144 13.4731L144 11.0235L138.903 11.0235L142.863 7.05501L141.14 5.31576L135.444 11.0235L133 11.0235L133 8.57383L138.695 2.86611L136.96 1.13909L133 5.10753L133 -1.1671e-05L130.555 -1.17778e-05L130.555 5.10753L126.595 1.13909L124.86 2.86611L130.555 8.57383L130.555 11.0235L128.111 11.0235L122.415 5.31576L120.692 7.05501L124.652 11.0235L119.555 11.0235L119.555 13.4731L124.652 13.4731L120.692 17.4416L122.415 19.1809L128.111 13.4731L130.555 13.4731L130.555 15.9228L124.86 21.6305L126.595 23.3575L130.555 19.3891L130.555 24.4966L133 24.4966Z" fill="white" fill-opacity="0.5"/>
<path d="M98.7778 95.047L98.7778 89.9394L102.738 93.9079L104.473 92.1808L98.7778 86.4731L98.7778 84.0235L101.222 84.0235L106.918 89.7312L108.641 87.9919L104.681 84.0235L109.778 84.0235L109.778 81.5738L104.681 81.5738L108.641 77.6054L106.918 75.8661L101.222 81.5738L98.7778 81.5738L98.7778 79.1241L104.473 73.4164L102.738 71.6894L98.7778 75.6579L98.7778 70.5503L96.3334 70.5503L96.3334 75.6579L92.3734 71.6894L90.6378 73.4164L96.3334 79.1241L96.3334 81.5738L93.8889 81.5738L88.1934 75.8661L86.4701 77.6054L90.4301 81.5738L85.3335 81.5738L85.3335 84.0235L90.4301 84.0235L86.4701 87.9919L88.1934 89.7312L93.8889 84.0235L96.3334 84.0235L96.3334 86.4731L90.6378 92.1808L92.3734 93.9079L96.3334 89.9394L96.3334 95.047L98.7778 95.047Z" fill="white" fill-opacity="0.5"/>
<path d="M133 165.597L133 160.49L136.96 164.458L138.695 162.731L133 157.024L133 154.574L135.444 154.574L141.14 160.282L142.863 158.542L138.903 154.574L144 154.574L144 152.124L138.903 152.124L142.863 148.156L141.14 146.416L135.444 152.124L133 152.124L133 149.674L138.695 143.967L136.96 142.24L133 146.208L133 141.101L130.555 141.101L130.555 146.208L126.595 142.24L124.86 143.967L130.555 149.674L130.555 152.124L128.111 152.124L122.415 146.416L120.692 148.156L124.652 152.124L119.555 152.124L119.555 154.574L124.652 154.574L120.692 158.542L122.415 160.282L128.111 154.574L130.555 154.574L130.555 157.024L124.86 162.731L126.595 164.458L130.555 160.49L130.555 165.597L133 165.597Z" fill="white" fill-opacity="0.5"/>
<path d="M98.7778 659.45L98.7778 654.342L102.738 658.311L104.473 656.584L98.7778 650.876L98.7778 648.426L101.222 648.426L106.918 654.134L108.641 652.395L104.681 648.426L109.778 648.426L109.778 645.976L104.681 645.976L108.641 642.008L106.918 640.269L101.222 645.976L98.7778 645.976L98.7778 643.527L104.473 637.819L102.738 636.092L98.7778 640.061L98.7778 634.953L96.3333 634.953L96.3333 640.061L92.3734 636.092L90.6378 637.819L96.3333 643.527L96.3333 645.976L93.8889 645.976L88.1934 640.269L86.4701 642.008L90.4301 645.976L85.3334 645.976L85.3334 648.426L90.4301 648.426L86.4701 652.395L88.1934 654.134L93.8889 648.426L96.3333 648.426L96.3333 650.876L90.6378 656.584L92.3734 658.311L96.3333 654.342L96.3333 659.45L98.7778 659.45Z" fill="white" fill-opacity="0.5"/>
<path d="M98.7778 377.248L98.7778 372.141L102.738 376.109L104.473 374.382L98.7778 368.674L98.7778 366.225L101.222 366.225L106.918 371.933L108.641 370.193L104.681 366.225L109.778 366.225L109.778 363.775L104.681 363.775L108.641 359.807L106.918 358.067L101.222 363.775L98.7778 363.775L98.7778 361.325L104.473 355.618L102.738 353.891L98.7778 357.859L98.7778 352.752L96.3334 352.752L96.3334 357.859L92.3734 353.891L90.6378 355.618L96.3334 361.325L96.3334 363.775L93.8889 363.775L88.1934 358.067L86.4701 359.807L90.4301 363.775L85.3334 363.775L85.3334 366.225L90.4301 366.225L86.4701 370.193L88.1934 371.933L93.8889 366.225L96.3334 366.225L96.3334 368.674L90.6378 374.382L92.3734 376.109L96.3334 372.141L96.3334 377.248L98.7778 377.248Z" fill="white" fill-opacity="0.5"/>
<path d="M133 306.698L133 301.59L136.96 305.559L138.695 303.832L133 298.124L133 295.674L135.444 295.674L141.14 301.382L142.863 299.643L138.903 295.674L144 295.674L144 293.225L138.903 293.225L142.863 289.256L141.14 287.517L135.444 293.225L133 293.225L133 290.775L138.695 285.067L136.96 283.34L133 287.309L133 282.201L130.555 282.201L130.555 287.309L126.595 283.34L124.86 285.067L130.555 290.775L130.555 293.225L128.111 293.225L122.415 287.517L120.692 289.256L124.652 293.225L119.555 293.225L119.555 295.674L124.652 295.674L120.692 299.643L122.415 301.382L128.111 295.674L130.555 295.674L130.555 298.124L124.86 303.832L126.595 305.559L130.555 301.59L130.555 306.698L133 306.698Z" fill="white" fill-opacity="0.5"/>
<path d="M133 588.899L133 583.792L136.96 587.76L138.695 586.033L133 580.325L133 577.876L135.444 577.876L141.14 583.584L142.863 581.844L138.903 577.876L144 577.876L144 575.426L138.903 575.426L142.863 571.458L141.14 569.718L135.444 575.426L133 575.426L133 572.976L138.695 567.269L136.96 565.542L133 569.51L133 564.403L130.555 564.403L130.555 569.51L126.595 565.542L124.86 567.269L130.555 572.976L130.555 575.426L128.111 575.426L122.415 569.718L120.692 571.458L124.652 575.426L119.555 575.426L119.555 577.876L124.652 577.876L120.692 581.844L122.415 583.584L128.111 577.876L130.555 577.876L130.555 580.325L124.86 586.033L126.595 587.76L130.555 583.792L130.555 588.899L133 588.899Z" fill="white" fill-opacity="0.5"/>
<path d="M98.24 518.349L98.24 513.241L102.042 517.21L103.708 515.483L98.24 509.775L98.24 507.325L100.587 507.325L106.054 513.033L107.709 511.294L103.907 507.325L108.8 507.325L108.8 504.876L103.907 504.876L107.709 500.907L106.054 499.168L100.587 504.876L98.24 504.876L98.24 502.426L103.708 496.718L102.042 494.991L98.24 498.96L98.24 493.852L95.8933 493.852L95.8933 498.96L92.0918 494.991L90.4257 496.718L95.8933 502.426L95.8933 504.876L93.5467 504.876L88.079 499.168L86.4247 500.907L90.2262 504.876L85.3334 504.876L85.3334 507.325L90.2262 507.325L86.4247 511.294L88.079 513.033L93.5467 507.325L95.8933 507.325L95.8933 509.775L90.4257 515.483L92.0918 517.21L95.8933 513.241L95.8933 518.349L98.24 518.349Z" fill="white" fill-opacity="0.5"/>
<path d="M48.1063 447.799L48.1063 442.691L51.9079 446.66L53.574 444.933L48.1063 439.225L48.1063 436.775L50.4529 436.775L55.9207 442.483L57.575 440.744L53.7735 436.775L58.6662 436.775L58.6662 434.325L53.7735 434.325L57.575 430.357L55.9207 428.618L50.4529 434.325L48.1063 434.325L48.1063 431.876L53.574 426.168L51.9079 424.441L48.1063 428.41L48.1063 423.302L45.7597 423.302L45.7597 428.41L41.9581 424.441L40.292 426.168L45.7597 431.876L45.7597 434.325L43.413 434.325L37.9454 428.618L36.2909 430.357L40.0925 434.325L35.1997 434.325L35.1997 436.775L40.0925 436.775L36.2909 440.744L37.9454 442.483L43.413 436.775L45.7597 436.775L45.7597 439.225L40.292 444.933L41.9581 446.66L45.7597 442.691L45.7597 447.799L48.1063 447.799Z" fill="white" fill-opacity="0.5"/>
<path d="M34.9553 730L34.9553 724.892L38.9153 728.861L40.6508 727.134L34.9553 721.426L34.9553 718.976L37.3997 718.976L43.0952 724.684L44.8185 722.945L40.8586 718.976L45.9552 718.976L45.9552 716.527L40.8586 716.527L44.8185 712.558L43.0952 710.819L37.3997 716.527L34.9553 716.527L34.9553 714.077L40.6508 708.369L38.9153 706.642L34.9553 710.611L34.9553 705.503L32.5109 705.503L32.5109 710.611L28.5509 706.642L26.8154 708.369L32.5109 714.077L32.5109 716.527L30.0664 716.527L24.3709 710.819L22.6476 712.558L26.6076 716.527L21.5109 716.527L21.5109 718.976L26.6076 718.976L22.6476 722.945L24.3709 724.684L30.0664 718.976L32.5109 718.976L32.5109 721.426L26.8154 727.134L28.5509 728.861L32.5109 724.892L32.5109 730L34.9553 730Z" fill="white" fill-opacity="0.5"/>
<path d="M13.4444 236.148L13.4444 231.04L17.4043 235.009L19.1399 233.282L13.4444 227.574L13.4444 225.124L15.8888 225.124L21.5843 230.832L23.3076 229.093L19.3477 225.124L24.4443 225.124L24.4443 222.674L19.3477 222.674L23.3076 218.706L21.5843 216.967L15.8888 222.674L13.4444 222.674L13.4444 220.225L19.1399 214.517L17.4043 212.79L13.4444 216.759L13.4444 211.651L10.9999 211.651L10.9999 216.759L7.03997 212.79L5.3044 214.517L10.9999 220.225L10.9999 222.674L8.55553 222.674L2.85998 216.967L1.13671 218.706L5.09667 222.674L2.07842e-05 222.674L2.06771e-05 225.124L5.09667 225.124L1.13671 229.093L2.85998 230.832L8.55553 225.124L10.9999 225.124L10.9999 227.574L5.3044 233.282L7.03997 235.009L10.9999 231.04L10.9999 236.148L13.4444 236.148Z" fill="white" fill-opacity="0.5"/>
<path d="M47.6663 24.4966L47.6663 19.3891L51.6263 23.3575L53.3618 21.6305L47.6663 15.9228L47.6663 13.4731L50.1108 13.4731L55.8063 19.1809L57.5296 17.4416L53.5696 13.4731L58.6663 13.4731L58.6663 11.0235L53.5696 11.0235L57.5296 7.05501L55.8063 5.31576L50.1108 11.0235L47.6663 11.0235L47.6663 8.57382L53.3618 2.86611L51.6263 1.13909L47.6663 5.10753L47.6663 -1.5401e-05L45.2219 -1.55078e-05L45.2219 5.10753L41.2619 1.13909L39.5264 2.86611L45.2219 8.57382L45.2219 11.0235L42.7775 11.0235L37.082 5.31576L35.3586 7.05501L39.3186 11.0235L34.222 11.0235L34.222 13.4731L39.3186 13.4731L35.3586 17.4416L37.082 19.1809L42.7775 13.4731L45.2219 13.4731L45.2219 15.9228L39.5264 21.6305L41.2619 23.3575L45.2219 19.3891L45.2219 24.4966L47.6663 24.4966Z" fill="white" fill-opacity="0.5"/>
<path d="M13.4444 95.047L13.4444 89.9394L17.4043 93.9079L19.1399 92.1808L13.4444 86.4731L13.4444 84.0235L15.8888 84.0235L21.5843 89.7312L23.3076 87.9919L19.3477 84.0235L24.4443 84.0235L24.4443 81.5738L19.3477 81.5738L23.3076 77.6054L21.5843 75.8661L15.8888 81.5738L13.4444 81.5738L13.4444 79.1241L19.1399 73.4164L17.4043 71.6894L13.4444 75.6579L13.4444 70.5503L10.9999 70.5503L10.9999 75.6579L7.03997 71.6894L5.30441 73.4164L10.9999 79.1241L10.9999 81.5738L8.55554 81.5738L2.85998 75.8661L1.13672 77.6054L5.09668 81.5738L2.69519e-05 81.5738L2.68448e-05 84.0235L5.09668 84.0235L1.13671 87.9919L2.85998 89.7312L8.55554 84.0235L10.9999 84.0235L10.9999 86.4731L5.30441 92.1808L7.03997 93.9079L10.9999 89.9394L10.9999 95.047L13.4444 95.047Z" fill="white" fill-opacity="0.5"/>
<path d="M47.6663 165.597L47.6663 160.49L51.6263 164.458L53.3618 162.731L47.6663 157.023L47.6663 154.574L50.1108 154.574L55.8063 160.282L57.5296 158.542L53.5696 154.574L58.6663 154.574L58.6663 152.124L53.5696 152.124L57.5296 148.156L55.8063 146.416L50.1108 152.124L47.6663 152.124L47.6663 149.674L53.3618 143.967L51.6263 142.24L47.6663 146.208L47.6663 141.101L45.2219 141.101L45.2219 146.208L41.2619 142.24L39.5264 143.967L45.2219 149.674L45.2219 152.124L42.7775 152.124L37.082 146.416L35.3586 148.156L39.3186 152.124L34.222 152.124L34.222 154.574L39.3186 154.574L35.3586 158.542L37.082 160.282L42.7775 154.574L45.2219 154.574L45.2219 157.023L39.5264 162.731L41.2619 164.458L45.2219 160.49L45.2219 165.597L47.6663 165.597Z" fill="white" fill-opacity="0.5"/>
<path d="M13.4443 659.45L13.4443 654.342L17.4043 658.311L19.1398 656.584L13.4443 650.876L13.4443 648.426L15.8888 648.426L21.5843 654.134L23.3076 652.395L19.3477 648.426L24.4443 648.426L24.4443 645.976L19.3477 645.976L23.3076 642.008L21.5843 640.269L15.8888 645.976L13.4443 645.976L13.4443 643.527L19.1398 637.819L17.4043 636.092L13.4443 640.061L13.4443 634.953L10.9999 634.953L10.9999 640.061L7.03995 636.092L5.30438 637.819L10.9999 643.527L10.9999 645.976L8.55551 645.976L2.85996 640.269L1.13669 642.008L5.09665 645.976L2.28105e-06 645.976L2.17397e-06 648.426L5.09665 648.426L1.13669 652.395L2.85996 654.134L8.55551 648.426L10.9999 648.426L10.9999 650.876L5.30438 656.584L7.03995 658.311L10.9999 654.342L10.9999 659.45L13.4443 659.45Z" fill="white" fill-opacity="0.5"/>
<path d="M13.4443 377.248L13.4444 372.141L17.4043 376.109L19.1398 374.382L13.4444 368.674L13.4444 366.225L15.8888 366.225L21.5843 371.933L23.3076 370.193L19.3477 366.225L24.4443 366.225L24.4443 363.775L19.3477 363.775L23.3076 359.807L21.5843 358.067L15.8888 363.775L13.4444 363.775L13.4444 361.325L19.1398 355.618L17.4043 353.891L13.4444 357.859L13.4444 352.752L10.9999 352.752L10.9999 357.859L7.03996 353.891L5.3044 355.618L10.9999 361.325L10.9999 363.775L8.55553 363.775L2.85997 358.067L1.1367 359.807L5.09666 363.775L1.46165e-05 363.775L1.45094e-05 366.225L5.09666 366.225L1.1367 370.193L2.85997 371.933L8.55553 366.225L10.9999 366.225L10.9999 368.674L5.3044 374.382L7.03996 376.109L10.9999 372.141L10.9999 377.248L13.4443 377.248Z" fill="white" fill-opacity="0.5"/>
<path d="M47.6663 306.698L47.6663 301.59L51.6263 305.559L53.3618 303.832L47.6663 298.124L47.6663 295.674L50.1108 295.674L55.8063 301.382L57.5296 299.643L53.5696 295.674L58.6662 295.674L58.6662 293.225L53.5696 293.225L57.5296 289.256L55.8063 287.517L50.1108 293.225L47.6663 293.225L47.6663 290.775L53.3618 285.067L51.6263 283.34L47.6663 287.309L47.6663 282.201L45.2219 282.201L45.2219 287.309L41.2619 283.34L39.5264 285.067L45.2219 290.775L45.2219 293.225L42.7775 293.225L37.082 287.517L35.3586 289.256L39.3186 293.225L34.222 293.225L34.222 295.674L39.3186 295.674L35.3586 299.643L37.082 301.382L42.7775 295.674L45.2219 295.674L45.2219 298.124L39.5264 303.832L41.2619 305.559L45.2219 301.59L45.2219 306.698L47.6663 306.698Z" fill="white" fill-opacity="0.5"/>
<path d="M47.6663 588.899L47.6663 583.792L51.6263 587.76L53.3618 586.033L47.6663 580.325L47.6663 577.876L50.1108 577.876L55.8062 583.584L57.5296 581.844L53.5696 577.876L58.6662 577.876L58.6662 575.426L53.5696 575.426L57.5296 571.458L55.8062 569.718L50.1108 575.426L47.6663 575.426L47.6663 572.976L53.3618 567.269L51.6263 565.542L47.6663 569.51L47.6663 564.403L45.2219 564.403L45.2219 569.51L41.2619 565.542L39.5264 567.269L45.2219 572.976L45.2219 575.426L42.7774 575.426L37.0819 569.718L35.3586 571.458L39.3186 575.426L34.222 575.426L34.222 577.876L39.3186 577.876L35.3586 581.844L37.0819 583.584L42.7774 577.876L45.2219 577.876L45.2219 580.325L39.5264 586.033L41.2619 587.76L45.2219 583.792L45.2219 588.899L47.6663 588.899Z" fill="white" fill-opacity="0.5"/>
<path d="M12.9065 518.349L12.9065 513.241L16.7082 517.21L18.3743 515.483L12.9065 509.775L12.9065 507.325L15.2532 507.325L20.7209 513.033L22.3753 511.294L18.5737 507.325L23.4665 507.325L23.4665 504.876L18.5737 504.876L22.3753 500.907L20.7209 499.168L15.2532 504.876L12.9065 504.876L12.9065 502.426L18.3743 496.718L16.7082 494.991L12.9065 498.96L12.9065 493.852L10.5599 493.852L10.5599 498.96L6.75837 494.991L5.0922 496.718L10.5599 502.426L10.5599 504.876L8.2133 504.876L2.74561 499.168L1.09123 500.907L4.89274 504.876L8.44875e-06 504.876L8.34168e-06 507.325L4.89274 507.325L1.09123 511.294L2.74561 513.033L8.2133 507.325L10.5599 507.325L10.5599 509.775L5.0922 515.483L6.75837 517.21L10.5599 513.241L10.5599 518.349L12.9065 518.349Z" fill="white" fill-opacity="0.5"/>
</svg>
