<svg width="38" height="42" viewBox="0 0 38 42" fill="none" xmlns="http://www.w3.org/2000/svg">
<path fill-rule="evenodd" clip-rule="evenodd" d="M17.9584 0.445618C18.6029 0.073466 19.3971 0.073466 20.0417 0.445618L36.2797 9.82062C36.9242 10.1928 37.3213 10.8805 37.3213 11.6248V27.9692C37.3213 30.2021 36.1301 32.2654 34.1963 33.3819L22.125 40.3512C20.1913 41.4677 17.8088 41.4677 15.875 40.3512L3.80371 33.3819C1.86995 32.2654 0.678711 30.2021 0.678711 27.9692V11.6248C0.678711 10.8805 1.07579 10.1928 1.72038 9.82062L17.9584 0.445618ZM4.84538 12.8277V27.9692C4.84538 28.7135 5.24246 29.4013 5.88704 29.7734L17.9584 36.7428C18.6029 37.115 19.3971 37.115 20.0417 36.7428L32.113 29.7734C32.7576 29.4013 33.1547 28.7135 33.1547 27.9692V12.8277L19 4.65546L4.84538 12.8277Z" fill="#2D2D2F"/>
<path fill-rule="evenodd" clip-rule="evenodd" d="M19 8.5C20.1506 8.5 21.0834 9.43274 21.0834 10.5833V21C21.0834 21.7443 20.6863 22.4321 20.0417 22.8042L11.0206 28.0126C10.0242 28.5878 8.75002 28.2464 8.17473 27.25C7.59943 26.2536 7.94084 24.9794 8.93728 24.4041L16.9167 19.7972V10.5833C16.9167 9.43274 17.8495 8.5 19 8.5Z" fill="#2D2D2F"/>
<path fill-rule="evenodd" clip-rule="evenodd" d="M17.1957 19.9585C16.6204 20.955 16.9618 22.2291 17.9583 22.8044L26.9794 28.0127C27.9758 28.588 29.25 28.2466 29.8253 27.2502C30.4006 26.2537 30.0592 24.9796 29.0627 24.4043L20.0416 19.196C19.0452 18.6207 17.771 18.9621 17.1957 19.9585Z" fill="#2D2D2F"/>
</svg>
