<svg width="14" height="20" viewBox="0 0 14 20" fill="none" xmlns="http://www.w3.org/2000/svg">
<path fill-rule="evenodd" clip-rule="evenodd" d="M7 2C4.23858 2 2 4.23858 2 7L2 13C2 13.5523 1.55228 14 1 14C0.447715 14 0 13.5523 0 13L0 7C3.57628e-07 3.13401 3.13401 -3.57628e-07 7 0C10.866 3.57628e-07 14 3.13401 14 7V15C14 17.7614 11.7614 20 9 20C6.23858 20 4 17.7614 4 15L4 7C4 5.34315 5.34315 4 7 4C8.65685 4 10 5.34315 10 7V15C10 15.5523 9.55229 16 9 16C8.44772 16 8 15.5523 8 15L8 7C8 6.44772 7.55228 6 7 6C6.44772 6 6 6.44772 6 7L6 15C6 16.6569 7.34315 18 9 18C10.6569 18 12 16.6569 12 15V7C12 4.23858 9.76142 2 7 2Z" fill="#2D2D2F"/>
</svg>
