<svg width="42" height="42" viewBox="0 0 42 42" fill="none" xmlns="http://www.w3.org/2000/svg">
<path fill-rule="evenodd" clip-rule="evenodd" d="M21 4.33317C11.7952 4.33317 4.33329 11.7951 4.33329 20.9998C4.33329 30.2046 11.7952 37.6665 21 37.6665C30.2047 37.6665 37.6666 30.2046 37.6666 20.9998C37.6666 11.7951 30.2047 4.33317 21 4.33317ZM0.166626 20.9998C0.166626 9.49391 9.49403 0.166504 21 0.166504C32.5059 0.166504 41.8333 9.49391 41.8333 20.9998C41.8333 32.5058 32.5059 41.8332 21 41.8332C9.49403 41.8332 0.166626 32.5058 0.166626 20.9998Z" fill="#2D2D2F"/>
<path fill-rule="evenodd" clip-rule="evenodd" d="M27.25 16.8333L27.25 25.1667C27.25 26.3173 26.3173 27.25 25.1667 27.25C24.0161 27.25 23.0833 26.3173 23.0833 25.1667L23.0833 21.8629L18.3065 26.6398C17.4929 27.4534 16.1738 27.4534 15.3602 26.6398C14.5466 25.8262 14.5466 24.5071 15.3602 23.6935L20.1371 18.9167L16.8333 18.9167C15.6827 18.9167 14.75 17.9839 14.75 16.8333C14.75 15.6827 15.6827 14.75 16.8333 14.75L25.1667 14.75C26.3173 14.75 27.25 15.6827 27.25 16.8333Z" fill="#2D2D2F"/>
</svg>
