<svg width="24" height="24" viewBox="0 0 24 24" fill="none" xmlns="http://www.w3.org/2000/svg"><g clip-path="url(#a)" fill="#2D2D2F"><path d="M7.109 3c.72 0 1.374.068 1.965.208.592.14 1.101.366 1.523.683.422.316.75.736.985 1.26.232.525.348 1.172.348 1.94 0 .832-.174 1.524-.518 2.08-.347.556-.856 1.008-1.535 1.365.931.294 1.626.804 2.086 1.537.46.732.687 1.614.687 2.644 0 .832-.15 1.55-.443 2.161a4.122 4.122 0 0 1-1.196 1.492c-.5.384-1.072.669-1.713.854-.641.186-1.3.276-1.978.276H0V3h7.109zm-.422 6.681c.592 0 1.08-.153 1.46-.46.381-.308.572-.81.572-1.502 0-.384-.062-.7-.19-.949a1.504 1.504 0 0 0-.51-.578 2.01 2.01 0 0 0-.728-.29 4.388 4.388 0 0 0-.857-.081H3.323v3.86h3.364zm.19 7.003c.323 0 .633-.037.931-.104.298-.068.559-.186.782-.348a1.69 1.69 0 0 0 .538-.66c.133-.276.203-.633.203-1.063 0-.845-.22-1.45-.654-1.812-.438-.362-1.014-.543-1.734-.543h-3.62v4.53h3.554zm9.952-.348c.45.479 1.1.714 1.945.714.608 0 1.13-.167 1.564-.497.438-.33.703-.683.802-1.054h2.645c-.422 1.433-1.072 2.46-1.945 3.074-.873.615-1.933.927-3.174.927-.86 0-1.634-.15-2.326-.452a4.766 4.766 0 0 1-1.754-1.284 5.868 5.868 0 0 1-1.109-1.989 7.895 7.895 0 0 1-.393-2.54c0-.895.132-1.727.401-2.496a5.992 5.992 0 0 1 1.142-1.998 5.447 5.447 0 0 1 1.767-1.329c.683-.325 1.445-.484 2.276-.484.931 0 1.742.195 2.433.588a5.055 5.055 0 0 1 1.705 1.582c.443.665.766 1.42.964 2.265a9.1 9.1 0 0 1 .211 2.658h-7.89c.04 1.067.285 1.835.736 2.315zm3.397-6.288c-.36-.43-.906-.647-1.639-.647-.48 0-.877.09-1.195.267a2.297 2.297 0 0 0-.762.66c-.19.262-.323.538-.401.832a3.896 3.896 0 0 0-.137.786h4.887c-.145-.836-.393-1.464-.753-1.898zm1.461-6.212h-6.108v1.85h6.108v-1.85z"/></g><defs><clipPath id="a"><path fill="#fff" d="M0 0h24v24H0z"/></clipPath></defs></svg>