<svg width="24" height="24" viewBox="0 0 24 24" fill="none" xmlns="http://www.w3.org/2000/svg">
<g clip-path="url(#clip0_6_840)">
<path d="M7.10897 3C7.82897 3 8.48276 3.06781 9.07448 3.20795C9.66621 3.34808 10.1752 3.57411 10.5972 3.89055C11.0193 4.20699 11.3462 4.6274 11.5821 5.15178C11.8138 5.67616 11.9297 6.3226 11.9297 7.0911C11.9297 7.92288 11.7559 8.61452 11.4124 9.17055C11.0648 9.72657 10.5559 10.1786 9.87724 10.5358C10.8083 10.8296 11.5034 11.3404 11.9628 12.0727C12.4221 12.8051 12.6497 13.6866 12.6497 14.7173C12.6497 15.549 12.5007 16.2678 12.2069 16.8781C11.909 17.4884 11.5117 17.9856 11.011 18.3699C10.5103 18.7541 9.93931 19.0389 9.29793 19.2242C8.65655 19.4096 7.99862 19.5 7.32 19.5H0V3H7.10897ZM6.6869 9.68137C7.27862 9.68137 7.7669 9.52767 8.14759 9.22027C8.52828 8.91288 8.71862 8.4111 8.71862 7.71945C8.71862 7.33521 8.65655 7.01877 8.52828 6.77014C8.4 6.52151 8.23034 6.33164 8.01931 6.19151C7.80828 6.05137 7.56414 5.95644 7.29103 5.90219C7.01793 5.84794 6.73241 5.82082 6.43448 5.82082H3.32276V9.68137H6.6869ZM6.87724 16.6837C7.2 16.6837 7.51034 16.6475 7.80828 16.5797C8.10621 16.5119 8.3669 16.3944 8.59035 16.2316C8.81379 16.0689 8.99586 15.8519 9.12828 15.5716C9.26069 15.2959 9.33103 14.9388 9.33103 14.5093C9.33103 13.664 9.11172 13.0582 8.67724 12.6966C8.23862 12.3349 7.66345 12.1541 6.94345 12.1541H3.32276V16.6837H6.87724Z" fill="#2D2D2F"/>
<path d="M16.8288 16.3357C17.2798 16.8149 17.9295 17.05 18.7736 17.05C19.3819 17.05 19.9033 16.8827 20.3378 16.5527C20.7764 16.2227 21.0412 15.8701 21.1405 15.4994H23.7847C23.3626 16.9324 22.7129 17.9586 21.8398 18.5734C20.9667 19.1882 19.9074 19.5001 18.6661 19.5001C17.8054 19.5001 17.0316 19.3509 16.3405 19.0481C15.6495 18.7497 15.0619 18.3202 14.5861 17.7642C14.1061 17.2082 13.7378 16.5482 13.4771 15.7752C13.2164 15.0067 13.084 14.1568 13.084 13.2346C13.084 12.3396 13.2164 11.5078 13.4854 10.7393C13.7543 9.9708 14.135 9.30175 14.6274 8.74121C15.1198 8.18066 15.7116 7.73764 16.3943 7.41217C17.0771 7.08669 17.8385 6.92847 18.6702 6.92847C19.6012 6.92847 20.4123 7.12285 21.1033 7.51614C21.7943 7.90943 22.3612 8.43833 22.8081 9.09833C23.2509 9.76285 23.5736 10.5178 23.7723 11.3631C23.9709 12.213 24.0412 13.0945 23.9833 14.0212H16.0923C16.1336 15.0881 16.3778 15.8565 16.8288 16.3357ZM20.2261 10.0476C19.8661 9.61819 19.3198 9.40121 18.5874 9.40121C18.1074 9.40121 17.7102 9.49162 17.3916 9.66792C17.0729 9.84422 16.8205 10.0657 16.6302 10.3279C16.4398 10.5901 16.3074 10.8659 16.2288 11.1597C16.1502 11.4535 16.1047 11.7157 16.0923 11.9463H20.9792C20.8343 11.11 20.5861 10.4816 20.2261 10.0476Z" fill="#2D2D2F"/>
<path d="M21.6869 3.83618H15.5793V5.68509H21.6869V3.83618Z" fill="#2D2D2F"/>
</g>
<defs>
<clipPath id="clip0_6_840">
<rect width="24" height="24" fill="white"/>
</clipPath>
</defs>
</svg>
