<svg width="18" height="19" viewBox="0 0 18 19" fill="none" xmlns="http://www.w3.org/2000/svg"><path fill-rule="evenodd" clip-rule="evenodd" d="M0 5.5a1 1 0 0 1 1-1h16a1 1 0 0 1 1 1v10a3 3 0 0 1-3 3H3a3 3 0 0 1-3-3v-10zm2 1v9a1 1 0 0 0 1 1h12a1 1 0 0 0 1-1v-9H2z" fill="#2D2D2F"/><path fill-rule="evenodd" clip-rule="evenodd" d="M4.293.793A1 1 0 0 1 5 .5h8a1 1 0 0 1 .707.293l4 4A1 1 0 0 1 17 6.5H1a1 1 0 0 1-.707-1.707l4-4zM5.414 2.5l-2 2h11.172l-2-2H5.414zM4 9.5a1 1 0 0 1 1-1h4a1 1 0 0 1 0 2H5a1 1 0 0 1-1-1z" fill="#2D2D2F"/></svg>