<svg width="18" height="19" viewBox="0 0 18 19" fill="none" xmlns="http://www.w3.org/2000/svg">
<path fill-rule="evenodd" clip-rule="evenodd" d="M0 5.5C0 4.94772 0.447715 4.5 1 4.5H17C17.5523 4.5 18 4.94772 18 5.5V15.5C18 17.1569 16.6569 18.5 15 18.5H3C1.34315 18.5 0 17.1569 0 15.5V5.5ZM2 6.5V15.5C2 16.0523 2.44772 16.5 3 16.5H15C15.5523 16.5 16 16.0523 16 15.5V6.5H2Z" fill="#2D2D2F"/>
<path fill-rule="evenodd" clip-rule="evenodd" d="M4.29289 0.792893C4.48043 0.605357 4.73478 0.5 5 0.5H13C13.2652 0.5 13.5196 0.605357 13.7071 0.792893L17.7071 4.79289C17.9931 5.07889 18.0787 5.50901 17.9239 5.88268C17.7691 6.25636 17.4045 6.5 17 6.5H0.999999C0.595536 6.5 0.2309 6.25636 0.0761192 5.88268C-0.0786618 5.50901 0.00689393 5.07889 0.292892 4.79289L4.29289 0.792893ZM5.41421 2.5L3.41421 4.5H14.5858L12.5858 2.5H5.41421Z" fill="#2D2D2F"/>
<path fill-rule="evenodd" clip-rule="evenodd" d="M4 9.5C4 8.94772 4.44772 8.5 5 8.5H9C9.55228 8.5 10 8.94772 10 9.5C10 10.0523 9.55228 10.5 9 10.5H5C4.44772 10.5 4 10.0523 4 9.5Z" fill="#2D2D2F"/>
</svg>
