<svg width="43" height="43" viewBox="0 0 43 43" fill="none" xmlns="http://www.w3.org/2000/svg">
<path fill-rule="evenodd" clip-rule="evenodd" d="M21.75 5.08317C12.5452 5.08317 5.08329 12.5451 5.08329 21.7498C5.08329 30.9546 12.5452 38.4165 21.75 38.4165C30.9547 38.4165 38.4166 30.9546 38.4166 21.7498C38.4166 12.5451 30.9547 5.08317 21.75 5.08317ZM0.916626 21.7498C0.916626 10.2439 10.244 0.916504 21.75 0.916504C33.2559 0.916504 42.5833 10.2439 42.5833 21.7498C42.5833 33.2558 33.2559 42.5832 21.75 42.5832C10.244 42.5832 0.916626 33.2558 0.916626 21.7498Z" fill="#2D2D2F"/>
<path fill-rule="evenodd" clip-rule="evenodd" d="M29.4731 16.1102C30.2867 16.9238 30.2867 18.2429 29.4731 19.0565L21.1398 27.3898C20.3262 28.2034 19.0071 28.2034 18.1935 27.3898L14.0268 23.2231C13.2132 22.4095 13.2132 21.0905 14.0268 20.2769C14.8404 19.4633 16.1595 19.4633 16.9731 20.2769L19.6666 22.9704L26.5268 16.1102C27.3404 15.2966 28.6595 15.2966 29.4731 16.1102Z" fill="#2D2D2F"/>
</svg>
