<svg width="43" height="43" viewBox="0 0 43 43" fill="none" xmlns="http://www.w3.org/2000/svg"><path fill-rule="evenodd" clip-rule="evenodd" d="M21.75 5.083c-9.205 0-16.667 7.462-16.667 16.667 0 9.205 7.462 16.666 16.667 16.666 9.205 0 16.667-7.461 16.667-16.666S30.955 5.083 21.75 5.083zM.917 21.75C.917 10.244 10.244.917 21.75.917c11.506 0 20.833 9.327 20.833 20.833 0 11.506-9.327 20.833-20.833 20.833C10.244 42.583.917 33.256.917 21.75z" fill="#2D2D2F"/><path fill-rule="evenodd" clip-rule="evenodd" d="M29.473 16.11a2.083 2.083 0 0 1 0 2.947L21.14 27.39a2.083 2.083 0 0 1-2.947 0l-4.166-4.167a2.083 2.083 0 1 1 2.946-2.946l2.694 2.693 6.86-6.86a2.083 2.083 0 0 1 2.946 0z" fill="#2D2D2F"/></svg>