<svg width="42" height="42" viewBox="0 0 42 42" fill="none" xmlns="http://www.w3.org/2000/svg"><path fill-rule="evenodd" clip-rule="evenodd" d="M21 4.333C11.795 4.333 4.333 11.795 4.333 21c0 9.205 7.462 16.666 16.667 16.666 9.205 0 16.667-7.461 16.667-16.666S30.205 4.333 21 4.333zM.167 21C.167 9.494 9.494.167 21 .167 32.506.167 41.833 9.494 41.833 21c0 11.506-9.327 20.833-20.833 20.833C9.494 41.833.167 32.506.167 21z" fill="#2D2D2F"/><path fill-rule="evenodd" clip-rule="evenodd" d="M18.917 10.583c1.15 0 2.083.933 2.083 2.083V21h8.333a2.083 2.083 0 1 1 0 4.166H18.917a2.083 2.083 0 0 1-2.084-2.083V12.666c0-1.15.933-2.083 2.084-2.083z" fill="#2D2D2F"/></svg>