<svg width="42" height="42" viewBox="0 0 42 42" fill="none" xmlns="http://www.w3.org/2000/svg">
<path fill-rule="evenodd" clip-rule="evenodd" d="M21 4.33317C11.7953 4.33317 4.33335 11.7951 4.33335 20.9998C4.33335 30.2046 11.7953 37.6665 21 37.6665C30.2048 37.6665 37.6667 30.2046 37.6667 20.9998C37.6667 11.7951 30.2048 4.33317 21 4.33317ZM0.166687 20.9998C0.166687 9.49391 9.49409 0.166504 21 0.166504C32.506 0.166504 41.8334 9.49391 41.8334 20.9998C41.8334 32.5058 32.506 41.8332 21 41.8332C9.49409 41.8332 0.166687 32.5058 0.166687 20.9998Z" fill="#2D2D2F"/>
<path fill-rule="evenodd" clip-rule="evenodd" d="M18.9167 10.583C20.0673 10.583 21 11.5157 21 12.6663V20.9997H29.3334C30.484 20.9997 31.4167 21.9324 31.4167 23.083C31.4167 24.2336 30.484 25.1663 29.3334 25.1663H18.9167C17.7661 25.1663 16.8334 24.2336 16.8334 23.083V12.6663C16.8334 11.5157 17.7661 10.583 18.9167 10.583Z" fill="#2D2D2F"/>
</svg>
