<svg width="18" height="18" viewBox="0 0 18 18" fill="none" xmlns="http://www.w3.org/2000/svg">
<path fill-rule="evenodd" clip-rule="evenodd" d="M0.43934 0.43934C1.02513 -0.146447 1.97487 -0.146447 2.56066 0.43934L9 6.87868L15.4393 0.43934C16.0251 -0.146447 16.9749 -0.146447 17.5607 0.43934C18.1464 1.02513 18.1464 1.97487 17.5607 2.56066L11.1213 9L17.5607 15.4393C18.1464 16.0251 18.1464 16.9749 17.5607 17.5607C16.9749 18.1464 16.0251 18.1464 15.4393 17.5607L9 11.1213L2.56066 17.5607C1.97487 18.1464 1.02513 18.1464 0.43934 17.5607C-0.146447 16.9749 -0.146447 16.0251 0.43934 15.4393L6.87868 9L0.43934 2.56066C-0.146447 1.97487 -0.146447 1.02513 0.43934 0.43934Z" fill="#2D2D2F"/>
</svg>
