<svg width="24" height="24" viewBox="0 0 24 24" fill="none" xmlns="http://www.w3.org/2000/svg">
<path d="M7 19H6C3.23858 19 1 16.7614 1 14C1 11.35 3.06163 9.18144 5.66851 9.01081C6.78975 6.64004 9.20335 5 12 5C15.5267 5 18.4442 7.60802 18.9292 11.0006C18.9528 11.0002 18.9764 11 19 11C21.2091 11 23 12.7909 23 15C23 17.2091 21.2091 19 19 19H17" stroke="#2D2D2F" stroke-width="2" stroke-linecap="round" stroke-linejoin="round"/>
<path d="M9 15L12 18M12 18L15 15M12 18L12 10" stroke="#2D2D2F" stroke-width="2" stroke-linecap="round" stroke-linejoin="round"/>
</svg>
