<svg width="24" height="17" viewBox="0 0 24 17" fill="none" xmlns="http://www.w3.org/2000/svg">
<path fill-rule="evenodd" clip-rule="evenodd" d="M12 2.5C9.60438 2.5 7.53466 3.90395 6.5725 5.93835C6.41724 6.26665 6.0962 6.48496 5.73382 6.50868C3.64927 6.64512 2 8.38036 2 10.5C2 12.7091 3.79086 14.5 6 14.5H7C7.55228 14.5 8 14.9477 8 15.5C8 16.0523 7.55228 16.5 7 16.5H6C2.68629 16.5 0 13.8137 0 10.5C0 7.51803 2.17484 5.04474 5.02547 4.57885C6.39612 2.14586 9.00498 0.5 12 0.5C15.7489 0.5 18.8942 3.07778 19.7624 6.55775C22.162 6.92486 24 8.99778 24 11.5C24 14.2614 21.7614 16.5 19 16.5H17C16.4477 16.5 16 16.0523 16 15.5C16 14.9477 16.4477 14.5 17 14.5H19C20.6569 14.5 22 13.1569 22 11.5C22 9.84315 20.6569 8.5 19 8.5C18.9821 8.5 18.9643 8.50015 18.9466 8.50046C18.4424 8.50921 18.0106 8.14127 17.9393 7.64212C17.5237 4.73512 15.022 2.5 12 2.5Z" fill="#2D2D2F"/>
<path fill-rule="evenodd" clip-rule="evenodd" d="M12.7071 15.2071C12.3166 15.5976 11.6834 15.5976 11.2929 15.2071L8.29289 12.2071C7.90237 11.8166 7.90237 11.1834 8.29289 10.7929C8.68342 10.4024 9.31658 10.4024 9.70711 10.7929L11 12.0858L11 6.5C11 5.94771 11.4477 5.5 12 5.5C12.5523 5.5 13 5.94771 13 6.5L13 12.0858L14.2929 10.7929C14.6834 10.4024 15.3166 10.4024 15.7071 10.7929C16.0976 11.1834 16.0976 11.8166 15.7071 12.2071L12.7071 15.2071Z" fill="#2D2D2F"/>
</svg>
