<svg width="24" height="17" viewBox="0 0 24 17" fill="none" xmlns="http://www.w3.org/2000/svg"><path fill-rule="evenodd" clip-rule="evenodd" d="M12 2.5a6 6 0 0 0-5.428 3.438 1 1 0 0 1-.838.57A4 4 0 0 0 6 14.5h1a1 1 0 1 1 0 2H6a6 6 0 0 1-.975-11.921 8.003 8.003 0 0 1 14.737 1.979A5.001 5.001 0 0 1 19 16.5h-2a1 1 0 1 1 0-2h2a3 3 0 1 0-.053-6 1 1 0 0 1-1.008-.858A6.002 6.002 0 0 0 12 2.5z" fill="#2D2D2F"/><path fill-rule="evenodd" clip-rule="evenodd" d="M12.707 15.207a1 1 0 0 1-1.414 0l-3-3a1 1 0 1 1 1.414-1.414L11 12.086V6.5a1 1 0 1 1 2 0v5.586l1.293-1.293a1 1 0 0 1 1.414 1.414l-3 3z" fill="#2D2D2F"/></svg>