<svg width="24" height="24" viewBox="0 0 24 24" fill="none" xmlns="http://www.w3.org/2000/svg">
<path d="M12 0C5.376 0 0 5.376 0 12C0 18.624 5.376 24 12 24C18.6 24 24 18.624 24 12C24 5.376 18.6 0 12 0ZM19.92 5.52C21.36 7.272 22.2 9.48 22.248 11.904C21.912 11.832 18.528 11.16 15.12 11.568C15.048 11.4 14.976 11.208 14.904 11.04C14.688 10.536 14.472 10.032 14.232 9.552C17.976 8.04 19.704 5.808 19.92 5.52ZM12 1.776C14.592 1.776 16.992 2.76 18.792 4.344C18.6 4.608 17.064 6.672 13.416 8.04C11.736 4.944 9.864 2.424 9.6 2.04C10.368 1.872 11.16 1.776 12 1.776ZM7.632 2.736C7.896 3.096 9.72 5.64 11.424 8.664C6.624 9.936 2.4 9.912 1.944 9.912C2.64 6.72 4.776 4.08 7.632 2.736ZM1.752 12.024C1.752 11.928 1.752 11.808 1.752 11.712C2.184 11.736 7.176 11.784 12.288 10.248C12.576 10.824 12.864 11.4 13.128 12C13.008 12.048 12.864 12.072 12.72 12.12C7.44 13.824 4.632 18.48 4.392 18.864C2.736 17.04 1.752 14.64 1.752 12.024ZM12 22.248C9.624 22.248 7.44 21.432 5.712 20.088C5.904 19.704 7.968 15.696 13.752 13.68C13.776 13.656 13.8 13.656 13.824 13.656C15.264 17.4 15.864 20.52 16.008 21.432C14.784 21.96 13.416 22.248 12 22.248ZM17.712 20.496C17.616 19.872 17.064 16.872 15.72 13.2C18.936 12.696 21.744 13.536 22.104 13.632C21.648 16.488 20.016 18.96 17.712 20.496Z" fill="#2D2D2F"/>
</svg>
