<svg width="24" height="24" viewBox="0 0 24 24" fill="none" xmlns="http://www.w3.org/2000/svg"><path d="M12 0C5.376 0 0 5.376 0 12s5.376 12 12 12c6.6 0 12-5.376 12-12S18.6 0 12 0zm7.92 5.52c1.44 1.752 2.28 3.96 2.328 6.384-.336-.072-3.72-.744-7.128-.336-.072-.168-.144-.36-.216-.528a27.99 27.99 0 0 0-.672-1.488c3.744-1.512 5.472-3.744 5.688-4.032zM12 1.776c2.592 0 4.992.984 6.792 2.568-.192.264-1.728 2.328-5.376 3.696-1.68-3.096-3.552-5.616-3.816-6 .768-.168 1.56-.264 2.4-.264zm-4.368.96a66.56 66.56 0 0 1 3.792 5.928c-4.8 1.272-9.024 1.248-9.48 1.248C2.64 6.72 4.776 4.08 7.632 2.736zm-5.88 9.288v-.312c.432.024 5.424.072 10.536-1.464.288.576.576 1.152.84 1.752-.12.048-.264.072-.408.12-5.28 1.704-8.088 6.36-8.328 6.744a10.132 10.132 0 0 1-2.64-6.84zM12 22.248a10.22 10.22 0 0 1-6.288-2.16c.192-.384 2.256-4.392 8.04-6.408.024-.024.048-.024.072-.024 1.44 3.744 2.04 6.864 2.184 7.776a10.137 10.137 0 0 1-4.008.816zm5.712-1.752c-.096-.624-.648-3.624-1.992-7.296 3.216-.504 6.024.336 6.384.432a10.184 10.184 0 0 1-4.392 6.864z" fill="#2D2D2F"/></svg>