<svg width="16" height="12" viewBox="0 0 16 12" fill="none" xmlns="http://www.w3.org/2000/svg"><path fill-rule="evenodd" clip-rule="evenodd" d="M2.054 6C3.079 8.37 5.284 10 8 10c2.716 0 4.92-1.63 5.946-4C12.92 3.629 10.716 2 8 2 5.284 2 3.08 3.629 2.054 6zM.712 5.757C1.87 2.796 4.59.667 8 .667s6.131 2.129 7.288 5.09c.06.156.06.33 0 .485C14.13 9.204 11.41 11.333 8 11.333S1.869 9.203.712 6.243a.667.667 0 0 1 0-.486zM8 4.667a1.333 1.333 0 1 0 0 2.666 1.333 1.333 0 0 0 0-2.667zM5.333 6a2.667 2.667 0 1 1 5.334 0 2.667 2.667 0 0 1-5.334 0z" fill="#6F6F75"/></svg>