<svg width="16" height="12" viewBox="0 0 16 12" fill="none" xmlns="http://www.w3.org/2000/svg">
<path fill-rule="evenodd" clip-rule="evenodd" d="M2.05403 5.99984C3.07946 8.37084 5.28373 9.99984 7.99996 9.99984C10.7162 9.99984 12.9205 8.37084 13.9459 5.99984C12.9205 3.62884 10.7162 1.99984 7.99996 1.99984C5.28373 1.99984 3.07946 3.62884 2.05403 5.99984ZM0.712301 5.75732C1.86882 2.7959 4.58923 0.666504 7.99996 0.666504C11.4107 0.666504 14.1311 2.7959 15.2876 5.75732C15.3485 5.91326 15.3485 6.08641 15.2876 6.24235C14.1311 9.20377 11.4107 11.3332 7.99996 11.3332C4.58923 11.3332 1.86882 9.20377 0.712301 6.24235C0.651401 6.08641 0.651401 5.91326 0.712301 5.75732ZM7.99996 4.6665C7.26358 4.6665 6.66663 5.26346 6.66663 5.99984C6.66663 6.73622 7.26358 7.33317 7.99996 7.33317C8.73634 7.33317 9.33329 6.73622 9.33329 5.99984C9.33329 5.26346 8.73634 4.6665 7.99996 4.6665ZM5.33329 5.99984C5.33329 4.52708 6.5272 3.33317 7.99996 3.33317C9.47272 3.33317 10.6666 4.52708 10.6666 5.99984C10.6666 7.4726 9.47272 8.6665 7.99996 8.6665C6.5272 8.6665 5.33329 7.4726 5.33329 5.99984Z" fill="#6F6F75"/>
</svg>
