<svg width="18" height="18" viewBox="0 0 18 18" fill="none" xmlns="http://www.w3.org/2000/svg">
<path fill-rule="evenodd" clip-rule="evenodd" d="M0.105579 0.552786C0.274971 0.214002 0.621234 0 1.00001 0H17C17.3788 0 17.725 0.214002 17.8944 0.552786C18.0638 0.89157 18.0273 1.29698 17.8 1.6L12.2 9.06667C12.0702 9.23976 12 9.4503 12 9.66667V15C12 15.3788 11.786 15.725 11.4472 15.8944L7.44722 17.8944C7.13723 18.0494 6.76909 18.0329 6.47427 17.8507C6.17946 17.6684 6.00001 17.3466 6.00001 17V9.66667C6.00001 9.4503 5.92983 9.23976 5.80001 9.06667L0.200006 1.6C-0.0272575 1.29698 -0.0638134 0.89157 0.105579 0.552786ZM3.00001 2L7.40001 7.86667C7.78947 8.38596 8.00001 9.01756 8.00001 9.66667V15.382L10 14.382V9.66667C10 9.01756 10.2105 8.38595 10.6 7.86667L15 2H3.00001Z" fill="#242328"/>
</svg>
