<svg width="16" height="16" viewBox="0 0 16 16" fill="none" xmlns="http://www.w3.org/2000/svg">
<path d="M7.87253 1.54594C9.9746 1.54594 10.2236 1.55397 11.0538 1.59185C11.8213 1.62688 12.2382 1.7551 12.5156 1.86291C12.8575 1.98911 13.1668 2.19035 13.4208 2.45182C13.6823 2.70575 13.8835 3.01506 14.0097 3.357C14.1175 3.63441 14.2458 4.05125 14.2808 4.81881C14.3186 5.64897 14.3267 5.89794 14.3267 8.00006C14.3267 10.1022 14.3186 10.3511 14.2808 11.1813C14.2457 11.9489 14.1175 12.3657 14.0097 12.6431C13.8787 12.9826 13.6781 13.291 13.4208 13.5483C13.1635 13.8056 12.8551 14.0062 12.5156 14.1372C12.2382 14.245 11.8213 14.3733 11.0538 14.4083C10.2238 14.4462 9.97481 14.4542 7.87253 14.4542C5.77025 14.4542 5.52138 14.4462 4.69128 14.4083C3.92372 14.3732 3.50691 14.245 3.22947 14.1372C2.88753 14.011 2.57822 13.8098 2.32428 13.5483C2.06281 13.2944 1.86158 12.9851 1.73538 12.6431C1.62756 12.3657 1.49931 11.9489 1.46431 11.1813C1.42644 10.3512 1.41841 10.1022 1.41841 8.00006C1.41841 5.89794 1.42644 5.64903 1.46431 4.81881C1.49934 4.05125 1.62756 3.63444 1.73538 3.357C1.86159 3.01505 2.06285 2.70572 2.32434 2.45178C2.57828 2.19032 2.88759 1.98908 3.22953 1.86288C3.50694 1.75507 3.92378 1.62682 4.69134 1.59182C5.5215 1.55394 5.77047 1.54591 7.8726 1.54591L7.87253 1.54594ZM7.8726 0.127441C5.73453 0.127441 5.46634 0.136504 4.62678 0.174816C3.78881 0.213066 3.21656 0.346129 2.71581 0.540754C2.19052 0.73843 1.71467 1.04831 1.32144 1.44878C0.920872 1.84199 0.610905 2.31784 0.413156 2.84316C0.218687 3.34394 0.085625 3.91619 0.0475313 4.75416C0.0090625 5.59372 0 5.86191 0 7.99997C0 10.138 0.0090625 10.4062 0.0475313 11.2458C0.0857813 12.0837 0.218844 12.656 0.413469 13.1567C0.611146 13.682 0.921026 14.1579 1.3215 14.5511C1.71473 14.9516 2.19058 15.2615 2.71588 15.4592C3.21666 15.6538 3.78891 15.7868 4.62684 15.8251C5.46653 15.8634 5.73463 15.8725 7.87266 15.8725C10.0107 15.8725 10.2789 15.8634 11.1185 15.8251C11.9564 15.7868 12.5287 15.6538 13.0294 15.4592C13.5524 15.2569 14.0273 14.9476 14.4238 14.5511C14.8203 14.1546 15.1296 13.6797 15.3318 13.1567C15.5265 12.656 15.6595 12.0837 15.6978 11.2458C15.7361 10.4061 15.7452 10.138 15.7452 7.99997C15.7452 5.86194 15.7361 5.59372 15.6978 4.75416C15.6595 3.91619 15.5265 3.34394 15.3318 2.84319C15.1342 2.3179 14.8243 1.84204 14.4238 1.44882C14.0306 1.04826 13.5547 0.738315 13.0293 0.540597C12.5286 0.346129 11.9563 0.213066 11.1183 0.174973C10.2788 0.136504 10.0106 0.127441 7.87253 0.127441H7.8726Z" fill="#2D2D2F"/>
<path d="M7.87274 3.95752C7.07317 3.95752 6.29157 4.19462 5.62676 4.63883C4.96195 5.08304 4.44379 5.71442 4.13781 6.45312C3.83183 7.19181 3.75177 8.00466 3.90776 8.78885C4.06375 9.57305 4.44877 10.2934 5.01415 10.8588C5.57952 11.4241 6.29986 11.8092 7.08405 11.9651C7.86825 12.1211 8.68109 12.0411 9.41979 11.7351C10.1585 11.4291 10.7899 10.911 11.2341 10.2461C11.6783 9.58134 11.9154 8.79973 11.9154 8.00017C11.9154 6.92799 11.4895 5.89973 10.7313 5.14158C9.97318 4.38344 8.94492 3.95752 7.87274 3.95752V3.95752ZM7.87274 10.6243C7.35373 10.6243 6.84638 10.4704 6.41484 10.1821C5.98331 9.89371 5.64697 9.48387 5.44835 9.00437C5.24974 8.52487 5.19778 7.99724 5.29904 7.48821C5.40029 6.97917 5.65022 6.5116 6.01722 6.1446C6.38422 5.77761 6.8518 5.52769 7.36083 5.42644C7.86987 5.32519 8.3975 5.37716 8.877 5.57577C9.3565 5.77439 9.76633 6.11073 10.0547 6.54227C10.343 6.97381 10.4969 7.48116 10.4969 8.00017C10.4969 8.69614 10.2204 9.36361 9.72831 9.85573C9.23618 10.3479 8.56871 10.6243 7.87274 10.6243Z" fill="#2D2D2F"/>
<path d="M12.0751 4.7424C12.5968 4.7424 13.0197 4.31945 13.0197 3.79772C13.0197 3.27598 12.5968 2.85303 12.0751 2.85303C11.5533 2.85303 11.1304 3.27598 11.1304 3.79772C11.1304 4.31945 11.5533 4.7424 12.0751 4.7424Z" fill="#2D2D2F"/>
</svg>
