<svg width="16" height="16" viewBox="0 0 16 16" fill="none" xmlns="http://www.w3.org/2000/svg"><path d="M7.873 1.546c2.102 0 2.35.008 3.18.046.768.035 1.185.163 1.463.27.341.127.65.328.905.59.261.254.463.563.589.905.107.277.236.694.27 1.462.039.83.047 1.079.047 3.181 0 2.102-.008 2.351-.046 3.181-.035.768-.164 1.185-.271 1.462a2.608 2.608 0 0 1-1.494 1.494c-.278.108-.695.236-1.462.271-.83.038-1.08.046-3.181.046-2.103 0-2.352-.008-3.182-.046-.767-.035-1.184-.163-1.462-.27a2.439 2.439 0 0 1-.905-.59 2.438 2.438 0 0 1-.589-.905c-.107-.277-.236-.694-.27-1.462-.039-.83-.047-1.079-.047-3.18 0-2.103.008-2.352.046-3.182.035-.768.164-1.185.271-1.462a2.44 2.44 0 0 1 .59-.905 2.44 2.44 0 0 1 .905-.59c.277-.107.694-.235 1.461-.27.83-.038 1.08-.046 3.182-.046zm0-1.419c-2.138 0-2.407.01-3.246.048-.838.038-1.41.171-1.911.366a3.86 3.86 0 0 0-1.395.908c-.4.393-.71.869-.908 1.394-.194.5-.327 1.073-.365 1.911C.009 5.594 0 5.862 0 8s.01 2.406.048 3.246c.038.838.17 1.41.365 1.91.198.526.508 1.002.908 1.395.394.4.87.71 1.395.908.5.195 1.073.328 1.91.366.84.038 1.109.048 3.247.048s2.406-.01 3.245-.048c.838-.038 1.41-.171 1.911-.366a4.026 4.026 0 0 0 2.303-2.302c.194-.501.327-1.073.366-1.911.038-.84.047-1.108.047-3.246s-.009-2.406-.047-3.246c-.039-.838-.171-1.41-.366-1.91a3.858 3.858 0 0 0-.908-1.395c-.393-.4-.87-.71-1.395-.908-.5-.195-1.073-.328-1.91-.366-.84-.038-1.108-.048-3.246-.048z" fill="#2D2D2F"/><path d="M7.873 3.958a4.043 4.043 0 1 0 0 8.085 4.043 4.043 0 0 0 0-8.085zm0 6.666a2.624 2.624 0 1 1 0-5.249 2.624 2.624 0 0 1 0 5.25zm4.202-5.882a.945.945 0 1 0 0-1.889.945.945 0 0 0 0 1.89z" fill="#2D2D2F"/></svg>