<svg width="30" height="30" viewBox="0 0 30 30" fill="none" xmlns="http://www.w3.org/2000/svg">
<path fill-rule="evenodd" clip-rule="evenodd" d="M15 3C8.37258 3 3 8.37258 3 15C3 21.6274 8.37258 27 15 27C21.6274 27 27 21.6274 27 15C27 8.37258 21.6274 3 15 3ZM0 15C0 6.71573 6.71573 0 15 0C23.2843 0 30 6.71573 30 15C30 23.2843 23.2843 30 15 30C6.71573 30 0 23.2843 0 15Z" fill="#2D2D2F"/>
<path d="M12.75 11.25C12.75 12.4926 11.7426 13.5 10.5 13.5C9.25736 13.5 8.25 12.4926 8.25 11.25C8.25 10.0074 9.25736 9 10.5 9C11.7426 9 12.75 10.0074 12.75 11.25Z" fill="#2D2D2F"/>
<path d="M21.75 11.25C21.75 12.4926 20.7426 13.5 19.5 13.5C18.2574 13.5 17.25 12.4926 17.25 11.25C17.25 10.0074 18.2574 9 19.5 9C20.7426 9 21.75 10.0074 21.75 11.25Z" fill="#2D2D2F"/>
<path fill-rule="evenodd" clip-rule="evenodd" d="M9.05165 16.7016C9.76874 16.2868 10.6863 16.5318 11.1011 17.2489C11.8815 18.5979 13.3363 19.5 15 19.5C16.6638 19.5 18.1186 18.5979 18.8989 17.2489C19.3138 16.5318 20.2313 16.2868 20.9484 16.7016C21.6655 17.1164 21.9106 18.034 21.4958 18.7511C20.2012 20.9889 17.778 22.5 15 22.5C12.2221 22.5 9.79885 20.9889 8.50433 18.7511C8.08952 18.034 8.33456 17.1164 9.05165 16.7016Z" fill="#2D2D2F"/>
</svg>
