<svg width="24" height="24" viewBox="0 0 24 24" fill="none" xmlns="http://www.w3.org/2000/svg"><path d="M7.531 19.578a.632.632 0 0 1-.631.632H4.21a.632.632 0 0 1-.632-.632V8.304c0-.349.283-.631.632-.631H6.9a.63.63 0 0 1 .631.631v11.274zM5.555 6.61a2.555 2.555 0 1 1 0-5.11 2.555 2.555 0 0 1 0 5.11zm16.031 13.019c0 .32-.26.58-.58.58h-2.887a.58.58 0 0 1-.58-.58v-5.288c0-.789.23-3.457-2.062-3.457-1.779 0-2.14 1.826-2.212 2.646v6.099c0 .32-.26.58-.58.58H9.892a.58.58 0 0 1-.58-.58V8.253c0-.32.26-.58.58-.58h2.791c.32 0 .581.26.581.58v.984c.66-.99 1.64-1.754 3.726-1.754 4.622 0 4.595 4.318 4.595 6.69v5.456z" fill="#2D2D2F"/></svg>