<svg width="24" height="24" viewBox="0 0 24 24" fill="none" xmlns="http://www.w3.org/2000/svg">
<path d="M7.53141 19.5782C7.53141 19.9271 7.24857 20.2099 6.89962 20.2099H4.21024C3.8613 20.2099 3.57845 19.9271 3.57845 19.5782V8.30438C3.57845 7.95543 3.8613 7.67259 4.21024 7.67259H6.89962C7.24857 7.67259 7.53141 7.95543 7.53141 8.30438V19.5782ZM5.55493 6.60986C4.1439 6.60986 3 5.46597 3 4.05493C3 2.6439 4.1439 1.5 5.55493 1.5C6.96597 1.5 8.10986 2.6439 8.10986 4.05493C8.10986 5.46597 6.96603 6.60986 5.55493 6.60986ZM21.5861 19.629C21.5861 19.9498 21.3259 20.2099 21.0052 20.2099H18.1192C17.7985 20.2099 17.5383 19.9498 17.5383 19.629V14.341C17.5383 13.5521 17.7697 10.8842 15.4768 10.8842C13.6982 10.8842 13.3375 12.7103 13.265 13.5298V19.629C13.265 19.9498 13.005 20.2099 12.6841 20.2099H9.89296C9.57217 20.2099 9.31206 19.9498 9.31206 19.629V8.25349C9.31206 7.93269 9.57217 7.67259 9.89296 7.67259H12.6841C13.0049 7.67259 13.265 7.93269 13.265 8.25349V9.23705C13.9245 8.24733 14.9046 7.48341 16.9914 7.48341C21.6125 7.48341 21.5861 11.8007 21.5861 14.1728V19.629Z" fill="#2D2D2F"/>
</svg>
