<svg width="16" height="21" viewBox="0 0 16 21" fill="none" xmlns="http://www.w3.org/2000/svg"><path fill-rule="evenodd" clip-rule="evenodd" d="M8 2.5a3 3 0 0 0-3 3v3a1 1 0 0 1-2 0v-3a5 5 0 0 1 10 0v3a1 1 0 1 1-2 0v-3a3 3 0 0 0-3-3z" fill="#2D2D2F"/><path fill-rule="evenodd" clip-rule="evenodd" d="M0 8.5a1 1 0 0 1 1-1h14a1 1 0 0 1 1 1v9a3 3 0 0 1-3 3H3a3 3 0 0 1-3-3v-9zm2 1v8a1 1 0 0 0 1 1h10a1 1 0 0 0 1-1v-8H2z" fill="#2D2D2F"/><path d="M9 14a1.5 1.5 0 1 1 3 0 1.5 1.5 0 0 1-3 0z" fill="#2D2D2F"/></svg>