<svg width="16" height="21" viewBox="0 0 16 21" fill="none" xmlns="http://www.w3.org/2000/svg">
<path fill-rule="evenodd" clip-rule="evenodd" d="M8 2.5C6.34315 2.5 5 3.84315 5 5.5V8.5C5 9.05228 4.55228 9.5 4 9.5C3.44772 9.5 3 9.05228 3 8.5V5.5C3 2.73858 5.23858 0.5 8 0.5C10.7614 0.5 13 2.73858 13 5.5V8.5C13 9.05228 12.5523 9.5 12 9.5C11.4477 9.5 11 9.05228 11 8.5V5.5C11 3.84315 9.65685 2.5 8 2.5Z" fill="#2D2D2F"/>
<path fill-rule="evenodd" clip-rule="evenodd" d="M0 8.5C0 7.94772 0.447715 7.5 1 7.5H15C15.5523 7.5 16 7.94772 16 8.5V17.5C16 19.1569 14.6569 20.5 13 20.5H3C1.34315 20.5 0 19.1569 0 17.5V8.5ZM2 9.5V17.5C2 18.0523 2.44772 18.5 3 18.5H13C13.5523 18.5 14 18.0523 14 17.5V9.5H2Z" fill="#2D2D2F"/>
<path d="M9 14C9 13.1716 9.67157 12.5 10.5 12.5C11.3284 12.5 12 13.1716 12 14C12 14.8284 11.3284 15.5 10.5 15.5C9.67157 15.5 9 14.8284 9 14Z" fill="#2D2D2F"/>
</svg>
