<svg width="20" height="20" viewBox="0 0 20 20" fill="none" xmlns="http://www.w3.org/2000/svg">
<path fill-rule="evenodd" clip-rule="evenodd" d="M9 2C5.13401 2 2 5.13401 2 9C2 12.866 5.13401 16 9 16C10.9333 16 12.6819 15.2176 13.9497 13.9497C15.2176 12.6819 16 10.9333 16 9C16 5.13401 12.866 2 9 2ZM0 9C0 4.02944 4.02944 0 9 0C13.9706 0 18 4.02944 18 9C18 11.1246 17.2628 13.0784 16.0319 14.6176L19.7071 18.2929C20.0976 18.6834 20.0976 19.3166 19.7071 19.7071C19.3166 20.0976 18.6834 20.0976 18.2929 19.7071L14.6176 16.0319C13.0784 17.2628 11.1246 18 9 18C4.02944 18 0 13.9706 0 9Z" fill="#2D2D2F"/>
</svg>
