<svg width="20" height="16" viewBox="0 0 20 16" fill="none" xmlns="http://www.w3.org/2000/svg">
<path fill-rule="evenodd" clip-rule="evenodd" d="M3.82967 3.81926C4.39839 3.42116 4.39838 2.5789 3.82967 2.1808L1.57346 0.601453C0.910685 0.137509 0 0.611662 0 1.42069V4.57937C0 5.3884 0.910686 5.86255 1.57346 5.39861L3.82967 3.81926Z" fill="#242328"/>
<path fill-rule="evenodd" clip-rule="evenodd" d="M8.74228e-08 9C3.91405e-08 8.44772 0.447715 8 1 8L19 8C19.5523 8 20 8.44771 20 9C20 9.55228 19.5523 10 19 10L1 10C0.447715 10 1.35705e-07 9.55228 8.74228e-08 9Z" fill="#242328"/>
<path fill-rule="evenodd" clip-rule="evenodd" d="M7 3C7 2.44772 7.44772 2 8 2L19 2C19.5523 2 20 2.44771 20 3C20 3.55228 19.5523 4 19 4L8 4C7.44772 4 7 3.55228 7 3Z" fill="#242328"/>
<path fill-rule="evenodd" clip-rule="evenodd" d="M8.74228e-08 15C3.91405e-08 14.4477 0.447715 14 1 14L19 14C19.5523 14 20 14.4477 20 15C20 15.5523 19.5523 16 19 16L1 16C0.447715 16 1.35705e-07 15.5523 8.74228e-08 15Z" fill="#242328"/>
</svg>
