<svg width="96" height="96" viewBox="0 0 96 96" fill="none" xmlns="http://www.w3.org/2000/svg">
<circle cx="48" cy="48" r="36" stroke="#2D2D2F" stroke-width="8" stroke-linecap="round" stroke-linejoin="round"/>
<path d="M42 38C42 41.3137 39.3137 44 36 44C32.6863 44 30 41.3137 30 38C30 34.6863 32.6863 32 36 32C39.3137 32 42 34.6863 42 38Z" fill="#2D2D2F"/>
<path d="M66 38C66 41.3137 63.3137 44 60 44C56.6863 44 54 41.3137 54 38C54 34.6863 56.6863 32 60 32C63.3137 32 66 34.6863 66 38Z" fill="#2D2D2F"/>
<path d="M34.1407 64C36.9071 59.2176 42.0779 56 48.0001 56C53.9224 56 59.0931 59.2176 61.8596 64" stroke="#2D2D2F" stroke-width="8" stroke-linecap="round" stroke-linejoin="round"/>
</svg>
