<svg width="42" height="42" viewBox="0 0 42 42" fill="none" xmlns="http://www.w3.org/2000/svg"><path fill-rule="evenodd" clip-rule="evenodd" d="M36.894 10.667a2.083 2.083 0 0 1-2.93-.31c-3.06-3.78-7.73-6.19-12.964-6.19-9.205 0-16.667 7.462-16.667 16.666a2.083 2.083 0 1 1-4.166 0C.167 9.327 9.494 0 21 0c6.545 0 12.387 3.021 16.203 7.737a2.083 2.083 0 0 1-.31 2.93z" fill="#2D2D2F"/><path fill-rule="evenodd" clip-rule="evenodd" d="M36.625 0c1.15 0 2.083.933 2.083 2.083v8.334c0 1.15-.932 2.083-2.083 2.083h-8.333a2.083 2.083 0 1 1 0-4.167h6.25v-6.25c0-1.15.932-2.083 2.083-2.083zM5.106 31a2.083 2.083 0 0 1 2.93.31c3.06 3.78 7.73 6.19 12.964 6.19 9.205 0 16.667-7.462 16.667-16.666a2.083 2.083 0 0 1 4.166 0c0 11.506-9.327 20.833-20.833 20.833-6.545 0-12.387-3.021-16.203-7.737a2.083 2.083 0 0 1 .31-2.93z" fill="#2D2D2F"/><path fill-rule="evenodd" clip-rule="evenodd" d="M5.375 41.667a2.083 2.083 0 0 1-2.083-2.083V31.25c0-1.15.932-2.083 2.083-2.083h8.333a2.083 2.083 0 0 1 0 4.167h-6.25v6.25c0 1.15-.932 2.083-2.083 2.083z" fill="#2D2D2F"/></svg>