<svg width="42" height="42" viewBox="0 0 42 42" fill="none" xmlns="http://www.w3.org/2000/svg">
<path fill-rule="evenodd" clip-rule="evenodd" d="M36.8937 10.6667C35.9993 11.3905 34.6875 11.2522 33.9637 10.3577C30.9048 6.57763 26.2347 4.16667 20.9999 4.16667C11.7951 4.16667 4.33322 11.6286 4.33322 20.8333C4.33322 21.9839 3.40048 22.9167 2.24989 22.9167C1.0993 22.9167 0.166556 21.9839 0.166556 20.8333C0.166557 9.3274 9.49396 -1.23147e-06 20.9999 -7.28526e-07C27.5454 -4.42414e-07 33.3868 3.02098 37.2027 7.73671C37.9265 8.63114 37.7882 9.94296 36.8937 10.6667Z" fill="#2D2D2F"/>
<path fill-rule="evenodd" clip-rule="evenodd" d="M36.625 -9.10654e-08C37.7756 -4.07714e-08 38.7084 0.93274 38.7084 2.08333L38.7084 10.4167C38.7084 11.5673 37.7756 12.5 36.625 12.5L28.2917 12.5C27.1411 12.5 26.2084 11.5673 26.2084 10.4167C26.2084 9.26607 27.1411 8.33333 28.2917 8.33333L34.5417 8.33333L34.5417 2.08333C34.5417 0.93274 35.4744 -1.41359e-07 36.625 -9.10654e-08Z" fill="#2D2D2F"/>
<path fill-rule="evenodd" clip-rule="evenodd" d="M5.10621 31.0003C6.00064 30.2765 7.31246 30.4148 8.03623 31.3093C11.0951 35.0894 15.7652 37.5003 21.0001 37.5003C30.2048 37.5003 37.6667 30.0384 37.6667 20.8337C37.6667 19.6831 38.5995 18.7503 39.7501 18.7503C40.9006 18.7503 41.8334 19.6831 41.8334 20.8337C41.8334 32.3396 32.506 41.667 21 41.667C14.4546 41.667 8.61316 38.646 4.7972 33.9303C4.07342 33.0358 4.21177 31.724 5.10621 31.0003Z" fill="#2D2D2F"/>
<path fill-rule="evenodd" clip-rule="evenodd" d="M5.37502 41.667C4.22443 41.667 3.29169 40.7343 3.29169 39.5837L3.29169 31.2503C3.29169 30.0997 4.22443 29.167 5.37502 29.167L13.7084 29.167C14.8589 29.167 15.7917 30.0997 15.7917 31.2503C15.7917 32.4009 14.8589 33.3337 13.7084 33.3337L7.45835 33.3337L7.45835 39.5837C7.45835 40.7343 6.52561 41.667 5.37502 41.667Z" fill="#2D2D2F"/>
</svg>
