<svg width="24" height="24" viewBox="0 0 24 24" fill="none" xmlns="http://www.w3.org/2000/svg">
<path d="M23.2137 1.5C23.136 1.5 23.0584 1.5 22.9808 1.57764L0.465826 10.1178C-0.155275 10.3507 -0.155275 11.2824 0.465826 11.5153L5.66755 13.3009L8.8507 19.5896C8.92834 19.6672 9.00598 19.7449 9.16125 19.7449C9.23889 19.7449 9.31653 19.7449 9.39417 19.6672L12.3444 17.1828L9.08361 14.6984L9.31653 17.9592L6.9874 13.068L19.5647 5.53716L9.08361 14.6984L17.2356 20.9094C17.5461 21.1423 17.8567 21.22 18.0896 21.22C18.7107 21.22 19.3318 20.8318 19.5647 20.1331L23.9901 2.50929C24.0677 1.88819 23.6795 1.5 23.2137 1.5Z" fill="#2D2D2F"/>
</svg>
