<svg width="28" height="24" viewBox="0 0 28 24" fill="none" xmlns="http://www.w3.org/2000/svg"><path d="M25.064 3.294c-.943.514-1.971.882-3.085 1.102A5.269 5.269 0 0 0 18.379 3c-2.743 0-4.886 1.984-4.886 4.482 0 .367.086.66.086 1.028-4.115-.22-7.715-1.983-10.115-4.702a4.065 4.065 0 0 0-.685 2.278c0 1.543.857 2.938 2.228 3.673-.771 0-1.543-.22-2.228-.588v.074c0 2.13 1.714 3.967 3.942 4.335-.428.073-.857.146-1.285.146-.343 0-.6 0-.943-.073.6 1.837 2.4 3.086 4.543 3.16-1.715 1.175-3.772 1.91-6.086 1.91-.429 0-.771 0-1.2-.074 2.143 1.249 4.8 1.984 7.543 1.984 9.086 0 13.971-6.76 13.971-12.637v-.588c.943-.661 1.8-1.396 2.486-2.277-.857.367-1.8.587-2.829.734 1.029-.66 1.8-1.47 2.143-2.571z" fill="#2D2D2F"/></svg>