<svg width="28" height="24" viewBox="0 0 28 24" fill="none" xmlns="http://www.w3.org/2000/svg">
<path d="M25.0643 3.29388C24.1214 3.80816 23.0929 4.17551 21.9786 4.39592C21.0357 3.51429 19.75 3 18.3786 3C15.6357 3 13.4929 4.98367 13.4929 7.48163C13.4929 7.84898 13.5786 8.14286 13.5786 8.5102C9.46429 8.2898 5.86429 6.52653 3.46429 3.80816C3.03571 4.46939 2.77857 5.20408 2.77857 6.08571C2.77857 7.62857 3.63571 9.02449 5.00714 9.75918C4.23571 9.75918 3.46429 9.53878 2.77857 9.17143V9.2449C2.77857 11.3755 4.49286 13.2122 6.72143 13.5796C6.29286 13.6531 5.86429 13.7265 5.43571 13.7265C5.09286 13.7265 4.83571 13.7265 4.49286 13.6531C5.09286 15.4898 6.89286 16.7388 9.03572 16.8122C7.32143 17.9878 5.26429 18.7225 2.95 18.7225C2.52143 18.7225 2.17857 18.7225 1.75 18.649C3.89286 19.898 6.55 20.6327 9.29286 20.6327C18.3786 20.6327 23.2643 13.8735 23.2643 7.99592C23.2643 7.77551 23.2643 7.62857 23.2643 7.40816C24.2071 6.74694 25.0643 6.01225 25.75 5.13061C24.8929 5.49796 23.95 5.71837 22.9214 5.86531C23.95 5.20408 24.7214 4.39592 25.0643 3.29388Z" fill="#2D2D2F"/>
</svg>
