<svg width="30" height="30" viewBox="0 0 30 30" fill="none" xmlns="http://www.w3.org/2000/svg">
<path fill-rule="evenodd" clip-rule="evenodd" d="M15 3C8.37258 3 3 8.37258 3 15C3 21.6274 8.37258 27 15 27C21.6274 27 27 21.6274 27 15C27 8.37258 21.6274 3 15 3ZM0 15C0 6.71573 6.71573 0 15 0C23.2843 0 30 6.71573 30 15C30 23.2843 23.2843 30 15 30C6.71573 30 0 23.2843 0 15Z" fill="#2D2D2F"/>
<path d="M12.75 11.25C12.75 12.4926 11.7426 13.5 10.5 13.5C9.25736 13.5 8.25 12.4926 8.25 11.25C8.25 10.0074 9.25736 9 10.5 9C11.7426 9 12.75 10.0074 12.75 11.25Z" fill="#2D2D2F"/>
<path d="M21.75 11.25C21.75 12.4926 20.7426 13.5 19.5 13.5C18.2574 13.5 17.25 12.4926 17.25 11.25C17.25 10.0074 18.2574 9 19.5 9C20.7426 9 21.75 10.0074 21.75 11.25Z" fill="#2D2D2F"/>
<path fill-rule="evenodd" clip-rule="evenodd" d="M20.9485 22.2984C20.2314 22.7132 19.3138 22.4682 18.899 21.7511C18.1186 20.4021 16.6638 19.5 15.0001 19.5C13.3363 19.5 11.8815 20.4021 11.1012 21.7511C10.6864 22.4682 9.76877 22.7132 9.05168 22.2984C8.33459 21.8836 8.08955 20.966 8.50436 20.2489C9.79888 18.0111 12.2221 16.5 15.0001 16.5C17.778 16.5 20.2013 18.0111 21.4958 20.2489C21.9106 20.966 21.6656 21.8836 20.9485 22.2984Z" fill="#2D2D2F"/>
</svg>
