<svg width="30" height="30" viewBox="0 0 30 30" fill="none" xmlns="http://www.w3.org/2000/svg"><path fill-rule="evenodd" clip-rule="evenodd" d="M15 3C8.373 3 3 8.373 3 15s5.373 12 12 12 12-5.373 12-12S21.627 3 15 3zM0 15C0 6.716 6.716 0 15 0c8.284 0 15 6.716 15 15 0 8.284-6.716 15-15 15-8.284 0-15-6.716-15-15z" fill="#2D2D2F"/><path d="M12.75 11.25a2.25 2.25 0 1 1-4.5 0 2.25 2.25 0 0 1 4.5 0zm9 0a2.25 2.25 0 1 1-4.5 0 2.25 2.25 0 0 1 4.5 0z" fill="#2D2D2F"/><path fill-rule="evenodd" clip-rule="evenodd" d="M20.948 22.298a1.5 1.5 0 0 1-2.049-.547A4.498 4.498 0 0 0 15 19.5a4.497 4.497 0 0 0-3.899 2.251 1.5 1.5 0 0 1-2.597-1.502A7.498 7.498 0 0 1 15 16.5a7.498 7.498 0 0 1 6.496 3.749 1.5 1.5 0 0 1-.547 2.05z" fill="#2D2D2F"/></svg>