<svg width="24" height="24" viewBox="0 0 24 24" fill="none" xmlns="http://www.w3.org/2000/svg">
<g clip-path="url(#clip0_7_369)">
<path d="M21.4117 14.2714C19.4418 12.4714 19.6988 12.7286 22.0969 9.55714C23.5529 7.58571 24.1524 6.47143 23.9811 5.95714C23.8098 5.44286 22.6964 5.61429 22.6964 5.61429H19.0992C19.0992 5.61429 18.8423 5.61429 18.671 5.7C18.4997 5.78571 18.3284 6.04286 18.3284 6.04286C18.3284 6.04286 17.7289 7.5 16.9581 8.78571C15.3308 11.5286 14.7312 11.6143 14.4743 11.4429C13.8748 11.0143 14.0461 9.9 14.0461 9.04286C14.0461 6.47143 14.4743 5.1 13.2752 4.84286C12.847 4.75714 12.5901 4.5 11.7336 4.5H10.5346C9.67809 4.5 8.99291 4.75714 8.56468 5.01429C8.13644 5.18571 7.79386 5.78571 7.96515 5.78571C8.22209 5.78571 8.73597 5.95714 8.99291 6.38571C9.42114 6.81429 9.42114 8.01429 9.42114 8.01429C9.42114 8.01429 9.59244 11.1 8.90726 11.4429C8.47903 11.7 7.79386 11.1857 6.33786 8.78571C5.65269 7.5 5.05316 6.12857 5.05316 6.12857C5.05316 6.12857 4.96751 5.87143 4.79622 5.7C4.53928 5.52857 4.19669 5.52857 4.19669 5.52857H0.770826C0.770826 5.52857 0.256945 5.52857 0.0856519 5.78571C-0.0856415 5.95714 0.0856519 6.38571 0.0856519 6.38571C0.0856519 6.38571 2.7407 12.4714 5.82398 15.6429C8.65032 18.5571 11.7336 18.2143 11.7336 18.2143H13.1896C13.1896 18.2143 13.6178 18.2143 13.8748 18.0429C14.0461 17.7857 14.0461 17.5286 14.0461 17.5286C14.0461 17.5286 14.0461 15.6429 14.9025 15.3C15.759 15.0429 16.9581 17.1 18.0715 17.9571C19.0136 18.5571 19.6988 18.4714 19.6988 18.4714L22.8677 18.3857C22.8677 18.3857 24.5806 18.3 23.7241 17.0143C23.7241 16.8429 23.2959 15.9857 21.4117 14.2714Z" fill="#2D2D2F"/>
</g>
<defs>
<clipPath id="clip0_7_369">
<rect width="24" height="24" fill="white"/>
</clipPath>
</defs>
</svg>
