<svg width="24" height="24" viewBox="0 0 24 24" fill="none" xmlns="http://www.w3.org/2000/svg"><g clip-path="url(#a)"><path d="M21.412 14.271c-1.97-1.8-1.713-1.542.685-4.714 1.456-1.971 2.055-3.086 1.884-3.6-.171-.514-1.285-.343-1.285-.343H19.1s-.257 0-.428.086c-.171.086-.343.343-.343.343s-.6 1.457-1.37 2.743c-1.627 2.743-2.227 2.828-2.484 2.657-.6-.429-.428-1.543-.428-2.4 0-2.572.428-3.943-.77-4.2-.429-.086-.686-.343-1.542-.343h-1.2c-.856 0-1.541.257-1.97.514-.428.172-.77.772-.599.772.257 0 .771.171 1.028.6.428.428.428 1.628.428 1.628s.171 3.086-.514 3.429c-.428.257-1.113-.257-2.57-2.657C5.654 7.5 5.054 6.129 5.054 6.129s-.085-.258-.257-.429c-.257-.171-.6-.171-.6-.171H.772s-.514 0-.685.257c-.172.171 0 .6 0 .6s2.655 6.085 5.738 9.257c2.826 2.914 5.91 2.571 5.91 2.571h1.456s.428 0 .685-.171c.171-.257.171-.514.171-.514s0-1.886.857-2.229c.856-.257 2.055 1.8 3.168 2.657.943.6 1.628.514 1.628.514l3.169-.085s1.713-.086.856-1.372c0-.171-.428-1.028-2.312-2.743z" fill="#2D2D2F"/></g><defs><clipPath id="a"><path fill="#fff" d="M0 0h24v24H0z"/></clipPath></defs></svg>