<svg width="24" height="25" viewBox="0 0 24 25" fill="none" xmlns="http://www.w3.org/2000/svg">
<path d="M6.59833 20.6913L6.95952 20.9054C8.47723 21.8061 10.2173 22.2824 11.9917 22.2834H11.9955C17.445 22.2834 21.8802 17.8492 21.8822 12.3995C21.8831 9.75828 20.8557 7.27509 18.9891 5.40672C17.1223 3.5387 14.6403 2.50923 11.9991 2.50813C6.54552 2.50813 2.11034 6.9416 2.10828 12.3914C2.10756 14.2589 2.62998 16.0777 3.61981 17.6512L3.85508 18.0252L2.85606 21.6724L6.59833 20.6913ZM0.000244141 24.4977L1.68777 18.3357C0.646886 16.5323 0.0993032 14.4865 0.10016 12.3908C0.102698 5.83422 5.4385 0.5 11.9958 0.5C15.1777 0.501372 18.1642 1.73973 20.4101 3.98746C22.6558 6.23515 23.8921 9.22293 23.8911 12.4004C23.8883 18.9567 18.5514 24.2919 11.9958 24.2919C11.9953 24.2919 11.996 24.2919 11.9958 24.2919H11.9907C9.99993 24.2912 8.04378 23.7919 6.3064 22.8443L0.000244141 24.4977Z" fill="white"/>
<path d="M0.5101 12.3971C0.50938 14.42 1.03797 16.3951 2.04306 18.1362L0.413818 24.0849L6.50135 22.4887C8.1786 23.4027 10.067 23.8852 11.9888 23.8858H11.9938C18.3227 23.8858 23.4742 18.7357 23.4769 12.4061C23.4781 9.33861 22.2847 6.45466 20.1165 4.28456C17.9486 2.11476 15.0655 0.919165 11.9933 0.917725C5.66402 0.917725 0.512843 6.0671 0.5101 12.3971ZM11.9938 23.8858C11.9936 23.8858 11.9937 23.8858 11.9938 23.8858V23.8858Z" fill="url(#paint0_linear_601_4164)"/>
<path d="M0.0999163 12.3936C0.0991962 14.4893 0.64678 16.5353 1.68767 18.3385L0 24.5001L6.30595 22.8467C8.04344 23.7942 9.99948 24.2935 11.9903 24.2944H11.9953C18.5509 24.2944 23.8879 18.9591 23.8906 12.4029C23.8917 9.2252 22.6553 6.23749 20.4097 3.9899C18.1637 1.74231 15.1773 0.503813 11.9953 0.502441C5.4384 0.502441 0.102459 5.83666 0.0997161 12.3933M3.85496 18.0278L3.61957 17.654C2.62974 16.0803 2.10732 14.2615 2.10804 12.3942C2.1102 6.94473 6.54529 2.51091 11.9988 2.51091C14.6398 2.51194 17.1218 3.54151 18.9888 5.4095C20.8556 7.27763 21.8828 9.76102 21.8821 12.4019C21.8797 17.8517 17.4445 22.2858 11.9951 22.2858H11.9912C10.2168 22.2848 8.47668 21.8085 6.95908 20.908L6.59789 20.6939L2.85567 21.675L3.85496 18.0278ZM11.9953 24.2944C11.9951 24.2944 11.9952 24.2944 11.9953 24.2944V24.2944Z" fill="url(#paint1_linear_601_4164)"/>
<path fill-rule="evenodd" clip-rule="evenodd" d="M9.02247 7.42162C8.79978 6.92664 8.56548 6.91673 8.35368 6.90802C8.18034 6.90065 7.9821 6.90113 7.78408 6.90113C7.58583 6.90113 7.26383 6.97552 6.99155 7.27295C6.71902 7.57039 5.95117 8.28939 5.95117 9.75168C5.95117 11.2141 7.01637 12.6272 7.16477 12.8257C7.31343 13.0238 9.221 16.1207 12.2418 17.3119C14.7526 18.302 15.2636 18.1051 15.8085 18.0555C16.3534 18.006 17.567 17.3367 17.8146 16.6427C18.0624 15.9487 18.0624 15.3538 17.9881 15.2296C17.9138 15.1057 17.7156 15.0314 17.4184 14.8828C17.121 14.7342 15.6598 14.0151 15.3874 13.9159C15.1149 13.8168 14.9168 13.7673 14.7185 14.0649C14.5204 14.3621 13.9511 15.0314 13.7777 15.2296C13.6043 15.4282 13.4309 15.453 13.1337 15.3044C12.8363 15.1552 11.8791 14.8417 10.7435 13.8292C9.85985 13.0414 9.26338 12.0685 9.08991 11.771C8.91657 11.4738 9.07141 11.3128 9.22043 11.1646C9.35397 11.0314 9.51775 10.8175 9.66642 10.6441C9.81471 10.4705 9.86419 10.3466 9.96326 10.1484C10.0624 9.95 10.0129 9.77641 9.93858 9.62774C9.86419 9.47908 9.28677 8.00936 9.02247 7.42162Z" fill="white"/>
<defs>
<linearGradient id="paint0_linear_601_4164" x1="11.9455" y1="24.0825" x2="11.9455" y2="0.91529" gradientUnits="userSpaceOnUse">
<stop stop-color="#20B038"/>
<stop offset="1" stop-color="#60D66A"/>
</linearGradient>
<linearGradient id="paint1_linear_601_4164" x1="11.9455" y1="24.5008" x2="11.9455" y2="0.503162" gradientUnits="userSpaceOnUse">
<stop stop-color="#F9F9F9"/>
<stop offset="1" stop-color="white"/>
</linearGradient>
</defs>
</svg>
