<svg width="24" height="24" viewBox="0 0 24 24" fill="none" xmlns="http://www.w3.org/2000/svg"><path d="M23.743 6.686s-.257-1.715-.943-2.4c-.943-.943-1.971-.943-2.4-1.029C17.057 3 12 3 12 3s-5.057 0-8.4.257c-.429.086-1.457.086-2.4 1.029-.686.771-.943 2.4-.943 2.4S0 8.657 0 10.629v1.885c0 1.972.257 3.943.257 3.943s.257 1.714.943 2.4c.943.943 2.143.943 2.657 1.029 1.886.171 8.143.257 8.143.257s5.057 0 8.4-.257c.429-.086 1.457-.086 2.4-1.029.686-.771.943-2.4.943-2.4S24 14.486 24 12.514V10.63c0-1.972-.257-3.943-.257-3.943zM9.514 14.743V7.886l6.515 3.428-6.515 3.429z" fill="#2D2D2F"/></svg>