<svg width="24" height="24" viewBox="0 0 24 24" fill="none" xmlns="http://www.w3.org/2000/svg">
<path d="M23.7429 6.68571C23.7429 6.68571 23.4857 4.97143 22.8 4.28571C21.8571 3.34286 20.8286 3.34286 20.4 3.25714C17.0571 3 12 3 12 3C12 3 6.94286 3 3.6 3.25714C3.17143 3.34286 2.14286 3.34286 1.2 4.28571C0.514286 5.05714 0.257143 6.68571 0.257143 6.68571C0.257143 6.68571 0 8.65714 0 10.6286V12.5143C0 14.4857 0.257143 16.4571 0.257143 16.4571C0.257143 16.4571 0.514286 18.1714 1.2 18.8571C2.14286 19.8 3.34286 19.8 3.85714 19.8857C5.74286 20.0571 12 20.1429 12 20.1429C12 20.1429 17.0571 20.1429 20.4 19.8857C20.8286 19.8 21.8571 19.8 22.8 18.8571C23.4857 18.0857 23.7429 16.4571 23.7429 16.4571C23.7429 16.4571 24 14.4857 24 12.5143V10.6286C24 8.65714 23.7429 6.68571 23.7429 6.68571ZM9.51429 14.7429V7.88571L16.0286 11.3143L9.51429 14.7429Z" fill="#2D2D2F"/>
</svg>
