<?xml version="1.0" encoding="UTF-8" standalone="no"?>
<svg
   xmlns:dc="http://purl.org/dc/elements/1.1/"
   xmlns:cc="http://creativecommons.org/ns#"
   xmlns:rdf="http://www.w3.org/1999/02/22-rdf-syntax-ns#"
   xmlns:svg="http://www.w3.org/2000/svg"
   xmlns="http://www.w3.org/2000/svg"
   xmlns:sodipodi="http://sodipodi.sourceforge.net/DTD/sodipodi-0.dtd"
   xmlns:inkscape="http://www.inkscape.org/namespaces/inkscape"
   width="65"
   height="21"
   viewBox="0 0 65 21"
   fill="none"
   id="svg2"
   version="1.1"
   inkscape:version="0.91 r13725"
   sodipodi:docname="1.svg">
  <metadata
     id="metadata12">
    <rdf:RDF>
      <cc:Work
         rdf:about="">
        <dc:format>image/svg+xml</dc:format>
        <dc:type
           rdf:resource="http://purl.org/dc/dcmitype/StillImage" />
      </cc:Work>
    </rdf:RDF>
  </metadata>
  <defs
     id="defs10" />
  <sodipodi:namedview
     pagecolor="#ffffff"
     bordercolor="#666666"
     borderopacity="1"
     objecttolerance="10"
     gridtolerance="10"
     guidetolerance="10"
     inkscape:pageopacity="0"
     inkscape:pageshadow="2"
     inkscape:window-width="1280"
     inkscape:window-height="962"
     id="namedview8"
     showgrid="false"
     inkscape:zoom="6.2307692"
     inkscape:cx="32.5"
     inkscape:cy="5.2037037"
     inkscape:window-x="-8"
     inkscape:window-y="-8"
     inkscape:window-maximized="1"
     inkscape:current-layer="svg2" />
  <path
     d="M0 10.5C0 4.70101 4.70101 0 10.5 0H54.5C60.299 0 65 4.70101 65 10.5V10.5C65 16.299 60.299 21 54.5 21H10.5C4.70101 21 0 16.299 0 10.5V10.5Z"
     fill="#FF886A"
     id="path4" />
  <path
     d="m 15.016,14.62 c -0.848,0 -1.616,-0.184 -2.304,-0.552 -0.68,-0.376 -1.216,-0.892 -1.608,-1.548 -0.384,-0.656 -0.576,-1.396 -0.576,-2.22 0,-0.824 0.196,-1.564 0.588,-2.22 0.392,-0.656 0.928,-1.168 1.608,-1.536 0.688,-0.376 1.456,-0.564 2.304,-0.564 0.688,0 1.316,0.12 1.884,0.36 0.568,0.24 1.048,0.588 1.44,1.044 L 17.344,8.332 C 16.736,7.676 15.988,7.348 15.1,7.348 14.524,7.348 14.008,7.476 13.552,7.732 13.096,7.98 12.74,8.328 12.484,8.776 12.228,9.224 12.1,9.732 12.1,10.3 c 0,0.568 0.128,1.076 0.384,1.524 0.256,0.448 0.612,0.8 1.068,1.056 0.456,0.248 0.972,0.372 1.548,0.372 0.888,0 1.636,-0.332 2.244,-0.996 l 1.008,0.96 c -0.392,0.456 -0.876,0.804 -1.452,1.044 -0.568,0.24 -1.196,0.36 -1.884,0.36 z m 7.3324,-0.036 c -0.648,0 -1.232,-0.14 -1.752,-0.42 -0.52,-0.28 -0.928,-0.668 -1.224,-1.164 -0.288,-0.504 -0.432,-1.072 -0.432,-1.704 0,-0.632 0.144,-1.196 0.432,-1.692 0.296,-0.496 0.704,-0.884 1.224,-1.164 0.52,-0.28 1.104,-0.42 1.752,-0.42 0.656,0 1.244,0.14 1.764,0.42 0.52,0.28 0.924,0.668 1.212,1.164 0.296,0.496 0.444,1.06 0.444,1.692 0,0.632 -0.148,1.2 -0.444,1.704 -0.288,0.496 -0.692,0.884 -1.212,1.164 -0.52,0.28 -1.108,0.42 -1.764,0.42 z m 0,-1.284 c 0.552,0 1.008,-0.184 1.368,-0.552 0.36,-0.368 0.54,-0.852 0.54,-1.452 0,-0.6 -0.18,-1.084 -0.54,-1.452 -0.36,-0.368 -0.816,-0.552 -1.368,-0.552 -0.552,0 -1.008,0.184 -1.368,0.552 -0.352,0.368 -0.528,0.852 -0.528,1.452 0,0.6 0.176,1.084 0.528,1.452 0.36,0.368 0.816,0.552 1.368,0.552 z m 6.2824,-4.272 c 0.432,-0.672 1.192,-1.008 2.28,-1.008 l 0,1.428 c -0.128,-0.024 -0.244,-0.036 -0.348,-0.036 -0.584,0 -1.04,0.172 -1.368,0.516 -0.328,0.336 -0.492,0.824 -0.492,1.464 l 0,3.108 -1.5,0 0,-6.408 1.428,0 0,0.936 z m 6.3738,5.556 c -0.648,0 -1.232,-0.14 -1.752,-0.42 -0.52,-0.28 -0.928,-0.668 -1.224,-1.164 -0.288,-0.504 -0.432,-1.072 -0.432,-1.704 0,-0.632 0.144,-1.196 0.432,-1.692 0.296,-0.496 0.704,-0.884 1.224,-1.164 0.52,-0.28 1.104,-0.42 1.752,-0.42 0.656,0 1.244,0.14 1.764,0.42 0.52,0.28 0.924,0.668 1.212,1.164 0.296,0.496 0.444,1.06 0.444,1.692 0,0.632 -0.148,1.2 -0.444,1.704 -0.288,0.496 -0.692,0.884 -1.212,1.164 -0.52,0.28 -1.108,0.42 -1.764,0.42 z m 0,-1.284 c 0.552,0 1.008,-0.184 1.368,-0.552 0.36,-0.368 0.54,-0.852 0.54,-1.452 0,-0.6 -0.18,-1.084 -0.54,-1.452 -0.36,-0.368 -0.816,-0.552 -1.368,-0.552 -0.552,0 -1.008,0.184 -1.368,0.552 -0.352,0.368 -0.528,0.852 -0.528,1.452 0,0.6 0.176,1.084 0.528,1.452 0.36,0.368 0.816,0.552 1.368,0.552 z M 43.495,8.02 c 0.808,0 1.456,0.236 1.944,0.708 0.488,0.472 0.732,1.172 0.732,2.1 l 0,3.672 -1.5,0 0,-3.48 c 0,-0.56 -0.132,-0.98 -0.396,-1.26 -0.264,-0.288 -0.64,-0.432 -1.128,-0.432 -0.552,0 -0.988,0.168 -1.308,0.504 -0.32,0.328 -0.48,0.804 -0.48,1.428 l 0,3.24 -1.5,0 0,-6.408 1.428,0 0,0.828 c 0.248,-0.296 0.56,-0.52 0.936,-0.672 0.376,-0.152 0.8,-0.228 1.272,-0.228 z m 7.0268,0 c 0.944,0 1.664,0.228 2.16,0.684 0.504,0.448 0.756,1.128 0.756,2.04 l 0,3.756 -1.416,0 0,-0.78 c -0.184,0.28 -0.448,0.496 -0.792,0.648 -0.336,0.144 -0.744,0.216 -1.224,0.216 -0.48,0 -0.9,-0.08 -1.26,-0.24 -0.36,-0.168 -0.64,-0.396 -0.84,-0.684 -0.192,-0.296 -0.288,-0.628 -0.288,-0.996 0,-0.576 0.212,-1.036 0.636,-1.38 0.432,-0.352 1.108,-0.528 2.028,-0.528 l 1.656,0 0,-0.096 c 0,-0.448 -0.136,-0.792 -0.408,-1.032 -0.264,-0.24 -0.66,-0.36 -1.188,-0.36 -0.36,0 -0.716,0.056 -1.068,0.168 -0.344,0.112 -0.636,0.268 -0.876,0.468 l -0.588,-1.092 c 0.336,-0.256 0.74,-0.452 1.212,-0.588 0.472,-0.136 0.972,-0.204 1.5,-0.204 z m -0.204,5.472 c 0.376,0 0.708,-0.084 0.996,-0.252 0.296,-0.176 0.504,-0.424 0.624,-0.744 l 0,-0.744 -1.548,0 c -0.864,0 -1.296,0.284 -1.296,0.852 0,0.272 0.108,0.488 0.324,0.648 0.216,0.16 0.516,0.24 0.9,0.24 z"
     id="path6"
     inkscape:connector-curvature="0"
     style="fill:#ffffff" />
</svg>
