<svg xmlns="http://www.w3.org/2000/svg" width="65" height="21" viewBox="0 0 65 21" fill="none"><path d="M0 10.5C0 4.701 4.701 0 10.5 0h44C60.299 0 65 4.701 65 10.5S60.299 21 54.5 21h-44C4.701 21 0 16.299 0 10.5z" fill="#FF886A"/><path d="M15.016 14.62c-.848 0-1.616-.184-2.304-.552a4.212 4.212 0 0 1-1.608-1.548c-.384-.656-.576-1.396-.576-2.22 0-.824.196-1.564.588-2.22a4.124 4.124 0 0 1 1.608-1.536c.688-.376 1.456-.564 2.304-.564.688 0 1.316.12 1.884.36.568.24 1.048.588 1.44 1.044l-1.008.948c-.608-.656-1.356-.984-2.244-.984-.576 0-1.092.128-1.548.384a2.682 2.682 0 0 0-1.068 1.044A3.017 3.017 0 0 0 12.1 10.3c0 .568.128 1.076.384 1.524.256.448.612.8 1.068 1.056.456.248.972.372 1.548.372.888 0 1.636-.332 2.244-.996l1.008.96A3.823 3.823 0 0 1 16.9 14.26c-.568.24-1.196.36-1.884.36zm7.332-.036c-.648 0-1.232-.14-1.752-.42A3.117 3.117 0 0 1 19.372 13a3.373 3.373 0 0 1-.432-1.704c0-.632.144-1.196.432-1.692a3.117 3.117 0 0 1 1.224-1.164c.52-.28 1.104-.42 1.752-.42.656 0 1.244.14 1.764.42.52.28.924.668 1.212 1.164.296.496.444 1.06.444 1.692 0 .632-.148 1.2-.444 1.704a3.033 3.033 0 0 1-1.212 1.164c-.52.28-1.108.42-1.764.42zm0-1.284c.552 0 1.008-.184 1.368-.552.36-.368.54-.852.54-1.452s-.18-1.084-.54-1.452c-.36-.368-.816-.552-1.368-.552-.552 0-1.008.184-1.368.552-.352.368-.528.852-.528 1.452s.176 1.084.528 1.452c.36.368.816.552 1.368.552zm6.283-4.272c.432-.672 1.192-1.008 2.28-1.008v1.428a1.904 1.904 0 0 0-.348-.036c-.584 0-1.04.172-1.368.516-.328.336-.492.824-.492 1.464V14.5h-1.5V8.092h1.428v.936zm6.374 5.556c-.648 0-1.232-.14-1.752-.42A3.117 3.117 0 0 1 32.029 13a3.373 3.373 0 0 1-.432-1.704c0-.632.144-1.196.432-1.692a3.117 3.117 0 0 1 1.224-1.164c.52-.28 1.104-.42 1.752-.42.656 0 1.244.14 1.764.42.52.28.924.668 1.212 1.164.296.496.444 1.06.444 1.692 0 .632-.148 1.2-.444 1.704a3.033 3.033 0 0 1-1.212 1.164c-.52.28-1.108.42-1.764.42zm0-1.284c.552 0 1.008-.184 1.368-.552.36-.368.54-.852.54-1.452s-.18-1.084-.54-1.452c-.36-.368-.816-.552-1.368-.552-.552 0-1.008.184-1.368.552-.352.368-.528.852-.528 1.452s.176 1.084.528 1.452c.36.368.816.552 1.368.552zm8.49-5.28c.808 0 1.456.236 1.944.708s.732 1.172.732 2.1V14.5h-1.5v-3.48c0-.56-.132-.98-.396-1.26-.264-.288-.64-.432-1.128-.432-.552 0-.988.168-1.308.504-.32.328-.48.804-.48 1.428v3.24h-1.5V8.092h1.428v.828c.248-.296.56-.52.936-.672.376-.152.8-.228 1.272-.228zm7.027 0c.944 0 1.664.228 2.16.684.504.448.756 1.128.756 2.04V14.5h-1.416v-.78c-.184.28-.448.496-.792.648-.336.144-.744.216-1.224.216s-.9-.08-1.26-.24a2.05 2.05 0 0 1-.84-.684 1.79 1.79 0 0 1-.288-.996c0-.576.212-1.036.636-1.38.432-.352 1.108-.528 2.028-.528h1.656v-.096c0-.448-.136-.792-.408-1.032-.264-.24-.66-.36-1.188-.36-.36 0-.716.056-1.068.168a2.617 2.617 0 0 0-.876.468l-.588-1.092c.336-.256.74-.452 1.212-.588a5.393 5.393 0 0 1 1.5-.204zm-.204 5.472c.376 0 .708-.084.996-.252.296-.176.504-.424.624-.744v-.744H50.39c-.864 0-1.296.284-1.296.852 0 .272.108.488.324.648.216.16.516.24.9.24z" fill="#fff"/></svg>