<svg xmlns="http://www.w3.org/2000/svg" width="73" height="21" viewBox="0 0 73 21" fill="none"><path d="M0 10.5C0 4.701 4.701 0 10.5 0h52C68.299 0 73 4.701 73 10.5S68.299 21 62.5 21h-52C4.701 21 0 16.299 0 10.5z" fill="#5DC0C5"/><path d="M14.104 9.568c.776.096 1.368.36 1.776.792.408.432.612.972.612 1.62 0 .488-.124.932-.372 1.332s-.624.72-1.128.96c-.496.232-1.104.348-1.824.348-.6 0-1.18-.084-1.74-.252a4.535 4.535 0 0 1-1.416-.72l.672-1.212c.304.256.672.46 1.104.612.44.144.892.216 1.356.216.552 0 .984-.112 1.296-.336.32-.232.48-.544.48-.936s-.152-.696-.456-.912c-.296-.224-.752-.336-1.368-.336h-.768V9.676l1.908-2.268H10.42V6.1h5.724v1.044l-2.04 2.424zM18.112 6.1h3.672c.896 0 1.692.176 2.388.528a3.813 3.813 0 0 1 1.62 1.476c.384.632.576 1.364.576 2.196 0 .832-.192 1.568-.576 2.208a3.916 3.916 0 0 1-1.62 1.476c-.696.344-1.492.516-2.388.516h-3.672V6.1zm3.6 7.08c.616 0 1.156-.116 1.62-.348.472-.24.832-.576 1.08-1.008.256-.44.384-.948.384-1.524 0-.576-.128-1.08-.384-1.512a2.443 2.443 0 0 0-1.08-1.008c-.464-.24-1.004-.36-1.62-.36h-2.04v5.76h2.04zm8.15 1.404c-.52 0-1.028-.068-1.524-.204-.496-.136-.892-.308-1.188-.516l.576-1.14a3.84 3.84 0 0 0 1.032.468c.408.112.808.168 1.2.168.896 0 1.344-.236 1.344-.708 0-.224-.116-.38-.348-.468-.224-.088-.588-.172-1.092-.252a9.135 9.135 0 0 1-1.296-.276 2.052 2.052 0 0 1-.864-.54c-.24-.264-.36-.628-.36-1.092 0-.608.252-1.092.756-1.452.512-.368 1.2-.552 2.064-.552.44 0 .88.052 1.32.156.44.096.8.228 1.08.396l-.576 1.14a3.553 3.553 0 0 0-1.836-.48c-.44 0-.776.068-1.008.204-.224.128-.336.3-.336.516 0 .24.12.412.36.516.248.096.628.188 1.14.276.512.08.932.172 1.26.276.328.104.608.28.84.528.24.248.36.6.36 1.056 0 .6-.26 1.08-.78 1.44-.52.36-1.228.54-2.124.54zm15.373-.084l-.012-5.568-2.76 4.608h-.696l-2.76-4.536V14.5h-1.488V6.1h1.284l3.336 5.568L45.415 6.1h1.284l.012 8.4h-1.476zm6.049-6.48c.944 0 1.664.228 2.16.684.504.448.756 1.128.756 2.04V14.5h-1.416v-.78c-.184.28-.448.496-.792.648-.336.144-.744.216-1.224.216s-.9-.08-1.26-.24a2.05 2.05 0 0 1-.84-.684 1.79 1.79 0 0 1-.288-.996c0-.576.212-1.036.636-1.38.432-.352 1.108-.528 2.028-.528H52.7v-.096c0-.448-.136-.792-.408-1.032-.264-.24-.66-.36-1.188-.36-.36 0-.716.056-1.068.168a2.617 2.617 0 0 0-.876.468l-.588-1.092c.336-.256.74-.452 1.212-.588a5.393 5.393 0 0 1 1.5-.204zm-.204 5.472c.376 0 .708-.084.996-.252.296-.176.504-.424.624-.744v-.744h-1.548c-.864 0-1.296.284-1.296.852 0 .272.108.488.324.648.216.16.516.24.9.24zm9.125 1.008l-1.644-2.22-1.656 2.22h-1.656l2.496-3.252-2.388-3.156h1.668l1.572 2.1 1.572-2.1h1.62l-2.4 3.132 2.508 3.276h-1.692z" fill="#fff"/></svg>