<svg xmlns="http://www.w3.org/2000/svg" width="76" height="21" viewBox="0 0 76 21" fill="none"><path d="M0 10.5C0 4.701 4.701 0 10.5 0h55C71.299 0 76 4.701 76 10.5S71.299 21 65.5 21h-55C4.701 21 0 16.299 0 10.5z" fill="#86ADFF"/><path d="M16.576 12.556h-4.2l-.828 1.944H9.94l3.78-8.4h1.536l3.792 8.4h-1.632l-.84-1.944zm-.516-1.224L14.476 7.66l-1.572 3.672h3.156zm5.34-2.304c.432-.672 1.192-1.008 2.28-1.008v1.428a1.904 1.904 0 0 0-.348-.036c-.584 0-1.04.172-1.368.516-.328.336-.492.824-.492 1.464V14.5h-1.5V8.092H21.4v.936zm6.434 5.556c-.664 0-1.26-.14-1.788-.42A3.097 3.097 0 0 1 24.81 13a3.301 3.301 0 0 1-.444-1.704c0-.632.148-1.196.444-1.692a3.117 3.117 0 0 1 1.224-1.164c.528-.28 1.128-.42 1.8-.42.632 0 1.184.128 1.656.384.48.256.84.624 1.08 1.104l-1.152.672a1.77 1.77 0 0 0-.696-.66 1.813 1.813 0 0 0-.9-.228c-.56 0-1.024.184-1.392.552-.368.36-.552.844-.552 1.452s.18 1.096.54 1.464c.368.36.836.54 1.404.54.328 0 .628-.072.9-.216.28-.152.512-.376.696-.672l1.152.672c-.248.48-.612.852-1.092 1.116-.472.256-1.02.384-1.644.384zm7.61-6.564c.808 0 1.456.236 1.944.708s.732 1.172.732 2.1V14.5h-1.5v-3.48c0-.56-.132-.98-.396-1.26-.264-.288-.64-.432-1.128-.432-.552 0-.988.168-1.308.504-.32.328-.48.804-.48 1.428v3.24h-1.5V5.596h1.5v3.24c.248-.264.552-.464.912-.6a3.333 3.333 0 0 1 1.224-.216zm4.58.072h1.5V14.5h-1.5V8.092zm.755-1.056a.977.977 0 0 1-.684-.252.862.862 0 0 1-.276-.648c0-.256.092-.468.276-.636a.951.951 0 0 1 .684-.264c.272 0 .5.084.684.252.184.16.276.364.276.612a.925.925 0 0 1-.96.936zm5.653 7.548c-.664 0-1.26-.14-1.788-.42A3.097 3.097 0 0 1 43.408 13a3.301 3.301 0 0 1-.444-1.704c0-.632.148-1.196.444-1.692a3.117 3.117 0 0 1 1.224-1.164c.528-.28 1.128-.42 1.8-.42.632 0 1.184.128 1.656.384.48.256.84.624 1.08 1.104l-1.152.672a1.77 1.77 0 0 0-.696-.66 1.813 1.813 0 0 0-.9-.228c-.56 0-1.024.184-1.392.552-.368.36-.552.844-.552 1.452s.18 1.096.54 1.464c.368.36.836.54 1.404.54.328 0 .628-.072.9-.216.28-.152.512-.376.696-.672l1.152.672c-.248.48-.612.852-1.092 1.116-.472.256-1.02.384-1.644.384zm6.48-6.564c.945 0 1.665.228 2.16.684.505.448.757 1.128.757 2.04V14.5h-1.416v-.78c-.184.28-.448.496-.792.648-.336.144-.744.216-1.224.216s-.9-.08-1.26-.24a2.05 2.05 0 0 1-.84-.684 1.79 1.79 0 0 1-.288-.996c0-.576.212-1.036.636-1.38.432-.352 1.108-.528 2.028-.528h1.656v-.096c0-.448-.136-.792-.408-1.032-.264-.24-.66-.36-1.188-.36-.36 0-.716.056-1.068.168a2.617 2.617 0 0 0-.876.468L50.2 8.812c.336-.256.74-.452 1.212-.588a5.393 5.393 0 0 1 1.5-.204zm-.203 5.472c.375 0 .707-.084.995-.252.297-.176.505-.424.625-.744v-.744H52.78c-.864 0-1.296.284-1.296.852 0 .272.108.488.324.648.216.16.516.24.9.24zm11.38-7.896V14.5h-1.44v-.828a2.312 2.312 0 0 1-.925.684c-.36.152-.76.228-1.2.228a3.411 3.411 0 0 1-1.668-.408 2.954 2.954 0 0 1-1.152-1.152c-.28-.504-.42-1.08-.42-1.728 0-.648.14-1.22.42-1.716.28-.496.664-.88 1.152-1.152a3.411 3.411 0 0 1 1.668-.408c.424 0 .812.072 1.164.216.352.144.652.36.9.648V5.596h1.5zM60.703 13.3c.36 0 .684-.08.972-.24a1.82 1.82 0 0 0 .684-.708c.168-.304.252-.656.252-1.056s-.084-.752-.252-1.056a1.736 1.736 0 0 0-.684-.696 1.893 1.893 0 0 0-.972-.252c-.36 0-.684.084-.972.252-.288.16-.516.392-.684.696a2.148 2.148 0 0 0-.252 1.056c0 .4.084.752.252 1.056.168.304.396.54.684.708.288.16.612.24.972.24z" fill="#fff"/></svg>