<svg xmlns="http://www.w3.org/2000/svg" width="52" height="21" viewBox="0 0 52 21" fill="none"><path d="M0 10.5C0 4.701 4.701 0 10.5 0h31C47.299 0 52 4.701 52 10.5S47.299 21 41.5 21h-31C4.701 21 0 16.299 0 10.5z" fill="#4B92C6"/><path d="M16.624 14.5l-1.716-2.46c-.072.008-.18.012-.324.012h-1.896V14.5h-1.56V6.1h3.456c.728 0 1.36.12 1.896.36.544.24.96.584 1.248 1.032.288.448.432.98.432 1.596 0 .632-.156 1.176-.468 1.632-.304.456-.744.796-1.32 1.02l1.932 2.76h-1.68zm-.036-5.412c0-.536-.176-.948-.528-1.236-.352-.288-.868-.432-1.548-.432h-1.824v3.348h1.824c.68 0 1.196-.144 1.548-.432.352-.296.528-.712.528-1.248zm9.197 2.244c0 .104-.008.252-.024.444h-5.028c.088.472.316.848.684 1.128.376.272.84.408 1.392.408.704 0 1.284-.232 1.74-.696l.804.924a2.709 2.709 0 0 1-1.092.78c-.44.176-.936.264-1.488.264-.704 0-1.324-.14-1.86-.42A3.078 3.078 0 0 1 19.665 13a3.373 3.373 0 0 1-.432-1.704c0-.624.14-1.184.42-1.68a3.052 3.052 0 0 1 1.188-1.176 3.449 3.449 0 0 1 1.704-.42c.624 0 1.18.14 1.668.42.496.272.88.66 1.152 1.164.28.496.42 1.072.42 1.728zm-3.24-2.112c-.48 0-.888.144-1.224.432-.328.28-.528.656-.6 1.128h3.636a1.768 1.768 0 0 0-.588-1.128c-.328-.288-.736-.432-1.224-.432zM33.11 8.092L30.361 14.5h-1.548l-2.748-6.408h1.56l1.992 4.752 2.052-4.752h1.44zm.938 0h1.5V14.5h-1.5V8.092zm.756-1.056a.977.977 0 0 1-.684-.252.862.862 0 0 1-.276-.648c0-.256.091-.468.275-.636a.951.951 0 0 1 .685-.264c.272 0 .5.084.684.252.183.16.275.364.275.612a.925.925 0 0 1-.96.936zm6.564 7.116a1.762 1.762 0 0 1-.648.324 2.828 2.828 0 0 1-.792.108c-.704 0-1.248-.184-1.632-.552-.384-.368-.576-.904-.576-1.608V9.34h-1.056v-1.2h1.056V6.676h1.5V8.14h1.716v1.2H39.22v3.048c0 .312.076.552.228.72.152.16.372.24.66.24.336 0 .616-.088.84-.264l.42 1.068z" fill="#fff"/></svg>