<?xml version="1.0" encoding="UTF-8" standalone="no"?>
<svg
   xmlns:dc="http://purl.org/dc/elements/1.1/"
   xmlns:cc="http://creativecommons.org/ns#"
   xmlns:rdf="http://www.w3.org/1999/02/22-rdf-syntax-ns#"
   xmlns:svg="http://www.w3.org/2000/svg"
   xmlns="http://www.w3.org/2000/svg"
   xmlns:sodipodi="http://sodipodi.sourceforge.net/DTD/sodipodi-0.dtd"
   xmlns:inkscape="http://www.inkscape.org/namespaces/inkscape"
   width="52"
   height="21"
   viewBox="0 0 52 21"
   fill="none"
   id="svg2"
   version="1.1"
   inkscape:version="0.91 r13725"
   sodipodi:docname="2.svg">
  <metadata
     id="metadata12">
    <rdf:RDF>
      <cc:Work
         rdf:about="">
        <dc:format>image/svg+xml</dc:format>
        <dc:type
           rdf:resource="http://purl.org/dc/dcmitype/StillImage" />
      </cc:Work>
    </rdf:RDF>
  </metadata>
  <defs
     id="defs10" />
  <sodipodi:namedview
     pagecolor="#ffffff"
     bordercolor="#666666"
     borderopacity="1"
     objecttolerance="10"
     gridtolerance="10"
     guidetolerance="10"
     inkscape:pageopacity="0"
     inkscape:pageshadow="2"
     inkscape:window-width="1064"
     inkscape:window-height="633"
     id="namedview8"
     showgrid="false"
     inkscape:zoom="7.7884615"
     inkscape:cx="26"
     inkscape:cy="10.371605"
     inkscape:window-x="0"
     inkscape:window-y="0"
     inkscape:window-maximized="0"
     inkscape:current-layer="svg2" />
  <path
     d="M0 10.5C0 4.70101 4.70101 0 10.5 0H41.5C47.299 0 52 4.70101 52 10.5V10.5C52 16.299 47.299 21 41.5 21H10.5C4.70101 21 0 16.299 0 10.5V10.5Z"
     fill="#4B92C6"
     id="path4" />
  <path
     d="m 16.624,14.5 -1.716,-2.46 c -0.072,0.008 -0.18,0.012 -0.324,0.012 l -1.896,0 0,2.448 -1.56,0 0,-8.4 3.456,0 c 0.728,0 1.36,0.12 1.896,0.36 0.544,0.24 0.96,0.584 1.248,1.032 0.288,0.448 0.432,0.98 0.432,1.596 0,0.632 -0.156,1.176 -0.468,1.632 -0.304,0.456 -0.744,0.796 -1.32,1.02 l 1.932,2.76 -1.68,0 z M 16.588,9.088 C 16.588,8.552 16.412,8.14 16.06,7.852 15.708,7.564 15.192,7.42 14.512,7.42 l -1.824,0 0,3.348 1.824,0 c 0.68,0 1.196,-0.144 1.548,-0.432 0.352,-0.296 0.528,-0.712 0.528,-1.248 z m 9.1973,2.244 c 0,0.104 -0.008,0.252 -0.024,0.444 l -5.028,0 c 0.088,0.472 0.316,0.848 0.684,1.128 0.376,0.272 0.84,0.408 1.392,0.408 0.704,0 1.284,-0.232 1.74,-0.696 l 0.804,0.924 c -0.288,0.344 -0.652,0.604 -1.092,0.78 -0.44,0.176 -0.936,0.264 -1.488,0.264 -0.704,0 -1.324,-0.14 -1.86,-0.42 -0.536,-0.28 -0.952,-0.668 -1.248,-1.164 -0.288,-0.504 -0.432,-1.072 -0.432,-1.704 0,-0.624 0.14,-1.184 0.42,-1.68 0.288,-0.504 0.684,-0.896 1.188,-1.176 0.504,-0.28 1.072,-0.42 1.704,-0.42 0.624,0 1.18,0.14 1.668,0.42 0.496,0.272 0.88,0.66 1.152,1.164 0.28,0.496 0.42,1.072 0.42,1.728 z m -3.24,-2.112 c -0.48,0 -0.888,0.144 -1.224,0.432 -0.328,0.28 -0.528,0.656 -0.6,1.128 l 3.636,0 C 24.2933,10.316 24.0973,9.94 23.7693,9.652 23.4413,9.364 23.0333,9.22 22.5453,9.22 Z M 33.109,8.092 30.361,14.5 l -1.548,0 -2.748,-6.408 1.56,0 1.992,4.752 2.052,-4.752 1.44,0 z m 0.9375,0 1.5,0 0,6.408 -1.5,0 0,-6.408 z m 0.756,-1.056 c -0.272,0 -0.5,-0.084 -0.684,-0.252 -0.184,-0.176 -0.276,-0.392 -0.276,-0.648 0,-0.256 0.092,-0.468 0.276,-0.636 0.184,-0.176 0.412,-0.264 0.684,-0.264 0.272,0 0.5,0.084 0.684,0.252 0.184,0.16 0.276,0.364 0.276,0.612 0,0.264 -0.092,0.488 -0.276,0.672 -0.176,0.176 -0.404,0.264 -0.684,0.264 z m 6.5648,7.116 c -0.176,0.144 -0.392,0.252 -0.648,0.324 -0.248,0.072 -0.512,0.108 -0.792,0.108 -0.704,0 -1.248,-0.184 -1.6321,-0.552 -0.3839,-0.368 -0.5759,-0.904 -0.5759,-1.608 l 0,-3.084 -1.056,0 0,-1.2 1.056,0 0,-1.464 1.5,0 0,1.464 1.716,0 0,1.2 -1.716,0 0,3.048 c 0,0.312 0.076,0.552 0.228,0.72 0.152,0.16 0.372,0.24 0.66,0.24 0.336,0 0.616,-0.088 0.84,-0.264 l 0.42,1.068 z"
     id="path6"
     inkscape:connector-curvature="0"
     style="fill:#ffffff" />
</svg>
