<svg xmlns="http://www.w3.org/2000/svg" width="68" height="21" viewBox="0 0 68 21" fill="none"><path d="M0 10.5C0 4.701 4.701 0 10.5 0h47C63.299 0 68 4.701 68 10.5S63.299 21 57.5 21h-47C4.701 21 0 16.299 0 10.5z" fill="#88AEC0"/><path d="M11.128 6.1h1.56v7.08h4.392v1.32h-5.952V6.1zm13.185 1.992V14.5h-1.428v-.816c-.24.288-.54.512-.9.672-.36.152-.748.228-1.164.228-.856 0-1.532-.236-2.028-.708-.488-.48-.732-1.188-.732-2.124v-3.66h1.5v3.456c0 .576.128 1.008.384 1.296.264.28.636.42 1.116.42.536 0 .96-.164 1.272-.492.32-.336.48-.816.48-1.44v-3.24h1.5zm10.052-.072c.808 0 1.448.236 1.92.708.472.464.708 1.164.708 2.1V14.5h-1.5v-3.48c0-.56-.124-.98-.372-1.26-.248-.288-.604-.432-1.068-.432-.504 0-.908.168-1.212.504-.304.328-.456.8-.456 1.416V14.5h-1.5v-3.48c0-.56-.124-.98-.372-1.26-.248-.288-.604-.432-1.068-.432-.512 0-.92.164-1.224.492-.296.328-.444.804-.444 1.428V14.5h-1.5V8.092h1.428v.816c.24-.288.54-.508.9-.66.36-.152.76-.228 1.2-.228.48 0 .904.092 1.272.276.376.176.672.44.888.792a2.619 2.619 0 0 1 1.02-.78 3.254 3.254 0 0 1 1.38-.288zm4.545.072h1.5V14.5h-1.5V8.092zm.756-1.056a.977.977 0 0 1-.684-.252.862.862 0 0 1-.276-.648c0-.256.092-.468.276-.636a.951.951 0 0 1 .684-.264c.272 0 .5.084.684.252.184.16.276.364.276.612a.925.925 0 0 1-.96.936zm5.593 7.548c-.648 0-1.232-.14-1.752-.42A3.117 3.117 0 0 1 42.283 13a3.373 3.373 0 0 1-.432-1.704c0-.632.144-1.196.432-1.692a3.117 3.117 0 0 1 1.224-1.164c.52-.28 1.104-.42 1.752-.42.656 0 1.244.14 1.764.42.52.28.924.668 1.212 1.164.296.496.444 1.06.444 1.692 0 .632-.148 1.2-.444 1.704a3.033 3.033 0 0 1-1.212 1.164c-.52.28-1.108.42-1.764.42zm0-1.284c.552 0 1.008-.184 1.368-.552.36-.368.54-.852.54-1.452s-.18-1.084-.54-1.452c-.36-.368-.816-.552-1.368-.552-.552 0-1.008.184-1.368.552-.352.368-.528.852-.528 1.452s.176 1.084.528 1.452c.36.368.816.552 1.368.552zm8.49-5.28c.808 0 1.456.236 1.944.708s.732 1.172.732 2.1V14.5h-1.5v-3.48c0-.56-.132-.98-.396-1.26-.264-.288-.64-.432-1.128-.432-.552 0-.988.168-1.308.504-.32.328-.48.804-.48 1.428v3.24h-1.5V8.092h1.428v.828c.248-.296.56-.52.936-.672.376-.152.8-.228 1.272-.228z" fill="#fff"/></svg>