<?xml version="1.0" encoding="UTF-8" standalone="no"?>
<svg
   xmlns:dc="http://purl.org/dc/elements/1.1/"
   xmlns:cc="http://creativecommons.org/ns#"
   xmlns:rdf="http://www.w3.org/1999/02/22-rdf-syntax-ns#"
   xmlns:svg="http://www.w3.org/2000/svg"
   xmlns="http://www.w3.org/2000/svg"
   xmlns:sodipodi="http://sodipodi.sourceforge.net/DTD/sodipodi-0.dtd"
   xmlns:inkscape="http://www.inkscape.org/namespaces/inkscape"
   width="68"
   height="21"
   viewBox="0 0 68 21"
   fill="none"
   id="svg2"
   version="1.1"
   inkscape:version="0.91 r13725"
   sodipodi:docname="4.svg">
  <metadata
     id="metadata12">
    <rdf:RDF>
      <cc:Work
         rdf:about="">
        <dc:format>image/svg+xml</dc:format>
        <dc:type
           rdf:resource="http://purl.org/dc/dcmitype/StillImage" />
      </cc:Work>
    </rdf:RDF>
  </metadata>
  <defs
     id="defs10" />
  <sodipodi:namedview
     pagecolor="#ffffff"
     bordercolor="#666666"
     borderopacity="1"
     objecttolerance="10"
     gridtolerance="10"
     guidetolerance="10"
     inkscape:pageopacity="0"
     inkscape:pageshadow="2"
     inkscape:window-width="1109"
     inkscape:window-height="687"
     id="namedview8"
     showgrid="false"
     inkscape:zoom="5.9558824"
     inkscape:cx="34"
     inkscape:cy="10.332099"
     inkscape:window-x="0"
     inkscape:window-y="0"
     inkscape:window-maximized="0"
     inkscape:current-layer="svg2" />
  <path
     d="M0 10.5C0 4.70101 4.70101 0 10.5 0H57.5C63.299 0 68 4.70101 68 10.5V10.5C68 16.299 63.299 21 57.5 21H10.5C4.70101 21 0 16.299 0 10.5V10.5Z"
     fill="#88AEC0"
     id="path4" />
  <path
     d="m 11.128,6.1 1.56,0 0,7.08 4.392,0 0,1.32 -5.952,0 0,-8.4 z m 13.185,1.992 0,6.408 -1.428,0 0,-0.816 c -0.24,0.288 -0.54,0.512 -0.9,0.672 -0.36,0.152 -0.748,0.228 -1.164,0.228 -0.856,0 -1.532,-0.236 -2.028,-0.708 -0.488,-0.48 -0.732,-1.188 -0.732,-2.124 l 0,-3.66 1.5,0 0,3.456 c 0,0.576 0.128,1.008 0.384,1.296 0.264,0.28 0.636,0.42 1.116,0.42 0.536,0 0.96,-0.164 1.272,-0.492 0.32,-0.336 0.48,-0.816 0.48,-1.44 l 0,-3.24 1.5,0 z M 34.365,8.02 c 0.808,0 1.448,0.236 1.92,0.708 0.472,0.464 0.708,1.164 0.708,2.1 l 0,3.672 -1.5,0 0,-3.48 c 0,-0.56 -0.124,-0.98 -0.372,-1.26 -0.248,-0.288 -0.604,-0.432 -1.068,-0.432 -0.504,0 -0.908,0.168 -1.212,0.504 -0.304,0.328 -0.456,0.8 -0.456,1.416 l 0,3.252 -1.5,0 0,-3.48 c 0,-0.56 -0.124,-0.98 -0.372,-1.26 -0.248,-0.288 -0.604,-0.432 -1.068,-0.432 -0.512,0 -0.92,0.164 -1.224,0.492 -0.296,0.328 -0.444,0.804 -0.444,1.428 l 0,3.252 -1.5,0 0,-6.408 1.428,0 0,0.816 c 0.24,-0.288 0.54,-0.508 0.9,-0.66 0.36,-0.152 0.76,-0.228 1.2,-0.228 0.48,0 0.904,0.092 1.272,0.276 0.376,0.176 0.672,0.44 0.888,0.792 0.264,-0.336 0.604,-0.596 1.02,-0.78 0.416,-0.192 0.876,-0.288 1.38,-0.288 z m 4.5448,0.072 1.5,0 0,6.408 -1.5,0 0,-6.408 z m 0.756,-1.056 c -0.272,0 -0.5,-0.084 -0.684,-0.252 -0.184,-0.176 -0.276,-0.392 -0.276,-0.648 0,-0.256 0.092,-0.468 0.276,-0.636 0.184,-0.176 0.412,-0.264 0.684,-0.264 0.272,0 0.5,0.084 0.684,0.252 0.184,0.16 0.276,0.364 0.276,0.612 0,0.264 -0.092,0.488 -0.276,0.672 -0.176,0.176 -0.404,0.264 -0.684,0.264 z m 5.5927,7.548 c -0.648,0 -1.232,-0.14 -1.752,-0.42 -0.52,-0.28 -0.928,-0.668 -1.224,-1.164 -0.288,-0.504 -0.432,-1.072 -0.432,-1.704 0,-0.632 0.144,-1.196 0.432,-1.692 0.296,-0.496 0.704,-0.884 1.224,-1.164 0.52,-0.28 1.104,-0.42 1.752,-0.42 0.656,0 1.244,0.14 1.764,0.42 0.52,0.28 0.924,0.668 1.212,1.164 0.296,0.496 0.444,1.06 0.444,1.692 0,0.632 -0.148,1.2 -0.444,1.704 -0.288,0.496 -0.692,0.884 -1.212,1.164 -0.52,0.28 -1.108,0.42 -1.764,0.42 z m 0,-1.284 c 0.552,0 1.008,-0.184 1.368,-0.552 0.36,-0.368 0.54,-0.852 0.54,-1.452 0,-0.6 -0.18,-1.084 -0.54,-1.452 -0.36,-0.368 -0.816,-0.552 -1.368,-0.552 -0.552,0 -1.008,0.184 -1.368,0.552 -0.352,0.368 -0.528,0.852 -0.528,1.452 0,0.6 0.176,1.084 0.528,1.452 0.36,0.368 0.816,0.552 1.368,0.552 z m 8.4904,-5.28 c 0.808,0 1.456,0.236 1.944,0.708 0.488,0.472 0.732,1.172 0.732,2.1 l 0,3.672 -1.5,0 0,-3.48 c 0,-0.56 -0.132,-0.98 -0.396,-1.26 -0.264,-0.288 -0.64,-0.432 -1.128,-0.432 -0.552,0 -0.988,0.168 -1.308,0.504 -0.32,0.328 -0.48,0.804 -0.48,1.428 l 0,3.24 -1.5,0 0,-6.408 1.428,0 0,0.828 c 0.248,-0.296 0.56,-0.52 0.936,-0.672 0.376,-0.152 0.8,-0.228 1.272,-0.228 z"
     id="path6"
     inkscape:connector-curvature="0"
     style="fill:#ffffff" />
</svg>
