<svg xmlns="http://www.w3.org/2000/svg" width="93" height="21" viewBox="0 0 93 21" fill="none"><path d="M0 10.5C0 4.701 4.701 0 10.5 0h72C88.299 0 93 4.701 93 10.5S88.299 21 82.5 21h-72C4.701 21 0 16.299 0 10.5z" fill="#D0C87D"/><path d="M11.188 6.1h1.536v5.964L17.236 6.1h1.452v8.4h-1.536V8.548L12.64 14.5h-1.452V6.1zm9.687 1.992h1.5v2.604h3.228V8.092h1.5V14.5h-1.5v-2.532h-3.228V14.5h-1.5V8.092zM34.19 9.364h-2.244V14.5h-1.5V9.364H28.19V8.092h6v1.272zm6.807 1.968c0 .104-.008.252-.024.444h-5.028c.088.472.316.848.684 1.128.376.272.84.408 1.392.408.704 0 1.284-.232 1.74-.696l.804.924a2.709 2.709 0 0 1-1.092.78c-.44.176-.936.264-1.488.264-.704 0-1.324-.14-1.86-.42A3.078 3.078 0 0 1 34.876 13a3.373 3.373 0 0 1-.432-1.704c0-.624.14-1.184.42-1.68a3.052 3.052 0 0 1 1.188-1.176 3.449 3.449 0 0 1 1.704-.42c.624 0 1.18.14 1.668.42.496.272.88.66 1.152 1.164.28.496.42 1.072.42 1.728zm-3.24-2.112c-.48 0-.888.144-1.224.432-.328.28-.528.656-.6 1.128h3.636a1.768 1.768 0 0 0-.588-1.128c-.328-.288-.736-.432-1.224-.432zm8.433-1.2c.624 0 1.18.136 1.668.408.496.272.884.656 1.164 1.152.28.496.42 1.068.42 1.716 0 .648-.14 1.224-.42 1.728-.28.496-.668.88-1.164 1.152-.488.272-1.044.408-1.668.408-.864 0-1.548-.288-2.052-.864v3.108h-1.5V8.092h1.428v.84a2.33 2.33 0 0 1 .912-.684 3.145 3.145 0 0 1 1.212-.228zm-.168 5.28c.552 0 1.004-.184 1.356-.552.36-.368.54-.852.54-1.452s-.18-1.084-.54-1.452c-.352-.368-.804-.552-1.356-.552-.36 0-.684.084-.972.252-.288.16-.516.392-.684.696a2.148 2.148 0 0 0-.252 1.056c0 .4.084.752.252 1.056.168.304.396.54.684.708.288.16.612.24.972.24zm8.129-3.096c.816 0 1.44.184 1.872.552.44.368.66.888.66 1.56 0 .704-.24 1.248-.72 1.632-.48.384-1.156.572-2.028.564l-3-.012V8.092h1.5v2.1l1.716.012zm-.348 3.204c.44.008.776-.084 1.008-.276.232-.192.348-.472.348-.84 0-.36-.112-.624-.336-.792-.224-.168-.564-.256-1.02-.264l-1.368-.012v2.172l1.368.012zM64 11.332c0 .104-.008.252-.024.444h-5.028c.088.472.316.848.684 1.128.376.272.84.408 1.392.408.704 0 1.284-.232 1.74-.696l.804.924a2.709 2.709 0 0 1-1.092.78c-.44.176-.936.264-1.488.264-.704 0-1.324-.14-1.86-.42A3.078 3.078 0 0 1 57.88 13a3.373 3.373 0 0 1-.432-1.704c0-.624.14-1.184.42-1.68a3.052 3.052 0 0 1 1.188-1.176 3.449 3.449 0 0 1 1.704-.42c.624 0 1.18.14 1.668.42.496.272.88.66 1.152 1.164.28.496.42 1.072.42 1.728zM60.76 9.22c-.48 0-.888.144-1.224.432-.328.28-.528.656-.6 1.128h3.636a1.768 1.768 0 0 0-.588-1.128c-.328-.288-.736-.432-1.224-.432zm8.433-1.2c.624 0 1.18.136 1.668.408.496.272.884.656 1.164 1.152.28.496.42 1.068.42 1.716 0 .648-.14 1.224-.42 1.728-.28.496-.668.88-1.164 1.152-.488.272-1.044.408-1.668.408-.864 0-1.548-.288-2.052-.864v3.108h-1.5V8.092h1.428v.84a2.33 2.33 0 0 1 .912-.684 3.145 3.145 0 0 1 1.212-.228zm-.168 5.28c.552 0 1.004-.184 1.356-.552.36-.368.54-.852.54-1.452s-.18-1.084-.54-1.452c-.352-.368-.804-.552-1.356-.552-.36 0-.684.084-.972.252-.288.16-.516.392-.684.696a2.148 2.148 0 0 0-.252 1.056c0 .4.084.752.252 1.056.168.304.396.54.684.708.288.16.612.24.972.24zm8.033-3.096c.816 0 1.44.184 1.872.552.432.368.648.888.648 1.56 0 .704-.24 1.248-.72 1.632-.472.384-1.144.572-2.016.564l-2.904-.012V8.092h1.5v2.1l1.62.012zm3.348-2.112h1.5V14.5h-1.5V8.092zm-3.696 5.316c.44.008.776-.084 1.008-.276.232-.192.348-.472.348-.84 0-.36-.112-.624-.336-.792-.224-.168-.564-.256-1.02-.264l-1.272-.012v2.172l1.272.012z" fill="#fff"/></svg>