<?xml version="1.0" encoding="UTF-8" standalone="no"?>
<svg
   xmlns:dc="http://purl.org/dc/elements/1.1/"
   xmlns:cc="http://creativecommons.org/ns#"
   xmlns:rdf="http://www.w3.org/1999/02/22-rdf-syntax-ns#"
   xmlns:svg="http://www.w3.org/2000/svg"
   xmlns="http://www.w3.org/2000/svg"
   xmlns:sodipodi="http://sodipodi.sourceforge.net/DTD/sodipodi-0.dtd"
   xmlns:inkscape="http://www.inkscape.org/namespaces/inkscape"
   width="93"
   height="21"
   viewBox="0 0 93 21"
   fill="none"
   id="svg2"
   version="1.1"
   inkscape:version="0.91 r13725"
   sodipodi:docname="5.svg">
  <metadata
     id="metadata12">
    <rdf:RDF>
      <cc:Work
         rdf:about="">
        <dc:format>image/svg+xml</dc:format>
        <dc:type
           rdf:resource="http://purl.org/dc/dcmitype/StillImage" />
      </cc:Work>
    </rdf:RDF>
  </metadata>
  <defs
     id="defs10" />
  <sodipodi:namedview
     pagecolor="#ffffff"
     bordercolor="#666666"
     borderopacity="1"
     objecttolerance="10"
     gridtolerance="10"
     guidetolerance="10"
     inkscape:pageopacity="0"
     inkscape:pageshadow="2"
     inkscape:window-width="1026"
     inkscape:window-height="751"
     id="namedview8"
     showgrid="false"
     inkscape:zoom="4.3548387"
     inkscape:cx="46.5"
     inkscape:cy="10.27037"
     inkscape:window-x="0"
     inkscape:window-y="0"
     inkscape:window-maximized="0"
     inkscape:current-layer="svg2" />
  <path
     d="M0 10.5C0 4.70101 4.70101 0 10.5 0H82.5C88.299 0 93 4.70101 93 10.5V10.5C93 16.299 88.299 21 82.5 21H10.5C4.70101 21 0 16.299 0 10.5V10.5Z"
     fill="#D0C87D"
     id="path4" />
  <path
     d="m 11.188,6.1 1.536,0 0,5.964 4.512,-5.964 1.452,0 0,8.4 -1.536,0 0,-5.952 -4.512,5.952 -1.452,0 0,-8.4 z m 9.6872,1.992 1.5,0 0,2.604 3.228,0 0,-2.604 1.5,0 0,6.408 -1.5,0 0,-2.532 -3.228,0 0,2.532 -1.5,0 0,-6.408 z m 13.3143,1.272 -2.244,0 0,5.136 -1.5,0 0,-5.136 -2.256,0 0,-1.272 6,0 0,1.272 z m 6.8068,1.968 c 0,0.104 -0.008,0.252 -0.024,0.444 l -5.028,0 c 0.088,0.472 0.316,0.848 0.684,1.128 0.376,0.272 0.84,0.408 1.392,0.408 0.704,0 1.284,-0.232 1.74,-0.696 l 0.804,0.924 c -0.288,0.344 -0.652,0.604 -1.092,0.78 -0.44,0.176 -0.936,0.264 -1.488,0.264 -0.704,0 -1.324,-0.14 -1.86,-0.42 -0.536,-0.28 -0.952,-0.668 -1.248,-1.164 -0.288,-0.504 -0.432,-1.072 -0.432,-1.704 0,-0.624 0.14,-1.184 0.42,-1.68 0.288,-0.504 0.684,-0.896 1.188,-1.176 0.504,-0.28 1.072,-0.42 1.704,-0.42 0.624,0 1.18,0.14 1.668,0.42 0.496,0.272 0.88,0.66 1.152,1.164 0.28,0.496 0.42,1.072 0.42,1.728 z m -3.24,-2.112 c -0.48,0 -0.888,0.144 -1.224,0.432 -0.328,0.28 -0.528,0.656 -0.6,1.128 l 3.636,0 c -0.064,-0.464 -0.26,-0.84 -0.588,-1.128 -0.328,-0.288 -0.736,-0.432 -1.224,-0.432 z m 8.4326,-1.2 c 0.624,0 1.18,0.136 1.668,0.408 0.496,0.272 0.884,0.656 1.164,1.152 0.28,0.496 0.42,1.068 0.42,1.716 0,0.648 -0.14,1.224 -0.42,1.728 -0.28,0.496 -0.668,0.88 -1.164,1.152 -0.488,0.272 -1.044,0.408 -1.668,0.408 -0.864,0 -1.548,-0.288 -2.052,-0.864 l 0,3.108 -1.5,0 0,-8.736 1.428,0 0,0.84 c 0.248,-0.304 0.552,-0.532 0.912,-0.684 0.368,-0.152 0.772,-0.228 1.212,-0.228 z m -0.168,5.28 c 0.552,0 1.004,-0.184 1.356,-0.552 0.36,-0.368 0.54,-0.852 0.54,-1.452 0,-0.6 -0.18,-1.084 -0.54,-1.452 -0.352,-0.368 -0.804,-0.552 -1.356,-0.552 -0.36,0 -0.684,0.084 -0.972,0.252 -0.288,0.16 -0.516,0.392 -0.684,0.696 -0.168,0.304 -0.252,0.656 -0.252,1.056 0,0.4 0.084,0.752 0.252,1.056 0.168,0.304 0.396,0.54 0.684,0.708 0.288,0.16 0.612,0.24 0.972,0.24 z m 8.1289,-3.096 c 0.816,0 1.44,0.184 1.872,0.552 0.44,0.368 0.66,0.888 0.66,1.56 0,0.704 -0.24,1.248 -0.72,1.632 -0.48,0.384 -1.156,0.572 -2.028,0.564 l -3,-0.012 0,-6.408 1.5,0 0,2.1 1.716,0.012 z m -0.348,3.204 c 0.44,0.008 0.776,-0.084 1.008,-0.276 0.232,-0.192 0.348,-0.472 0.348,-0.84 0,-0.36 -0.112,-0.624 -0.336,-0.792 -0.224,-0.168 -0.564,-0.256 -1.02,-0.264 l -1.368,-0.012 0,2.172 1.368,0.012 z m 10.1984,-2.076 c 0,0.104 -0.008,0.252 -0.024,0.444 l -5.028,0 c 0.088,0.472 0.316,0.848 0.684,1.128 0.376,0.272 0.84,0.408 1.392,0.408 0.704,0 1.284,-0.232 1.74,-0.696 l 0.804,0.924 c -0.288,0.344 -0.652,0.604 -1.092,0.78 -0.44,0.176 -0.936,0.264 -1.488,0.264 -0.704,0 -1.324,-0.14 -1.86,-0.42 -0.536,-0.28 -0.952,-0.668 -1.248,-1.164 -0.288,-0.504 -0.432,-1.072 -0.432,-1.704 0,-0.624 0.14,-1.184 0.42,-1.68 0.288,-0.504 0.684,-0.896 1.188,-1.176 0.504,-0.28 1.072,-0.42 1.704,-0.42 0.624,0 1.18,0.14 1.668,0.42 0.496,0.272 0.88,0.66 1.152,1.164 0.28,0.496 0.42,1.072 0.42,1.728 z m -3.24,-2.112 c -0.48,0 -0.888,0.144 -1.224,0.432 -0.328,0.28 -0.528,0.656 -0.6,1.128 l 3.636,0 c -0.064,-0.464 -0.26,-0.84 -0.588,-1.128 -0.328,-0.288 -0.736,-0.432 -1.224,-0.432 z m 8.4326,-1.2 c 0.624,0 1.18,0.136 1.668,0.408 0.496,0.272 0.884,0.656 1.164,1.152 0.28,0.496 0.42,1.068 0.42,1.716 0,0.648 -0.14,1.224 -0.42,1.728 -0.28,0.496 -0.668,0.88 -1.164,1.152 -0.488,0.272 -1.044,0.408 -1.668,0.408 -0.864,0 -1.548,-0.288 -2.052,-0.864 l 0,3.108 -1.5,0 0,-8.736 1.428,0 0,0.84 c 0.248,-0.304 0.552,-0.532 0.912,-0.684 0.368,-0.152 0.772,-0.228 1.212,-0.228 z m -0.168,5.28 c 0.552,0 1.004,-0.184 1.356,-0.552 0.36,-0.368 0.54,-0.852 0.54,-1.452 0,-0.6 -0.18,-1.084 -0.54,-1.452 -0.352,-0.368 -0.804,-0.552 -1.356,-0.552 -0.36,0 -0.684,0.084 -0.972,0.252 -0.288,0.16 -0.516,0.392 -0.684,0.696 -0.168,0.304 -0.252,0.656 -0.252,1.056 0,0.4 0.084,0.752 0.252,1.056 0.168,0.304 0.396,0.54 0.684,0.708 0.288,0.16 0.612,0.24 0.972,0.24 z m 8.0329,-3.096 c 0.816,0 1.44,0.184 1.872,0.552 0.432,0.368 0.648,0.888 0.648,1.56 0,0.704 -0.24,1.248 -0.72,1.632 -0.472,0.384 -1.144,0.572 -2.016,0.564 l -2.904,-0.012 0,-6.408 1.5,0 0,2.1 1.62,0.012 z m 3.348,-2.112 1.5,0 0,6.408 -1.5,0 0,-6.408 z m -3.696,5.316 c 0.44,0.008 0.776,-0.084 1.008,-0.276 0.232,-0.192 0.348,-0.472 0.348,-0.84 0,-0.36 -0.112,-0.624 -0.336,-0.792 -0.224,-0.168 -0.564,-0.256 -1.02,-0.264 l -1.272,-0.012 0,2.172 1.272,0.012 z"
     id="path6"
     inkscape:connector-curvature="0"
     style="fill:#ffffff" />
</svg>
