<?xml version="1.0" encoding="UTF-8" standalone="no"?>
<svg
   xmlns:dc="http://purl.org/dc/elements/1.1/"
   xmlns:cc="http://creativecommons.org/ns#"
   xmlns:rdf="http://www.w3.org/1999/02/22-rdf-syntax-ns#"
   xmlns:svg="http://www.w3.org/2000/svg"
   xmlns="http://www.w3.org/2000/svg"
   xmlns:sodipodi="http://sodipodi.sourceforge.net/DTD/sodipodi-0.dtd"
   xmlns:inkscape="http://www.inkscape.org/namespaces/inkscape"
   width="76"
   height="21"
   viewBox="0 0 76 21"
   fill="none"
   id="svg2"
   version="1.1"
   inkscape:version="0.91 r13725"
   sodipodi:docname="6.svg">
  <metadata
     id="metadata12">
    <rdf:RDF>
      <cc:Work
         rdf:about="">
        <dc:format>image/svg+xml</dc:format>
        <dc:type
           rdf:resource="http://purl.org/dc/dcmitype/StillImage" />
      </cc:Work>
    </rdf:RDF>
  </metadata>
  <defs
     id="defs10" />
  <sodipodi:namedview
     pagecolor="#ffffff"
     bordercolor="#666666"
     borderopacity="1"
     objecttolerance="10"
     gridtolerance="10"
     guidetolerance="10"
     inkscape:pageopacity="0"
     inkscape:pageshadow="2"
     inkscape:window-width="1011"
     inkscape:window-height="724"
     id="namedview8"
     showgrid="false"
     inkscape:zoom="5.3289474"
     inkscape:cx="38"
     inkscape:cy="10.312346"
     inkscape:window-x="0"
     inkscape:window-y="0"
     inkscape:window-maximized="0"
     inkscape:current-layer="svg2" />
  <path
     d="M0 10.5C0 4.70101 4.70101 0 10.5 0H65.5C71.299 0 76 4.70101 76 10.5V10.5C76 16.299 71.299 21 65.5 21H10.5C4.70101 21 0 16.299 0 10.5V10.5Z"
     fill="#86ADFF"
     id="path4" />
  <path
     d="m 16.576,12.556 -4.2,0 -0.828,1.944 -1.608,0 3.78,-8.4 1.536,0 3.792,8.4 -1.632,0 -0.84,-1.944 z M 16.06,11.332 14.476,7.66 l -1.572,3.672 3.156,0 z m 5.3403,-2.304 c 0.432,-0.672 1.192,-1.008 2.28,-1.008 l 0,1.428 c -0.128,-0.024 -0.244,-0.036 -0.348,-0.036 -0.584,0 -1.04,0.172 -1.368,0.516 -0.328,0.336 -0.492,0.824 -0.492,1.464 l 0,3.108 -1.5,0 0,-6.408 1.428,0 0,0.936 z m 6.4339,5.556 c -0.664,0 -1.26,-0.14 -1.788,-0.42 -0.528,-0.28 -0.94,-0.668 -1.236,-1.164 -0.296,-0.504 -0.444,-1.072 -0.444,-1.704 0,-0.632 0.148,-1.196 0.444,-1.692 0.296,-0.496 0.704,-0.884 1.224,-1.164 0.528,-0.28 1.128,-0.42 1.8,-0.42 0.632,0 1.184,0.128 1.656,0.384 0.48,0.256 0.84,0.624 1.08,1.104 l -1.152,0.672 c -0.184,-0.296 -0.416,-0.516 -0.696,-0.66 -0.272,-0.152 -0.572,-0.228 -0.9,-0.228 -0.56,0 -1.024,0.184 -1.392,0.552 -0.368,0.36 -0.552,0.844 -0.552,1.452 0,0.608 0.18,1.096 0.54,1.464 0.368,0.36 0.836,0.54 1.404,0.54 0.328,0 0.628,-0.072 0.9,-0.216 0.28,-0.152 0.512,-0.376 0.696,-0.672 l 1.152,0.672 c -0.248,0.48 -0.612,0.852 -1.092,1.116 -0.472,0.256 -1.02,0.384 -1.644,0.384 z m 7.61,-6.564 c 0.808,0 1.456,0.236 1.944,0.708 0.488,0.472 0.732,1.172 0.732,2.1 l 0,3.672 -1.5,0 0,-3.48 c 0,-0.56 -0.132,-0.98 -0.396,-1.26 -0.264,-0.288 -0.64,-0.432 -1.128,-0.432 -0.552,0 -0.988,0.168 -1.308,0.504 -0.32,0.328 -0.48,0.804 -0.48,1.428 l 0,3.24 -1.5,0 0,-8.904 1.5,0 0,3.24 c 0.248,-0.264 0.552,-0.464 0.912,-0.6 0.368,-0.144 0.776,-0.216 1.224,-0.216 z m 4.5789,0.072 1.5,0 0,6.408 -1.5,0 0,-6.408 z m 0.756,-1.056 c -0.272,0 -0.5,-0.084 -0.684,-0.252 -0.184,-0.176 -0.276,-0.392 -0.276,-0.648 0,-0.256 0.092,-0.468 0.276,-0.636 0.184,-0.176 0.412,-0.264 0.684,-0.264 0.272,0 0.5,0.084 0.684,0.252 0.184,0.16 0.276,0.364 0.276,0.612 0,0.264 -0.092,0.488 -0.276,0.672 -0.176,0.176 -0.404,0.264 -0.684,0.264 z m 5.6527,7.548 c -0.664,0 -1.26,-0.14 -1.788,-0.42 -0.528,-0.28 -0.94,-0.668 -1.236,-1.164 -0.296,-0.504 -0.444,-1.072 -0.444,-1.704 0,-0.632 0.148,-1.196 0.444,-1.692 0.296,-0.496 0.704,-0.884 1.224,-1.164 0.528,-0.28 1.128,-0.42 1.8,-0.42 0.632,0 1.184,0.128 1.656,0.384 0.48,0.256 0.84,0.624 1.08,1.104 l -1.152,0.672 c -0.184,-0.296 -0.416,-0.516 -0.696,-0.66 -0.272,-0.152 -0.572,-0.228 -0.9,-0.228 -0.56,0 -1.024,0.184 -1.392,0.552 -0.368,0.36 -0.552,0.844 -0.552,1.452 0,0.608 0.18,1.096 0.54,1.464 0.368,0.36 0.836,0.54 1.404,0.54 0.328,0 0.628,-0.072 0.9,-0.216 0.28,-0.152 0.512,-0.376 0.696,-0.672 l 1.152,0.672 c -0.248,0.48 -0.612,0.852 -1.092,1.116 -0.472,0.256 -1.02,0.384 -1.644,0.384 z M 52.9125,8.02 c 0.944,0 1.664,0.228 2.16,0.684 0.504,0.448 0.756,1.128 0.756,2.04 l 0,3.756 -1.416,0 0,-0.78 c -0.184,0.28 -0.448,0.496 -0.792,0.648 -0.336,0.144 -0.744,0.216 -1.224,0.216 -0.48,0 -0.9,-0.08 -1.26,-0.24 -0.36,-0.168 -0.64,-0.396 -0.84,-0.684 -0.192,-0.296 -0.288,-0.628 -0.288,-0.996 0,-0.576 0.212,-1.036 0.636,-1.38 0.432,-0.352 1.108,-0.528 2.028,-0.528 l 1.656,0 0,-0.096 c 0,-0.448 -0.136,-0.792 -0.408,-1.032 -0.264,-0.24 -0.66,-0.36 -1.188,-0.36 -0.36,0 -0.716,0.056 -1.068,0.168 -0.344,0.112 -0.636,0.268 -0.876,0.468 l -0.588,-1.092 c 0.336,-0.256 0.74,-0.452 1.212,-0.588 0.472,-0.136 0.972,-0.204 1.5,-0.204 z m -0.204,5.472 c 0.376,0 0.708,-0.084 0.996,-0.252 0.296,-0.176 0.504,-0.424 0.624,-0.744 l 0,-0.744 -1.548,0 c -0.864,0 -1.296,0.284 -1.296,0.852 0,0.272 0.108,0.488 0.324,0.648 0.216,0.16 0.516,0.24 0.9,0.24 z m 11.3796,-7.896 0,8.904 -1.44,0 0,-0.828 c -0.248,0.304 -0.556,0.532 -0.924,0.684 -0.36,0.152 -0.76,0.228 -1.2,0.228 -0.616,0 -1.172,-0.136 -1.668,-0.408 -0.488,-0.272 -0.872,-0.656 -1.152,-1.152 -0.28,-0.504 -0.42,-1.08 -0.42,-1.728 0,-0.648 0.14,-1.22 0.42,-1.716 0.28,-0.496 0.664,-0.88 1.152,-1.152 0.496,-0.272 1.052,-0.408 1.668,-0.408 0.424,0 0.812,0.072 1.164,0.216 0.352,0.144 0.652,0.36 0.9,0.648 l 0,-3.288 1.5,0 z m -3.384,7.704 c 0.36,0 0.684,-0.08 0.972,-0.24 0.288,-0.168 0.516,-0.404 0.684,-0.708 0.168,-0.304 0.252,-0.656 0.252,-1.056 0,-0.4 -0.084,-0.752 -0.252,-1.056 -0.168,-0.304 -0.396,-0.536 -0.684,-0.696 -0.288,-0.168 -0.612,-0.252 -0.972,-0.252 -0.36,0 -0.684,0.084 -0.972,0.252 -0.288,0.16 -0.516,0.392 -0.684,0.696 -0.168,0.304 -0.252,0.656 -0.252,1.056 0,0.4 0.084,0.752 0.252,1.056 0.168,0.304 0.396,0.54 0.684,0.708 0.288,0.16 0.612,0.24 0.972,0.24 z"
     id="path6"
     inkscape:connector-curvature="0"
     style="fill:#ffffff" />
</svg>
