<svg xmlns="http://www.w3.org/2000/svg" width="73" height="21" viewBox="0 0 73 21" fill="none"><path d="M0 10.5C0 4.701 4.701 0 10.5 0h52C68.299 0 73 4.701 73 10.5S68.299 21 62.5 21h-52C4.701 21 0 16.299 0 10.5z" fill="#FF7878"/><path d="M16.576 12.556h-4.2l-.828 1.944H9.94l3.78-8.4h1.536l3.792 8.4h-1.632l-.84-1.944zm-.516-1.224L14.476 7.66l-1.572 3.672h3.156zm10-3.24V14.5h-1.43v-.816c-.24.288-.54.512-.9.672-.36.152-.748.228-1.164.228-.856 0-1.532-.236-2.028-.708-.488-.48-.732-1.188-.732-2.124v-3.66h1.5v3.456c0 .576.128 1.008.384 1.296.264.28.636.42 1.116.42.536 0 .96-.164 1.272-.492.32-.336.48-.816.48-1.44v-3.24h1.5zm5.815 6.06a1.762 1.762 0 0 1-.648.324 2.828 2.828 0 0 1-.792.108c-.704 0-1.248-.184-1.632-.552-.384-.368-.576-.904-.576-1.608V9.34h-1.056v-1.2h1.056V6.676h1.5V8.14h1.716v1.2h-1.716v3.048c0 .312.076.552.228.72.152.16.372.24.66.24.336 0 .616-.088.84-.264l.42 1.068zm3.903.432c-.648 0-1.232-.14-1.752-.42A3.117 3.117 0 0 1 32.802 13a3.373 3.373 0 0 1-.432-1.704c0-.632.144-1.196.432-1.692a3.117 3.117 0 0 1 1.224-1.164c.52-.28 1.104-.42 1.752-.42.656 0 1.244.14 1.764.42.52.28.924.668 1.212 1.164.296.496.444 1.06.444 1.692 0 .632-.148 1.2-.444 1.704a3.033 3.033 0 0 1-1.212 1.164c-.52.28-1.108.42-1.764.42zm0-1.284c.552 0 1.008-.184 1.368-.552.36-.368.54-.852.54-1.452s-.18-1.084-.54-1.452c-.36-.368-.816-.552-1.368-.552-.552 0-1.008.184-1.368.552-.352.368-.528.852-.528 1.452s.176 1.084.528 1.452c.36.368.816.552 1.368.552zm7.794 1.284c-.664 0-1.26-.14-1.788-.42A3.097 3.097 0 0 1 40.548 13a3.301 3.301 0 0 1-.444-1.704c0-.632.148-1.196.444-1.692a3.117 3.117 0 0 1 1.224-1.164c.528-.28 1.128-.42 1.8-.42.632 0 1.184.128 1.656.384.48.256.84.624 1.08 1.104l-1.152.672a1.77 1.77 0 0 0-.696-.66 1.813 1.813 0 0 0-.9-.228c-.56 0-1.024.184-1.392.552-.368.36-.552.844-.552 1.452s.18 1.096.54 1.464c.368.36.836.54 1.404.54.328 0 .628-.072.9-.216.28-.152.512-.376.696-.672l1.152.672c-.248.48-.612.852-1.092 1.116-.472.256-1.02.384-1.644.384zm6.481-6.564c.944 0 1.664.228 2.16.684.504.448.756 1.128.756 2.04V14.5h-1.416v-.78c-.184.28-.448.496-.792.648-.336.144-.744.216-1.224.216s-.9-.08-1.26-.24a2.05 2.05 0 0 1-.84-.684 1.79 1.79 0 0 1-.288-.996c0-.576.212-1.036.636-1.38.432-.352 1.108-.528 2.028-.528h1.656v-.096c0-.448-.136-.792-.408-1.032-.264-.24-.66-.36-1.188-.36-.36 0-.716.056-1.068.168a2.617 2.617 0 0 0-.876.468l-.588-1.092c.336-.256.74-.452 1.212-.588a5.393 5.393 0 0 1 1.5-.204zm-.204 5.472c.376 0 .708-.084.996-.252.296-.176.504-.424.624-.744v-.744h-1.548c-.864 0-1.296.284-1.296.852 0 .272.108.488.324.648.216.16.516.24.9.24zm11.38-7.896V14.5h-1.44v-.828a2.312 2.312 0 0 1-.924.684c-.36.152-.76.228-1.2.228a3.411 3.411 0 0 1-1.668-.408 2.954 2.954 0 0 1-1.152-1.152c-.28-.504-.42-1.08-.42-1.728 0-.648.14-1.22.42-1.716.28-.496.664-.88 1.152-1.152a3.411 3.411 0 0 1 1.668-.408c.424 0 .812.072 1.164.216.352.144.652.36.9.648V5.596h1.5zM57.845 13.3c.36 0 .684-.08.972-.24a1.82 1.82 0 0 0 .684-.708c.168-.304.252-.656.252-1.056s-.084-.752-.252-1.056a1.736 1.736 0 0 0-.684-.696 1.893 1.893 0 0 0-.972-.252c-.36 0-.684.084-.972.252-.288.16-.516.392-.684.696a2.148 2.148 0 0 0-.252 1.056c0 .4.084.752.252 1.056.168.304.396.54.684.708.288.16.612.24.972.24z" fill="#fff"/></svg>