<?xml version="1.0" encoding="UTF-8" standalone="no"?>
<svg
   xmlns:dc="http://purl.org/dc/elements/1.1/"
   xmlns:cc="http://creativecommons.org/ns#"
   xmlns:rdf="http://www.w3.org/1999/02/22-rdf-syntax-ns#"
   xmlns:svg="http://www.w3.org/2000/svg"
   xmlns="http://www.w3.org/2000/svg"
   xmlns:sodipodi="http://sodipodi.sourceforge.net/DTD/sodipodi-0.dtd"
   xmlns:inkscape="http://www.inkscape.org/namespaces/inkscape"
   width="73"
   height="21"
   viewBox="0 0 73 21"
   fill="none"
   id="svg2"
   version="1.1"
   inkscape:version="0.91 r13725"
   sodipodi:docname="9.svg">
  <metadata
     id="metadata12">
    <rdf:RDF>
      <cc:Work
         rdf:about="">
        <dc:format>image/svg+xml</dc:format>
        <dc:type
           rdf:resource="http://purl.org/dc/dcmitype/StillImage" />
      </cc:Work>
    </rdf:RDF>
  </metadata>
  <defs
     id="defs10" />
  <sodipodi:namedview
     pagecolor="#ffffff"
     bordercolor="#666666"
     borderopacity="1"
     objecttolerance="10"
     gridtolerance="10"
     guidetolerance="10"
     inkscape:pageopacity="0"
     inkscape:pageshadow="2"
     inkscape:window-width="1087"
     inkscape:window-height="640"
     id="namedview8"
     showgrid="false"
     inkscape:zoom="5.5479452"
     inkscape:cx="36.5"
     inkscape:cy="10.319753"
     inkscape:window-x="0"
     inkscape:window-y="0"
     inkscape:window-maximized="0"
     inkscape:current-layer="svg2" />
  <path
     d="M0 10.5C0 4.70101 4.70101 0 10.5 0H62.5C68.299 0 73 4.70101 73 10.5V10.5C73 16.299 68.299 21 62.5 21H10.5C4.70101 21 0 16.299 0 10.5V10.5Z"
     fill="#5DC0C5"
     id="path4" />
  <path
     d="m 14.104,9.568 c 0.776,0.096 1.368,0.36 1.776,0.792 0.408,0.432 0.612,0.972 0.612,1.62 0,0.488 -0.124,0.932 -0.372,1.332 -0.248,0.4 -0.624,0.72 -1.128,0.96 -0.496,0.232 -1.104,0.348 -1.824,0.348 -0.6,0 -1.18,-0.084 -1.74,-0.252 -0.552,-0.176 -1.024,-0.416 -1.416,-0.72 l 0.672,-1.212 c 0.304,0.256 0.672,0.46 1.104,0.612 0.44,0.144 0.892,0.216 1.356,0.216 0.552,0 0.984,-0.112 1.296,-0.336 0.32,-0.232 0.48,-0.544 0.48,-0.936 0,-0.392 -0.152,-0.696 -0.456,-0.912 -0.296,-0.224 -0.752,-0.336 -1.368,-0.336 l -0.768,0 0,-1.068 1.908,-2.268 -3.816,0 0,-1.308 5.724,0 0,1.044 -2.04,2.424 z m 4.0084,-3.468 3.672,0 c 0.896,0 1.692,0.176 2.388,0.528 0.696,0.344 1.236,0.836 1.62,1.476 0.384,0.632 0.576,1.364 0.576,2.196 0,0.832 -0.192,1.568 -0.576,2.208 -0.384,0.632 -0.924,1.124 -1.62,1.476 -0.696,0.344 -1.492,0.516 -2.388,0.516 l -3.672,0 0,-8.4 z m 3.6,7.08 c 0.616,0 1.156,-0.116 1.62,-0.348 0.472,-0.24 0.832,-0.576 1.08,-1.008 0.256,-0.44 0.384,-0.948 0.384,-1.524 0,-0.576 -0.128,-1.08 -0.384,-1.512 -0.248,-0.44 -0.608,-0.776 -1.08,-1.008 -0.464,-0.24 -1.004,-0.36 -1.62,-0.36 l -2.04,0 0,5.76 2.04,0 z m 8.15,1.404 c -0.52,0 -1.028,-0.068 -1.524,-0.204 -0.496,-0.136 -0.892,-0.308 -1.188,-0.516 l 0.576,-1.14 c 0.288,0.192 0.632,0.348 1.032,0.468 0.408,0.112 0.808,0.168 1.2,0.168 0.896,0 1.344,-0.236 1.344,-0.708 0,-0.224 -0.116,-0.38 -0.348,-0.468 -0.224,-0.088 -0.588,-0.172 -1.092,-0.252 -0.528,-0.08 -0.96,-0.172 -1.296,-0.276 -0.328,-0.104 -0.616,-0.284 -0.864,-0.54 -0.24,-0.264 -0.36,-0.628 -0.36,-1.092 0,-0.608 0.252,-1.092 0.756,-1.452 0.512,-0.368 1.2,-0.552 2.064,-0.552 0.44,0 0.88,0.052 1.32,0.156 0.44,0.096 0.8,0.228 1.08,0.396 l -0.576,1.14 c -0.544,-0.32 -1.156,-0.48 -1.836,-0.48 -0.44,0 -0.776,0.068 -1.008,0.204 -0.224,0.128 -0.336,0.3 -0.336,0.516 0,0.24 0.12,0.412 0.36,0.516 0.248,0.096 0.628,0.188 1.14,0.276 0.512,0.08 0.932,0.172 1.26,0.276 0.328,0.104 0.608,0.28 0.84,0.528 0.24,0.248 0.36,0.6 0.36,1.056 0,0.6 -0.26,1.08 -0.78,1.44 -0.52,0.36 -1.228,0.54 -2.124,0.54 z m 15.3722,-0.084 -0.012,-5.568 -2.76,4.608 -0.696,0 -2.76,-4.536 0,5.496 -1.488,0 0,-8.4 1.284,0 3.336,5.568 3.276,-5.568 1.284,0 0.012,8.4 -1.476,0 z m 6.049,-6.48 c 0.944,0 1.664,0.228 2.16,0.684 0.504,0.448 0.756,1.128 0.756,2.04 l 0,3.756 -1.416,0 0,-0.78 c -0.184,0.28 -0.448,0.496 -0.792,0.648 -0.336,0.144 -0.744,0.216 -1.224,0.216 -0.48,0 -0.9,-0.08 -1.26,-0.24 -0.36,-0.168 -0.64,-0.396 -0.84,-0.684 -0.192,-0.296 -0.288,-0.628 -0.288,-0.996 0,-0.576 0.212,-1.036 0.636,-1.38 0.432,-0.352 1.108,-0.528 2.028,-0.528 l 1.656,0 0,-0.096 c 0,-0.448 -0.136,-0.792 -0.408,-1.032 -0.264,-0.24 -0.66,-0.36 -1.188,-0.36 -0.36,0 -0.716,0.056 -1.068,0.168 -0.344,0.112 -0.636,0.268 -0.876,0.468 l -0.588,-1.092 c 0.336,-0.256 0.74,-0.452 1.212,-0.588 0.472,-0.136 0.972,-0.204 1.5,-0.204 z m -0.204,5.472 c 0.376,0 0.708,-0.084 0.996,-0.252 0.296,-0.176 0.504,-0.424 0.624,-0.744 l 0,-0.744 -1.548,0 c -0.864,0 -1.296,0.284 -1.296,0.852 0,0.272 0.108,0.488 0.324,0.648 0.216,0.16 0.516,0.24 0.9,0.24 z m 9.125,1.008 -1.644,-2.22 -1.656,2.22 -1.656,0 2.496,-3.252 -2.388,-3.156 1.668,0 1.572,2.1 1.572,-2.1 1.62,0 -2.4,3.132 2.508,3.276 -1.692,0 z"
     id="path6"
     inkscape:connector-curvature="0"
     style="fill:#ffffff" />
</svg>
