<svg width="842" height="530" viewBox="0 0 842 530" fill="none" xmlns="http://www.w3.org/2000/svg">
<g clip-path="url(#clip0_5_750)">
<path d="M713.857 473.035L399.701 463.755L399.714 463.212L713.871 472.492L713.857 473.035Z" fill="#231F20"/>
<path d="M727.124 473.427L718.716 473.178L718.733 472.638L727.137 472.883L727.124 473.427Z" fill="#231F20"/>
<path d="M817.502 476.098L804.845 475.723L804.859 475.18L817.516 475.555L817.502 476.098Z" fill="#231F20"/>
<path d="M804.848 466.352L817.505 466.06L817.516 466.603L804.856 466.895L804.848 466.352Z" fill="#231F20"/>
<path d="M399.703 475.731L561.216 471.993L561.227 472.536L399.714 476.274L399.703 475.731Z" fill="#231F20"/>
<path d="M817.486 468.399L804.83 468.66L804.841 469.203L817.498 468.942L817.486 468.399Z" fill="#231F20"/>
<path d="M637.11 472.059L799.875 468.709L799.887 469.255L637.121 472.602L637.11 472.059Z" fill="#231F20"/>
<path d="M561.209 473.635L446.056 476.003L446.067 476.546L561.22 474.178L561.209 473.635Z" fill="#231F20"/>
<path d="M413.814 476.622L399.716 476.912L399.728 477.455L413.825 477.165L413.814 476.622Z" fill="#231F20"/>
<path d="M804.851 477.628L817.507 477.499L817.51 478.042L804.856 478.171L804.851 477.628Z" fill="#231F20"/>
<path d="M737.679 478.317L793.465 477.744L793.467 478.287L737.684 478.861L737.679 478.317Z" fill="#231F20"/>
<path d="M727.106 478.49L718.7 478.576L718.705 479.119L727.112 479.033L727.106 478.49Z" fill="#231F20"/>
<path d="M446.066 481.317L713.862 478.563L713.868 479.106L446.071 481.86L446.066 481.317Z" fill="#231F20"/>
<path d="M382.094 481.973L442.162 481.356L442.167 481.899L382.099 482.516L382.094 481.973Z" fill="#231F20"/>
<path d="M366.409 482.136L377.925 482.017L377.927 482.56L366.414 482.676L366.409 482.136Z" fill="#231F20"/>
<path d="M366.338 460.207L366.321 460.75L377.828 461.117L377.846 460.574L366.338 460.207Z" fill="#231F20"/>
<path d="M382.05 460.726L382.033 461.269L561.157 466.984L561.174 466.441L382.05 460.726Z" fill="#231F20"/>
<path d="M637.063 468.872L637.046 469.415L713.795 471.863L713.812 471.321L637.063 468.872Z" fill="#231F20"/>
<path d="M737.618 472.134L737.604 472.567L793.389 474.346L793.403 473.914L737.618 472.134Z" fill="#231F20"/>
<path d="M804.845 474.246L804.827 474.788L817.483 475.192L817.5 474.649L804.845 474.246Z" fill="#231F20"/>
<path d="M561.205 447.748L382.08 436.565L382.113 436.022L561.235 447.205L561.205 447.748Z" fill="#231F20"/>
<path d="M799.867 462.647L637.099 452.484L637.132 451.944L799.898 462.104L799.867 462.647Z" fill="#231F20"/>
<path d="M817.493 463.747L804.837 462.958L804.868 462.415L817.524 463.206L817.493 463.747Z" fill="#231F20"/>
<path d="M804.845 464.1L817.502 463.771L817.516 464.315L804.859 464.64L804.845 464.1Z" fill="#231F20"/>
<path d="M637.11 468.467L799.875 464.279L799.887 464.714L637.121 468.902L637.11 468.467Z" fill="#231F20"/>
<path d="M446.063 473.327L561.213 470.364L561.227 470.909L446.074 473.87L446.063 473.327Z" fill="#231F20"/>
<path d="M420.168 473.994L442.156 473.427L442.17 473.97L420.182 474.535L420.168 473.994Z" fill="#231F20"/>
<path d="M637.115 481.229L727.132 480.537V480.97L637.115 481.665V481.229Z" fill="#231F20"/>
<path d="M446.066 482.649L561.218 481.758L561.221 482.304L446.069 483.192L446.066 482.649Z" fill="#231F20"/>
<path d="M420.173 482.847L442.162 482.676L442.165 483.219L420.176 483.39L420.173 482.847Z" fill="#231F20"/>
<path d="M382.094 483.139L413.807 482.897V483.44L382.097 483.682L382.094 483.139Z" fill="#231F20"/>
<path d="M428.487 472.79L366.406 471.621L366.414 471.078L428.495 472.247L428.487 472.79Z" fill="#231F20"/>
<path d="M561.216 475.288L446.063 473.121L446.071 472.577L561.224 474.747L561.216 475.288Z" fill="#231F20"/>
<path d="M713.862 478.111L637.112 476.663L637.118 476.23L713.868 477.675L713.862 478.111Z" fill="#231F20"/>
<path d="M718.844 477.755L718.834 478.298L727.24 478.456L727.25 477.913L718.844 477.755Z" fill="#231F20"/>
<path d="M413.826 473.584L366.417 472.757L366.425 472.214L413.834 473.041L413.826 473.584Z" fill="#231F20"/>
<path d="M561.216 476.159L446.063 474.149L446.071 473.606L561.224 475.616L561.216 476.159Z" fill="#231F20"/>
<path d="M713.862 478.77L637.112 477.43L637.118 476.994L713.868 478.334L713.862 478.77Z" fill="#231F20"/>
<path d="M723.821 479.851L723.81 480.395L732.218 480.563L732.229 480.019L723.821 479.851Z" fill="#231F20"/>
<path d="M801.568 480.355L793.462 480.214L793.47 479.671L801.576 479.812L801.568 480.355Z" fill="#231F20"/>
<path d="M804.848 470.863L817.504 470.636L817.513 471.18L804.856 471.406L804.848 470.863Z" fill="#231F20"/>
<path d="M793.435 471.203L737.65 472.205L737.658 472.637L793.443 471.636L793.435 471.203Z" fill="#231F20"/>
<path d="M637.112 473.937L713.862 472.555L713.868 472.991L637.118 474.369L637.112 473.937Z" fill="#231F20"/>
<path d="M357.43 478.918L561.216 475.249L561.224 475.792L357.438 479.459L357.43 478.918Z" fill="#231F20"/>
<path d="M387.146 482.952L387.142 483.495L413.762 483.703L413.767 483.16L387.146 482.952Z" fill="#231F20"/>
<path d="M423.787 484.505L423.782 485.048L564.832 486.457L564.838 485.914L423.787 484.505Z" fill="#231F20"/>
<path d="M413.801 480.471L366.417 479.572L366.425 479.029L413.809 479.928L413.801 480.471Z" fill="#231F20"/>
<path d="M817.543 452.443L556.232 428.261L556.282 427.721L817.59 451.903L817.543 452.443Z" fill="#231F20"/>
<path d="M378.201 420.919H377.654V486.908H378.201V420.919Z" fill="#231F20"/>
<path d="M817.643 262.957L751.139 279.722L751.144 486.908H750.6L750.595 279.51V279.298L750.799 279.245L817.513 262.431L817.643 262.957Z" fill="#231F20"/>
<path d="M718.443 486.908L718.451 271.719L616.344 225.377L616.568 224.88L718.835 271.297L718.995 271.369V271.545L718.99 486.908H718.443Z" fill="#231F20"/>
<path d="M706.833 282.038V256.062L707.222 256.247L760.984 281.738L761.142 281.812V305.112L760.763 304.955L707.002 282.289L706.833 282.218V282.038ZM707.385 256.922V281.859L760.6 304.298V282.162L707.385 256.922Z" fill="#231F20"/>
<path d="M570.556 194.788H570.009V486.911H570.556V194.788Z" fill="#231F20"/>
<path d="M567.329 369.65L713.603 396.983L747.991 393.054V367.111L604.729 328.447L604.87 327.923L748.333 366.64L748.535 366.695V366.902V393.297V393.54L748.295 393.567L713.625 397.526H713.545L567.229 370.185L567.329 369.65Z" fill="#231F20"/>
<path d="M651.663 232.815H651.116V486.911H651.663V232.815Z" fill="#231F20"/>
<path d="M658.323 235.944H657.776V486.908H658.323V235.944Z" fill="#231F20"/>
<path d="M561.136 403.007L402.365 381.856L402.434 381.318L561.208 402.47L561.136 403.007Z" fill="#231F20"/>
<path d="M561.185 408.984L380.774 386.65L380.84 386.11L561.252 408.444L561.185 408.984Z" fill="#231F20"/>
<path d="M413.805 378.643L413.73 379.181L561.141 399.607L561.216 399.069L413.805 378.643Z" fill="#231F20"/>
<path d="M441.267 371.977L441.186 372.514L564.005 391.096L564.086 390.559L441.267 371.977Z" fill="#231F20"/>
<path d="M366.146 432.025V402.062V401.836L366.367 401.794L561.188 364.026L561.29 364.561L366.687 402.285L366.69 432.025H366.146Z" fill="#231F20"/>
<path d="M748.209 393.565L604.798 363.373L604.908 362.84L748.32 393.032L748.209 393.565Z" fill="#231F20"/>
<path d="M397.442 405.221H396.895V434.062H397.442V405.221Z" fill="#231F20"/>
<path d="M399.991 411.59H399.444V486.911H399.991V411.59Z" fill="#231F20"/>
<path d="M387.395 411.987H386.959V486.908H387.395V411.987Z" fill="#231F20"/>
<path d="M501.61 386.609L397.14 404.834L397.233 405.369L501.703 387.144L501.61 386.609Z" fill="#231F20"/>
<path d="M394.087 384.734L760.838 304.428L760.954 304.96L394.203 385.266L394.087 384.734Z" fill="#231F20"/>
<path d="M817.623 289.857L809.926 291.564V486.908H809.492V291.393V291.216L809.663 291.181L817.529 289.435L817.623 289.857Z" fill="#231F20"/>
<path d="M817.593 425.775L382.177 455.853L382.141 455.313L817.557 425.231L817.593 425.775Z" fill="#231F20"/>
<path d="M537.295 458.952L445.169 454.991L444.909 454.979V454.72L444.934 360.136V359.924L445.141 359.874L480.346 351.234L480.476 351.76L445.478 360.351L445.453 454.458L537.319 458.409L537.295 458.952Z" fill="#231F20"/>
<path d="M445.188 454.453L561.056 447.235L561.089 447.778L445.218 454.996L445.188 454.453Z" fill="#231F20"/>
<path d="M713.592 486.908V463.697V463.424H713.865H718.725V463.97H714.139V486.908H713.592Z" fill="#231F20"/>
<path d="M726.859 486.908V471.687V471.414H727.132H737.682H737.952V471.687V486.908H737.408V471.957H727.405V486.908H726.859Z" fill="#231F20"/>
<path d="M793.194 486.908V470.876V470.603H793.467H801.571H801.844V470.876V486.908H801.3V471.146H793.738V486.908H793.194Z" fill="#231F20"/>
<path d="M799.608 470.876V460.725V460.455H799.881H804.854H805.127V460.725V486.908H804.58V460.998H800.154V470.876H799.608Z" fill="#231F20"/>
<path d="M561.505 380.033H560.962V487.534H561.505V380.033Z" fill="#231F20"/>
<path d="M637.56 367.208H636.743V486.908H637.56V367.208Z" fill="#231F20"/>
<path d="M633.636 367.85H633.09V486.908H633.636V367.85Z" fill="#231F20"/>
<path d="M537.04 486.853L537.043 375.983L445.135 360.398L445.227 359.86L537.361 375.487L537.587 375.525V375.754L537.582 486.853H537.04Z" fill="#231F20"/>
<path d="M347.126 486.908V408.667V408.37L347.421 408.397L556.282 427.721L556.232 428.261L347.667 408.965L347.67 486.908H347.126Z" fill="#231F20"/>
<path d="M333.95 487.143V403.09V402.867L334.169 402.825L341.411 401.339L341.491 401.334L556.326 422.894L556.273 423.434L341.48 401.88L334.494 403.311V487.143H333.95Z" fill="#231F20"/>
<path fill-rule="evenodd" clip-rule="evenodd" d="M227.953 486.908H214.623V263.765L301.868 283.665V486.908H288.775V300.722L227.953 288.294V486.908Z" fill="white"/>
<path fill-rule="evenodd" clip-rule="evenodd" d="M202.591 273.155L214.623 263.765V486.908H202.591V273.155Z" fill="#E6E7E8"/>
<path fill-rule="evenodd" clip-rule="evenodd" d="M275.818 307.43L227.953 298.026V288.294L288.77 300.72L275.818 307.43Z" fill="#B3B3B3"/>
<path fill-rule="evenodd" clip-rule="evenodd" d="M275.818 486.908H288.778V300.72L275.818 307.419V486.908Z" fill="#D1D3D4"/>
<path fill-rule="evenodd" clip-rule="evenodd" d="M459.214 418.791L438.423 421.463V472.492L459.214 471.905V418.791Z" fill="#FFEF68"/>
<path fill-rule="evenodd" clip-rule="evenodd" d="M501.667 273.616V487.018L510.634 487.016L510.645 276.387L501.667 273.616Z" fill="#808080"/>
<path fill-rule="evenodd" clip-rule="evenodd" d="M817.579 285.782L637.154 189.092V194.812L817.579 289.645V285.782Z" fill="#BCBEC0"/>
<path fill-rule="evenodd" clip-rule="evenodd" d="M817.579 319.718L637.154 239.354V245.053L817.579 323.584V319.718Z" fill="#BCBEC0"/>
<path fill-rule="evenodd" clip-rule="evenodd" d="M817.579 353.676L637.154 289.648V295.338L817.579 357.522V353.676Z" fill="#BCBEC0"/>
<path fill-rule="evenodd" clip-rule="evenodd" d="M817.579 455.58L637.154 440.524V446.187L817.579 459.402V455.58Z" fill="#BCBEC0"/>
<path fill-rule="evenodd" clip-rule="evenodd" d="M630.806 475.505L567.215 476.539V396.561L630.806 387.56V475.505Z" fill="#FFEF68"/>
<path fill-rule="evenodd" clip-rule="evenodd" d="M645.986 373.207L361.613 418.325L378.148 420.895L669.115 378.026L645.986 373.207Z" fill="#BCBEC0"/>
<path fill-rule="evenodd" clip-rule="evenodd" d="M646.124 365.686L646.127 373.248L669.115 378.026L669.121 370.783L646.124 365.686Z" fill="#E6E7E8"/>
<path fill-rule="evenodd" clip-rule="evenodd" d="M361.613 418.325L646.124 373.248V365.686L361.613 413.762V418.325Z" fill="white"/>
<path d="M609.919 396.939L581.216 400.741L581.214 486.908H580.67L580.672 400.501V400.267L580.907 400.234L609.848 396.401L609.919 396.939Z" fill="#231F20"/>
<path d="M366.384 431.757L561.102 407.338L561.172 407.879L366.45 432.297L366.384 431.757Z" fill="#231F20"/>
<path d="M397.147 433.789L561.354 415.265L561.412 415.805L397.205 434.329L397.147 433.789Z" fill="#231F20"/>
<path d="M438.731 285.335L438.59 285.859L561.216 318.601L561.357 318.076L438.731 285.335Z" fill="#231F20"/>
<path d="M413.788 295.052L413.658 295.579L561.086 331.821L561.216 331.293L413.788 295.052Z" fill="#231F20"/>
<path d="M402.363 299.575L402.237 300.103L561.166 337.706L561.291 337.177L402.363 299.575Z" fill="#231F20"/>
<path d="M380.981 308.112L380.864 308.642L561.27 348.316L561.387 347.785L380.981 308.112Z" fill="#231F20"/>
<path d="M561.191 331.463L394.416 372.529L394.419 384.998H393.875L393.872 372.316V372.104L394.079 372.052L561.061 330.934L561.191 331.463Z" fill="#231F20"/>
<path d="M393.577 394.199L366.37 391.036L366.127 391.009V390.769L366.144 352.532V352.331L366.337 352.273L453.104 325.635L453.264 326.156L366.687 352.733L366.671 390.526L393.637 393.658L393.577 394.199Z" fill="#231F20"/>
<path d="M453.104 371.334L366.336 390.399L366.453 390.93L453.22 371.865L453.104 371.334Z" fill="#231F20"/>
<path d="M453.124 381.643L393.482 393.587L393.589 394.122L453.232 382.179L453.124 381.643Z" fill="#231F20"/>
<path d="M458.94 419.1L438.694 421.7V472.213L458.94 471.64V419.1ZM438.388 421.192L459.178 418.521L459.487 418.482V472.166H459.211L438.421 472.757H438.145V421.201L438.388 421.192Z" fill="#231F20"/>
<path d="M713.868 372.046H713.321V397.256H713.868V372.046Z" fill="#231F20"/>
<path d="M748.3 367.172L713.633 372.33L713.531 372.325L567.226 337.267L567.353 336.74L713.603 371.784L748.223 366.634L748.3 367.172Z" fill="#231F20"/>
<path d="M817.303 486.908V262.844L758.817 227.91L758.844 486.908H758.303L758.273 227.43V226.953L758.684 227.199L817.717 262.458L817.85 262.538V262.692V486.908H817.303Z" fill="#231F20"/>
<path d="M817.449 286.019L637.425 189.544V194.65L817.703 289.405L817.452 289.885L637.024 195.055L636.881 194.978V194.812V189.092V188.637L637.281 188.852L817.706 285.54L817.449 286.019Z" fill="#231F20"/>
<path d="M657.961 235.701L730.859 210.679L731.039 211.194L658.137 236.214L657.961 235.701Z" fill="#231F20"/>
<path d="M758.867 226.928L686.859 249.089L687.02 249.608L759.027 227.447L758.867 226.928Z" fill="#231F20"/>
<path d="M608.661 183.219H608.114V303.984H608.661V183.219Z" fill="#231F20"/>
<path d="M548.389 213.314L548.176 213.813L596.083 234.129L596.295 233.629L548.389 213.314Z" fill="#231F20"/>
<path d="M817.469 319.966L637.425 239.774V244.874L817.687 323.335L817.469 323.834L637.044 245.301L636.881 245.23V245.053V239.354V238.935L637.264 239.106L817.69 319.47L817.469 319.966Z" fill="#231F20"/>
<path d="M817.488 353.933L637.425 290.034V295.148L817.667 357.266L817.488 357.779L637.063 295.597L636.881 295.531V295.338V289.648V289.262L637.242 289.391L817.667 353.42L817.488 353.933Z" fill="#231F20"/>
<path d="M760.777 281.824L617.418 317.118L617.548 317.646L760.907 282.352L760.777 281.824Z" fill="#231F20"/>
<path d="M657.928 236.206L651.243 233.069L651.472 232.578L658.157 235.712L657.928 236.206Z" fill="#231F20"/>
<path d="M684.176 234.869L637.477 211.707L637.717 211.219L684.417 234.381L684.176 234.869Z" fill="#231F20"/>
<path d="M628.064 220.415L627.832 220.907L717.688 263.244L717.92 262.753L628.064 220.415Z" fill="#231F20"/>
<path d="M718.622 296.821L627.858 260.388L628.059 259.883L718.824 296.317L718.622 296.821Z" fill="#231F20"/>
<path d="M616.439 263.512L616.243 264.019L718.563 303.608L718.759 303.101L616.439 263.512Z" fill="#231F20"/>
<path d="M622.94 275.154L562.154 293.667L608.906 307.924L608.749 308.442L561.144 293.927V293.408L622.78 274.633L622.94 275.154Z" fill="#231F20"/>
<path d="M718.62 353.1L573.138 311.971L573.284 311.447L718.766 352.576L718.62 353.1Z" fill="#231F20"/>
<path d="M688.809 275.945L596.126 301.704L595.971 301.701L548.189 286.86L547.996 286.803V286.601L547.977 257.002L547.974 256.815L548.153 256.748L642.165 221.864L642.353 222.371L548.518 257.19L548.54 286.4L596.059 301.158L688.666 275.422L688.809 275.945Z" fill="#231F20"/>
<path d="M669.435 341.606L608.716 353.555L608.603 353.552L561.152 342.753V342.224L622.811 328.144L622.932 328.673L562.433 342.488L608.666 353.009L669.331 341.071L669.435 341.606Z" fill="#231F20"/>
<path d="M817.557 455.851L637.425 440.822V445.934L817.596 459.129L817.56 459.672L637.132 446.458L636.881 446.438V446.187V440.524V440.229L637.176 440.254L817.601 455.307L817.557 455.851Z" fill="#231F20"/>
<path d="M630.812 475.776L567.21 476.809H566.934V396.305L567.168 396.272L630.762 387.276L631.071 387.229V475.756L630.812 475.776ZM567.486 476.261L630.53 475.238V387.882L567.486 396.793V476.261Z" fill="#231F20"/>
<path d="M442.35 286.527H441.803V374.235H442.35V286.527Z" fill="#231F20"/>
<path d="M405.811 300.576H405.264V382.355H405.811V300.576Z" fill="#231F20"/>
<path d="M366.296 352.197L366.209 352.734L393.496 357.166L393.583 356.63L366.296 352.197Z" fill="#231F20"/>
<path d="M561.053 371.055L537.276 375.4L537.374 375.935L561.151 371.59L561.053 371.055Z" fill="#231F20"/>
<path d="M393.541 356.728L453.06 340.095L453.203 340.619L393.687 357.252L393.541 356.728Z" fill="#231F20"/>
<path d="M366.529 466.834L366.515 467.378L393.805 468.034L393.818 467.491L366.529 466.834Z" fill="#231F20"/>
<path d="M394.032 357.007H393.486V393.859H394.032V357.007Z" fill="#231F20"/>
<path d="M596.278 273.977H595.731V301.428H596.278V273.977Z" fill="#231F20"/>
<path d="M596.302 233.824H595.758V264.151H596.302V233.824Z" fill="#231F20"/>
<path d="M687.233 249.503H686.686V486.911H687.233V249.503Z" fill="#231F20"/>
<path d="M537.303 458.409L561.169 457.303L561.191 457.847L537.328 458.952L537.303 458.409Z" fill="#231F20"/>
<path d="M288.502 486.908V300.943L228.227 288.628V486.908H227.68V288.294V287.96L228.009 288.029L288.83 300.458L289.048 300.499V300.722V486.908H288.502Z" fill="#231F20"/>
<path d="M214.897 263.765H214.35V486.908H214.897V263.765Z" fill="#231F20"/>
<path d="M202.318 486.908V273.155V273.026L202.422 272.943L214.455 263.553L214.56 263.473L214.684 263.5L301.928 283.4L302.138 283.447V283.665V486.908H301.594V283.88L214.689 264.06L202.864 273.288V486.908H202.318Z" fill="#231F20"/>
<path d="M288.894 300.962L275.942 307.67L275.765 307.698L227.901 298.291L228.006 297.759L275.779 307.144L288.645 300.48L288.894 300.962Z" fill="#231F20"/>
<path d="M276.094 307.417H275.547V486.908H276.094V307.417Z" fill="#231F20"/>
<path d="M361.569 418.055L646.083 372.978L646.18 372.981L669.173 377.759L669.06 378.291L646.116 373.524L361.654 418.593L361.569 418.055Z" fill="#231F20"/>
<path d="M361.566 413.492L646.08 365.418H646.182L669.179 370.516L669.391 370.563V378.258L669.159 378.291L378.179 421.162H378.099L361.571 418.59L361.339 418.554V413.522L361.566 413.484V413.492ZM646.119 365.961L361.883 413.991V418.091L378.137 420.619L668.845 377.789V371.001L646.119 365.961Z" fill="#231F20"/>
<path d="M605.02 181.294L604.769 181.776L717.797 240.48L718.048 239.998L605.02 181.294Z" fill="#231F20"/>
<path d="M646.398 365.686H645.851V373.245H646.398V365.686Z" fill="#231F20"/>
<path fill-rule="evenodd" clip-rule="evenodd" d="M559.109 419.103L559.175 419.717L561.337 419.483L561.274 418.871L559.109 419.103ZM554.222 419.626L554.288 420.239L556.45 420.007L556.384 419.395L554.222 419.626ZM544.448 420.674L544.512 421.286L546.676 421.055L546.61 420.44L544.448 420.674ZM534.674 421.719L534.74 422.334L536.902 422.102L536.836 421.487L534.674 421.719ZM524.898 422.767L524.964 423.379L527.128 423.147L527.062 422.535L524.898 422.767ZM515.126 423.812L515.193 424.426L517.355 424.195L517.288 423.58L515.126 423.812ZM505.353 424.859L505.419 425.471L507.581 425.24L507.514 424.628L505.353 424.859ZM549.335 420.15L549.399 420.762L551.566 420.531L551.497 419.919L549.335 420.15ZM539.561 421.195L539.625 421.81L541.789 421.578L541.723 420.964L539.561 421.195ZM529.787 422.243L529.854 422.855L532.015 422.626L531.949 422.011L529.787 422.243ZM520.013 423.288L520.077 423.903L522.241 423.671L522.175 423.056L520.013 423.288ZM510.237 424.335L510.303 424.95L512.468 424.716L512.401 424.104L510.237 424.335ZM500.466 425.383L500.529 425.995L502.694 425.763L502.627 425.151L500.466 425.383ZM775.941 395.878L776.007 396.49L778.169 396.258L778.105 395.643L775.941 395.878ZM771.054 396.399L771.12 397.014L773.284 396.782L773.218 396.167L771.054 396.399ZM761.28 397.446L761.346 398.058L763.508 397.83L763.442 397.215L761.28 397.446ZM751.506 398.491L751.572 399.106L753.737 398.875L753.668 398.26L751.506 398.491ZM741.732 399.539L741.798 400.154L743.96 399.922L743.894 399.307L741.732 399.539ZM731.955 400.584L732.024 401.199L734.186 400.967L734.12 400.355L731.955 400.584ZM722.184 401.632L722.248 402.246L724.412 402.012L724.346 401.4L722.184 401.632ZM712.41 402.679L712.474 403.291L714.638 403.062L714.572 402.445L712.41 402.679ZM697.747 404.248L697.813 404.863L699.977 404.631L699.911 404.016L697.747 404.248ZM678.202 406.354L678.268 406.969L680.43 406.737L680.363 406.123L678.202 406.354ZM658.651 408.447L658.717 409.062L660.882 408.83L660.816 408.215L658.651 408.447ZM639.103 410.539L639.169 411.154L641.331 410.923L641.265 410.308L639.103 410.539ZM619.555 412.632L619.622 413.247L621.786 413.015L621.72 412.403L619.555 412.632ZM600.008 414.725L600.074 415.339L602.238 415.108L602.172 414.496L600.008 414.725ZM580.462 416.831L580.529 417.446L582.693 417.214L582.627 416.599L580.462 416.831ZM766.169 396.947L766.236 397.562L768.398 397.331L768.331 396.716L766.169 396.947ZM756.396 397.992L756.462 398.607L758.624 398.375L758.557 397.761L756.396 397.992ZM746.622 399.04L746.688 399.655L748.85 399.423L748.784 398.808L746.622 399.04ZM736.848 400.085L736.914 400.7L739.076 400.468L739.01 399.856L736.848 400.085ZM727.071 401.116L727.137 401.731L729.299 401.499L729.233 400.884L727.071 401.116ZM717.294 402.164L717.361 402.776L719.525 402.544L719.459 401.932L717.294 402.164ZM707.52 403.211L707.587 403.823L709.751 403.592L709.685 402.977L707.52 403.211ZM687.973 405.304L688.039 405.916L690.204 405.684L690.137 405.069L687.973 405.304ZM668.425 407.394L668.491 408.011L670.656 407.777L670.59 407.165L668.425 407.394ZM648.877 409.489L648.943 410.101L651.108 409.872L651.042 409.257L648.877 409.489ZM629.332 411.593L629.398 412.207L631.563 411.976L631.497 411.361L629.332 411.593ZM609.784 413.685L609.85 414.3L612.015 414.068L611.949 413.453L609.784 413.685ZM590.236 415.778L590.303 416.392L592.467 416.161L592.401 415.546L590.236 415.778ZM570.689 417.87L570.755 418.485L572.917 418.253L572.85 417.639L570.689 417.87ZM702.636 403.743L702.703 404.358L704.867 404.127L704.801 403.512L702.636 403.743ZM692.862 404.791L692.929 405.403L695.093 405.171L695.024 404.559L692.862 404.791ZM683.091 405.836L683.155 406.451L685.319 406.219L685.253 405.604L683.091 405.836ZM673.315 406.884L673.381 407.498L675.545 407.267L675.479 406.652L673.315 406.884ZM663.541 407.928L663.607 408.543L665.772 408.312L665.705 407.7L663.541 407.928ZM653.767 408.976L653.833 409.591L655.995 409.359L655.931 408.745L653.767 408.976ZM643.993 410.024L644.059 410.636L646.224 410.404L646.157 409.789L643.993 410.024ZM634.219 411.069L634.285 411.684L636.447 411.452L636.384 410.837L634.219 411.069ZM624.445 412.116L624.511 412.728L626.673 412.497L626.607 411.885L624.445 412.116ZM614.671 413.161L614.737 413.776L616.899 413.545L616.836 412.93L614.671 413.161ZM604.897 414.209L604.964 414.824L607.125 414.589L607.062 413.977L604.897 414.209ZM595.123 415.257L595.19 415.869L597.354 415.637L597.285 415.025L595.123 415.257ZM585.35 416.302L585.416 416.916L587.578 416.685L587.511 416.07L585.35 416.302ZM575.575 417.349L575.642 417.961L577.806 417.73L577.74 417.118L575.575 417.349ZM565.802 418.394L565.868 419.009L568.03 418.777L567.963 418.162L565.802 418.394ZM817.201 391.466L815.039 391.698L815.102 392.313L817.267 392.081L817.201 391.466ZM810.149 392.222L810.216 392.837L812.38 392.602L812.314 391.99L810.149 392.222ZM805.265 392.743L805.329 393.361L807.493 393.126L807.427 392.514L805.265 392.743ZM800.378 393.267L800.442 393.882L802.606 393.65L802.54 393.035L800.378 393.267ZM795.488 393.791L795.555 394.405L797.717 394.174L797.653 393.559L795.488 393.791ZM790.601 394.314L790.668 394.929L792.832 394.698L792.766 394.083L790.601 394.314ZM785.714 394.838L785.781 395.45L787.945 395.221L787.879 394.607L785.714 394.838ZM780.828 395.362L780.894 395.974L783.058 395.743L782.989 395.13L780.828 395.362Z" fill="#231F20"/>
<path fill-rule="evenodd" clip-rule="evenodd" d="M816.5 357.577L814.346 357.892L814.434 358.501L816.588 358.189L816.5 357.577ZM809.484 358.597L809.572 359.21L811.726 358.895L811.635 358.283L809.484 358.597ZM804.619 359.303L804.707 359.915L806.861 359.604L806.773 358.992L804.619 359.303ZM799.754 360.012L799.845 360.621L801.996 360.31L801.908 359.698L799.754 360.012ZM794.889 360.718L794.978 361.33L797.131 361.015L797.043 360.403L794.889 360.718ZM790.022 361.415L790.11 362.024L792.264 361.713L792.173 361.101L790.022 361.415ZM785.157 362.121L785.245 362.73L787.399 362.419L787.311 361.807L785.157 362.121Z" fill="#231F20"/>
<path fill-rule="evenodd" clip-rule="evenodd" d="M766.86 332.632L766.97 333.239L769.11 332.844L768.997 332.238L766.86 332.632ZM762.025 333.517L762.136 334.126L764.275 333.732L764.162 333.126L762.025 333.517ZM752.362 335.295L752.475 335.902L754.612 335.51L754.502 334.901L752.362 335.295ZM742.698 337.071L742.811 337.677L744.951 337.286L744.838 336.679L742.698 337.071ZM733.035 338.849L733.145 339.456L735.285 339.061L735.175 338.455L733.035 338.849ZM723.371 340.625L723.484 341.231L725.622 340.837L725.511 340.23L723.371 340.625ZM713.708 342.4L713.818 343.007L715.958 342.612L715.848 342.006L713.708 342.4ZM704.044 344.176L704.155 344.782L706.297 344.388L706.184 343.781L704.044 344.176ZM689.541 346.839L689.654 347.445L691.791 347.054L691.681 346.447L689.541 346.839ZM670.214 350.39L670.327 350.999L672.467 350.605L672.354 349.998L670.214 350.39ZM650.887 353.944L651 354.55L653.14 354.156L653.027 353.549L650.887 353.944ZM757.188 334.397L757.301 335.003L759.441 334.609L759.328 334.002L757.188 334.397ZM747.524 336.172L747.638 336.779L749.778 336.387L749.664 335.778L747.524 336.172ZM737.861 337.948L737.971 338.554L740.111 338.163L739.998 337.556L737.861 337.948ZM728.198 339.723L728.308 340.332L730.451 339.938L730.337 339.332L728.198 339.723ZM718.534 341.499L718.647 342.108L720.787 341.714L720.674 341.107L718.534 341.499ZM708.871 343.277L708.987 343.883L711.124 343.489L711.013 342.883L708.871 343.277ZM699.207 345.052L699.32 345.659L701.457 345.267L701.347 344.658L699.207 345.052ZM679.88 348.603L679.994 349.213L682.133 348.818L682.02 348.212L679.88 348.603ZM660.553 352.157L660.667 352.764L662.806 352.369L662.696 351.766L660.553 352.157ZM641.226 355.708L641.337 356.315L643.477 355.923L643.366 355.317L641.226 355.708ZM694.398 345.94L694.508 346.549L696.648 346.155L696.537 345.549L694.398 345.94ZM684.734 347.716L684.845 348.325L686.984 347.931L686.871 347.324L684.734 347.716ZM675.071 349.491L675.184 350.1L677.321 349.706L677.21 349.1L675.071 349.491ZM665.407 351.267L665.52 351.876L667.66 351.484L667.55 350.875L665.407 351.267ZM655.744 353.045L655.854 353.651L657.997 353.26L657.884 352.651L655.744 353.045ZM646.08 354.82L646.191 355.427L648.33 355.035L648.22 354.426L646.08 354.82ZM817.339 323.369L815.196 323.76L815.309 324.369L817.449 323.975L817.339 323.369ZM810.365 324.651L810.475 325.257L812.615 324.863L812.504 324.256L810.365 324.651ZM805.53 325.538L805.64 326.145L807.783 325.751L807.67 325.144L805.53 325.538ZM800.696 326.426L800.809 327.033L802.949 326.641L802.835 326.032L800.696 326.426ZM795.861 327.314L795.974 327.92L798.114 327.526L798.001 326.92L795.861 327.314ZM791.027 328.202L791.14 328.808L793.28 328.417L793.169 327.807L791.027 328.202ZM786.195 329.089L786.305 329.696L788.445 329.302L788.335 328.698L786.195 329.089ZM781.36 329.98L781.474 330.586L783.613 330.192L783.5 329.586L781.36 329.98ZM776.526 330.865L776.639 331.474L778.779 331.08L778.666 330.473L776.526 330.865ZM771.694 331.755L771.805 332.362L773.944 331.968L773.831 331.361L771.694 331.755Z" fill="#231F20"/>
<path d="M510.364 487.016H510.908L510.91 394.67L510.367 394.755L510.364 487.016Z" fill="black"/>
<path d="M510.916 276.387V276.185L510.723 276.127L501.747 273.357L501.587 273.875L510.372 276.585L510.367 388.627L510.91 388.533L510.916 276.387Z" fill="black"/>
<path fill-rule="evenodd" clip-rule="evenodd" d="M737.748 262.149V230.438L802.573 266.96V294.155L737.748 262.149Z" fill="#D9D9D9"/>
<path fill-rule="evenodd" clip-rule="evenodd" d="M453.181 486.908H481.393V246.534L453.181 258.805V486.908Z" fill="white"/>
<path fill-rule="evenodd" clip-rule="evenodd" d="M481.393 486.908H501.667V253.382L481.393 246.534V486.908Z" fill="#D1D3D4"/>
<path opacity="0.5" fill-rule="evenodd" clip-rule="evenodd" d="M428.498 472.773V448.302L394.071 450.962V473.749L428.498 472.773Z" fill="#FFEF68"/>
<path fill-rule="evenodd" clip-rule="evenodd" d="M817.579 421.642L637.154 390.253V395.916L817.579 425.507V421.642Z" fill="#BCBEC0"/>
<path fill-rule="evenodd" clip-rule="evenodd" d="M817.579 387.681L637.154 339.971V345.645L817.579 391.524V387.681Z" fill="#BCBEC0"/>
<path fill-rule="evenodd" clip-rule="evenodd" d="M642.182 171.91V209.736L688.707 233.148V198.518L642.182 171.91Z" fill="#E6E7E8"/>
<path fill-rule="evenodd" clip-rule="evenodd" d="M642.182 222.005V256.23L688.707 275.716V244.38L642.182 222.005Z" fill="#FFEF68"/>
<path fill-rule="evenodd" clip-rule="evenodd" d="M622.827 274.909V328.416L669.353 341.35V292.209L622.827 274.909Z" fill="#BCBEC0"/>
<path opacity="0.5" fill-rule="evenodd" clip-rule="evenodd" d="M567.273 336.988V369.959L604.856 363.075V328.163L567.273 336.988Z" fill="#FFEF68"/>
<path fill-rule="evenodd" clip-rule="evenodd" d="M642.182 407.09V477.311L688.707 478.122V413.834L642.182 407.09Z" fill="#E6E7E8"/>
<path fill-rule="evenodd" clip-rule="evenodd" d="M308.069 426.806L239.966 437.591L258.156 438.575L328.633 428.19L308.069 426.806Z" fill="#BCBEC0"/>
<path d="M669.225 401.152H668.789V486.853H669.225V401.152Z" fill="#231F20"/>
<path d="M721.831 409.674H721.394V486.853H721.831V409.674Z" fill="#231F20"/>
<path d="M791.272 427.459H790.836V486.85H791.272V427.459Z" fill="#231F20"/>
<path d="M624.997 384.593H624.561V486.853H624.997V384.593Z" fill="#231F20"/>
<path d="M564.369 393.493H563.932V486.85H564.369V393.493Z" fill="#231F20"/>
<path d="M640.02 396.341H639.584V486.853H640.02V396.341Z" fill="#231F20"/>
<path d="M504.428 402.417H503.991V486.853H504.428V402.417Z" fill="#231F20"/>
<path d="M450.368 428.093H449.931V486.853H450.368V428.093Z" fill="#231F20"/>
<path d="M424.657 408.471H424.221V487.931H424.657V408.471Z" fill="#231F20"/>
<path d="M504.428 303.011H503.991V389.628H504.428V303.011Z" fill="#231F20"/>
<path d="M673.693 486.908V423.343V423.034L673.996 423.073L682.992 424.173L682.926 424.713L674.237 423.649V486.908H673.693Z" fill="#231F20"/>
<path d="M377.911 440.362L366.685 439.717L366.69 486.908H366.146L366.141 439.427V439.14L366.428 439.157L377.941 439.821L377.911 440.362Z" fill="#231F20"/>
<path d="M397.155 434.34L366.398 432.298L366.431 431.754L397.188 433.797L397.155 434.34Z" fill="#231F20"/>
<path d="M366.495 401.814L366.439 402.354L397.178 405.51L397.234 404.969L366.495 401.814Z" fill="#231F20"/>
<path d="M650.031 398.011H649.484V486.961H650.031V398.011Z" fill="#231F20"/>
<path d="M642.452 407.405V477.044L688.434 477.843V414.074L642.452 407.41V407.405ZM641.9 477.308V406.776L642.209 406.82L688.738 413.564L688.972 413.597V478.386H688.696L642.171 477.576H641.894L641.9 477.308Z" fill="#231F20"/>
<path d="M567.547 337.2V369.631L604.583 362.849V328.505L567.547 337.2ZM566.994 369.956V336.77L567.204 336.721L604.787 327.898L605.124 327.821V363.304L604.9 363.342L567.317 370.235L566.994 370.293V369.956Z" fill="#231F20"/>
<path d="M623.098 275.3V328.21L669.09 340.991V292.396L623.109 275.303L623.098 275.3ZM622.545 328.414V274.517L622.913 274.655L669.438 291.955L669.615 292.021V341.705L669.27 341.611L622.744 328.678L622.545 328.621V328.414Z" fill="#231F20"/>
<path d="M604.808 302.602L604.646 303.12L718.44 338.708L718.602 338.19L604.808 302.602Z" fill="#231F20"/>
<path d="M642.452 222.435V256.048L688.434 275.306V244.549L642.452 222.435ZM641.9 256.227V221.569L642.289 221.759L688.818 244.135L688.972 244.209V276.125L688.594 275.965L642.066 256.478L641.9 256.409V256.227Z" fill="#231F20"/>
<path d="M734.291 231.56H733.744V263.277H734.291V231.56Z" fill="#231F20"/>
<path d="M717.791 267.423L737.726 261.887L737.869 262.411L717.935 267.947L717.791 267.423Z" fill="#231F20"/>
<path d="M802.675 294.384L784.143 298.47L783.97 298.451L760.752 287.745L760.982 287.252L784.116 297.921L802.556 293.855L802.675 294.384Z" fill="#231F20"/>
<path d="M737.767 230.686L718.117 236.923L718.018 267.47L760.976 287.246L760.747 287.74L717.631 267.892L717.474 267.818V267.644L717.573 236.724L717.576 236.526L717.764 236.465L737.604 230.171L737.767 230.686Z" fill="#231F20"/>
<path d="M734.263 262.988L734.024 263.476L799.163 295.243L799.402 294.755L734.263 262.988Z" fill="#231F20"/>
<path d="M755.727 228.332H755.181V486.911H755.727V228.332Z" fill="#231F20"/>
<path d="M688.636 198.142L595.953 233.354L596.147 233.861L688.829 198.65L688.636 198.142Z" fill="#231F20"/>
<path d="M633.637 156.57H633.09V367.85H633.637V156.57Z" fill="#231F20"/>
<path d="M610.16 386.688H609.613V486.908H610.16V386.688Z" fill="#231F20"/>
<path d="M531.56 391.439H531.013V486.908H531.56V391.439Z" fill="#231F20"/>
<path d="M688.723 232.901L595.935 263.885L596.108 264.4L688.896 233.416L688.723 232.901Z" fill="#231F20"/>
<path d="M642.452 172.379V209.568L688.434 232.707V198.675L642.452 172.379ZM641.9 209.733V171.438L642.306 171.673L688.834 198.281L688.972 198.361V233.59L688.577 233.391L642.049 209.979L641.9 209.901V209.733Z" fill="#231F20"/>
<path d="M626.842 221.34L572.95 196.031L573.179 195.54L627.071 220.849L626.842 221.34Z" fill="#231F20"/>
<path d="M548.195 286.339L642.132 255.968L642.298 256.484L548.361 286.855L548.195 286.339Z" fill="#231F20"/>
<path d="M548.213 256.663L548.03 257.175L595.772 274.198L595.955 273.686L548.213 256.663Z" fill="#231F20"/>
<path d="M548.173 245.96L642.113 209.466L642.306 209.973L548.372 246.467L548.173 245.96Z" fill="#231F20"/>
<path d="M595.93 264.319L548.142 246.479L547.966 246.412V246.225L547.991 213.543V213.364L548.153 213.293L642.174 171.802L642.392 172.302L548.534 213.72L548.51 246.035L596.12 263.812L595.93 264.319Z" fill="#231F20"/>
<path d="M595.916 273.754L688.619 244.176L688.784 244.695L596.079 274.272L595.916 273.754Z" fill="#231F20"/>
<path d="M737.477 262.146V229.972L737.883 230.201L802.706 266.723L802.846 266.803V294.591L802.452 294.398L737.629 262.392L737.477 262.315V262.146ZM738.029 230.904V261.978L802.308 293.717V267.126L738.029 230.904Z" fill="#231F20"/>
<path d="M817.306 421.868L637.424 390.576V395.682L817.306 425.182V421.873V421.868ZM637.198 389.983L817.631 421.372L817.858 421.413V425.824L817.543 425.774L637.11 396.181L636.878 396.142V389.928L637.198 389.983Z" fill="#231F20"/>
<path d="M817.306 387.882L637.424 340.324V345.425L817.306 391.166V387.882ZM637.223 339.698L817.645 387.411L817.85 387.463V391.874L817.51 391.789L637.085 345.907L636.878 345.855V339.618L637.223 339.698Z" fill="#231F20"/>
<path d="M341.747 401.59H341.201V487.143H341.747V401.59Z" fill="#231F20"/>
<path d="M570.159 195.03L561.114 190.784L561.343 190.291L570.391 194.537L570.159 195.03Z" fill="#231F20"/>
<path d="M394.118 372.584L341.391 365.018L341.469 364.481L394.192 372.043L394.118 372.584Z" fill="#231F20"/>
<path d="M428.224 472.522V448.611L394.344 451.227V473.482L428.224 472.522ZM428.777 448.316V473.052H428.5L394.074 474.028H393.798V450.709L394.052 450.69L428.478 448.029L428.771 448.007L428.777 448.316Z" fill="#231F20"/>
<path d="M481.666 167.733H481.122V217.979H481.666V167.733Z" fill="#231F20"/>
<path d="M453.062 231.464L481.274 217.737L481.379 217.684L481.489 217.726L501.766 225.39L501.573 225.898L481.409 218.277L453.3 231.952L453.062 231.464Z" fill="#231F20"/>
<path d="M481.409 168.036L453.457 184.181V231.513L473.201 238.326L501.396 225.467V176.928L481.412 168.036H481.409ZM453.043 183.79L481.257 167.499L481.376 167.43L481.503 167.485L501.774 176.503L501.937 176.578V225.815L501.777 225.889L473.336 238.864H473.137L453.104 231.952L452.921 231.891V183.864L453.043 183.79Z" fill="#231F20"/>
<path d="M710.342 292.824L483.877 351.106L484.013 351.633L710.478 293.35L710.342 292.824Z" fill="#231F20"/>
<path d="M455.342 358.575L343.301 387.41L343.437 387.937L455.478 359.102L455.342 358.575Z" fill="#231F20"/>
<path d="M453.258 331.918L341.739 364.93L341.734 378.037L394.203 384.731L394.137 385.269L341.427 378.544L341.193 378.517V378.277L341.195 364.726V364.525L341.391 364.467L453.104 331.397L453.258 331.918Z" fill="#231F20"/>
<path d="M707.162 256.757L481.47 323.567L481.318 323.046L707.01 256.236L707.162 256.757Z" fill="#231F20"/>
<path d="M262.286 486.908V436.028V435.84L262.471 435.813L306.288 429.13L306.539 429.091L306.537 429.345L306.534 487.049H306.1L306.103 429.598L262.72 436.213V486.908H262.286Z" fill="#231F20"/>
<path d="M382.37 433.069H381.823V486.908H382.37V433.069Z" fill="#231F20"/>
<path d="M414.08 473.203H413.533V486.908H414.08V473.203Z" fill="#231F20"/>
<path d="M357.151 486.908L357.157 475.877V475.613L357.422 475.607L413.801 474.157L413.812 474.7L357.7 476.142L357.695 486.908H357.151Z" fill="#231F20"/>
<path d="M442.435 472.382H441.891V486.911H442.435V472.382Z" fill="#231F20"/>
<path d="M414.038 262.122H413.602V285.755H414.038V262.122Z" fill="#231F20"/>
<path d="M817.789 151.872H817.353V229.493H817.789V151.872Z" fill="#231F20"/>
<path d="M420.444 473.065H419.9V486.908H420.444V473.065Z" fill="#231F20"/>
<path d="M446.342 472.282H445.795V486.908H446.342V472.282Z" fill="#231F20"/>
<path d="M452.825 486.908V258.805V258.573L453.04 258.48L481.252 246.211L481.509 246.2L501.78 253.048L502.023 253.128V253.382V486.908H501.313V253.636L481.409 246.911L453.534 259.034V486.908H452.825Z" fill="#231F20"/>
<path d="M481.749 246.534H481.039V486.908H481.749V246.534Z" fill="#231F20"/>
<path fill-rule="evenodd" clip-rule="evenodd" d="M106.304 486.908H94.5423V326.561L171.524 337.799V486.908H159.972V351.239L106.304 344.187V486.908Z" fill="white"/>
<path fill-rule="evenodd" clip-rule="evenodd" d="M83.9235 336.825L94.5423 326.561V486.908H83.9235V336.825Z" fill="#E6E7E8"/>
<path fill-rule="evenodd" clip-rule="evenodd" d="M148.539 357.936L106.304 352.777V344.187L159.967 351.242L148.539 357.936Z" fill="#B3B3B3"/>
<path fill-rule="evenodd" clip-rule="evenodd" d="M148.539 486.908H159.972V351.245L148.539 357.928V486.908Z" fill="#D1D3D4"/>
<path fill-rule="evenodd" clip-rule="evenodd" d="M616.419 225.128V263.903L627.985 260.151V220.725L616.419 225.128Z" fill="#D1D3D4"/>
<path fill-rule="evenodd" clip-rule="evenodd" d="M539.382 364.883L513.453 370.067L494.422 366.794L520.245 361.308L539.382 364.883Z" fill="#BCBEC0"/>
<path fill-rule="evenodd" clip-rule="evenodd" d="M539.382 364.883L520.245 361.31V318.425L539.382 323.217V364.883Z" fill="#E6E7E8"/>
<path fill-rule="evenodd" clip-rule="evenodd" d="M494.422 366.794L520.245 361.31V318.425L494.422 325.781V366.794Z" fill="white"/>
<path fill-rule="evenodd" clip-rule="evenodd" d="M573.055 195.816V311.577L604.856 302.923V181.446L573.055 195.816Z" fill="white"/>
<path fill-rule="evenodd" clip-rule="evenodd" d="M413.856 295.286L413.848 379.013L438.564 373.518V285.526L413.856 295.286Z" fill="#FFEF68"/>
<path opacity="0.5" fill-rule="evenodd" clip-rule="evenodd" d="M380.804 308.34V386.363L402.34 381.574L402.348 299.832L380.804 308.34Z" fill="#FFEF68"/>
<path fill-rule="evenodd" clip-rule="evenodd" d="M758.911 486.908H772.613V49.7225L682.937 96.1807V486.908H696.391V127.084L758.911 97.7798V486.908Z" fill="white"/>
<path fill-rule="evenodd" clip-rule="evenodd" d="M784.98 62.5867L772.613 49.7225V486.908H784.98V62.5867Z" fill="#E6E7E8"/>
<path fill-rule="evenodd" clip-rule="evenodd" d="M709.71 136.731L758.911 114.672V97.7798L696.396 127.084L709.71 136.731Z" fill="#B3B3B3"/>
<path fill-rule="evenodd" clip-rule="evenodd" d="M709.71 486.908H696.391V127.078L709.71 136.731V486.908Z" fill="#D1D3D4"/>
<path fill-rule="evenodd" clip-rule="evenodd" d="M528.092 470.19L528.089 409.227L556.304 405.568L556.31 469.404L528.092 470.19Z" fill="white"/>
<path fill-rule="evenodd" clip-rule="evenodd" d="M556.31 469.404L556.304 405.569L576.578 408.152L576.581 469.955L556.31 469.404Z" fill="#E6E7E8"/>
<path fill-rule="evenodd" clip-rule="evenodd" d="M528.092 470.19L556.312 469.401L576.581 469.956L548.234 470.705L528.092 470.19Z" fill="#D1D3D4"/>
<path fill-rule="evenodd" clip-rule="evenodd" d="M390.28 464.149L390.275 441.66L408.516 439.871V463.25L390.28 464.149Z" fill="white"/>
<path fill-rule="evenodd" clip-rule="evenodd" d="M408.517 463.25V439.871L421.278 440.789V463.636L408.517 463.25Z" fill="#E6E7E8"/>
<path fill-rule="evenodd" clip-rule="evenodd" d="M408.516 463.25L421.278 463.636L402.868 464.505L390.283 464.149L408.516 463.25Z" fill="#A7A9AC"/>
<path fill-rule="evenodd" clip-rule="evenodd" d="M239.966 437.597L308.072 426.803L308.069 422.767L240.005 434.31L239.966 437.597Z" fill="white"/>
<path fill-rule="evenodd" clip-rule="evenodd" d="M328.633 424.214L308.072 422.767V426.803L328.624 428.192L328.633 424.214Z" fill="#E6E7E8"/>
<path d="M517.493 486.908V436.554L491.216 438.812V486.908H490.672V438.564V438.313L490.924 438.291L517.744 435.986L518.037 435.962V436.257V486.908H517.493Z" fill="#231F20"/>
<path d="M239.726 437.641V434.081L239.952 434.04L308.025 422.496H308.091L328.652 423.944L328.903 423.96V424.217V428.192V428.427L328.671 428.46L258.194 438.843H258.142L239.994 437.911H239.734V437.652L239.726 437.641ZM240.278 434.539V437.381L258.139 438.299L328.359 427.952V424.465L308.083 423.037L240.278 434.539Z" fill="#231F20"/>
<path d="M308.345 422.761H307.798V426.806H308.345V422.761Z" fill="#231F20"/>
<path d="M616.692 225.313V263.525L627.711 259.941V221.12L616.692 225.313ZM616.14 263.911V224.943L616.317 224.875L627.88 220.463L628.25 220.323V260.343L628.062 260.404L616.499 264.154L616.14 264.269V263.911Z" fill="#231F20"/>
<path d="M239.972 437.321L308.027 426.535L308.088 426.532L328.503 427.905L328.467 428.451L308.08 427.078L240.057 437.856L239.972 437.321Z" fill="#231F20"/>
<path d="M520.599 318.425H519.889V361.307H520.599V318.425Z" fill="#231F20"/>
<path d="M539.315 365.231L520.251 361.669L494.496 367.139L494.35 366.447L520.171 360.963L520.312 360.96L539.445 364.536L539.315 365.231Z" fill="#231F20"/>
<path d="M494.32 325.439L520.143 318.083H520.325L539.459 322.875L539.735 322.944V365.176L539.459 365.234L513.533 370.414H513.404L494.369 367.141L494.074 367.092V325.513L494.333 325.439H494.32ZM520.245 318.789L494.772 326.045V366.496L513.442 369.705L539.02 364.594V323.492L520.245 318.789Z" fill="#231F20"/>
<path d="M573.463 196.078V311.045L604.447 302.614V182.081L573.463 196.078ZM572.635 311.577V195.551L572.875 195.444L604.677 181.074L605.254 180.815V303.226L604.95 303.309L573.151 311.963L572.635 312.103V311.577Z" fill="#231F20"/>
<path d="M414.182 295.506V378.608L438.244 373.256V286.006L414.19 295.506H414.182ZM413.522 379.013V295.283V295.062L413.729 294.98L438.434 285.22L438.882 285.043V373.777L438.625 373.833L413.92 379.335L413.522 379.424V379.013Z" fill="#231F20"/>
<path d="M381.119 308.563V385.952L402 381.304V300.306L381.119 308.563ZM380.465 386.363V308.119L380.672 308.037L402.208 299.529L402.655 299.349V299.829V381.574V381.833L402.398 381.891L380.862 386.68L380.465 386.768V386.363Z" fill="#231F20"/>
<path d="M682.727 182.615L637.14 155.384L561.633 190.79L561.638 380.033H560.824L560.818 190.531L560.815 190.272L561.053 190.161L636.991 154.557L637.187 154.464L637.375 154.574L683.144 181.918L682.727 182.615Z" fill="#231F20"/>
<path d="M730.536 486.908L730.522 211.137L709.514 198.587L709.906 197.933L731.097 210.593L731.282 210.704V210.919L731.298 486.908H730.536Z" fill="#231F20"/>
<path d="M637.56 154.921H636.743V367.208H637.56V154.921Z" fill="#231F20"/>
<path d="M556.69 405.568H555.926V469.407H556.69V405.568Z" fill="#231F20"/>
<path d="M408.842 439.871H408.188V463.25H408.842V439.871Z" fill="#231F20"/>
<path d="M421.294 463.959L402.884 464.83H402.859L390.272 464.474H389.954V441.368L390.247 441.34L408.486 439.554H408.541L421.303 440.469L421.606 440.491V463.953L421.297 463.967L421.294 463.959ZM402.862 464.179L420.952 463.325V441.092L408.527 440.202L390.614 441.958V463.835L402.862 464.179Z" fill="#231F20"/>
<path d="M390.266 463.824L408.5 462.925H408.525L421.286 463.311L421.269 463.962L408.522 463.576L390.299 464.474L390.266 463.824Z" fill="#231F20"/>
<path d="M528.084 469.812L556.301 469.021H556.32L576.592 469.575L576.572 470.336L556.312 469.782L528.106 470.57L528.084 469.812Z" fill="#231F20"/>
<path d="M528.473 469.82L548.231 470.325L576.2 469.586V408.488L556.307 405.949L528.473 409.558V469.82ZM548.222 471.086L528.084 470.57H527.714V470.201V409.235V408.902L528.045 408.857L556.26 405.202H556.356L576.63 407.785L576.961 407.829V470.317H576.592L548.245 471.066L548.222 471.086Z" fill="#231F20"/>
<path d="M159.699 486.908V351.479L106.577 344.495V486.908H106.031V344.186V343.878L106.34 343.916L160.008 350.971L160.246 351.002V351.239V486.908H159.699Z" fill="#231F20"/>
<path d="M94.8156 326.561H94.269V486.911H94.8156V326.561Z" fill="#231F20"/>
<path d="M83.6502 486.908V336.825V336.712L83.733 336.632L94.3518 326.365L94.4512 326.271L94.5809 326.291L171.563 337.531L171.798 337.564V337.798V486.908H171.251V338.036L94.6334 326.848L84.1969 336.941V486.908H83.6502Z" fill="#231F20"/>
<path d="M160.105 351.476L148.677 358.17L148.506 358.206L106.271 353.048L106.337 352.507L148.481 357.654L159.831 351.007L160.105 351.476Z" fill="#231F20"/>
<path d="M148.812 357.927H148.266V486.911H148.812V357.927Z" fill="#231F20"/>
<path d="M813.52 153.278V123.318L813.689 123.249L821.436 120.067L821.812 119.913V120.318L821.723 150.392V150.582L821.549 150.648L813.887 153.537L813.52 153.675V153.281V153.278ZM814.072 123.682V152.887L821.185 150.204L821.273 120.724L814.072 123.682Z" fill="#231F20"/>
<path d="M682.39 486.908V96.1806V95.8525L682.685 95.6981L772.362 49.2399L772.721 49.0552L773.003 49.3474L785.372 62.2088L785.527 62.5865V486.908H784.436V62.8043L772.5 50.3923L683.481 96.5114V486.908H682.39Z" fill="#231F20"/>
<path d="M773.157 49.7224H772.067V486.908H773.157V49.7224Z" fill="#231F20"/>
<path d="M695.844 486.908V127.084V126.742L696.162 126.593L758.679 97.289L759.455 96.925V97.7797V486.908H758.364V98.6371L696.938 127.429V486.908H695.844Z" fill="#231F20"/>
<path d="M709.489 136.234L758.687 114.176L759.132 115.165L709.931 137.227L709.489 136.234Z" fill="#231F20"/>
<path d="M696.709 126.637L710.03 136.289L710.254 136.455V136.731V486.908H709.163V137.006L696.071 127.517L696.709 126.637Z" fill="#231F20"/>
<path fill-rule="evenodd" clip-rule="evenodd" d="M139.665 474.005L139.701 474.62L141.874 474.491L141.835 473.876L139.665 474.005ZM134.759 474.298L134.795 474.912L136.968 474.786L136.929 474.168L134.759 474.298ZM124.946 474.882L124.982 475.5L127.155 475.37L127.116 474.752L124.946 474.882ZM115.134 475.469L115.17 476.084L117.342 475.957L117.304 475.337L115.134 475.469ZM517.448 451.45L517.487 452.065L519.66 451.936L519.621 451.321L517.448 451.45ZM507.639 452.035L507.675 452.652L509.847 452.523L509.809 451.905L507.639 452.035ZM75.8807 477.813L75.9194 478.43L78.0895 478.298L78.0537 477.68L75.8807 477.813ZM497.826 452.622L497.862 453.24L500.032 453.11L499.996 452.493L497.826 452.622ZM61.1619 478.692L61.2006 479.307L63.3707 479.177L63.3348 478.56L61.1619 478.692ZM483.104 453.499L483.143 454.116L485.313 453.987L485.277 453.369L483.104 453.499ZM41.5396 479.861L41.5755 480.479L43.7484 480.349L43.7097 479.734L41.5396 479.861ZM463.482 454.673L463.518 455.288L465.688 455.159L465.652 454.544L463.482 454.673ZM443.854 455.845L443.893 456.46L446.063 456.33L446.027 455.715L443.854 455.845ZM424.232 457.014L424.268 457.632L426.438 457.502L426.402 456.884L424.232 457.014ZM326.106 462.873L326.142 463.49L328.315 463.361L328.276 462.743L326.106 462.873ZM129.853 474.59L129.888 475.207L132.061 475.078L132.023 474.46L129.853 474.59ZM120.04 475.174L120.076 475.792L122.249 475.662L122.21 475.045L120.04 475.174ZM110.227 475.762L110.263 476.376L112.436 476.25L112.398 475.632L110.227 475.762ZM522.355 451.155L522.393 451.773L524.563 451.643L524.528 451.029L522.355 451.155ZM512.542 451.743L512.581 452.36L514.751 452.228L514.715 451.613L512.542 451.743ZM80.7899 477.518L80.8257 478.135L82.9986 478.006L82.9599 477.388L80.7899 477.518ZM502.73 452.33L502.768 452.945L504.938 452.815L504.902 452.198L502.73 452.33ZM70.9745 478.105L71.0131 478.723L73.1861 478.59L73.1474 477.975L70.9745 478.105ZM492.917 452.914L492.953 453.532L495.126 453.402L495.09 452.785L492.917 452.914ZM51.3522 479.277L51.388 479.891L53.561 479.762L53.5223 479.147L51.3522 479.277ZM473.292 454.086L473.331 454.704L475.501 454.571L475.465 453.956L473.292 454.086ZM453.667 455.258L453.705 455.875L455.878 455.746L455.84 455.128L453.667 455.258ZM434.044 456.429L434.08 457.047L436.253 456.915L436.215 456.3L434.044 456.429ZM355.544 461.116L355.58 461.734L357.753 461.602L357.714 460.987L355.544 461.116ZM316.294 463.46L316.33 464.075L318.503 463.945L318.464 463.33L316.294 463.46ZM306.481 464.047L306.517 464.662L308.69 464.532L308.651 463.915L306.481 464.047ZM296.666 464.632L296.705 465.246L298.877 465.117L298.839 464.502L296.666 464.632ZM286.853 465.216L286.892 465.834L289.062 465.704L289.026 465.086L286.853 465.216ZM277.044 465.803L277.08 466.418L279.252 466.288L279.214 465.674L277.044 465.803ZM267.231 466.388L267.267 467.005L269.437 466.876L269.401 466.258L267.231 466.388ZM257.419 466.975L257.454 467.59L259.627 467.46L259.589 466.843L257.419 466.975ZM247.606 467.559L247.642 468.177L249.812 468.047L249.776 467.43L247.606 467.559ZM237.793 468.144L237.829 468.762L240.002 468.632L239.964 468.017L237.793 468.144ZM66.06 478.397L66.0985 479.015L68.2687 478.885L68.2327 478.268L66.06 478.397ZM488.003 453.207L488.041 453.824L490.211 453.695L490.175 453.077L488.003 453.207ZM56.2474 478.984L56.2861 479.599L58.4589 479.47L58.4203 478.855L56.2474 478.984ZM478.19 453.791L478.229 454.409L480.399 454.279L480.363 453.664L478.19 453.791ZM46.4375 479.569L46.4735 480.187L48.6436 480.057L48.6078 479.439L46.4375 479.569ZM468.377 454.378L468.416 454.996L470.586 454.866L470.55 454.249L468.377 454.378ZM37.9917 480.073V480.694L38.8337 480.641L38.7952 480.027L37.9917 480.073ZM458.565 454.966L458.603 455.58L460.774 455.454L460.738 454.836L458.565 454.966ZM448.755 455.55L448.791 456.168L450.961 456.038L450.925 455.42L448.755 455.55ZM438.943 456.135L438.978 456.752L441.148 456.623L441.113 456.005L438.943 456.135ZM429.13 456.722L429.166 457.339L431.336 457.21L431.3 456.592L429.13 456.722ZM360.442 460.821L360.478 461.439L362.651 461.309L362.612 460.695L360.442 460.821ZM350.629 461.409L350.665 462.026L352.838 461.897L352.8 461.279L350.629 461.409ZM331.004 462.58L331.04 463.195L333.213 463.066L333.175 462.451L331.004 462.58ZM321.192 463.168L321.228 463.782L323.401 463.653L323.362 463.038L321.192 463.168ZM311.379 463.752L311.415 464.37L313.588 464.24L313.552 463.622L311.379 463.752ZM301.564 464.337L301.603 464.954L303.773 464.825L303.737 464.207L301.564 464.337ZM291.754 464.924L291.79 465.539L293.96 465.409L293.924 464.794L291.754 464.924ZM281.939 465.508L281.977 466.126L284.148 465.996L284.112 465.381L281.939 465.508ZM272.126 466.095L272.165 466.713L274.338 466.583L274.299 465.966L272.126 466.095ZM262.316 466.683L262.352 467.298L264.525 467.168L264.487 466.55L262.316 466.683ZM252.501 467.267L252.54 467.882L254.713 467.755L254.674 467.138L252.501 467.267ZM242.691 467.852L242.727 468.469L244.9 468.34L244.862 467.722L242.691 467.852ZM232.879 468.439L232.915 469.054L235.088 468.927L235.049 468.309L232.879 468.439ZM198.532 470.487L198.571 471.108L200.741 470.975L200.705 470.361L198.532 470.487ZM193.626 470.782L193.665 471.397L195.835 471.268L195.799 470.653L193.626 470.782ZM188.72 471.075L188.758 471.692L190.928 471.563L190.892 470.945L188.72 471.075ZM183.813 471.367L183.849 471.984L186.022 471.855L185.986 471.237L183.813 471.367ZM178.907 471.662L178.943 472.277L181.116 472.147L181.077 471.532L178.907 471.662ZM174.001 471.954L174.037 472.572L176.21 472.442L176.174 471.825L174.001 471.954ZM144.563 473.71L144.599 474.328L146.772 474.198L146.733 473.581L144.563 473.71ZM754.742 437.282L754.78 437.9L756.95 437.767L756.914 437.153L754.742 437.282ZM744.929 437.867L744.965 438.484L747.138 438.355L747.102 437.737L744.929 437.867ZM735.116 438.454L735.152 439.069L737.325 438.939L737.289 438.324L735.116 438.454ZM725.304 439.041L725.34 439.656L727.513 439.526L727.477 438.909L725.304 439.041ZM715.491 439.626L715.527 440.24L717.7 440.114L717.664 439.496L715.491 439.626ZM661.522 442.846L661.561 443.463L663.731 443.334L663.695 442.716L661.522 442.846ZM641.897 444.018L641.933 444.635L644.106 444.505L644.07 443.888L641.897 444.018ZM622.272 445.189L622.308 445.807L624.481 445.677L624.442 445.06L622.272 445.189ZM602.647 446.361L602.686 446.979L604.856 446.849L604.82 446.231L602.647 446.361ZM583.022 447.533L583.061 448.15L585.231 448.021L585.195 447.403L583.022 447.533ZM749.835 437.574L749.871 438.192L752.044 438.06L752.008 437.445L749.835 437.574ZM740.023 438.159L740.059 438.777L742.232 438.647L742.193 438.029L740.023 438.159ZM730.21 438.746L730.246 439.364L732.419 439.234L732.383 438.617L730.21 438.746ZM720.398 439.333L720.436 439.948L722.606 439.819L722.571 439.204L720.398 439.333ZM710.585 439.918L710.621 440.535L712.794 440.403L712.755 439.788L710.585 439.918ZM671.335 442.261L671.371 442.879L673.544 442.749L673.508 442.132L671.335 442.261ZM651.71 443.433L651.746 444.048L653.918 443.918L653.905 443.298L651.71 443.433ZM632.085 444.605L632.121 445.222L634.294 445.093L634.258 444.475L632.085 444.605ZM612.49 445.779L612.529 446.394L614.699 446.264L614.663 445.65L612.49 445.779ZM592.865 446.951L592.901 447.569L595.074 447.439L595.038 446.821L592.865 446.951ZM676.269 441.969L676.307 442.584L678.478 442.454L678.442 441.839L676.269 441.969ZM666.456 442.554L666.492 443.171L668.665 443.042L668.629 442.424L666.456 442.554ZM656.644 443.141L656.679 443.756L658.852 443.626L658.817 443.011L656.644 443.141ZM646.831 443.725L646.87 444.343L649.04 444.213L649.001 443.596L646.831 443.725ZM637.018 444.313L637.057 444.927L639.227 444.798L639.191 444.183L637.018 444.313ZM627.206 444.897L627.242 445.515L629.415 445.385L629.379 444.767L627.206 444.897ZM617.393 445.484L617.429 446.102L619.602 445.969L619.566 445.355L617.393 445.484ZM607.581 446.069L607.62 446.686L609.79 446.557L609.754 445.939L607.581 446.069ZM597.768 446.653L597.807 447.271L599.977 447.141L599.941 446.526L597.768 446.653ZM587.956 447.24L587.992 447.858L590.165 447.728L590.129 447.111L587.956 447.24ZM578.143 447.828L578.179 448.442L580.352 448.313L580.316 447.698L578.143 447.828ZM840.349 432.173L838.179 432.303L838.214 432.921L840.387 432.788L840.349 432.173ZM833.272 432.595L833.308 433.21L835.481 433.081L835.442 432.466L833.272 432.595ZM828.363 432.888L828.402 433.505L830.575 433.373L830.536 432.758L828.363 432.888ZM823.457 433.183L823.496 433.797L825.669 433.668L825.63 433.053L823.457 433.183ZM818.551 433.475L818.587 434.09L820.76 433.96L820.724 433.345L818.551 433.475ZM813.644 433.767L813.683 434.385L815.856 434.255L815.817 433.637L813.644 433.767ZM808.738 434.059L808.777 434.677L810.947 434.547L810.911 433.93L808.738 434.059ZM803.832 434.352L803.871 434.969L806.041 434.84L806.005 434.222L803.832 434.352ZM798.926 434.647L798.961 435.261L801.134 435.132L801.099 434.517L798.926 434.647ZM794.019 434.939L794.055 435.554L796.228 435.424L796.192 434.809L794.019 434.939ZM789.113 435.231L789.152 435.849L791.325 435.719L791.286 435.101L789.113 435.231Z" fill="#231F20"/>
<path fill-rule="evenodd" clip-rule="evenodd" d="M433.517 376.027V377.637H434.13V376.027H433.517ZM433.517 388.566H434.13V386.953H433.512L433.517 388.566ZM433.517 403.137H434.13V401.524H433.512L433.517 403.137ZM433.517 417.705H434.13V416.092H433.512L433.517 417.705ZM433.517 432.275H434.13V430.663H433.512L433.517 432.275ZM433.517 446.843H434.13V445.228H433.512L433.517 446.843ZM433.517 461.411H434.13V459.801H433.512L433.517 461.411ZM433.517 475.985H434.13V474.372H433.512L433.517 475.985ZM433.517 381.279H434.13V379.669H433.512L433.517 381.279ZM433.517 395.85H434.13V394.223H433.512L433.517 395.85ZM433.517 410.418H434.13V408.808H433.512L433.517 410.418ZM433.517 424.991H434.13V423.376H433.512L433.517 424.991ZM433.517 439.559H434.13V437.947H433.512L433.517 439.559ZM433.517 454.13H434.13V452.517H433.512L433.517 454.13ZM433.517 468.698H434.13V467.085H433.512L433.517 468.698ZM433.517 483.269H434.13V481.656H433.512L433.517 483.269ZM433.517 384.924H434.13V383.311H433.512L433.517 384.924ZM433.517 392.208H434.13V390.595H433.512L433.517 392.208ZM433.517 399.492H434.13V397.882H433.512L433.517 399.492ZM433.517 406.779H434.13V405.166H433.512L433.517 406.779ZM433.517 414.063H434.13V412.45H433.512L433.517 414.063ZM433.517 421.347H434.13V419.734H433.512L433.517 421.347ZM433.517 428.631H434.13V427.032H433.512L433.517 428.631ZM433.517 435.917H434.13V434.304H433.512L433.517 435.917ZM433.517 443.201H434.13V441.589H433.512L433.517 443.201ZM433.517 450.485H434.13V448.875H433.512L433.517 450.485ZM433.517 457.772H434.13V456.159H433.512L433.517 457.772ZM433.517 465.056H434.13V463.443H433.512L433.517 465.056ZM433.517 472.34H434.13V470.727H433.512L433.517 472.34ZM433.517 479.627H434.13V478.014H433.512L433.517 479.627ZM433.517 486.911H434.13V485.298H433.512L433.517 486.911Z" fill="#231F20"/>
<path fill-rule="evenodd" clip-rule="evenodd" d="M416.562 261.363L411.076 263.897V258.163L416.562 255.56V261.363Z" fill="#231F20"/>
<path fill-rule="evenodd" clip-rule="evenodd" d="M522.854 275.868H523.473V273.696H522.854V275.868ZM522.854 280.776H523.473V278.603H522.854V280.776ZM522.854 290.591H523.473V288.418H522.854V290.591ZM522.854 300.405H523.473V298.236H522.854V300.405ZM522.854 310.223H523.473V308.051H522.854V310.223ZM522.854 320.038H523.473V317.854H522.854V320.038ZM522.854 329.856H523.473V327.683H522.854V329.856ZM522.854 339.671H523.473V337.498H522.854V339.671ZM522.854 354.396H523.473V352.223H522.854V354.396ZM522.854 374.026H523.473V371.853H522.854V374.026ZM522.854 393.658H523.473V391.486H522.854V393.658ZM522.854 413.291H523.473V411.118H522.854V413.291ZM522.854 432.921H523.473V430.748H522.854V432.921ZM522.854 10.8239H523.473V8.65142H522.854V10.8239ZM522.854 452.539H523.473V450.367H522.854V452.539ZM522.854 30.4428H523.473V28.2702H522.854V30.4428ZM522.854 472.161H523.473V469.989H522.854V472.161ZM522.854 50.0643H523.473V47.8918H522.854V50.0643ZM522.854 69.6942H523.473V67.5217H522.854V69.6942ZM522.854 89.3268H523.473V87.1542H522.854V89.3268ZM522.854 285.647H523.473V283.475H522.854V285.647ZM522.854 295.465H523.473V293.317H522.854V295.465ZM522.854 305.28H523.473V303.107H522.854V305.28ZM522.854 315.095H523.473V312.922H522.854V315.095ZM522.854 324.912H523.473V322.737H522.854V324.912ZM522.854 334.727H523.473V332.555H522.854V334.727ZM522.854 344.545H523.473V342.37H522.854V344.545ZM522.854 364.175H523.473V362.002H522.854V364.175ZM522.854 383.805H523.473V381.632H522.854V383.805ZM522.854 403.437H523.473V401.265H522.854V403.437ZM522.854 423.07H523.473V420.897H522.854V423.07ZM522.854 -0.0358887V0.984205H523.473V-0.0358887H522.854ZM522.854 442.7H523.473V440.527H522.854V442.7ZM522.854 20.6168H523.473V18.4443H522.854V20.6168ZM522.854 462.332H523.473V460.16H522.854V462.332ZM522.854 40.2494H523.473V38.0769H522.854V40.2494ZM522.854 481.965H523.473V479.792H522.854V481.965ZM522.854 59.8682H523.473V57.6957H522.854V59.8682ZM522.854 79.5008H523.473V77.3283H522.854V79.5008ZM522.854 99.1307H523.473V97.0188H522.854V99.1307ZM522.854 108.948H523.473V106.776H522.854V108.948ZM522.854 118.763H523.473V116.591H522.854V118.763ZM522.854 128.581H523.473V126.408H522.854V128.581ZM522.854 138.396H523.473V136.223H522.854V138.396ZM522.854 148.211H523.473V146.093H522.854V148.211ZM522.854 158.028H523.473V155.856H522.854V158.028ZM522.854 167.843H523.473V165.671H522.854V167.843ZM522.854 177.658H523.473V175.486H522.854V177.658ZM522.854 187.476H523.473V185.303H522.854V187.476ZM522.854 349.441H523.473V347.269H522.854V349.441ZM522.854 359.256H523.473V357.084H522.854V359.256ZM522.854 369.071H523.473V366.899H522.854V369.071ZM522.854 378.886H523.473V376.714H522.854V378.886ZM522.854 388.704H523.473V386.531H522.854V388.704ZM522.854 398.519H523.473V396.346H522.854V398.519ZM522.854 408.334H523.473V406.161H522.854V408.334ZM522.854 418.151H523.473V415.979H522.854V418.151ZM522.854 427.966H523.473V425.794H522.854V427.966ZM522.854 5.8834H523.473V3.70812H522.854V5.8834ZM522.854 437.781H523.473V435.612H522.854V437.781ZM522.854 15.6983H523.473V13.5258H522.854V15.6983ZM522.854 447.599H523.473V445.426H522.854V447.599ZM522.854 25.5022H523.473V23.3297H522.854V25.5022ZM522.854 457.403H523.473V455.23H522.854V457.403ZM522.854 35.3061H523.473V33.1336H522.854V35.3061ZM522.854 467.209H523.473V465.034H522.854V467.209ZM522.854 45.1127H523.473V42.9402H522.854V45.1127ZM522.854 477.013H523.473V474.838H522.854V477.013ZM522.854 54.9166H523.473V52.7441H522.854V54.9166ZM522.854 486.817H523.473V484.645H522.854V486.817ZM522.854 64.7205H523.473V62.548H522.854V64.7205ZM522.854 74.5382H523.473V72.4815H522.854V74.5382ZM522.854 84.3531H523.473V82.1806H522.854V84.3531ZM522.854 94.1681H523.473V91.9955H522.854V94.1681ZM522.854 103.986H523.473V101.813H522.854V103.986ZM522.854 113.801H523.473V111.628H522.854V113.801ZM522.854 123.618H523.473V121.556H522.854V123.618ZM522.854 133.433H523.473V131.261H522.854V133.433ZM522.854 143.248H523.473V141.076H522.854V143.248ZM522.854 153.063H523.473V150.891H522.854V153.063ZM522.854 162.881H523.473V160.708H522.854V162.881ZM522.854 172.696H523.473V170.631H522.854V172.696ZM522.854 182.511H523.473V180.341H522.854V182.511ZM522.854 192.328H523.473V190.156H522.854V192.328ZM522.854 197.236H523.473V195.168H522.854V197.236ZM522.854 202.143H523.473V199.971H522.854V202.143ZM522.854 207.051H523.473V204.881H522.854V207.051ZM522.854 211.961H523.473V209.788H522.854V211.961ZM522.854 216.868H523.473V214.696H522.854V216.868ZM522.854 221.776H523.473V219.705H522.854V221.776ZM522.854 226.686H523.473V224.511H522.854V226.686ZM522.854 231.593H523.473V229.421H522.854V231.593ZM522.854 236.501H523.473V234.328H522.854V236.501ZM522.854 241.408H523.473V239.236H522.854V241.408ZM522.854 246.319H523.473V244.243H522.854V246.319ZM522.854 251.226H523.473V249.054H522.854V251.226ZM522.854 256.134H523.473V253.961H522.854V256.134ZM522.854 261.041H523.473V258.868H522.854V261.041ZM522.854 265.948H523.473V263.776H522.854V265.948ZM522.854 270.859H523.473V268.78H522.854V270.859Z" fill="#231F20"/>
<path fill-rule="evenodd" clip-rule="evenodd" d="M617.244 275.868H617.863V273.695H617.244V275.868ZM617.244 280.775H617.863V278.603H617.244V280.775ZM617.244 290.59H617.863V288.418H617.244V290.59ZM617.244 300.405H617.863V298.235H617.244V300.405ZM617.244 310.223H617.863V308.05H617.244V310.223ZM617.244 320.038H617.863V317.854H617.244V320.038ZM617.244 329.856H617.863V327.683H617.244V329.856ZM617.244 339.67H617.863V337.498H617.244V339.67ZM617.244 354.396H617.863V352.223H617.244V354.396ZM617.244 374.025H617.863V371.853H617.244V374.025ZM617.244 393.658H617.863V391.486H617.244V393.658ZM617.244 413.291H617.863V411.118H617.244V413.291ZM617.244 432.921H617.863V430.748H617.244V432.921ZM617.244 452.553H617.863V450.381H617.244V452.553ZM617.244 472.186H617.863V470.013H617.244V472.186ZM617.244 285.683H617.863V283.51H617.244V285.683ZM617.244 295.501H617.863V293.317H617.244V295.501ZM617.244 305.315H617.863V303.143H617.244V305.315ZM617.244 315.13H617.863V312.958H617.244V315.13ZM617.244 324.948H617.863V322.773H617.244V324.948ZM617.244 334.763H617.863V332.59H617.244V334.763ZM617.244 344.581H617.863V342.405H617.244V344.581ZM617.244 364.21H617.863V362.038H617.244V364.21ZM617.244 383.84H617.863V381.668H617.244V383.84ZM617.244 403.473H617.863V401.3H617.244V403.473ZM617.244 423.106H617.863V420.933H617.244V423.106ZM617.244 442.735H617.863V440.563H617.244V442.735ZM617.244 462.368H617.863V460.196H617.244V462.368ZM617.244 482.001H617.863V479.828H617.244V482.001ZM617.244 349.488H617.863V347.316H617.244V349.488ZM617.244 359.303H617.863V357.131H617.244V359.303ZM617.244 369.118H617.863V366.945H617.244V369.118ZM617.244 378.933H617.863V376.76H617.244V378.933ZM617.244 388.751H617.863V386.578H617.244V388.751ZM617.244 398.566H617.863V396.393H617.244V398.566ZM617.244 408.38H617.863V406.208H617.244V408.38ZM617.244 418.198H617.863V416.026H617.244V418.198ZM617.244 428.013H617.863V425.84H617.244V428.013ZM617.244 437.828H617.863V435.658H617.244V437.828ZM617.244 447.646H617.863V445.473H617.244V447.646ZM617.244 457.461H617.863V455.288H617.244V457.461ZM617.244 467.278H617.863V465.103H617.244V467.278ZM617.244 477.093H617.863V474.918H617.244V477.093ZM617.244 486.908H617.863V484.736H617.244V486.908ZM617.244 219.705V221.878H617.863V219.705H617.244ZM617.244 226.788H617.863V224.613H617.244V226.788ZM617.244 231.695H617.863V229.523H617.244V231.695ZM617.244 236.603H617.863V234.43H617.244V236.603ZM617.244 241.51H617.863V239.338H617.244V241.51ZM617.244 246.42H617.863V244.242H617.244V246.42ZM617.244 251.328H617.863V249.155H617.244V251.328ZM617.244 256.235H617.863V254.063H617.244V256.235ZM617.244 261.143H617.863V258.97H617.244V261.143ZM617.244 266.05H617.863V263.878H617.244V266.05ZM617.244 270.96H617.863V268.78H617.244V270.96Z" fill="#231F20"/>
<path fill-rule="evenodd" clip-rule="evenodd" d="M740.912 276.061H741.53V273.891H740.912V276.061ZM740.912 280.966H741.53V278.796H740.912V280.966ZM740.912 290.773H741.53V288.603H740.912V290.773ZM740.912 300.579H741.53V298.409H740.912V300.579ZM740.912 310.386H741.53V308.205H740.912V310.386ZM740.912 320.192H741.53V318.023H740.912V320.192ZM740.912 329.999H741.53V327.829H740.912V329.999ZM740.912 339.806H741.53V337.636H740.912V339.806ZM740.912 354.517H741.53V352.347H740.912V354.517ZM740.912 374.13H741.53V371.961H740.912V374.13ZM740.912 393.744H741.53V391.574H740.912V393.744ZM740.912 413.357H741.53V411.187H740.912V413.357ZM740.912 432.97H741.53V430.801H740.912V432.97ZM740.912 452.584H741.53V450.414H740.912V452.584ZM740.912 472.197H741.53V470.041H740.912V472.197ZM740.912 285.868H741.53V283.698H740.912V285.868ZM740.912 295.674H741.53V293.505H740.912V295.674ZM740.912 305.484H741.53V303.311H740.912V305.484ZM740.912 315.291H741.53V313.118H740.912V315.291ZM740.912 325.097H741.53V322.925H740.912V325.097ZM740.912 334.904H741.53V332.742H740.912V334.904ZM740.912 344.71H741.53V342.541H740.912V344.71ZM740.912 364.324H741.53V362.154H740.912V364.324ZM740.912 383.937H741.53V381.767H740.912V383.937ZM740.912 403.55H741.53V401.392H740.912V403.55ZM740.912 423.164H741.53V420.994H740.912V423.164ZM740.912 442.777H741.53V440.607H740.912V442.777ZM740.912 462.39H741.53V460.22H740.912V462.39ZM740.912 482.006H741.53V479.834H740.912V482.006ZM740.912 146.399V148.575H741.53V146.402L740.912 146.399ZM740.912 158.379H741.53V156.206H740.912V158.379ZM740.912 168.185H741.53V166.013H740.912V168.185ZM740.912 177.992H741.53V175.819H740.912V177.992ZM740.912 187.799H741.53V185.629H740.912V187.799ZM740.912 349.615H741.53V347.443H740.912V349.615ZM740.912 359.422H741.53V357.249H740.912V359.422ZM740.912 369.229H741.53V367.056H740.912V369.229ZM740.912 379.035H741.53V376.854H740.912V379.035ZM740.912 388.842H741.53V386.669H740.912V388.842ZM740.912 398.648H741.53V396.476H740.912V398.648ZM740.912 408.455H741.53V406.285H740.912V408.455ZM740.912 418.262H741.53V416.089H740.912V418.262ZM740.912 428.068H741.53V425.896H740.912V428.068ZM740.912 437.875H741.53V435.705H740.912V437.875ZM740.912 447.682H741.53V445.504H740.912V447.682ZM740.912 457.488H741.53V455.316H740.912V457.488ZM740.912 467.295H741.53V465.125H740.912V467.295ZM740.912 477.102H741.53V474.932H740.912V477.102ZM740.912 486.908H741.53V484.736H740.912V486.908ZM740.912 153.474H741.53V151.304H740.912V153.474ZM740.912 163.281H741.53V161.111H740.912V163.281ZM740.912 173.087H741.53V170.906H740.912V173.087ZM740.912 182.894H741.53V180.724H740.912V182.894ZM740.912 192.701H741.53V190.531H740.912V192.701ZM740.912 197.605H741.53V195.444H740.912V197.605ZM740.912 202.51H741.53V200.337H740.912V202.51ZM740.912 207.412H741.53V205.242H740.912V207.412ZM740.912 212.317H741.53V210.144H740.912V212.317ZM740.912 217.218H741.53V215.049H740.912V217.218ZM740.912 222.123H741.53V219.953H740.912V222.123ZM740.912 227.028H741.53V224.855H740.912V227.028ZM740.912 231.93H741.53V229.76H740.912V231.93ZM740.912 236.835H741.53V234.662H740.912V236.835ZM740.912 241.739H741.53V239.556H740.912V241.739ZM740.912 246.641H741.53V244.471H740.912V246.641ZM740.912 251.546H741.53V249.373H740.912V251.546ZM740.912 256.448H741.53V254.278H740.912V256.448ZM740.912 261.353H741.53V259.18H740.912V261.353ZM740.912 266.254H741.53V264.093H740.912V266.254ZM740.912 271.159H741.53V268.989H740.912V271.159Z" fill="#231F20"/>
<path fill-rule="evenodd" clip-rule="evenodd" d="M768.331 233.611L770.198 234.714L770.518 234.185L768.649 233.082L768.331 233.611ZM759.888 228.583L761.757 229.685L762.075 229.156L760.206 228.053L759.888 228.583ZM776.774 238.643L778.641 239.746L778.958 239.216L777.089 238.114L776.774 238.643ZM764.11 231.1L765.979 232.203L766.296 231.673L764.427 230.57L764.11 231.1ZM772.553 236.129L774.422 237.231L774.737 236.702L772.87 235.599L772.553 236.129ZM781.311 240.625L780.993 241.157L782.862 242.26L783.177 241.728L781.311 240.625Z" fill="#231F20"/>
<path fill-rule="evenodd" clip-rule="evenodd" d="M692.879 188.551L694.745 189.654L695.063 189.125L693.194 188.022L692.879 188.551ZM684.436 183.52L686.305 184.622L686.623 184.093L684.753 182.99L684.436 183.52ZM701.319 193.58L703.188 194.683L703.506 194.153L701.637 193.051L701.319 193.58ZM688.657 186.037L690.524 187.14L690.841 186.61L688.975 185.507L688.657 186.037ZM697.101 191.063L698.967 192.166L699.284 191.636L697.415 190.533L697.101 191.063ZM705.858 195.562L705.541 196.094L707.407 197.197L707.725 196.668L705.858 195.562Z" fill="#231F20"/>
<path fill-rule="evenodd" clip-rule="evenodd" d="M632.833 165.971L633.09 166.523L635.069 165.621L634.812 165.07L632.833 165.971ZM614.944 174.116L615.201 174.667L617.181 173.765L616.924 173.214L614.944 174.116ZM597.056 182.262L597.313 182.814L599.292 181.915L599.036 181.364L597.056 182.262ZM579.168 190.407L579.424 190.958L581.404 190.056L581.147 189.505L579.168 190.407ZM643.755 160.998L641.776 161.899L642.032 162.451L644.012 161.546L643.755 160.998ZM623.876 170.043L624.133 170.595L626.113 169.693L625.856 169.142L623.876 170.043ZM605.99 178.188L606.247 178.739L608.224 177.838L607.967 177.286L605.99 178.188ZM588.11 186.346L588.367 186.897L590.347 185.995L590.093 185.444L588.11 186.346ZM570.225 194.49L570.481 195.041L572.461 194.14L572.202 193.588L570.225 194.49ZM637.303 163.945L637.56 164.496L639.539 163.595L639.283 163.043L637.303 163.945ZM628.36 168.017L628.617 168.568L630.596 167.667L630.34 167.116L628.36 168.017ZM619.417 172.092L619.671 172.643L621.654 171.742L621.397 171.19L619.417 172.092ZM610.472 176.164L610.728 176.715L612.708 175.814L612.451 175.262L610.472 176.164ZM601.529 180.236L601.786 180.787L603.765 179.886L603.508 179.335L601.529 180.236ZM592.583 184.308L592.84 184.86L594.82 183.958L594.566 183.407L592.583 184.308ZM583.64 188.38L583.897 188.932L585.877 188.03L585.62 187.479L583.64 188.38ZM574.695 192.455L574.951 193.007L576.931 192.105L576.674 191.554L574.695 192.455Z" fill="#231F20"/>
<path fill-rule="evenodd" clip-rule="evenodd" d="M636.831 36.453V37.8067H637.449V36.657L638.603 37.5916L638.987 37.1202L637.449 35.8713V35.6287H636.831V35.7224L635.047 36.8583L635.379 37.3793L636.831 36.453ZM628.923 41.4873L628.592 40.9662L626.759 42.1352L627.09 42.6562L628.923 41.4873ZM620.64 46.7642L620.309 46.2459L618.476 47.4121L618.807 47.9332L620.64 46.7642ZM612.357 52.0411L612.026 51.52L610.19 52.689L610.524 53.21L612.357 52.0411ZM604.074 57.318L603.743 56.7969L601.907 57.9659L602.241 58.4869L604.074 57.318ZM593.619 63.2428L593.95 63.7638L595.786 62.5949L595.452 62.0766L593.619 63.2428ZM583.003 70.0002L581.169 71.1664L581.501 71.6874L583.337 70.5212L583.003 70.0002ZM566.437 80.5512L564.603 81.7202L564.937 82.2412L566.768 81.0723L566.437 80.5512ZM633.07 38.8461L632.736 38.325L630.9 39.494L631.234 40.015L633.07 38.8461ZM624.787 44.123L624.453 43.6019L622.62 44.7709L622.951 45.2919L624.787 44.123ZM616.504 49.3999L616.17 48.8788L614.334 50.0478L614.668 50.5688L616.504 49.3999ZM608.222 54.6768L607.89 54.1557L606.054 55.3247L606.388 55.8457L608.222 54.6768ZM597.766 60.6016L598.097 61.1226L599.933 59.9537L599.602 59.4326L597.766 60.6016ZM589.483 65.8785L589.814 66.3995L591.65 65.2305L591.319 64.7095L589.483 65.8785ZM574.739 75.2523L572.906 76.4185L573.237 76.9395L575.073 75.7706L574.739 75.2523ZM587.163 67.3369L585.33 68.5031L585.661 69.0242L587.497 67.8552L587.163 67.3369ZM578.88 72.6138L577.047 73.78L577.378 74.3011L579.215 73.1321L578.88 72.6138ZM570.597 77.8907L568.764 79.0569L569.096 79.578L570.932 78.409L570.597 77.8907ZM562.315 83.1676L560.481 84.3338L560.813 84.8549L562.646 83.6859L562.315 83.1676ZM658.712 137.635L658.974 138.186L660.907 137.265L660.644 136.714L658.712 137.635ZM649.998 141.798L650.274 142.349L652.207 141.426L651.945 140.874L649.998 141.798ZM641.282 145.964L641.558 146.515L643.49 145.592L643.214 145.04L641.282 145.964ZM628.208 152.214L628.484 152.765L630.417 151.844L630.155 151.293L628.208 152.214ZM610.781 160.543L611.057 161.094L612.99 160.173L612.727 159.622L610.781 160.543ZM593.351 168.874L593.627 169.426L595.56 168.502L595.297 167.951L593.351 168.874ZM654.355 139.716L654.617 140.268L656.55 139.344L656.288 138.793L654.355 139.716ZM645.622 143.888L645.884 144.439L647.817 143.518L647.555 142.967L645.622 143.888ZM636.905 148.054L637.168 148.605L639.1 147.681L638.841 147.13L636.905 148.054ZM619.475 156.385L619.738 156.937L621.67 156.016L621.408 155.464L619.475 156.385ZM602.048 164.714L602.31 165.266L604.243 164.345L603.967 163.793L602.048 164.714ZM632.549 150.135L632.811 150.687L634.744 149.763L634.481 149.212L632.549 150.135ZM623.81 154.312L624.072 154.863L626.005 153.94L625.743 153.388L623.81 154.312ZM615.094 158.478L615.356 159.029L617.289 158.106L617.026 157.554L615.094 158.478ZM606.391 162.635L606.653 163.187L608.586 162.263L608.31 161.712L606.391 162.635ZM597.677 166.801L597.937 167.353L599.87 166.429L599.607 165.878L597.677 166.801ZM589.358 170.777L587.542 169.826L587.266 170.377L589.162 171.37L589.234 171.518L591.167 170.598L590.905 170.046L589.358 170.777ZM628.415 120.649L626.483 121.655L626.759 122.207L628.692 121.198L628.415 120.649ZM615.35 127.478L613.418 128.487L613.694 129.039L615.626 128.032L615.35 127.478ZM597.934 136.576L596.001 137.582L596.277 138.134L598.21 137.125L597.934 136.576ZM578.591 146.692L578.867 147.243L580.799 146.234L580.523 145.683L578.591 146.692ZM563.101 154.792L561.508 155.619V154.499H560.89V156.68H561.136L563.068 157.687L563.358 157.135L561.638 156.236L563.4 155.315L563.101 154.792ZM632.77 118.361L630.837 119.367L631.113 119.918L633.046 118.909L632.77 118.361ZM624.059 122.935L622.126 123.944L622.402 124.495L624.335 123.486L624.059 122.935ZM606.642 132.033L604.709 133.042L604.986 133.593L606.918 132.584L606.642 132.033ZM587.591 142.694L589.524 141.688L589.248 141.136L587.315 142.145L587.591 142.694ZM569.888 151.241L570.164 151.792L572.097 150.783L571.821 150.232L569.888 151.241ZM619.71 125.187L617.777 126.196L618.053 126.747L619.986 125.741L619.71 125.187ZM611.002 129.742L609.069 130.751L609.345 131.302L611.278 130.293L611.002 129.742ZM602.294 134.296L600.361 135.302L600.637 135.854L602.57 134.845L602.294 134.296ZM593.585 138.848L591.653 139.857L591.929 140.408L593.862 139.402L593.585 138.848ZM582.947 144.439L583.223 144.991L585.156 143.984L584.88 143.433L582.947 144.439ZM574.237 148.991L574.513 149.542L576.445 148.533L576.169 147.982L574.237 148.991ZM565.528 153.537L565.804 154.089L567.737 153.08L567.461 152.528L565.528 153.537ZM561.508 100.327H560.89V102.511H561.508V100.327ZM561.508 120.034H560.89V122.215H561.508V120.034ZM561.508 139.744H560.89V141.925H561.508V139.744ZM561.508 90.4736H560.89V92.6544H561.508V90.4736ZM561.508 110.181H560.89V112.361H561.508V110.181ZM561.508 129.888H560.89V132.071H561.508V129.888ZM560.89 151.778H561.508V149.597H560.89V151.778ZM561.508 85.5469H560.89V87.7277H561.508V85.5469ZM561.508 95.4032H560.89V97.5812H561.508V95.4032ZM561.508 105.254H560.89V107.435H561.508V105.254ZM561.508 115.107H560.89V117.288H561.508V115.107ZM561.508 124.964H560.89V127.142H561.508V124.964ZM561.508 134.817H560.89V136.995H561.508V134.817ZM561.508 144.671H560.89V146.852H561.508V144.671ZM637.436 40.5444H636.817V42.7224H637.436V40.5444ZM637.436 60.2128H636.817V62.3909H637.436V60.2128ZM637.436 79.8812H636.817V82.0565H637.436V79.8812ZM637.436 99.5497H636.817V101.725H637.436V99.5497ZM637.436 50.3786H636.817V52.5566H637.436V50.3786ZM637.436 70.047H636.817V72.2223H637.436V70.047ZM637.436 89.7155H636.817V91.8907H637.436V89.7155ZM636.817 111.559H637.436V109.384H636.817V111.559ZM637.449 45.4629H636.831V47.6381H637.449V45.4629ZM637.449 55.2971H636.831V57.4724H637.449V55.2971ZM637.449 65.1313H636.831V67.3066H637.449V65.1313ZM637.449 74.9628H636.831V77.1408H637.449V74.9628ZM637.449 84.797H636.831V86.975H637.449V84.797ZM637.449 94.6312H636.831V96.8092H637.449V94.6312ZM637.449 104.465H636.831V106.643H637.449V104.465ZM664.662 80.5457H665.28V78.3401H664.673L664.662 80.5457ZM664.662 100.424H665.28V98.218H664.673L664.662 100.424ZM664.662 120.304H665.28V118.099H664.673L664.662 120.304ZM664.662 70.6067H665.28V68.4011H664.673L664.662 70.6067ZM664.662 90.4847H665.28V88.2791H664.673L664.662 90.4847ZM664.662 110.365H665.28V108.16H664.673L664.662 110.365ZM664.662 130.246H665.28V128.041H664.673L664.662 130.246ZM664.662 65.6358H665.28V63.4302H664.673L664.662 65.6358ZM664.662 75.561H665.28V73.3554H664.673L664.662 75.561ZM664.662 85.5028H665.28V83.2972H664.673L664.662 85.5028ZM664.662 95.428H665.28V93.2224H664.673L664.662 95.428ZM664.662 105.367H665.28V103.161H664.673L664.662 105.367ZM664.662 115.309H665.28V113.103H664.673L664.662 115.309ZM664.662 125.234H665.28V123.028H664.673L664.662 125.234ZM664.662 134.406L663.281 133.483L662.936 133.998L664.317 134.916L663.038 135.526L663.314 136.077L665.197 135.176H665.297V132.97H664.673L664.662 134.406ZM654.037 49.3227L652.381 47.9717L651.994 48.4459L653.651 49.7969L654.037 49.3227ZM646.514 43.2187L644.857 41.8678L644.473 42.3392L646.13 43.6901L646.514 43.2187ZM659.515 54.5499L661.172 55.9009L661.558 55.4267L659.902 54.0785L659.515 54.5499ZM642.75 40.1667L641.094 38.8158L640.707 39.2872L642.364 40.6381L642.75 40.1667ZM650.277 46.29L648.62 44.939L648.234 45.4105L649.89 46.7642L650.277 46.29ZM657.801 52.394L656.144 51.043L655.757 51.5172L657.414 52.8682L657.801 52.394ZM663.662 57.1498L663.276 57.6212L664.656 58.7461V60.676H665.275V58.5531L665.322 58.498L663.662 57.1498ZM647.229 122.841L645.42 121.636L645.075 122.149L646.886 123.356L647.229 122.841ZM638.708 117.906L639.053 117.393L637.449 116.326V114.313H636.831V116.268L635.194 117.123L635.47 117.674L637.079 116.831L638.708 117.906ZM655.404 128.291L653.596 127.087L653.25 127.599L655.062 128.804L655.404 128.291ZM643.137 120.103L641.329 118.898L640.983 119.411L642.795 120.619L643.137 120.103ZM651.315 125.554L649.504 124.346L649.161 124.859L650.97 126.066L651.315 125.554ZM659.49 131.002L657.679 129.797L657.337 130.31L659.145 131.514L659.49 131.002ZM574.189 163.534L576.122 164.543L576.398 163.992L574.466 162.985L574.189 163.534ZM565.481 158.98L567.414 159.989L567.69 159.437L565.758 158.431L565.481 158.98ZM582.898 168.078L584.83 169.087L585.106 168.535L583.174 167.529L582.898 168.078ZM569.835 161.246L571.768 162.255L572.044 161.703L570.111 160.697L569.835 161.246ZM578.544 165.8L580.476 166.809L580.752 166.258L578.82 165.249L578.544 165.8Z" fill="#231F20"/>
<path fill-rule="evenodd" clip-rule="evenodd" d="M731.373 174.614L733.176 175.833L733.521 175.323L731.721 174.102L731.373 174.614ZM747.643 185.642L749.443 186.861L749.791 186.351L747.991 185.132L747.643 185.642ZM723.239 169.1L725.039 170.319L725.387 169.809L723.587 168.59L723.239 169.1ZM739.509 180.128L741.309 181.35L741.657 180.837L739.857 179.618L739.509 180.128ZM727.306 171.857L729.106 173.079L729.454 172.566L727.654 171.347L727.306 171.857ZM735.442 177.371L737.243 178.59L737.588 178.08L735.787 176.861L735.442 177.371ZM743.576 182.885L745.376 184.104L745.724 183.591L743.924 182.373L743.576 182.885ZM752.058 187.884L751.71 188.394L753.513 189.615L753.853 189.103L752.058 187.884Z" fill="#231F20"/>
<path fill-rule="evenodd" clip-rule="evenodd" d="M726.939 185.863L727.157 186.439L729.192 185.673L728.976 185.094L726.939 185.863ZM756.567 174.7L754.532 175.466L754.75 176.045L756.785 175.279L756.567 174.7ZM749.94 177.201L750.158 177.777L752.196 177.01L751.975 176.434L749.94 177.201ZM745.341 178.932L745.559 179.511L747.596 178.745L747.378 178.166L745.341 178.932ZM740.743 180.666L740.962 181.242L742.996 180.476L742.778 179.897L740.743 180.666ZM736.144 182.398L736.362 182.977L738.391 182.21L738.173 181.634L736.144 182.398ZM731.547 184.129L731.765 184.708L733.8 183.941L733.581 183.362L731.547 184.129Z" fill="#231F20"/>
</g>
<g filter="url(#filter0_d_5_750)">
<path fill-rule="evenodd" clip-rule="evenodd" d="M729.841 326.516L734.487 324.865L722 318L725.64 331.776L728.366 327.668L731.63 331.845L733.104 330.693L729.841 326.516Z" fill="#363B3E"/>
<path d="M730.662 326.755L734.654 325.336L735.703 324.963L734.727 324.427L722.241 317.562L721.219 317L721.517 318.128L725.157 331.904L725.441 332.981L726.057 332.053L728.399 328.522L731.236 332.153L731.544 332.547L731.938 332.239L733.412 331.087L733.806 330.78L733.498 330.386L730.662 326.755Z" stroke="white" stroke-opacity="0.8"/>
</g>
<line x1="719.5" y1="316" x2="719.5" y2="483" stroke="#FFE400" stroke-dasharray="5 5"/>
<line x1="109" y1="316.5" x2="719" y2="316.5" stroke="#FFE400" stroke-dasharray="5 5"/>
<line x1="83.5" y1="490" x2="83.5" y2="530" stroke="#FFE400"/>
<line x1="77.3536" y1="503.646" x2="89.3744" y2="515.667" stroke="#FFE400"/>
<line x1="367" y1="510.5" x2="83.0001" y2="510.5" stroke="#FFE400"/>
<path d="M378.408 516V514.816H381.528V505.824H381.416L378.6 508.448L377.816 507.6L380.776 504.832H382.872V514.816H385.752V516H378.408ZM395.122 516H387.794V514.624L391.442 511.264C391.964 510.784 392.402 510.277 392.754 509.744C393.106 509.2 393.282 508.656 393.282 508.112V507.92C393.282 507.301 393.111 506.8 392.77 506.416C392.428 506.032 391.911 505.84 391.218 505.84C390.876 505.84 390.578 505.888 390.322 505.984C390.066 506.08 389.842 506.213 389.65 506.384C389.468 506.555 389.314 506.757 389.186 506.992C389.068 507.216 388.972 507.461 388.898 507.728L387.698 507.264C387.804 506.933 387.948 506.613 388.13 506.304C388.322 505.984 388.556 505.701 388.834 505.456C389.122 505.211 389.463 505.013 389.858 504.864C390.263 504.715 390.738 504.64 391.282 504.64C391.826 504.64 392.311 504.72 392.738 504.88C393.164 505.04 393.522 505.264 393.81 505.552C394.098 505.84 394.316 506.181 394.466 506.576C394.626 506.971 394.706 507.408 394.706 507.888C394.706 508.325 394.642 508.731 394.514 509.104C394.396 509.477 394.231 509.835 394.018 510.176C393.804 510.507 393.543 510.832 393.234 511.152C392.935 511.472 392.61 511.792 392.258 512.112L389.25 514.816H395.122V516ZM402.188 516V513.808H396.796V512.624L401.468 504.832H403.468V512.688H405.084V513.808H403.468V516H402.188ZM398.06 512.688H402.188V505.872H402.108L398.06 512.688ZM409.957 509.568C410.715 509.568 411.28 509.397 411.653 509.056C412.037 508.704 412.229 508.256 412.229 507.712V507.6C412.229 507.013 412.043 506.576 411.669 506.288C411.307 505.989 410.827 505.84 410.229 505.84C409.653 505.84 409.184 505.968 408.821 506.224C408.459 506.469 408.16 506.805 407.925 507.232L406.933 506.464C407.072 506.24 407.237 506.021 407.429 505.808C407.632 505.584 407.867 505.387 408.133 505.216C408.4 505.045 408.709 504.907 409.061 504.8C409.413 504.693 409.813 504.64 410.261 504.64C410.731 504.64 411.173 504.704 411.589 504.832C412.005 504.949 412.363 505.131 412.661 505.376C412.971 505.611 413.211 505.904 413.381 506.256C413.563 506.608 413.653 507.008 413.653 507.456C413.653 507.819 413.595 508.144 413.477 508.432C413.371 508.72 413.221 508.971 413.029 509.184C412.837 509.397 412.608 509.579 412.341 509.728C412.085 509.877 411.808 509.989 411.509 510.064V510.128C411.808 510.192 412.096 510.299 412.373 510.448C412.661 510.587 412.912 510.773 413.125 511.008C413.349 511.232 413.525 511.509 413.653 511.84C413.792 512.16 413.861 512.528 413.861 512.944C413.861 513.424 413.771 513.867 413.589 514.272C413.408 514.667 413.152 515.008 412.821 515.296C412.491 515.573 412.091 515.792 411.621 515.952C411.152 516.112 410.635 516.192 410.069 516.192C409.589 516.192 409.163 516.139 408.789 516.032C408.416 515.925 408.085 515.781 407.797 515.6C407.509 515.419 407.253 515.216 407.029 514.992C406.816 514.768 406.624 514.533 406.453 514.288L407.461 513.52C407.6 513.744 407.749 513.947 407.909 514.128C408.08 514.309 408.267 514.464 408.469 514.592C408.672 514.72 408.901 514.821 409.157 514.896C409.413 514.96 409.712 514.992 410.053 514.992C410.843 514.992 411.44 514.816 411.845 514.464C412.251 514.101 412.453 513.589 412.453 512.928V512.8C412.453 512.139 412.251 511.632 411.845 511.28C411.44 510.917 410.843 510.736 410.053 510.736H408.741V509.568H409.957ZM420.175 516.192C418.842 516.192 417.866 515.685 417.247 514.672C416.639 513.659 416.335 512.24 416.335 510.416C416.335 508.592 416.639 507.173 417.247 506.16C417.866 505.147 418.842 504.64 420.175 504.64C421.508 504.64 422.479 505.147 423.087 506.16C423.706 507.173 424.015 508.592 424.015 510.416C424.015 512.24 423.706 513.659 423.087 514.672C422.479 515.685 421.508 516.192 420.175 516.192ZM420.175 515.024C420.612 515.024 420.986 514.933 421.295 514.752C421.604 514.571 421.855 514.315 422.047 513.984C422.239 513.653 422.378 513.264 422.463 512.816C422.559 512.368 422.607 511.872 422.607 511.328V509.504C422.607 508.96 422.559 508.464 422.463 508.016C422.378 507.568 422.239 507.179 422.047 506.848C421.855 506.517 421.604 506.261 421.295 506.08C420.986 505.899 420.612 505.808 420.175 505.808C419.738 505.808 419.364 505.899 419.055 506.08C418.746 506.261 418.495 506.517 418.303 506.848C418.111 507.179 417.967 507.568 417.871 508.016C417.786 508.464 417.743 508.96 417.743 509.504V511.328C417.743 511.872 417.786 512.368 417.871 512.816C417.967 513.264 418.111 513.653 418.303 513.984C418.495 514.315 418.746 514.571 419.055 514.752C419.364 514.933 419.738 515.024 420.175 515.024Z" fill="#FFE400"/>
<line x1="719" y1="510.5" x2="435" y2="510.5" stroke="#FFE400"/>
<line x1="713.353" y1="503.646" x2="725.374" y2="515.667" stroke="#FFE400"/>
<line x1="719.5" y1="490" x2="719.5" y2="530" stroke="#FFE400"/>
<path d="M16.692 286.008V282.664H13.572V281.576H16.692V278.232H17.908V281.576H21.028V282.664H17.908V286.008H16.692ZM30.6218 287H23.2938V285.624L26.9418 282.264C27.4644 281.784 27.9018 281.277 28.2538 280.744C28.6058 280.2 28.7818 279.656 28.7818 279.112V278.92C28.7818 278.301 28.6111 277.8 28.2698 277.416C27.9284 277.032 27.4111 276.84 26.7178 276.84C26.3764 276.84 26.0778 276.888 25.8218 276.984C25.5658 277.08 25.3418 277.213 25.1498 277.384C24.9684 277.555 24.8138 277.757 24.6858 277.992C24.5684 278.216 24.4724 278.461 24.3978 278.728L23.1978 278.264C23.3044 277.933 23.4484 277.613 23.6298 277.304C23.8218 276.984 24.0564 276.701 24.3338 276.456C24.6218 276.211 24.9631 276.013 25.3578 275.864C25.7631 275.715 26.2378 275.64 26.7818 275.64C27.3258 275.64 27.8111 275.72 28.2378 275.88C28.6644 276.04 29.0218 276.264 29.3098 276.552C29.5978 276.84 29.8164 277.181 29.9658 277.576C30.1258 277.971 30.2058 278.408 30.2058 278.888C30.2058 279.325 30.1418 279.731 30.0138 280.104C29.8964 280.477 29.7311 280.835 29.5178 281.176C29.3044 281.507 29.0431 281.832 28.7338 282.152C28.4351 282.472 28.1098 282.792 27.7578 283.112L24.7498 285.816H30.6218V287ZM33.8635 285.128C34.2048 285.128 34.4502 285.219 34.5995 285.4C34.7595 285.571 34.8395 285.795 34.8395 286.072V286.296C34.8395 286.733 34.7115 287.213 34.4555 287.736C34.1995 288.269 33.8422 288.733 33.3835 289.128H32.3115C32.6315 288.787 32.8875 288.461 33.0795 288.152C33.2822 287.853 33.4262 287.517 33.5115 287.144C33.2982 287.091 33.1382 286.989 33.0315 286.84C32.9355 286.691 32.8875 286.509 32.8875 286.296V286.072C32.8875 285.795 32.9622 285.571 33.1115 285.4C33.2715 285.219 33.5222 285.128 33.8635 285.128ZM37.4549 287V285.816H40.5749V276.824H40.4629L37.6469 279.448L36.8629 278.6L39.8229 275.832H41.9189V285.816H44.7989V287H37.4549ZM50.4406 287.192C49.8006 287.192 49.2406 287.112 48.7606 286.952C48.2806 286.781 47.8753 286.552 47.5446 286.264C47.2246 285.976 46.9793 285.635 46.8086 285.24C46.6486 284.845 46.5686 284.419 46.5686 283.96C46.5686 283.192 46.7766 282.584 47.1926 282.136C47.6086 281.688 48.1526 281.373 48.8246 281.192V281.064C48.238 280.861 47.7686 280.536 47.4166 280.088C47.0753 279.629 46.9046 279.08 46.9046 278.44C46.9046 277.587 47.214 276.909 47.8326 276.408C48.4513 275.896 49.3206 275.64 50.4406 275.64C51.5606 275.64 52.43 275.896 53.0486 276.408C53.6673 276.909 53.9766 277.587 53.9766 278.44C53.9766 279.08 53.8006 279.629 53.4486 280.088C53.1073 280.536 52.6433 280.861 52.0566 281.064V281.192C52.7286 281.373 53.2726 281.688 53.6886 282.136C54.1046 282.584 54.3126 283.192 54.3126 283.96C54.3126 284.419 54.2273 284.845 54.0566 285.24C53.8966 285.635 53.6513 285.976 53.3206 286.264C53.0006 286.552 52.6006 286.781 52.1206 286.952C51.6406 287.112 51.0806 287.192 50.4406 287.192ZM50.4406 286.024C51.2193 286.024 51.822 285.853 52.2486 285.512C52.6753 285.16 52.8886 284.664 52.8886 284.024V283.688C52.8886 283.048 52.6753 282.557 52.2486 282.216C51.822 281.864 51.2193 281.688 50.4406 281.688C49.662 281.688 49.0593 281.864 48.6326 282.216C48.206 282.557 47.9926 283.048 47.9926 283.688V284.024C47.9926 284.664 48.206 285.16 48.6326 285.512C49.0593 285.853 49.662 286.024 50.4406 286.024ZM50.4406 280.568C51.1446 280.568 51.678 280.419 52.0406 280.12C52.4033 279.821 52.5846 279.384 52.5846 278.808V278.568C52.5846 277.992 52.4033 277.555 52.0406 277.256C51.678 276.957 51.1446 276.808 50.4406 276.808C49.7366 276.808 49.2033 276.957 48.8406 277.256C48.478 277.555 48.2966 277.992 48.2966 278.568V278.808C48.2966 279.384 48.478 279.821 48.8406 280.12C49.2033 280.419 49.7366 280.568 50.4406 280.568ZM60.0344 287.192C58.701 287.192 57.725 286.685 57.1064 285.672C56.4984 284.659 56.1944 283.24 56.1944 281.416C56.1944 279.592 56.4984 278.173 57.1064 277.16C57.725 276.147 58.701 275.64 60.0344 275.64C61.3677 275.64 62.3384 276.147 62.9464 277.16C63.565 278.173 63.8744 279.592 63.8744 281.416C63.8744 283.24 63.565 284.659 62.9464 285.672C62.3384 286.685 61.3677 287.192 60.0344 287.192ZM60.0344 286.024C60.4717 286.024 60.845 285.933 61.1544 285.752C61.4637 285.571 61.7144 285.315 61.9064 284.984C62.0984 284.653 62.237 284.264 62.3224 283.816C62.4184 283.368 62.4664 282.872 62.4664 282.328V280.504C62.4664 279.96 62.4184 279.464 62.3224 279.016C62.237 278.568 62.0984 278.179 61.9064 277.848C61.7144 277.517 61.4637 277.261 61.1544 277.08C60.845 276.899 60.4717 276.808 60.0344 276.808C59.597 276.808 59.2237 276.899 58.9144 277.08C58.605 277.261 58.3544 277.517 58.1624 277.848C57.9704 278.179 57.8264 278.568 57.7304 279.016C57.645 279.464 57.6024 279.96 57.6024 280.504V282.328C57.6024 282.872 57.645 283.368 57.7304 283.816C57.8264 284.264 57.9704 284.653 58.1624 284.984C58.3544 285.315 58.605 285.571 58.9144 285.752C59.2237 285.933 59.597 286.024 60.0344 286.024ZM68.5721 281.144C68.1881 281.144 67.8308 281.075 67.5001 280.936C67.1801 280.797 66.8975 280.605 66.6521 280.36C66.4175 280.115 66.2308 279.827 66.0921 279.496C65.9535 279.155 65.8841 278.787 65.8841 278.392C65.8841 277.997 65.9535 277.635 66.0921 277.304C66.2308 276.963 66.4175 276.669 66.6521 276.424C66.8975 276.179 67.1801 275.987 67.5001 275.848C67.8308 275.709 68.1881 275.64 68.5721 275.64C68.9561 275.64 69.3081 275.709 69.6281 275.848C69.9588 275.987 70.2415 276.179 70.4761 276.424C70.7215 276.669 70.9135 276.963 71.0521 277.304C71.1908 277.635 71.2601 277.997 71.2601 278.392C71.2601 278.787 71.1908 279.155 71.0521 279.496C70.9135 279.827 70.7215 280.115 70.4761 280.36C70.2415 280.605 69.9588 280.797 69.6281 280.936C69.3081 281.075 68.9561 281.144 68.5721 281.144ZM68.5721 280.12C69.0521 280.12 69.4308 279.955 69.7081 279.624C69.9961 279.283 70.1401 278.872 70.1401 278.392C70.1401 277.912 69.9961 277.507 69.7081 277.176C69.4308 276.835 69.0521 276.664 68.5721 276.664C68.0921 276.664 67.7081 276.835 67.4201 277.176C67.1428 277.507 67.0041 277.912 67.0041 278.392C67.0041 278.872 67.1428 279.283 67.4201 279.624C67.7081 279.955 68.0921 280.12 68.5721 280.12Z" fill="#FFE400"/>
<path d="M85 292L2.38419e-06 292" stroke="#FFE400"/>
<path d="M84.1464 314.354C84.3417 314.549 84.6583 314.549 84.8536 314.354L88.0355 311.172C88.2308 310.976 88.2308 310.66 88.0355 310.464C87.8403 310.269 87.5237 310.269 87.3284 310.464L84.5 313.293L81.6716 310.464C81.4763 310.269 81.1597 310.269 80.9645 310.464C80.7692 310.66 80.7692 310.976 80.9645 311.172L84.1464 314.354ZM85 314L85 292L84 292L84 314L85 314Z" fill="#FFE400"/>
<line x1="66" y1="314.5" x2="103" y2="314.5" stroke="#FFE400"/>
<defs>
<filter id="filter0_d_5_750" x="717.437" y="314" width="22.4826" height="24.1853" filterUnits="userSpaceOnUse" color-interpolation-filters="sRGB">
<feFlood flood-opacity="0" result="BackgroundImageFix"/>
<feColorMatrix in="SourceAlpha" type="matrix" values="0 0 0 0 0 0 0 0 0 0 0 0 0 0 0 0 0 0 127 0" result="hardAlpha"/>
<feOffset dy="1"/>
<feGaussianBlur stdDeviation="1.5"/>
<feColorMatrix type="matrix" values="0 0 0 0 0 0 0 0 0 0 0 0 0 0 0 0 0 0 0.25 0"/>
<feBlend mode="normal" in2="BackgroundImageFix" result="effect1_dropShadow_5_750"/>
<feBlend mode="normal" in="SourceGraphic" in2="effect1_dropShadow_5_750" result="shape"/>
</filter>
<clipPath id="clip0_5_750">
<rect width="804" height="488" fill="white" transform="translate(38)"/>
</clipPath>
</defs>
</svg>
