<svg width="842" height="530" viewBox="0 0 842 530" fill="none" xmlns="http://www.w3.org/2000/svg"><g clip-path="url(#a)"><path d="M713.857 473.035l-314.156-9.28.013-.543 314.157 9.28-.014.543zm13.267.392l-8.408-.249.017-.54 8.404.245-.013.544zm90.378 2.671l-12.657-.375.014-.543 12.657.375-.014.543zm-12.654-9.746l12.657-.292.011.543-12.66.292-.008-.543zm-405.145 9.379l161.513-3.738.011.543-161.513 3.738-.011-.543zm417.783-7.332l-12.656.261.011.543 12.657-.261-.012-.543z" fill="#231F20"/><path d="M637.11 472.059l162.765-3.35.012.546-162.766 3.347-.011-.543zm-75.901 1.576l-115.153 2.368.011.543 115.153-2.368-.011-.543zm-147.395 2.987l-14.098.29.012.543 14.097-.29-.011-.543zm391.037 1.006l12.656-.129.003.543-12.654.129-.005-.543zm-67.172.689l55.786-.573.002.543-55.783.574-.005-.544zm-10.573.173l-8.406.086.005.543 8.407-.086-.006-.543zm-281.04 2.827l267.796-2.754.006.543-267.797 2.754-.005-.543zm-63.972.656l60.068-.617.005.543-60.068.617-.005-.543zm-15.685.163l11.516-.119.002.543-11.513.116-.005-.54zm-.071-21.929l-.017.543 11.507.367.018-.543-11.508-.367zm15.712.519l-.017.543 179.124 5.715.017-.543-179.124-5.715z" fill="#231F20"/><path d="M637.063 468.872l-.017.543 76.749 2.448.017-.542-76.749-2.449zm100.555 3.262l-.014.433 55.785 1.779.014-.432-55.785-1.78zm67.227 2.112l-.018.542 12.656.404.017-.543-12.655-.403zm-243.64-26.498L382.08 436.565l.033-.543 179.122 11.183-.03.543zm238.662 14.899l-162.768-10.163.033-.54 162.766 10.16-.031.543zm17.626 1.1l-12.656-.789.031-.543 12.656.791-.031.541zm-12.648.353l12.657-.329.014.544-12.657.325-.014-.54z" fill="#231F20"/><path d="M637.11 468.467l162.765-4.188.012.435-162.766 4.188-.011-.435zm-191.047 4.86l115.15-2.963.014.545-115.153 2.961-.011-.543zm-25.895.667l21.988-.567.014.543-21.988.565-.014-.541zm216.947 7.235l90.017-.692v.433l-90.017.695v-.436zm-191.049 1.42l115.152-.891.003.546-115.152.888-.003-.543zm-25.893.198l21.989-.171.003.543-21.989.171-.003-.543zm-38.079.292l31.713-.242v.543l-31.71.242-.003-.543zm46.393-10.349l-62.081-1.169.008-.543 62.081 1.169-.008.543z" fill="#231F20"/><path d="M561.216 475.288l-115.153-2.167.008-.544 115.153 2.17-.008.541zm152.646 2.823l-76.75-1.448.006-.433 76.75 1.445-.006.436zm4.982-.356l-.01.543 8.406.158.01-.543-8.406-.158zm-305.018-4.171l-47.409-.827.008-.543 47.409.827-.008.543zm147.39 2.575l-115.153-2.01.008-.543 115.153 2.01-.008.543zm152.646 2.611l-76.75-1.34.006-.436 76.75 1.34-.006.436zm9.959 1.081l-.011.544 8.408.168.011-.544-8.408-.168zm77.747.504l-8.106-.141.008-.543 8.106.141-.008.543zm3.28-9.492l12.656-.227.009.544-12.657.226-.008-.543zm-11.413.34l-55.785 1.002.008.432 55.785-1.001-.008-.433zm-156.323 2.734l76.75-1.382.006.436-76.75 1.378-.006-.432z" fill="#231F20"/><path d="M357.43 478.918l203.786-3.669.008.543-203.786 3.667-.008-.541zm29.716 4.034l-.004.543 26.62.208.005-.543-26.621-.208zm36.641 1.553l-.005.543 141.05 1.409.006-.543-141.051-1.409z" fill="#231F20"/><path d="M413.801 480.471l-47.384-.899.008-.543 47.384.899-.008.543zm403.742-28.028l-261.311-24.182.05-.54 261.308 24.182-.047.54z" fill="#231F20"/><path d="M378.201 420.919h-.547v65.989h.547v-65.989zm439.442-157.962l-66.504 16.765.005 207.186h-.544l-.005-207.398v-.212l.204-.053 66.714-16.814.13.526zm-99.2 223.951l.008-215.189-102.107-46.342.224-.497 102.267 46.417.16.072v.176l-.005 215.363h-.547z" fill="#231F20"/><path d="M706.833 282.038v-25.976l.389.185 53.762 25.491.158.074v23.3l-.379-.157-53.761-22.666-.169-.071v-.18zm.552-25.116v24.937l53.215 22.439v-22.136l-53.215-25.24zm-136.829-62.134h-.547v292.123h.547V194.788z" fill="#231F20"/><path d="M567.329 369.65l146.274 27.333 34.388-3.929v-25.943l-143.262-38.664.141-.524 143.463 38.717.202.055v26.845l-.24.027-34.67 3.959h-.08l-146.316-27.341.1-.535z" fill="#231F20"/><path d="M651.663 232.815h-.547v254.096h.547V232.815zm6.66 3.129h-.547v250.964h.547V235.944zm-97.187 167.063l-158.771-21.151.069-.538 158.774 21.152-.072.537zm.049 5.977L380.774 386.65l.066-.54 180.412 22.334-.067.54zm-147.38-30.341l-.075.538 147.411 20.426.075-.538-147.411-20.426zm27.462-6.666l-.081.537 122.819 18.582.081-.537-122.819-18.582z" fill="#231F20"/><path d="M366.146 432.025v-30.189l.221-.042 194.821-37.768.102.535-194.603 37.724.003 29.74h-.544zm382.063-38.46l-143.411-30.192.11-.533 143.412 30.192-.111.533z" fill="#231F20"/><path d="M397.442 405.221h-.547v28.841h.547v-28.841zm2.549 6.369h-.547v75.321h.547V411.59zm-12.596.397h-.436v74.921h.436v-74.921z" fill="#231F20"/><path d="M501.61 386.609l-104.47 18.225.093.535 104.47-18.225-.093-.535zm-107.523-1.875l366.751-80.306.116.532-366.751 80.306-.116-.532zm423.536-94.877l-7.697 1.707v195.344h-.434V291.216l.171-.035 7.866-1.746.094.422z" fill="#231F20"/><path d="M817.593 425.775l-435.416 30.078-.036-.54 435.416-30.082.036.544z" fill="#231F20"/><path d="M537.295 458.952l-92.126-3.961-.26-.012v-.259l.025-94.584v-.212l.207-.05 35.205-8.64.13.526-34.998 8.591-.025 94.107 91.866 3.951-.024.543z" fill="#231F20"/><path d="M445.188 454.453l115.868-7.218.033.543-115.871 7.218-.03-.543zm268.404 32.455v-23.484h5.133v.546h-4.586v22.938h-.547zm13.267 0v-15.494h11.093v15.494h-.544v-14.951h-10.003v14.951h-.546zm66.335 0v-16.305h8.65v16.305h-.544v-15.762h-7.562v15.762h-.544z" fill="#231F20"/><path d="M799.608 470.876v-10.421h5.519v26.453h-.547v-25.91h-4.426v9.878h-.546zm-238.103-90.843h-.543v107.501h.543V380.033zm76.055-12.825h-.817v119.7h.817v-119.7zm-3.924.642h-.546v119.058h.546V367.85zM537.04 486.853l.003-110.87-91.908-15.585.092-.538 92.134 15.627.226.038v.229l-.005 111.099h-.542z" fill="#231F20"/><path d="M347.126 486.908V408.37l.295.027 208.861 19.324-.05.54-208.565-19.296.003 77.943h-.544z" fill="#231F20"/><path d="M333.95 487.143v-84.276l.219-.042 7.242-1.486.08-.005 214.835 21.56-.053.54L341.48 401.88l-6.986 1.431v83.832h-.544z" fill="#231F20"/><path fill-rule="evenodd" clip-rule="evenodd" d="M227.953 486.908h-13.33V263.765l87.245 19.9v203.243h-13.093V300.722l-60.822-12.428v198.614z" fill="#fff"/><path fill-rule="evenodd" clip-rule="evenodd" d="M202.591 273.155l12.032-9.39v223.143h-12.032V273.155z" fill="#E6E7E8"/><path fill-rule="evenodd" clip-rule="evenodd" d="M275.818 307.43l-47.865-9.404v-9.732l60.817 12.426-12.952 6.71z" fill="#B3B3B3"/><path fill-rule="evenodd" clip-rule="evenodd" d="M275.818 486.908h12.96V300.72l-12.96 6.699v179.489z" fill="#D1D3D4"/><path fill-rule="evenodd" clip-rule="evenodd" d="M459.214 418.791l-20.791 2.672v51.029l20.791-.587v-53.114z" fill="#FFEF68"/><path fill-rule="evenodd" clip-rule="evenodd" d="M501.667 273.616v213.402l8.967-.002.011-210.629-8.978-2.771z" fill="gray"/><path fill-rule="evenodd" clip-rule="evenodd" d="M817.579 285.782l-180.425-96.69v5.72l180.425 94.833v-3.863zm0 33.936l-180.425-80.364v5.699l180.425 78.531v-3.866zm0 33.958l-180.425-64.028v5.69l180.425 62.184v-3.846zm0 101.904l-180.425-15.056v5.663l180.425 13.215v-3.822z" fill="#BCBEC0"/><path fill-rule="evenodd" clip-rule="evenodd" d="M630.806 475.505l-63.591 1.034v-79.978l63.591-9.001v87.945z" fill="#FFEF68"/><path fill-rule="evenodd" clip-rule="evenodd" d="M645.986 373.207l-284.373 45.118 16.535 2.57 290.967-42.869-23.129-4.819z" fill="#BCBEC0"/><path fill-rule="evenodd" clip-rule="evenodd" d="M646.124 365.686l.003 7.562 22.988 4.778.006-7.243-22.997-5.097z" fill="#E6E7E8"/><path fill-rule="evenodd" clip-rule="evenodd" d="M361.613 418.325l284.511-45.077v-7.562l-284.511 48.076v4.563z" fill="#fff"/><path d="M609.919 396.939l-28.703 3.802-.002 86.167h-.544l.002-86.407v-.234l.235-.033 28.941-3.833.071.538zm-243.535 34.818l194.718-24.419.07.541-194.722 24.418-.066-.54zm30.763 2.032l164.207-18.524.058.54-164.207 18.524-.058-.54zm41.584-148.454l-.141.524 122.626 32.742.141-.525-122.626-32.741zm-24.943 9.717l-.13.527 147.428 36.242.13-.528-147.428-36.241zm-11.425 4.523l-.126.528 158.929 37.603.125-.529-158.928-37.602zm-21.382 8.537l-.117.53 180.406 39.674.117-.531-180.406-39.673z" fill="#231F20"/><path d="M561.191 331.463l-166.775 41.066.003 12.469h-.544l-.003-12.682v-.212l.207-.052 166.982-41.118.13.529z" fill="#231F20"/><path d="M393.577 394.199l-27.207-3.163-.243-.027v-.24l.017-38.237v-.201l.193-.058 86.767-26.638.16.521-86.577 26.577-.016 37.793 26.966 3.132-.06.541z" fill="#231F20"/><path d="M453.104 371.334l-86.768 19.065.117.531 86.767-19.065-.116-.531zm.02 10.309l-59.642 11.944.107.535 59.643-11.943-.108-.536zm5.816 37.457l-20.246 2.6v50.513l20.246-.573V419.1zm-20.552 2.092l20.79-2.671.309-.039v53.684h-.276l-20.79.591h-.276v-51.556l.243-.009zm275.48-49.146h-.547v25.21h.547v-25.21z" fill="#231F20"/><path d="M748.3 367.172l-34.667 5.158-.102-.005-146.305-35.058.127-.527 146.25 35.044 34.62-5.15.077.538zm69.003 119.736V262.844l-58.486-34.934.027 258.998h-.541l-.03-259.478v-.477l.411.246 59.033 35.259.133.08v224.37h-.547z" fill="#231F20"/><path d="M817.449 286.019l-180.024-96.475v5.106l180.278 94.755-.251.48-180.428-94.83-.143-.077v-6.341l.4.215 180.425 96.688-.257.479z" fill="#231F20"/><path d="M657.961 235.701l72.898-25.022.18.515-72.902 25.02-.176-.513zm100.906-8.773l-72.008 22.161.161.519 72.007-22.161-.16-.519zm-150.206-43.709h-.547v120.765h.547V183.219zm-60.272 30.095l-.213.499 47.907 20.316.212-.5-47.906-20.315zm269.08 106.652l-180.044-80.192v5.1l180.262 78.461-.218.499-180.425-78.533-.163-.071v-6.295l.383.171L817.69 319.47l-.221.496zm.019 33.967l-180.063-63.899v5.114l180.242 62.118-.179.513-180.425-62.182-.182-.066v-6.269l.361.129 180.425 64.029-.179.513z" fill="#231F20"/><path d="M760.777 281.824l-143.359 35.294.13.528 143.359-35.294-.13-.528zm-102.849-45.618l-6.685-3.137.229-.491 6.685 3.134-.229.494zm26.248-1.337l-46.699-23.162.24-.488 46.7 23.162-.241.488zm-56.112-14.454l-.232.492 89.856 42.337.232-.491-89.856-42.338z" fill="#231F20"/><path d="M718.622 296.821l-90.764-36.433.201-.505 90.765 36.434-.202.504zm-102.183-33.309l-.196.507 102.32 39.589.196-.507-102.32-39.589zm6.501 11.642l-60.786 18.513 46.752 14.257-.157.518-47.605-14.515v-.519l61.636-18.775.16.521zm95.68 77.946l-145.482-41.129.146-.524 145.482 41.129-.146.524z" fill="#231F20"/><path d="M688.809 275.945l-92.683 25.759-.155-.003-47.782-14.841-.193-.057v-.202l-.019-29.599-.003-.187.179-.067 94.012-34.884.188.507-93.835 34.819.022 29.21 47.519 14.758 92.607-25.736.143.523zm-19.374 65.661l-60.719 11.949-.113-.003-47.451-10.799v-.529l61.659-14.08.121.529-60.499 13.815 46.233 10.521 60.665-11.938.104.535zm148.122 114.245l-180.132-15.029v5.112l180.171 13.195-.036.543-180.428-13.214-.251-.02v-6.209l.295.025 180.425 15.053-.044.544zm-186.745 19.925l-63.602 1.033h-.276v-80.504l.234-.033 63.594-8.996.309-.047v88.527l-.259.02zm-63.326.485l63.044-1.023v-87.356l-63.044 8.911v79.468zM442.35 286.527h-.547v87.708h.547v-87.708zm-36.539 14.049h-.547v81.779h.547v-81.779zm-39.515 51.621l-.087.537 27.287 4.432.087-.536-27.287-4.433zm194.757 18.858l-23.777 4.345.098.535 23.777-4.345-.098-.535z" fill="#231F20"/><path d="M393.541 356.728l59.519-16.633.143.524-59.516 16.633-.146-.524zm-27.012 110.106l-.014.544 27.29.656.013-.543-27.289-.657z" fill="#231F20"/><path d="M394.032 357.007h-.546v36.852h.546v-36.852zm202.246-83.03h-.547v27.451h.547v-27.451zm.024-40.153h-.544v30.327h.544v-30.327zm90.931 15.679h-.547v237.408h.547V249.503zm-149.93 208.906l23.866-1.106.022.544-23.863 1.105-.025-.543zm-248.801 28.499V300.943l-60.275-12.315v198.28h-.547V287.96l.329.069 60.821 12.429.218.041v186.409h-.546zm-73.605-223.143h-.547v223.143h.547V263.765z" fill="#231F20"/><path d="M202.318 486.908V273.026l.104-.083 12.033-9.39.105-.08.124.027 87.244 19.9.21.047v203.461h-.544V283.88l-86.905-19.82-11.825 9.228v213.62h-.546z" fill="#231F20"/><path d="M288.894 300.962l-12.952 6.708-.177.028-47.864-9.407.105-.532 47.773 9.385 12.866-6.664.249.482z" fill="#231F20"/><path d="M276.094 307.417h-.547v179.491h.547V307.417zm85.475 110.638l284.514-45.077.097.003 22.993 4.778-.113.532-22.944-4.767-284.462 45.069-.085-.538z" fill="#231F20"/><path d="M361.566 413.492l284.514-48.074h.102l22.997 5.098.212.047v7.695l-.232.033-290.98 42.871h-.08l-16.528-2.572-.232-.036v-5.032l.227-.038v.008zm284.553-47.531l-284.236 48.03v4.1l16.254 2.528 290.708-42.83v-6.788l-22.726-5.04zM605.02 181.294l-.251.482 113.028 58.704.251-.482-113.028-58.704z" fill="#231F20"/><path d="M646.398 365.686h-.547v7.559h.547v-7.559z" fill="#231F20"/><path fill-rule="evenodd" clip-rule="evenodd" d="M559.109 419.103l.066.614 2.162-.234-.063-.612-2.165.232zm-4.887.523l.066.613 2.162-.232-.066-.612-2.162.231zm-9.774 1.048l.064.612 2.164-.231-.066-.615-2.162.234zm-9.774 1.045l.066.615 2.162-.232-.066-.615-2.162.232zm-9.776 1.048l.066.612 2.164-.232-.066-.612-2.164.232zm-9.772 1.045l.067.614 2.162-.231-.067-.615-2.162.232zm-9.773 1.047l.066.612 2.162-.231-.067-.612-2.161.231zm43.982-4.709l.064.612 2.167-.231-.069-.612-2.162.231zm-9.774 1.045l.064.615 2.164-.232-.066-.614-2.162.231zm-9.774 1.048l.067.612 2.161-.229-.066-.615-2.162.232zm-9.774 1.045l.064.615 2.164-.232-.066-.615-2.162.232zm-9.776 1.047l.066.615 2.165-.234-.067-.612-2.164.231zm-9.771 1.048l.063.612 2.165-.232-.067-.612-2.161.232zm275.475-29.505l.066.612 2.162-.232-.064-.615-2.164.235zm-4.887.521l.066.615 2.164-.232-.066-.615-2.164.232zm-9.774 1.047l.066.612 2.162-.228-.066-.615-2.162.231zm-9.774 1.045l.066.615 2.165-.231-.069-.615-2.162.231zm-9.774 1.048l.066.615 2.162-.232-.066-.615-2.162.232zm-9.777 1.045l.069.615 2.162-.232-.066-.612-2.165.229zm-9.771 1.048l.064.614 2.164-.234-.066-.612-2.162.232zm-9.774 1.047l.064.612 2.164-.229-.066-.617-2.162.234zm-14.663 1.569l.066.615 2.164-.232-.066-.615-2.164.232zm-19.545 2.106l.066.615 2.162-.232-.067-.614-2.161.231zm-19.551 2.093l.066.615 2.165-.232-.066-.615-2.165.232zm-19.548 2.092l.066.615 2.162-.231-.066-.615-2.162.231zm-19.548 2.093l.067.615 2.164-.232-.066-.612-2.165.229zm-19.547 2.093l.066.614 2.164-.231-.066-.612-2.164.229zm-19.546 2.106l.067.615 2.164-.232-.066-.615-2.165.232zm185.707-19.884l.067.615 2.162-.231-.067-.615-2.162.231zm-9.773 1.045l.066.615 2.162-.232-.067-.614-2.161.231zm-9.774 1.048l.066.615 2.162-.232-.066-.615-2.162.232zm-9.774 1.045l.066.615 2.162-.232-.066-.612-2.162.229zm-9.777 1.031l.066.615 2.162-.232-.066-.615-2.162.232zm-9.777 1.048l.067.612 2.164-.232-.066-.612-2.165.232zm-9.774 1.047l.067.612 2.164-.231-.066-.615-2.165.234zm-19.547 2.093l.066.612 2.165-.232-.067-.615-2.164.235zm-19.548 2.09l.066.617 2.165-.234-.066-.612-2.165.229zm-19.548 2.095l.066.612 2.165-.229-.066-.615-2.165.232zm-19.545 2.104l.066.614 2.165-.231-.066-.615-2.165.232zm-19.548 2.092l.066.615 2.165-.232-.066-.615-2.165.232zm-19.548 2.093l.067.614 2.164-.231-.066-.615-2.165.232zm-19.547 2.092l.066.615 2.162-.232-.067-.614-2.161.231zm131.947-14.127l.067.615 2.164-.231-.066-.615-2.165.231zm-9.774 1.048l.067.612 2.164-.232-.069-.612-2.162.232zm-9.771 1.045l.064.615 2.164-.232-.066-.615-2.162.232zm-9.776 1.048l.066.614 2.164-.231-.066-.615-2.164.232zm-9.774 1.044l.066.615 2.165-.231-.067-.612-2.164.228zm-9.774 1.048l.066.615 2.162-.232-.064-.614-2.164.231zm-9.774 1.048l.066.612 2.165-.232-.067-.615-2.164.235zm-9.774 1.045l.066.615 2.162-.232-.063-.615-2.165.232zm-9.774 1.047l.066.612 2.162-.231-.066-.612-2.162.231zm-9.774 1.045l.066.615 2.162-.231-.063-.615-2.165.231zm-9.774 1.048l.067.615 2.161-.235-.063-.612-2.165.232zm-9.774 1.048l.067.612 2.164-.232-.069-.612-2.162.232zm-9.773 1.045l.066.614 2.162-.231-.067-.615-2.161.232zm-9.775 1.047l.067.612 2.164-.231-.066-.612-2.165.231zm-9.773 1.045l.066.615 2.162-.232-.067-.615-2.161.232zm251.399-26.928l-2.162.232.063.615 2.165-.232-.066-.615zm-7.052.756l.067.615 2.164-.235-.066-.612-2.165.232zm-4.884.521l.064.618 2.164-.235-.066-.612-2.162.229zm-4.887.524l.064.615 2.164-.232-.066-.615-2.162.232zm-4.89.524l.067.614 2.162-.231-.064-.615-2.165.232zm-4.887.523l.067.615 2.164-.231-.066-.615-2.165.231zm-4.887.524l.067.612 2.164-.229-.066-.614-2.165.231zm-4.886.524l.066.612 2.164-.231-.069-.613-2.161.232zm35.672-37.785l-2.154.315.088.609 2.154-.312-.088-.612zm-7.016 1.02l.088.613 2.154-.315-.091-.612-2.151.314zm-4.865.706l.088.612 2.154-.311-.088-.612-2.154.311zm-4.865.709l.091.609 2.151-.311-.088-.612-2.154.314zm-4.865.706l.089.612 2.153-.315-.088-.612-2.154.315zm-4.867.697l.088.609 2.154-.311-.091-.612-2.151.314zm-4.865.706l.088.609 2.154-.311-.088-.612-2.154.314zm-18.297-29.489l.11.607 2.14-.395-.113-.606-2.137.394zm-4.835.885l.111.609 2.139-.394-.113-.606-2.137.391zm-9.663 1.778l.113.607 2.137-.392-.11-.609-2.14.394zm-9.664 1.776l.113.606 2.14-.391-.113-.607-2.14.392zm-9.663 1.778l.11.607 2.14-.395-.11-.606-2.14.394zm-9.664 1.776l.113.606 2.138-.394-.111-.607-2.14.395zm-9.663 1.775l.11.607 2.14-.395-.11-.606-2.14.394zm-9.664 1.776l.111.606 2.142-.394-.113-.607-2.14.395zm-14.503 2.663l.113.606 2.137-.391-.11-.607-2.14.392zm-19.327 3.551l.113.609 2.14-.394-.113-.607-2.14.392zm-19.327 3.554l.113.606 2.14-.394-.113-.607-2.14.395zm106.301-19.547l.113.606 2.14-.394-.113-.607-2.14.395zm-9.664 1.775l.114.607 2.14-.392-.114-.609-2.14.394zm-9.663 1.776l.11.606 2.14-.391-.113-.607-2.137.392zm-9.663 1.775l.11.609 2.143-.394-.114-.606-2.139.391zm-9.664 1.776l.113.609 2.14-.394-.113-.607-2.14.392zm-9.663 1.778l.116.606 2.137-.394-.111-.606-2.142.394zm-9.664 1.775l.113.607 2.137-.392-.11-.609-2.14.394zm-19.327 3.551l.114.61 2.139-.395-.113-.606-2.14.391zm-19.327 3.554l.114.607 2.139-.395-.11-.603-2.143.391zm-19.327 3.551l.111.607 2.14-.392-.111-.606-2.14.391zm53.172-9.768l.11.609 2.14-.394-.111-.606-2.139.391zm-9.664 1.776l.111.609 2.139-.394-.113-.607-2.137.392zm-9.663 1.775l.113.609 2.137-.394-.111-.606-2.139.391zm-9.664 1.776l.113.609 2.14-.392-.11-.609-2.143.392zm-9.663 1.778l.11.606 2.143-.391-.113-.609-2.14.394zm-9.664 1.775l.111.607 2.139-.392-.11-.609-2.14.394zm171.259-31.451l-2.143.391.113.609 2.14-.394-.11-.606zm-6.974 1.282l.11.606 2.14-.394-.111-.607-2.139.395zm-4.835.887l.11.607 2.143-.394-.113-.607-2.14.394zm-4.834.888l.113.607 2.14-.392-.114-.609-2.139.394zm-4.835.888l.113.606 2.14-.394-.113-.606-2.14.394zm-4.834.888l.113.606 2.14-.391-.111-.61-2.142.395zm-4.832.887l.11.607 2.14-.394-.11-.604-2.14.391zm-4.835.891l.114.606 2.139-.394-.113-.606-2.14.394zm-4.834.885l.113.609 2.14-.394-.113-.607-2.14.392zm-4.832.89l.111.607 2.139-.394-.113-.607-2.137.394z" fill="#231F20"/><path d="M510.364 487.016h.544l.002-92.346-.543.085-.003 92.261zm.552-210.629v-.202l-.193-.058-8.976-2.77-.16.518 8.785 2.71-.005 112.042.543-.094.006-112.146z" fill="#000"/><path fill-rule="evenodd" clip-rule="evenodd" d="M737.748 262.149v-31.711l64.825 36.522v27.195l-64.825-32.006z" fill="#D9D9D9"/><path fill-rule="evenodd" clip-rule="evenodd" d="M453.181 486.908h28.212V246.534l-28.212 12.271v228.103z" fill="#fff"/><path fill-rule="evenodd" clip-rule="evenodd" d="M481.393 486.908h20.274V253.382l-20.274-6.848v240.374z" fill="#D1D3D4"/><path opacity=".5" fill-rule="evenodd" clip-rule="evenodd" d="M428.498 472.773v-24.471l-34.427 2.66v22.787l34.427-.976z" fill="#FFEF68"/><path fill-rule="evenodd" clip-rule="evenodd" d="M817.579 421.642l-180.425-31.389v5.663l180.425 29.591v-3.865zm0-33.961l-180.425-47.71v5.674l180.425 45.879v-3.843z" fill="#BCBEC0"/><path fill-rule="evenodd" clip-rule="evenodd" d="M642.182 171.91v37.826l46.525 23.412v-34.63l-46.525-26.608z" fill="#E6E7E8"/><path fill-rule="evenodd" clip-rule="evenodd" d="M642.182 222.005v34.225l46.525 19.486V244.38l-46.525-22.375z" fill="#FFEF68"/><path fill-rule="evenodd" clip-rule="evenodd" d="M622.827 274.909v53.507l46.526 12.934v-49.141l-46.526-17.3z" fill="#BCBEC0"/><path opacity=".5" fill-rule="evenodd" clip-rule="evenodd" d="M567.273 336.988v32.971l37.583-6.884v-34.912l-37.583 8.825z" fill="#FFEF68"/><path fill-rule="evenodd" clip-rule="evenodd" d="M642.182 407.09v70.221l46.525.811v-64.288l-46.525-6.744z" fill="#E6E7E8"/><path fill-rule="evenodd" clip-rule="evenodd" d="M308.069 426.806l-68.103 10.785 18.19.984 70.477-10.385-20.564-1.384z" fill="#BCBEC0"/><path d="M669.225 401.152h-.436v85.701h.436v-85.701zm52.606 8.522h-.437v77.179h.437v-77.179zm69.441 17.785h-.436v59.391h.436v-59.391zm-166.275-42.866h-.436v102.26h.436v-102.26zm-60.628 8.9h-.437v93.357h.437v-93.357zm75.651 2.848h-.436v90.512h.436v-90.512zm-135.592 6.076h-.437v84.436h.437v-84.436zm-54.06 25.676h-.437v58.76h.437v-58.76zm-25.711-19.622h-.436v79.46h.436v-79.46zm79.771-105.46h-.437v86.617h.437v-86.617zm169.265 183.897v-63.874l.303.039 8.996 1.1-.066.54-8.689-1.064v63.259h-.544zm-295.782-46.546l-11.226-.645.005 47.191h-.544l-.005-47.481v-.287l.287.017 11.513.664-.03.541zm19.244-6.022l-30.757-2.042.033-.544 30.757 2.043-.033.543zm-30.66-32.526l-.056.54 30.739 3.156.056-.541-30.739-3.155zm283.536-3.803h-.547v88.95h.547v-88.95z" fill="#231F20"/><path d="M642.452 407.405v69.639l45.982.799v-63.769l-45.982-6.664v-.005zm-.552 69.903v-70.532l.309.044 46.529 6.744.234.033v64.789h-.276l-46.525-.81h-.277l.006-.268zM567.547 337.2v32.431l37.036-6.782v-34.344l-37.036 8.695zm-.553 32.756V336.77l.21-.049 37.583-8.823.337-.077v35.483l-.224.038-37.583 6.893-.323.058v-.337zm56.104-94.656v52.91l45.992 12.781v-48.595l-45.981-17.093-.011-.003zm-.553 53.114v-53.897l.368.138 46.525 17.3.177.066v49.684l-.345-.094-46.526-12.933-.199-.057v-.207z" fill="#231F20"/><path d="M604.808 302.602l-.162.518 113.794 35.588.162-.518-113.794-35.588zm37.644-80.167v33.613l45.982 19.258v-30.757l-45.982-22.114zm-.552 33.792v-34.658l.389.19 46.529 22.376.154.074v31.916l-.378-.16-46.528-19.487-.166-.069v-.182zm92.391-24.667h-.547v31.717h.547V231.56z" fill="#231F20"/><path d="M717.791 267.423l19.935-5.536.143.524-19.934 5.536-.144-.524zm84.884 26.961l-18.532 4.086-.173-.019-23.218-10.706.23-.493 23.134 10.669 18.44-4.066.119.529z" fill="#231F20"/><path d="M737.767 230.686l-19.65 6.237-.099 30.547 42.958 19.776-.229.494-43.116-19.848-.157-.074v-.174l.099-30.92.003-.198.188-.061 19.84-6.294.163.515z" fill="#231F20"/><path d="M734.263 262.988l-.239.488 65.139 31.767.239-.488-65.139-31.767z" fill="#231F20"/><path d="M755.727 228.332h-.546v258.579h.546V228.332zm-67.091-30.19l-92.683 35.212.194.507 92.682-35.211-.193-.508z" fill="#231F20"/><path d="M633.637 156.57h-.547v211.28h.547V156.57zM610.16 386.688h-.547v100.22h.547v-100.22zm-78.6 4.751h-.547v95.469h.547v-95.469z" fill="#231F20"/><path d="M688.723 232.901l-92.788 30.984.173.515 92.788-30.984-.173-.515z" fill="#231F20"/><path d="M642.452 172.379v37.189l45.982 23.139v-34.032l-45.982-26.296zm-.552 37.354v-38.295l.406.235 46.528 26.608.138.08v35.229l-.395-.199-46.528-23.412-.149-.078v-.168zm-15.058 11.607l-53.892-25.309.229-.491 53.892 25.309-.229.491zm-78.647 64.999l93.937-30.371.166.516-93.937 30.371-.166-.516z" fill="#231F20"/><path d="M548.213 256.663l-.183.512 47.742 17.023.183-.512-47.742-17.023zm-.04-10.703l93.94-36.494.193.507-93.934 36.494-.199-.507z" fill="#231F20"/><path d="M595.93 264.319l-47.788-17.84-.176-.067v-.187l.025-32.682v-.179l.162-.071 94.021-41.491.218.5-93.858 41.418-.024 32.315 47.61 17.777-.19.507zm-.014 9.435l92.703-29.578.165.519-92.705 29.577-.163-.518zm141.561-11.608v-32.174l.406.229 64.823 36.522.14.08v27.788l-.394-.193-64.823-32.006-.152-.077v-.169zm.552-31.242v31.074l64.279 31.739v-26.591l-64.279-36.222zm79.277 190.964l-179.882-31.292v5.106l179.882 29.5v-3.314zm-180.108-31.885l180.433 31.389.227.041v4.411l-.315-.05-180.433-29.593-.232-.039v-6.214l.32.055zm180.108-2.101l-179.882-47.558v5.101l179.882 45.741v-3.284zm-180.083-48.184l180.422 47.713.205.052v4.411l-.34-.085-180.425-45.882-.207-.052v-6.237l.345.08zM341.747 401.59h-.546v85.553h.546V401.59zm228.412-206.56l-9.045-4.246.229-.493 9.048 4.246-.232.493zM394.118 372.584l-52.727-7.566.078-.537 52.723 7.562-.074.541zm34.106 99.938v-23.911l-33.88 2.616v22.255l33.88-.96zm.553-24.206v24.736h-.277l-34.426.976h-.276v-23.319l.254-.019 34.426-2.661.293-.022.006.309zm52.889-280.583h-.544v50.246h.544v-50.246z" fill="#231F20"/><path d="M453.062 231.464l28.212-13.727.105-.053.11.042 20.277 7.664-.193.508-20.164-7.621-28.109 13.675-.238-.488z" fill="#231F20"/><path d="M481.409 168.036l-27.952 16.145v47.332l19.744 6.813 28.195-12.859v-48.539l-19.984-8.892h-.003zm-28.366 15.754l28.214-16.291.119-.069.127.055 20.271 9.018.163.075v49.237l-.16.074-28.441 12.975h-.199l-20.033-6.912-.183-.061v-48.027l.122-.074zm257.299 109.034l-226.465 58.282.136.527 226.465-58.283-.136-.526zm-255 65.751L343.301 387.41l.136.527 112.041-28.835-.136-.527z" fill="#231F20"/><path d="M453.258 331.918L341.739 364.93l-.005 13.107 52.469 6.694-.066.538-52.71-6.725-.234-.027v-.24l.002-13.551v-.201l.196-.058 111.713-33.07.154.521zm253.904-75.161l-225.692 66.81-.152-.521 225.692-66.81.152.521zM262.286 486.908V435.84l.185-.027 43.817-6.683.251-.039-.002.254-.003 57.704h-.434l.003-57.451-43.383 6.615v50.695h-.434zm120.084-53.839h-.547v53.839h.547v-53.839zm31.71 40.134h-.547v13.705h.547v-13.705z" fill="#231F20"/><path d="M357.151 486.908l.006-11.031v-.264l.265-.006 56.379-1.45.011.543-56.112 1.442-.005 10.766h-.544zm85.284-14.526h-.544v14.529h.544v-14.529zm-28.397-210.26h-.436v23.633h.436v-23.633zm403.751-110.25h-.436v77.621h.436v-77.621zM420.444 473.065h-.544v13.843h.544v-13.843zm25.898-.783h-.547v14.626h.547v-14.626zm6.483 14.626V258.573l.215-.093 28.212-12.269.257-.011 20.271 6.848.243.08v233.78h-.71V253.636l-19.904-6.725-27.875 12.123v227.874h-.709z" fill="#231F20"/><path d="M481.749 246.534h-.71v240.374h.71V246.534z" fill="#231F20"/><path fill-rule="evenodd" clip-rule="evenodd" d="M106.304 486.908H94.542V326.561l76.982 11.238v149.109h-11.552V351.239l-53.668-7.052v142.721z" fill="#fff"/><path fill-rule="evenodd" clip-rule="evenodd" d="M83.924 336.825l10.618-10.264v160.347H83.924V336.825z" fill="#E6E7E8"/><path fill-rule="evenodd" clip-rule="evenodd" d="M148.539 357.936l-42.235-5.159v-8.59l53.663 7.055-11.428 6.694z" fill="#B3B3B3"/><path fill-rule="evenodd" clip-rule="evenodd" d="M148.539 486.908h11.433V351.245l-11.433 6.683v128.98zm467.88-261.78v38.775l11.566-3.752v-39.426l-11.566 4.403z" fill="#D1D3D4"/><path fill-rule="evenodd" clip-rule="evenodd" d="M539.382 364.883l-25.929 5.184-19.031-3.273 25.823-5.486 19.137 3.575z" fill="#BCBEC0"/><path fill-rule="evenodd" clip-rule="evenodd" d="M539.382 364.883l-19.137-3.573v-42.885l19.137 4.792v41.666z" fill="#E6E7E8"/><path fill-rule="evenodd" clip-rule="evenodd" d="M494.422 366.794l25.823-5.484v-42.885l-25.823 7.356v41.013zm78.633-170.978v115.761l31.801-8.654V181.446l-31.801 14.37z" fill="#fff"/><path fill-rule="evenodd" clip-rule="evenodd" d="M413.856 295.286l-.008 83.727 24.716-5.495v-87.992l-24.708 9.76z" fill="#FFEF68"/><path opacity=".5" fill-rule="evenodd" clip-rule="evenodd" d="M380.804 308.34v78.023l21.536-4.789.008-81.742-21.544 8.508z" fill="#FFEF68"/><path fill-rule="evenodd" clip-rule="evenodd" d="M758.911 486.908h13.702V49.722l-89.676 46.459v390.727h13.454V127.084l62.52-29.304v389.128z" fill="#fff"/><path fill-rule="evenodd" clip-rule="evenodd" d="M784.98 62.587l-12.367-12.865v437.186h12.367V62.587z" fill="#E6E7E8"/><path fill-rule="evenodd" clip-rule="evenodd" d="M709.71 136.731l49.201-22.059V97.78l-62.515 29.304 13.314 9.647z" fill="#B3B3B3"/><path fill-rule="evenodd" clip-rule="evenodd" d="M709.71 486.908h-13.319v-359.83l13.319 9.653v350.177z" fill="#D1D3D4"/><path fill-rule="evenodd" clip-rule="evenodd" d="M528.092 470.19l-.003-60.963 28.215-3.659.006 63.836-28.218.786z" fill="#fff"/><path fill-rule="evenodd" clip-rule="evenodd" d="M556.31 469.404l-.006-63.835 20.274 2.583.003 61.803-20.271-.551z" fill="#E6E7E8"/><path fill-rule="evenodd" clip-rule="evenodd" d="M528.092 470.19l28.22-.789 20.269.555-28.347.749-20.142-.515z" fill="#D1D3D4"/><path fill-rule="evenodd" clip-rule="evenodd" d="M390.28 464.149l-.005-22.489 18.241-1.789v23.379l-18.236.899z" fill="#fff"/><path fill-rule="evenodd" clip-rule="evenodd" d="M408.517 463.25v-23.379l12.761.918v22.847l-12.761-.386z" fill="#E6E7E8"/><path fill-rule="evenodd" clip-rule="evenodd" d="M408.516 463.25l12.762.386-18.41.869-12.585-.356 18.233-.899z" fill="#A7A9AC"/><path fill-rule="evenodd" clip-rule="evenodd" d="M239.966 437.597l68.106-10.794-.003-4.036-68.064 11.543-.039 3.287z" fill="#fff"/><path fill-rule="evenodd" clip-rule="evenodd" d="M328.633 424.214l-20.561-1.447v4.036l20.552 1.389.009-3.978z" fill="#E6E7E8"/><path d="M517.493 486.908v-50.354l-26.277 2.258v48.096h-.544v-48.595l.252-.022 26.82-2.305.293-.024v50.946h-.544zm-277.767-49.267v-3.56l.226-.041 68.073-11.544h.066l20.561 1.448.251.016v4.467l-.232.033-70.477 10.383h-.052l-18.148-.932h-.26v-.259l-.008-.011zm.552-3.102v2.842l17.861.918 70.22-10.347v-3.487l-20.276-1.428-67.805 11.502z" fill="#231F20"/><path d="M308.345 422.761h-.547v4.045h.547v-4.045zm308.347-197.448v38.212l11.019-3.584V221.12l-11.019 4.193zm-.552 38.598v-38.968l.177-.068 11.563-4.412.37-.14v40.02l-.188.061-11.563 3.75-.359.115v-.358z" fill="#231F20"/><path d="M239.972 437.321l68.055-10.786.061-.003 20.415 1.373-.036.546-20.387-1.373-68.023 10.778-.085-.535zm280.627-118.896h-.71v42.882h.71v-42.882z" fill="#231F20"/><path d="M539.315 365.231l-19.064-3.562-25.755 5.47-.146-.692 25.821-5.484.141-.003 19.133 3.576-.13.695z" fill="#231F20"/><path d="M494.32 325.439l25.823-7.356h.182l19.134 4.792.276.069v42.232l-.276.058-25.926 5.18h-.129l-19.035-3.273-.295-.049v-41.579l.259-.074h-.013zm25.925-6.65l-25.473 7.256v40.451l18.67 3.209 25.578-5.111v-41.102l-18.775-4.703zm53.218-122.711v114.967l30.984-8.431V182.081l-30.984 13.997zm-.828 115.499V195.551l.24-.107 31.802-14.37.577-.259v122.411l-.304.083-31.799 8.654-.516.14v-.526zm-158.453-16.071v83.102l24.062-5.352v-87.25l-24.054 9.5h-.008zm-.66 83.507v-83.951l.207-.082 24.705-9.76.448-.177v88.734l-.257.056-24.705 5.502-.398.089v-.411zm-32.403-70.45v77.389L402 381.304v-80.998l-20.881 8.257zm-.654 77.8v-78.244l.207-.082 21.536-8.508.447-.18v82.484l-.257.058-21.536 4.789-.397.088v-.405z" fill="#231F20"/><path d="M682.727 182.615l-45.587-27.231-75.507 35.406.005 189.243h-.814l-.006-189.502-.003-.259.238-.111 75.938-35.604.196-.093.188.11 45.769 27.344-.417.697zm47.809 304.293l-.014-275.771-21.008-12.55.392-.654 21.191 12.66.185.111v.215l.016 275.989h-.762z" fill="#231F20"/><path d="M637.56 154.921h-.817v212.287h.817V154.921zm-80.87 250.647h-.764v63.839h.764v-63.839zm-147.848 34.303h-.654v23.379h.654v-23.379z" fill="#231F20"/><path d="M421.294 463.959l-18.41.871h-.025l-12.587-.356h-.318v-23.106l.293-.028 18.239-1.786h.055l12.762.915.303.022v23.462l-.309.014-.003-.008zm-18.432.22l18.09-.854v-22.233l-12.425-.89-17.913 1.756v21.877l12.248.344z" fill="#231F20"/><path d="M390.266 463.824l18.234-.899h.025l12.761.386-.017.651-12.747-.386-18.223.898-.033-.65zm137.818 5.988l28.217-.791h.019l20.272.554-.02.761-20.26-.554-28.206.788-.022-.758z" fill="#231F20"/><path d="M528.473 469.82l19.758.505 27.969-.739v-61.098l-19.893-2.539-27.834 3.609v60.262zm19.749 1.266l-20.138-.516h-.37v-61.668l.331-.045 28.215-3.655h.096l20.274 2.583.331.044v62.488h-.369l-28.347.749-.023.02zm-388.523 15.822V351.479l-53.122-6.984v142.413h-.546v-143.03l.309.038 53.668 7.055.238.031v135.906h-.547zM94.816 326.561h-.547v160.35h.547v-160.35z" fill="#231F20"/><path d="M83.65 486.908V336.712l.083-.08 10.619-10.267.1-.094.129.02 76.982 11.24.235.033v149.344h-.547V338.036l-76.618-11.188-10.436 10.093v149.967h-.547z" fill="#231F20"/><path d="M160.105 351.476l-11.428 6.694-.171.036-42.235-5.158.066-.541 42.144 5.147 11.35-6.647.274.469z" fill="#231F20"/><path d="M148.812 357.927h-.546v128.984h.546V357.927zM813.52 153.278v-29.96l.169-.069 7.747-3.182.376-.154v.405l-.089 30.074v.19l-.174.066-7.662 2.889-.367.138v-.397zm.552-29.596v29.205l7.113-2.683.088-29.48-7.201 2.958zM682.39 486.908V95.853l.295-.155 89.677-46.458.359-.185.282.292 12.369 12.862.155.377v424.322h-1.091V62.804L772.5 50.392l-89.019 46.12v390.396h-1.091z" fill="#231F20"/><path d="M773.157 49.722h-1.09v437.186h1.09V49.722zm-77.313 437.186V126.742l.318-.149 62.517-29.304.776-.364v389.983h-1.091V98.638l-61.426 28.791v359.479h-1.094z" fill="#231F20"/><path d="M709.489 136.234l49.198-22.058.445.989-49.201 22.062-.442-.993z" fill="#231F20"/><path d="M696.709 126.637l13.321 9.652.224.166v350.453h-1.091V137.006l-13.092-9.489.638-.88z" fill="#231F20"/><path fill-rule="evenodd" clip-rule="evenodd" d="M139.665 474.005l.036.615 2.173-.129-.039-.615-2.17.129zm-4.906.293l.036.614 2.173-.126-.039-.618-2.17.13zm-9.813.584l.036.618 2.173-.13-.039-.618-2.17.13zm-9.812.587l.036.615 2.172-.127-.038-.62-2.17.132zm402.314-24.019l.039.615 2.173-.129-.039-.615-2.173.129zm-9.809.585l.036.617 2.172-.129-.038-.618-2.17.13zM75.881 477.813l.038.617 2.17-.132-.035-.618-2.173.133zm421.945-25.191l.036.618 2.17-.13-.036-.617-2.17.129zm-436.664 26.07l.039.615 2.17-.13-.036-.617-2.173.132zm421.942-25.193l.039.617 2.17-.129-.036-.618-2.173.13zM41.54 479.861l.035.618 2.173-.13-.038-.615-2.17.127zm421.942-25.188l.036.615 2.17-.129-.036-.615-2.17.129zm-19.628 1.172l.039.615 2.17-.13-.036-.615-2.173.13zm-19.622 1.169l.036.618 2.17-.13-.036-.618-2.17.13zm-98.126 5.859l.036.617 2.173-.129-.039-.618-2.17.13zM129.853 474.59l.035.617 2.173-.129-.038-.618-2.17.13zm-9.813.584l.036.618 2.173-.13-.039-.617-2.17.129zm-9.813.588l.036.614 2.173-.126-.038-.618-2.171.13zm412.128-24.607l.038.618 2.17-.13-.035-.614-2.173.126zm-9.813.588l.039.617 2.17-.132-.036-.615-2.173.13zM80.79 477.518l.036.617 2.173-.129-.04-.618-2.17.13zm421.94-25.188l.038.615 2.17-.13-.036-.617-2.172.132zM70.975 478.105l.038.618 2.173-.133-.039-.615-2.172.13zm421.942-25.191l.036.618 2.173-.13-.036-.617-2.173.129zM51.352 479.277l.036.614 2.173-.129-.039-.615-2.17.13zm421.94-25.191l.039.618 2.17-.133-.036-.615-2.173.13zm-19.625 1.172l.038.617 2.173-.129-.038-.618-2.173.13zm-19.623 1.171l.036.618 2.173-.132-.038-.615-2.171.129zm-78.5 4.687l.036.618 2.173-.132-.039-.615-2.17.129zm-39.25 2.344l.036.615 2.173-.13-.039-.615-2.17.13zm-9.813.587l.036.615 2.173-.13-.039-.617-2.17.132zm-9.815.585l.039.614 2.172-.129-.038-.615-2.173.13zm-9.813.584l.039.618 2.17-.13-.036-.618-2.173.13zm-9.809.587l.036.615 2.172-.13-.038-.614-2.17.129zm-9.813.585l.036.617 2.17-.129-.036-.618-2.17.13zm-9.812.587l.035.615 2.173-.13-.038-.617-2.17.132zm-9.813.584l.036.618 2.17-.13-.036-.617-2.17.129zm-9.813.585l.036.618 2.173-.13-.038-.615-2.171.127zM66.06 478.397l.038.618 2.17-.13-.035-.617-2.173.129zm421.943-25.19l.038.617 2.17-.129-.036-.618-2.172.13zM56.247 478.984l.04.615 2.172-.129-.039-.615-2.173.129zm421.943-25.193l.039.618 2.17-.13-.036-.615-2.173.127zM46.438 479.569l.035.618 2.17-.13-.035-.618-2.17.13zm421.939-25.191l.039.618 2.17-.13-.036-.617-2.173.129zM37.992 480.073v.621l.842-.053-.039-.614-.803.046zm420.573-25.107l.038.614 2.171-.126-.036-.618-2.173.13zm-9.81.584l.036.618 2.17-.13-.036-.618-2.17.13zm-9.812.585l.035.617 2.17-.129-.035-.618-2.17.13zm-9.813.587l.036.617 2.17-.129-.036-.618-2.17.13zm-68.688 4.099l.036.618 2.173-.13-.039-.614-2.17.126zm-9.813.588l.036.617 2.173-.129-.038-.618-2.171.13zm-19.625 1.171l.036.615 2.173-.129-.038-.615-2.171.129zm-9.812.588l.036.614 2.173-.129-.039-.615-2.17.13zm-9.813.584l.036.618 2.173-.13-.036-.618-2.173.13zm-9.815.585l.039.617 2.17-.129-.036-.618-2.173.13zm-9.81.587l.036.615 2.17-.13-.036-.615-2.17.13zm-9.815.584l.038.618 2.171-.13-.036-.615-2.173.127zm-9.813.587l.039.618 2.173-.13-.039-.617-2.173.129zm-9.81.588l.036.615 2.173-.13-.038-.618-2.171.133zm-9.815.584l.039.615 2.173-.127-.039-.617-2.173.129zm-9.81.585l.036.617 2.173-.129-.038-.618-2.171.13zm-9.812.587l.036.615 2.173-.127-.039-.618-2.17.13zm-34.347 2.048l.039.621 2.17-.133-.036-.614-2.173.126zm-4.906.295l.039.615 2.17-.129-.036-.615-2.173.129zm-4.906.293l.038.617 2.17-.129-.036-.618-2.172.13zm-4.907.292l.036.617 2.173-.129-.036-.618-2.173.13zm-4.906.295l.036.615 2.173-.13-.039-.615-2.17.13zm-4.906.292l.036.618 2.173-.13-.036-.617-2.173.129zm-29.438 1.756l.036.618 2.173-.13-.039-.617-2.17.129zm610.179-36.428l.038.618 2.17-.133-.036-.614-2.172.129zm-9.813.585l.036.617 2.173-.129-.036-.618-2.173.13zm-9.813.587l.036.615 2.173-.13-.036-.615-2.173.13zm-9.812.587l.036.615 2.173-.13-.036-.617-2.173.132zm-9.813.585l.036.614 2.173-.126-.036-.618-2.173.13zm-53.969 3.22l.039.617 2.17-.129-.036-.618-2.173.13zm-19.625 1.172l.036.617 2.173-.13-.036-.617-2.173.13zm-19.625 1.171l.036.618 2.173-.13-.039-.617-2.17.129zm-19.625 1.172l.039.618 2.17-.13-.036-.618-2.173.13zm-19.625 1.172l.039.617 2.17-.129-.036-.618-2.173.13zm166.813-9.959l.036.618 2.173-.132-.036-.615-2.173.129zm-9.812.585l.036.618 2.173-.13-.039-.618-2.17.13zm-9.813.587l.036.618 2.173-.13-.036-.617-2.173.129zm-9.812.587l.038.615 2.17-.129-.035-.615-2.173.129zm-9.813.585l.036.617 2.173-.132-.039-.615-2.17.13zm-39.25 2.343l.036.618 2.173-.13-.036-.617-2.173.129zm-19.625 1.172l.036.615 2.172-.13-.013-.62-2.195.135zm-19.625 1.172l.036.617 2.173-.129-.036-.618-2.173.13zm-19.595 1.174l.039.615 2.17-.13-.036-.614-2.173.129zm-19.625 1.172l.036.618 2.173-.13-.036-.618-2.173.13zm83.404-4.982l.038.615 2.171-.13-.036-.615-2.173.13zm-9.813.585l.036.617 2.173-.129-.036-.618-2.173.13zm-9.812.587l.035.615 2.173-.13-.035-.615-2.173.13zm-9.813.584l.039.618 2.17-.13-.039-.617-2.17.129zm-9.813.588l.039.614 2.17-.129-.036-.615-2.173.13zm-9.812.584l.036.618 2.173-.13-.036-.618-2.173.13zm-9.813.587l.036.618 2.173-.133-.036-.614-2.173.129zm-9.812.585l.039.617 2.17-.129-.036-.618-2.173.13zm-9.813.584l.039.618 2.17-.13-.036-.615-2.173.127zm-9.812.587l.036.618 2.173-.13-.036-.617-2.173.129zm-9.813.588l.036.614 2.173-.129-.036-.615-2.173.13zm262.206-15.655l-2.17.13.035.618 2.173-.133-.038-.615zm-7.077.422l.036.615 2.173-.129-.039-.615-2.17.129zm-4.909.293l.039.617 2.173-.132-.039-.615-2.173.13zm-4.906.295l.039.614 2.173-.129-.039-.615-2.173.13zm-4.906.292l.036.615 2.173-.13-.036-.615-2.173.13zm-4.907.292l.039.618 2.173-.13-.039-.618-2.173.13zm-4.906.292l.039.618 2.17-.13-.036-.617-2.173.129zm-4.906.293l.039.617 2.17-.129-.036-.618-2.173.13zm-4.906.295l.035.614 2.173-.129-.035-.615-2.173.13zm-4.907.292l.036.615 2.173-.13-.036-.615-2.173.13zm-4.906.292l.039.618 2.173-.13-.039-.618-2.173.13z" fill="#231F20"/><path fill-rule="evenodd" clip-rule="evenodd" d="M433.517 376.027v1.61h.613v-1.61h-.613zm0 12.539h.613v-1.613h-.618l.005 1.613zm0 14.571h.613v-1.613h-.618l.005 1.613zm0 14.568h.613v-1.613h-.618l.005 1.613zm0 14.57h.613v-1.612h-.618l.005 1.612zm0 14.568h.613v-1.615h-.618l.005 1.615zm0 14.568h.613v-1.61h-.618l.005 1.61zm0 14.574h.613v-1.613h-.618l.005 1.613zm0-94.706h.613v-1.61h-.618l.005 1.61zm0 14.571h.613v-1.627h-.618l.005 1.627zm0 14.568h.613v-1.61h-.618l.005 1.61zm0 14.573h.613v-1.615h-.618l.005 1.615zm0 14.568h.613v-1.612h-.618l.005 1.612zm0 14.571h.613v-1.613h-.618l.005 1.613zm0 14.568h.613v-1.613h-.618l.005 1.613zm0 14.571h.613v-1.613h-.618l.005 1.613zm0-98.345h.613v-1.613h-.618l.005 1.613zm0 7.284h.613v-1.613h-.618l.005 1.613zm0 7.284h.613v-1.61h-.618l.005 1.61zm0 7.287h.613v-1.613h-.618l.005 1.613zm0 7.284h.613v-1.613h-.618l.005 1.613zm0 7.284h.613v-1.613h-.618l.005 1.613zm0 7.284h.613v-1.599h-.618l.005 1.599zm0 7.286h.613v-1.613h-.618l.005 1.613zm0 7.284h.613v-1.612h-.618l.005 1.612zm0 7.284h.613v-1.61h-.618l.005 1.61zm0 7.287h.613v-1.613h-.618l.005 1.613zm0 7.284h.613v-1.613h-.618l.005 1.613zm0 7.284h.613v-1.613h-.618l.005 1.613zm0 7.287h.613v-1.613h-.618l.005 1.613zm0 7.284h.613v-1.613h-.618l.005 1.613zm-16.955-225.548l-5.486 2.534v-5.734l5.486-2.603v5.803zm106.292 14.505h.619v-2.172h-.619v2.172zm0 4.908h.619v-2.173h-.619v2.173zm0 9.815h.619v-2.173h-.619v2.173zm0 9.814h.619v-2.169h-.619v2.169zm0 9.818h.619v-2.172h-.619v2.172zm0 9.815h.619v-2.184h-.619v2.184zm0 9.818h.619v-2.173h-.619v2.173zm0 9.815h.619v-2.173h-.619v2.173zm0 14.725h.619v-2.173h-.619v2.173zm0 19.63h.619v-2.173h-.619v2.173zm0 19.632h.619v-2.172h-.619v2.172zm0 19.633h.619v-2.173h-.619v2.173zm0 19.63h.619v-2.173h-.619v2.173zm0-422.097h.619V8.65h-.619v2.173zm0 441.715h.619v-2.172h-.619v2.172zm0-422.096h.619V28.27h-.619v2.173zm0 441.718h.619v-2.172h-.619v2.172zm0-422.097h.619v-2.172h-.619v2.172zm0 19.63h.619v-2.172h-.619v2.172zm0 19.633h.619v-2.173h-.619v2.173zm0 196.32h.619v-2.172h-.619v2.172zm0 9.818h.619v-2.148h-.619v2.148zm0 9.815h.619v-2.173h-.619v2.173zm0 9.815h.619v-2.173h-.619v2.173zm0 9.817h.619v-2.175h-.619v2.175zm0 9.815h.619v-2.172h-.619v2.172zm0 9.818h.619v-2.175h-.619v2.175zm0 19.63h.619v-2.173h-.619v2.173zm0 19.63h.619v-2.173h-.619v2.173zm0 19.632h.619v-2.172h-.619v2.172zm0 19.633h.619v-2.173h-.619v2.173zm0-423.106v1.02h.619v-1.02h-.619zm0 442.736h.619v-2.173h-.619v2.173zm0-422.083h.619v-2.173h-.619v2.173zm0 441.715h.619v-2.172h-.619v2.172zm0-422.083h.619v-2.172h-.619v2.172zm0 441.716h.619v-2.173h-.619v2.173zm0-422.097h.619v-2.172h-.619v2.172zm0 19.633h.619v-2.173h-.619v2.173zm0 19.63h.619v-2.112h-.619v2.112zm0 9.817h.619v-2.172h-.619v2.172zm0 9.815h.619v-2.172h-.619v2.172zm0 9.818h.619v-2.173h-.619v2.173zm0 9.815h.619v-2.173h-.619v2.173zm0 9.815h.619v-2.118h-.619v2.118zm0 9.817h.619v-2.172h-.619v2.172zm0 9.815h.619v-2.172h-.619v2.172zm0 9.815h.619v-2.172h-.619v2.172zm0 9.818h.619v-2.173h-.619v2.173zm0 161.965h.619v-2.172h-.619v2.172zm0 9.815h.619v-2.172h-.619v2.172zm0 9.815h.619v-2.172h-.619v2.172zm0 9.815h.619v-2.172h-.619v2.172zm0 9.818h.619v-2.173h-.619v2.173zm0 9.815h.619v-2.173h-.619v2.173zm0 9.815h.619v-2.173h-.619v2.173zm0 9.817h.619v-2.172h-.619v2.172zm0 9.815h.619v-2.172h-.619v2.172zm0-422.083h.619V3.708h-.619v2.175zm0 431.898h.619v-2.169h-.619v2.169zm0-422.083h.619v-2.172h-.619v2.172zm0 431.901h.619v-2.173h-.619v2.173zm0-422.097h.619V23.33h-.619v2.172zm0 431.901h.619v-2.173h-.619v2.173zm0-422.097h.619v-2.172h-.619v2.172zm0 431.903h.619v-2.175h-.619v2.175zm0-422.096h.619V42.94h-.619v2.173zm0 431.9h.619v-2.175h-.619v2.175zm0-422.096h.619v-2.173h-.619v2.173zm0 431.9h.619v-2.172h-.619v2.172zm0-422.096h.619v-2.173h-.619v2.172zm0 9.817h.619v-2.056h-.619v2.056zm0 9.815h.619v-2.172h-.619v2.172zm0 9.815h.619v-2.172h-.619v2.172zm0 9.818h.619v-2.173h-.619v2.173zm0 9.815h.619v-2.173h-.619v2.173zm0 9.817h.619v-2.062h-.619v2.062zm0 9.815h.619v-2.172h-.619v2.172zm0 9.815h.619v-2.172h-.619v2.172zm0 9.815h.619v-2.172h-.619v2.172zm0 9.818h.619v-2.173h-.619v2.173zm0 9.815h.619v-2.065h-.619v2.065zm0 9.815h.619v-2.17h-.619v2.17zm0 9.817h.619v-2.172h-.619v2.172zm0 4.908h.619v-2.068h-.619v2.068zm0 4.907h.619v-2.172h-.619v2.172zm0 4.908h.619v-2.17h-.619v2.17zm0 4.91h.619v-2.173h-.619v2.173zm0 4.907h.619v-2.172h-.619v2.172zm0 4.908h.619v-2.071h-.619v2.071zm0 4.91h.619v-2.175h-.619v2.175zm0 4.907h.619v-2.172h-.619v2.172zm0 4.908h.619v-2.173h-.619v2.173zm0 4.907h.619v-2.172h-.619v2.172zm0 4.911h.619v-2.076h-.619v2.076zm0 4.907h.619v-2.172h-.619v2.172zm0 4.908h.619v-2.173h-.619v2.173zm0 4.907h.619v-2.173h-.619v2.173zm0 4.907h.619v-2.172h-.619v2.172zm0 4.911h.619v-2.079h-.619v2.079zm94.39 5.009h.619v-2.173h-.619v2.173zm0 4.907h.619v-2.172h-.619v2.172zm0 9.815h.619v-2.172h-.619v2.172zm0 9.815h.619v-2.17h-.619v2.17zm0 9.818h.619v-2.173h-.619v2.173zm0 9.815h.619v-2.184h-.619v2.184zm0 9.818h.619v-2.173h-.619v2.173zm0 9.814h.619v-2.172h-.619v2.172zm0 14.726h.619v-2.173h-.619v2.173zm0 19.629h.619v-2.172h-.619v2.172zm0 19.633h.619v-2.172h-.619v2.172zm0 19.633h.619v-2.173h-.619v2.173zm0 19.63h.619v-2.173h-.619v2.173zm0 19.632h.619v-2.172h-.619v2.172zm0 19.633h.619v-2.173h-.619v2.173zm0-186.503h.619v-2.173h-.619v2.173zm0 9.818h.619v-2.184h-.619v2.184zm0 9.814h.619v-2.172h-.619v2.172zm0 9.815h.619v-2.172h-.619v2.172zm0 9.818h.619v-2.175h-.619v2.175zm0 9.815h.619v-2.173h-.619v2.173zm0 9.818h.619v-2.176h-.619v2.176zm0 19.629h.619v-2.172h-.619v2.172zm0 19.63h.619v-2.172h-.619v2.172zm0 19.633h.619V401.3h-.619v2.173zm0 19.633h.619v-2.173h-.619v2.173zm0 19.629h.619v-2.172h-.619v2.172zm0 19.633h.619v-2.172h-.619v2.172zm0 19.633h.619v-2.173h-.619v2.173zm0-132.513h.619v-2.172h-.619v2.172zm0 9.815h.619v-2.172h-.619v2.172zm0 9.815h.619v-2.173h-.619v2.173zm0 9.815h.619v-2.173h-.619v2.173zm0 9.818h.619v-2.173h-.619v2.173zm0 9.815h.619v-2.173h-.619v2.173zm0 9.814h.619v-2.172h-.619v2.172zm0 9.818h.619v-2.172h-.619v2.172zm0 9.815h.619v-2.173h-.619v2.173zm0 9.815h.619v-2.17h-.619v2.17zm0 9.818h.619v-2.173h-.619v2.173zm0 9.815h.619v-2.173h-.619v2.173zm0 9.817h.619v-2.175h-.619v2.175zm0 9.815h.619v-2.175h-.619v2.175zm0 9.815h.619v-2.172h-.619v2.172zm0-267.203v2.173h.619v-2.173h-.619zm0 7.083h.619v-2.175h-.619v2.175zm0 4.907h.619v-2.172h-.619v2.172zm0 4.908h.619v-2.173h-.619v2.173zm0 4.907h.619v-2.172h-.619v2.172zm0 4.91h.619v-2.178h-.619v2.178zm0 4.908h.619v-2.173h-.619v2.173zm0 4.907h.619v-2.172h-.619v2.172zm0 4.908h.619v-2.173h-.619v2.173zm0 4.907h.619v-2.172h-.619v2.172zm0 4.91h.619v-2.18h-.619v2.18zm123.668 5.101h.618v-2.17h-.618v2.17zm0 4.905h.618v-2.17h-.618v2.17zm0 9.807h.618v-2.17h-.618v2.17zm0 9.806h.618v-2.17h-.618v2.17zm0 9.807h.618v-2.181h-.618v2.181zm0 9.806h.618v-2.169h-.618v2.169zm0 9.807h.618v-2.17h-.618v2.17zm0 9.807h.618v-2.17h-.618v2.17zm0 14.711h.618v-2.17h-.618v2.17zm0 19.613h.618v-2.169h-.618v2.169zm0 19.614h.618v-2.17h-.618v2.17zm0 19.613h.618v-2.17h-.618v2.17zm0 19.613h.618v-2.169h-.618v2.169zm0 19.614h.618v-2.17h-.618v2.17zm0 19.613h.618v-2.156h-.618v2.156zm0-186.329h.618v-2.17h-.618v2.17zm0 9.806h.618v-2.169h-.618v2.169zm0 9.81h.618v-2.173h-.618v2.173zm0 9.807h.618v-2.173h-.618v2.173zm0 9.806h.618v-2.172h-.618v2.172zm0 9.807h.618v-2.162h-.618v2.162zm0 9.806h.618v-2.169h-.618v2.169zm0 19.614h.618v-2.17h-.618v2.17zm0 19.613h.618v-2.17h-.618v2.17zm0 19.613h.618v-2.158h-.618v2.158zm0 19.614h.618v-2.17h-.618v2.17zm0 19.613h.618v-2.17h-.618v2.17zm0 19.613h.618v-2.17h-.618v2.17zm0 19.616h.618v-2.172h-.618v2.172zm0-335.607v2.176h.618v-2.173l-.618-.003zm0 11.98h.618v-2.173h-.618v2.173zm0 9.806h.618v-2.172h-.618v2.172zm0 9.807h.618v-2.173h-.618v2.173zm0 9.807h.618v-2.17h-.618v2.17zm0 161.816h.618v-2.172h-.618v2.172zm0 9.807h.618v-2.173h-.618v2.173zm0 9.807h.618v-2.173h-.618v2.173zm0 9.806h.618v-2.181h-.618v2.181zm0 9.807h.618v-2.173h-.618v2.173zm0 9.806h.618v-2.172h-.618v2.172zm0 9.807h.618v-2.17h-.618v2.17zm0 9.807h.618v-2.173h-.618v2.173zm0 9.806h.618v-2.172h-.618v2.172zm0 9.807h.618v-2.17h-.618v2.17zm0 9.807h.618v-2.178h-.618v2.178zm0 9.806h.618v-2.172h-.618v2.172zm0 9.807h.618v-2.17h-.618v2.17zm0 9.807h.618v-2.17h-.618v2.17zm0 9.806h.618v-2.172h-.618v2.172zm0-333.434h.618v-2.17h-.618v2.17zm0 9.807h.618v-2.17h-.618v2.17zm0 9.806h.618v-2.181h-.618v2.181zm0 9.807h.618v-2.17h-.618v2.17zm0 9.807h.618v-2.17h-.618v2.17zm0 4.904h.618v-2.161h-.618v2.161zm0 4.905h.618v-2.173h-.618v2.173zm0 4.902h.618v-2.17h-.618v2.17zm0 4.905h.618v-2.173h-.618v2.173zm0 4.901h.618v-2.169h-.618v2.169zm0 4.905h.618v-2.17h-.618v2.17zm0 4.905h.618v-2.173h-.618v2.173zm0 4.902h.618v-2.17h-.618v2.17zm0 4.905h.618v-2.173h-.618v2.173zm0 4.904h.618v-2.183h-.618v2.183zm0 4.902h.618v-2.17h-.618v2.17zm0 4.905h.618v-2.173h-.618v2.173zm0 4.902h.618v-2.17h-.618v2.17zm0 4.905h.618v-2.173h-.618v2.173zm0 4.901h.618v-2.161h-.618v2.161zm0 4.905h.618v-2.17h-.618v2.17zm27.419-37.548l1.867 1.103.32-.529-1.869-1.103-.318.529zm-8.443-5.028l1.869 1.102.318-.529-1.869-1.103-.318.53zm16.886 10.06l1.867 1.103.317-.53-1.869-1.102-.315.529zM764.11 231.1l1.869 1.103.317-.53-1.869-1.103-.317.53zm8.443 5.029l1.869 1.102.315-.529-1.867-1.103-.317.53zm8.758 4.496l-.318.532 1.869 1.103.315-.532-1.866-1.103zm-88.432-52.074l1.866 1.103.318-.529-1.869-1.103-.315.529zm-8.443-5.031l1.869 1.102.318-.529-1.87-1.103-.317.53zm16.883 10.06l1.869 1.103.318-.53-1.869-1.102-.318.529zm-12.662-7.543l1.867 1.103.317-.53-1.866-1.103-.318.53zm8.444 5.026l1.866 1.103.317-.53-1.869-1.103-.314.53zm8.757 4.499l-.317.532 1.866 1.103.318-.529-1.867-1.106zm-73.025-29.591l.257.552 1.979-.902-.257-.551-1.979.901zm-17.889 8.145l.257.551 1.98-.902-.257-.551-1.98.902zm-17.888 8.146l.257.552 1.979-.899-.256-.551-1.98.898zm-17.888 8.145l.256.551 1.98-.902-.257-.551-1.979.902zm64.587-29.409l-1.979.901.256.552 1.98-.905-.257-.548zm-19.879 9.045l.257.552 1.98-.902-.257-.551-1.98.901zm-17.886 8.145l.257.551 1.977-.901-.257-.552-1.977.902zm-17.88 8.158l.257.551 1.98-.902-.254-.551-1.983.902zm-17.885 8.144l.256.551 1.98-.901-.259-.552-1.977.902zm67.078-30.545l.257.551 1.979-.901-.256-.552-1.98.902zm-8.943 4.072l.257.551 1.979-.901-.256-.551-1.98.901zm-8.943 4.075l.254.551 1.983-.901-.257-.552-1.98.902zm-8.945 4.072l.256.551 1.98-.901-.257-.552-1.979.902zm-8.943 4.072l.257.551 1.979-.901-.257-.551-1.979.901zm-8.946 4.072l.257.552 1.98-.902-.254-.551-1.983.901zm-8.943 4.072l.257.552 1.98-.902-.257-.551-1.98.901zm-8.945 4.075l.256.552 1.98-.902-.257-.551-1.979.901zm62.136-156.002v1.354h.618v-1.15l1.154.935.384-.472-1.538-1.249v-.242h-.618v.093l-1.784 1.136.332.521 1.452-.926zm-7.908 5.034l-.331-.52-1.833 1.168.331.521 1.833-1.169zm-8.283 5.277l-.331-.518-1.833 1.166.331.521 1.833-1.169zm-8.283 5.277l-.331-.521-1.836 1.169.334.521 1.833-1.169zm-8.283 5.277l-.331-.521-1.836 1.169.334.52 1.833-1.168zm-10.455 5.925l.331.52 1.836-1.168-.334-.518-1.833 1.166zM583.003 70l-1.834 1.166.332.521 1.836-1.166-.334-.52zm-16.566 10.551l-1.834 1.17.334.52 1.831-1.169-.331-.52zm66.633-41.705l-.334-.521-1.836 1.169.334.521 1.836-1.169zm-8.283 5.277l-.334-.521-1.833 1.169.331.52 1.836-1.168zm-8.283 5.277l-.334-.521-1.836 1.169.334.52 1.836-1.168zm-8.282 5.277l-.332-.521-1.836 1.169.334.52 1.834-1.168zm-10.456 5.925l.331.52 1.836-1.168-.331-.521-1.836 1.169zm-8.283 5.277l.331.52 1.836-1.168-.331-.521-1.836 1.169zm-14.744 9.373l-1.833 1.166.331.521 1.836-1.168-.334-.519zm12.424-7.915l-1.833 1.166.331.521 1.836-1.169-.334-.518zm-8.283 5.277l-1.833 1.166.331.521 1.837-1.169-.335-.518zm-8.283 5.277l-1.833 1.166.332.521 1.836-1.169-.335-.518zm-8.282 5.277l-1.834 1.166.332.52 1.833-1.168-.331-.518zm96.397 54.467l.262.551 1.933-.921-.263-.551-1.932.921zm-8.714 4.163l.276.551 1.933-.923-.262-.552-1.947.924zm-8.716 4.166l.276.551 1.932-.923-.276-.552-1.932.924zm-13.074 6.25l.276.551 1.933-.921-.262-.551-1.947.921zm-17.427 8.329l.276.551 1.933-.921-.263-.551-1.946.921zm-17.43 8.331l.276.552 1.933-.924-.263-.551-1.946.923zm61.004-29.158l.262.552 1.933-.924-.262-.551-1.933.923zm-8.733 4.172l.262.551 1.933-.921-.262-.551-1.933.921zm-8.717 4.166l.263.551 1.932-.924-.259-.551-1.936.924zm-17.43 8.331l.263.552 1.932-.921-.262-.552-1.933.921zm-17.427 8.329l.262.552 1.933-.921-.276-.552-1.919.921zm30.501-14.579l.262.552 1.933-.924-.263-.551-1.932.923zm-8.739 4.177l.262.551 1.933-.923-.262-.552-1.933.924zm-8.716 4.166l.262.551 1.933-.923-.263-.552-1.932.924zm-8.703 4.157l.262.552 1.933-.924-.276-.551-1.919.923zm-8.714 4.166l.26.552 1.933-.924-.263-.551-1.93.923zm-8.319 3.976l-1.816-.951-.276.551 1.896.993.072.148 1.933-.92-.262-.552-1.547.731zm39.057-50.128l-1.932 1.006.276.552 1.933-1.009-.277-.549zm-13.065 6.829l-1.932 1.009.276.552 1.932-1.007-.276-.554zm-17.416 9.098l-1.933 1.006.276.552 1.933-1.009-.276-.549zm-19.343 10.116l.276.551 1.932-1.009-.276-.551-1.932 1.009zm-15.49 8.1l-1.593.827v-1.12h-.618v2.181h.246l1.932 1.007.29-.552-1.72-.899 1.762-.921-.299-.523zm69.669-36.431l-1.933 1.006.276.551 1.933-1.009-.276-.548zm-8.711 4.574l-1.933 1.009.276.551 1.933-1.009-.276-.551zm-17.417 9.098l-1.933 1.009.277.551 1.932-1.009-.276-.551zm-19.051 10.661l1.933-1.006-.276-.552-1.933 1.009.276.549zm-17.703 8.547l.276.551 1.933-1.009-.276-.551-1.933 1.009zm49.822-26.054l-1.933 1.009.276.551 1.933-1.006-.276-.554zm-8.708 4.555l-1.933 1.009.276.551 1.933-1.009-.276-.551zm-8.708 4.554l-1.933 1.006.276.552 1.933-1.009-.276-.549zm-8.709 4.552l-1.932 1.009.276.551 1.933-1.006-.277-.554zm-10.638 5.591l.276.552 1.933-1.007-.276-.551-1.933 1.006zm-8.71 4.552l.276.551 1.932-1.009-.276-.551-1.932 1.009zm-8.709 4.546l.276.552 1.933-1.009-.276-.552-1.933 1.009zm-4.02-53.21h-.618v2.184h.618v-2.184zm0 19.707h-.618v2.181h.618v-2.181zm0 19.71h-.618v2.181h.618v-2.181zm0-49.27h-.618v2.18h.618v-2.18zm0 19.707h-.618v2.18h.618v-2.18zm0 19.707h-.618v2.183h.618v-2.183zm-.618 21.89h.618v-2.181h-.618v2.181zm.618-66.231h-.618v2.18h.618v-2.18zm0 9.856h-.618v2.178h.618v-2.178zm0 9.851h-.618v2.181h.618v-2.181zm0 9.853h-.618v2.181h.618v-2.181zm0 9.857h-.618v2.178h.618v-2.178zm0 9.853h-.618v2.178h.618v-2.178zm0 9.854h-.618v2.181h.618v-2.181zm75.928-104.127h-.619v2.178h.619v-2.178zm0 19.669h-.619v2.178h.619v-2.178zm0 19.668h-.619v2.175h.619v-2.175zm0 19.669h-.619v2.175h.619V99.55zm0-49.171h-.619v2.178h.619v-2.178zm0 19.668h-.619v2.175h.619v-2.175zm0 19.669h-.619v2.175h.619v-2.175zm-.619 21.843h.619v-2.175h-.619v2.175zm.632-66.096h-.618v2.175h.618v-2.175zm0 9.834h-.618v2.175h.618v-2.175zm0 9.834h-.618v2.176h.618V65.13zm0 9.832h-.618v2.178h.618v-2.178zm0 9.834h-.618v2.178h.618v-2.178zm0 9.834h-.618v2.178h.618v-2.178zm0 9.834h-.618v2.178h.618v-2.178zm27.213-23.92h.618V78.34h-.607l-.011 2.206zm0 19.879h.618v-2.206h-.607l-.011 2.206zm0 19.88h.618v-2.205h-.607l-.011 2.205zm0-49.697h.618V68.4h-.607l-.011 2.206zm0 19.878h.618v-2.206h-.607l-.011 2.206zm0 19.88h.618v-2.205h-.607l-.011 2.205zm0 19.881h.618v-2.205h-.607l-.011 2.205zm0-64.61h.618V63.43h-.607l-.011 2.206zm0 9.925h.618v-2.206h-.607l-.011 2.206zm0 9.942h.618v-2.206h-.607l-.011 2.206zm0 9.925h.618v-2.206h-.607l-.011 2.206zm0 9.939h.618v-2.206h-.607l-.011 2.206zm0 9.942h.618v-2.206h-.607l-.011 2.206zm0 9.925h.618v-2.206h-.607l-.011 2.206zm0 9.172l-1.381-.923-.345.515 1.381.918-1.279.61.276.551 1.883-.901h.1v-2.206h-.624l-.011 1.436zm-10.625-85.083l-1.656-1.351-.387.474 1.657 1.35.386-.473zm-7.523-6.104l-1.657-1.351-.384.471 1.657 1.351.384-.471zm13.001 11.33l1.657 1.352.386-.474-1.656-1.349-.387.472zM642.75 40.168l-1.656-1.351-.387.471 1.657 1.351.386-.471zm7.527 6.123l-1.657-1.351-.386.471 1.656 1.354.387-.474zm7.524 6.104l-1.657-1.351-.387.474 1.657 1.351.387-.474zm5.861 4.756l-.386.471 1.38 1.125v1.93h.619v-2.123l.047-.055-1.66-1.348zm-16.433 65.691l-1.809-1.205-.345.513 1.811 1.207.343-.515zm-8.521-4.935l.345-.513-1.604-1.067v-2.013h-.618v1.955l-1.637.855.276.551 1.609-.843 1.629 1.075zm16.696 10.385l-1.808-1.204-.346.512 1.812 1.205.342-.513zm-12.267-8.188l-1.808-1.205-.346.513 1.812 1.208.342-.516zm8.178 5.451l-1.811-1.208-.343.513 1.809 1.207.345-.512zm8.175 5.448l-1.811-1.205-.342.513 1.808 1.204.345-.512zm-85.301 32.532l1.933 1.009.276-.551-1.932-1.007-.277.549zm-8.708-4.554l1.933 1.009.276-.552-1.932-1.006-.277.549zm17.417 9.098l1.932 1.009.276-.552-1.932-1.006-.276.549zm-13.063-6.832l1.933 1.009.276-.552-1.933-1.006-.276.549zm8.709 4.554l1.932 1.009.276-.551-1.932-1.009-.276.551z" fill="#231F20"/><path fill-rule="evenodd" clip-rule="evenodd" d="M731.373 174.614l1.803 1.219.345-.51-1.8-1.221-.348.512zm16.27 11.028l1.8 1.219.348-.51-1.8-1.219-.348.51zM723.239 169.1l1.8 1.219.348-.51-1.8-1.219-.348.51zm16.27 11.028l1.8 1.222.348-.513-1.8-1.219-.348.51zm-12.203-8.271l1.8 1.222.348-.513-1.8-1.219-.348.51zm8.136 5.514l1.801 1.219.345-.51-1.801-1.219-.345.51zm8.134 5.514l1.8 1.219.348-.513-1.8-1.218-.348.512zm8.482 4.999l-.348.51 1.803 1.221.34-.512-1.795-1.219z" fill="#231F20"/><path fill-rule="evenodd" clip-rule="evenodd" d="M726.939 185.863l.218.576 2.035-.766-.216-.579-2.037.769zm29.628-11.163l-2.035.766.218.579 2.035-.766-.218-.579zm-6.627 2.501l.218.576 2.038-.767-.221-.576-2.035.767zm-4.599 1.731l.218.579 2.037-.766-.218-.579-2.037.766zm-4.598 1.734l.219.576 2.034-.766-.218-.579-2.035.769zm-4.599 1.732l.218.579 2.029-.767-.218-.576-2.029.764zm-4.597 1.731l.218.579 2.035-.767-.219-.579-2.034.767z" fill="#231F20"/></g><g filter="url(#b)"><path fill-rule="evenodd" clip-rule="evenodd" d="M729.841 326.516l4.646-1.651L722 318l3.64 13.776 2.726-4.108 3.264 4.177 1.474-1.152-3.263-4.177z" fill="#363B3E"/><path d="M730.662 326.755l3.992-1.419 1.049-.373-.976-.536-12.486-6.865-1.022-.562.298 1.128 3.64 13.776.284 1.077.616-.928 2.342-3.531 2.837 3.631.308.394.394-.308 1.474-1.152.394-.307-.308-.394-2.836-3.631z" stroke="#fff" stroke-opacity=".8"/></g><path stroke="#FFE400" stroke-dasharray="5 5" d="M719.5 316v167M109 316.5h610"/><path stroke="#FFE400" d="M83.5 490v40m-6.146-26.354l12.02 12.021M367 510.5H83"/><path d="M378.408 516v-1.184h3.12v-8.992h-.112l-2.816 2.624-.784-.848 2.96-2.768h2.096v9.984h2.88V516h-7.344zm16.714 0h-7.328v-1.376l3.648-3.36c.522-.48.96-.987 1.312-1.52.352-.544.528-1.088.528-1.632v-.192c0-.619-.171-1.12-.512-1.504-.342-.384-.859-.576-1.552-.576-.342 0-.64.048-.896.144-.256.096-.48.229-.672.4a2.4 2.4 0 0 0-.464.608 3.685 3.685 0 0 0-.288.736l-1.2-.464a4.73 4.73 0 0 1 .432-.96 3.57 3.57 0 0 1 .704-.848 3.435 3.435 0 0 1 1.024-.592c.405-.149.88-.224 1.424-.224.544 0 1.029.08 1.456.24.426.16.784.384 1.072.672.288.288.506.629.656 1.024.16.395.24.832.24 1.312 0 .437-.064.843-.192 1.216a4.685 4.685 0 0 1-.496 1.072 6.462 6.462 0 0 1-.784.976c-.299.32-.624.64-.976.96l-3.008 2.704h5.872V516zm7.066 0v-2.192h-5.392v-1.184l4.672-7.792h2v7.856h1.616v1.12h-1.616V516h-1.28zm-4.128-3.312h4.128v-6.816h-.08l-4.048 6.816zm11.897-3.12c.758 0 1.323-.171 1.696-.512.384-.352.576-.8.576-1.344v-.112c0-.587-.186-1.024-.56-1.312-.362-.299-.842-.448-1.44-.448-.576 0-1.045.128-1.408.384a2.847 2.847 0 0 0-.896 1.008l-.992-.768c.139-.224.304-.443.496-.656a3.492 3.492 0 0 1 1.632-1.008c.352-.107.752-.16 1.2-.16.47 0 .912.064 1.328.192.416.117.774.299 1.072.544.31.235.55.528.72.88.182.352.272.752.272 1.2 0 .363-.058.688-.176.976a2.295 2.295 0 0 1-.448.752 2.669 2.669 0 0 1-.688.544 3.183 3.183 0 0 1-.832.336v.064c.299.064.587.171.864.32.288.139.539.325.752.56.224.224.4.501.528.832.139.32.208.688.208 1.104 0 .48-.09.923-.272 1.328a3 3 0 0 1-.768 1.024c-.33.277-.73.496-1.2.656a4.78 4.78 0 0 1-1.552.24c-.48 0-.906-.053-1.28-.16a3.849 3.849 0 0 1-.992-.432 4.367 4.367 0 0 1-.768-.608 6.03 6.03 0 0 1-.576-.704l1.008-.768c.139.224.288.427.448.608.171.181.358.336.56.464.203.128.432.229.688.304.256.064.555.096.896.096.79 0 1.387-.176 1.792-.528.406-.363.608-.875.608-1.536v-.128c0-.661-.202-1.168-.608-1.52-.405-.363-1.002-.544-1.792-.544h-1.312v-1.168h1.216zm10.218 6.624c-1.333 0-2.309-.507-2.928-1.52-.608-1.013-.912-2.432-.912-4.256 0-1.824.304-3.243.912-4.256.619-1.013 1.595-1.52 2.928-1.52s2.304.507 2.912 1.52c.619 1.013.928 2.432.928 4.256 0 1.824-.309 3.243-.928 4.256-.608 1.013-1.579 1.52-2.912 1.52zm0-1.168c.437 0 .811-.091 1.12-.272.309-.181.56-.437.752-.768.192-.331.331-.72.416-1.168.096-.448.144-.944.144-1.488v-1.824c0-.544-.048-1.04-.144-1.488a3.678 3.678 0 0 0-.416-1.168 2.077 2.077 0 0 0-.752-.768c-.309-.181-.683-.272-1.12-.272-.437 0-.811.091-1.12.272-.309.181-.56.437-.752.768-.192.331-.336.72-.432 1.168a8.004 8.004 0 0 0-.128 1.488v1.824c0 .544.043 1.04.128 1.488.096.448.24.837.432 1.168.192.331.443.587.752.768.309.181.683.272 1.12.272z" fill="#FFE400"/><path stroke="#FFE400" d="M719 510.5H435m278.353-6.854l12.021 12.021M719.5 490v40"/><path d="M16.692 286.008v-3.344h-3.12v-1.088h3.12v-3.344h1.216v3.344h3.12v1.088h-3.12v3.344h-1.216zm13.93.992h-7.328v-1.376l3.648-3.36a8.23 8.23 0 0 0 1.312-1.52c.352-.544.528-1.088.528-1.632v-.192c0-.619-.17-1.12-.512-1.504-.342-.384-.859-.576-1.552-.576-.342 0-.64.048-.896.144-.256.096-.48.229-.672.4a2.413 2.413 0 0 0-.464.608 3.758 3.758 0 0 0-.288.736l-1.2-.464a4.73 4.73 0 0 1 .432-.96 3.57 3.57 0 0 1 .704-.848c.288-.245.63-.443 1.024-.592.405-.149.88-.224 1.424-.224.544 0 1.03.08 1.456.24.426.16.784.384 1.072.672.288.288.506.629.656 1.024.16.395.24.832.24 1.312 0 .437-.064.843-.192 1.216a4.647 4.647 0 0 1-.496 1.072 6.407 6.407 0 0 1-.784.976c-.299.32-.624.64-.976.96l-3.008 2.704h5.872V287zm3.242-1.872c.34 0 .586.091.736.272.16.171.24.395.24.672v.224c0 .437-.129.917-.385 1.44a4.249 4.249 0 0 1-1.072 1.392h-1.072c.32-.341.577-.667.769-.976a2.95 2.95 0 0 0 .431-1.008.803.803 0 0 1-.48-.304.985.985 0 0 1-.143-.544v-.224c0-.277.074-.501.224-.672.16-.181.41-.272.752-.272zm3.59 1.872v-1.184h3.12v-8.992h-.111l-2.816 2.624-.784-.848 2.96-2.768h2.096v9.984h2.88V287h-7.344zm12.987.192c-.64 0-1.2-.08-1.68-.24a3.73 3.73 0 0 1-1.216-.688 2.92 2.92 0 0 1-.736-1.024 3.375 3.375 0 0 1-.24-1.28c0-.768.208-1.376.624-1.824.416-.448.96-.763 1.632-.944v-.128c-.587-.203-1.056-.528-1.408-.976-.342-.459-.512-1.008-.512-1.648 0-.853.309-1.531.928-2.032.618-.512 1.488-.768 2.608-.768s1.989.256 2.608.768c.618.501.928 1.179.928 2.032 0 .64-.176 1.189-.528 1.648-.342.448-.806.773-1.392.976v.128c.672.181 1.216.496 1.632.944.416.448.624 1.056.624 1.824 0 .459-.086.885-.256 1.28-.16.395-.406.736-.736 1.024a3.55 3.55 0 0 1-1.2.688c-.48.16-1.04.24-1.68.24zm0-1.168c.778 0 1.381-.171 1.808-.512.426-.352.64-.848.64-1.488v-.336c0-.64-.214-1.131-.64-1.472-.427-.352-1.03-.528-1.808-.528-.779 0-1.382.176-1.808.528-.427.341-.64.832-.64 1.472v.336c0 .64.213 1.136.64 1.488.426.341 1.029.512 1.808.512zm0-5.456c.704 0 1.237-.149 1.6-.448.362-.299.544-.736.544-1.312v-.24c0-.576-.182-1.013-.544-1.312-.363-.299-.896-.448-1.6-.448-.704 0-1.238.149-1.6.448-.363.299-.544.736-.544 1.312v.24c0 .576.181 1.013.544 1.312.362.299.896.448 1.6.448zm9.593 6.624c-1.333 0-2.309-.507-2.928-1.52-.608-1.013-.912-2.432-.912-4.256 0-1.824.304-3.243.912-4.256.619-1.013 1.595-1.52 2.928-1.52 1.334 0 2.304.507 2.912 1.52.619 1.013.928 2.432.928 4.256 0 1.824-.309 3.243-.928 4.256-.608 1.013-1.578 1.52-2.912 1.52zm0-1.168c.438 0 .811-.091 1.12-.272.31-.181.56-.437.752-.768.192-.331.331-.72.416-1.168.096-.448.144-.944.144-1.488v-1.824c0-.544-.048-1.04-.144-1.488a3.688 3.688 0 0 0-.416-1.168 2.075 2.075 0 0 0-.752-.768c-.309-.181-.682-.272-1.12-.272-.437 0-.81.091-1.12.272-.309.181-.56.437-.752.768-.192.331-.336.72-.432 1.168a7.97 7.97 0 0 0-.128 1.488v1.824c0 .544.043 1.04.128 1.488.096.448.24.837.432 1.168.192.331.443.587.752.768.31.181.683.272 1.12.272zm8.538-4.88c-.384 0-.741-.069-1.072-.208a2.727 2.727 0 0 1-.848-.576 2.8 2.8 0 0 1-.56-.864 2.904 2.904 0 0 1-.208-1.104c0-.395.07-.757.208-1.088.139-.341.326-.635.56-.88.245-.245.528-.437.848-.576.33-.139.688-.208 1.072-.208.384 0 .736.069 1.056.208a2.5 2.5 0 0 1 .848.576c.246.245.438.539.576.88.139.331.208.693.208 1.088 0 .395-.07.763-.208 1.104-.139.331-.33.619-.576.864a2.498 2.498 0 0 1-.848.576c-.32.139-.672.208-1.056.208zm0-1.024c.48 0 .859-.165 1.136-.496.288-.341.432-.752.432-1.232s-.144-.885-.432-1.216c-.277-.341-.656-.512-1.136-.512-.48 0-.864.171-1.152.512-.277.331-.416.736-.416 1.216s.139.891.416 1.232c.288.331.672.496 1.152.496z" fill="#FFE400"/><path d="M85 292H0" stroke="#FFE400"/><path d="M84.146 314.354a.5.5 0 0 0 .708 0l3.181-3.182a.501.501 0 0 0-.707-.708l-2.828 2.829-2.828-2.829a.5.5 0 0 0-.707.708l3.181 3.182zM85 314v-22h-1v22h1z" fill="#FFE400"/><path stroke="#FFE400" d="M66 314.5h37"/><defs><filter id="b" x="717.437" y="314" width="22.483" height="24.185" filterUnits="userSpaceOnUse" color-interpolation-filters="sRGB"><feFlood flood-opacity="0" result="BackgroundImageFix"/><feColorMatrix in="SourceAlpha" values="0 0 0 0 0 0 0 0 0 0 0 0 0 0 0 0 0 0 127 0" result="hardAlpha"/><feOffset dy="1"/><feGaussianBlur stdDeviation="1.5"/><feColorMatrix values="0 0 0 0 0 0 0 0 0 0 0 0 0 0 0 0 0 0 0.25 0"/><feBlend in2="BackgroundImageFix" result="effect1_dropShadow_5_750"/><feBlend in="SourceGraphic" in2="effect1_dropShadow_5_750" result="shape"/></filter><clipPath id="a"><path fill="#fff" transform="translate(38)" d="M0 0h804v488H0z"/></clipPath></defs></svg>