<svg width="150" height="50" viewBox="0 0 150 50" fill="none" xmlns="http://www.w3.org/2000/svg">
<g clip-path="url(#clip0_4_592)">
<path d="M62.0183 8.28129L50.9031 33.484H58.1668L59.7359 29.5842H71.2178L72.7869 33.484H80.2047L69.0381 8.28129H62.0183ZM61.9926 23.9473L65.4718 15.2657L68.9525 23.9473H61.9926ZM105.899 8.28129L97.2641 22.8268L88.4198 8.28129H82.5498V33.484H89.1345V20.4872L95.5751 30.9945H98.7419L105.218 20.1204L105.29 33.4783H111.839L111.766 8.27558L105.899 8.28129ZM120.905 8.85226C119.238 9.57168 117.985 10.5495 117.145 11.7856C116.309 13.0101 115.869 14.4622 115.886 15.9452C115.886 17.6961 116.342 19.0879 117.254 20.1204C118.14 21.136 119.268 21.9104 120.534 22.3714C122.085 22.9181 123.672 23.3569 125.283 23.6847C127.01 24.0653 128.264 24.4317 129.044 24.7838C129.823 25.1359 130.213 25.6698 130.213 26.3854C130.213 27.7538 128.846 28.438 126.111 28.438C124.622 28.43 123.142 28.1995 121.721 27.7543C120.233 27.2989 117.76 26.1156 117.76 26.1156L114.799 29.9697C114.799 29.9697 119.318 33.7124 126.068 33.7124C131.944 33.7124 134.714 31.714 135.963 29.9468C136.805 28.7458 137.245 27.3094 137.222 25.8429C137.222 24.092 136.76 22.7059 135.836 21.6849C134.941 20.6838 133.815 19.9174 132.556 19.4524C131 18.9014 129.407 18.462 127.788 18.1377C126.085 17.778 124.849 17.4302 124.079 17.0942C123.31 16.7583 122.926 16.254 122.928 15.5812C122.928 14.9103 123.252 14.3645 123.9 13.9439C124.547 13.5233 125.579 13.313 126.994 13.313C130.889 13.313 133.26 14.1366 133.26 14.1366L137.1 9.66018C133.883 8.43195 130.472 7.79135 127.029 7.76884C124.616 7.77455 122.575 8.13759 120.908 8.85797L120.905 8.85226ZM149.022 13.8297C148.371 13.0817 147.438 12.5812 146.221 12.3281L149.263 9.05353V6.45703H139.839L137.11 9.66875H144.438L141.816 12.5022V15.1258H143.557C145.054 15.1258 145.802 15.6016 145.802 16.5532C145.809 16.7815 145.754 17.0075 145.643 17.2071C145.532 17.4067 145.369 17.5724 145.171 17.6866C144.752 17.954 144.186 18.0873 143.472 18.0863C142.752 18.0828 142.035 17.9766 141.344 17.7708C140.864 17.6253 140.393 17.4494 139.935 17.2441L138.095 19.528C138.095 19.528 140.554 21.4479 143.599 21.4479C145.012 21.4479 146.197 21.2205 147.154 20.7656C148.112 20.3107 148.825 19.7126 149.294 18.9713C149.756 18.2514 150 17.4132 149.997 16.5575C150.024 15.5605 149.677 14.5895 149.024 13.8354L149.022 13.8297Z" fill="#2D2D2F"/>
<path d="M7.25372 33.2835L0 24.3964V32.724L7.19666 41.9694L26.1818 24.7375V16.4927L7.25372 33.2835Z" fill="#FFC340"/>
<path d="M17.1721 10.2209H0V16.5773H9.47334L17.1721 10.2209Z" fill="#FFC340"/>
<path d="M26.1816 32.9333V39.9135H37.826V32.9733L26.1816 32.9333Z" fill="#FFC340"/>
<path d="M9.47334 16.5771H0V24.3966L9.47334 16.5771Z" fill="#FBF3E2"/>
<path d="M7.19666 41.9695L0 32.724V40.5577L7.19666 50.0016L26.1818 32.8696V24.7375L7.19666 41.9695Z" fill="#FBF3E2"/>
<path d="M37.8246 39.9141H26.1816V46.2133H37.8246V39.9141Z" fill="#FBF3E2"/>
<path d="M0 0.000203764V10.2206H17.1721L0 24.3964L7.25372 33.2793L26.1819 16.4927V32.9339L37.8263 32.9724V-0.0012207L0 0.000203764Z" fill="#FFEF68"/>
</g>
<defs>
<clipPath id="clip0_4_592">
<rect width="150" height="50" fill="white"/>
</clipPath>
</defs>
</svg>
