<svg width="150" height="50" viewBox="0 0 150 50" fill="none" xmlns="http://www.w3.org/2000/svg"><g clip-path="url(#a)"><path d="M62.018 8.281L50.903 33.484h7.264l1.569-3.9h11.482l1.569 3.9h7.418L69.038 8.281h-7.02zm-.025 15.666l3.479-8.681 3.48 8.681h-6.96zm43.906-15.666l-8.635 14.546L88.42 8.28h-5.87v25.203h6.585V20.487l6.44 10.508h3.167l6.476-10.875.072 13.358h6.549l-.073-25.202-5.867.005zm15.006.571c-1.667.72-2.92 1.697-3.76 2.934a7.23 7.23 0 0 0-1.259 4.16c0 1.75.456 3.142 1.368 4.174a7.973 7.973 0 0 0 3.28 2.251c1.551.547 3.138.986 4.749 1.314 1.727.38 2.981.747 3.761 1.099.779.352 1.169.886 1.169 1.601 0 1.369-1.367 2.053-4.102 2.053a14.954 14.954 0 0 1-4.39-.684c-1.488-.455-3.961-1.638-3.961-1.638l-2.961 3.854s4.519 3.742 11.269 3.742c5.876 0 8.646-1.998 9.895-3.765a6.958 6.958 0 0 0 1.259-4.104c0-1.751-.462-3.137-1.386-4.158a8.22 8.22 0 0 0-3.28-2.233 34.7 34.7 0 0 0-4.768-1.314c-1.703-.36-2.939-.708-3.709-1.044-.769-.336-1.153-.84-1.151-1.513 0-.67.324-1.216.972-1.637.647-.42 1.679-.631 3.094-.631 3.895 0 6.266.824 6.266.824l3.84-4.477a28.762 28.762 0 0 0-10.071-1.891c-2.413.006-4.454.369-6.121 1.089l-.003-.006zm28.117 4.978c-.651-.748-1.584-1.249-2.801-1.502l3.042-3.274V6.457h-9.424l-2.729 3.212h7.328l-2.622 2.833v2.624h1.741c1.497 0 2.245.476 2.245 1.427a1.266 1.266 0 0 1-.631 1.134c-.419.267-.985.4-1.699.4a7.587 7.587 0 0 1-2.128-.316c-.48-.146-.951-.322-1.409-.527l-1.84 2.284s2.459 1.92 5.504 1.92c1.413 0 2.598-.227 3.555-.682.958-.455 1.671-1.053 2.14-1.795a4.44 4.44 0 0 0 .703-2.413 3.993 3.993 0 0 0-.973-2.723l-.002-.005z" fill="#2D2D2F"/><path d="M7.254 33.283L0 24.396v8.328l7.197 9.245 18.985-17.232v-8.244L7.254 33.283zm9.918-23.063H0v6.357h9.473l7.7-6.356zm9.01 22.713v6.98h11.644v-6.94l-11.644-.04z" fill="#FFC340"/><path d="M9.473 16.577H0v7.82l9.473-7.82zM7.197 41.97L0 32.723v7.834l7.197 9.444L26.182 32.87v-8.132L7.197 41.969zm30.628-2.056H26.182v6.3h11.643v-6.3z" fill="#FBF3E2"/><path d="M0 0v10.22h17.172L0 24.397l7.254 8.883 18.928-16.786v16.44l11.644.04V-.002L0 0z" fill="#FFE400"/></g><defs><clipPath id="a"><path fill="#fff" d="M0 0h150v50H0z"/></clipPath></defs></svg>