<svg width="1111" height="706" viewBox="0 0 1111 706" fill="none" xmlns="http://www.w3.org/2000/svg">
<path d="M846.294 519.459L803.569 491.068L736.454 356.132L671.768 403.032L482.754 277.088L432.665 420.324L410.517 421.733L179.149 389.351L132.314 526.858L130.486 526.206L131.821 532.294L122.582 527.613L124.063 533.942L114.751 528.951L116.375 535.467L106.874 530.286L108.64 537.166L98.9213 531.696L100.977 538.79L90.9961 533.011L93.2381 540.434L82.9247 534.298L85.6458 542.153L75.047 535.685L77.887 543.804L67.0233 536.901L70.2029 545.486L58.9044 538.406L62.3659 547.144L50.9316 539.744L54.811 549.253L43.149 541.487L90.9145 648.26L881.596 648.256" fill="white"/>
<path d="M381.824 463.353L372.247 472.274L372.617 472.671L382.194 463.749L381.824 463.353Z" fill="#231F20"/>
<path d="M392.957 469.314L374.046 486.318L374.41 486.722L393.32 469.718L392.957 469.314Z" fill="#231F20"/>
<path d="M374.549 495.179L403.22 470.022L403.577 470.43L374.909 495.587L374.549 495.179Z" fill="#231F20"/>
<path d="M374.834 503.669L412.969 470.912L413.323 471.323L375.188 504.083L374.834 503.669Z" fill="#231F20"/>
<path d="M422.548 471.796L374.678 512.138L375.028 512.554L422.898 472.212L422.548 471.796Z" fill="#231F20"/>
<path d="M434.199 471.371L376.4 519.416L376.747 519.834L434.547 471.79L434.199 471.371Z" fill="#231F20"/>
<path d="M373.978 528.204L441.273 473.273L441.616 473.695L374.321 528.625L373.978 528.204Z" fill="#231F20"/>
<path d="M450.474 473.95L373.368 536.038L373.709 536.461L450.814 474.374L450.474 473.95Z" fill="#231F20"/>
<path d="M459.438 474.749L372.441 543.929L372.78 544.355L459.776 475.174L459.438 474.749Z" fill="#231F20"/>
<path d="M468.245 475.596L371.572 551.594L371.908 552.021L468.581 476.024L468.245 475.596Z" fill="#231F20"/>
<path d="M477.026 476.209L370.64 559.005L370.974 559.434L477.36 476.638L477.026 476.209Z" fill="#231F20"/>
<path d="M485.488 477.176L369.467 566.595L369.799 567.025L485.82 477.607L485.488 477.176Z" fill="#231F20"/>
<path d="M494.092 477.839L368.359 573.907L368.689 574.339L494.422 478.271L494.092 477.839Z" fill="#231F20"/>
<path d="M502.344 478.82L366.941 581.418L367.269 581.851L502.672 479.254L502.344 478.82Z" fill="#231F20"/>
<path d="M365.72 588.58L510.729 479.514L511.055 479.946L366.046 589.015L365.72 588.58Z" fill="#231F20"/>
<path d="M518.855 480.438L364.285 595.869L364.611 596.304L519.181 480.873L518.855 480.438Z" fill="#231F20"/>
<path d="M526.883 481.355L362.845 603.057L363.168 603.493L527.207 481.792L526.883 481.355Z" fill="#231F20"/>
<path d="M361.365 610.149L534.984 482.11L535.303 482.548L361.684 610.584L361.365 610.149Z" fill="#231F20"/>
<path d="M542.965 482.938L359.85 617.212L360.172 617.651L543.286 483.376L542.965 482.938Z" fill="#231F20"/>
<path d="M550.817 483.887L358.223 624.339L358.543 624.778L551.138 484.326L550.817 483.887Z" fill="#231F20"/>
<path d="M194.208 391.08L255.062 388.508L255.137 388.518L325.815 406.245L325.686 406.772L255.042 389.055L194.228 391.623L194.208 391.08Z" fill="#231F20"/>
<path d="M238.784 397.056L297.966 368.057L298.085 368.002L298.201 368.053L298.87 368.362L298.642 368.858L298.089 368.604L239.021 397.545L238.784 397.056Z" fill="#231F20"/>
<path d="M246.142 398.061L305.046 364.659L305.172 364.588L305.297 364.649L306.401 365.183L306.167 365.672L305.192 365.203L246.41 398.533L246.142 398.061Z" fill="#231F20"/>
<path d="M253.479 399.07L312.105 361.262L312.234 361.177L312.373 361.249L313.769 361.942L313.528 362.431L312.268 361.802L253.771 399.529L253.479 399.07Z" fill="#231F20"/>
<path d="M260.796 400.079L319.144 357.865L319.279 357.77L319.429 357.845L321.206 358.758L320.958 359.244L319.33 358.405L261.116 400.521L260.796 400.079Z" fill="#231F20"/>
<path d="M268.097 401.092L326.165 354.474L326.305 354.362L326.461 354.447L328.516 355.531L328.261 356.013L326.366 355.011L268.436 401.516L268.097 401.092Z" fill="#231F20"/>
<path d="M275.373 402.107L333.167 351.084L333.309 350.958L333.476 351.047L335.714 352.259L335.456 352.738L333.384 351.617L275.733 402.512L275.373 402.107Z" fill="#231F20"/>
<path d="M282.632 403.123L340.147 347.693L340.293 347.554L340.467 347.653L342.991 349.046L342.729 349.521L340.382 348.223L283.009 403.514L282.632 403.123Z" fill="#231F20"/>
<path d="M289.875 404.139L347.111 344.306L347.257 344.153L347.437 344.259L350.043 345.723L349.778 346.199L347.356 344.833L290.265 404.513L289.875 404.139Z" fill="#231F20"/>
<path d="M297.093 405.158L354.051 340.919L354.197 340.753L354.391 340.865L357.248 342.499L356.98 342.971L354.31 341.446L297.501 405.518L297.093 405.158Z" fill="#231F20"/>
<path d="M304.295 406.177L360.975 337.536L361.124 337.359L361.321 337.474L364.31 339.21L364.039 339.679L361.25 338.059L304.716 406.524L304.295 406.177Z" fill="#231F20"/>
<path d="M311.48 407.2L367.881 334.152L368.027 333.962L368.231 334.084L371.383 335.939L371.108 336.408L368.163 334.672L311.908 407.529L311.48 407.2Z" fill="#231F20"/>
<path d="M318.641 408.223L374.763 330.768L374.909 330.568L375.123 330.697L378.401 332.65L378.123 333.116L375.059 331.291L319.082 408.542L318.641 408.223Z" fill="#231F20"/>
<path d="M325.785 409.245L381.632 327.391L381.778 327.177L381.995 327.31L385.386 329.355L385.104 329.82L381.934 327.908L326.237 409.551L325.785 409.245Z" fill="#231F20"/>
<path d="M332.912 410.271L388.477 324.011L388.623 323.79L388.847 323.926L392.288 326.022L392.006 326.488L388.793 324.528L333.37 410.567L332.912 410.271Z" fill="#231F20"/>
<path d="M340.018 411.297L395.308 320.634L395.448 320.4L395.682 320.542L399.252 322.741L398.967 323.203L395.628 321.151L340.484 411.582L340.018 411.297Z" fill="#231F20"/>
<path d="M347.108 412.326L402.116 317.257L402.259 317.013L402.496 317.162L406.192 319.459L405.907 319.921L402.445 317.77L347.577 412.598L347.108 412.326Z" fill="#231F20"/>
<path d="M354.177 413.359L408.906 313.884L409.046 313.632L409.29 313.782L413.044 316.133L412.755 316.595L409.246 314.397L354.653 413.621L354.177 413.359Z" fill="#231F20"/>
<path d="M361.226 414.389L415.68 310.51L415.816 310.249L416.064 310.405L419.95 312.854L419.662 313.313L416.023 311.02L361.708 414.64L361.226 414.389Z" fill="#231F20"/>
<path d="M368.261 415.421L422.434 307.137L422.569 306.869L422.824 307.028L426.738 309.515L426.445 309.977L422.783 307.65L368.744 415.663L368.261 415.421Z" fill="#231F20"/>
<path d="M375.273 416.458L429.17 303.767L429.302 303.488L429.56 303.655L433.586 306.23L433.297 306.689L429.526 304.276L375.762 416.689L375.273 416.458Z" fill="#231F20"/>
<path d="M382.27 417.49L435.889 300.397L436.018 300.111L436.28 300.281L440.363 302.907L440.071 303.366L436.249 300.906L382.763 417.718L382.27 417.49Z" fill="#231F20"/>
<path d="M389.248 418.53L442.588 297.03L442.714 296.738L442.985 296.911L447.096 299.575L446.8 300.03L442.955 297.54L389.744 418.747L389.248 418.53Z" fill="#231F20"/>
<path d="M396.205 419.566L449.27 293.663L449.396 293.364L449.667 293.541L453.893 296.293L453.598 296.748L449.64 294.173L396.708 419.777L396.205 419.566Z" fill="#231F20"/>
<path d="M403.149 420.606L455.932 290.297L456.057 289.991L456.332 290.171L460.616 292.977L460.317 293.432L456.312 290.81L403.651 420.809L403.149 420.606Z" fill="#231F20"/>
<path d="M410.072 421.649L462.576 286.933L462.698 286.621L462.98 286.804L467.278 289.634L466.982 290.086L462.963 287.443L410.578 421.846L410.072 421.649Z" fill="#231F20"/>
<path d="M416.978 422.691L469.204 283.57L469.326 283.251L469.608 283.441L473.97 286.322L473.671 286.777L469.594 284.08L417.487 422.878L416.978 422.691Z" fill="#231F20"/>
<path d="M423.867 423.734L475.814 280.21L475.933 279.884L476.222 280.078L480.621 282.996L480.319 283.451L476.208 280.72L424.38 423.918L423.867 423.734Z" fill="#231F20"/>
<path d="M186.7 390.095L247.833 391.929L247.874 391.933L317.914 404.917L375.928 414.647L375.84 415.184L317.822 405.454H317.819L247.796 392.473L186.687 390.638L186.7 390.095Z" fill="#231F20"/>
<path d="M201.691 392.069L262.264 385.091L262.376 385.104L339.794 408.583L339.634 409.102L262.274 385.638L201.753 392.609L201.691 392.069Z" fill="#231F20"/>
<path d="M209.151 393.061L269.449 381.68L269.584 381.69L354.384 411.056L354.208 411.569L269.479 382.227L209.25 393.594L209.151 393.061Z" fill="#231F20"/>
<path d="M216.587 394.052L276.606 378.269L276.772 378.279L368.784 413.447L368.591 413.957L276.66 378.816L216.727 394.579L216.587 394.052Z" fill="#231F20"/>
<path d="M224.007 395.051L283.75 374.861L283.937 374.868L382.335 415.479L382.128 415.978L283.825 375.408L224.18 395.568L224.007 395.051Z" fill="#231F20"/>
<path d="M231.405 396.054L290.867 371.457L290.975 371.413L291.081 371.461L395.026 417.076L394.809 417.572L290.969 372.004L231.612 396.556L231.405 396.054Z" fill="#231F20"/>
<path d="M211.319 573.204L224.272 570.955L224.363 571.492L211.41 573.741L211.319 573.204Z" fill="#231F20"/>
<path d="M223.885 571.252L204.186 576.604L204.329 577.129L224.027 571.776L223.885 571.252Z" fill="#231F20"/>
<path d="M197.571 580.226L223.606 571.475L223.779 571.991L197.744 580.742L197.571 580.226Z" fill="#231F20"/>
<path d="M223.2 571.774L191.248 583.963L191.442 584.471L223.394 572.282L223.2 571.774Z" fill="#231F20"/>
<path d="M222.859 572.014L192.418 584.655L192.626 585.157L223.068 572.516L222.859 572.014Z" fill="#231F20"/>
<path d="M185.994 588.373L222.491 572.263L222.712 572.762L186.211 588.872L185.994 588.373Z" fill="#231F20"/>
<path d="M222.014 572.588L179.64 592.169L179.868 592.662L222.242 573.081L222.014 572.588Z" fill="#231F20"/>
<path d="M221.691 572.763L173.486 595.861L173.721 596.351L221.926 573.254L221.691 572.763Z" fill="#231F20"/>
<path d="M221.228 573.053L167.203 599.696L167.444 600.184L221.468 573.54L221.228 573.053Z" fill="#231F20"/>
<path d="M220.713 573.367L160.907 603.566L161.152 604.051L220.958 573.852L220.713 573.367Z" fill="#231F20"/>
<path d="M220.207 573.659L154.688 607.406L154.937 607.889L220.456 574.142L220.207 573.659Z" fill="#231F20"/>
<path d="M155.23 607.69L219.77 573.877L220.018 574.356L155.482 608.172L155.23 607.69Z" fill="#231F20"/>
<path d="M219.19 574.203L148.941 611.542L149.196 612.022L219.446 574.683L219.19 574.203Z" fill="#231F20"/>
<path d="M218.649 574.484L149.317 611.803L149.575 612.281L218.907 574.963L218.649 574.484Z" fill="#231F20"/>
<path d="M218.157 574.7L149.706 611.962L149.965 612.439L218.417 575.178L218.157 574.7Z" fill="#231F20"/>
<path d="M217.649 574.915L150.045 612.083L150.307 612.559L217.91 575.391L217.649 574.915Z" fill="#231F20"/>
<path d="M217.038 575.211L150.251 612.25L150.515 612.725L217.302 575.687L217.038 575.211Z" fill="#231F20"/>
<path d="M150.39 612.422L216.377 575.545L216.642 576.017L150.651 612.894L150.39 612.422Z" fill="#231F20"/>
<path d="M215.76 575.814L150.554 612.513L150.821 612.987L216.027 576.288L215.76 575.814Z" fill="#231F20"/>
<path d="M215.159 576.054L150.727 612.555L150.995 613.028L215.427 576.527L215.159 576.054Z" fill="#231F20"/>
<path d="M150.763 612.673L214.437 576.397L214.705 576.869L151.032 613.146L150.763 612.673Z" fill="#231F20"/>
<path d="M213.754 576.684L150.836 612.72L151.106 613.192L214.024 577.156L213.754 576.684Z" fill="#231F20"/>
<path d="M182.216 555.767L182.071 556.291L229.272 569.329L229.417 568.805L182.216 555.767Z" fill="#231F20"/>
<path d="M228.888 569.481L186.901 559.037L187.03 558.511L229.017 568.954L228.888 569.481Z" fill="#231F20"/>
<path d="M191.814 561.097L191.701 561.629L228.477 569.467L228.59 568.935L191.814 561.097Z" fill="#231F20"/>
<path d="M228.063 569.62L196.494 564.378L196.579 563.841L228.147 569.083L228.063 569.62Z" fill="#231F20"/>
<path d="M227.635 569.695L201.263 567.052L201.318 566.511L227.689 569.154L227.635 569.695Z" fill="#231F20"/>
<path d="M227.166 569.769L206.023 569.725V569.182L227.166 569.226V569.769Z" fill="#231F20"/>
<path d="M230.322 569.273L210.775 572.395L210.687 571.859L230.237 568.737L230.322 569.273Z" fill="#231F20"/>
<path d="M568.234 478.142L581.044 498.641L580.582 498.926L567.772 478.427L568.234 478.142Z" fill="#231F20"/>
<path d="M581.666 468.398L608.145 512.012L607.68 512.294L581.204 468.68L581.666 468.398Z" fill="#231F20"/>
<path d="M595.301 458.471L594.833 458.747L634.18 525.284L634.648 525.007L595.301 458.471Z" fill="#231F20"/>
<path d="M609.005 448.597L608.534 448.868L660.079 538.188L660.55 537.916L609.005 448.597Z" fill="#231F20"/>
<path d="M622.881 438.518L622.408 438.785L685.6 550.758L686.073 550.491L622.881 438.518Z" fill="#231F20"/>
<path d="M636.871 428.358L711.245 562.88L710.766 563.141L636.392 428.62L636.871 428.358Z" fill="#231F20"/>
<path d="M650.963 418.098L650.485 418.358L735.644 575.342L736.122 575.083L650.963 418.098Z" fill="#231F20"/>
<path d="M665.061 407.959L664.582 408.214L760.157 587.601L760.637 587.345L665.061 407.959Z" fill="#231F20"/>
<path d="M687.488 413.256L687.007 413.508L784.522 599.577L785.004 599.324L687.488 413.256Z" fill="#231F20"/>
<path d="M717.232 433.011L716.749 433.26L806.642 607.437L807.125 607.187L717.232 433.011Z" fill="#231F20"/>
<path d="M746.368 452.536L745.884 452.783L815.014 588.703L815.499 588.457L746.368 452.536Z" fill="#231F20"/>
<path d="M775.075 471.589L774.59 471.833L823.6 569.497L824.085 569.253L775.075 471.589Z" fill="#231F20"/>
<path d="M809.174 611.199L819.25 630.726L818.887 631.093L800.451 621.659L800.699 621.177L818.38 630.224L808.692 611.45L809.174 611.199Z" fill="#231F20"/>
<path d="M833.144 623.028L839.724 635.965L839.36 636.332L802.272 617.596L802.516 617.11L838.864 635.472L832.658 623.273L833.144 623.028Z" fill="#231F20"/>
<path d="M856.953 634.776L860.181 641.207L859.817 641.574L804.004 613.72L804.249 613.23L859.331 640.721L856.468 635.017L856.953 634.776Z" fill="#231F20"/>
<path d="M268.983 502.181L332.609 490.12L380.3 426.245L380.463 426.024L380.684 426.191L417.369 453.98L417.042 454.415L380.572 426.789L332.983 490.531L332.817 490.637L269.082 502.714L268.983 502.181Z" fill="#231F20"/>
<path d="M261.476 503.475L328.424 495.515L376.784 427.108L376.958 426.863L377.185 427.06L403.729 449.999L403.373 450.41L377.056 427.665L328.801 495.926L328.73 496.028L328.611 496.042L261.537 504.015L261.476 503.475Z" fill="#231F20"/>
<path d="M253.944 504.776L324.219 500.91L373.248 427.971L373.431 427.706L373.662 427.927L411.577 464.311L411.2 464.705L373.52 428.545L324.596 501.325L324.518 501.437L324.385 501.447L253.975 505.316L253.944 504.776Z" fill="#231F20"/>
<path d="M245.513 507.946L246.135 506.257L246.199 506.077H246.39L319.989 506.308L369.691 428.837L369.878 428.548L370.116 428.796L405.248 465.531L404.857 465.905L369.963 429.421L320.366 506.726L320.288 506.852H320.139L246.58 506.621L246.023 508.133L245.513 507.946Z" fill="#231F20"/>
<path d="M237.924 509.563L238.539 507.572L238.6 507.368L238.814 507.382L315.74 511.707L366.114 429.707L366.304 429.394L366.549 429.666L411.831 480.53L484.151 476.263L484.185 476.806L411.733 481.08L411.6 481.087L411.512 480.988L366.386 430.301L316.12 512.131L316.035 512.267L315.872 512.26L238.994 507.936L238.444 509.723L237.924 509.563Z" fill="#231F20"/>
<path d="M230.335 511.214L230.923 508.894L230.981 508.663L231.215 508.69L311.47 517.108L362.513 430.573L362.71 430.244L362.958 430.539L410.415 487.188L496.472 483.057L496.495 483.601L410.306 487.735L410.17 487.742L410.082 487.64L362.789 431.181L311.85 517.533L311.762 517.686L311.589 517.665L231.395 509.254L230.865 511.346L230.335 511.214Z" fill="#231F20"/>
<path d="M222.756 512.855L223.29 510.215L223.341 509.96L223.595 509.998L307.179 522.51L358.896 431.446L359.096 431.096L359.344 431.409L408.974 493.847L508.806 489.865L508.83 490.409L408.856 494.397L408.72 494.401L408.635 494.296L359.171 432.061L307.56 522.941L307.468 523.104L307.285 523.077L223.769 510.575L223.29 512.964L222.756 512.855Z" fill="#231F20"/>
<path d="M215.178 514.513L215.633 511.537L215.677 511.258L215.952 511.309L302.865 527.915L355.257 432.316L355.458 431.949L355.713 432.285L407.51 500.509L521.158 496.68L521.175 497.224L407.388 501.056L407.249 501.063L407.164 500.951L355.532 432.944L303.249 528.35L303.154 528.523L302.96 528.486L216.129 511.897L215.714 514.591L215.178 514.513Z" fill="#231F20"/>
<path d="M207.606 516.123L207.959 512.862L207.993 512.556L208.289 512.624L298.534 533.323L351.595 433.192L351.803 432.808L352.057 433.158L406.029 507.175L532.84 503.523L532.857 504.063L405.9 507.722L405.761 507.725L405.676 507.609L351.874 433.828L298.918 533.762L298.819 533.945L298.615 533.901L208.465 513.222L208.146 516.181L207.606 516.123Z" fill="#231F20"/>
<path d="M200.03 517.737L200.265 514.183L200.285 513.854L200.604 513.939L294.179 538.732L347.916 434.065L348.124 433.665L348.382 434.035L404.524 513.837L522.669 510.905L522.68 511.448L404.392 514.384L404.249 514.387L404.164 514.268L348.195 434.714L294.563 539.173L294.464 539.367L294.254 539.313L200.784 514.55L200.574 517.767L200.03 517.737Z" fill="#231F20"/>
<path d="M192.455 519.282L192.55 515.511L192.56 515.155L192.9 515.257L289.807 544.144L344.217 434.942L344.424 434.527L344.686 434.911L403.002 520.505L512.696 518.141L512.709 518.685L402.863 521.052L402.717 521.056L402.636 520.934L344.496 435.601L290.191 544.589L290.089 544.796L289.868 544.728L193.087 515.878L192.995 519.293L192.455 519.282Z" fill="#231F20"/>
<path d="M184.866 520.995L184.818 516.836L184.812 516.456L185.175 516.575L285.411 549.555L340.497 435.822L340.704 435.394L340.969 435.788L401.457 527.171L502.878 525.265L502.885 525.809L401.318 527.718L401.168 527.721L401.087 527.596L340.779 436.488L285.798 550.007L285.693 550.221L285.469 550.147L185.365 517.214L185.41 520.988L184.866 520.995Z" fill="#231F20"/>
<path d="M177.277 522.639L177.066 518.165L177.046 517.76L177.427 517.896L280.998 554.971L336.757 436.702L336.968 436.257L337.233 436.671L399.894 533.843L493.173 532.308L493.183 532.851L399.752 534.39H399.599L399.517 534.264L337.042 437.374L281.386 555.426L281.28 555.647L281.046 555.565L177.627 518.545L177.821 522.612L177.277 522.639Z" fill="#231F20"/>
<path d="M169.675 524.219L169.291 519.493L169.257 519.065L169.661 519.218L276.565 560.389L333 437.582L333.211 437.126L333.476 437.551L398.308 540.515L483.56 539.286L483.566 539.826L398.162 541.059L398.012 541.062L397.931 540.933L333.282 438.264L276.953 560.845L276.844 561.079L276.609 560.987L169.868 519.88L170.218 524.178L169.675 524.219Z" fill="#231F20"/>
<path d="M162.055 525.727L161.501 520.825L161.45 520.37L161.875 520.543L272.112 565.808L329.223 438.465L329.43 437.996L329.702 438.434L396.704 547.188L474.017 546.209L474.024 546.753L396.558 547.734H396.402L396.324 547.605L329.508 439.155L272.499 566.27L272.39 566.508L272.149 566.409L162.092 521.222L162.595 525.669L162.055 525.727Z" fill="#231F20"/>
<path d="M154.439 527.368L153.688 522.156L153.62 521.677L154.069 521.871L267.638 571.23L325.425 439.352L325.635 438.869L325.907 439.318L395.081 553.863L464.533 553.089L464.536 553.632L394.931 554.41H394.775L394.693 554.278L325.71 440.048L268.029 571.692L267.92 571.943L267.672 571.835L154.296 522.564L154.976 527.293L154.439 527.368Z" fill="#231F20"/>
<path d="M146.823 529.08L145.861 523.492L145.773 522.985L146.242 523.196L263.147 576.652L321.606 440.238L321.817 439.746L322.089 440.204L393.44 560.542L455.096 559.941L455.099 560.481L393.287 561.086H393.131L393.049 560.953L321.895 440.941L263.538 577.121L263.429 577.376L263.174 577.26L146.483 523.906L147.359 528.988L146.823 529.08Z" fill="#231F20"/>
<path d="M139.176 530.656L138.011 524.827L137.906 524.293L138.395 524.528L258.636 582.074L317.771 441.125L317.982 440.622L318.257 441.094L391.775 567.218L445.696 566.759L445.7 567.303L391.623 567.765H391.466L391.385 567.629L318.06 441.838L259.026 582.55L258.918 582.811L258.66 582.689L138.65 525.251L139.709 530.551L139.176 530.656Z" fill="#231F20"/>
<path d="M131.526 532.28L130.143 526.162L130.018 525.601L130.531 525.856L254.108 587.503L313.916 442.015L314.13 441.502L314.405 441.981L390.094 573.9L436.331 573.557L436.334 574.101L389.938 574.444H389.781L389.7 574.308L314.208 442.735L254.498 587.982L254.386 588.25L254.125 588.121L130.799 526.6L132.056 532.161L131.526 532.28Z" fill="#231F20"/>
<path d="M123.883 533.979L122.255 527.497L122.109 526.913L122.646 527.191L249.556 592.932L310.043 442.905L310.254 442.382L310.532 442.871L388.395 580.583L426.992 580.335V580.875L388.239 581.126H388.079L388.001 580.987L310.335 443.632L249.95 593.411L249.838 593.689L249.573 593.55L122.931 527.949L124.409 533.847L123.883 533.979Z" fill="#231F20"/>
<path d="M116.212 535.599L114.351 528.835L114.184 528.227L114.741 528.523L244.99 598.361L306.15 443.798L306.361 443.265L306.639 443.765L386.676 587.265L417.674 587.095L417.678 587.635L386.517 587.809H386.357L386.279 587.669L306.445 444.529L245.384 598.846L245.272 599.128L245.004 598.986L115.044 529.301L116.735 535.457L116.212 535.599Z" fill="#231F20"/>
<path d="M108.548 537.302L106.429 530.174L106.819 529.862L240.401 603.793L302.24 444.692L302.451 444.149L302.733 444.658L384.937 593.951L408.377 593.839L408.38 594.382L384.777 594.495H384.614L384.54 594.352L302.536 445.429L240.798 604.279L240.683 604.567L240.414 604.418L107.139 530.657L109.068 537.145L108.548 537.302Z" fill="#231F20"/>
<path d="M100.854 538.936L98.4865 531.516L98.8772 531.197L235.798 609.228L298.31 445.589L298.52 445.035L298.802 445.555L383.181 600.637L399.096 600.572L399.099 601.116L383.021 601.18H382.858L382.78 601.041L298.609 446.333L236.192 609.718L236.08 610.013L235.804 609.857L99.2135 532.015L101.374 538.773L100.854 538.936Z" fill="#231F20"/>
<path d="M93.1532 540.583L90.5239 532.858L90.9213 532.535L231.174 614.664L294.366 446.486L294.573 445.925L294.858 446.452L381.408 607.326L389.832 607.299V607.842L381.245 607.87H381.082L381.007 607.727L294.661 447.237L231.572 615.157L231.46 615.459L231.181 615.296L91.2746 533.374L93.6695 540.407L93.1532 540.583Z" fill="#231F20"/>
<path d="M85.4453 542.248L82.5477 534.2L82.9417 533.877L226.534 620.1L290.398 447.383L290.609 446.815L290.894 447.349L379.614 614.015L380.575 614.012V614.555L379.451 614.559H379.288L379.213 614.416L290.697 448.14L226.931 620.596L226.816 620.905L226.537 620.735L83.3154 534.733L85.9549 542.064L85.4453 542.248Z" fill="#231F20"/>
<path d="M77.7375 543.953L74.5511 535.545L74.9485 535.219L221.877 625.539L286.413 448.283L286.624 447.709L286.913 448.249L377.878 620.854L377.399 621.105L286.716 449.047L222.274 626.038L222.159 626.351L221.873 626.177L75.3426 536.099L78.247 543.76L77.7375 543.953Z" fill="#231F20"/>
<path d="M69.9855 545.564L66.5375 536.894L66.935 536.564L217.199 630.981L282.415 449.187L282.622 448.602L282.911 449.153L376.05 627.546L375.572 627.798L282.714 449.951L217.596 631.481L217.481 631.8L217.195 631.62L67.3494 537.465L70.4916 545.363L69.9855 545.564Z" fill="#231F20"/>
<path d="M62.281 547.334L58.5035 538.239L58.901 537.906L212.504 636.424L278.393 450.09L278.604 449.499L278.892 450.056L374.203 634.243L373.72 634.491L278.699 450.862L212.902 636.926L212.786 637.253L212.497 637.066L59.3392 538.834L62.7838 547.126L62.281 547.334Z" fill="#231F20"/>
<path d="M54.5358 549.025L50.456 539.588L50.8534 539.255L207.793 641.869L274.357 450.994L274.568 450.396L274.857 450.96L372.338 640.939L371.855 641.187L274.663 451.772L208.19 642.376L208.074 642.702L207.782 642.511L51.312 540.203L55.0352 548.811L54.5358 549.025Z" fill="#231F20"/>
<path d="M276.467 500.89L336.774 484.729L383.796 425.382L383.949 425.192L384.156 425.324L413.211 443.843L412.922 444.298L384.071 425.912L337.144 485.137L337.002 485.232L276.609 501.413L276.467 500.89Z" fill="#231F20"/>
<path d="M306.184 495.76L353.206 463.177L397.564 421.951L397.737 421.879L423.568 420.707L423.592 421.248L397.859 422.416L353.562 463.588L353.532 463.615L306.493 496.205L306.184 495.76Z" fill="#231F20"/>
<path d="M298.789 497.037L349.133 468.565L394.153 422.807L394.252 422.705L394.391 422.729L406.715 424.767L406.627 425.304L394.442 423.289L349.493 468.972L349.431 469.02L299.057 497.509L298.789 497.037Z" fill="#231F20"/>
<path d="M291.373 498.315L345.036 473.953L390.722 423.663L390.845 423.531L391.011 423.592L414.688 431.786L414.512 432.299L391.004 424.162L345.399 474.357L345.311 474.425L291.594 498.811L291.373 498.315Z" fill="#231F20"/>
<path d="M283.93 499.599L340.915 479.341L387.271 424.522L387.407 424.359L387.597 424.455L417.253 439.314L417.012 439.8L387.546 425.035L341.282 479.745L341.166 479.827L284.113 500.112L283.93 499.599Z" fill="#231F20"/>
<path d="M182.002 556.34L148.464 535.413L148.752 534.951L182.291 555.878L182.002 556.34Z" fill="#231F20"/>
<path d="M167.631 533.04L167.199 533.37L186.733 558.958L187.165 558.628L167.631 533.04Z" fill="#231F20"/>
<path d="M191.5 561.51L181.425 524.242L181.951 524.103L192.027 561.371L191.5 561.51Z" fill="#231F20"/>
<path d="M196.266 564.096L198.587 521.311L199.127 521.338L196.81 564.123L196.266 564.096Z" fill="#231F20"/>
<path d="M201.029 566.708L214.862 517.991L215.385 518.138L201.552 566.854L201.029 566.708Z" fill="#231F20"/>
<path d="M205.775 569.341L230.787 514.39L231.28 514.615L206.267 569.565L205.775 569.341Z" fill="#231F20"/>
<path d="M210.497 571.991L246.638 510.497L247.106 510.769L210.965 572.266L210.497 571.991Z" fill="#231F20"/>
<path d="M240.72 537.875L215.171 574.72L215.617 575.029L241.166 538.185L240.72 537.875Z" fill="#231F20"/>
<path d="M347.491 408.54L347.214 409.007L457.358 474.33L457.635 473.862L347.491 408.54Z" fill="#231F20"/>
<path d="M354.554 413.171L354.279 413.641L464.172 477.887L464.447 477.418L354.554 413.171Z" fill="#231F20"/>
<path d="M361.6 414.36L361.33 414.832L470.972 477.655L471.242 477.183L361.6 414.36Z" fill="#231F20"/>
<path d="M368.633 415.297L368.367 415.771L477.61 477.155L477.876 476.681L368.633 415.297Z" fill="#231F20"/>
<path d="M424.672 479.079L318.712 408.606L319.011 408.155L424.974 478.624L424.672 479.079Z" fill="#231F20"/>
<path d="M434.309 479.623L325.863 409.629L326.158 409.17L434.602 479.164L434.309 479.623Z" fill="#231F20"/>
<path d="M442.258 479.252L332.997 410.648L333.285 410.189L442.547 478.794L442.258 479.252Z" fill="#231F20"/>
<path d="M340.396 411.171L340.112 411.634L449.774 478.761L450.058 478.298L340.396 411.171Z" fill="#231F20"/>
<path d="M384.465 477.676L335.595 439.878L289.902 404.543L290.235 404.112L335.925 439.447L384.798 477.245L384.465 477.676Z" fill="#231F20"/>
<path d="M394.792 477.873L340.045 437.334L297.134 405.556L297.46 405.121L340.372 436.899L395.115 477.438L394.792 477.873Z" fill="#231F20"/>
<path d="M404.976 478.223L346.768 436.78L304.349 406.571L304.662 406.13L347.084 436.335L405.289 477.781L404.976 478.223Z" fill="#231F20"/>
<path d="M414.875 478.59L311.541 407.587L311.847 407.142L415.181 478.142L414.875 478.59Z" fill="#231F20"/>
<path d="M375.896 414.592L375.828 415.132L423.523 421.191L423.591 420.652L375.896 414.592Z" fill="#231F20"/>
<path d="M410.458 421.594L410.21 422.078L548.374 492.785L548.622 492.301L410.458 421.594Z" fill="#231F20"/>
<path d="M417.356 422.547L417.11 423.032L551.091 490.716L551.337 490.231L417.356 422.547Z" fill="#231F20"/>
<path d="M424.241 423.558L423.999 424.045L553.713 488.779L553.956 488.293L424.241 423.558Z" fill="#231F20"/>
<path d="M533.027 503.808L375.388 416.811L375.65 416.335L533.289 503.332L533.027 503.808Z" fill="#231F20"/>
<path d="M382.646 417.323L382.387 417.801L536.365 501.34L536.624 500.863L382.646 417.323Z" fill="#231F20"/>
<path d="M539.553 499.075L389.367 418.876L389.622 418.397L539.808 498.596L539.553 499.075Z" fill="#231F20"/>
<path d="M396.579 419.358L396.326 419.839L542.61 496.775L542.862 496.294L396.579 419.358Z" fill="#231F20"/>
<path d="M545.545 494.73L403.274 420.949L403.526 420.466L545.796 494.248L545.545 494.73Z" fill="#231F20"/>
<path d="M224.278 395.238L223.804 395.504L264.663 468.468L265.137 468.202L224.278 395.238Z" fill="#231F20"/>
<path d="M231.768 396.108L231.316 396.41L269.736 453.937L270.188 453.635L231.768 396.108Z" fill="#231F20"/>
<path d="M281.26 452.958L238.685 397.467L239.12 397.134L281.691 452.628L281.26 452.958Z" fill="#231F20"/>
<path d="M289.834 449.418L246.067 398.476L246.481 398.122L290.245 449.064L289.834 449.418Z" fill="#231F20"/>
<path d="M298.048 446.731L253.428 399.485L253.822 399.111L298.442 446.357L298.048 446.731Z" fill="#231F20"/>
<path d="M306.001 444.679L260.766 400.494L261.146 400.106L306.381 444.288L306.001 444.679Z" fill="#231F20"/>
<path d="M268.424 401.164L268.058 401.566L313.704 443.148L314.07 442.746L268.424 401.164Z" fill="#231F20"/>
<path d="M275.714 402.154L275.361 402.567L321.15 441.801L321.503 441.389L275.714 402.154Z" fill="#231F20"/>
<path d="M328.431 440.683L282.649 403.527L282.992 403.106L328.774 440.265L328.431 440.683Z" fill="#231F20"/>
<path d="M186.965 390.407L175.089 469.319L175.069 469.39L150.047 525.184L149.554 524.963L174.559 469.203L186.425 390.326L186.965 390.407Z" fill="#231F20"/>
<path d="M194.49 391.345L196.185 474.459L196.144 474.602L167.168 523.04L166.702 522.761L195.638 474.391L193.946 391.355L194.49 391.345Z" fill="#231F20"/>
<path d="M201.99 392.293L217.25 479.602L217.27 479.725L217.192 479.82L186.432 517.329L186.014 516.983L216.693 479.575L201.454 392.384L201.99 392.293Z" fill="#231F20"/>
<path d="M209.46 393.244L238.288 484.756L238.342 484.929L238.203 485.045L202.846 514.951L202.493 514.536L237.714 484.746L208.941 393.407L209.46 393.244Z" fill="#231F20"/>
<path d="M257.912 488.13L216.411 394.426L216.907 394.209L258.412 487.912L257.912 488.13Z" fill="#231F20"/>
<path d="M257.006 490.797L217.667 511.725L217.922 512.205L257.261 491.277L257.006 490.797Z" fill="#231F20"/>
<path d="M645.795 385.586L650.843 381.819L651.094 381.629L651.243 381.911L657.137 392.972L656.658 393.227L650.914 382.444L646.121 386.021L645.795 385.586Z" fill="#231F20"/>
<path d="M651.108 389.13L667.967 376.621L668.222 376.431L668.368 376.713L679.303 397.572L678.82 397.824L668.035 377.246L651.43 389.565L651.108 389.13Z" fill="#231F20"/>
<path d="M656.339 392.612L685.074 371.42L685.329 371.233L685.475 371.515L693.577 387.214L693.095 387.465L685.139 372.048L656.658 393.05L656.339 392.612Z" fill="#231F20"/>
<path d="M661.489 396.047L702.161 366.226L702.42 366.035L702.566 366.321L707.906 376.822L707.42 377.066L702.226 366.854L661.811 396.485L661.489 396.047Z" fill="#231F20"/>
<path d="M666.574 399.437L719.235 361.031L719.493 360.841L719.636 361.13L722.279 366.392L721.793 366.637L719.296 361.66L666.894 399.875L666.574 399.437Z" fill="#231F20"/>
<path d="M705.844 553.245L703.965 559.486L703.442 559.333L705.324 553.089L705.844 553.245Z" fill="#231F20"/>
<path d="M721.614 549.319L716.321 565.667L716.838 565.834L722.131 549.486L721.614 549.319Z" fill="#231F20"/>
<path d="M738.669 546.094L729.674 572.185L729.157 572.008L738.153 545.92L738.669 546.094Z" fill="#231F20"/>
<path d="M755.417 542.999L742.474 578.5L741.961 578.317L754.904 542.812L755.417 542.999Z" fill="#231F20"/>
<path d="M772.408 539.992L755.24 584.805L754.734 584.612L771.902 539.799L772.408 539.992Z" fill="#231F20"/>
<path d="M788.958 537.234L767.47 590.88L767.974 591.083L789.462 537.436L788.958 537.234Z" fill="#231F20"/>
<path d="M806.261 534.713L780.198 597.206L780.7 597.415L806.762 534.922L806.261 534.713Z" fill="#231F20"/>
<path d="M823.562 532.391L792.864 603.368L793.363 603.584L824.061 532.607L823.562 532.391Z" fill="#231F20"/>
<path d="M630.946 432.489L643.665 440.626L643.373 441.084L630.654 432.948L630.946 432.489Z" fill="#231F20"/>
<path d="M641.039 425.172L691.818 458.057L691.522 458.512L640.743 425.627L641.039 425.172Z" fill="#231F20"/>
<path d="M646.122 421.407L645.825 421.863L715.168 466.983L715.464 466.528L646.122 421.407Z" fill="#231F20"/>
<path d="M651.25 417.804L650.952 418.258L738.648 475.671L738.946 475.216L651.25 417.804Z" fill="#231F20"/>
<path d="M656.392 414.1L656.093 414.554L761.965 484.236L762.264 483.782L656.392 414.1Z" fill="#231F20"/>
<path d="M661.537 410.256L661.237 410.709L785.076 492.558L785.376 492.104L661.537 410.256Z" fill="#231F20"/>
<path d="M666.713 406.541L808.441 500.635L808.142 501.087L666.415 406.996L666.713 406.541Z" fill="#231F20"/>
<path d="M635.977 428.84L667.777 449.316L667.485 449.774L635.682 429.299L635.977 428.84Z" fill="#231F20"/>
<path fill-rule="evenodd" clip-rule="evenodd" d="M433.202 644.543C433.202 644.543 511.633 641.098 523.407 641.098C523.407 641.098 570.061 639.739 610.486 639.172C610.574 639.512 666.082 638.605 689.297 640.303C689.297 640.303 722.588 640.871 719.999 647.526L433.338 648.1L433.202 644.543Z" fill="white"/>
<path fill-rule="evenodd" clip-rule="evenodd" d="M360.547 628.766L319.3 586.728L270.373 557.206L227.607 576.255L225.09 584.133L334.474 647.736L360.547 628.766Z" fill="#E6E6E6"/>
<path fill-rule="evenodd" clip-rule="evenodd" d="M805.784 609.772L880.38 646.575L832.515 549.97L805.784 609.772Z" fill="#E6E6E6"/>
<path fill-rule="evenodd" clip-rule="evenodd" d="M832.522 549.98L803.08 490.555L846.233 519.327L832.522 549.98Z" fill="white"/>
<path fill-rule="evenodd" clip-rule="evenodd" d="M225.09 584.129L213.19 577.213L151.022 612.993L203.203 647.736L225.09 584.129Z" fill="white"/>
<path fill-rule="evenodd" clip-rule="evenodd" d="M360.608 628.737L370.279 647.799H334.474L360.608 628.737Z" fill="#D9D9D9"/>
<path fill-rule="evenodd" clip-rule="evenodd" d="M360.546 628.766L270.559 451.99L319.245 586.752L360.546 628.766Z" fill="white"/>
<path fill-rule="evenodd" clip-rule="evenodd" d="M556.371 486.723L739.743 631.134L608.594 594.325L556.371 486.723Z" fill="white"/>
<path opacity="0.5" fill-rule="evenodd" clip-rule="evenodd" d="M556.371 486.724L608.593 594.325L369.345 646.028L360.563 628.807L556.371 486.724Z" fill="#FFEF68"/>
<path opacity="0.5" fill-rule="evenodd" clip-rule="evenodd" d="M336.383 159.305L284.161 51.703L523.41 6.10352e-05L336.383 159.305Z" fill="#FFEF68"/>
<path fill-rule="evenodd" clip-rule="evenodd" d="M556.371 486.727L788.813 647.72H719.639L719.666 645.943C719.327 644.791 718.365 644.459 717.003 643.789C723.067 641.951 729.871 640.035 735.204 637.718C737.168 636.866 742.216 634.865 741.135 632.317L556.371 486.727Z" fill="#CCCCCC"/>
<path fill-rule="evenodd" clip-rule="evenodd" d="M608.536 594.306L735.405 629.797L735.374 629.872C714.418 625.374 641.416 627.86 571.131 631.866H571.057C561.117 632.433 551.238 633.031 541.564 633.643L540.837 633.69C535.3 634.041 529.842 634.396 524.463 634.754L523.865 634.791L519.351 635.097L517.183 635.243L513.372 635.504L510.702 635.688L503.167 636.214L501.886 636.306L498.014 636.585L495.864 636.738L492.507 636.982L489.912 637.172L486.62 637.417H486.552L481.657 637.784H481.518L479.894 637.91L475.957 638.209L473.861 638.368L470.535 638.63L468.568 638.783L464.22 639.122L463.66 639.167H463.52C461.907 639.296 460.344 639.421 458.809 639.551L457.351 639.669L454.165 639.934L452.633 640.06L449.732 640.308L448.278 640.43L444.467 640.77L443.546 640.852L440.757 641.103L439.483 641.219L437.244 641.426L436.225 641.521L433.226 641.81V647.836L370.214 647.779L369.287 645.978L608.536 594.306Z" fill="#E6E6E6"/>
<path fill-rule="evenodd" clip-rule="evenodd" d="M556.371 486.723L472.475 417.728L666.72 399.641L671.754 403.005L556.371 486.723Z" fill="#FFEF68"/>
<path fill-rule="evenodd" clip-rule="evenodd" d="M336.383 159.304L420.28 228.299L226.034 246.386L221 243.023L336.383 159.304Z" fill="#FFEF68"/>
<path d="M472.448 417.776L432.567 420.371L482.666 276.942L472.448 417.776Z" fill="#F2F2F2"/>
<path fill-rule="evenodd" clip-rule="evenodd" d="M716.517 643.76C834.136 611.982 499.512 635.314 433.222 641.83L433.246 644.429C454.807 643.58 476.388 642.581 497.956 641.901L527.269 640.981C538.384 640.641 549.513 640.407 560.631 640.135C593.083 639.455 624.835 638.827 659.03 639.374C682.082 639.724 707.104 640.57 716.517 643.76Z" fill="#B3B3B3"/>
<path fill-rule="evenodd" clip-rule="evenodd" d="M331.804 646.817L214.332 577.071L224.445 570.926L230.325 569.163L227.227 577.839L332.922 646.81L331.804 646.817Z" fill="#2E3192"/>
<path fill-rule="evenodd" clip-rule="evenodd" d="M701.594 647.806H433.294V645.706C506.282 643.481 700.038 639.075 701.584 646.6L701.594 647.806Z" fill="#231F20"/>
<path d="M131.764 526.862L178.632 389.208L178.775 388.787L179.217 388.845L186.779 389.843L194.269 390.832L201.861 391.831L209.335 392.819V392.816L216.7 393.699L216.717 393.703L224.204 394.837L238.919 396.787L246.417 397.783L253.669 398.748L261.105 399.736H261.109L268.392 400.793L275.662 401.768H275.668L282.836 402.814L290.177 403.803H290.181L297.406 404.846L304.574 405.817H304.577L311.731 406.86L318.96 407.842H318.967L326.111 408.878V408.882L333.217 409.85H333.224L340.382 410.9L354.554 412.972L361.613 413.984L368.635 415.034L375.673 416.084L382.685 417.072H382.692L389.588 418.088H389.591L396.585 419.152L403.417 420.191V420.194L410.432 421.214H410.439L417.341 422.27L424.22 423.293H424.224L431.106 424.366L430.94 425.44L424.064 424.366L417.182 423.347L410.276 422.287L403.261 421.268H403.257L396.426 420.228L389.428 419.165L382.532 418.149V418.146L375.521 417.161H375.514L368.479 416.111L361.457 415.061L354.398 414.049L340.222 411.973L333.068 410.927L325.961 409.955H325.955L318.811 408.919L311.582 407.934H311.578L304.424 406.894V406.891L297.257 405.923H297.253L290.028 404.88L282.687 403.888H282.683L275.516 402.845V402.841L268.246 401.866H268.239L260.956 400.813L253.527 399.824L246.277 398.86L238.78 397.861L224.054 395.914H224.041L216.557 394.78L209.209 393.896H209.202L201.722 392.908L194.13 391.909L186.636 390.92L179.519 389.979L132.793 527.212L131.764 526.862Z" fill="#231F20"/>
<path d="M806.847 609.392L879.476 645.674L832.559 551.872L806.847 609.392ZM880.933 648.229L805.421 610.519L804.721 610.18L805.04 609.463L831.775 549.671L832.474 548.098L833.246 549.637L882.023 647.166L880.933 648.229Z" fill="#231F20"/>
<path d="M671.272 402.342L735.969 355.398L736.75 354.831L737.178 355.697L803.814 490.202L802.632 491.241L671.303 403.687L670.321 403.035L671.272 402.355V402.342ZM736.156 357.284L673.188 402.974L801.005 488.191L736.156 357.284Z" fill="#231F20"/>
<path d="M359.504 628.518L270.709 454.075L226.079 583.766L334.423 646.765L359.504 628.518ZM271.29 451.619L361.274 628.396L361.589 629.018L361.026 629.429L334.953 648.399L334.525 648.712L334.067 648.443L224.683 584.84L224.102 584.5L224.319 583.868L269.788 451.714L270.417 449.89L271.29 451.619Z" fill="#231F20"/>
<path d="M556.731 485.993L806.148 609.038L806.851 609.378L806.528 610.095L789.543 648.042L789.329 648.525H788.799L370.201 648.569H369.701L369.474 648.127L359.826 629.17L359.51 628.549L360.074 628.138L555.879 486.057L556.276 485.768L556.718 485.986L556.731 485.993ZM804.714 610.156L556.453 487.674L361.61 629.055L370.717 646.948L788.286 646.904L804.714 610.156Z" fill="#231F20"/>
<path d="M224.102 584.5L213.187 578.154L152.567 613.044L202.789 646.476L224.115 584.503L224.102 584.5ZM213.601 576.492L225.491 583.413L226.075 583.752L225.854 584.384L203.967 647.988L203.628 648.987L202.751 648.402L150.573 613.675L149.476 612.945L150.617 612.289L212.783 576.506L213.19 576.272L213.601 576.492Z" fill="#231F20"/>
<path d="M91.0029 646.598L149.479 612.945L44.535 543.074L91.0029 646.598ZM151.429 613.699L91.0266 648.46L90.2487 648.909L89.8784 648.086L41.8921 541.161L43.0844 540.142L151.473 612.31L152.571 613.037L151.429 613.699Z" fill="#231F20"/>
<path d="M832.036 550.221L802.594 490.796L803.382 490.117L846.525 518.888L846.908 519.143L846.722 519.561L833.008 550.218L832.539 551.271L832.026 550.252L832.036 550.221ZM804.473 492.128L832.498 548.696L845.55 519.514L804.473 492.128Z" fill="#231F20"/>
<path d="M556.011 487.457L430.634 425.603L429.988 425.284L430.226 424.604L481.898 276.677L482.238 275.685L483.108 276.266L672.2 402.328L673.178 402.981L672.227 403.66L556.843 487.379L556.446 487.668L556.004 487.45L556.011 487.457ZM432.02 424.458L556.29 485.785L670.328 403.042L483.087 278.213L432.02 424.458Z" fill="#231F20"/>
<path d="M432.869 647.805L432.815 641.839V641.465L433.185 641.428C473.576 637.46 613.584 627.248 690.234 627.061C708.052 627.017 722.448 627.513 731.389 628.759C740.945 630.088 744.532 632.303 739.936 635.652C736.825 637.915 729.355 640.725 716.626 644.146L716.415 643.358C729.045 639.96 736.427 637.181 739.457 634.976C742.916 632.459 739.569 630.703 731.277 629.541C722.374 628.301 708.011 627.805 690.234 627.842C613.842 628.029 474.483 638.18 433.637 642.175L433.688 647.767L432.869 647.805Z" fill="#231F20"/>
<path d="M433.284 644.047C480.692 641.897 575.843 638.458 643.447 638.795C687.123 639.012 719.357 640.881 720.037 645.824V645.878V647.804H719.221V645.919C718.542 641.502 686.661 639.824 643.437 639.61C575.86 639.27 480.72 642.712 433.311 644.862L433.284 644.047Z" fill="#231F20"/>
<path d="M608.616 593.86L608.396 594.645L737.366 630.778L737.586 629.992L608.616 593.86Z" fill="#231F20"/>
<path d="M556.625 486.519L556.121 487.159L740.386 632.067L740.89 631.427L556.625 486.519Z" fill="#231F20"/>
<path d="M556.603 486.588L556.141 487.255L788.533 648.243L788.995 647.575L556.603 486.588Z" fill="#231F20"/>
<path d="M556.175 486.753L362.505 632.916L362.832 633.35L556.502 487.186L556.175 486.753Z" fill="#231F20"/>
<path d="M270.801 452.377L319.473 586.504L360.713 628.562L360.326 628.943L319.042 586.84L318.981 586.742L270.291 452.56L270.801 452.377Z" fill="#231F20"/>
<path d="M556.205 486.679L666.527 399.458L666.863 399.882L556.538 487.104L556.205 486.679Z" fill="#231F20"/>
<path d="M556.113 487.206L472.234 418.071L472.754 417.443L556.63 486.577L556.113 487.206Z" fill="#231F20"/>
<path d="M483.152 277.125L472.9 417.786L472.876 418.143L472.519 418.163L423.368 421.38L423.313 420.565L472.115 417.375L482.337 277.068L483.152 277.125Z" fill="#231F20"/>
<path d="M246.525 596.363L269.167 621.058L268.569 621.608L245.924 596.913L246.525 596.363Z" fill="#231F20"/>
<path d="M556.769 486.744L608.906 594.128L609.134 594.596L608.624 594.705L369.273 646.384L369.1 645.586L607.945 594.016L556.035 487.097L556.769 486.744Z" fill="#231F20"/>
<path d="M319.033 586.406L283.098 614.982L283.436 615.407L319.371 586.832L319.033 586.406Z" fill="#231F20"/>
<path d="M322.655 589.963L287.532 617.584L287.868 618.011L322.991 590.391L322.655 589.963Z" fill="#231F20"/>
<path d="M326.195 593.584L291.875 620.294L292.208 620.723L326.529 594.013L326.195 593.584Z" fill="#231F20"/>
<path d="M296.159 623.076L329.671 597.246L330.004 597.678L296.492 623.504L296.159 623.076Z" fill="#231F20"/>
<path d="M333.165 600.805L300.473 625.783L300.803 626.215L333.495 601.237L333.165 600.805Z" fill="#231F20"/>
<path d="M304.767 628.494L336.635 604.343L336.964 604.778L305.094 628.929L304.767 628.494Z" fill="#231F20"/>
<path d="M309.041 631.209L340.086 607.859L340.409 608.294L309.367 631.64L309.041 631.209Z" fill="#231F20"/>
<path d="M343.48 611.411L313.264 633.975L313.589 634.411L343.805 611.846L343.48 611.411Z" fill="#231F20"/>
<path d="M346.897 614.878L317.508 636.682L317.832 637.119L347.22 615.315L346.897 614.878Z" fill="#231F20"/>
<path d="M321.759 639.355L350.318 618.292L350.641 618.731L322.079 639.794L321.759 639.355Z" fill="#231F20"/>
<path d="M353.705 621.723L325.97 642.06L326.292 642.498L354.026 622.161L353.705 621.723Z" fill="#231F20"/>
<path d="M357.049 625.187L330.134 644.815L330.454 645.254L357.369 625.626L357.049 625.187Z" fill="#231F20"/>
<path fill-rule="evenodd" clip-rule="evenodd" d="M150.685 621.007L192.166 647.798H103.698L150.685 621.007Z" fill="#FFEF68"/>
<path opacity="0.5" fill-rule="evenodd" clip-rule="evenodd" d="M268.677 621.031L325.01 647.798H215.371L268.677 621.031Z" fill="#FFEF68"/>
<path fill-rule="evenodd" clip-rule="evenodd" d="M818.88 630.665L831.68 647.798L789.091 647.811L818.88 630.665Z" fill="#231F20"/>
<path fill-rule="evenodd" clip-rule="evenodd" d="M839.476 635.832L848.417 647.801L818.662 647.811L839.476 635.832Z" fill="#231F20"/>
<path fill-rule="evenodd" clip-rule="evenodd" d="M859.946 640.945L865.072 647.804L848.019 647.811L859.946 640.945Z" fill="#231F20"/>
<path d="M270.78 554.658H270.05V557.097H270.78V554.658Z" fill="#231F20"/>
<path d="M270.78 547.453H270.05V549.888H270.78V547.453Z" fill="#231F20"/>
<path d="M270.78 540.247H270.05V542.683H270.78V540.247Z" fill="#231F20"/>
<path d="M270.78 533.041H270.05V535.477H270.78V533.041Z" fill="#231F20"/>
<path d="M270.78 525.836H270.05V528.272H270.78V525.836Z" fill="#231F20"/>
<path d="M270.78 518.63H270.05V521.066H270.78V518.63Z" fill="#231F20"/>
<path d="M270.78 511.425H270.05V513.861H270.78V511.425Z" fill="#231F20"/>
<path d="M270.78 504.219H270.05V506.655H270.78V504.219Z" fill="#231F20"/>
<path d="M270.78 497.013H270.05V499.449H270.78V497.013Z" fill="#231F20"/>
<path d="M270.78 489.808H270.05V492.244H270.78V489.808Z" fill="#231F20"/>
<path d="M270.78 482.602H270.05V485.038H270.78V482.602Z" fill="#231F20"/>
<path d="M270.78 475.397H270.05V477.832H270.78V475.397Z" fill="#231F20"/>
<path d="M270.78 468.191H270.05V470.627H270.78V468.191Z" fill="#231F20"/>
<path d="M270.78 460.985H270.05V463.421H270.78V460.985Z" fill="#231F20"/>
<path d="M270.78 453.78H270.05V456.216H270.78V453.78Z" fill="#231F20"/>
<path d="M270.622 556.705L270.244 557.33L272.329 558.59L272.707 557.965L270.622 556.705Z" fill="#231F20"/>
<path d="M276.756 560.567L276.378 561.192L278.463 562.453L278.841 561.828L276.756 560.567Z" fill="#231F20"/>
<path d="M288.606 566.02L288.226 566.648L290.32 567.915L290.7 567.287L288.606 566.02Z" fill="#231F20"/>
<path d="M289.08 568.064L288.702 568.688L290.785 569.95L291.163 569.326L289.08 568.064Z" fill="#231F20"/>
<path d="M295.269 571.685L294.891 572.31L296.974 573.572L297.353 572.947L295.269 571.685Z" fill="#231F20"/>
<path d="M307.203 577.164L306.823 577.792L308.917 579.059L309.297 578.431L307.203 577.164Z" fill="#231F20"/>
<path d="M307.585 579.209L307.207 579.834L309.291 581.095L309.669 580.47L307.585 579.209Z" fill="#231F20"/>
<path d="M313.767 582.849L313.389 583.474L315.474 584.734L315.851 584.109L313.767 582.849Z" fill="#231F20"/>
<path d="M270.225 556.8L268.006 557.805L268.307 558.47L270.526 557.466L270.225 556.8Z" fill="#231F20"/>
<path d="M263.72 559.718L261.502 560.725L261.804 561.39L264.022 560.384L263.72 559.718Z" fill="#231F20"/>
<path d="M257.215 562.643L254.996 563.648L255.297 564.313L257.516 563.309L257.215 562.643Z" fill="#231F20"/>
<path d="M250.512 565.742L248.293 566.747L248.594 567.412L250.813 566.408L250.512 565.742Z" fill="#231F20"/>
<path d="M244.008 568.662L241.79 569.668L242.092 570.333L244.31 569.327L244.008 568.662Z" fill="#231F20"/>
<path d="M237.48 571.607L235.262 572.612L235.563 573.278L237.781 572.272L237.48 571.607Z" fill="#231F20"/>
<path d="M230.862 574.634L228.643 575.638L228.944 576.303L231.163 575.299L230.862 574.634Z" fill="#231F20"/>
<path d="M705.46 552.83L703.18 553.374L703.35 554.084L705.63 553.541L705.46 552.83Z" fill="#231F20"/>
<path d="M706.505 551.319L704.231 551.858L704.399 552.566L706.673 552.027L706.505 551.319Z" fill="#231F20"/>
<path d="M718.803 549.772L716.523 550.319L716.694 551.029L718.973 550.482L718.803 549.772Z" fill="#231F20"/>
<path d="M725.615 548.073L723.336 548.62L723.507 549.33L725.786 548.783L725.615 548.073Z" fill="#231F20"/>
<path d="M732.398 546.414L730.117 546.957L730.286 547.667L732.567 547.125L732.398 546.414Z" fill="#231F20"/>
<path d="M739.09 544.855L736.811 545.401L736.981 546.111L739.26 545.566L739.09 544.855Z" fill="#231F20"/>
<path d="M745.891 543.173L743.612 543.72L743.782 544.43L746.062 543.883L745.891 543.173Z" fill="#231F20"/>
<path d="M752.638 541.549L750.358 542.095L750.528 542.805L752.808 542.259L752.638 541.549Z" fill="#231F20"/>
<path d="M759.308 540.032L757.027 540.574L757.197 541.285L759.477 540.742L759.308 540.032Z" fill="#231F20"/>
<path d="M766.053 538.41L763.774 538.956L763.944 539.667L766.223 539.12L766.053 538.41Z" fill="#231F20"/>
<path d="M772.745 536.869L770.465 537.415L770.636 538.126L772.915 537.579L772.745 536.869Z" fill="#231F20"/>
<path d="M779.564 535.149L777.285 535.695L777.455 536.405L779.734 535.859L779.564 535.149Z" fill="#231F20"/>
<path d="M786.226 533.645L783.946 534.191L784.117 534.902L786.396 534.355L786.226 533.645Z" fill="#231F20"/>
<path d="M793.076 531.885L790.796 532.431L790.967 533.142L793.246 532.595L793.076 531.885Z" fill="#231F20"/>
<path d="M799.759 530.347L797.479 530.892L797.649 531.603L799.929 531.057L799.759 530.347Z" fill="#231F20"/>
<path d="M806.531 528.701L804.252 529.247L804.422 529.958L806.702 529.412L806.531 528.701Z" fill="#231F20"/>
<path d="M813.19 527.194L810.911 527.74L811.081 528.451L813.36 527.904L813.19 527.194Z" fill="#231F20"/>
<path d="M820.038 525.436L817.759 525.983L817.93 526.693L820.209 526.146L820.038 525.436Z" fill="#231F20"/>
<path d="M826.725 523.9L824.446 524.446L824.616 525.156L826.895 524.611L826.725 523.9Z" fill="#231F20"/>
<path d="M833.522 522.213L831.242 522.76L831.413 523.47L833.692 522.923L833.522 522.213Z" fill="#231F20"/>
<path d="M840.155 520.749L837.876 521.295L838.046 522.006L840.326 521.459L840.155 520.749Z" fill="#231F20"/>
<path d="M846.973 519.026L844.694 519.572L844.864 520.282L847.143 519.736L846.973 519.026Z" fill="#231F20"/>
<path d="M853.773 517.338L851.493 517.881L851.662 518.592L853.942 518.049L853.773 517.338Z" fill="#231F20"/>
<path d="M860.42 515.859L858.139 516.403L858.309 517.113L860.589 516.57L860.42 515.859Z" fill="#231F20"/>
<path d="M867.165 514.239L864.885 514.782L865.054 515.492L867.334 514.95L867.165 514.239Z" fill="#231F20"/>
<path d="M873.871 512.68L871.591 513.223L871.76 513.934L874.04 513.391L873.871 512.68Z" fill="#231F20"/>
<path d="M880.737 510.881L878.456 511.424L878.625 512.135L880.906 511.592L880.737 510.881Z" fill="#231F20"/>
<path d="M887.43 509.34L885.15 509.883L885.319 510.594L887.599 510.051L887.43 509.34Z" fill="#231F20"/>
<path d="M894.162 507.739L891.882 508.285L892.052 508.996L894.332 508.449L894.162 507.739Z" fill="#231F20"/>
<path d="M900.902 506.129L898.622 506.675L898.792 507.385L901.072 506.839L900.902 506.129Z" fill="#231F20"/>
<path d="M907.671 504.472L905.392 505.019L905.562 505.729L907.842 505.182L907.671 504.472Z" fill="#231F20"/>
<path d="M914.332 502.983L912.052 503.528L912.222 504.239L914.502 503.693L914.332 502.983Z" fill="#231F20"/>
<path d="M921.126 501.289L918.846 501.835L919.016 502.545L921.296 501.999L921.126 501.289Z" fill="#231F20"/>
<path d="M927.886 499.647L925.606 500.193L925.777 500.904L928.056 500.357L927.886 499.647Z" fill="#231F20"/>
<path d="M934.608 498.067L932.328 498.613L932.498 499.323L934.778 498.777L934.608 498.067Z" fill="#231F20"/>
<path d="M477.1 417.018L474.766 417.238L474.835 417.966L477.168 417.745L477.1 417.018Z" fill="#231F20"/>
<path d="M483.88 416.45L481.547 416.672L481.616 417.399L483.949 417.177L483.88 416.45Z" fill="#231F20"/>
<path d="M490.898 415.714L488.564 415.935L488.633 416.662L490.966 416.442L490.898 415.714Z" fill="#231F20"/>
<path d="M497.797 415.058L495.463 415.278L495.532 416.006L497.865 415.785L497.797 415.058Z" fill="#231F20"/>
<path d="M504.699 414.401L502.365 414.622L502.434 415.349L504.768 415.128L504.699 414.401Z" fill="#231F20"/>
<path d="M511.598 413.748L509.264 413.969L509.333 414.696L511.667 414.475L511.598 413.748Z" fill="#231F20"/>
<path d="M518.497 413.098L516.163 413.318L516.232 414.046L518.565 413.825L518.497 413.098Z" fill="#231F20"/>
<path d="M525.396 412.445L523.062 412.665L523.131 413.392L525.465 413.172L525.396 412.445Z" fill="#231F20"/>
<path d="M532.288 411.798L529.955 412.019L530.023 412.746L532.357 412.525L532.288 411.798Z" fill="#231F20"/>
<path d="M539.2 411.131L536.867 411.352L536.936 412.079L539.269 411.859L539.2 411.131Z" fill="#231F20"/>
<path d="M545.986 410.572L543.652 410.792L543.721 411.519L546.054 411.299L545.986 410.572Z" fill="#231F20"/>
<path d="M552.885 409.92L550.552 410.14L550.62 410.867L552.954 410.647L552.885 409.92Z" fill="#231F20"/>
<path d="M559.893 409.177L557.56 409.399L557.629 410.126L559.962 409.904L559.893 409.177Z" fill="#231F20"/>
<path d="M566.797 408.521L564.464 408.743L564.534 409.47L566.867 409.248L566.797 408.521Z" fill="#231F20"/>
<path d="M573.4 407.91L571.056 408.121L571.121 408.851L573.465 408.64L573.4 407.91Z" fill="#231F20"/>
<path d="M580.597 407.216L578.263 407.438L578.333 408.166L580.666 407.943L580.597 407.216Z" fill="#231F20"/>
<path d="M587.325 406.614L584.981 406.825L585.047 407.555L587.391 407.344L587.325 406.614Z" fill="#231F20"/>
<path d="M594.395 405.911L592.062 406.13L592.13 406.857L594.463 406.638L594.395 405.911Z" fill="#231F20"/>
<path d="M601.299 405.257L598.965 405.476L599.033 406.203L601.367 405.984L601.299 405.257Z" fill="#231F20"/>
<path d="M608.199 404.595L605.866 404.817L605.935 405.544L608.268 405.322L608.199 404.595Z" fill="#231F20"/>
<path d="M615.021 404.015L612.688 404.237L612.757 404.964L615.091 404.742L615.021 404.015Z" fill="#231F20"/>
<path d="M621.943 403.555L619.599 403.766L619.664 404.497L622.008 404.286L621.943 403.555Z" fill="#231F20"/>
<path d="M628.801 402.727L626.467 402.949L626.537 403.676L628.87 403.454L628.801 402.727Z" fill="#231F20"/>
<path d="M635.817 401.966L633.483 402.188L633.553 402.915L635.886 402.693L635.817 401.966Z" fill="#231F20"/>
<path d="M642.746 401.692L640.402 401.903L640.468 402.633L642.811 402.422L642.746 401.692Z" fill="#231F20"/>
<path d="M649.557 400.722L647.223 400.94L647.291 401.668L649.625 401.449L649.557 400.722Z" fill="#231F20"/>
<path d="M656.397 400.12L654.064 400.34L654.132 401.067L656.466 400.847L656.397 400.12Z" fill="#231F20"/>
<path d="M663.323 399.441L660.99 399.663L661.059 400.39L663.392 400.168L663.323 399.441Z" fill="#231F20"/>
<path d="M93.8569 450.658L93.6891 451.369L95.9704 451.907L96.1381 451.196L93.8569 450.658Z" fill="#231F20"/>
<path d="M100.603 452.214L100.436 452.925L102.717 453.462L102.885 452.751L100.603 452.214Z" fill="#231F20"/>
<path d="M107.35 453.72L107.183 454.431L109.464 454.968L109.632 454.257L107.35 453.72Z" fill="#231F20"/>
<path d="M114.096 455.398L113.928 456.109L116.209 456.647L116.377 455.937L114.096 455.398Z" fill="#231F20"/>
<path d="M120.843 456.968L120.676 457.679L122.957 458.216L123.125 457.505L120.843 456.968Z" fill="#231F20"/>
<path d="M127.588 458.629L127.421 459.339L129.702 459.878L129.87 459.167L127.588 458.629Z" fill="#231F20"/>
<path d="M134.332 460.244L134.164 460.955L136.445 461.495L136.613 460.784L134.332 460.244Z" fill="#231F20"/>
<path d="M141.083 461.813L140.915 462.524L143.196 463.062L143.364 462.351L141.083 461.813Z" fill="#231F20"/>
<path d="M147.825 463.398L147.657 464.109L149.939 464.647L150.106 463.936L147.825 463.398Z" fill="#231F20"/>
<path d="M154.574 465.01L154.405 465.721L156.686 466.261L156.854 465.55L154.574 465.01Z" fill="#231F20"/>
<path d="M161.316 466.575L161.147 467.286L163.429 467.825L163.597 467.114L161.316 466.575Z" fill="#231F20"/>
<path d="M168.061 468.114L167.894 468.825L170.175 469.362L170.343 468.651L168.061 468.114Z" fill="#231F20"/>
<path d="M174.811 469.769L174.643 470.48L176.924 471.019L177.092 470.309L174.811 469.769Z" fill="#231F20"/>
<path d="M181.558 471.353L181.39 472.064L183.671 472.603L183.839 471.892L181.558 471.353Z" fill="#231F20"/>
<path d="M188.298 472.82L188.13 473.531L190.412 474.069L190.579 473.358L188.298 472.82Z" fill="#231F20"/>
<path d="M195.05 474.552L194.882 475.263L197.164 475.801L197.331 475.09L195.05 474.552Z" fill="#231F20"/>
<path d="M201.797 476.144L201.629 476.855L203.91 477.393L204.078 476.682L201.797 476.144Z" fill="#231F20"/>
<path d="M208.539 477.746L208.372 478.457L210.653 478.994L210.82 478.283L208.539 477.746Z" fill="#231F20"/>
<path d="M215.283 479.268L215.115 479.979L217.396 480.519L217.564 479.808L215.283 479.268Z" fill="#231F20"/>
<path d="M222.032 480.867L221.864 481.578L224.145 482.117L224.313 481.406L222.032 480.867Z" fill="#231F20"/>
<path d="M228.776 482.491L228.608 483.202L230.89 483.74L231.057 483.029L228.776 482.491Z" fill="#231F20"/>
<path d="M235.524 484.107L235.357 484.818L237.638 485.356L237.806 484.645L235.524 484.107Z" fill="#231F20"/>
<path d="M242.272 485.699L242.104 486.41L244.386 486.948L244.553 486.237L242.272 485.699Z" fill="#231F20"/>
<path d="M249.016 487.291L248.849 488.001L251.13 488.54L251.298 487.829L249.016 487.291Z" fill="#231F20"/>
<path d="M94.211 451.065L93.4807 451.07L93.4978 453.414L94.2281 453.409L94.211 451.065Z" fill="#231F20"/>
<path fill-rule="evenodd" clip-rule="evenodd" d="M93.4487 458.02L94.1791 458.016L94.1961 460.357L93.4657 460.364L93.4487 458.02Z" fill="#231F20"/>
<path d="M94.2501 464.945L93.5198 464.949L93.5337 467.293L94.2641 467.289L94.2501 464.945Z" fill="#231F20"/>
<path d="M94.2561 471.882L93.5258 471.886L93.5364 474.23L94.2668 474.226L94.2561 471.882Z" fill="#231F20"/>
<path d="M94.4006 478.796L93.6702 478.803L93.6907 481.147L94.421 481.14L94.4006 478.796Z" fill="#231F20"/>
<path d="M94.3937 485.738L93.6633 485.743L93.6805 488.087L94.4109 488.082L94.3937 485.738Z" fill="#231F20"/>
<path d="M94.4452 492.668L93.7149 492.672L93.7288 495.016L94.4591 495.012L94.4452 492.668Z" fill="#231F20"/>
<path d="M94.5395 499.591L93.8091 499.596L93.8263 501.941L94.5567 501.935L94.5395 499.591Z" fill="#231F20"/>
<path d="M94.5445 506.532L93.8141 506.536L93.8281 508.88L94.5584 508.876L94.5445 506.532Z" fill="#231F20"/>
<path d="M94.6445 513.451L93.9141 513.456L93.9313 515.8L94.6617 515.795L94.6445 513.451Z" fill="#231F20"/>
<path d="M94.6817 520.384L93.9513 520.389L93.9685 522.734L94.6989 522.728L94.6817 520.384Z" fill="#231F20"/>
<path d="M94.7291 527.318L93.9988 527.323L94.016 529.667L94.7463 529.661L94.7291 527.318Z" fill="#231F20"/>
<path d="M896.199 320.96H895.469V323.304H896.199V320.96Z" fill="#231F20"/>
<path d="M896.199 314.026H895.469V316.371H896.199V314.026Z" fill="#231F20"/>
<path d="M896.199 307.096H895.469V309.44H896.199V307.096Z" fill="#231F20"/>
<path d="M896.199 300.162H895.469V302.506H896.199V300.162Z" fill="#231F20"/>
<path d="M896.199 293.232H895.469V295.576H896.199V293.232Z" fill="#231F20"/>
<path d="M896.199 286.302H895.469V288.646H896.199V286.302Z" fill="#231F20"/>
<path d="M896.199 279.368H895.469V281.712H896.199V279.368Z" fill="#231F20"/>
<path d="M896.199 272.437H895.469V274.781H896.199V272.437Z" fill="#231F20"/>
<path d="M896.199 265.503H895.469V267.848H896.199V265.503Z" fill="#231F20"/>
<path d="M896.199 258.573H895.469V260.917H896.199V258.573Z" fill="#231F20"/>
<path d="M896.199 251.643H895.469V253.987H896.199V251.643Z" fill="#231F20"/>
<path d="M896.199 244.709H895.469V247.053H896.199V244.709Z" fill="#231F20"/>
<path d="M896.199 237.778H895.469V240.122H896.199V237.778Z" fill="#231F20"/>
<path d="M896.199 230.844H895.469V233.189H896.199V230.844Z" fill="#231F20"/>
<path d="M896.199 223.914H895.469V226.258H896.199V223.914Z" fill="#231F20"/>
<path d="M896.199 216.98H895.469V219.324H896.199V216.98Z" fill="#231F20"/>
<path d="M896.199 210.05H895.469V212.394H896.199V210.05Z" fill="#231F20"/>
<path d="M896.199 203.119H895.469V205.463H896.199V203.119Z" fill="#231F20"/>
<path d="M896.199 196.186H895.469V198.53H896.199V196.186Z" fill="#231F20"/>
<path d="M896.199 189.255H895.469V191.599H896.199V189.255Z" fill="#231F20"/>
<path d="M1037.18 646.223L1036.77 646.83L1038.72 648.133L1039.13 647.525L1037.18 646.223Z" fill="#231F20"/>
<path d="M1031.44 642.509L1031.04 643.117L1032.99 644.419L1033.39 643.812L1031.44 642.509Z" fill="#231F20"/>
<path d="M1025.66 638.519L1025.25 639.126L1027.2 640.429L1027.61 639.822L1025.66 638.519Z" fill="#231F20"/>
<path d="M1019.93 634.859L1019.53 635.466L1021.47 636.771L1021.88 636.164L1019.93 634.859Z" fill="#231F20"/>
<path d="M1014.18 631.003L1013.77 631.61L1015.72 632.915L1016.12 632.308L1014.18 631.003Z" fill="#231F20"/>
<path d="M1008.42 627.144L1008.01 627.751L1009.96 629.056L1010.36 628.45L1008.42 627.144Z" fill="#231F20"/>
<path d="M1002.62 623.074L1002.21 623.681L1004.16 624.986L1004.57 624.379L1002.62 623.074Z" fill="#231F20"/>
<path d="M996.864 619.238L996.458 619.845L998.406 621.148L998.812 620.541L996.864 619.238Z" fill="#231F20"/>
<path d="M991.104 615.384L990.698 615.991L992.647 617.294L993.053 616.687L991.104 615.384Z" fill="#231F20"/>
<path d="M985.347 611.527L984.941 612.134L986.889 613.438L987.295 612.83L985.347 611.527Z" fill="#231F20"/>
<path d="M979.605 607.807L979.199 608.414L981.148 609.717L981.554 609.11L979.605 607.807Z" fill="#231F20"/>
<path d="M973.827 603.817L973.421 604.424L975.369 605.727L975.775 605.12L973.827 603.817Z" fill="#231F20"/>
<path d="M968.065 599.963L967.659 600.57L969.607 601.873L970.013 601.266L968.065 599.963Z" fill="#231F20"/>
<path d="M962.338 596.295L961.931 596.902L963.878 598.207L964.285 597.6L962.338 596.295Z" fill="#231F20"/>
<path d="M956.568 592.381L956.161 592.987L958.107 594.293L958.514 593.687L956.568 592.381Z" fill="#231F20"/>
<path d="M950.783 588.371L950.377 588.978L952.324 590.283L952.73 589.676L950.783 588.371Z" fill="#231F20"/>
<path d="M945.056 584.726L944.649 585.333L946.596 586.638L947.003 586.031L945.056 584.726Z" fill="#231F20"/>
<path d="M939.293 580.855L938.887 581.463L940.837 582.764L941.243 582.157L939.293 580.855Z" fill="#231F20"/>
<path d="M933.509 576.826L933.103 577.433L935.051 578.737L935.457 578.13L933.509 576.826Z" fill="#231F20"/>
<path d="M927.778 573.156L927.372 573.762L929.319 575.067L929.725 574.461L927.778 573.156Z" fill="#231F20"/>
<path d="M921.989 569.113L921.583 569.72L923.532 571.023L923.937 570.416L921.989 569.113Z" fill="#231F20"/>
<path d="M916.231 565.27L915.825 565.877L917.772 567.182L918.179 566.575L916.231 565.27Z" fill="#231F20"/>
<path d="M910.477 561.458L910.071 562.065L912.02 563.368L912.426 562.761L910.477 561.458Z" fill="#231F20"/>
<path d="M904.711 557.542L904.305 558.15L906.254 559.452L906.66 558.845L904.711 557.542Z" fill="#231F20"/>
<path d="M898.948 553.676L898.541 554.283L900.488 555.587L900.895 554.981L898.948 553.676Z" fill="#231F20"/>
<path d="M895.937 555.971L895.528 556.577L897.473 557.889L897.882 557.283L895.937 555.971Z" fill="#231F20"/>
<path d="M887.46 546.162L887.053 546.769L889.001 548.074L889.407 547.467L887.46 546.162Z" fill="#231F20"/>
<path d="M881.697 542.289L881.291 542.896L883.238 544.2L883.645 543.593L881.697 542.289Z" fill="#231F20"/>
<path d="M875.939 538.466L875.534 539.074L877.483 540.375L877.889 539.767L875.939 538.466Z" fill="#231F20"/>
<path d="M870.176 534.554L869.769 535.161L871.716 536.466L872.123 535.859L870.176 534.554Z" fill="#231F20"/>
<path d="M864.408 530.645L864.001 531.251L865.948 532.557L866.355 531.951L864.408 530.645Z" fill="#231F20"/>
<path d="M858.645 526.761L858.239 527.368L860.187 528.672L860.593 528.064L858.645 526.761Z" fill="#231F20"/>
<path d="M855.387 528.076L854.978 528.682L856.923 529.995L857.332 529.388L855.387 528.076Z" fill="#231F20"/>
<path d="M847.131 519.08L846.725 519.688L848.673 520.99L849.079 520.383L847.131 519.08Z" fill="#231F20"/>
<path d="M884.293 646.261L882.346 647.566L882.753 648.173L884.7 646.868L884.293 646.261Z" fill="#231F20"/>
<path d="M890.011 642.551L888.063 643.854L888.469 644.461L890.417 643.158L890.011 642.551Z" fill="#231F20"/>
<path d="M895.809 638.571L893.861 639.874L894.267 640.481L896.215 639.178L895.809 638.571Z" fill="#231F20"/>
<path d="M901.548 634.762L899.602 636.07L900.009 636.676L901.955 635.369L901.548 634.762Z" fill="#231F20"/>
<path d="M907.305 630.936L905.358 632.241L905.764 632.848L907.712 631.543L907.305 630.936Z" fill="#231F20"/>
<path d="M913.099 626.943L911.152 628.248L911.559 628.855L913.506 627.549L913.099 626.943Z" fill="#231F20"/>
<path d="M918.805 623.288L916.858 624.593L917.264 625.2L919.212 623.895L918.805 623.288Z" fill="#231F20"/>
<path d="M924.619 619.229L922.672 620.534L923.078 621.141L925.026 619.836L924.619 619.229Z" fill="#231F20"/>
<path d="M930.38 615.373L928.433 616.678L928.84 617.285L930.787 615.98L930.38 615.373Z" fill="#231F20"/>
<path d="M936.088 611.702L934.14 613.005L934.546 613.612L936.494 612.309L936.088 611.702Z" fill="#231F20"/>
<path d="M941.852 607.844L939.904 609.148L940.31 609.755L942.258 608.452L941.852 607.844Z" fill="#231F20"/>
<path d="M947.644 603.864L945.695 605.167L946.101 605.774L948.05 604.471L947.644 603.864Z" fill="#231F20"/>
<path d="M953.372 600.135L951.424 601.439L951.83 602.046L953.778 600.742L953.372 600.135Z" fill="#231F20"/>
<path d="M959.174 596.092L957.227 597.397L957.634 598.003L959.581 596.698L959.174 596.092Z" fill="#231F20"/>
<path d="M964.936 592.236L962.989 593.541L963.395 594.147L965.342 592.842L964.936 592.236Z" fill="#231F20"/>
<path d="M970.694 588.381L968.747 589.686L969.154 590.293L971.101 588.988L970.694 588.381Z" fill="#231F20"/>
<path d="M976.455 584.525L974.508 585.83L974.915 586.437L976.862 585.132L976.455 584.525Z" fill="#231F20"/>
<path d="M982.171 580.855L980.223 582.159L980.629 582.766L982.577 581.462L982.171 580.855Z" fill="#231F20"/>
<path d="M987.931 577.002L985.983 578.305L986.389 578.912L988.337 577.609L987.931 577.002Z" fill="#231F20"/>
<path d="M993.705 573.085L991.757 574.388L992.163 574.996L994.111 573.692L993.705 573.085Z" fill="#231F20"/>
<path d="M999.48 569.161L997.531 570.464L997.937 571.071L999.885 569.768L999.48 569.161Z" fill="#231F20"/>
<path d="M1005.24 565.285L1003.3 566.59L1003.7 567.196L1005.65 565.891L1005.24 565.285Z" fill="#231F20"/>
<path d="M1010.99 561.482L1009.04 562.784L1009.45 563.391L1011.4 562.089L1010.99 561.482Z" fill="#231F20"/>
<path d="M1016.77 557.533L1014.82 558.839L1015.23 559.445L1017.18 558.14L1016.77 557.533Z" fill="#231F20"/>
<path d="M1025.74 547.466L1023.79 548.779L1024.2 549.385L1026.14 548.072L1025.74 547.466Z" fill="#231F20"/>
<path d="M1028.26 549.995L1026.31 551.297L1026.71 551.905L1028.66 550.602L1028.26 549.995Z" fill="#231F20"/>
<path d="M1034.04 546.005L1032.09 547.31L1032.5 547.916L1034.45 546.611L1034.04 546.005Z" fill="#231F20"/>
<path d="M1039.79 542.185L1037.84 543.486L1038.25 544.094L1040.2 542.792L1039.79 542.185Z" fill="#231F20"/>
<path d="M1045.57 538.269L1043.62 539.571L1044.02 540.178L1045.97 538.877L1045.57 538.269Z" fill="#231F20"/>
<path d="M1051.32 534.434L1049.37 535.739L1049.78 536.346L1051.72 535.041L1051.32 534.434Z" fill="#231F20"/>
<path d="M1057.08 530.578L1055.13 531.883L1055.54 532.49L1057.48 531.185L1057.08 530.578Z" fill="#231F20"/>
<path d="M1062.84 526.696L1060.89 528.001L1061.3 528.608L1063.25 527.303L1062.84 526.696Z" fill="#231F20"/>
<path d="M1068.6 522.841L1066.65 524.142L1067.06 524.75L1069.01 523.449L1068.6 522.841Z" fill="#231F20"/>
<path d="M1074.37 518.954L1072.42 520.255L1072.82 520.863L1074.77 519.562L1074.37 518.954Z" fill="#231F20"/>
<path d="M1080.11 515.214L1078.16 516.52L1078.57 517.126L1080.51 515.821L1080.11 515.214Z" fill="#231F20"/>
<path d="M1085.85 511.474L1083.91 512.778L1084.31 513.385L1086.26 512.081L1085.85 511.474Z" fill="#231F20"/>
<path d="M1091.64 507.375L1089.7 508.68L1090.1 509.287L1092.05 507.982L1091.64 507.375Z" fill="#231F20"/>
<path d="M1097.39 503.606L1095.45 504.909L1095.85 505.516L1097.8 504.213L1097.39 503.606Z" fill="#231F20"/>
<path d="M1103.16 499.689L1101.21 500.994L1101.62 501.601L1103.57 500.296L1103.16 499.689Z" fill="#231F20"/>
<path d="M1108.92 495.833L1106.97 497.138L1107.38 497.745L1109.33 496.44L1108.92 495.833Z" fill="#231F20"/>
<path d="M1042.81 646.608L1040.86 647.911L1041.27 648.518L1043.22 647.215L1042.81 646.608Z" fill="#231F20"/>
<path d="M1048.59 642.666L1046.64 643.97L1047.04 644.577L1048.99 643.273L1048.59 642.666Z" fill="#231F20"/>
<path d="M1054.33 638.897L1052.38 640.199L1052.79 640.807L1054.74 639.504L1054.33 638.897Z" fill="#231F20"/>
<path d="M1060.1 634.976L1058.15 636.281L1058.56 636.888L1060.51 635.583L1060.1 634.976Z" fill="#231F20"/>
<path d="M1065.85 631.182L1063.9 632.488L1064.31 633.095L1066.26 631.789L1065.85 631.182Z" fill="#231F20"/>
<path d="M1071.61 627.327L1069.66 628.633L1070.07 629.239L1072.01 627.934L1071.61 627.327Z" fill="#231F20"/>
<path d="M1077.38 623.41L1075.43 624.715L1075.84 625.321L1077.79 624.016L1077.38 623.41Z" fill="#231F20"/>
<path d="M1083.11 619.706L1081.16 621.01L1081.57 621.617L1083.52 620.313L1083.11 619.706Z" fill="#231F20"/>
<path d="M1088.87 615.853L1086.92 617.157L1087.33 617.764L1089.28 616.46L1088.87 615.853Z" fill="#231F20"/>
<path d="M1094.63 611.98L1092.68 613.283L1093.09 613.89L1095.04 612.588L1094.63 611.98Z" fill="#231F20"/>
<path d="M1100.41 608.034L1098.46 609.341L1098.87 609.947L1100.81 608.641L1100.41 608.034Z" fill="#231F20"/>
<path fill-rule="evenodd" clip-rule="evenodd" d="M1104.22 605.481L1104.63 606.086L1106.58 604.785L1106.17 604.177L1104.22 605.481Z" fill="#231F20"/>
<path fill-rule="evenodd" clip-rule="evenodd" d="M1109.98 601.625L1110.39 602.23L1111 601.822V600.943L1109.98 601.625Z" fill="#231F20"/>
<path d="M95.1561 601.155L95.006 601.87L96.8146 602.25L96.9647 601.535L95.1561 601.155Z" fill="#231F20"/>
<path d="M100.504 602.261L100.354 602.976L102.163 603.355L102.312 602.64L100.504 602.261Z" fill="#231F20"/>
<path d="M106.244 597.77L106.098 598.486L107.909 598.855L108.055 598.14L106.244 597.77Z" fill="#231F20"/>
<path d="M111.207 604.506L111.057 605.221L112.866 605.599L113.016 604.884L111.207 604.506Z" fill="#231F20"/>
<path d="M116.558 605.681L116.409 606.396L118.218 606.774L118.367 606.059L116.558 605.681Z" fill="#231F20"/>
<path d="M122.224 601.1L122.078 601.816L123.889 602.186L124.035 601.47L122.224 601.1Z" fill="#231F20"/>
<path d="M127.553 602.206L127.407 602.922L129.218 603.292L129.364 602.576L127.553 602.206Z" fill="#231F20"/>
<path d="M132.61 609.039L132.461 609.754L134.27 610.133L134.419 609.418L132.61 609.039Z" fill="#231F20"/>
<path d="M137.965 610.042L137.815 610.757L139.624 611.136L139.773 610.421L137.965 610.042Z" fill="#231F20"/>
<path d="M143.313 611.236L143.163 611.951L144.972 612.331L145.122 611.616L143.313 611.236Z" fill="#231F20"/>
<path fill-rule="evenodd" clip-rule="evenodd" d="M148.514 613.04L148.664 612.327L150.475 612.704L150.332 613.394L150.295 613.414L148.514 613.04Z" fill="#231F20"/>
<path d="M95.0039 601.798L94.7966 603.635L95.5223 603.717L95.7296 601.88L95.0039 601.798Z" fill="#231F20"/>
<path d="M94.4007 607.344L94.1957 609.181L94.9215 609.262L95.1265 607.425L94.4007 607.344Z" fill="#231F20"/>
<path d="M93.7828 612.634L93.5756 614.471L94.3013 614.553L94.5086 612.716L93.7828 612.634Z" fill="#231F20"/>
<path d="M93.1758 618.211L92.9708 620.047L93.6966 620.128L93.9016 618.292L93.1758 618.211Z" fill="#231F20"/>
<path d="M92.5648 623.619L92.3575 625.455L93.0832 625.537L93.2905 623.701L92.5648 623.619Z" fill="#231F20"/>
<path d="M91.9595 629.056L91.7523 630.892L92.478 630.974L92.6853 629.138L91.9595 629.056Z" fill="#231F20"/>
<path d="M91.3432 634.449L91.1385 636.286L91.8643 636.367L92.069 634.53L91.3432 634.449Z" fill="#231F20"/>
<path d="M90.7317 639.826L90.5244 641.663L91.2501 641.745L91.4574 639.908L90.7317 639.826Z" fill="#231F20"/>
<path fill-rule="evenodd" clip-rule="evenodd" d="M90.123 645.304L90.85 645.385L90.6428 647.223L90.3778 647.193L90.0041 646.364L90.123 645.304Z" fill="#231F20"/>
<path d="M94.3509 600.105L93.798 600.582L95.0056 601.981L95.5584 601.504L94.3509 600.105Z" fill="#231F20"/>
<path d="M90.8473 595.883L90.2947 596.361L91.5032 597.759L92.0557 597.281L90.8473 595.883Z" fill="#231F20"/>
<path d="M87.2723 591.744L86.7197 592.221L87.9282 593.619L88.4807 593.142L87.2723 591.744Z" fill="#231F20"/>
<path d="M83.6204 587.704L83.068 588.181L84.277 589.579L84.8293 589.101L83.6204 587.704Z" fill="#231F20"/>
<path d="M80.1064 583.496L79.5538 583.973L80.762 585.371L81.3147 584.894L80.1064 583.496Z" fill="#231F20"/>
<path d="M76.5767 579.307L76.0241 579.785L77.2326 581.183L77.7852 580.705L76.5767 579.307Z" fill="#231F20"/>
<path d="M72.9322 575.251L72.3789 575.728L73.5852 577.128L74.1385 576.651L72.9322 575.251Z" fill="#231F20"/>
<path d="M69.3294 571.149L68.7766 571.627L69.9844 573.025L70.5372 572.548L69.3294 571.149Z" fill="#231F20"/>
<path d="M65.7888 566.971L65.2356 567.448L66.4421 568.848L66.9954 568.371L65.7888 566.971Z" fill="#231F20"/>
<path d="M62.2659 562.776L61.7127 563.253L62.9192 564.653L63.4725 564.176L62.2659 562.776Z" fill="#231F20"/>
<path d="M58.6329 558.705L58.0801 559.182L59.2879 560.581L59.8407 560.104L58.6329 558.705Z" fill="#231F20"/>
<path d="M55.0346 554.597L54.4818 555.074L55.6896 556.473L56.2424 555.995L55.0346 554.597Z" fill="#231F20"/>
<path d="M51.5472 550.363L50.9947 550.84L52.2031 552.239L52.7557 551.761L51.5472 550.363Z" fill="#231F20"/>
<path d="M47.9693 546.229L47.4163 546.706L48.6236 548.105L49.1765 547.628L47.9693 546.229Z" fill="#231F20"/>
<path d="M44.3062 542.195L43.7534 542.673L44.9612 544.072L45.514 543.594L44.3062 542.195Z" fill="#231F20"/>
<path d="M745.802 347.792L743.904 349.168L744.333 349.759L746.231 348.383L745.802 347.792Z" fill="#231F20"/>
<path d="M751.44 343.546L749.544 344.925L749.974 345.516L751.87 344.137L751.44 343.546Z" fill="#231F20"/>
<path d="M757.04 339.51L755.145 340.89L755.575 341.481L757.47 340.101L757.04 339.51Z" fill="#231F20"/>
<path d="M762.634 335.522L760.736 336.899L761.165 337.49L763.062 336.114L762.634 335.522Z" fill="#231F20"/>
<path d="M768.241 331.44L766.344 332.817L766.773 333.408L768.67 332.031L768.241 331.44Z" fill="#231F20"/>
<path d="M773.846 327.399L771.949 328.776L772.378 329.368L774.275 327.99L773.846 327.399Z" fill="#231F20"/>
<path d="M779.478 323.173L777.582 324.552L778.012 325.142L779.908 323.763L779.478 323.173Z" fill="#231F20"/>
<path d="M785.065 319.225L783.168 320.602L783.597 321.193L785.494 319.816L785.065 319.225Z" fill="#231F20"/>
<path d="M790.676 315.109L788.781 316.488L789.211 317.079L791.106 315.699L790.676 315.109Z" fill="#231F20"/>
<path d="M796.29 311.007L794.395 312.386L794.824 312.977L796.72 311.598L796.29 311.007Z" fill="#231F20"/>
<path d="M801.886 307.014L799.989 308.391L800.417 308.982L802.315 307.606L801.886 307.014Z" fill="#231F20"/>
<path d="M807.513 302.798L805.618 304.177L806.048 304.767L807.943 303.388L807.513 302.798Z" fill="#231F20"/>
<path d="M813.117 298.742L811.221 300.121L811.651 300.711L813.547 299.332L813.117 298.742Z" fill="#231F20"/>
<path d="M818.705 294.812L816.808 296.188L817.237 296.779L819.134 295.403L818.705 294.812Z" fill="#231F20"/>
<path d="M824.333 290.575L822.438 291.954L822.867 292.544L824.763 291.165L824.333 290.575Z" fill="#231F20"/>
<path d="M832.637 286.108L830.739 287.491L831.17 288.082L833.068 286.699L832.637 286.108Z" fill="#231F20"/>
<path d="M835.536 282.553L833.639 283.929L834.067 284.52L835.965 283.144L835.536 282.553Z" fill="#231F20"/>
<path d="M841.148 278.393L839.253 279.772L839.683 280.363L841.578 278.983L841.148 278.393Z" fill="#231F20"/>
<path d="M846.76 274.286L844.864 275.665L845.294 276.255L847.19 274.876L846.76 274.286Z" fill="#231F20"/>
<path d="M852.349 270.412L850.452 271.789L850.881 272.38L852.778 271.004L852.349 270.412Z" fill="#231F20"/>
<path d="M860.675 265.66L858.777 267.043L859.208 267.635L861.106 266.252L860.675 265.66Z" fill="#231F20"/>
<path d="M863.569 262.205L861.673 263.583L862.103 264.173L863.999 262.795L863.569 262.205Z" fill="#231F20"/>
<path d="M869.178 258.141L867.281 259.517L867.71 260.108L869.607 258.732L869.178 258.141Z" fill="#231F20"/>
<path d="M874.787 254.077L872.89 255.454L873.319 256.045L875.216 254.668L874.787 254.077Z" fill="#231F20"/>
<path d="M880.392 249.964L878.497 251.344L878.927 251.934L880.822 250.554L880.392 249.964Z" fill="#231F20"/>
<path d="M886.004 245.85L884.106 247.226L884.535 247.817L886.433 246.441L886.004 245.85Z" fill="#231F20"/>
<path d="M891.608 241.879L889.712 243.258L890.142 243.848L892.038 242.47L891.608 241.879Z" fill="#231F20"/>
<path d="M897.223 237.628L895.327 239.006L895.756 239.597L897.652 238.219L897.223 237.628Z" fill="#231F20"/>
<path d="M902.827 233.66L900.93 235.037L901.359 235.628L903.256 234.251L902.827 233.66Z" fill="#231F20"/>
<path d="M908.437 229.495L906.542 230.874L906.971 231.464L908.867 230.085L908.437 229.495Z" fill="#231F20"/>
<path d="M916.769 224.319L914.87 225.702L915.301 226.293L917.2 224.91L916.769 224.319Z" fill="#231F20"/>
<path d="M919.65 221.406L917.752 222.782L918.181 223.374L920.079 221.998L919.65 221.406Z" fill="#231F20"/>
<path d="M925.256 217.302L923.361 218.682L923.791 219.273L925.686 217.893L925.256 217.302Z" fill="#231F20"/>
<path d="M930.862 213.355L928.966 214.733L929.396 215.324L931.292 213.946L930.862 213.355Z" fill="#231F20"/>
<path d="M936.474 209.216L934.577 210.593L935.006 211.184L936.903 209.807L936.474 209.216Z" fill="#231F20"/>
<path d="M942.079 205.022L940.184 206.401L940.613 206.991L942.509 205.613L942.079 205.022Z" fill="#231F20"/>
<path d="M947.688 200.976L945.793 202.356L946.223 202.946L948.118 201.567L947.688 200.976Z" fill="#231F20"/>
<path d="M953.298 197.028L951.401 198.405L951.83 198.996L953.727 197.62L953.298 197.028Z" fill="#231F20"/>
<path d="M958.904 192.967L957.006 194.343L957.435 194.934L959.333 193.558L958.904 192.967Z" fill="#231F20"/>
<path d="M964.507 188.755L962.612 190.135L963.042 190.725L964.937 189.345L964.507 188.755Z" fill="#231F20"/>
<path d="M970.12 184.742L968.222 186.117L968.651 186.709L970.549 185.334L970.12 184.742Z" fill="#231F20"/>
<path d="M975.728 180.73L973.831 182.107L974.26 182.698L976.157 181.321L975.728 180.73Z" fill="#231F20"/>
<path d="M981.332 176.678L979.436 178.056L979.866 178.647L981.761 177.268L981.332 176.678Z" fill="#231F20"/>
<path d="M986.945 172.629L985.048 174.006L985.477 174.597L987.374 173.22L986.945 172.629Z" fill="#231F20"/>
<path d="M992.553 168.553L990.657 169.93L991.086 170.521L992.982 169.144L992.553 168.553Z" fill="#231F20"/>
<path d="M998.15 164.262L996.255 165.641L996.685 166.231L998.58 164.852L998.15 164.262Z" fill="#231F20"/>
<path d="M1003.76 160.327L1001.87 161.703L1002.3 162.294L1004.19 160.918L1003.76 160.327Z" fill="#231F20"/>
<path d="M1009.37 156.247L1007.48 157.624L1007.9 158.215L1009.8 156.839L1009.37 156.247Z" fill="#231F20"/>
<path d="M1014.97 152.083L1013.08 153.462L1013.51 154.053L1015.4 152.673L1014.97 152.083Z" fill="#231F20"/>
<path d="M1020.59 148.134L1018.69 149.512L1019.12 150.103L1021.02 148.725L1020.59 148.134Z" fill="#231F20"/>
<path d="M1026.2 144.076L1024.3 145.452L1024.73 146.043L1026.63 144.667L1026.2 144.076Z" fill="#231F20"/>
<path d="M85.7206 643.757L85.2912 644.348L87.1873 645.726L87.6167 645.135L85.7206 643.757Z" fill="#231F20"/>
<path d="M80.0577 639.787L79.6288 640.378L81.5258 641.755L81.9548 641.164L80.0577 639.787Z" fill="#231F20"/>
<path d="M74.5039 635.609L74.0745 636.2L75.9706 637.578L76.4 636.987L74.5039 635.609Z" fill="#231F20"/>
<path d="M68.8212 631.68L68.3917 632.271L70.2875 633.649L70.717 633.059L68.8212 631.68Z" fill="#231F20"/>
<path d="M63.2575 627.521L62.8286 628.112L64.7256 629.489L65.1546 628.898L63.2575 627.521Z" fill="#231F20"/>
<path d="M59.3166 625.625L58.8857 626.217L60.7843 627.6L61.2152 627.009L59.3166 625.625Z" fill="#231F20"/>
<path d="M51.9984 619.455L51.5689 620.045L53.4648 621.424L53.8942 620.833L51.9984 619.455Z" fill="#231F20"/>
<path d="M46.4666 615.242L46.0375 615.833L47.9343 617.211L48.3634 616.62L46.4666 615.242Z" fill="#231F20"/>
<path d="M42.4468 613.396L42.0158 613.988L43.9145 615.371L44.3454 614.779L42.4468 613.396Z" fill="#231F20"/>
<path d="M35.1961 607.188L34.7671 607.779L36.6641 609.156L37.0931 608.564L35.1961 607.188Z" fill="#231F20"/>
<path d="M29.6448 603.02L29.2158 603.612L31.1125 604.989L31.5416 604.398L29.6448 603.02Z" fill="#231F20"/>
<path d="M23.9609 599.081L23.5314 599.672L25.4272 601.05L25.8567 600.459L23.9609 599.081Z" fill="#231F20"/>
<path d="M18.3755 594.966L17.9465 595.557L19.8435 596.934L20.2725 596.342L18.3755 594.966Z" fill="#231F20"/>
<path d="M12.7435 590.934L12.314 591.525L14.2098 592.903L14.6393 592.312L12.7435 590.934Z" fill="#231F20"/>
<path d="M7.18353 586.779L6.75455 587.37L8.65153 588.747L9.08052 588.155L7.18353 586.779Z" fill="#231F20"/>
<path d="M1.52805 582.781L1.09854 583.372L2.99433 584.75L3.42383 584.159L1.52805 582.781Z" fill="#231F20"/>
<path d="M1.95035 517.172L0.0545349 518.55L0.484016 519.141L2.37983 517.763L1.95035 517.172Z" fill="#231F20"/>
<path d="M7.44721 513.2L5.55115 514.578L5.98053 515.169L7.87659 513.791L7.44721 513.2Z" fill="#231F20"/>
<path d="M13.0898 509.092L11.1931 510.469L11.6221 511.06L13.5189 509.683L13.0898 509.092Z" fill="#231F20"/>
<path d="M18.7702 504.951L16.8744 506.33L17.304 506.92L19.1998 505.542L18.7702 504.951Z" fill="#231F20"/>
<path d="M24.3445 500.909L22.4474 502.286L22.8765 502.877L24.7735 501.5L24.3445 500.909Z" fill="#231F20"/>
<path d="M29.9236 496.859L28.0266 498.236L28.4556 498.827L30.3526 497.451L29.9236 496.859Z" fill="#231F20"/>
<path d="M35.5901 492.727L33.6943 494.105L34.1239 494.696L36.0197 493.318L35.5901 492.727Z" fill="#231F20"/>
<path d="M43.2116 489.798L41.313 491.181L41.744 491.773L43.6426 490.39L43.2116 489.798Z" fill="#231F20"/>
<path d="M46.7085 484.676L44.8112 486.053L45.2402 486.644L47.1374 485.268L46.7085 484.676Z" fill="#231F20"/>
<path d="M52.4135 480.503L50.5176 481.881L50.9472 482.472L52.843 481.094L52.4135 480.503Z" fill="#231F20"/>
<path d="M60.2141 477.351L58.3155 478.734L58.7465 479.326L60.6451 477.943L60.2141 477.351Z" fill="#231F20"/>
<path d="M63.5278 472.459L61.6317 473.837L62.0611 474.428L63.9572 473.05L63.5278 472.459Z" fill="#231F20"/>
<path d="M69.2334 468.282L67.3376 469.661L67.7671 470.251L69.6629 468.873L69.2334 468.282Z" fill="#231F20"/>
<path d="M74.7747 464.274L72.8779 465.651L73.307 466.243L75.2038 464.865L74.7747 464.274Z" fill="#231F20"/>
<path d="M80.4521 460.131L78.5563 461.51L78.9858 462.1L80.8816 460.722L80.4521 460.131Z" fill="#231F20"/>
<path d="M85.9582 456.161L84.0622 457.539L84.4916 458.13L86.3877 456.752L85.9582 456.161Z" fill="#231F20"/>
<path d="M91.5668 452.086L89.6707 453.464L90.1001 454.055L91.9962 452.677L91.5668 452.086Z" fill="#231F20"/>
<path d="M97.272 447.907L95.3762 449.285L95.8057 449.876L97.7015 448.498L97.272 447.907Z" fill="#231F20"/>
<path d="M102.839 443.874L100.941 445.25L101.37 445.842L103.267 444.465L102.839 443.874Z" fill="#231F20"/>
<path d="M108.39 439.863L106.494 441.242L106.923 441.832L108.819 440.454L108.39 439.863Z" fill="#231F20"/>
<path d="M116.55 436.141L114.651 437.524L115.082 438.116L116.981 436.733L116.55 436.141Z" fill="#231F20"/>
<path d="M119.622 431.694L117.726 433.072L118.155 433.663L120.052 432.285L119.622 431.694Z" fill="#231F20"/>
<path d="M125.212 427.642L123.316 429.019L123.745 429.61L125.641 428.233L125.212 427.642Z" fill="#231F20"/>
<path d="M130.853 423.526L128.957 424.904L129.386 425.495L131.282 424.117L130.853 423.526Z" fill="#231F20"/>
<path d="M136.429 419.487L134.533 420.865L134.962 421.456L136.859 420.078L136.429 419.487Z" fill="#231F20"/>
<path d="M142.125 415.312L140.229 416.69L140.659 417.281L142.555 415.902L142.125 415.312Z" fill="#231F20"/>
<path d="M147.665 411.323L145.769 412.7L146.198 413.291L148.095 411.914L147.665 411.323Z" fill="#231F20"/>
<path d="M153.276 407.239L151.38 408.616L151.809 409.207L153.705 407.83L153.276 407.239Z" fill="#231F20"/>
<path d="M158.869 403.185L156.973 404.563L157.402 405.154L159.298 403.776L158.869 403.185Z" fill="#231F20"/>
<path d="M164.555 399.014L162.659 400.393L163.089 400.983L164.985 399.605L164.555 399.014Z" fill="#231F20"/>
<path d="M170.162 394.936L168.267 396.314L168.696 396.905L170.592 395.526L170.162 394.936Z" fill="#231F20"/>
<path d="M175.723 390.923L173.826 392.301L174.255 392.892L176.152 391.514L175.723 390.923Z" fill="#231F20"/>
<path d="M927.06 274.809L926.509 275.288L928.047 277.057L928.598 276.577L927.06 274.809Z" fill="#231F20"/>
<path d="M922.513 269.583L921.962 270.062L923.5 271.831L924.051 271.351L922.513 269.583Z" fill="#231F20"/>
<path d="M917.964 264.393L917.413 264.872L918.951 266.641L919.502 266.161L917.964 264.393Z" fill="#231F20"/>
<path d="M913.412 259.167L912.861 259.647L914.401 261.415L914.951 260.935L913.412 259.167Z" fill="#231F20"/>
<path d="M908.859 253.811L908.307 254.29L909.845 256.059L910.396 255.58L908.859 253.811Z" fill="#231F20"/>
<path d="M904.314 248.711L903.763 249.19L905.301 250.959L905.852 250.479L904.314 248.711Z" fill="#231F20"/>
<path d="M899.76 243.438L899.209 243.918L900.747 245.686L901.298 245.207L899.76 243.438Z" fill="#231F20"/>
<path d="M895.211 238.262L894.66 238.742L896.198 240.511L896.749 240.032L895.211 238.262Z" fill="#231F20"/>
<path d="M890.658 232.984L890.107 233.464L891.646 235.231L892.197 234.752L890.658 232.984Z" fill="#231F20"/>
<path d="M886.109 227.794L885.558 228.274L887.097 230.042L887.648 229.562L886.109 227.794Z" fill="#231F20"/>
<path d="M881.554 222.427L881.003 222.906L882.54 224.675L883.092 224.196L881.554 222.427Z" fill="#231F20"/>
<path d="M877.008 217.298L876.458 217.777L877.997 219.545L878.547 219.066L877.008 217.298Z" fill="#231F20"/>
<g filter="url(#filter0_d_4_777)">
<path fill-rule="evenodd" clip-rule="evenodd" d="M736.841 502.516L741.487 500.865L729 494L732.64 507.776L735.366 503.668L738.63 507.845L740.104 506.693L736.841 502.516Z" fill="#363B3E"/>
<path d="M737.662 502.755L741.654 501.336L742.703 500.963L741.727 500.427L729.241 493.562L728.219 493L728.517 494.128L732.157 507.904L732.441 508.981L733.057 508.053L735.399 504.522L738.236 508.153L738.544 508.547L738.938 508.239L740.412 507.087L740.806 506.78L740.498 506.386L737.662 502.755Z" stroke="white" stroke-opacity="0.8"/>
</g>
<line x1="726.5" y1="492" x2="726.5" y2="659" stroke="#FFE400" stroke-dasharray="5 5"/>
<line x1="116" y1="492.5" x2="726" y2="492.5" stroke="#FFE400" stroke-dasharray="5 5"/>
<line x1="90.5" y1="666" x2="90.5" y2="706" stroke="#FFE400"/>
<line x1="84.3536" y1="679.646" x2="96.3744" y2="691.667" stroke="#FFE400"/>
<line x1="374" y1="686.5" x2="90.0001" y2="686.5" stroke="#FFE400"/>
<path d="M385.408 692V690.816H388.528V681.824H388.416L385.6 684.448L384.816 683.6L387.776 680.832H389.872V690.816H392.752V692H385.408ZM402.122 692H394.794V690.624L398.442 687.264C398.964 686.784 399.402 686.277 399.754 685.744C400.106 685.2 400.282 684.656 400.282 684.112V683.92C400.282 683.301 400.111 682.8 399.77 682.416C399.428 682.032 398.911 681.84 398.218 681.84C397.876 681.84 397.578 681.888 397.322 681.984C397.066 682.08 396.842 682.213 396.65 682.384C396.468 682.555 396.314 682.757 396.186 682.992C396.068 683.216 395.972 683.461 395.898 683.728L394.698 683.264C394.804 682.933 394.948 682.613 395.13 682.304C395.322 681.984 395.556 681.701 395.834 681.456C396.122 681.211 396.463 681.013 396.858 680.864C397.263 680.715 397.738 680.64 398.282 680.64C398.826 680.64 399.311 680.72 399.738 680.88C400.164 681.04 400.522 681.264 400.81 681.552C401.098 681.84 401.316 682.181 401.466 682.576C401.626 682.971 401.706 683.408 401.706 683.888C401.706 684.325 401.642 684.731 401.514 685.104C401.396 685.477 401.231 685.835 401.018 686.176C400.804 686.507 400.543 686.832 400.234 687.152C399.935 687.472 399.61 687.792 399.258 688.112L396.25 690.816H402.122V692ZM409.188 692V689.808H403.796V688.624L408.468 680.832H410.468V688.688H412.084V689.808H410.468V692H409.188ZM405.06 688.688H409.188V681.872H409.108L405.06 688.688ZM416.957 685.568C417.715 685.568 418.28 685.397 418.653 685.056C419.037 684.704 419.229 684.256 419.229 683.712V683.6C419.229 683.013 419.043 682.576 418.669 682.288C418.307 681.989 417.827 681.84 417.229 681.84C416.653 681.84 416.184 681.968 415.821 682.224C415.459 682.469 415.16 682.805 414.925 683.232L413.933 682.464C414.072 682.24 414.237 682.021 414.429 681.808C414.632 681.584 414.867 681.387 415.133 681.216C415.4 681.045 415.709 680.907 416.061 680.8C416.413 680.693 416.813 680.64 417.261 680.64C417.731 680.64 418.173 680.704 418.589 680.832C419.005 680.949 419.363 681.131 419.661 681.376C419.971 681.611 420.211 681.904 420.381 682.256C420.563 682.608 420.653 683.008 420.653 683.456C420.653 683.819 420.595 684.144 420.477 684.432C420.371 684.72 420.221 684.971 420.029 685.184C419.837 685.397 419.608 685.579 419.341 685.728C419.085 685.877 418.808 685.989 418.509 686.064V686.128C418.808 686.192 419.096 686.299 419.373 686.448C419.661 686.587 419.912 686.773 420.125 687.008C420.349 687.232 420.525 687.509 420.653 687.84C420.792 688.16 420.861 688.528 420.861 688.944C420.861 689.424 420.771 689.867 420.589 690.272C420.408 690.667 420.152 691.008 419.821 691.296C419.491 691.573 419.091 691.792 418.621 691.952C418.152 692.112 417.635 692.192 417.069 692.192C416.589 692.192 416.163 692.139 415.789 692.032C415.416 691.925 415.085 691.781 414.797 691.6C414.509 691.419 414.253 691.216 414.029 690.992C413.816 690.768 413.624 690.533 413.453 690.288L414.461 689.52C414.6 689.744 414.749 689.947 414.909 690.128C415.08 690.309 415.267 690.464 415.469 690.592C415.672 690.72 415.901 690.821 416.157 690.896C416.413 690.96 416.712 690.992 417.053 690.992C417.843 690.992 418.44 690.816 418.845 690.464C419.251 690.101 419.453 689.589 419.453 688.928V688.8C419.453 688.139 419.251 687.632 418.845 687.28C418.44 686.917 417.843 686.736 417.053 686.736H415.741V685.568H416.957ZM427.175 692.192C425.842 692.192 424.866 691.685 424.247 690.672C423.639 689.659 423.335 688.24 423.335 686.416C423.335 684.592 423.639 683.173 424.247 682.16C424.866 681.147 425.842 680.64 427.175 680.64C428.508 680.64 429.479 681.147 430.087 682.16C430.706 683.173 431.015 684.592 431.015 686.416C431.015 688.24 430.706 689.659 430.087 690.672C429.479 691.685 428.508 692.192 427.175 692.192ZM427.175 691.024C427.612 691.024 427.986 690.933 428.295 690.752C428.604 690.571 428.855 690.315 429.047 689.984C429.239 689.653 429.378 689.264 429.463 688.816C429.559 688.368 429.607 687.872 429.607 687.328V685.504C429.607 684.96 429.559 684.464 429.463 684.016C429.378 683.568 429.239 683.179 429.047 682.848C428.855 682.517 428.604 682.261 428.295 682.08C427.986 681.899 427.612 681.808 427.175 681.808C426.738 681.808 426.364 681.899 426.055 682.08C425.746 682.261 425.495 682.517 425.303 682.848C425.111 683.179 424.967 683.568 424.871 684.016C424.786 684.464 424.743 684.96 424.743 685.504V687.328C424.743 687.872 424.786 688.368 424.871 688.816C424.967 689.264 425.111 689.653 425.303 689.984C425.495 690.315 425.746 690.571 426.055 690.752C426.364 690.933 426.738 691.024 427.175 691.024Z" fill="#FFE400"/>
<line x1="726" y1="686.5" x2="442" y2="686.5" stroke="#FFE400"/>
<line x1="720.353" y1="679.646" x2="732.374" y2="691.667" stroke="#FFE400"/>
<line x1="726.5" y1="666" x2="726.5" y2="706" stroke="#FFE400"/>
<path d="M23.692 462.008V458.664H20.572V457.576H23.692V454.232H24.908V457.576H28.028V458.664H24.908V462.008H23.692ZM37.6218 463H30.2938V461.624L33.9418 458.264C34.4644 457.784 34.9018 457.277 35.2538 456.744C35.6058 456.2 35.7818 455.656 35.7818 455.112V454.92C35.7818 454.301 35.6111 453.8 35.2698 453.416C34.9284 453.032 34.4111 452.84 33.7178 452.84C33.3764 452.84 33.0778 452.888 32.8218 452.984C32.5658 453.08 32.3418 453.213 32.1498 453.384C31.9684 453.555 31.8138 453.757 31.6858 453.992C31.5684 454.216 31.4724 454.461 31.3978 454.728L30.1978 454.264C30.3044 453.933 30.4484 453.613 30.6298 453.304C30.8218 452.984 31.0564 452.701 31.3338 452.456C31.6218 452.211 31.9631 452.013 32.3578 451.864C32.7631 451.715 33.2378 451.64 33.7818 451.64C34.3258 451.64 34.8111 451.72 35.2378 451.88C35.6644 452.04 36.0218 452.264 36.3098 452.552C36.5978 452.84 36.8164 453.181 36.9658 453.576C37.1258 453.971 37.2058 454.408 37.2058 454.888C37.2058 455.325 37.1418 455.731 37.0138 456.104C36.8964 456.477 36.7311 456.835 36.5178 457.176C36.3044 457.507 36.0431 457.832 35.7338 458.152C35.4351 458.472 35.1098 458.792 34.7578 459.112L31.7498 461.816H37.6218V463ZM40.8635 461.128C41.2048 461.128 41.4502 461.219 41.5995 461.4C41.7595 461.571 41.8395 461.795 41.8395 462.072V462.296C41.8395 462.733 41.7115 463.213 41.4555 463.736C41.1995 464.269 40.8422 464.733 40.3835 465.128H39.3115C39.6315 464.787 39.8875 464.461 40.0795 464.152C40.2822 463.853 40.4262 463.517 40.5115 463.144C40.2982 463.091 40.1382 462.989 40.0315 462.84C39.9355 462.691 39.8875 462.509 39.8875 462.296V462.072C39.8875 461.795 39.9622 461.571 40.1115 461.4C40.2715 461.219 40.5222 461.128 40.8635 461.128ZM44.4549 463V461.816H47.5749V452.824H47.4629L44.6469 455.448L43.8629 454.6L46.8229 451.832H48.9189V461.816H51.7989V463H44.4549ZM57.4406 463.192C56.8006 463.192 56.2406 463.112 55.7606 462.952C55.2806 462.781 54.8753 462.552 54.5446 462.264C54.2246 461.976 53.9793 461.635 53.8086 461.24C53.6486 460.845 53.5686 460.419 53.5686 459.96C53.5686 459.192 53.7766 458.584 54.1926 458.136C54.6086 457.688 55.1526 457.373 55.8246 457.192V457.064C55.238 456.861 54.7686 456.536 54.4166 456.088C54.0753 455.629 53.9046 455.08 53.9046 454.44C53.9046 453.587 54.214 452.909 54.8326 452.408C55.4513 451.896 56.3206 451.64 57.4406 451.64C58.5606 451.64 59.43 451.896 60.0486 452.408C60.6673 452.909 60.9766 453.587 60.9766 454.44C60.9766 455.08 60.8006 455.629 60.4486 456.088C60.1073 456.536 59.6433 456.861 59.0566 457.064V457.192C59.7286 457.373 60.2726 457.688 60.6886 458.136C61.1046 458.584 61.3126 459.192 61.3126 459.96C61.3126 460.419 61.2273 460.845 61.0566 461.24C60.8966 461.635 60.6513 461.976 60.3206 462.264C60.0006 462.552 59.6006 462.781 59.1206 462.952C58.6406 463.112 58.0806 463.192 57.4406 463.192ZM57.4406 462.024C58.2193 462.024 58.822 461.853 59.2486 461.512C59.6753 461.16 59.8886 460.664 59.8886 460.024V459.688C59.8886 459.048 59.6753 458.557 59.2486 458.216C58.822 457.864 58.2193 457.688 57.4406 457.688C56.662 457.688 56.0593 457.864 55.6326 458.216C55.206 458.557 54.9926 459.048 54.9926 459.688V460.024C54.9926 460.664 55.206 461.16 55.6326 461.512C56.0593 461.853 56.662 462.024 57.4406 462.024ZM57.4406 456.568C58.1446 456.568 58.678 456.419 59.0406 456.12C59.4033 455.821 59.5846 455.384 59.5846 454.808V454.568C59.5846 453.992 59.4033 453.555 59.0406 453.256C58.678 452.957 58.1446 452.808 57.4406 452.808C56.7366 452.808 56.2033 452.957 55.8406 453.256C55.478 453.555 55.2966 453.992 55.2966 454.568V454.808C55.2966 455.384 55.478 455.821 55.8406 456.12C56.2033 456.419 56.7366 456.568 57.4406 456.568ZM67.0344 463.192C65.701 463.192 64.725 462.685 64.1064 461.672C63.4984 460.659 63.1944 459.24 63.1944 457.416C63.1944 455.592 63.4984 454.173 64.1064 453.16C64.725 452.147 65.701 451.64 67.0344 451.64C68.3677 451.64 69.3384 452.147 69.9464 453.16C70.565 454.173 70.8744 455.592 70.8744 457.416C70.8744 459.24 70.565 460.659 69.9464 461.672C69.3384 462.685 68.3677 463.192 67.0344 463.192ZM67.0344 462.024C67.4717 462.024 67.845 461.933 68.1544 461.752C68.4637 461.571 68.7144 461.315 68.9064 460.984C69.0984 460.653 69.237 460.264 69.3224 459.816C69.4184 459.368 69.4664 458.872 69.4664 458.328V456.504C69.4664 455.96 69.4184 455.464 69.3224 455.016C69.237 454.568 69.0984 454.179 68.9064 453.848C68.7144 453.517 68.4637 453.261 68.1544 453.08C67.845 452.899 67.4717 452.808 67.0344 452.808C66.597 452.808 66.2237 452.899 65.9144 453.08C65.605 453.261 65.3544 453.517 65.1624 453.848C64.9704 454.179 64.8264 454.568 64.7304 455.016C64.645 455.464 64.6024 455.96 64.6024 456.504V458.328C64.6024 458.872 64.645 459.368 64.7304 459.816C64.8264 460.264 64.9704 460.653 65.1624 460.984C65.3544 461.315 65.605 461.571 65.9144 461.752C66.2237 461.933 66.597 462.024 67.0344 462.024ZM75.5721 457.144C75.1881 457.144 74.8308 457.075 74.5001 456.936C74.1801 456.797 73.8975 456.605 73.6521 456.36C73.4175 456.115 73.2308 455.827 73.0921 455.496C72.9535 455.155 72.8841 454.787 72.8841 454.392C72.8841 453.997 72.9535 453.635 73.0921 453.304C73.2308 452.963 73.4175 452.669 73.6521 452.424C73.8975 452.179 74.1801 451.987 74.5001 451.848C74.8308 451.709 75.1881 451.64 75.5721 451.64C75.9561 451.64 76.3081 451.709 76.6281 451.848C76.9588 451.987 77.2415 452.179 77.4761 452.424C77.7215 452.669 77.9135 452.963 78.0521 453.304C78.1908 453.635 78.2601 453.997 78.2601 454.392C78.2601 454.787 78.1908 455.155 78.0521 455.496C77.9135 455.827 77.7215 456.115 77.4761 456.36C77.2415 456.605 76.9588 456.797 76.6281 456.936C76.3081 457.075 75.9561 457.144 75.5721 457.144ZM75.5721 456.12C76.0521 456.12 76.4308 455.955 76.7081 455.624C76.9961 455.283 77.1401 454.872 77.1401 454.392C77.1401 453.912 76.9961 453.507 76.7081 453.176C76.4308 452.835 76.0521 452.664 75.5721 452.664C75.0921 452.664 74.7081 452.835 74.4201 453.176C74.1428 453.507 74.0041 453.912 74.0041 454.392C74.0041 454.872 74.1428 455.283 74.4201 455.624C74.7081 455.955 75.0921 456.12 75.5721 456.12Z" fill="#FFE400"/>
<path d="M92 468L7 468" stroke="#FFE400"/>
<path d="M91.1464 490.354C91.3417 490.549 91.6583 490.549 91.8536 490.354L95.0355 487.172C95.2308 486.976 95.2308 486.66 95.0355 486.464C94.8403 486.269 94.5237 486.269 94.3284 486.464L91.5 489.293L88.6716 486.464C88.4763 486.269 88.1597 486.269 87.9645 486.464C87.7692 486.66 87.7692 486.976 87.9645 487.172L91.1464 490.354ZM92 490L92 468L91 468L91 490L92 490Z" fill="#FFE400"/>
<line x1="73" y1="490.5" x2="110" y2="490.5" stroke="#FFE400"/>
<defs>
<filter id="filter0_d_4_777" x="724.437" y="490" width="22.4826" height="24.1853" filterUnits="userSpaceOnUse" color-interpolation-filters="sRGB">
<feFlood flood-opacity="0" result="BackgroundImageFix"/>
<feColorMatrix in="SourceAlpha" type="matrix" values="0 0 0 0 0 0 0 0 0 0 0 0 0 0 0 0 0 0 127 0" result="hardAlpha"/>
<feOffset dy="1"/>
<feGaussianBlur stdDeviation="1.5"/>
<feColorMatrix type="matrix" values="0 0 0 0 0 0 0 0 0 0 0 0 0 0 0 0 0 0 0.25 0"/>
<feBlend mode="normal" in2="BackgroundImageFix" result="effect1_dropShadow_4_777"/>
<feBlend mode="normal" in="SourceGraphic" in2="effect1_dropShadow_4_777" result="shape"/>
</filter>
</defs>
</svg>
