<svg width="1111" height="706" viewBox="0 0 1111 706" fill="none" xmlns="http://www.w3.org/2000/svg"><path d="M846.294 519.459l-42.725-28.391-67.115-134.936-64.686 46.9-189.014-125.944-50.089 143.236-22.148 1.409-231.368-32.382-46.835 137.507-1.828-.652 1.335 6.088-9.239-4.681 1.481 6.329-9.312-4.991 1.624 6.516-9.501-5.181 1.766 6.88-9.719-5.47 2.056 7.094-9.98-5.779 2.241 7.423-10.313-6.136 2.72 7.855-10.598-6.468 2.84 8.119-10.864-6.903 3.18 8.585-11.299-7.08 3.462 8.738-11.434-7.4 3.879 9.509-11.662-7.766L90.915 648.26l790.681-.004" fill="#fff"/><path d="M381.824 463.353l-9.577 8.921.37.397 9.577-8.922-.37-.396zm11.133 5.961l-18.911 17.004.364.404 18.91-17.004-.363-.404zm-18.408 25.865l28.671-25.157.357.408-28.668 25.157-.36-.408zm.285 8.49l38.135-32.757.354.411-38.135 32.76-.354-.414zm47.714-31.873l-47.87 40.342.35.416 47.87-40.342-.35-.416zm11.651-.425L376.4 519.416l.347.418 57.8-48.044-.348-.419zm-60.221 56.833l67.295-54.931.343.422-67.295 54.93-.343-.421zm76.496-54.254l-77.106 62.088.341.423 77.105-62.087-.34-.424zm8.964.799l-86.997 69.18.339.426 86.996-69.181-.338-.425zm8.807.847l-96.673 75.998.336.427 96.673-75.997-.336-.428zm8.781.613L370.64 559.005l.334.429 106.386-82.796-.334-.429zm8.462.967l-116.021 89.419.332.43 116.021-89.418-.332-.431zm8.604.663l-125.733 96.068.33.432 125.733-96.068-.33-.432zm8.252.981L366.941 581.418l.328.433 135.403-102.597-.328-.434zM365.72 588.58l145.009-109.066.326.432-145.009 109.069-.326-.435zm153.135-108.142l-154.57 115.431.326.435 154.57-115.431-.326-.435zm8.028.917L362.845 603.057l.323.436 164.039-121.701-.324-.437zM361.365 610.149L534.984 482.11l.319.438-173.619 128.036-.319-.435zm181.6-127.211L359.85 617.212l.322.439 183.114-134.275-.321-.438zm7.852.949L358.223 624.339l.32.439 192.595-140.452-.321-.439zM194.208 391.08l60.854-2.572.075.01 70.678 17.727-.129.527-70.644-17.717-60.814 2.568-.02-.543z" fill="#231F20"/><path d="M238.784 397.056l59.182-28.999.119-.055.116.051.669.309-.228.496-.553-.254-59.068 28.941-.237-.489z" fill="#231F20"/><path d="M246.142 398.061l58.904-33.402.126-.071.125.061 1.104.534-.234.489-.975-.469-58.782 33.33-.268-.472zm7.337 1.009l58.626-37.808.129-.085.139.072 1.396.693-.241.489-1.26-.629-58.497 37.727-.292-.459z" fill="#231F20"/><path d="M260.796 400.079l58.348-42.214.135-.095.15.075 1.777.913-.248.486-1.628-.839-58.214 42.116-.32-.442z" fill="#231F20"/><path d="M268.097 401.092l58.068-46.618.14-.112.156.085 2.055 1.084-.255.482-1.895-1.002-57.93 46.505-.339-.424z" fill="#231F20"/><path d="M275.373 402.107l57.794-51.023.142-.126.167.089 2.238 1.212-.258.479-2.072-1.121-57.651 50.895-.36-.405z" fill="#231F20"/><path d="M282.632 403.123l57.515-55.43.146-.139.174.099 2.524 1.393-.262.475-2.347-1.298-57.373 55.291-.377-.391z" fill="#231F20"/><path d="M289.875 404.139l57.236-59.833.146-.153.18.106 2.606 1.464-.265.476-2.422-1.366-57.091 59.68-.39-.374z" fill="#231F20"/><path d="M297.093 405.158l56.958-64.239.146-.166.194.112 2.857 1.634-.268.472-2.67-1.525-56.809 64.072-.408-.36z" fill="#231F20"/><path d="M304.295 406.177l56.68-68.641.149-.177.197.115 2.989 1.736-.271.469-2.789-1.62-56.534 68.465-.421-.347z" fill="#231F20"/><path d="M311.48 407.2l56.401-73.048.146-.19.204.122 3.152 1.855-.275.469-2.945-1.736-56.255 72.857-.428-.329z" fill="#231F20"/><path d="M318.641 408.223l56.122-77.455.146-.2.214.129 3.278 1.953-.278.466-3.064-1.825-55.977 77.251-.441-.319z" fill="#231F20"/><path d="M325.785 409.245l55.847-81.854.146-.214.217.133 3.391 2.045-.282.465-3.17-1.912-55.697 81.643-.452-.306z" fill="#231F20"/><path d="M332.912 410.271l55.565-86.26.146-.221.224.136 3.441 2.096-.282.466-3.213-1.96-55.423 86.039-.458-.296z" fill="#231F20"/><path d="M340.018 411.297l55.29-90.663.14-.234.234.142 3.57 2.199-.285.462-3.339-2.052-55.144 90.431-.466-.285z" fill="#231F20"/><path d="M347.108 412.326l55.008-95.069.143-.244.237.149 3.696 2.297-.285.462-3.462-2.151-54.868 94.828-.469-.272z" fill="#231F20"/><path d="M354.177 413.359l54.729-99.475.14-.252.244.15 3.754 2.351-.289.462-3.509-2.198-54.593 99.224-.476-.262z" fill="#231F20"/><path d="M361.226 414.389L415.68 310.51l.136-.261.248.156 3.886 2.449-.288.459-3.639-2.293-54.315 103.62-.482-.251z" fill="#231F20"/><path d="M368.261 415.421l54.173-108.284.135-.268.255.159 3.914 2.487-.293.462-3.662-2.327-54.039 108.013-.483-.242z" fill="#231F20"/><path d="M375.273 416.458l53.897-112.691.132-.279.258.167 4.026 2.575-.289.459-3.771-2.413-53.764 112.413-.489-.231z" fill="#231F20"/><path d="M382.27 417.49l53.619-117.093.129-.286.262.17 4.083 2.626-.292.459-3.822-2.46-53.486 116.812-.493-.228z" fill="#231F20"/><path d="M389.248 418.53l53.34-121.5.126-.292.271.173 4.111 2.664-.296.455-3.845-2.49-53.211 121.207-.496-.217z" fill="#231F20"/><path d="M396.205 419.566l53.065-125.903.126-.299.271.177 4.226 2.752-.295.455-3.958-2.575-52.932 125.604-.503-.211z" fill="#231F20"/><path d="M403.149 420.606l52.783-130.309.125-.306.275.18 4.284 2.806-.299.455-4.005-2.622-52.661 129.999-.502-.203z" fill="#231F20"/><path d="M410.072 421.649l52.504-134.716.122-.312.282.183 4.298 2.83-.296.452-4.019-2.643-52.385 134.403-.506-.197z" fill="#231F20"/><path d="M416.978 422.691l52.226-139.121.122-.319.282.19 4.362 2.881-.299.455-4.077-2.697-52.107 138.798-.509-.187z" fill="#231F20"/><path d="M423.867 423.734l51.947-143.524.119-.326.289.194 4.399 2.918-.302.455-4.111-2.731-51.828 143.198-.513-.184zM186.7 390.095l61.133 1.834.041.004 70.04 12.984 58.014 9.73-.088.537-58.018-9.73h-.003l-70.023-12.981-61.109-1.835.013-.543z" fill="#231F20"/><path d="M201.691 392.069l60.573-6.978.112.013 77.418 23.479-.16.519-77.36-23.464-60.521 6.971-.062-.54z" fill="#231F20"/><path d="M209.151 393.061l60.298-11.381.135.01 84.8 29.366-.176.513-84.729-29.342-60.229 11.367-.099-.533z" fill="#231F20"/><path d="M216.587 394.052l60.019-15.783.166.01 92.012 35.168-.193.51-91.931-35.141-59.933 15.763-.14-.527z" fill="#231F20"/><path d="M224.007 395.051l59.743-20.19.187.007 98.398 40.611-.207.499-98.303-40.57-59.645 20.16-.173-.517z" fill="#231F20"/><path d="M231.405 396.054l59.462-24.597.108-.044.106.048 103.945 45.615-.217.496-103.84-45.568-59.357 24.552-.207-.502zm-20.086 177.15l12.953-2.249.091.537-12.953 2.249-.091-.537z" fill="#231F20"/><path d="M223.885 571.252l-19.699 5.352.143.525 19.698-5.353-.142-.524z" fill="#231F20"/><path d="M197.571 580.226l26.035-8.751.173.516-26.035 8.751-.173-.516z" fill="#231F20"/><path d="M223.2 571.774l-31.952 12.189.194.508 31.952-12.189-.194-.508z" fill="#231F20"/><path d="M222.859 572.014l-30.441 12.641.208.502 30.442-12.641-.209-.502z" fill="#231F20"/><path d="M185.994 588.373l36.497-16.11.221.499-36.501 16.11-.217-.499z" fill="#231F20"/><path d="M222.014 572.588l-42.374 19.581.228.493 42.374-19.581-.228-.493z" fill="#231F20"/><path d="M221.691 572.763l-48.205 23.098.235.49 48.205-23.097-.235-.491z" fill="#231F20"/><path d="M221.228 573.053l-54.025 26.643.241.488 54.024-26.644-.24-.487z" fill="#231F20"/><path d="M220.713 573.367l-59.806 30.199.245.485 59.806-30.199-.245-.485z" fill="#231F20"/><path d="M220.207 573.659l-65.519 33.747.249.483 65.519-33.747-.249-.483z" fill="#231F20"/><path d="M155.23 607.69l64.54-33.813.248.479-64.536 33.816-.252-.482z" fill="#231F20"/><path d="M219.19 574.203l-70.249 37.339.255.48 70.25-37.339-.256-.48z" fill="#231F20"/><path d="M218.649 574.484l-69.332 37.319.258.478 69.332-37.318-.258-.479z" fill="#231F20"/><path d="M218.157 574.7l-68.451 37.262.259.477 68.452-37.261-.26-.478z" fill="#231F20"/><path d="M217.649 574.915l-67.604 37.168.262.476 67.603-37.168-.261-.476z" fill="#231F20"/><path d="M217.038 575.211l-66.787 37.039.264.475 66.787-37.038-.264-.476z" fill="#231F20"/><path d="M150.39 612.422l65.987-36.877.265.472-65.991 36.877-.261-.472z" fill="#231F20"/><path d="M215.76 575.814l-65.206 36.699.267.474 65.206-36.699-.267-.474z" fill="#231F20"/><path d="M215.159 576.054l-64.432 36.501.268.473 64.432-36.501-.268-.473z" fill="#231F20"/><path d="M150.763 612.673l63.674-36.276.268.472-63.673 36.277-.269-.473z" fill="#231F20"/><path d="M213.754 576.684l-62.918 36.036.27.472 62.918-36.036-.27-.472zm-31.538-20.917l-.145.524 47.201 13.038.145-.524-47.201-13.038z" fill="#231F20"/><path d="M228.888 569.481l-41.987-10.444.129-.526 41.987 10.443-.129.527z" fill="#231F20"/><path d="M191.814 561.097l-.113.532 36.776 7.838.113-.532-36.776-7.838z" fill="#231F20"/><path d="M228.063 569.62l-31.569-5.242.085-.537 31.568 5.242-.084.537z" fill="#231F20"/><path d="M227.635 569.695l-26.372-2.643.055-.541 26.371 2.643-.054.541z" fill="#231F20"/><path d="M227.166 569.769l-21.143-.044v-.543l21.143.044v.543z" fill="#231F20"/><path d="M230.322 569.273l-19.547 3.122-.088-.536 19.55-3.122.085.536zm337.912-91.131l12.81 20.499-.462.285-12.81-20.499.462-.285zm13.432-9.744l26.479 43.614-.465.282-26.476-43.614.462-.282zm13.635-9.927l-.468.276 39.347 66.537.468-.277-39.347-66.536zm13.704-9.874l-.471.271 51.545 89.32.471-.272-51.545-89.319zm13.876-10.079l-.473.267L685.6 550.758l.473-.267-63.192-111.973zm13.99-10.16l74.374 134.522-.479.261-74.374-134.521.479-.262zm14.092-10.26l-.478.26 85.159 156.984.478-.259-85.159-156.985zm14.098-10.139l-.479.255 95.575 179.387.48-.256-95.576-179.386zm22.427 5.297l-.481.252 97.515 186.069.482-.253-97.516-186.068zm29.744 19.755l-.483.249 89.893 174.177.483-.25-89.893-174.176zm29.136 19.525l-.484.247 69.13 135.92.485-.246-69.131-135.921zm28.707 19.053l-.485.244 49.01 97.664.485-.244-49.01-97.664zm34.099 139.61l10.076 19.527-.363.367-18.436-9.434.248-.482 17.681 9.047-9.688-18.774.482-.251z" fill="#231F20"/><path d="M833.144 623.028l6.58 12.937-.364.367-37.088-18.736.244-.486 36.348 18.362-6.206-12.199.486-.245z" fill="#231F20"/><path d="M856.953 634.776l3.228 6.431-.364.367-55.813-27.854.245-.49 55.082 27.491-2.863-5.704.485-.241zm-587.97-132.595l63.626-12.061 47.691-63.875.163-.221.221.167 36.685 27.789-.327.435-36.47-27.626-47.589 63.742-.166.106-63.735 12.077-.099-.533z" fill="#231F20"/><path d="M261.476 503.475l66.948-7.96 48.36-68.407.174-.245.227.197 26.544 22.939-.356.411-26.317-22.745-48.255 68.261-.071.102-.119.014-67.074 7.973-.061-.54z" fill="#231F20"/><path d="M253.944 504.776l70.275-3.866 49.029-72.939.183-.265.231.221 37.915 36.384-.377.394-37.68-36.16-48.924 72.78-.078.112-.133.01-70.41 3.869-.031-.54z" fill="#231F20"/><path d="M245.513 507.946l.622-1.689.064-.18h.191l73.599.231 49.702-77.471.187-.289.238.248 35.132 36.735-.391.374-34.894-36.484-49.597 77.305-.078.126h-.149l-73.559-.231-.557 1.512-.51-.187z" fill="#231F20"/><path d="M237.924 509.563l.615-1.991.061-.204.214.014 76.926 4.325 50.374-82 .19-.313.245.272 45.282 50.864 72.32-4.267.034.543-72.452 4.274-.133.007-.088-.099-45.126-50.687-50.266 81.83-.085.136-.163-.007-76.878-4.324-.55 1.787-.52-.16z" fill="#231F20"/><path d="M230.335 511.214l.588-2.32.058-.231.234.027 80.255 8.418 51.043-86.535.197-.329.248.295 47.457 56.649 86.057-4.131.023.544-86.189 4.134-.136.007-.088-.102-47.293-56.459-50.939 86.352-.088.153-.173-.021-80.194-8.411-.53 2.092-.53-.132z" fill="#231F20"/><path d="M222.756 512.855l.534-2.64.051-.255.254.038 83.584 12.512 51.717-91.064.2-.35.248.313 49.63 62.438 99.832-3.982.024.544-99.974 3.988-.136.004-.085-.105-49.464-62.235-51.611 90.88-.092.163-.183-.027-83.516-12.502-.479 2.389-.534-.109z" fill="#231F20"/><path d="M215.178 514.513l.455-2.976.044-.279.275.051 86.913 16.606 52.392-95.599.201-.367.255.336 51.797 68.224 113.648-3.829.017.544-113.787 3.832-.139.007-.085-.112-51.632-68.007-52.283 95.406-.095.173-.194-.037-86.831-16.589-.415 2.694-.536-.078z" fill="#231F20"/><path d="M207.606 516.123l.353-3.261.034-.306.296.068 90.245 20.699 53.061-100.131.208-.384.254.35 53.972 74.017 126.811-3.652.017.54-126.957 3.659-.139.003-.085-.116-53.802-73.781-52.956 99.934-.099.183-.204-.044-90.15-20.679-.319 2.959-.54-.058z" fill="#231F20"/><path d="M200.03 517.737l.235-3.554.02-.329.319.085 93.575 24.793 53.737-104.667.208-.4.258.37 56.142 79.802 118.145-2.932.011.543-118.288 2.936-.143.003-.085-.119-55.969-79.554-53.632 104.459-.099.194-.21-.054-93.47-24.763-.21 3.217-.544-.03z" fill="#231F20"/><path d="M192.455 519.282l.095-3.771.01-.356.34.102 96.907 28.887 54.41-109.202.207-.415.262.384 58.316 85.594 109.694-2.364.013.544-109.846 2.367-.146.004-.081-.122-58.14-85.333-54.305 108.988-.102.207-.221-.068-96.781-28.85-.092 3.415-.54-.011z" fill="#231F20"/><path d="M184.866 520.995l-.048-4.159-.006-.38.363.119 100.236 32.98 55.086-113.733.207-.428.265.394 60.488 91.383 101.421-1.906.007.544-101.567 1.909-.15.003-.081-.125-60.308-91.108-54.981 113.519-.105.214-.224-.074-100.104-32.933.045 3.774-.544.007z" fill="#231F20"/><path d="M177.277 522.639l-.211-4.474-.02-.405.381.136 103.571 37.075 55.759-118.269.211-.445.265.414 62.661 97.172 93.279-1.535.01.543-93.431 1.539h-.153l-.082-.126-62.475-96.89-55.656 118.052-.106.221-.234-.082-103.419-37.02.194 4.067-.544.027z" fill="#231F20"/><path d="M169.675 524.219l-.384-4.726-.034-.428.404.153 106.904 41.171L333 437.582l.211-.456.265.425 64.832 102.964 85.252-1.229.006.54-85.404 1.233-.15.003-.081-.129-64.649-102.669-56.329 122.581-.109.234-.235-.092-106.741-41.107.35 4.298-.543.041z" fill="#231F20"/><path d="M162.055 525.727l-.554-4.902-.051-.455.425.173 110.237 45.265 57.111-127.343.207-.469.272.438 67.002 108.754 77.313-.979.007.544-77.466.981h-.156l-.078-.129-66.816-108.45-57.009 127.115-.109.238-.241-.099-110.057-45.187.503 4.447-.54.058z" fill="#231F20"/><path d="M154.439 527.368l-.751-5.212-.068-.479.449.194 113.569 49.359 57.787-131.878.21-.483.272.449 69.174 114.545 69.452-.774.003.543-69.605.778h-.156l-.082-.132-68.983-114.23-57.681 131.644-.109.251-.248-.108-113.376-49.271.68 4.729-.537.075z" fill="#231F20"/><path d="M146.823 529.08l-.962-5.588-.088-.507.469.211 116.905 53.456 58.459-136.414.211-.492.272.458 71.351 120.338 61.656-.601.003.54-61.812.605h-.156l-.082-.133-71.154-120.012-58.357 136.18-.109.255-.255-.116-116.691-53.354.876 5.082-.536.092z" fill="#231F20"/><path d="M139.176 530.656l-1.165-5.829-.105-.534.489.235 120.241 57.546 59.135-140.949.211-.503.275.472 73.518 126.124 53.921-.459.004.544-54.077.462h-.157l-.081-.136-73.325-125.791-59.034 140.712-.108.261-.258-.122-120.01-57.438 1.059 5.3-.533.105z" fill="#231F20"/><path d="M131.526 532.28l-1.383-6.118-.125-.561.513.255 123.577 61.647 59.808-145.488.214-.513.275.479L390.094 573.9l46.237-.343.003.544-46.396.343h-.157l-.081-.136-75.492-131.573-59.71 145.247-.112.268-.261-.129L130.799 526.6l1.257 5.561-.53.119z" fill="#231F20"/><path d="M123.883 533.979l-1.628-6.482-.146-.584.537.278 126.91 65.741 60.487-150.027.211-.523.278.489 77.863 137.712 38.597-.248v.54l-38.753.251h-.16l-.078-.139-77.666-137.355-60.385 149.779-.112.278-.265-.139-126.642-65.601 1.478 5.898-.526.132z" fill="#231F20"/><path d="M116.212 535.599l-1.861-6.764-.167-.608.557.296 130.249 69.838 61.16-154.563.211-.533.278.5 80.037 143.5 30.998-.17.004.54-31.161.174h-.16l-.078-.14-79.834-143.14-61.061 154.317-.112.282-.268-.142-129.96-69.685 1.691 6.156-.523.142z" fill="#231F20"/><path d="M108.548 537.302l-2.119-7.128.39-.312 133.582 73.931 61.839-159.101.211-.543.282.509 82.204 149.293 23.44-.112.003.543-23.603.113h-.163l-.074-.143-82.004-148.923-61.738 158.85-.115.288-.269-.149-133.275-73.761 1.929 6.488-.52.157z" fill="#231F20"/><path d="M100.854 538.936l-2.367-7.42.39-.319 136.921 78.031 62.512-163.639.21-.554.282.52 84.379 155.082 15.915-.065.003.544-16.078.064h-.163l-.078-.139-84.171-154.708-62.417 163.385-.112.295-.276-.156-136.59-77.842 2.16 6.758-.52.163z" fill="#231F20"/><path d="M93.153 540.583l-2.63-7.725.398-.323 140.253 82.129 63.192-168.178.207-.561.285.527 86.55 160.874 8.424-.027v.543l-8.587.028h-.163l-.075-.143-86.346-160.49-63.089 167.92-.112.302-.279-.163-139.906-81.922 2.394 7.033-.516.176z" fill="#231F20"/><path d="M85.445 542.248l-2.897-8.048.394-.323L226.534 620.1l63.864-172.717.211-.568.285.534 88.72 166.666.961-.003v.543l-1.124.004h-.163l-.075-.143-88.516-166.276-63.766 172.456-.115.309-.279-.17-143.222-86.002 2.64 7.331-.51.184z" fill="#231F20"/><path d="M77.737 543.953l-3.186-8.408.397-.326 146.929 90.32 64.536-177.256.211-.574.289.54 90.965 172.605-.479.251-90.683-172.058-64.442 176.991-.115.313-.286-.174-146.53-90.078 2.904 7.661-.51.193z" fill="#231F20"/><path d="M69.986 545.564l-3.449-8.67.398-.33 150.264 94.417 65.216-181.794.207-.585.289.551 93.139 178.393-.478.252-92.858-177.847-65.118 181.53-.115.319-.286-.18-149.846-94.155 3.143 7.898-.507.201z" fill="#231F20"/><path d="M62.281 547.334l-3.777-9.095.397-.333 153.603 98.518 65.889-186.334.211-.591.288.557 95.311 184.187-.483.248-95.021-183.629-65.797 186.064-.116.327-.289-.187-153.158-98.232 3.445 8.292-.503.208z" fill="#231F20"/><path d="M54.536 549.025l-4.08-9.437.397-.333 156.94 102.614 66.564-190.875.211-.598.289.564 97.481 189.979-.483.248-97.192-189.415-66.473 190.604-.116.326-.292-.191-156.47-102.308 3.723 8.608-.5.214z" fill="#231F20"/><path d="M276.467 500.89l60.307-16.161 47.022-59.347.153-.19.207.132 29.055 18.519-.289.455-28.851-18.386-46.927 59.225-.142.095-60.393 16.181-.142-.523z" fill="#231F20"/><path d="M306.184 495.76l47.022-32.583 44.358-41.226.173-.072 25.831-1.172.024.541-25.733 1.168-44.297 41.172-.03.027-47.039 32.59-.309-.445z" fill="#231F20"/><path d="M298.789 497.037l50.344-28.472 45.02-45.758.099-.102.139.024 12.324 2.038-.088.537-12.185-2.015-44.949 45.683-.062.048-50.374 28.489-.268-.472z" fill="#231F20"/><path d="M291.373 498.315l53.663-24.362 45.686-50.29.123-.132.166.061 23.677 8.194-.176.513-23.508-8.137-45.605 50.195-.088.068-53.717 24.386-.221-.496z" fill="#231F20"/><path d="M283.93 499.599l56.985-20.258 46.356-54.819.136-.163.19.096 29.656 14.859-.241.486-29.466-14.765-46.264 54.71-.116.082-57.053 20.285-.183-.513zM182.002 556.34l-33.538-20.927.288-.462 33.539 20.927-.289.462zm-14.371-23.3l-.432.33 19.534 25.588.432-.33-19.534-25.588zm23.869 28.47l-10.075-37.268.526-.139 10.076 37.268-.527.139zm4.766 2.586l2.321-42.785.54.027-2.317 42.785-.544-.027zm4.763 2.612l13.833-48.717.523.147-13.833 48.716-.523-.146zm4.746 2.633l25.012-54.951.493.225-25.013 54.95-.492-.224zm4.722 2.65l36.141-61.494.468.272-36.141 61.497-.468-.275zm30.223-34.116l-25.549 36.845.446.309 25.549-36.844-.446-.31z" fill="#231F20"/><path d="M347.491 408.54l-.277.467 110.144 65.323.277-.468-110.144-65.322z" fill="#231F20"/><path d="M354.554 413.171l-.275.47 109.893 64.246.275-.469-109.893-64.247zm7.046 1.189l-.27.472 109.642 62.823.27-.472L361.6 414.36zm7.033.937l-.266.474 109.243 61.384.266-.474-109.243-61.384zm56.039 63.782l-105.96-70.473.299-.451 105.963 70.469-.302.455zm9.637.544l-108.446-69.994.295-.459 108.444 69.994-.293.459zm7.949-.371l-109.261-68.604.288-.459 109.262 68.605-.289.458zm-101.862-68.081l-.284.463 109.662 67.127.284-.463-109.662-67.127zm44.069 66.505l-48.87-37.798-45.693-35.335.333-.431 45.69 35.335 48.873 37.798-.333.431zm10.327.197l-54.747-40.539-42.911-31.778.326-.435 42.912 31.778 54.743 40.539-.323.435zm10.184.35l-58.208-41.443-42.419-30.209.313-.441 42.422 30.205 58.205 41.446-.313.442zm9.899.367l-103.334-71.003.306-.445 103.334 71-.306.448zm-38.979-63.998l-.068.54 47.695 6.059.068-.539-47.695-6.06zm34.562 7.002l-.248.484 138.164 70.707.248-.484-138.164-70.707zm6.898.953l-.246.485 133.981 67.684.246-.485-133.981-67.684zm6.885 1.011l-.242.487 129.714 64.734.243-.486-129.715-64.735zm108.786 80.25l-157.639-86.997.262-.476 157.639 86.997-.262.476zm-150.381-86.485l-.259.478 153.978 83.539.259-.477-153.978-83.54zm156.907 81.752l-150.186-80.199.255-.479 150.186 80.199-.255.479zm-142.974-79.717l-.253.481 146.284 76.936.252-.481-146.283-76.936zm148.966 75.372l-142.271-73.781.252-.483 142.27 73.782-.251.482zm-321.267-99.492l-.474.266 40.859 72.964.474-.266-40.859-72.964zm7.49.87l-.452.302 38.42 57.527.452-.302-38.42-57.527zm49.492 56.85l-42.575-55.491.435-.333 42.571 55.494-.431.33zm8.574-3.54l-43.767-50.942.414-.354 43.764 50.942-.411.354zm8.214-2.687l-44.62-47.246.394-.374 44.62 47.246-.394.374zm7.953-2.052l-45.235-44.185.38-.388 45.235 44.182-.38.391zm-37.577-43.515l-.366.402 45.646 41.582.366-.402-45.646-41.582zm7.29.99l-.353.413 45.789 39.234.353-.412-45.789-39.235zm52.717 38.529l-45.782-37.156.343-.421 45.782 37.159-.343.418zm-141.466-50.276l-11.876 78.912-.02.071-25.022 55.794-.493-.221 25.005-55.76 11.866-78.877.54.081zm7.525.938l1.695 83.114-.041.143-28.976 48.438-.466-.279 28.936-48.37-1.692-83.036.544-.01z" fill="#231F20"/><path d="M201.99 392.293l15.26 87.309.02.123-.078.095-30.76 37.509-.418-.346 30.679-37.408-15.239-87.191.536-.091z" fill="#231F20"/><path d="M209.46 393.244l28.828 91.512.054.173-.139.116-35.357 29.906-.353-.415 35.221-29.79-28.773-91.339.519-.163zm48.452 94.886l-41.501-93.704.496-.217 41.505 93.703-.5.218zm-.906 2.667l-39.339 20.928.255.48 39.339-20.928-.255-.48zm388.789-105.211l5.048-3.767.251-.19.149.282 5.894 11.061-.479.255-5.744-10.783-4.793 3.577-.326-.435z" fill="#231F20"/><path d="M651.108 389.13l16.859-12.509.255-.19.146.282 10.935 20.859-.483.252-10.785-20.578-16.605 12.319-.322-.435z" fill="#231F20"/><path d="M656.339 392.612l28.735-21.192.255-.187.146.282 8.102 15.699-.482.251-7.956-15.417-28.481 21.002-.319-.438z" fill="#231F20"/><path d="M661.489 396.047l40.672-29.821.259-.191.146.286 5.34 10.501-.486.244-5.194-10.212-40.415 29.631-.322-.438z" fill="#231F20"/><path d="M666.574 399.437l52.661-38.406.258-.19.143.289 2.643 5.262-.486.245-2.497-4.977-52.402 38.215-.32-.438zm39.27 153.808l-1.879 6.241-.523-.153 1.882-6.244.52.156zm15.77-3.926l-5.293 16.348.517.167 5.293-16.348-.517-.167zm17.055-3.225l-8.995 26.091-.517-.177 8.996-26.088.516.174zm16.748-3.095L742.474 578.5l-.513-.183 12.943-35.505.513.187zm16.991-3.007l-17.168 44.813-.506-.193 17.168-44.813.506.193zm16.55-2.758L767.47 590.88l.504.203 21.488-53.647-.504-.202zm17.303-2.521l-26.063 62.493.502.209 26.062-62.493-.501-.209zm17.301-2.322l-30.698 70.977.499.216 30.698-70.977-.499-.216zm-192.616-99.902l12.719 8.137-.292.458-12.719-8.136.292-.459zm10.093-7.317l50.779 32.885-.296.455-50.779-32.885.296-.455zm5.083-3.765l-.297.456 69.343 45.12.296-.455-69.342-45.121zm5.128-3.603l-.298.454 87.696 57.413.298-.455-87.696-57.412zm5.142-3.704l-.299.454 105.872 69.682.299-.454L656.392 414.1zm5.145-3.844l-.3.453 123.839 81.849.3-.454-123.839-81.848zm5.176-3.715l141.728 94.094-.299.452-141.727-94.091.298-.455zm-30.736 22.299l31.8 20.476-.292.458-31.803-20.475.295-.459z" fill="#231F20"/><path fill-rule="evenodd" clip-rule="evenodd" d="M433.202 644.543s78.431-3.445 90.205-3.445c0 0 46.654-1.359 87.079-1.926.088.34 55.596-.567 78.811 1.131 0 0 33.291.568 30.702 7.223l-286.661.574-.136-3.557z" fill="#fff"/><path fill-rule="evenodd" clip-rule="evenodd" d="M360.547 628.766L319.3 586.728l-48.927-29.522-42.766 19.049-2.517 7.878 109.384 63.603 26.073-18.97zm445.237-18.994l74.596 36.803-47.865-96.605-26.731 59.802z" fill="#E6E6E6"/><path fill-rule="evenodd" clip-rule="evenodd" d="M832.522 549.98l-29.442-59.425 43.153 28.772-13.711 30.653zM225.09 584.129l-11.9-6.916-62.168 35.78 52.181 34.743 21.887-63.607z" fill="#fff"/><path fill-rule="evenodd" clip-rule="evenodd" d="M360.608 628.737l9.671 19.062h-35.805l26.134-19.062z" fill="#D9D9D9"/><path fill-rule="evenodd" clip-rule="evenodd" d="M360.546 628.766L270.559 451.99l48.686 134.762 41.301 42.014zm195.825-142.043l183.372 144.411-131.149-36.809-52.223-107.602z" fill="#fff"/><path opacity=".5" fill-rule="evenodd" clip-rule="evenodd" d="M556.371 486.724l52.222 107.601-239.248 51.703-8.782-17.221 195.808-142.083zM336.383 159.305L284.161 51.703 523.41 0 336.383 159.305z" fill="#FFEF68"/><path fill-rule="evenodd" clip-rule="evenodd" d="M556.371 486.727L788.813 647.72h-69.174l.027-1.777c-.339-1.152-1.301-1.484-2.663-2.154 6.064-1.838 12.868-3.754 18.201-6.071 1.964-.852 7.012-2.853 5.931-5.401l-184.764-145.59z" fill="#CCC"/><path fill-rule="evenodd" clip-rule="evenodd" d="M608.536 594.306l126.869 35.491-.031.075c-20.956-4.498-93.958-2.012-164.243 1.994h-.074c-9.94.567-19.819 1.165-29.493 1.777l-.727.047c-5.537.351-10.995.706-16.374 1.064l-.598.037-4.514.306-2.168.146-3.811.261-2.67.184-7.535.526-1.281.092-3.872.279-2.15.153-3.357.244-2.595.19-3.292.245h-.068l-4.895.367h-.139l-1.624.126-3.937.299-2.096.159-3.326.262-1.967.153-4.348.339-.56.045h-.14c-1.613.129-3.176.254-4.711.384l-1.458.118-3.186.265-1.532.126-2.901.248-1.454.122-3.811.34-.921.082-2.789.251-1.274.116-2.239.207-1.019.095-2.999.289v6.026l-63.012-.057-.927-1.801 239.249-51.672z" fill="#E6E6E6"/><path fill-rule="evenodd" clip-rule="evenodd" d="M556.371 486.723l-83.896-68.995 194.245-18.087 5.034 3.364-115.383 83.718zM336.383 159.304l83.897 68.995-194.246 18.087-5.034-3.363 115.383-83.719z" fill="#FFEF68"/><path d="M472.448 417.776l-39.881 2.595 50.099-143.429-10.218 140.834z" fill="#F2F2F2"/><path fill-rule="evenodd" clip-rule="evenodd" d="M716.517 643.76c117.619-31.778-217.005-8.446-283.295-1.93l.024 2.599c21.561-.849 43.142-1.848 64.71-2.528l29.313-.92c11.115-.34 22.244-.574 33.362-.846 32.452-.68 64.204-1.308 98.399-.761 23.052.35 48.074 1.196 57.487 4.386z" fill="#B3B3B3"/><path fill-rule="evenodd" clip-rule="evenodd" d="M331.804 646.817l-117.472-69.746 10.113-6.145 5.88-1.763-3.098 8.676 105.695 68.971-1.118.007z" fill="#2E3192"/><path fill-rule="evenodd" clip-rule="evenodd" d="M701.594 647.806h-268.3v-2.1c72.988-2.225 266.744-6.631 268.29.894l.01 1.206z" fill="#231F20"/><path d="M131.764 526.862l46.868-137.654.143-.421.442.058 7.562.998 7.49.989 7.592.999 7.474.988v-.003l7.365.883.017.004 7.487 1.134 14.715 1.95 7.498.996 7.252.965 7.436.988h.004l7.283 1.057 7.27.975h.006l7.168 1.046 7.341.989h.004l7.225 1.043 7.168.971h.003l7.154 1.043 7.229.982h.007l7.144 1.036v.004l7.106.968h.007l7.158 1.05 14.172 2.072 7.059 1.012 7.022 1.05 7.038 1.05 7.012.988h.007l6.896 1.016h.003l6.994 1.064 6.832 1.039v.003l7.015 1.02h.007l6.902 1.056 6.879 1.023h.004l6.882 1.073-.166 1.074-6.876-1.074-6.882-1.019-6.906-1.06-7.015-1.019h-.004l-6.831-1.04-6.998-1.063-6.896-1.016v-.003l-7.011-.985h-.007l-7.035-1.05-7.022-1.05-7.059-1.012-14.176-2.076-7.154-1.046-7.107-.972h-.006l-7.144-1.036-7.229-.985h-.004l-7.154-1.04v-.003l-7.167-.968h-.004l-7.225-1.043-7.341-.992h-.004l-7.167-1.043v-.004l-7.27-.975h-.007l-7.283-1.053-7.429-.989-7.25-.964-7.497-.999-14.726-1.947h-.013l-7.484-1.134-7.348-.884h-.007l-7.48-.988-7.592-.999-7.494-.989-7.117-.941-46.726 137.233-1.029-.35zm675.083 82.53l72.629 36.282-46.917-93.802-25.712 57.52zm74.086 38.837l-75.512-37.71-.7-.339.319-.717 26.735-59.792.699-1.573.772 1.539 48.777 97.529-1.09 1.063zM671.272 402.342l64.697-46.944.781-.567.428.866 66.636 134.505-1.182 1.039-131.329-87.554-.982-.652.951-.68v-.013zm64.884-45.058l-62.968 45.69 127.817 85.217-64.849-130.907z" fill="#231F20"/><path d="M359.504 628.518l-88.795-174.443-44.63 129.691 108.344 62.999 25.081-18.247zM271.29 451.619l89.984 176.777.315.622-.563.411-26.073 18.97-.428.313-.458-.269-109.384-63.603-.581-.34.217-.632 45.469-132.154.629-1.824.873 1.729z" fill="#231F20"/><path d="M556.731 485.993l249.417 123.045.703.34-.323.717-16.985 37.947-.214.483h-.53l-418.598.044h-.5l-.227-.442-9.648-18.957-.316-.621.564-.411 195.805-142.081.397-.289.442.218.013.007zm247.983 124.163L556.453 487.674 361.61 629.055l9.107 17.893 417.569-.044 16.428-36.748zM224.102 584.5l-10.915-6.346-60.62 34.89 50.222 33.432 21.326-61.973-.013-.003zm-10.501-8.008l11.89 6.921.584.339-.221.632-21.887 63.604-.339.999-.877-.585-52.178-34.727-1.097-.73 1.141-.656 62.166-35.783.407-.234.411.22z" fill="#231F20"/><path d="M91.003 646.598l58.476-33.653-104.944-69.871 46.468 103.524zm60.426-32.899L91.027 648.46l-.778.449-.37-.823-47.987-106.925 1.192-1.019 108.389 72.168 1.098.727-1.142.662zm680.607-63.478l-29.442-59.425.788-.679 43.143 28.771.383.255-.186.418-13.714 30.657-.469 1.053-.513-1.019.01-.031zm-27.563-58.093l28.025 56.568 13.052-29.182-41.077-27.386zm-248.462-4.671l-125.377-61.854-.646-.319.238-.68 51.672-147.927.34-.992.87.581L672.2 402.328l.978.653-.951.679-115.384 83.719-.397.289-.442-.218.007.007zM432.02 424.458l124.27 61.327 114.038-82.743-187.241-124.829-51.067 146.245zm.849 223.347l-.054-5.966v-.374l.37-.037c40.391-3.968 180.399-14.18 257.049-14.367 17.818-.044 32.214.452 41.155 1.698 9.556 1.329 13.143 3.544 8.547 6.893-3.111 2.263-10.581 5.073-23.31 8.494l-.211-.788c12.63-3.398 20.012-6.177 23.042-8.382 3.459-2.517.112-4.273-8.18-5.435-8.903-1.24-23.266-1.736-41.043-1.699-76.392.187-215.751 10.338-256.597 14.333l.051 5.592-.819.038z" fill="#231F20"/><path d="M433.284 644.047c47.408-2.15 142.559-5.589 210.163-5.252 43.676.217 75.91 2.086 76.59 7.029v1.98h-.816v-1.885c-.679-4.417-32.56-6.095-75.784-6.309-67.577-.34-162.717 3.102-210.126 5.252l-.027-.815zm175.332-50.187l-.22.785 128.97 36.133.22-.786-128.97-36.132zm-51.991-107.341l-.504.64 184.265 144.908.504-.64-184.265-144.908z" fill="#231F20"/><path d="M556.603 486.588l-.462.667 232.392 160.988.462-.668-232.392-160.987z" fill="#231F20"/><path d="M556.175 486.753l-193.67 146.163.327.434 193.67-146.164-.327-.433zm-285.374-34.376l48.672 134.127 41.24 42.058-.387.381-41.284-42.103-.061-.098-48.69-134.182.51-.183zm285.404 34.302l110.322-87.221.336.424-110.325 87.222-.333-.425z" fill="#231F20"/><path d="M556.113 487.206l-83.879-69.135.52-.628 83.876 69.134-.517.629z" fill="#231F20"/><path d="M483.152 277.125L472.9 417.786l-.024.357-.357.02-49.151 3.217-.055-.815 48.802-3.19 10.222-140.307.815.057zM246.525 596.363l22.642 24.695-.598.55-22.645-24.695.601-.55zm310.244-109.619l52.137 107.384.228.468-.51.109-239.351 51.679-.173-.798 238.845-51.57-51.91-106.919.734-.353zm-237.736 99.662l-35.935 28.576.338.425 35.935-28.575-.338-.426zm3.622 3.557l-35.123 27.621.336.427 35.123-27.62-.336-.428zm3.54 3.621l-34.32 26.71.333.429 34.321-26.71-.334-.429zm-30.036 29.492l33.512-25.83.333.432-33.512 25.826-.333-.428zm37.006-22.271l-32.692 24.978.33.432 32.692-24.978-.33-.432zm-28.398 27.689l31.868-24.151.329.435-31.87 24.151-.327-.435zm4.274 2.715l31.045-23.35.323.435-31.042 23.346-.326-.431zm34.439-19.798l-30.216 22.564.325.436 30.216-22.565-.325-.435zm3.417 3.467l-29.389 21.804.324.437 29.388-21.804-.323-.437zm-25.138 24.477l28.559-21.063.323.439-28.562 21.063-.32-.439zm31.946-17.632L325.97 642.06l.322.438 27.734-20.337-.321-.438zm3.344 3.464l-26.915 19.628.32.439 26.915-19.628-.32-.439z" fill="#231F20"/><path fill-rule="evenodd" clip-rule="evenodd" d="M150.685 621.007l41.481 26.791h-88.468l46.987-26.791z" fill="#FFEF68"/><path opacity=".5" fill-rule="evenodd" clip-rule="evenodd" d="M268.677 621.031l56.333 26.767H215.371l53.306-26.767z" fill="#FFEF68"/><path fill-rule="evenodd" clip-rule="evenodd" d="M818.88 630.665l12.8 17.133-42.589.013 29.789-17.146z" fill="#231F20"/><path fill-rule="evenodd" clip-rule="evenodd" d="M839.476 635.832l8.941 11.969-29.755.01 20.814-11.979z" fill="#231F20"/><path fill-rule="evenodd" clip-rule="evenodd" d="M859.946 640.945l5.126 6.859-17.053.007 11.927-6.866z" fill="#231F20"/><path d="M270.78 554.658h-.73v2.439h.73v-2.439zm0-7.205h-.73v2.435h.73v-2.435zm0-7.206h-.73v2.436h.73v-2.436zm0-7.206h-.73v2.436h.73v-2.436zm0-7.205h-.73v2.436h.73v-2.436zm0-7.206h-.73v2.436h.73v-2.436zm0-7.205h-.73v2.436h.73v-2.436zm0-7.206h-.73v2.436h.73v-2.436zm0-7.206h-.73v2.436h.73v-2.436zm0-7.205h-.73v2.436h.73v-2.436zm0-7.206h-.73v2.436h.73v-2.436zm0-7.205h-.73v2.435h.73v-2.435zm0-7.206h-.73v2.436h.73v-2.436zm0-7.206h-.73v2.436h.73v-2.436zm0-7.205h-.73v2.436h.73v-2.436z" fill="#231F20"/><path d="M270.622 556.705l-.378.625 2.085 1.26.378-.625-2.085-1.26zm6.134 3.862l-.378.625 2.085 1.261.378-.625-2.085-1.261zm11.85 5.453l-.38.628 2.094 1.267.38-.628-2.094-1.267zm.474 2.044l-.378.624 2.083 1.262.378-.624-2.083-1.262zm6.189 3.621l-.378.625 2.083 1.262.379-.625-2.084-1.262zm11.934 5.479l-.38.628 2.094 1.267.38-.628-2.094-1.267zm.382 2.045l-.378.625 2.084 1.261.378-.625-2.084-1.261zm6.182 3.64l-.378.625 2.085 1.26.377-.625-2.084-1.26z" fill="#231F20"/><path d="M270.225 556.8l-2.219 1.005.301.665 2.219-1.004-.301-.666zm-6.505 2.918l-2.218 1.007.302.665 2.218-1.006-.302-.666zm-6.505 2.925l-2.219 1.005.301.665 2.219-1.004-.301-.666zm-6.703 3.099l-2.219 1.005.301.665 2.219-1.004-.301-.666zm-6.504 2.92l-2.218 1.006.302.665 2.218-1.006-.302-.665zm-6.528 2.945l-2.218 1.005.301.666 2.218-1.006-.301-.665zm-6.618 3.027l-2.219 1.004.301.665 2.219-1.004-.301-.665zM705.46 552.83l-2.28.544.17.71 2.28-.543-.17-.711zm1.045-1.511l-2.274.539.168.708 2.274-.539-.168-.708zm12.298-1.547l-2.28.547.171.71 2.279-.547-.17-.71zm6.812-1.699l-2.279.547.171.71 2.279-.547-.171-.71zm6.783-1.659l-2.281.543.169.71 2.281-.542-.169-.711zm6.692-1.559l-2.279.546.17.71 2.279-.545-.17-.711zm6.801-1.682l-2.279.547.17.71 2.28-.547-.171-.71zm6.747-1.624l-2.28.546.17.71 2.28-.546-.17-.71zm6.67-1.517l-2.281.542.17.711 2.28-.543-.169-.71zm6.745-1.622l-2.279.546.17.711 2.279-.547-.17-.71zm6.692-1.541l-2.28.546.171.711 2.279-.547-.17-.71zm6.819-1.72l-2.279.546.17.71 2.279-.546-.17-.71zm6.662-1.504l-2.28.546.171.711 2.279-.547-.17-.71zm6.85-1.76l-2.28.546.171.711 2.279-.547-.17-.71zm6.683-1.538l-2.28.545.17.711 2.28-.546-.17-.71zm6.772-1.646l-2.279.546.17.711 2.28-.546-.171-.711zm6.659-1.507l-2.279.546.17.711 2.279-.547-.17-.71zm6.848-1.758l-2.279.547.171.71 2.279-.547-.171-.71zm6.687-1.536l-2.279.546.17.71 2.279-.545-.17-.711zm6.797-1.687l-2.28.547.171.71 2.279-.547-.17-.71zm6.633-1.464l-2.279.546.17.711 2.28-.547-.171-.71zm6.818-1.723l-2.279.546.17.71 2.279-.546-.17-.71zm6.8-1.688l-2.28.543.169.711 2.28-.543-.169-.711zm6.647-1.479l-2.281.544.17.71 2.28-.543-.169-.711zm6.745-1.62l-2.28.543.169.71 2.28-.542-.169-.711zm6.706-1.559l-2.28.543.169.711 2.28-.543-.169-.711zm6.866-1.799l-2.281.543.169.711 2.281-.543-.169-.711zm6.693-1.541l-2.28.543.169.711 2.28-.543-.169-.711zm6.732-1.601l-2.28.546.17.711 2.28-.547-.17-.71zm6.74-1.61l-2.28.546.17.71 2.28-.546-.17-.71zm6.769-1.657l-2.279.547.17.71 2.28-.547-.171-.71zm6.661-1.489l-2.28.545.17.711 2.28-.546-.17-.71zm6.794-1.694l-2.28.546.17.71 2.28-.546-.17-.71zm6.76-1.642l-2.28.546.171.711 2.279-.547-.17-.71zm6.722-1.58l-2.28.546.17.71 2.28-.546-.17-.71zM477.1 417.018l-2.334.22.069.728 2.333-.221-.068-.727zm6.78-.568l-2.333.222.069.727 2.333-.222-.069-.727zm7.018-.736l-2.334.221.069.727 2.333-.22-.068-.728zm6.899-.656l-2.334.22.069.728 2.333-.221-.068-.727zm6.902-.657l-2.334.221.069.727 2.334-.221-.069-.727zm6.899-.653l-2.334.221.069.727 2.334-.221-.069-.727zm6.899-.65l-2.334.22.069.728 2.333-.221-.068-.727zm6.899-.653l-2.334.22.069.727 2.334-.22-.069-.727zm6.892-.647l-2.333.221.068.727 2.334-.221-.069-.727zm6.912-.667l-2.333.221.069.727 2.333-.22-.069-.728zm6.786-.559l-2.334.22.069.727 2.333-.22-.068-.727zm6.899-.652l-2.333.22.068.727 2.334-.22-.069-.727zm7.008-.743l-2.333.222.069.727 2.333-.222-.069-.727zm6.904-.656l-2.333.222.07.727 2.333-.222-.07-.727zm6.603-.611l-2.344.211.065.73 2.344-.211-.065-.73zm7.197-.694l-2.334.222.07.728 2.333-.223-.069-.727zm6.728-.602l-2.344.211.066.73 2.344-.211-.066-.73zm7.07-.703l-2.333.219.068.727 2.333-.219-.068-.727zm6.904-.654l-2.334.219.068.727 2.334-.219-.068-.727zm6.9-.662l-2.333.222.069.727 2.333-.222-.069-.727zm6.822-.58l-2.333.222.069.727 2.334-.222-.07-.727zm6.922-.46l-2.344.211.065.731 2.344-.211-.065-.731zm6.858-.828l-2.334.222.07.727 2.333-.222-.069-.727zm7.016-.761l-2.334.222.07.727 2.333-.222-.069-.727zm6.929-.274l-2.344.211.066.73 2.343-.211-.065-.73zm6.811-.97l-2.334.218.068.728 2.334-.219-.068-.727zm6.84-.602l-2.333.22.068.727 2.334-.22-.069-.727zm6.926-.679l-2.333.222.069.727 2.333-.222-.069-.727zM93.857 450.658l-.168.711 2.281.538.168-.711-2.281-.538zm6.746 1.556l-.167.711 2.281.537.168-.711-2.282-.537zm6.747 1.506l-.167.711 2.281.537.168-.711-2.282-.537zm6.746 1.678l-.168.711 2.281.538.168-.71-2.281-.539zm6.747 1.57l-.167.711 2.281.537.168-.711-2.282-.537zm6.745 1.661l-.167.71 2.281.539.168-.711-2.282-.538zm6.744 1.615l-.168.711 2.281.54.168-.711-2.281-.54zm6.751 1.569l-.168.711 2.281.538.168-.711-2.281-.538zm6.742 1.585l-.168.711 2.282.538.167-.711-2.281-.538zm6.749 1.612l-.169.711 2.281.54.168-.711-2.28-.54zm6.742 1.565l-.169.711 2.282.539.168-.711-2.281-.539zm6.745 1.539l-.167.711 2.281.537.168-.711-2.282-.537zm6.75 1.655l-.168.711 2.281.539.168-.71-2.281-.54zm6.747 1.584l-.168.711 2.281.539.168-.711-2.281-.539zm6.74 1.467l-.168.711 2.282.538.167-.711-2.281-.538zm6.752 1.732l-.168.711 2.282.538.167-.711-2.281-.538zm6.747 1.592l-.168.711 2.281.538.168-.711-2.281-.538zm6.742 1.602l-.167.711 2.281.537.167-.711-2.281-.537zm6.744 1.522l-.168.711 2.281.54.168-.711-2.281-.54zm6.749 1.599l-.168.711 2.281.539.168-.711-2.281-.539zm6.744 1.624l-.168.711 2.282.538.167-.711-2.281-.538zm6.748 1.616l-.167.711 2.281.538.168-.711-2.282-.538zm6.748 1.592l-.168.711 2.282.538.167-.711-2.281-.538zm6.744 1.592l-.167.71 2.281.539.168-.711-2.282-.538z" fill="#231F20"/><path d="M94.211 451.065l-.73.005.017 2.344.73-.005-.017-2.344z" fill="#231F20"/><path fill-rule="evenodd" clip-rule="evenodd" d="M93.449 458.02l.73-.004.017 2.341-.73.007-.017-2.344z" fill="#231F20"/><path d="M94.25 464.945l-.73.004.014 2.344.73-.004-.014-2.344zm.006 6.937l-.73.004.01 2.344.73-.004-.01-2.344zm.144 6.914l-.73.007.02 2.344.731-.007-.02-2.344zm-.006 6.942l-.73.005.016 2.344.73-.005-.016-2.344zm.051 6.93l-.73.004.014 2.344.73-.004-.014-2.344zm.095 6.923l-.73.005.016 2.345.73-.006-.016-2.344zm.004 6.941l-.73.004.014 2.344.73-.004-.014-2.344zm.1 6.919l-.73.005.017 2.344.73-.005-.017-2.344zm.038 6.933l-.73.005.017 2.345.73-.006-.017-2.344zm.048 6.934l-.731.005.017 2.344.73-.006-.017-2.343zM896.199 320.96h-.73v2.344h.73v-2.344zm0-6.934h-.73v2.345h.73v-2.345zm0-6.93h-.73v2.344h.73v-2.344zm0-6.934h-.73v2.344h.73v-2.344zm0-6.93h-.73v2.344h.73v-2.344zm0-6.93h-.73v2.344h.73v-2.344zm0-6.934h-.73v2.344h.73v-2.344zm0-6.931h-.73v2.344h.73v-2.344zm0-6.934h-.73v2.345h.73v-2.345zm0-6.93h-.73v2.344h.73v-2.344zm0-6.93h-.73v2.344h.73v-2.344zm0-6.934h-.73v2.344h.73v-2.344zm0-6.931h-.73v2.344h.73v-2.344zm0-6.934h-.73v2.345h.73v-2.345zm0-6.93h-.73v2.344h.73v-2.344zm0-6.934h-.73v2.344h.73v-2.344zm0-6.93h-.73v2.344h.73v-2.344zm0-6.931h-.73v2.344h.73v-2.344zm0-6.933h-.73v2.344h.73v-2.344zm0-6.931h-.73v2.344h.73v-2.344zm140.981 456.968l-.41.607 1.95 1.303.41-.608-1.95-1.302zm-5.74-3.714l-.4.608 1.95 1.302.4-.607-1.95-1.303zm-5.78-3.99l-.41.607 1.95 1.303.41-.607-1.95-1.303zm-5.73-3.66l-.4.607 1.94 1.305.41-.607-1.95-1.305zm-5.75-3.856l-.41.607 1.95 1.305.4-.607-1.94-1.305zm-5.76-3.859l-.41.607 1.95 1.305.4-.606-1.94-1.306zm-5.8-4.07l-.41.607 1.95 1.305.41-.607-1.95-1.305zm-5.756-3.836l-.406.607 1.948 1.303.406-.607-1.948-1.303zm-5.76-3.854l-.406.607 1.949 1.303.406-.607-1.949-1.303zm-5.757-3.857l-.406.607 1.948 1.304.406-.608-1.948-1.303zm-5.742-3.72l-.406.607 1.949 1.303.406-.607-1.949-1.303zm-5.778-3.99l-.406.607 1.948 1.303.406-.607-1.948-1.303zm-5.762-3.854l-.406.607 1.948 1.303.406-.607-1.948-1.303zm-5.727-3.668l-.407.607 1.947 1.305.407-.607-1.947-1.305zm-5.77-3.914l-.407.606 1.946 1.306.407-.606-1.946-1.306zm-5.785-4.01l-.406.607 1.947 1.305.406-.607-1.947-1.305zm-5.727-3.645l-.407.607 1.947 1.305.407-.607-1.947-1.305zm-5.763-3.871l-.406.608 1.95 1.301.406-.607-1.95-1.302zm-5.784-4.029l-.406.607 1.948 1.304.406-.607-1.948-1.304zm-5.731-3.67l-.406.606 1.947 1.305.406-.606-1.947-1.305zm-5.789-4.043l-.406.607 1.949 1.303.405-.607-1.948-1.303zm-5.758-3.843l-.406.607 1.947 1.305.407-.607-1.948-1.305zm-5.754-3.812l-.406.607 1.949 1.303.406-.607-1.949-1.303zm-5.766-3.916l-.406.608 1.949 1.302.406-.607-1.949-1.303zm-5.763-3.866l-.407.607 1.947 1.304.407-.606-1.947-1.305zm-3.011 2.295l-.409.606 1.945 1.312.409-.606-1.945-1.312zm-8.477-9.809l-.407.607 1.948 1.305.406-.607-1.947-1.305zm-5.763-3.873l-.406.607 1.947 1.304.407-.607-1.948-1.304zm-5.758-3.823l-.405.608 1.949 1.301.406-.608-1.95-1.301zm-5.763-3.912l-.407.607 1.947 1.305.407-.607-1.947-1.305zm-5.768-3.909l-.407.606 1.947 1.306.407-.606-1.947-1.306zm-5.763-3.884l-.406.607 1.948 1.304.406-.608-1.948-1.303zm-3.258 1.315l-.409.606 1.945 1.313.409-.607-1.945-1.312zm-8.256-8.996l-.406.608 1.948 1.302.406-.607-1.948-1.303zm37.162 127.181l-1.947 1.305.407.607 1.947-1.305-.407-.607zm5.718-3.71l-1.948 1.303.406.607 1.948-1.303-.406-.607zm5.798-3.98l-1.948 1.303.406.607 1.948-1.303-.406-.607zm5.739-3.809l-1.946 1.308.407.606 1.946-1.307-.407-.607zm5.757-3.826l-1.947 1.305.406.607 1.948-1.305-.407-.607zm5.794-3.993l-1.947 1.305.407.607 1.947-1.306-.407-.606zm5.706-3.655l-1.947 1.305.406.607 1.948-1.305-.407-.607zm5.814-4.059l-1.947 1.305.406.607 1.948-1.305-.407-.607zm5.761-3.856l-1.947 1.305.407.607 1.947-1.305-.407-.607zm5.708-3.671l-1.948 1.303.406.607 1.948-1.303-.406-.607zm5.764-3.858l-1.948 1.304.406.607 1.948-1.303-.406-.608zm5.792-3.98l-1.949 1.303.406.607 1.949-1.303-.406-.607zm5.728-3.729l-1.948 1.304.406.607 1.948-1.304-.406-.607zm5.802-4.043l-1.947 1.305.407.606 1.947-1.305-.407-.606zm5.762-3.856l-1.947 1.305.406.606 1.947-1.305-.406-.606zm5.758-3.855l-1.947 1.305.407.607 1.947-1.305-.407-.607zm5.761-3.856l-1.947 1.305.407.607 1.947-1.305-.407-.607zm5.716-3.67l-1.948 1.304.406.607 1.948-1.304-.406-.607zm5.76-3.853l-1.948 1.303.406.607 1.948-1.303-.406-.607zm5.774-3.917l-1.948 1.303.406.608 1.948-1.304-.406-.607zm5.775-3.924l-1.949 1.303.406.607 1.948-1.303-.405-.607zm5.76-3.876l-1.94 1.305.4.606 1.95-1.305-.41-.606zm5.75-3.803l-1.95 1.302.41.607 1.95-1.302-.41-.607zm5.78-3.949l-1.95 1.306.41.606 1.95-1.305-.41-.607zm8.97-10.067l-1.95 1.313.41.606 1.94-1.313-.4-.606zm2.52 2.529l-1.95 1.302.4.608 1.95-1.303-.4-.607zm5.78-3.99l-1.95 1.305.41.606 1.95-1.305-.41-.606zm5.75-3.82l-1.95 1.301.41.608 1.95-1.302-.41-.607zm5.78-3.916l-1.95 1.302.4.607 1.95-1.301-.4-.608zm5.75-3.835l-1.95 1.305.41.607 1.94-1.305-.4-.607zm5.76-3.856l-1.95 1.305.41.607 1.94-1.305-.4-.607zm5.76-3.882l-1.95 1.305.41.607 1.95-1.305-.41-.607zm5.76-3.855l-1.95 1.301.41.608 1.95-1.301-.41-.608zm5.77-3.887l-1.95 1.301.4.608 1.95-1.301-.4-.608zm5.74-3.74l-1.95 1.306.41.606 1.94-1.305-.4-.607zm5.74-3.74l-1.94 1.304.4.607 1.95-1.304-.41-.607zm5.79-4.099l-1.94 1.305.4.607 1.95-1.305-.41-.607zm5.75-3.769l-1.94 1.303.4.607 1.95-1.303-.41-.607zm5.77-3.917l-1.95 1.305.41.607 1.95-1.305-.41-.607zm5.76-3.856l-1.95 1.305.41.607 1.95-1.305-.41-.607zm-66.11 150.775l-1.95 1.303.41.607 1.95-1.303-.41-.607zm5.78-3.942l-1.95 1.304.4.607 1.95-1.304-.4-.607zm5.74-3.769l-1.95 1.302.41.608 1.95-1.303-.41-.607zm5.77-3.921l-1.95 1.305.41.607 1.95-1.305-.41-.607zm5.75-3.794l-1.95 1.306.41.607 1.95-1.306-.41-.607zm5.76-3.855l-1.95 1.306.41.606 1.94-1.305-.4-.607zm5.77-3.917l-1.95 1.305.41.606 1.95-1.305-.41-.606zm5.73-3.704l-1.95 1.304.41.607 1.95-1.304-.41-.607zm5.76-3.853l-1.95 1.304.41.607 1.95-1.304-.41-.607zm5.76-3.873l-1.95 1.303.41.607 1.95-1.302-.41-.608zm5.78-3.946l-1.95 1.307.41.606 1.94-1.306-.4-.607z" fill="#231F20"/><path fill-rule="evenodd" clip-rule="evenodd" d="M1104.22 605.481l.41.605 1.95-1.301-.41-.608-1.95 1.304zm5.76-3.856l.41.605.61-.408v-.879l-1.02.682z" fill="#231F20"/><path d="M95.156 601.155l-.15.715 1.809.38.15-.715-1.809-.38zm5.348 1.106l-.15.715 1.809.379.149-.715-1.808-.379zm5.74-4.491l-.146.716 1.811.369.146-.715-1.811-.37zm4.963 6.736l-.15.715 1.809.378.15-.715-1.809-.378zm5.351 1.175l-.149.715 1.809.378.149-.715-1.809-.378zm5.666-4.581l-.146.716 1.811.37.146-.716-1.811-.37zm5.329 1.106l-.146.716 1.811.37.146-.716-1.811-.37zm5.057 6.833l-.149.715 1.809.379.149-.715-1.809-.379zm5.355 1.003l-.15.715 1.809.379.149-.715-1.808-.379zm5.348 1.194l-.15.715 1.809.38.15-.715-1.809-.38z" fill="#231F20"/><path fill-rule="evenodd" clip-rule="evenodd" d="M148.514 613.04l.15-.713 1.811.377-.143.69-.037.02-1.781-.374z" fill="#231F20"/><path d="M95.004 601.798l-.207 1.837.725.082.208-1.837-.726-.082zm-.604 5.546l-.204 1.837.725.081.205-1.837-.725-.081zm-.617 5.29l-.207 1.837.725.082.208-1.837-.726-.082zm-.607 5.577l-.205 1.836.726.081.205-1.836-.726-.081zm-.611 5.408l-.207 1.836.725.082.207-1.836-.725-.082zm-.605 5.437l-.208 1.836.726.082.207-1.836-.725-.082zm-.617 5.393l-.205 1.837.726.081.205-1.837-.726-.081zm-.611 5.377l-.208 1.837.726.082.207-1.837-.725-.082z" fill="#231F20"/><path fill-rule="evenodd" clip-rule="evenodd" d="M90.123 645.304l.727.081-.207 1.838-.265-.03-.374-.829.119-1.06z" fill="#231F20"/><path d="M94.35 600.105l-.552.477 1.208 1.399.552-.477-1.207-1.399zm-3.503-4.222l-.552.478 1.208 1.398.553-.478-1.209-1.398zm-3.575-4.139l-.552.477 1.208 1.398.553-.477-1.209-1.398zm-3.652-4.04l-.552.477 1.209 1.398.552-.478-1.209-1.397zm-3.514-4.208l-.552.477 1.208 1.398.553-.477-1.209-1.398zm-3.529-4.189l-.553.478 1.209 1.398.552-.478-1.208-1.398zm-3.645-4.056l-.553.477 1.206 1.4.553-.477-1.206-1.4zm-3.602-4.102l-.553.478 1.207 1.398.553-.477-1.208-1.399zm-3.541-4.178l-.553.477 1.206 1.4.553-.477-1.206-1.4zm-3.523-4.195l-.553.477 1.206 1.4.553-.477-1.206-1.4zm-3.633-4.071l-.553.477 1.208 1.399.553-.477-1.208-1.399zm-3.598-4.108l-.553.477 1.208 1.399.552-.478-1.207-1.398zm-3.488-4.234l-.552.477 1.208 1.399.553-.478-1.209-1.398zm-3.577-4.134l-.554.477 1.208 1.399.552-.477-1.207-1.399zm-3.664-4.034l-.553.478 1.208 1.399.553-.478-1.208-1.399zm701.496-194.403l-1.898 1.376.429.591 1.898-1.376-.429-.591zm5.638-4.246l-1.896 1.379.43.591 1.896-1.379-.43-.591zm5.6-4.036l-1.895 1.38.43.591 1.895-1.38-.43-.591zm5.594-3.988l-1.898 1.377.429.591 1.897-1.376-.428-.592zm5.607-4.082l-1.897 1.377.429.591 1.897-1.377-.429-.591zm5.605-4.041l-1.897 1.377.429.592 1.897-1.378-.429-.591zm5.632-4.226l-1.896 1.379.43.59 1.896-1.379-.43-.59zm5.587-3.948l-1.897 1.377.429.591 1.897-1.377-.429-.591zm5.611-4.116l-1.895 1.379.43.591 1.895-1.38-.43-.59zm5.614-4.102l-1.895 1.379.429.591 1.896-1.379-.43-.591zm5.596-3.993l-1.897 1.377.428.591 1.898-1.376-.429-.592zm5.627-4.216l-1.895 1.379.43.59 1.895-1.379-.43-.59zm5.604-4.056l-1.896 1.379.43.59 1.896-1.379-.43-.59zm5.588-3.93l-1.897 1.376.429.591 1.897-1.376-.429-.591zm5.628-4.237l-1.895 1.379.429.59 1.896-1.379-.43-.59zm8.304-4.467l-1.898 1.383.431.591 1.898-1.383-.431-.591zm2.899-3.555l-1.897 1.376.428.591 1.898-1.376-.429-.591zm5.612-4.16l-1.895 1.379.43.591 1.895-1.38-.43-.59zm5.612-4.107l-1.896 1.379.43.59 1.896-1.379-.43-.59zm5.589-3.874l-1.897 1.377.429.591 1.897-1.376-.429-.592zm8.326-4.752l-1.898 1.383.431.592 1.898-1.383-.431-.592zm2.894-3.455l-1.896 1.378.43.59 1.896-1.378-.43-.59zm5.609-4.064l-1.897 1.376.429.591 1.897-1.376-.429-.591zm5.609-4.064l-1.897 1.377.429.591 1.897-1.377-.429-.591zm5.605-4.113l-1.895 1.38.43.59 1.895-1.38-.43-.59zm5.612-4.114l-1.898 1.376.429.591 1.898-1.376-.429-.591zm5.604-3.971l-1.896 1.379.43.59 1.896-1.378-.43-.591zm5.615-4.251l-1.896 1.378.429.591 1.896-1.378-.429-.591zm5.604-3.968l-1.897 1.377.429.591 1.897-1.377-.429-.591zm5.61-4.165l-1.895 1.379.429.59 1.896-1.379-.43-.59zm8.332-5.176l-1.899 1.383.431.591 1.899-1.383-.431-.591zm2.881-2.913l-1.898 1.376.429.592 1.898-1.376-.429-.592zm5.606-4.104l-1.895 1.38.43.591 1.895-1.38-.43-.591zm5.606-3.947l-1.896 1.378.43.591 1.896-1.378-.43-.591zm5.612-4.139l-1.897 1.377.429.591 1.897-1.377-.429-.591zm5.605-4.194l-1.895 1.379.429.59 1.896-1.378-.43-.591zm5.609-4.046l-1.895 1.38.43.59 1.895-1.379-.43-.591zm5.61-3.948l-1.897 1.377.429.591 1.897-1.376-.429-.592zm5.606-4.061l-1.898 1.376.429.591 1.898-1.376-.429-.591zm5.603-4.212l-1.895 1.38.43.59 1.895-1.38-.43-.59zm5.613-4.013l-1.898 1.375.429.592 1.898-1.375-.429-.592zm5.608-4.012l-1.897 1.377.429.591 1.897-1.377-.429-.591zm5.604-4.052l-1.896 1.378.43.591 1.895-1.379-.429-.59zm5.613-4.049l-1.897 1.377.429.591 1.897-1.377-.429-.591zm5.608-4.076l-1.896 1.377.429.591 1.896-1.377-.429-.591zm5.597-4.291l-1.895 1.379.43.59 1.895-1.379-.43-.59zm5.61-3.935l-1.89 1.376.43.591 1.89-1.376-.43-.591zm5.61-4.08l-1.89 1.377.42.591 1.9-1.376-.43-.592zm5.6-4.164l-1.89 1.379.43.591 1.89-1.38-.43-.59zm5.62-3.949l-1.9 1.378.43.591 1.9-1.378-.43-.591zm5.61-4.058l-1.9 1.376.43.591 1.9-1.376-.43-.591zM85.72 643.757l-.429.591 1.896 1.378.43-.591-1.896-1.378zm-5.662-3.97l-.43.591 1.898 1.377.429-.591-1.897-1.377zm-5.554-4.178l-.43.591 1.897 1.378.429-.591-1.896-1.378zm-5.683-3.929l-.43.591 1.896 1.378.43-.59-1.896-1.379zm-5.563-4.159l-.43.591 1.898 1.377.429-.591-1.898-1.377zm-3.941-1.896l-.431.592 1.898 1.383.431-.591-1.898-1.384zm-7.319-6.17l-.43.59 1.897 1.379.43-.591-1.897-1.378zm-5.531-4.213l-.43.591 1.897 1.378.43-.591-1.897-1.378zm-4.02-1.846l-.431.592 1.898 1.383.431-.592-1.898-1.383zm-7.251-6.208l-.429.591 1.897 1.377.43-.592-1.898-1.376zm-5.551-4.168l-.43.592 1.898 1.377.429-.591-1.897-1.378zm-5.685-3.939l-.429.591 1.896 1.378.43-.591-1.896-1.378zm-5.585-4.115l-.428.591 1.896 1.377.43-.592-1.898-1.376zm-5.632-4.032l-.429.591 1.896 1.378.43-.591-1.897-1.378zm-5.559-4.155l-.43.591 1.898 1.377.429-.592-1.897-1.376zm-5.656-3.998l-.43.591 1.896 1.378.43-.591-1.896-1.378zm.422-65.609L.055 518.55l.429.591 1.896-1.378-.43-.591zm5.497-3.972l-1.896 1.378.43.591 1.896-1.378-.43-.591zm5.643-4.108l-1.897 1.377.43.591 1.896-1.377-.43-.591zm5.68-4.141l-1.896 1.379.43.59 1.896-1.378-.43-.591zm5.575-4.042l-1.898 1.377.43.591 1.896-1.377-.428-.591zm5.579-4.05l-1.897 1.377.429.591 1.897-1.376-.43-.592zm5.666-4.132l-1.896 1.378.43.591 1.896-1.378-.43-.591zm7.622-2.929l-1.899 1.383.431.592 1.899-1.383-.431-.592zm3.497-5.122l-1.898 1.377.43.591 1.896-1.376-.428-.592zm5.704-4.173l-1.895 1.378.43.591 1.895-1.378-.43-.591zm7.801-3.152l-1.898 1.383.43.592 1.9-1.383-.432-.592zm3.314-4.892l-1.896 1.378.43.591 1.895-1.378-.43-.591zm5.705-4.177l-1.895 1.379.43.59 1.895-1.378-.43-.591zm5.542-4.008l-1.897 1.377.429.592 1.897-1.378-.43-.591zm5.677-4.143l-1.896 1.379.43.59 1.896-1.378-.43-.591zm5.506-3.97l-1.896 1.378.43.591 1.896-1.378-.43-.591zm5.609-4.075l-1.896 1.378.43.591 1.895-1.378-.43-.591zm5.705-4.179l-1.896 1.378.43.591 1.895-1.378-.429-.591zm5.567-4.033l-1.898 1.376.429.592 1.897-1.377-.428-.591zm5.551-4.011l-1.896 1.379.429.59 1.896-1.378-.429-.591zm8.16-3.722l-1.899 1.383.431.592 1.899-1.383-.431-.592zm3.072-4.447l-1.896 1.378.429.591 1.897-1.378-.43-.591zm5.59-4.052l-1.896 1.377.429.591 1.896-1.377-.429-.591zm5.641-4.116l-1.896 1.378.429.591 1.896-1.378-.429-.591zm5.576-4.039l-1.896 1.378.429.591 1.897-1.378-.43-.591zm5.696-4.175l-1.896 1.378.43.591 1.896-1.379-.43-.59zm5.54-3.989l-1.896 1.377.429.591 1.897-1.377-.43-.591zm5.611-4.084l-1.896 1.377.429.591 1.896-1.377-.429-.591zm5.593-4.054l-1.896 1.378.429.591 1.896-1.378-.429-.591zm5.686-4.171l-1.896 1.379.43.59 1.896-1.378-.43-.591zm5.607-4.078l-1.895 1.378.429.591 1.896-1.379-.43-.59zm5.561-4.013l-1.897 1.378.429.591 1.897-1.378-.429-.591zM927.06 274.809l-.551.479 1.538 1.769.551-.48-1.538-1.768zm-4.547-5.226l-.551.479 1.538 1.769.551-.48-1.538-1.768zm-4.549-5.19l-.551.479 1.538 1.769.551-.48-1.538-1.768zm-4.552-5.226l-.551.48 1.54 1.768.55-.48-1.539-1.768zm-4.553-5.356l-.552.479 1.538 1.769.551-.479-1.537-1.769zm-4.545-5.1l-.551.479 1.538 1.769.551-.48-1.538-1.768zm-4.554-5.273l-.551.48 1.538 1.768.551-.479-1.538-1.769z" fill="#231F20"/><path d="M895.211 238.262l-.551.48 1.538 1.769.551-.479-1.538-1.77zm-4.553-5.278l-.551.48 1.539 1.767.551-.479-1.539-1.768zm-4.549-5.19l-.551.48 1.539 1.768.551-.48-1.539-1.768zm-4.555-5.367l-.551.479 1.537 1.769.552-.479-1.538-1.769zm-4.546-5.129l-.55.479 1.539 1.768.55-.479-1.539-1.768z" fill="#231F20"/><g filter="url(#a)"><path fill-rule="evenodd" clip-rule="evenodd" d="M736.841 502.516l4.646-1.651L729 494l3.64 13.776 2.726-4.108 3.264 4.177 1.474-1.152-3.263-4.177z" fill="#363B3E"/><path d="M737.662 502.755l3.992-1.419 1.049-.373-.976-.536-12.486-6.865-1.022-.562.298 1.128 3.64 13.776.284 1.077.616-.928 2.342-3.531 2.837 3.631.308.394.394-.308 1.474-1.152.394-.307-.308-.394-2.836-3.631z" stroke="#fff" stroke-opacity=".8"/></g><path stroke="#FFE400" stroke-dasharray="5 5" d="M726.5 492v167M116 492.5h610"/><path stroke="#FFE400" d="M90.5 666v40m-6.146-26.354l12.02 12.021M374 686.5H90"/><path d="M385.408 692v-1.184h3.12v-8.992h-.112l-2.816 2.624-.784-.848 2.96-2.768h2.096v9.984h2.88V692h-7.344zm16.714 0h-7.328v-1.376l3.648-3.36c.522-.48.96-.987 1.312-1.52.352-.544.528-1.088.528-1.632v-.192c0-.619-.171-1.12-.512-1.504-.342-.384-.859-.576-1.552-.576-.342 0-.64.048-.896.144-.256.096-.48.229-.672.4a2.4 2.4 0 0 0-.464.608 3.685 3.685 0 0 0-.288.736l-1.2-.464a4.73 4.73 0 0 1 .432-.96 3.57 3.57 0 0 1 .704-.848 3.435 3.435 0 0 1 1.024-.592c.405-.149.88-.224 1.424-.224.544 0 1.029.08 1.456.24.426.16.784.384 1.072.672.288.288.506.629.656 1.024.16.395.24.832.24 1.312 0 .437-.064.843-.192 1.216a4.685 4.685 0 0 1-.496 1.072 6.462 6.462 0 0 1-.784.976c-.299.32-.624.64-.976.96l-3.008 2.704h5.872V692zm7.066 0v-2.192h-5.392v-1.184l4.672-7.792h2v7.856h1.616v1.12h-1.616V692h-1.28zm-4.128-3.312h4.128v-6.816h-.08l-4.048 6.816zm11.897-3.12c.758 0 1.323-.171 1.696-.512.384-.352.576-.8.576-1.344v-.112c0-.587-.186-1.024-.56-1.312-.362-.299-.842-.448-1.44-.448-.576 0-1.045.128-1.408.384a2.847 2.847 0 0 0-.896 1.008l-.992-.768c.139-.224.304-.443.496-.656a3.492 3.492 0 0 1 1.632-1.008c.352-.107.752-.16 1.2-.16.47 0 .912.064 1.328.192.416.117.774.299 1.072.544.31.235.55.528.72.88.182.352.272.752.272 1.2 0 .363-.058.688-.176.976a2.295 2.295 0 0 1-.448.752 2.669 2.669 0 0 1-.688.544 3.183 3.183 0 0 1-.832.336v.064c.299.064.587.171.864.32.288.139.539.325.752.56.224.224.4.501.528.832.139.32.208.688.208 1.104 0 .48-.09.923-.272 1.328a3 3 0 0 1-.768 1.024c-.33.277-.73.496-1.2.656a4.78 4.78 0 0 1-1.552.24c-.48 0-.906-.053-1.28-.16a3.849 3.849 0 0 1-.992-.432 4.367 4.367 0 0 1-.768-.608 6.03 6.03 0 0 1-.576-.704l1.008-.768c.139.224.288.427.448.608.171.181.358.336.56.464.203.128.432.229.688.304.256.064.555.096.896.096.79 0 1.387-.176 1.792-.528.406-.363.608-.875.608-1.536v-.128c0-.661-.202-1.168-.608-1.52-.405-.363-1.002-.544-1.792-.544h-1.312v-1.168h1.216zm10.218 6.624c-1.333 0-2.309-.507-2.928-1.52-.608-1.013-.912-2.432-.912-4.256 0-1.824.304-3.243.912-4.256.619-1.013 1.595-1.52 2.928-1.52s2.304.507 2.912 1.52c.619 1.013.928 2.432.928 4.256 0 1.824-.309 3.243-.928 4.256-.608 1.013-1.579 1.52-2.912 1.52zm0-1.168c.437 0 .811-.091 1.12-.272.309-.181.56-.437.752-.768.192-.331.331-.72.416-1.168.096-.448.144-.944.144-1.488v-1.824c0-.544-.048-1.04-.144-1.488a3.678 3.678 0 0 0-.416-1.168 2.077 2.077 0 0 0-.752-.768c-.309-.181-.683-.272-1.12-.272-.437 0-.811.091-1.12.272-.309.181-.56.437-.752.768-.192.331-.336.72-.432 1.168a8.004 8.004 0 0 0-.128 1.488v1.824c0 .544.043 1.04.128 1.488.096.448.24.837.432 1.168.192.331.443.587.752.768.309.181.683.272 1.12.272z" fill="#FFE400"/><path stroke="#FFE400" d="M726 686.5H442m278.353-6.854l12.021 12.021M726.5 666v40"/><path d="M23.692 462.008v-3.344h-3.12v-1.088h3.12v-3.344h1.216v3.344h3.12v1.088h-3.12v3.344h-1.216zm13.93.992h-7.328v-1.376l3.648-3.36a8.23 8.23 0 0 0 1.312-1.52c.352-.544.528-1.088.528-1.632v-.192c0-.619-.17-1.12-.512-1.504-.342-.384-.859-.576-1.552-.576-.342 0-.64.048-.896.144-.256.096-.48.229-.672.4a2.413 2.413 0 0 0-.464.608 3.758 3.758 0 0 0-.288.736l-1.2-.464a4.73 4.73 0 0 1 .432-.96 3.57 3.57 0 0 1 .704-.848c.288-.245.63-.443 1.024-.592.405-.149.88-.224 1.424-.224.544 0 1.03.08 1.456.24.426.16.784.384 1.072.672.288.288.506.629.656 1.024.16.395.24.832.24 1.312 0 .437-.064.843-.192 1.216a4.647 4.647 0 0 1-.496 1.072 6.407 6.407 0 0 1-.784.976c-.299.32-.624.64-.976.96l-3.008 2.704h5.872V463zm3.242-1.872c.34 0 .586.091.736.272.16.171.24.395.24.672v.224c0 .437-.129.917-.385 1.44a4.249 4.249 0 0 1-1.072 1.392h-1.072c.32-.341.577-.667.769-.976a2.95 2.95 0 0 0 .431-1.008.803.803 0 0 1-.48-.304.985.985 0 0 1-.143-.544v-.224c0-.277.074-.501.224-.672.16-.181.41-.272.752-.272zm3.59 1.872v-1.184h3.12v-8.992h-.111l-2.816 2.624-.784-.848 2.96-2.768h2.096v9.984h2.88V463h-7.344zm12.987.192c-.64 0-1.2-.08-1.68-.24a3.73 3.73 0 0 1-1.216-.688 2.92 2.92 0 0 1-.736-1.024 3.375 3.375 0 0 1-.24-1.28c0-.768.208-1.376.624-1.824.416-.448.96-.763 1.632-.944v-.128c-.587-.203-1.056-.528-1.408-.976-.342-.459-.512-1.008-.512-1.648 0-.853.309-1.531.928-2.032.618-.512 1.488-.768 2.608-.768s1.989.256 2.608.768c.618.501.928 1.179.928 2.032 0 .64-.176 1.189-.528 1.648-.342.448-.806.773-1.392.976v.128c.672.181 1.216.496 1.632.944.416.448.624 1.056.624 1.824 0 .459-.086.885-.256 1.28-.16.395-.406.736-.736 1.024a3.55 3.55 0 0 1-1.2.688c-.48.16-1.04.24-1.68.24zm0-1.168c.778 0 1.381-.171 1.808-.512.426-.352.64-.848.64-1.488v-.336c0-.64-.214-1.131-.64-1.472-.427-.352-1.03-.528-1.808-.528-.779 0-1.382.176-1.808.528-.427.341-.64.832-.64 1.472v.336c0 .64.213 1.136.64 1.488.426.341 1.029.512 1.808.512zm0-5.456c.704 0 1.237-.149 1.6-.448.362-.299.544-.736.544-1.312v-.24c0-.576-.182-1.013-.544-1.312-.363-.299-.896-.448-1.6-.448-.704 0-1.238.149-1.6.448-.363.299-.544.736-.544 1.312v.24c0 .576.181 1.013.544 1.312.362.299.896.448 1.6.448zm9.593 6.624c-1.333 0-2.309-.507-2.928-1.52-.608-1.013-.912-2.432-.912-4.256 0-1.824.304-3.243.912-4.256.619-1.013 1.595-1.52 2.928-1.52 1.334 0 2.304.507 2.912 1.52.619 1.013.928 2.432.928 4.256 0 1.824-.309 3.243-.928 4.256-.608 1.013-1.578 1.52-2.912 1.52zm0-1.168c.438 0 .811-.091 1.12-.272.31-.181.56-.437.752-.768.192-.331.331-.72.416-1.168.096-.448.144-.944.144-1.488v-1.824c0-.544-.048-1.04-.144-1.488a3.688 3.688 0 0 0-.416-1.168 2.075 2.075 0 0 0-.752-.768c-.309-.181-.682-.272-1.12-.272-.437 0-.81.091-1.12.272-.309.181-.56.437-.752.768-.192.331-.336.72-.432 1.168a7.97 7.97 0 0 0-.128 1.488v1.824c0 .544.043 1.04.128 1.488.096.448.24.837.432 1.168.192.331.443.587.752.768.31.181.683.272 1.12.272zm8.538-4.88c-.384 0-.741-.069-1.072-.208a2.727 2.727 0 0 1-.848-.576 2.8 2.8 0 0 1-.56-.864 2.904 2.904 0 0 1-.208-1.104c0-.395.07-.757.208-1.088.139-.341.326-.635.56-.88.245-.245.528-.437.848-.576.33-.139.688-.208 1.072-.208.384 0 .736.069 1.056.208a2.5 2.5 0 0 1 .848.576c.246.245.438.539.576.88.139.331.208.693.208 1.088 0 .395-.07.763-.208 1.104-.139.331-.33.619-.576.864a2.498 2.498 0 0 1-.848.576c-.32.139-.672.208-1.056.208zm0-1.024c.48 0 .859-.165 1.136-.496.288-.341.432-.752.432-1.232s-.144-.885-.432-1.216c-.277-.341-.656-.512-1.136-.512-.48 0-.864.171-1.152.512-.277.331-.416.736-.416 1.216s.139.891.416 1.232c.288.331.672.496 1.152.496z" fill="#FFE400"/><path d="M92 468H7" stroke="#FFE400"/><path d="M91.146 490.354a.5.5 0 0 0 .708 0l3.181-3.182a.501.501 0 0 0-.707-.708l-2.828 2.829-2.828-2.829a.5.5 0 0 0-.707.708l3.181 3.182zM92 490v-22h-1v22h1z" fill="#FFE400"/><path stroke="#FFE400" d="M73 490.5h37"/><defs><filter id="a" x="724.437" y="490" width="22.483" height="24.185" filterUnits="userSpaceOnUse" color-interpolation-filters="sRGB"><feFlood flood-opacity="0" result="BackgroundImageFix"/><feColorMatrix in="SourceAlpha" values="0 0 0 0 0 0 0 0 0 0 0 0 0 0 0 0 0 0 127 0" result="hardAlpha"/><feOffset dy="1"/><feGaussianBlur stdDeviation="1.5"/><feColorMatrix values="0 0 0 0 0 0 0 0 0 0 0 0 0 0 0 0 0 0 0.25 0"/><feBlend in2="BackgroundImageFix" result="effect1_dropShadow_4_777"/><feBlend in="SourceGraphic" in2="effect1_dropShadow_4_777" result="shape"/></filter></defs></svg>