<svg width="1035" height="713" viewBox="0 0 1035 713" fill="none" xmlns="http://www.w3.org/2000/svg"><g clip-path="url(#a)"><path fill-rule="evenodd" clip-rule="evenodd" d="M641.421 476.542h-13.224a281.127 281.127 0 0 0-33.677-13.764v-16.486c18.57 7.861 34.549 18.178 46.901 30.25z" fill="#808285"/><path fill-rule="evenodd" clip-rule="evenodd" d="M594.52 476.542h-13.379v-35.341a190.528 190.528 0 0 1 13.379 5.091v30.25z" fill="#BCBEC0"/><path fill-rule="evenodd" clip-rule="evenodd" d="M581.141 476.542h-21.413v-41.355a212.989 212.989 0 0 1 21.413 6.014v35.341z" fill="#FFEF68"/><path fill-rule="evenodd" clip-rule="evenodd" d="M507.484 449.13v-19.655h.024a237.375 237.375 0 0 1 52.22 5.708v18.353c-18.316-3.582-35.938-5.003-52.244-4.406z" fill="#A7A9AC"/><path fill-rule="evenodd" clip-rule="evenodd" d="M507.484 476.542h-41.503v-43.485a240.677 240.677 0 0 1 41.503-3.582v47.067z" fill="#BCBEC0"/><path fill-rule="evenodd" clip-rule="evenodd" d="M429.437 476.542h-55.842c21.572-21.095 54.206-36.794 92.386-43.493v22.8c-14.832 4.672-27.3 11.634-36.544 20.693zm283.471 0h-23.885c6.648-7.065 14.705-13.394 23.885-18.795v18.795z" fill="#808285"/><path fill-rule="evenodd" clip-rule="evenodd" d="M741.884 476.542h-12.058v-27.166a151.712 151.712 0 0 1 12.058-4.342v31.508zm-12.058 0h-16.918v-18.807a132.478 132.478 0 0 1 16.918-8.359v27.166z" fill="#BCBEC0"/><path fill-rule="evenodd" clip-rule="evenodd" d="M791.17 437.726a170.09 170.09 0 0 1 31.826 2.962c-5.016 9.867-11.409 19.825-20.767 27.3-12.767-7.885-28.443-13.56-45.779-16.176v-10.547a169.517 169.517 0 0 1 34.72-3.539z" fill="#A7A9AC"/><path fill-rule="evenodd" clip-rule="evenodd" d="M756.458 476.542h-14.574v-31.5a157.837 157.837 0 0 1 14.574-3.777v35.277z" fill="#FFEF68"/><path fill-rule="evenodd" clip-rule="evenodd" d="M833.135 442.956c24.741 6.397 45.779 18.278 60.182 33.586h-71.201a189.043 189.043 0 0 1 11.019-33.586zm-668.94 33.598h128.909c42.507-15.674 79.795-41.658 100.108-51.792-39.258 19.587-144.032 76.223-225.247 25.283-1.597 8.713-2.847 17.605-3.77 26.509z" fill="#6D6E71"/><path d="M713.203 422.322h-.701v54.16h.701v-54.16zm16.886-2.475h-.701v56.631h.701v-56.631zm12.305 30.019h-1.051v26.616h1.051v-26.616zm14.406-4.199h-.701v30.811h.701v-30.811zm49.783-.796h-.7v31.611h.7v-31.611zm6.119.848h-.701v30.763h.701v-30.763zm43.155 15.097h-.704v15.666h.704v-15.666zm5.641 3.403h-.701v12.263h.701v-12.263zm-10.859-6.221h-.701v18.48h.701v-18.48z" fill="#231F20"/><path d="M1035 470.89H0v.701h1035v-.701zm-.1 122.765c-185.404-56.501-351.402-84.753-517.4-84.753S185.504 537.154.104 593.655L0 593.32v-.37c185.424-56.52 351.462-84.749 517.5-84.749s332.076 28.261 517.5 84.749v.37l-.1.335z" fill="#231F20"/><path d="M1034.97 519.605c-146.614-14.019-281.104-22.497-413.054-25.43-131.951-2.934-261.358-.323-397.819 7.829h-.051l-117.584-14.815.071-.557 117.552 14.811c136.461-8.152 265.884-10.747 397.842-7.829 131.959 2.917 266.453 11.415 413.073 25.418v.278l-.03.295zm-.04 49.212c-38.171-9.648-75.575-18.304-112.212-25.967-36.686-7.658-72.779-14.325-108.277-20.001l-36.901 8.641-.124-.545 36.95-8.649h.107c35.588 5.676 71.703 12.347 108.345 20.013 36.687 7.658 74.077 16.308 112.172 25.951v.291l-.06.266z" fill="#231F20"/><path d="M1035 486.561H0v.7h1035v-.7zm-777.687 44.905l-36.834-8.621A2214.813 2214.813 0 0 0 167.455 532a2447.17 2447.17 0 0 0-53.283 10.456l19.371 14.222-.335.449-19.875-14.611-.506-.375.617-.131a2457.407 2457.407 0 0 1 53.912-10.584 2263.777 2263.777 0 0 1 53.091-9.154h.108l36.885 8.633-.127.561z" fill="#231F20"/><path d="M38.367 486.664l35.11 25.804-.143.51a7261.766 7261.766 0 0 0-36.42 3.184 6686.331 6686.331 0 0 0-36.886 3.431L0 519.315v-.279a7353.654 7353.654 0 0 1 36.866-3.431 6937.622 6937.622 0 0 1 35.675-3.137l-34.505-25.362.33-.442z" fill="#231F20"/><path fill-rule="evenodd" clip-rule="evenodd" d="M830.245 449.985a187.673 187.673 0 0 0-8.129 26.557h-6.946a186.337 186.337 0 0 1 9.705-28.093c1.818.483 3.608.995 5.37 1.536z" fill="#FFEF68"/><path fill-rule="evenodd" clip-rule="evenodd" d="M824.875 448.449a186.337 186.337 0 0 0-9.705 28.093h-28.06c15.525-5.747 25.293-17.215 32.387-29.406 1.815.406 3.608.843 5.378 1.313z" fill="#E6E7E8"/><path fill-rule="evenodd" clip-rule="evenodd" d="M537.905 444.341l-.537-.039-.048-13.004a219.675 219.675 0 0 1 44.513 10.146l-43.928 2.897z" fill="#FFEF68"/><path fill-rule="evenodd" clip-rule="evenodd" d="M599.504 448.513l-61.599-4.172 43.928-2.897a186.573 186.573 0 0 1 17.671 7.069z" fill="#E6E7E8"/><path fill-rule="evenodd" clip-rule="evenodd" d="M924.028 317.417c-48.478 41.316-99.439 75.511-153.821 93.681-67.275 22.489-129.017 13.955-194.405-13.246-96.366-40.09-140.74-8.427-230.227 37.295-63.868 32.638-176.627 39.803-164.008-37.463-4.471 11.886-11.146 37.248-13.575 52.445 81.18 50.852 185.954-5.784 225.212-25.371 61.221-30.541 181.77-45.881 292.026 51.812l3.785-.028c22.038-23.404 59.561-38.816 102.147-38.816 42.586 0 80.109 15.412 102.147 38.816l43.601.052c-123.066-37.964-43.319-122.347-20.047-144.047l7.165-15.13z" fill="#FFEF68"/><path fill-rule="evenodd" clip-rule="evenodd" d="M669.203 440.807a349.581 349.581 0 0 1 17.464 13.445 131.2 131.2 0 0 1 18.279-12.641 256.762 256.762 0 0 1-35.743-.804z" fill="#fff"/><path fill-rule="evenodd" clip-rule="evenodd" d="M820.767 416.109a186.925 186.925 0 0 1 25.7 5.815 77.805 77.805 0 0 1 .581-19.758 436.381 436.381 0 0 1-26.281 13.943z" fill="#FFEF68"/><path fill-rule="evenodd" clip-rule="evenodd" d="M275.047 365.846c9.757 37.948 57.323 76.764 131.72 24.335 74.397-52.428 141.906-123.313 217.254-120.678 86.077 3.005 109.237 90.317 189.648 92.072 30.469.665 62.988-11.71 97.752-38.959l12.898-5.624c-41.866 35.858-85.316 66.097-131.246 85.369-43.868-54.622-153.873-123.787-257.158-74.83-44.867 21.271-63.294 30.004-115.164 65.277-7.615 5.175-18.546 9.951-29.059 16.196a136.283 136.283 0 0 1-35.66 14.727c-35.496 9.064-71.427-3.156-89.448-27.293-16.042-21.493-15.557-49.527-.569-71.247 10.246-14.851 30.21-25.999 49.62-25.999a56.805 56.805 0 0 1 56.794 56.791c0 23.272-13.682 43.783-33.685 52.54-19.817 2.388-38.303-3.4-53.343-22.095a47.58 47.58 0 0 0 35.19 15.647 46.77 46.77 0 0 0 45.89-55.877 46.765 46.765 0 0 0-36.741-36.752 46.774 46.774 0 0 0-48.018 19.878 46.767 46.767 0 0 0-7.885 25.982 46.003 46.003 0 0 0 1.21 10.54z" fill="#fff"/><path fill-rule="evenodd" clip-rule="evenodd" d="M164.191 476.562c9.749-93.935 55.675-186.25 134.55-191.162 48.028-2.993 102.17 46.872 70.901 113.642 48.773-22.29 99.396-77.131 125.741-105.017 1.895-1.99 3.809-3.98 5.836-5.922a282.1 282.1 0 0 0-140.187-37.073c-136.198 0-250.271 96.264-279.995 225.512l83.154.02zm128.913-.012c42.507-15.674 79.795-41.658 100.108-51.792 61.44-30.648 182.63-45.992 293.2 52.863l-34.235-1.079c-33.585-35.269-90.363-58.455-154.788-58.455-64.425 0-121.206 23.186-154.78 58.455l-49.505.008z" fill="#fff"/><path fill-rule="evenodd" clip-rule="evenodd" d="M479.149 380.465c56.698-41.844 163.697-115.182 300.692 27.238 4.438-1.652 8.857-3.403 13.176-5.39-43.872-54.681-153.833-123.727-257.122-74.766-44.867 21.271-63.294 30.004-115.163 65.277-7.616 5.175-18.547 9.951-29.06 16.196a136.283 136.283 0 0 1-35.66 14.727c-35.496 9.063-71.427-3.156-89.448-27.293-16.042-21.493-15.557-49.527-.569-71.247 10.247-14.851 30.21-25.999 49.62-25.999a56.812 56.812 0 0 1 56.814 56.775c0 23.272-13.682 43.783-33.701 52.54 10.051-1.254 20.425-4.558 30.874-9.462 31.301-66.785-22.841-116.65-70.857-113.657-56.097 3.495-95.539 51.206-117.142 112.276-12.643 77.258 100.116 70.101 163.984 37.471 53.78-27.488 91.271-49.893 133.562-54.686z" fill="#CCCDD3"/><path fill-rule="evenodd" clip-rule="evenodd" d="M641.421 476.542h10.748c-33.585-35.269-90.363-58.455-154.788-58.455-64.425 0-121.198 23.186-154.772 58.455h30.986c29.06-28.395 78.186-47.063 133.913-47.063 55.727 0 104.854 18.668 133.913 47.063zm234.48 0h17.416c-22.038-23.404-59.561-38.816-102.147-38.816-42.586 0-80.109 15.412-102.147 38.816h7.365c19.366-19.902 52.335-33.037 89.758-33.037 37.423 0 70.392 13.124 89.755 33.037z" fill="#E6E7E8"/><path fill-rule="evenodd" clip-rule="evenodd" d="M465.933 433.24v43.222h22.822v-46.474c-3.137.363-17.189 2.054-22.822 3.252z" fill="#DCDDDE"/><path fill-rule="evenodd" clip-rule="evenodd" d="M743.87 334.636c-45.297-50.394-73.134-77.062-123.873-76.712-75.392.513-141.202 68.151-215.67 120.603-43.51 31.106-90.543 47.218-122.007 4.426 17.571 30.533 61.356 51.673 124.447 7.22 74.468-52.464 141.906-123.313 217.254-120.678 55.289 1.938 84.624 38.656 119.849 65.141z" fill="#fff"/><path fill-rule="evenodd" clip-rule="evenodd" d="M851.184 356.014c-12.834 4.009-25.35 5.828-37.531 5.573-28.745-.625-50.157-12.196-69.779-26.935-45.301-50.41-73.138-77.078-123.877-76.728-75.324.513-141.087 68.035-215.459 120.46 36.659-26.27 70.782-63.132 90.837-84.359C605.34 177.621 787.89 159.61 851.184 356.014z" fill="#FFEF68"/><path fill-rule="evenodd" clip-rule="evenodd" d="M493.982 379.534c56.789-36.547 139.725-65.233 231.342 20.527l6.899-.82a419.043 419.043 0 0 1 3.825 3.665l8.603-.919c1.301 1.341 2.663 2.695 4.028 4.076l11.206-1.099c1.194 1.282 2.46 2.583 3.734 3.905l16.194-1.238c-136.967-142.348-243.966-69.011-300.652-27.166 4.915-.628 9.866-.939 14.821-.931z" fill="#fff"/><path d="M417.372 297.082a107.954 107.954 0 0 0-5.904-9.875l-.633-.943 1.115.187c4.36.735 8.689 1.6 12.985 2.595a221.97 221.97 0 0 1 12.794 3.367l.797.235-.59.585a681.798 681.798 0 0 1-7.424 7.248 521.662 521.662 0 0 1-7.599 7.165l-.518.477-.258-.656a104.886 104.886 0 0 0-4.765-10.385zM124.733 442.168a353.226 353.226 0 0 1 12.245-37.017 328.332 328.332 0 0 1 13.336-29.557 282.352 282.352 0 0 0-41.838 73.106l16.257-6.532z" fill="#FFEF68"/><path d="M372.684 271.341a108.553 108.553 0 0 1 10.127 8.845 103.887 103.887 0 0 1 9.494 10.774 101.967 101.967 0 0 1 12.384 20.873 97.9 97.9 0 0 1 6.795 22.349c8.523-7.021 16.891-14.556 24.983-22.241 8.093-7.686 15.924-15.567 23.376-23.226a253.212 253.212 0 0 0-42.993-12.561 255.982 255.982 0 0 0-44.158-4.813h-.008zm9.633 9.338a107.44 107.44 0 0 0-10.911-9.429l.215-.629a256.99 256.99 0 0 1 45.357 4.844 253.973 253.973 0 0 1 43.597 12.789l.49.191-.367.398c-7.563 7.789-15.525 15.786-23.761 23.623-8.236 7.837-16.787 15.523-25.477 22.66l-.466.398-.103-.589a97.112 97.112 0 0 0-6.847-22.78 101.326 101.326 0 0 0-12.3-20.729 104.167 104.167 0 0 0-9.427-10.747z" fill="#231F20"/><path d="M412.125 286.9c2.11 3.185 4.035 6.41 5.776 9.677a112.545 112.545 0 0 1 4.928 10.527 455.8 455.8 0 0 0 7.671-7.164c2.521-2.41 4.99-4.79 7.405-7.141a239.814 239.814 0 0 0-25.78-5.914v.015zm4.853 10.17a115.938 115.938 0 0 0-6.401-10.599l-.689-1.015 1.194.203c4.729.796 9.425 1.724 14.088 2.786a229.112 229.112 0 0 1 13.877 3.618l.86.251-.629.636a700.85 700.85 0 0 1-8.053 7.782 527.892 527.892 0 0 1-8.244 7.674l-.562.509-.282-.704a111.276 111.276 0 0 0-5.159-11.141zm397.838 179.404a184.022 184.022 0 0 1 4.255-14.142 187.54 187.54 0 0 1 5.454-13.962l.641.278a188.008 188.008 0 0 0-5.434 13.931 184.776 184.776 0 0 0-4.24 14.083l-.676-.188zm-27.977-.207a54.538 54.538 0 0 0 19.327-12.207c5.266-5.095 9.482-11.002 13.025-17.088l.605.351c-3.583 6.137-7.827 12.096-13.137 17.242a55.134 55.134 0 0 1-19.569 12.339l-.251-.637zm43.725-26.154a192.712 192.712 0 0 0-4.582 13.214 185.83 185.83 0 0 0-3.543 13.338l-.681-.155a186.383 186.383 0 0 1 8.153-26.648l.653.251z" fill="#231F20"/><path d="M756.521 451.462a132.971 132.971 0 0 1 24.402 6.038 111.936 111.936 0 0 1 21.465 10.166l-.366.597a111.318 111.318 0 0 0-21.329-10.102 132.217 132.217 0 0 0-24.283-6.006l.111-.693zm-290.508 4.737a105.921 105.921 0 0 0-20.382 8.729 77.002 77.002 0 0 0-15.971 11.869l-.489-.498a77.617 77.617 0 0 1 16.114-11.98 106.509 106.509 0 0 1 20.517-8.789l.211.669zm93.683-2.313a247.738 247.738 0 0 0-26.583-3.749 212.889 212.889 0 0 0-25.545-.669l-.024-.697c8.547-.292 17.104-.07 25.624.665 8.952.77 17.856 2.026 26.671 3.762l-.143.688zm68.422 22.998a276.339 276.339 0 0 0-16.481-7.379 292.872 292.872 0 0 0-17.057-6.345l.223-.664a286.985 286.985 0 0 1 17.117 6.368 277.459 277.459 0 0 1 16.524 7.392l-.326.628zm-28.638-28.021l-62.136-4.211-.326-.02v-.33l-.048-13.004h.701l.043 12.677 61.814 4.188-.048.7z" fill="#231F20"/><path d="M493.46 429.547l70.802 6.372-.06.697-70.802-6.373.06-.696zm-4.598 5.735l48.49 3.797-.052.701-48.489-3.797.051-.701zm92.506 5.821l-44.068 2.772.044.699 44.067-2.772-.043-.699zm-92.601 28.155l142.312-2.125.008.704-142.312 2.118-.008-.697zm-109.336 1.632l86.462-1.29.008.701-86.462 1.286-.008-.697zm490.491 5.401H754.368v.701h115.554v-.701zm-45.819-8.179l42.232-.422.004.696-42.228.426-.008-.7zm-67.677.684l44.907-.453.004.7-44.907.454-.004-.701z" fill="#231F20"/><path d="M437.16 439.784l51.726-4.558.064.701-51.73 4.557-.06-.7zm31.435 5.832l-54.234 3.796.049.7 54.234-3.796-.049-.7zm-92.822 28.586l261.974-1.481v.697l-261.97 1.484-.004-.7zm113.022-8.435l136.273-3.053.012.697-136.269 3.057-.016-.701zm-106.044 2.381l83.186-1.867.012.7-83.186 1.867-.012-.7z" fill="#231F20"/><path d="M466.387 433.24h-.912v43.222h.912V433.24zm22.897-3.252h-1.055v46.474h1.055v-46.474zm18.638-.513h-.704v46.991h.704v-46.991zm0-58.212h-.704v8.804h.704v-8.804zm73.569 76.072h-.701v29.167h.701v-29.167zm-21.357-1.405h-.701v30.564h.701V445.93zm34.895 2.38h-.7v28.192h.7V448.31zm93.246 27.508c11.329-12.029 26.703-21.968 44.732-28.818 17.344-6.591 37.152-10.349 58.179-10.349 21.026 0 40.835 3.738 58.179 10.349 18.029 6.85 33.402 16.789 44.732 28.818l-1.529 1.441c-11.114-11.802-26.217-21.558-43.944-28.292-17.117-6.5-36.662-10.186-57.438-10.186-20.776 0-40.329 3.686-57.439 10.186-17.726 6.734-32.829 16.49-43.943 28.292l-1.529-1.441zm-321.988-50.98c-24.128 9.25-49.661 14.118-72.204 11.304-19.422-2.424-36.623-10.548-48.832-26.477-9.637-12.482-13.558-28.308-12.4-44.36 1.194-16.495 7.743-33.224 18.957-46.801a78.092 78.092 0 0 1 40.603-25.983c16.206-4.263 33.276-3.284 47.997 2.674l-.263.653c-14.578-5.903-31.492-6.878-47.558-2.651a77.4 77.4 0 0 0-40.25 25.753c-11.102 13.461-17.607 30.055-18.785 46.402-1.151 15.89 2.727 31.548 12.257 43.887 12.069 15.762 29.115 23.802 48.358 26.206 22.428 2.787 47.841-2.053 71.869-11.26l.251.653z" fill="#231F20"/><path d="M353.922 431.25c-23.988 8.128-48.708 11.969-70.28 8.968-18.897-2.627-35.377-10.5-46.842-25.319-10.322-13.219-14.243-30.489-12.567-48.054 1.719-18.027 9.343-36.364 21.986-50.948a83.99 83.99 0 0 1 76.518-28.121l-.112.693a83.335 83.335 0 0 0-75.877 27.91c-12.547 14.464-20.111 32.662-21.819 50.549-1.66 17.39 2.218 34.486 12.424 47.557 11.342 14.664 27.663 22.453 46.384 25.076 21.461 2.985 46.07-.844 69.958-8.94l.227.629z" fill="#231F20"/><path d="M343.7 436.468c-23.885 7.364-48.064 10.556-68.971 7.471-18.523-2.73-34.486-10.38-45.425-24.403-10.931-13.875-14.852-32.435-12.71-51.346 2.193-19.384 10.748-39.138 24.68-54.594a87.298 87.298 0 0 1 20.071-16.717 89.705 89.705 0 0 1 24.339-10.182l.175.677a88.96 88.96 0 0 0-24.151 10.106 86.318 86.318 0 0 0-19.904 16.582c-13.809 15.344-22.292 34.959-24.49 54.204-2.122 18.731 1.756 37.108 12.563 50.832 10.82 13.864 26.624 21.434 44.983 24.137 20.8 3.069 44.871-.108 68.668-7.443l.172.676z" fill="#231F20"/><path d="M332.151 441.706c-23.299 6.369-46.431 8.733-66.295 5.481-17.786-2.909-32.957-10.349-43.291-23.484-11.477-14.464-15.394-34.186-12.834-54.307 2.623-20.594 12.034-41.618 27.069-57.861a77.826 77.826 0 0 1 2.11-2.233 91.661 91.661 0 0 1 2.173-2.142l.482.506a80.964 80.964 0 0 0-2.154 2.129 80.31 80.31 0 0 0-2.093 2.209c-14.94 16.132-24.283 37.017-26.895 57.476-2.535 19.945 1.338 39.476 12.691 53.79 10.215 12.995 25.234 20.343 42.849 23.225 19.761 3.24 42.793.859 66.001-5.465l.187.676z" fill="#231F20"/><path d="M316.993 447.343c-21.751 4.776-42.873 6.034-60.906 2.483-16.321-3.216-30.146-10.349-39.633-22.337-9.581-12.009-14-27.707-13.881-44.373.132-17.41 5.219-35.878 14.562-52.297l.613.342c-9.283 16.32-14.331 34.669-14.47 51.959-.119 16.511 4.251 32.058 13.73 43.931 9.37 11.837 23.04 18.894 39.218 22.079 17.942 3.534 38.964 2.3 60.627-2.476l.14.689z" fill="#231F20"/><path d="M296.567 453.086c-18.809 2.663-36.623 2.424-51.797-1.489-13.933-3.582-25.665-10.273-33.929-20.641-7.858-9.804-12.312-22.095-13.693-35.425-1.453-14.027.497-29.208 5.457-43.851l.665.227c-4.924 14.544-6.859 29.625-5.426 43.548 1.37 13.207 5.776 25.371 13.535 35.063 8.164 10.245 19.76 16.852 33.55 20.403 15.087 3.889 32.805 4.123 51.531 1.473l.107.692z" fill="#231F20"/><path d="M270.589 457.592c-14.283.29-27.491-1.425-38.809-5.509-10.565-3.813-19.505-9.692-26.094-17.911-6.548-8.132-10.772-17.991-12.865-28.778-2.198-11.332-2.043-23.683.258-36.105l.689.123c-2.285 12.339-2.44 24.606-.259 35.851 2.07 10.675 6.25 20.431 12.739 28.467 6.524 8.14 15.338 13.931 25.787 17.716 11.23 4.052 24.354 5.752 38.554 5.469v.677z" fill="#231F20"/><path d="M241.446 458.531c-8.714-1.504-16.684-4.036-23.638-7.702a53.437 53.437 0 0 1-16.915-13.7c-5.485-6.79-9.37-14.799-11.759-23.555-2.5-9.155-3.359-19.177-2.703-29.455l.701.044c-.657 10.218.199 20.141 2.675 29.239 2.365 8.666 6.206 16.586 11.636 23.301a52.706 52.706 0 0 0 16.691 13.533c6.887 3.63 14.785 6.142 23.431 7.634l-.119.661z" fill="#231F20"/><path d="M212.601 453.014a56.304 56.304 0 0 1-8.937-5.91 49.207 49.207 0 0 1-7.237-7.221 63.024 63.024 0 0 1-10.525-19.324 83.975 83.975 0 0 1-4.291-23.854l.7-.028a83.315 83.315 0 0 0 4.24 23.643 62.287 62.287 0 0 0 10.417 19.106 48.455 48.455 0 0 0 7.138 7.116 55.48 55.48 0 0 0 8.829 5.84l-.334.632z" fill="#231F20"/><path d="M822.495 415.85c3.818.621 7.628 1.362 11.428 2.221 4.008.908 7.988 1.949 11.943 3.125a74.465 74.465 0 0 1-.271-9.011c.091-3.02.348-6.033.772-9.024a463.012 463.012 0 0 1-12.105 6.675 397.734 397.734 0 0 1-11.771 6.014h.004zm11.198 3.244a191.718 191.718 0 0 0-13.002-2.464l-.151-.995a413.199 413.199 0 0 0 13.232-6.726 437.036 437.036 0 0 0 13.013-7.197l.948-.545-.164 1.079a80.845 80.845 0 0 0-.923 9.97 74.138 74.138 0 0 0 .342 9.657l.084.796-.757-.231a179.327 179.327 0 0 0-12.622-3.344z" fill="#4A3E37"/><path d="M671.046 441.5a322.608 322.608 0 0 1 7.277 5.449 382.877 382.877 0 0 1 8.36 6.623 121.45 121.45 0 0 1 8.471-6.369 133.104 133.104 0 0 1 7.719-4.955c-5.292.207-10.572.249-15.84.127a260.3 260.3 0 0 1-15.971-.856l-.016-.019zm6.636 6.28a336.435 336.435 0 0 0-8.785-6.543l.354-.947c5.915.53 11.844.869 17.786 1.014 5.942.146 11.904.073 17.886-.218l.286.979c-3.24 1.857-6.4 3.847-9.478 5.97a127.328 127.328 0 0 0-8.73 6.607l-.33.279-.339-.279a378.247 378.247 0 0 0-8.65-6.858v-.004zm-553.359-6.117a333.257 333.257 0 0 1 11.218-34.478 307.885 307.885 0 0 1 12.217-27.54 264.266 264.266 0 0 0-38.327 68.123l14.892-6.086v-.019zm12.217-34.12a331.773 331.773 0 0 0-11.249 34.629l-.068.251-.243.103-16.249 6.639-1.115.454.426-1.122a265.157 265.157 0 0 1 42.248-73.743l.872.577a304.256 304.256 0 0 0-14.622 32.212zm321.089-75.128c26.273-21.334 55.162-44.623 85.909-62.132 30.748-17.51 63.382-29.256 97.012-27.441 28.697 1.847 53.497 13.486 74.412 30.724 25.007 20.614 44.461 49.229 58.366 78.667l-.633.299c-13.869-29.355-33.259-57.886-58.179-78.412-20.807-17.147-45.476-28.726-74.01-30.561-33.475-1.803-65.962 9.887-96.629 27.349-30.668 17.461-59.573 40.75-85.802 62.049l-.446-.542z" fill="#231F20"/><path d="M484.814 304.7c23.391-18.651 49.087-37.538 76.474-51.803 27.388-14.266 56.527-23.93 86.745-24.093 34.896.267 67.08 12.773 94.392 35.381 27.539 22.795 50.146 55.832 65.568 96.96l-.657.247c-15.394-40.997-37.913-73.954-65.352-96.666-27.193-22.504-59.222-34.955-93.947-35.222-30.086.164-59.094 9.78-86.418 24.014-27.324 14.233-53.008 33.104-76.363 51.732l-.442-.55z" fill="#231F20"/><path d="M499.833 288.914c22.022-17.059 46.114-33.804 71.778-46.569 25.664-12.765 52.944-21.542 81.279-22.656 37.359-1.107 73.931 10.11 105.283 35.488 28.507 23.086 52.694 57.858 69.234 105.737l-.661.231c-16.492-47.764-40.604-82.428-69.015-105.426-31.209-25.259-67.617-36.404-104.813-35.326-28.236 1.107-55.401 9.856-81.001 22.585-25.6 12.729-49.664 29.454-71.654 46.494l-.43-.558z" fill="#231F20"/><path d="M516.246 273.407c20.481-15.085 42.654-29.414 66.141-40.34 23.486-10.926 48.326-18.528 74.11-20.121 38.573-2.217 78.17 7.32 112.424 34.386 29.271 23.13 54.632 59.056 72.108 111.385l-.665.223c-17.428-52.194-42.705-88.013-71.876-111.051-34.104-26.946-73.537-36.439-111.952-34.23-25.684 1.592-50.428 9.155-73.855 20.069-23.427 10.914-45.572 25.207-66.021 40.268l-.414-.589zm-31.349 106.099c29.267-20.916 69.047-44.842 116.518-47.954 47.47-3.113 102.516 14.575 162.391 76.819l15.923-1.289.076.983-16.166 1.301h-.227l-.163-.167c-59.684-62.116-114.551-79.761-161.755-76.668-47.204 3.092-86.852 26.934-116.015 47.763l-.582-.788z" fill="#231F20"/><path d="M488.767 379.279c29.294-20.164 67.406-40.762 111.68-42.712 44.274-1.951 94.603 14.703 148.419 68.982l11.047-1.074.096.975-11.282 1.098-.231.024-.163-.167c-53.649-54.18-103.811-70.806-147.842-68.859-44.031 1.946-82.004 22.457-111.167 42.541l-.557-.808z" fill="#231F20"/><path d="M491.557 379.172c28.952-19.241 65.444-37.415 107.083-38.788 41.639-1.373 88.242 14.07 137.583 62.025l8.436-.904.099.976-8.658.927-.227.024-.163-.159c-49.183-47.852-95.67-63.247-137.058-61.894-41.388 1.353-77.721 19.464-106.553 38.609l-.542-.816z" fill="#231F20"/><path d="M493.695 379.092c28.462-18.309 63.481-34.664 102.883-35.683 39.402-1.019 83.063 13.246 128.925 56.122l6.652-.796.123 1.047-6.89.828-.239.028-.183-.167c-45.695-42.773-89.205-57.006-128.364-55.991-39.159 1.015-74.007 17.286-102.338 35.52l-.569-.908zm291.902-22.082c7.858-10.747 16.393-18.131 25.64-18.931 9.247-.8 19.191 4.972 29.816 20.523l-.581.398c-10.454-15.309-20.167-21-29.171-20.22-9.005.78-17.392 8.048-25.139 18.647l-.565-.417z" fill="#231F20"/><path d="M743.683 334.457c8.941-9.979 18.479-17.569 28.224-22.103 8.594-4.004 17.356-5.628 26.006-4.43 8.651 1.198 17.189 5.227 25.346 12.53 8.921 7.993 17.392 19.902 25.047 36.36l-.637.295c-7.615-16.359-16.023-28.204-24.876-36.133-8.045-7.205-16.46-11.177-24.975-12.339-8.515-1.162-17.141.426-25.616 4.378-9.658 4.494-19.108 12.025-27.997 21.932l-.522-.49z" fill="#231F20"/><path d="M716.857 305.783c9.988-8.713 20.497-15.165 31.118-19.169 13.674-5.151 27.535-6.253 40.727-2.918 13.192 3.336 25.704 11.101 36.679 23.683 9.092 10.417 17.117 24.137 23.629 41.371l-.656.243c-6.465-17.151-14.463-30.799-23.487-41.152-10.879-12.47-23.271-20.164-36.324-23.464-13.053-3.3-26.771-2.209-40.31 2.894-10.541 3.98-20.978 10.38-30.902 19.041l-.474-.529z" fill="#231F20"/><path d="M692.208 283.242c21.894-16.892 45.819-24.785 68.509-23.563 22.471 1.194 43.733 11.344 60.619 30.517l-.525.466c-16.759-19.026-37.845-29.088-60.11-30.286-22.527-1.194-46.284 6.635-68.047 23.42l-.446-.554zm-26.174-16.215c20.227-15.551 42.145-24.228 63.585-26.465 22.141-2.289 43.789 2.324 62.626 13.433l-.355.601c-18.709-11.029-40.205-15.61-62.199-13.338-21.329 2.205-43.112 10.855-63.227 26.322l-.43-.553zm-30.846-8.367c17.945-15.559 37.419-25.872 57.084-31.381 20.787-5.811 41.77-6.225 61.304-1.719l-.156.685c-19.442-4.482-40.301-4.072-60.977 1.711-19.558 5.469-38.948 15.742-56.814 31.233l-.441-.529zm-35.322.673c13.965-14.91 29.147-26.449 44.883-34.864a148.474 148.474 0 0 1 51.273-16.562l.083.693a147.823 147.823 0 0 0-51.029 16.486c-15.665 8.359-30.784 19.87-44.7 34.724l-.51-.477zm-38.39 11.451a212.5 212.5 0 0 1 27.865-32.025 181.462 181.462 0 0 1 32.272-24.153l.354.609a180.309 180.309 0 0 0-32.148 24.057 211.575 211.575 0 0 0-27.79 31.918l-.553-.406zm-36.751 19.468a265.676 265.676 0 0 1 15.008-24.825 233.84 233.84 0 0 1 16.997-22.003l.53.461a232.764 232.764 0 0 0-16.95 21.936 264.77 264.77 0 0 0-14.968 24.761l-.617-.33zm-31.667 21.286a326.275 326.275 0 0 1 6.672-15.176c2.341-4.984 4.761-9.8 7.261-14.449l.617.33a300.306 300.306 0 0 0-7.245 14.413 334.136 334.136 0 0 0-6.66 15.145l-.645-.263zM466.1 331.93c.672-2.07 1.347-4.096 2.027-6.078a356.754 356.754 0 0 1 2.105-5.971l.661.239a359.855 359.855 0 0 0-2.102 5.971 415.15 415.15 0 0 0-2.026 6.065l-.665-.226zm373.377 74.475l2.73 14.082-.688.132-2.731-14.079.689-.135zM686.372 453.93l1.027-6.349.032-.207.199-.071 16.309-5.664.227.66-16.114 5.597-.991 6.145-.689-.111z" fill="#231F20"/><path d="M670.304 440.717l-.244.653 17.493 6.543.244-.653-17.493-6.543zm254.369-122.73l-7.05 14.922-.187.259c-11.572 10.782-37.181 37.148-44.585 65.472-7.368 28.128 3.34 58.287 64.146 77.09l-.493 1.592c-62.005-19.173-72.848-50.152-65.285-79.12 7.504-28.658 33.22-55.215 44.959-66.173l6.962-14.755 1.533.713z" fill="#231F20"/><path d="M276.074 365.583a67.015 67.015 0 0 0 10.115 21.756c6.891 9.776 16.668 18.135 29.06 22.927 12.392 4.792 27.491 6.03 44.963 1.548 13.845-3.554 29.199-10.699 45.942-22.492 17.117-12.057 33.904-25.128 50.508-38.052 55.571-43.254 109.017-84.856 167.383-82.818 43.972 1.536 71.57 24.809 98.64 47.632 26.098 22.003 51.698 43.584 90.984 44.444 15.091.327 30.708-2.575 46.862-8.944 16.154-6.368 32.925-16.239 50.225-29.796l.215-.131 13.061-5.836.856 1.915-12.942 5.783c-17.432 13.649-34.306 23.584-50.651 30.024-16.413 6.468-32.292 9.417-47.666 9.083-40.042-.876-65.921-22.688-92.298-44.938-26.794-22.592-54.114-45.63-97.345-47.139-57.602-2.01-110.757 39.362-166.03 82.393-16.592 12.916-33.379 25.983-50.588 38.107-16.954 11.941-32.547 19.189-46.635 22.807-17.933 4.602-33.438 3.324-46.236-1.624-12.798-4.947-22.918-13.584-30.031-23.679a68.949 68.949 0 0 1-10.426-22.448l2.034-.522z" fill="#231F20"/><path d="M403.925 377.97c16.882-11.897 33.311-24.563 49.505-37.049 55.364-42.693 108.026-83.296 166.567-83.698 25.525-.175 45.289 6.448 64.373 19.452 19.084 13.004 37.344 32.264 60.034 57.496l-1.039.939c-22.627-25.164-40.883-44.4-59.783-57.285-18.901-12.884-38.371-19.38-63.581-19.209-58.06.398-110.538 40.866-165.716 83.412-16.221 12.502-32.674 25.191-49.552 37.084l-.808-1.142zm-235.379 71.267c77.358 48.457 176.539-1.445 219.038-22.831l5.175-2.591c35.182-17.549 89.861-30.107 150.93-19.269 45.676 8.104 94.926 29.295 142.277 71.248l-1.393 1.572c-47.017-41.674-95.913-62.71-141.246-70.754-60.567-10.747-114.769 1.692-149.629 19.082-1.99.995-3.547 1.771-5.151 2.583-42.817 21.541-142.735 71.813-221.096 22.727l1.095-1.767z" fill="#231F20"/><path d="M292.861 475.889c29.458-10.866 56.448-26.708 76.972-38.76 9.061-5.322 16.871-9.907 23.065-12.996l.625 1.254c-6.21 3.097-13.973 7.658-22.981 12.948-20.577 12.084-47.622 27.97-77.199 38.872l-.482-1.318z" fill="#231F20"/><path d="M182.61 397.851c-1.545 9.446-1.194 17.597.744 24.563 3.822 13.776 13.849 22.974 27.503 28.455 13.802 5.549 31.305 7.312 49.895 6.177 28.777-1.751 60.11-10.448 84.345-22.835 7.301-3.729 14.979-7.721 22.372-11.566 75.491-39.258 120.295-62.555 208.739-25.765 32.595 13.561 64.274 22.465 96.18 25.18 31.906 2.714 63.999-.765 97.485-11.941 27.105-9.059 53.366-22.119 78.919-38.088 25.552-15.969 50.412-34.899 74.663-55.621l1.369 1.593c-24.338 20.793-49.266 39.755-74.922 55.795-25.656 16.041-52.08 29.176-79.36 38.291-33.785 11.292-66.177 14.799-98.325 12.064-32.149-2.734-64.019-11.694-96.813-25.334-87.533-36.416-132.014-13.283-206.96 25.689a3291.08 3291.08 0 0 1-22.388 11.57c-24.489 12.51-56.129 21.295-85.188 23.062-18.877 1.154-36.691-.657-50.799-6.321-14.255-5.727-24.728-15.368-28.745-29.852-1.99-7.252-2.388-15.702-.796-25.474l2.082.358z" fill="#231F20"/><path d="M792.293 402.707c-24.972-31.098-71.523-66.924-126.064-82.762-40.759-11.833-85.984-12.49-129.972 8.359-22.427 10.631-38.243 18.13-54.906 27.36-16.664 9.231-34.235 20.232-60.15 37.853-4.279 2.909-9.554 5.676-15.242 8.641-4.494 2.353-9.228 4.828-13.853 7.563a132.861 132.861 0 0 1-17.289 8.625 138.962 138.962 0 0 1-18.594 6.181c-17.611 4.498-35.333 3.798-50.954-.971-16.17-4.935-30.106-14.229-39.366-26.636a59.976 59.976 0 0 1-12.085-35.608c-.1-12.737 3.821-25.498 11.5-36.619 5.287-7.666 13.137-14.356 22.129-19.073 8.702-4.562 18.511-7.288 28.18-7.288a57.655 57.655 0 0 1 40.761 16.89 57.641 57.641 0 0 1 16.881 40.761 59.092 59.092 0 0 1-9.323 31.938 56.693 56.693 0 0 1-24.9 21.406l-.673-1.537a55.074 55.074 0 0 0 24.16-20.777 57.444 57.444 0 0 0 9.052-31.046 55.96 55.96 0 0 0-16.399-39.558 55.971 55.971 0 0 0-39.567-16.385c-9.402 0-18.936 2.65-27.399 7.088-8.758 4.594-16.393 11.098-21.528 18.545-7.48 10.846-11.302 23.277-11.202 35.659a58.287 58.287 0 0 0 11.755 34.629c9.048 12.124 22.69 21.207 38.502 26.039 15.342 4.681 32.754 5.362 50.062.943a136.87 136.87 0 0 0 18.383-6.113 131.855 131.855 0 0 0 17.074-8.51c4.681-2.786 9.426-5.274 13.933-7.627 5.632-2.945 10.883-5.691 15.083-8.549 25.97-17.657 43.561-28.658 60.272-37.929 16.712-9.27 32.563-16.773 55.003-27.412 44.413-21.052 90.041-20.391 131.158-8.454 54.903 15.941 101.765 52.015 126.907 83.32l-1.329 1.054z" fill="#231F20"/><path d="M368.639 398.504c7.217-15.368 9.845-29.824 9.029-42.916a70.77 70.77 0 0 0-13.766-37.812 78.26 78.26 0 0 0-29.728-24.26c-11.222-5.27-23.487-7.818-35.381-7.077-36.269 2.268-65.52 23.229-87.442 54.367-25.369 36.049-40.91 85.715-46.113 135.855l-2.09-.215c5.239-50.47 20.899-100.498 46.483-136.846 22.269-31.644 52.057-52.938 89.038-55.251 12.233-.76 24.856 1.855 36.392 7.272a80.46 80.46 0 0 1 30.537 24.921 72.827 72.827 0 0 1 14.167 38.923c.836 13.418-1.851 28.216-9.227 43.927l-1.899-.888z" fill="#231F20"/><path d="M170.524 452.417c-.215 1.027-.74 4.948-1.29 9.362-.736 5.907-1.524 12.661-1.699 14.592l-.697-.064c.183-1.99.967-8.756 1.7-14.615.549-4.419 1.079-8.359 1.302-9.418l.684.143zM283.395 382.4c31.368 42.912 79.118 25.406 122.89-6.591 33.837-24.722 65.285-58.093 85.189-79.169l3.149-3.335c34.318-36.328 75.686-63.108 118.32-76.82 31.249-10.066 63.179-13.135 93.508-7.802 30.33 5.334 59.115 19.05 83.994 42.542 25.497 24.077 46.898 58.419 61.746 104.503l-1.99.641c-14.729-45.726-35.935-79.77-61.185-103.616-24.549-23.189-52.944-36.734-82.903-41.996-29.959-5.262-61.579-2.237-92.505 7.726-42.296 13.625-83.358 40.201-117.433 76.275l-3.149 3.339c-19.927 21.131-51.487 54.594-85.463 79.423-44.668 32.639-93.48 50.387-125.828 6.142l1.66-1.262z" fill="#231F20"/><path d="M80.209 476.351a293.867 293.867 0 0 1 101.875-162.918c49.171-39.588 111.338-63.247 178.94-63.247a283.41 283.41 0 0 1 140.684 37.192l-.828 1.461a281.783 281.783 0 0 0-139.856-36.969c-67.203 0-129.009 23.507-177.885 62.889a292.152 292.152 0 0 0-101.29 161.998l-1.64-.406zm261.89-.306c17.177-18.035 40.389-32.922 67.57-43.187 26.173-9.883 56.033-15.483 87.728-15.483 31.695 0 61.555 5.6 87.728 15.483 27.181 10.265 50.393 25.152 67.57 43.187l-1.015.967c-17.034-17.888-40.063-32.639-67.048-42.84-26.019-9.828-55.707-15.396-87.235-15.396s-61.216 5.572-87.235 15.396c-26.981 10.185-50.014 24.952-67.048 42.84l-1.015-.967z" fill="#231F20"/><path d="M349.277 476.248c16.592-17.235 39.011-31.445 65.284-41.276 25.298-9.449 54.139-14.807 84.791-14.807 30.652 0 59.492 5.358 84.79 14.807 26.273 9.815 48.685 24.041 65.285 41.276l-.605.585c-16.505-17.151-38.825-31.305-64.967-41.073-25.202-9.414-53.959-14.751-84.495-14.751-30.537 0-59.314 5.337-84.5 14.751-26.142 9.768-48.458 23.922-64.966 41.073l-.617-.585z" fill="#231F20"/><path d="M359.921 476.244c15.816-16.153 37.193-29.483 62.228-38.677 24.111-8.856 51.618-13.875 80.809-13.875 29.191 0 56.706 5.019 80.81 13.875 25.031 9.194 46.408 22.524 62.223 38.677l-.601.589c-15.728-16.061-36.997-29.327-61.913-38.478-24.02-8.82-51.431-13.816-80.531-13.816-29.099 0-56.527 4.996-80.531 13.816-24.919 9.155-46.177 22.417-61.917 38.478l-.577-.589z" fill="#231F20"/><path d="M373.229 476.164c14.852-14.512 34.923-26.493 58.426-34.748 22.63-7.961 48.45-12.463 75.853-12.463 27.404 0 53.223 4.502 75.858 12.463 23.486 8.255 43.573 20.236 58.422 34.748l-.733.752c-14.729-14.405-34.68-26.302-58.036-34.513-22.519-7.913-48.219-12.399-75.511-12.399-27.292 0-52.988 4.486-75.511 12.399-23.355 8.211-43.291 20.108-58.036 34.513l-.732-.752zm318.963.084c10.68-11.066 25.182-20.208 42.196-26.509 16.377-6.074 35.083-9.513 54.935-9.513 19.852 0 38.57 3.439 54.935 9.513 17.005 6.301 31.507 15.443 42.196 26.509l-.609.585c-10.593-10.978-24.984-20.045-41.87-26.306-16.289-6.038-34.896-9.461-54.66-9.461-19.765 0-38.371 3.423-54.66 9.461-16.886 6.261-31.277 15.328-41.87 26.306l-.593-.585z" fill="#231F20"/><path d="M696.01 476.172c9.916-10.194 23.375-18.616 39.155-24.419 15.198-5.573 32.55-8.757 50.981-8.757 18.431 0 35.783 3.184 50.978 8.757 15.784 5.803 29.239 14.225 39.155 24.419l-.753.732c-9.808-10.082-23.128-18.413-38.764-24.164-15.079-5.549-32.312-8.697-50.616-8.697-18.303 0-35.536 3.148-50.619 8.697-15.633 5.751-28.956 14.082-38.761 24.164l-.756-.732zm-375.403-73.051a47.822 47.822 0 0 1-46.902-38.488 47.815 47.815 0 0 1 28.604-53.503 47.824 47.824 0 0 1 58.061 17.613 47.806 47.806 0 0 1-5.95 60.376 47.674 47.674 0 0 1-33.813 14.002zm-32.328-15.491a45.726 45.726 0 0 0 76.089-19.047 45.72 45.72 0 0 0-52.67-58.116 45.724 45.724 0 0 0-36.806 44.839 45.578 45.578 0 0 0 3.467 17.498 45.578 45.578 0 0 0 9.92 14.826zm190.464-7.726c28.411-20.972 69.429-49.833 120.566-55.617 51.137-5.783 112.357 11.543 181.037 82.93l-1.007.971c-68.314-71.02-129.108-88.247-179.875-82.507-50.767 5.739-91.609 34.473-119.885 55.326l-.836-1.103z" fill="#231F20"/><path fill-rule="evenodd" clip-rule="evenodd" d="M793.582 376.792c.697.863 3.77 4.119 4.626 5.059a255.214 255.214 0 0 0 5.677-3.662c-2.206-.251-8.129-1.035-10.303-1.397zm-216.291-81.019a191.038 191.038 0 0 1 12.659-1.748l.083-2.424a150.793 150.793 0 0 0-12.738 4.172h-.004zm15.477-2.022c1.067-.096 2.138-.184 3.205-.259l.071-3.399c-1.09.246-2.181.512-3.272.796v2.858l-.004.004zm5.418-.398c.863-.051 1.729-.097 2.6-.14l.183-4.107c-.889.159-1.774.33-2.655.513l-.128 3.734zm4.821-.235c.736-.028 1.473-.048 2.209-.068l.649-4.725c-.868.12-1.734.252-2.599.398l-.259 4.407v-.012zm4.594-.116h2.615l1.095-5.266c-.605.052-1.214.108-1.816.171l-1.194.128-.696 4.983-.004-.016zm5.449 0c.856 0 1.708.028 2.56.048l1.716-5.668c-1.023.028-2.042.072-3.066.127l-1.194 5.493h-.016zm5.625.152c1.173.05 2.346.11 3.519.179l1.035-5.927a97.433 97.433 0 0 0-2.758-.056l-1.796 5.804zm6.672.398c1.141.082 2.284.175 3.427.278l.398-6.05a109.938 109.938 0 0 0-3.184-.239l-.645 6.011h.004zm6.441.577c1.11.115 2.217.238 3.328.374v-6.002a99.648 99.648 0 0 0-3.288-.442l-.052 6.07h.012zm6.321.756c1.139.154 2.277.317 3.416.49l-.191-5.724a82.514 82.514 0 0 0-3.34-.669l.115 5.903zm6.501.979c1.115.183 2.225.398 3.34.581l-.398-5.226c-1.051-.302-2.11-.589-3.185-.86l.255 5.505h-.012zm6.369 1.15c1.011.199 2.021.404 3.03.613l-.621-4.525c-.972-.343-1.951-.677-2.942-.995l.533 4.907zm6.023 1.262c1.205.265 2.41.545 3.615.84l-.454-3.328a97.93 97.93 0 0 0-3.866-1.592l.705 4.084v-.004zm6.632 1.592c3.216.82 6.428 1.709 9.634 2.667a124.387 124.387 0 0 0-10.1-5.373l.466 2.706z" fill="#231F20"/><path d="M435.771 249h-.932v3.017h.932V249zm0-13.824h-.932v3.017h.932v-3.017zm0-13.823h-.932v3.017h.932v-3.017zm0 34.557h-.932v3.017h.932v-3.017zm0-13.82h-.932v3.017h.932v-3.017zm0-13.827h-.932v3.017h.932v-3.017zm205.439-32.452h-.931v3.232h.931v-3.232zm0-14.807h-.931v3.232h.931v-3.232zm0-14.802h-.931v3.232h.931v-3.232zm0 37.008h-.931v3.233h.931v-3.233zm0-14.802h-.931v3.232h.931v-3.232zm0-14.807h-.931v3.232h.931v-3.232zm-162.272 90.381h-.931v3.009h.931v-3.009zm0-13.78h-.931v3.009h.931v-3.009zm0-13.784h-.931v3.009h.931v-3.009zm0-13.78h-.931v3.01h.931v-3.01zm0-13.779h-.931v3.009h.931v-3.009zm0-13.78h-.931v3.009h.931v-3.009zm0 75.793h-.931v3.009h.931v-3.009zm0-13.78h-.931v3.009h.931v-3.009zm0-13.78h-.931v3.009h.931v-3.009zm0-13.784h-.931v3.009h.931v-3.009zm0-13.78h-.931v3.01h.931v-3.01zm0-13.779h-.931v3.009h.931v-3.009zM351.637 387.881h-.931v2.941h.931v-2.941zm0-13.47h-.931v2.942h.931v-2.942zm0-13.473h-.931v2.941h.931v-2.941zm0-13.469h-.931v2.941h.931v-2.941zm0-13.466h-.931v2.942h.931v-2.942zm0-13.473h-.931v2.941h.931v-2.941zm0 60.616h-.931v2.942h.931v-2.942zm0-13.473h-.931v2.941h.931v-2.941zm0-13.466h-.931v2.942h.931v-2.942zm0-13.473h-.931v2.942h.931v-2.942zm0-13.469h-.931v2.941h.931v-2.941zm-17.073 62.721h-.932v2.93h.932v-2.93zm0-13.413h-.932v2.929h.932v-2.929zm0-13.418h-.932v2.93h.932v-2.93zm0-13.414h-.932v2.93h.932v-2.93zm0-13.413h-.932v2.929h.932v-2.929zm0 60.365h-.932v2.93h.932v-2.93zm0-13.413h-.932v2.929h.932v-2.929zm0-13.418h-.932v2.929h.932v-2.929zm0-13.414h-.932v2.93h.932v-2.93zm0-13.413h-.932v2.929h.932v-2.929zm0-13.414h-.932v2.93h.932v-2.93zm-45.246 50.216h-.931v2.853h.931v-2.853zm0-13.08h-.931v2.858h.931v-2.858zm0-13.079h-.931v2.854h.931v-2.854zm0-13.083h-.931v2.858h.931v-2.858zm0-13.079h-.931v2.853h.931v-2.853zm0 58.86h-.931v2.854h.931v-2.854zm0-13.079h-.931v2.854h.931v-2.854zm0-13.083h-.931v2.858h.931v-2.858zm0-13.08h-.931v2.854h.931v-2.854zm0-13.079h-.931v2.854h.931v-2.854zm0-13.079h-.931v2.858h.931v-2.858zm17.934 67.661h-.932v2.89h.932v-2.89zm0-13.239h-.932v2.89h.932v-2.89zm0-13.234h-.932v2.89h.932v-2.89zm0-13.238h-.932v2.889h.932v-2.889zm0 46.33h-.932v2.89h.932v-2.89zm0-13.234h-.932v2.889h.932v-2.889zm0-13.239h-.932v2.89h.932v-2.89zm0-13.238h-.932v2.89h.932v-2.89zm0-13.235h-.932v2.89h.932v-2.89zm375.295-147.717h-.932v3.009h.932v-3.009zm0-13.78h-.932v3.009h.932v-3.009zm0-13.779h-.932v3.009h.932v-3.009zm0-13.784h-.932v3.009h.932v-3.009zm0-13.78h-.932v3.009h.932v-3.009zm0-13.78h-.932v3.009h.932v-3.009zm0-13.784h-.932v3.009h.932v-3.009zm0 89.577h-.932v3.009h.932v-3.009zm0-13.78h-.932v3.009h.932v-3.009zm0-13.784h-.932v3.01h.932v-3.01zm0-13.779h-.932v3.009h.932v-3.009zm0-13.78h-.932v3.009h.932v-3.009zm0-13.78h-.932v3.009h.932v-3.009zm0-13.78h-.932v3.009h.932V118.8zm0 294.782h-.932v2.905h.932v-2.905zm0-13.303h-.932v2.906h.932v-2.906zm0-13.302h-.932v2.906h.932v-2.906zm0-13.298h-.932v2.906h.932v-2.906zm0 46.554h-.932v2.901h.932v-2.901zm0-13.302h-.932v2.905h.932v-2.905zm0-13.303h-.932v2.906h.932v-2.906zm0-13.298h-.932v2.906h.932v-2.906zm0-13.302h-.932v2.906h.932v-2.906zM542.897 238.81h-.931v3.049h.931v-3.049zm0-13.959h-.931v3.049h.931v-3.049zm0-13.958h-.931v3.048h.931v-3.048zm0-13.955h-.931v3.048h.931v-3.048zm0-13.959h-.931v3.049h.931v-3.049zm0-13.955h-.931v3.049h.931v-3.049zm0-13.959h-.931v3.049h.931v-3.049zm0 90.723h-.931v3.049h.931v-3.049zm0-13.959h-.931v3.049h.931v-3.049zm0-13.955h-.931v3.049h.931v-3.049zm0-13.959h-.931v3.049h.931v-3.049zm0-13.959h-.931v3.049h.931v-3.049zm0-13.955h-.931v3.049h.931v-3.049zm0-13.959h-.931v3.049h.931v-3.049zm0 213.321h-.931v2.893h.931v-2.893zm0-13.255h-.931v2.898h.931v-2.898zm0 19.886h-.931v2.894h.931v-2.894zm0-13.258h-.931v2.893h.931v-2.893zm0-13.259h-.931v2.898h.931v-2.898zm48.824-136.584h-.931v2.921h.931v-2.921zm0-13.39h-.931v2.926h.931v-2.926zm0-13.386h-.931v2.926h.931v-2.926zm0-13.389h-.931v2.921h.931v-2.921zm0-13.386h-.931v2.921h.931v-2.921zm0-13.39h-.931v2.922h.931v-2.922zm0-13.39h-.931v2.922h.931v-2.922zm0-13.385h-.931v2.921h.931v-2.921zm0 87.021h-.931v2.922h.931v-2.922zm0-13.386h-.931v2.922h.931v-2.922zm0-13.39h-.931v2.922h.931v-2.922zm0-13.385h-.931v2.921h.931v-2.921zm0-13.39h-.931v2.925h.931v-2.925zm0-26.779h-.931v2.925h.931v-2.925zm0 13.389h-.931v2.922h.931v-2.922zm0 253.57h-.931v2.865h.931v-2.865zm0-13.128h-.931v2.866h.931v-2.866zm0-13.122h-.931v2.865h.931v-2.865zm0-13.124h-.931v2.866h.931v-2.866zm0-13.127h-.931v2.866h.931v-2.866zm0 45.937h-.931v2.866h.931v-2.866zm0-13.123h-.931v2.866h.931v-2.866zm0-13.123h-.931v2.866h.931v-2.866zm0-13.127h-.931v2.866h.931v-2.866zm49.489 60.457h-.931v3.415h.931v-3.415zm0-15.631h-.931v3.411h.931v-3.411zm0-15.634h-.931v3.415h.931v-3.415zm0-15.635h-.931v3.415h.931v-3.415zm0-15.631h-.931v3.415h.931v-3.415zm0 54.717h-.931v3.412h.931v-3.412zm0-15.634h-.931v3.411h.931v-3.411zm0-15.635h-.931v3.415h.931v-3.415zm0-15.63h-.931v3.415h.931v-3.415zM517.544 258.338h-.932v3.14h.932v-3.14zm0-14.385h-.932v3.14h.932v-3.14zm0-14.385h-.932v3.141h.932v-3.141zm0-14.385h-.932v3.141h.932v-3.141zm0 50.347h-.932v3.141h.932v-3.141zm0-14.385h-.932v3.141h.932v-3.141zm0-14.385h-.932v3.141h.932v-3.141zm0-14.384h-.932v3.14h.932v-3.14zm298.084 45.276h-.928v3.009h.928v-3.009zm0-13.784h-.928v3.009h.928v-3.009zm0-13.78h-.928v3.009h.928v-3.009zm0-13.78h-.928v3.009h.928v-3.009zm0-13.784h-.928v3.01h.928v-3.01zm0-13.779h-.928v3.009h.928v-3.009zm0-13.78h-.928v3.009h.928v-3.009zm0-13.78h-.928v3.009h.928v-3.009zm0-13.78h-.928v3.009h.928v-3.009zm0-13.784h-.928v3.009h.928v-3.009zm0 130.921h-.928v3.009h.928v-3.009zm0-13.78h-.928v3.009h.928v-3.009zm0-13.784h-.928v3.009h.928v-3.009zm0-13.78h-.928v3.009h.928v-3.009zm0-13.78h-.928v3.009h.928v-3.009zm0-13.783h-.928v3.009h.928v-3.009zm0-13.78h-.928v3.009h.928v-3.009zm0-27.56h-.928v3.009h.928v-3.009zm0 13.78h-.928v3.009h.928v-3.009zm0-27.564h-.928v3.009h.928v-3.009zM491.267 190.86h-.932v3.2h.932v-3.2zm0-14.66h-.932v3.2h.932v-3.2zm0-14.663h-.932v3.2h.932v-3.2zm0-14.66h-.932v3.2h.932v-3.2zm0-14.663h-.932v3.2h.932v-3.2zm0-14.66h-.932v3.2h.932v-3.2zm0-14.659h-.932v3.2h.932v-3.2zm0-14.664h-.932v3.2h.932v-3.2zm0-14.663h-.932v3.2h.932v-3.2zm0 124.619h-.932v3.2h.932v-3.2zm0-14.659h-.932v3.2h.932v-3.2zm0-14.66h-.932v3.201h.932v-3.201zm0-29.322h-.932v3.2h.932v-3.2zm0-29.323h-.932v3.2h.932v-3.2zm0-29.323h-.932v3.2h.932v-3.2zm0 73.305h-.932v3.2h.932v-3.2zm0-29.319h-.932v3.2h.932v-3.2zm0-29.323h-.932v3.2h.932v-3.2zm277.607 133.189h-.932v3.121h.932v-3.121zm0-14.289h-.932v3.12h.932v-3.12zm0-14.289h-.932v3.12h.932v-3.12zm0-14.29h-.932v3.121h.932v-3.121zm0-14.293h-.932v3.12h.932v-3.12zm0-14.289h-.932v3.12h.932v-3.12zm0-14.29h-.932v3.121h.932v-3.121zm0-14.289h-.932v3.121h.932v-3.121zm0-14.293h-.932v3.12h.932v-3.12zm0-14.289h-.932v3.12h.932v-3.12zm0-14.29h-.932v3.12h.932v-3.12zm0-14.293h-.932v3.12h.932v-3.12zm0 150.049h-.932v3.121h.932v-3.121zm0-14.289h-.932v3.121h.932v-3.121zm0-14.289h-.932v3.12h.932v-3.12zm0-14.289h-.932v3.12h.932v-3.12zm0-14.294h-.932v3.121h.932v-3.121zm0-28.578h-.932v3.12h.932v-3.12zm0-28.583h-.932v3.121h.932v-3.121zm0-28.582h-.932v3.12h.932v-3.12zm0 71.454h-.932v3.121h.932v-3.121zm0-28.583h-.932v3.121h.932v-3.121zm0-28.578h-.932v3.12h.932v-3.12zm0-28.583h-.932v3.12h.932v-3.12zM344.348 238.93h-.931v2.993h.931v-2.993zm0-13.708h-.931v2.993h.931v-2.993zm0-13.712h-.931v2.993h.931v-2.993zm0-13.709h-.931v2.993h.931v-2.993zm0-13.704h-.931v2.993h.931v-2.993zm0-13.708h-.931v2.993h.931v-2.993zm0-13.712h-.931v2.993h.931v-2.993zm0-13.704h-.931v2.993h.931v-2.993zm0-13.713h-.931v2.994h.931v-2.994zm0-13.708h-.931v2.993h.931v-2.993zm0-13.708h-.931v2.993h.931v-2.993zm0-13.708h-.931v2.993h.931v-2.993zm0-13.708h-.931v2.993h.931v-2.993zm0 171.356h-.931v2.993h.931v-2.993zm0-13.708h-.931v2.993h.931v-2.993zm0-13.712h-.931v2.993h.931v-2.993zm0-13.709h-.931v2.994h.931v-2.994zm0-13.704h-.931v2.993h.931v-2.993zm0-13.708h-.931v2.993h.931v-2.993zm0-13.712h-.931v2.993h.931v-2.993zm0-27.416h-.931v2.993h.931v-2.993zm0-27.417h-.931v2.993h.931v-2.993zm0-27.416h-.931v2.993h.931v-2.993zm0 68.545h-.931v2.993h.931v-2.993zm0-27.421h-.931v2.994h.931v-2.994zm0-27.416h-.931v2.993h.931V94.99zm0-27.416h-.931v2.993h.931v-2.993zM143.666 339.962h-.932v3.073h.932v-3.073zm0-14.082h-.932v3.072h.932v-3.072zm0-14.079h-.932v3.073h.932v-3.073zm0 35.202h-.932v3.073h.932v-3.073zm0-14.082h-.932v3.072h.932v-3.072zm0-14.079h-.932v3.073h.932v-3.073zm25.851-6.993h-.931v3.073h.931v-3.073zm0-14.078h-.931v3.072h.931v-3.072zm0-14.083h-.931v3.073h.931v-3.073zm0 35.202h-.931v3.073h.931v-3.073zm0-14.078h-.931v3.073h.931v-3.073zm0-14.083h-.931v3.073h.931v-3.073zm0-14.082h-.931v3.077h.931v-3.077zm35.72 14.17h-.932v2.711h.932v-2.711zm0-6.205h-.932v2.71h.932v-2.71zm84.826-31.039h-.932v2.878h.932v-2.878zm0-13.175h-.932v2.878h.932v-2.878zm0-13.178h-.932v2.877h.932v-2.877zm0-13.179h-.932v2.878h.932v-2.878zm0-13.175h-.932v2.878h.932v-2.878zm0-13.179h-.932v2.878h.932v-2.878zm0 59.299h-.932v2.878h.932v-2.878zm0-13.179h-.932v2.878h.932v-2.878zm0-26.354h-.932v2.878h.932v-2.878zm0 13.179h-.932v2.878h.932v-2.878zm0-26.353h-.932v2.877h.932v-2.877zM215.3 278.876h-.932v2.659h.932v-2.659zm0-12.176h-.932v2.659h.932V266.7zm0-12.175h-.932v2.658h.932v-2.658zm0-12.176h-.932v2.659h.932v-2.659zm0-12.176h-.932v2.659h.932v-2.659zm0-12.176h-.932v2.659h.932v-2.659zm0 66.965h-.932v2.659h.932v-2.659zm0-12.176h-.932v2.659h.932v-2.659zm0-24.351h-.932v2.659h.932v-2.659zm0-24.348h-.932v2.659h.932v-2.659zm0 36.524h-.932v2.658h.932v-2.658zm0-24.348h-.932v2.659h.932v-2.659zm34.326 25.14h-.931v3.009h.931v-3.009zm0-13.78h-.931v3.009h.931v-3.009zm0-13.78h-.931v3.009h.931v-3.009zm0-13.78h-.931v3.009h.931v-3.009zm0-13.784h-.931v3.009h.931v-3.009zm0-13.779h-.931v3.009h.931V192.5zm0-13.78h-.931v3.009h.931v-3.009zm0 89.572h-.931v3.01h.931v-3.01zm0-13.779h-.931v3.009h.931v-3.009zm0-13.78h-.931v3.009h.931v-3.009zm0-27.564h-.931v3.009h.931v-3.009zm0-27.559h-.931v3.009h.931v-3.009zm0 41.343h-.931v3.009h.931v-3.009zm0-27.564h-.931v3.01h.931v-3.01zm0-27.563h-.931v3.009h.931v-3.009zm147.281 70.037h-.932v2.926h.932v-2.926zm0-13.405h-.932v2.925h.932v-2.925zm0-13.406h-.932v2.925h.932v-2.925zm0-13.402h-.932v2.926h.932v-2.926zm0-13.405h-.932v2.929h.932v-2.929zm0-13.406h-.932v2.925h.932v-2.925zm0-13.406h-.932v2.926h.932v-2.926zm0-13.402h-.932v2.926h.932v-2.926zm0-13.405h-.932v2.925h.932v-2.925zm0-13.406h-.932v2.926h.932v-2.926zm0-13.405h-.932v2.925h.932v-2.925zm0-13.406h-.932v2.925h.932V94.41zm0-13.406h-.932v2.926h.932v-2.926zm0-13.406h-.932v2.926h.932v-2.925zm0-13.401h-.932v2.925h.932v-2.925zm0-13.406h-.932v2.926h.932V40.79zm0-13.406h-.932v2.926h.932v-2.925zm0-13.405h-.932v2.925h.932V13.98zm0-13.402h-.932v2.926h.932V.577zm0 247.989h-.932v2.926h.932v-2.926zm0-13.406h-.932v2.926h.932v-2.926zm0-13.405h-.932v2.925h.932v-2.925zm0-13.402h-.932v2.926h.932v-2.926zm0-13.406h-.932v2.926h.932v-2.926zm0-13.405h-.932v2.925h.932v-2.925zm0-13.406h-.932v2.926h.932v-2.926zm0-26.807h-.932v2.925h.932v-2.925zm0-26.812h-.932v2.926h.932v-2.926zm0-26.811h-.932v2.926h.932v-2.926zm0-26.807h-.932v2.925h.932V60.9zm0-26.812h-.932v2.926h.932v-2.926zm0-26.811h-.932v2.925h.932V7.276zm0 147.458h-.932v2.926h.932v-2.926zm0-26.811h-.932v2.926h.932v-2.926zm0-26.811h-.932v2.925h.932v-2.925zm0-26.812h-.932v2.926h.932V74.3zm0-26.807h-.932v2.926h.932v-2.926zm0-26.811h-.932v2.925h.932v-2.925zm-56.235 310.01l-.197.911 2.941.638.197-.911-2.941-.638zm6.733 1.462l-.197.91 2.941.638.197-.91-2.941-.638zm-13.194-4.42l-.196.912 2.949.632.196-.912-2.949-.632z" fill="#231F20"/><path d="M814.165 141.125l-.803.471 1.523 2.595.804-.471-1.524-2.595zm-7.018-11.96l-.803.472 1.525 2.594.803-.472-1.525-2.594zm-6.972-11.835l-.803.473 1.528 2.593.802-.473-1.527-2.593zm-7-11.91l-.802.472 1.526 2.593.803-.472-1.527-2.593zm-6.991-11.895l-.802.472 1.527 2.593.802-.472-1.527-2.593zm-6.987-11.877l-.803.473 1.525 2.594.803-.472-1.525-2.595zm-6.962-11.824l-.803.472 1.527 2.593.803-.473-1.527-2.592zm38.443 65.373l-.803.472 1.522 2.595.804-.471-1.523-2.596zm-7.013-11.941l-.802.473 1.527 2.593.802-.473-1.527-2.593zm-6.963-11.831l-.804.472 1.524 2.595.804-.472-1.524-2.595zm-13.985-23.78l-.803.471 1.524 2.595.803-.471-1.524-2.595zm-15.592-26.844l-.802.475 1.535 2.588.801-.475-1.534-2.588zm22.6 38.767l-.803.472 1.525 2.594.803-.472-1.525-2.594zM775.74 75.792l-.803.472 1.525 2.594.803-.472-1.525-2.594zM638.923 164.27l-.598.714 2.307 1.932.598-.714-2.307-1.932zm-10.549-8.824l-.598.715 2.308 1.93.598-.714-2.308-1.931zm-10.581-8.871l-.595.712 2.307 1.931.596-.711-2.308-1.932zm-10.551-8.834l-.598.714 2.309 1.931.597-.715-2.308-1.93zm-10.564-8.856l-.598.713 2.305 1.934.599-.713-2.306-1.934zm26.402 22.112l-.598.714 2.305 1.934.599-.713-2.306-1.935zm-21.1-17.662l-.599.714 2.306 1.934.599-.713-2.306-1.935zm31.669 26.524l-.597.714 2.308 1.931.598-.715-2.309-1.93zm-21.155-17.733l-.598.714 2.307 1.932.598-.714-2.307-1.932zm-21.105-17.676l-.599.713 2.305 1.934.599-.713-2.305-1.934zm-82.553 86.087l-.435.824 2.661 1.406.435-.824-2.661-1.406zm-12.187-6.455l-.436.823 2.66 1.408.436-.824-2.66-1.407zm-12.206-6.461l-.435.823 2.659 1.408.436-.823-2.66-1.408zm30.501 16.152l-.435.823 2.66 1.407.435-.823-2.66-1.407zm-24.379-12.895l-.436.823 2.66 1.408.436-.823-2.66-1.408zm12.149 6.401l-.435.823 2.659 1.407.436-.823-2.66-1.407zm-24.37-12.881l-.435.824 2.662 1.405.435-.824-2.662-1.405zM488.89 71.715l-.571.736 2.378 1.845.571-.736-2.378-1.845zm-5.446-4.222l-.57.736 2.379 1.843.571-.737-2.38-1.842zm-10.863-8.403l-.57.736 2.379 1.842.571-.736-2.38-1.842zm-11.887-8.16l-.568.736 2.377 1.836.569-.736-2.378-1.835zm-9.895-8.71l-.57.737 2.379 1.842.57-.736-2.379-1.843zm-10.95-8.487l-.571.736 2.38 1.842.57-.736-2.379-1.842zm-10.858-8.406l-.57.737 2.379 1.842.571-.736-2.38-1.843zM418.104 16.9l-.571.736 2.378 1.844.571-.736-2.378-1.844zm59.927 46.417l-.569.737 2.381 1.84.57-.738-2.382-1.84zm-10.939-8.49l-.571.736 2.379 1.843.571-.736-2.379-1.843zm-11.831-8.115l-.568.736 2.377 1.835.568-.736-2.377-1.835zm-9.949-8.755l-.571.736 2.377 1.845.571-.736-2.377-1.845zm-10.878-8.412l-.57.736 2.38 1.842.57-.736-2.38-1.842zm-10.9-8.44l-.57.736 2.379 1.843.57-.736-2.379-1.843zm-10.884-8.436l-.57.736 2.379 1.843.571-.737-2.38-1.842zm-5.451-4.219l-.57.737 2.379 1.842.57-.736-2.379-1.843zm-5.45-4.215l-.568.733 2.379 1.843.568-.733-2.379-1.843zM396.304.013l-.57.737 2.381 1.84.57-.736-2.381-1.84zM202.376 283.924l-.215.906 2.928.696.215-.906-2.928-.696zm-6.7-1.597l-.217.906 2.928.699.216-.906-2.927-.699zm-6.7-1.566l-.215.906 2.928.696.215-.906-2.928-.696zm-6.705-1.609l-.216.906 2.928.696.216-.906-2.928-.696zm-6.711-1.609l-.215.906 2.927.696.216-.906-2.928-.696zm-6.69-1.561l-.216.906 2.928.697.216-.907-2.928-.696zm118.403-89.421l-.345.865 2.795 1.116.345-.865-2.795-1.116zm-6.387-2.547l-.345.865 2.795 1.116.345-.865-2.795-1.116zm-6.403-2.572l-.347.864 2.793 1.121.347-.865-2.793-1.12zm-6.411-2.575l-.346.865 2.794 1.117.346-.865-2.794-1.117zm-6.374-2.519l-.346.865 2.794 1.118.346-.865-2.794-1.118zm-6.415-2.593l-.347.865 2.793 1.119.347-.864-2.793-1.12zm-6.378-2.527l-.346.865 2.793 1.118.347-.864-2.794-1.119zm66.326 166.874l-2.72 1.287.398.842 2.721-1.287-.399-.842zm12.476-5.96l-2.719 1.29.398.838 2.718-1.291-.397-.837zm-18.69 8.877l-2.72 1.29.4.841 2.719-1.289-.399-.842zm12.44-5.864l-2.72 1.286.398.842 2.721-1.286-.399-.842zm12.474-5.961l-2.718 1.291.4.841 2.718-1.291-.4-.841zM684.22 110.403l-2.631 1.46.452.814 2.631-1.46-.452-.814zm12.065-6.652l-2.632 1.459.452.815 2.632-1.46-.452-.814z" fill="#231F20"/><path fill-rule="evenodd" clip-rule="evenodd" d="M687.634 108.571l.45.816 2.631-1.457-.45-.816-2.631 1.457z" fill="#231F20"/><path d="M702.309 100.405l-2.633 1.458.452.815 2.632-1.458-.451-.815zm6.042-3.317l-2.632 1.46.451.81 2.631-1.46-.45-.81zm6.014-3.369l-2.632 1.459.452.814 2.632-1.459-.452-.814zm6.027-3.329l-2.63 1.462.452.814 2.631-1.462-.453-.814zm6.052-3.296l-2.632 1.458.451.815 2.633-1.458-.452-.815zm6.033-3.316l-2.632 1.459.452.815 2.632-1.46-.452-.814zm6.002-3.405l-2.634 1.455.451.816 2.634-1.456-.451-.815zm6.039-3.321l-2.634 1.456.451.815 2.634-1.455-.451-.816zm6.034-3.315l-2.633 1.458.452.815 2.632-1.459-.451-.814zm6.005-3.404l-2.634 1.457.451.815 2.633-1.457-.45-.815zm6.071-3.234l-2.634 1.456.45.812 2.633-1.457-.449-.811zm6.01-3.379l-2.632 1.459.451.814 2.633-1.458-.452-.815zm-224.129 89.753l-2.557 1.587.491.791 2.557-1.586-.491-.792zm11.722-7.236l-2.558 1.585.49.791 2.558-1.584-.49-.792zm11.724-7.234l-2.559 1.584.491.792 2.558-1.585-.49-.791zm11.688-7.341l-2.559 1.584.49.792 2.559-1.584-.49-.792zm11.732-7.212l-2.56 1.582.49.793 2.56-1.583-.49-.792zm-41.016 25.369l-2.558 1.584.49.792 2.559-1.584-.491-.792zm23.449-14.467l-2.557 1.586.491.792 2.557-1.586-.491-.792zm-11.226 5.542l-2.558 1.595.494.791 2.558-1.595-.494-.791zm22.921-12.837l-2.556 1.588.492.791 2.556-1.588-.492-.791zm-148.121 91.666l-2.559 1.584.491.792 2.558-1.584-.49-.792zm11.714-7.252l-2.557 1.585.491.792 2.557-1.586-.491-.791zm11.726-7.196l-2.557 1.586.491.791 2.557-1.586-.491-.791zm11.7-7.326l-2.557 1.586.49.791 2.558-1.586-.491-.791zm-17.56 10.949l-2.56 1.583.488.788 2.56-1.582-.488-.789zm23.42-14.582l-2.557 1.587.492.791 2.557-1.587-.492-.791zm-35.143 21.808l-2.558 1.585.491.792 2.558-1.586-.491-.791zm23.432-14.516l-2.557 1.586.491.791 2.557-1.586-.491-.791zM345.27 65.215l-1.855 2.37.734.574 1.854-2.37-.733-.574zm8.502-10.845l-1.854 2.371.733.574 1.854-2.37-.733-.574zm8.457-10.888l-1.856 2.369.733.574 1.856-2.369-.733-.574zm8.513-10.835l-1.855 2.37.73.57 1.855-2.369-.73-.571zm8.509-10.847l-1.854 2.37.734.574 1.854-2.37-.734-.574zm8.472-10.86l-1.852 2.372.735.573 1.851-2.373-.734-.573zM397.786-.824l-1.865 2.377.735.577 1.866-2.377-.736-.577zM349.49 59.757l-1.853 2.372.734.573 1.853-2.371-.734-.574zm17.017-21.675l-1.855 2.37.734.574 1.855-2.37-.734-.574zm16.994-21.701l-1.859 2.367.733.575 1.858-2.367-.732-.575zm-25.49 32.551l-1.855 2.37.733.574 1.855-2.37-.733-.574zm18.416-22.565l-1.866 2.377.736.578 1.866-2.378-.736-.577zm15.519-20.879l-1.855 2.37.733.574 1.856-2.37-.734-.574zM144.499 309.361l-1.763 2.439.755.545 1.763-2.439-.755-.545zm4.035-5.551l-1.764 2.439.755.545 1.764-2.438-.755-.546zm4.04-5.596l-1.764 2.438.754.546 1.765-2.438-.755-.546zm4.041-5.566l-1.764 2.438.755.546 1.764-2.438-.755-.546zm4.038-5.579l-1.764 2.438.755.546 1.764-2.438-.755-.546zm4.044-5.599l-1.765 2.437.755.546 1.765-2.437-.755-.546zm4.041-5.601l-1.764 2.438.755.546 1.764-2.438-.755-.546zm51.513-65.829l-1.788 2.42.749.553 1.788-2.42-.749-.553zm8.182-11.095l-1.787 2.421.75.554 1.787-2.422-.75-.553zm8.186-11.082l-1.789 2.42.749.554 1.789-2.42-.749-.554zm8.178-11.106l-1.786 2.421.749.553 1.787-2.422-.75-.552zm-28.645 38.805l-1.786 2.421.749.553 1.787-2.421-.75-.553zm8.184-11.095l-1.787 2.421.75.553 1.787-2.421-.75-.553zm6.436-10.597l-1.775 2.407.745.55 1.776-2.407-.746-.55zm9.93-11.582l-1.785 2.422.75.553 1.785-2.423-.75-.552zm8.185-11.08l-1.784 2.423.75.552 1.784-2.423-.75-.552zM1034.2 639.452l.8.45v.887l-1.19-.668.39-.669zm-3.34-1.887l1.4.796.28.16-.38.668-.28-.155-1.39-.796.4-.669-.03-.004zm-3.36-1.874l1.68.935-.37.673-1.68-.932.37-.676zm-3.37-1.863l1.69.931-.37.673-1.69-.928.37-.676zm-3.4-1.847l1.7.923-.37.677-1.7-.923.37-.677zm-3.41-1.839l1.71.915-.37.681-1.71-.915.37-.681zm-3.43-1.823l1.72.911-.37.681-1.72-.911.37-.681zm-3.46-1.815l.87.454.86.454-.35.68-.87-.454-.86-.449.35-.685zm-3.46-1.795l1.4.72.33.175-.35.685-.34-.175-1.4-.725.36-.68zm-3.49-1.791l1.75.891-.35.685-1.75-.888.35-.688zm-3.503-1.771l.883.437.87.446-.34.689-.88-.446-.879-.442.346-.684zm-3.519-1.768l.88.442.884.442-.347.688-.879-.441-.884-.438.346-.693zm-3.539-1.747l1.772.876-.343.688-1.771-.872.342-.692zm-3.558-1.736l1.783.868-.339.693-1.779-.868.335-.693zm-3.583-1.723l.895.43.892.43-.334.692-.892-.43-.896-.429.331-.693h.004zm-3.583-1.716l1.799.856-.33.697-1.795-.856.326-.697zm-3.606-1.691l1.807.844-.327.696-1.807-.844.327-.696zm-3.627-1.688l1.815.84-.322.697-1.815-.836.322-.701zm-3.654-1.683l.911.398.912.398-.319.7-.911-.418-.912-.398.319-.7v.02zm-3.659-1.66c.681.302 1.079.485 1.485.672l.346.156-.314.7-.35-.155-1.481-.673.314-.7zm-3.674-1.648l.92.398.919.398-.314.704-.92-.398-.919-.398.314-.704zm-3.694-1.632l1.847.796-.31.709-1.848-.797.311-.704v-.004zm-3.71-1.62l1.855.796-.307.705-1.855-.796.307-.709v.004zm-3.726-1.592l1.27.545.593.259-.303.708-.593-.258-1.27-.546.303-.708zm-3.742-1.592l1.871.796-.299.708-1.871-.796.299-.704v-.004zm-3.762-1.592l.944.398.939.398-.299.708-.935-.398-.943-.398.294-.712v.004zm-3.774-1.565l1.891.796-.294.713-1.887-.796.29-.713zm-3.789-1.552l1.899.796-.295.713-1.895-.773.291-.716v-.02zm-3.806-1.54l1.903.768-.287.716-1.907-.768.291-.716zm-3.825-1.525l1.91.764-.282.713-1.911-.76.283-.717zm-3.842-1.512l1.923.756-.279.716-1.923-.752.279-.72zm-3.853-1.497l1.93.748-.278.717-1.931-.744.279-.721zm-3.87-1.485l1.935.741-.275.72-1.938-.74.278-.721zm-3.889-1.472l1.947.736-.271.721-1.946-.733.27-.724zm-3.901-1.453l1.955.724-.271.721-1.951-.725.267-.72zm-3.917-1.445l1.959.721-.263.724-1.963-.72.267-.725zm-3.933-1.425l1.966.709-.262.724-1.967-.712.263-.721zm-3.949-1.417l1.99.705-.258.728-1.991-.704.259-.729zm-3.961-1.401l1.991.701-.255.728-1.991-.701.259-.728h-.004zm-3.981-1.385l1.991.692-.251.729-1.99-.693.25-.728zm-3.98-1.369l.999.338.999.342-.251.733-.999-.347-.999-.338.251-.728zm-4.009-1.358l1.99.673-.242.732-1.991-.676.243-.729zm-4.025-1.345l2.015.669-.243.728-1.991-.669.239-.728h-.02zm-4.036-1.329l2.018.664-.239.733-2.018-.661.239-.736zm-4.052-1.31l2.026.653-.235.732-2.026-.652.235-.733zm-4.069-1.301l2.034.648-.231.733-2.034-.649.231-.732zm-4.08-1.286l2.042.641-.231.736-2.038-.641.227-.736zm-4.096-1.27l2.05.633-.227.736-2.05-.632.227-.737zm-4.108-1.258l2.054.629-.223.737-2.054-.625.223-.741zm-4.125-1.237l2.062.617-.218.74-2.067-.621.223-.736zm-4.136-1.226l2.07.609-.219.74-2.07-.613.219-.736zm-4.155-1.194l2.078.605-.216.74-2.073-.605.211-.74zm-4.164-1.195l1.397.398.684.196-.21.74-.685-.191-1.397-.398.211-.745zm-4.18-1.194l2.09.585-.207.741-2.09-.585.207-.741zm-4.196-1.166l1.051.287 1.051.29-.207.745-1.051-.291-1.047-.291.203-.74zm-4.204-1.154l2.102.573-.199.744-2.106-.573.203-.744zm-4.203-1.135l2.11.57-.199.744-2.11-.565.199-.749zm-4.236-1.118l2.118.557-.195.749-2.118-.562.195-.744zm-4.247-1.103l2.125.55-.195.744-2.121-.549.191-.745zm-4.26-1.094l2.13.545-.191.748-2.13-.541.191-.752zm-4.275-1.075l2.138.537-.188.749-2.137-.538.187-.748zm-4.283-1.059l2.141.53-.183.748-2.145-.529.187-.749zm-4.304-1.038l1.079.254 1.075.263-.183.748-1.075-.262-1.071-.255.175-.748zm-4.311-1.031l2.158.509-.175.752-2.158-.513.175-.748zm-4.323-1.011l2.162.501-.176.752-2.161-.505.175-.748zm-4.339-.999l2.17.497-.172.752-2.169-.497.171-.752zm-4.351-.98l2.178.49-.172.752-2.173-.489.167-.753zm-4.379-.967l2.186.482-.168.752-2.181-.481.163-.753zm-4.379-.947l2.19.474-.163.752-2.19-.474.163-.752zm-4.378-.935l2.193.465-.155.753-2.198-.462.16-.756zm-4.403-.916l2.201.454-.155.756-2.197-.454.151-.756zm-4.407-.903l2.205.449-.155.757-2.205-.45.155-.756zm-4.427-.884l2.214.438-.147.756-2.214-.438.147-.756zm-4.434-.872l1.111.215 1.11.219-.151.756-1.107-.219-1.11-.211.147-.76zm-4.447-.852l2.226.426-.148.757-2.221-.426.143-.757zm-4.462-.835l2.233.398-.139.76-2.229-.418.135-.756v.016zm-4.47-.82l2.237.398-.136.76-2.237-.398.136-.756v-.004zm-4.483-.796l2.241.398-.131.76-2.241-.398.131-.76zm-4.49-.796l2.245.398-.127.764-2.249-.398.131-.76v-.004zm-4.506-.797l2.253.398-.128.761-2.253-.398.128-.765v.004zm-4.519-.752l2.262.374-.124.761-2.261-.375.123-.76zm-4.526-.736l2.265.366-.119.76-2.265-.366.119-.76zm-4.538-.725l2.269.363-.115.756-2.273-.358.119-.761zm-4.55-.704l2.277.35-.115.764-2.277-.35.115-.764zm-4.558-.689l2.281.343-.115.764-2.281-.342.115-.765zm-4.574-.672l2.285.338-.107.76-2.285-.334.107-.764zm-4.582-.649l2.293.322-.107.76-2.289-.322.103-.76zm-4.593-.641l2.301.318-.104.761-2.297-.319.1-.76zm-4.602-.621l2.301.307-.1.764-2.301-.307.1-.764zm-4.614-.601l2.309.299-.099.76-2.305-.299.095-.76zm-4.621-.589l2.312.291-.095.768-2.313-.295.096-.764zm-4.634-.569l2.317.282-.092.769-2.317-.287.092-.764zm-4.646-.553l1.824.214.501.06-.091.768-.498-.059-1.823-.215.087-.768zm-4.653-.534l2.325.267-.084.764-2.329-.267.088-.764zm-4.662-.517l2.333.258-.087.765-2.333-.255.087-.768zm-4.677-.502l2.337.251-.08.764-2.337-.247.08-.768zm-4.681-.481l1.747.179.593.059-.079.769-.589-.064-1.752-.179.08-.764zm-4.694-.466l2.349.235-.08.764-2.344-.231.075-.768zm-4.705-.442l1.194.108 1.194.107-.071.768-1.194-.111-1.195-.108.068-.764h.004zm-4.713-.434l1.194.104 1.194.107-.067.768-1.195-.107-1.194-.104.068-.768zm-4.721-.398l2.078.179.282.024-.064.772-.286-.024-2.074-.183.064-.768zm-4.73-.398l2.365.195-.064.772-2.364-.199.063-.768zm-4.741-.374l2.389.183-.064.768-2.388-.183.059-.768h.004zm-4.749-.362l2.389.175-.056.772-2.389-.179.06-.768h-.004zm-4.777-.343l1.195.088 1.194.084-.056.768-1.194-.088-1.194-.079.051-.773h.004zm-4.777-.322l2.389.163-.052.765-2.388-.16.051-.768zm-4.777-.306l2.389.151-.048.768-2.388-.147.047-.772zm-4.776-.287l2.388.143-.048.769-2.388-.14.044-.772h.004zm-4.777-.267l2.388.132-.044.768-2.388-.131.044-.769zm-4.805-.25l2.388.123-.04.768-2.388-.123.04-.768zm-4.813-.235l1.194.059 1.195.056-.036.768-1.194-.055-1.195-.06.032-.768h.004zm-4.817-.211l1.836.075.573.028-.032.768-.581-.031-1.831-.076.031-.768.004.004zm-4.828-.195l1.194.044 1.194.047-.032.769-1.194-.048-1.194-.044.028-.768h.004zm-4.833-.179l1.835.063h.581l-.028.773-.581-.024-1.835-.064.028-.768v.02zm-4.845-.16l2.421.076-.024.768-2.42-.075.023-.769zm-4.852-.139l1.895.052h.533l-.024.772h-.529l-1.895-.052v-.768l.02-.004zm-4.861-.123l1.704.04h.729v.772h-.729l-1.7-.04v-.768l-.004-.004zm-4.868-.104l2.436.048v.768l-2.436-.048v-.768zm-4.873-.087h1.219l1.218.024v.764h-1.218l-1.219-.02v-.772.004zm-4.884-.064h2.444v.768h-2.44v-.768h-.004zm-4.888-.048h2.444v.768h-2.444v-.772.004zm-4.901-.028h2.452v.773h-2.448v-.769l-.004-.004zm-4.904 0h2.452v.773H517.5v-.773zm-4.904 0h2.452v.773h-2.452v-.773zm-4.897.028h2.445v.745h-2.445v-.773.028zm-4.892.048h.303l2.141-.024v.772l-2.141.024h-.303v-.772zm-4.88.068l2.436-.036v.768l-2.44.036v-.768h.004zm-4.877.083l2.436-.044v.769l-2.436.043v-.768zm-4.868.104l2.432-.052v.768l-2.432.052v-.768zm-4.857.123l2.424-.064v.769l-2.428.063v-.768h.004zm-4.856.139l2.428-.071v.768l-2.424.072-.024-.769h.02zm-4.841.16l2.42-.084.024.768-2.42.084-.024-.768zm-4.837.179l1.195-.048 1.194-.048.028.772-1.195.044-1.194.048-.028-.768zm-4.828.195l2.412-.1.032.768-2.413.1-.031-.768zm-4.817.211l2.388-.108.032.768-2.388.112-.032-.772zm-4.813.235l2.389-.12.035.772-2.388.116-.036-.768zm-4.801.25l2.389-.127.04.768-2.389.128-.04-.769zm-4.777.271l1.195-.068 1.194-.071.044.768-1.195.068-1.194.071-.04-.768h-.004zm-4.776.283l1.194-.072 1.194-.072.044.769-1.194.071-1.195.076-.043-.772zm-4.777.31l2.388-.159.052.772-2.389.151-.047-.764h-.004zm-4.777.318l1.771-.119.609-.04.052.765-.609.043-1.772.124-.051-.773zm-4.777.343l2.388-.171.056.768-2.389.171-.051-.768h-.004zm-4.749.362l2.388-.187.06.772-2.389.183-.055-.768h-.004zm-4.741.374l2.388-.191.06.768-2.389.195-.059-.772zm-4.734.398l2.365-.195.064.768-2.365.199-.064-.772zm-4.721.398l2.361-.211.064.772-2.357.207-.068-.768zm-4.713.434l2.353-.223.071.768-2.352.219-.072-.764zm-4.709.466l1.194-.116 1.174-.111.072.764-1.194.116-1.175.111-.071-.764zm-4.694.461l2.345-.23.076.764-2.345.235-.076-.769zm-4.673.502l2.341-.243.079.768-2.34.243-.08-.768zm-4.673.502l2.332-.251.084.764-2.337.255-.079-.768zm-4.666.517l2.329-.259.087.764-2.332.259-.084-.764zm-4.653.533l2.324-.266.088.764-2.325.271-.087-.769zm-4.646.554l2.321-.279.091.768-2.32.275-.092-.764zm-4.638.549l2.317-.287.092.768-2.313.283-.096-.764zm-4.621.589l2.309-.299.095.769-2.309.29-.095-.76zm-4.614.601l1.151-.151 1.154-.152.099.761-1.154.155-1.15.151-.1-.764zm-4.602.621l2.297-.315.104.769-2.301.31-.1-.764zm-4.593.641l1.146-.163 1.146-.16.104.761-1.147.159-1.146.163-.103-.76zm-4.582.649l2.289-.327.107.76-2.289.335-.107-.768zm-4.574.672l2.285-.334.111.76-2.285.338-.111-.764zm-4.558.689l2.289-.35.115.764-2.277.346-.115-.764-.012.004zm-4.55.708l2.273-.358.115.76-2.269.358-.119-.76zm-4.538.721l2.265-.362.123.756-2.269.366-.119-.76zm-4.526.736l2.261-.37.123.76-2.261.374-.123-.764zm-4.519.756l2.257-.398.128.765-2.257.398-.128-.761v-.004zm-4.506.773l2.253-.399.128.761-2.25.398-.131-.76zm-4.494.796l2.245-.398.135.76-2.245.398-.135-.76zm-4.483.796l2.242-.398.135.756-2.237.398-.14-.756zm-4.47.82l2.237-.398.136.756-2.234.398-.139-.756zm-4.458.835l2.229-.398.139.757-2.225.398-.143-.757zm-4.447.852l2.221-.426.148.757-2.226.429-.143-.76zm-4.434.872l2.213-.438.147.756-2.213.438-.147-.756zm-4.415.884l2.209-.442.147.752-2.209.446-.147-.756zm-4.415.903l1.103-.227 1.103-.227.151.757-1.099.222-1.103.231-.155-.756zm-4.379.916l1.099-.231 1.099-.231.155.756-1.099.231-1.094.231-.16-.756zm-4.379.935l2.194-.47.159.753-2.193.469-.16-.752zm-4.378.947l2.185-.473.163.752-2.185.474-.163-.753zm-4.379.967l2.177-.485.167.752-2.177.486-.167-.753zm-4.343.98l2.173-.49.167.752-2.169.49-.171-.752zm-4.335.999l1.079-.251 1.086-.251.171.752-1.082.247-1.083.255-.171-.752zm-4.327 1.011l2.161-.506.175.748-2.161.506-.175-.748zm-4.312 1.031l2.154-.518.179.748-2.153.518-.18-.748zm-4.299 1.038l2.146-.521.183.748-2.15.522-.179-.749zm-4.307 1.071l2.142-.529.183.748-2.142.529-.183-.748zm-4.271 1.075l2.133-.538.187.749-2.133.541-.187-.752zm-4.264 1.094l2.13-.545.191.74-2.13.55-.191-.745zm-4.247 1.103l2.122-.553.195.744-2.122.557-.195-.748zm-4.232 1.106l2.114-.561.195.749-2.114.561-.195-.749zm-4.219 1.139l.398-.104 1.723-.465.199.744-1.723.466-.398.103-.199-.744zm-4.212 1.154l1.051-.29 1.051-.291.199.744-1.047.287-1.051.29-.207-.74h.004zm-4.192 1.166l1.059-.274 1.051-.295.203.744-1.047.291-1.047.295-.207-.741-.012-.02zm-4.176 1.194l2.086-.593.207.745-2.086.593-.207-.745zm-4.167 1.194l2.081-.6.211.736-2.082.601-.21-.737zm-4.152 1.195l.617-.183 1.457-.426.215.74-1.473.43-.617.179-.215-.736.016-.004zm-4.14 1.226l2.066-.617.223.74-2.067.613-.222-.736zm-4.125 1.237l2.063-.621.222.741-2.062.621-.223-.741zm-4.108 1.258l2.054-.629.223.737-2.05.629-.227-.737zm-4.096 1.27l2.046-.637.227.736-2.042.637-.231-.736zm-4.08 1.286l2.038-.645.231.736-2.038.645-.231-.736zm-4.069 1.301l2.031-.653.235.733-2.031.652-.235-.732zm-4.052 1.314l2.026-.661.235.732-2.022.661-.239-.732zm-4.036 1.325l2.018-.665.239.733-2.019.664-.238-.732zm-4.025 1.345l1.003-.338 1.007-.334.243.728-1.003.334-1.003.339-.247-.729zm-4.009 1.358l1.991-.681.251.728-1.991.681-.251-.728zm-3.98 1.369l1.99-.689.251.733-1.991.688-.25-.732zm-3.981 1.385l1.99-.693.251.729-1.99.692-.251-.728zm-3.981 1.401l1.99-.7.259.728-1.99.701-.255-.729h-.004zm-3.949 1.417l1.991-.708.262.72-1.97.713-.263-.725h-.02zm-3.929 1.425l1.963-.716.262.724-1.962.716-.263-.724zm-3.921 1.445l1.959-.724.262.724-1.954.724-.267-.724zm-3.901 1.453l1.95-.729.267.721-1.946.732-.271-.724zm-3.885 1.472l1.938-.736.271.721-1.939.736-.27-.721zm-3.874 1.485l1.935-.74.275.716-1.935.745-.275-.721zm-3.853 1.497l1.927-.749.274.717-1.922.752-.279-.72zm-3.841 1.512l1.918-.756.283.716-1.919.761-.282-.721zm-3.822 1.525l.951-.398.956-.398.282.712-.955.398-.951.398-.287-.716.004.004zm-3.81 1.54l.952-.398.951-.398.29.716-.95.398-.952.398-.29-.716zm-3.79 1.552l1.892-.776.294.713-1.895.796-.29-.713v-.02zm-3.777 1.565l1.887-.796.294.712-1.883.796-.298-.712zm-3.758 1.592l1.88-.796.298.708-1.88.796-.298-.704v-.004zm-3.742 1.592l1.871-.796.299.708-1.867.796-.303-.712v.004zm-3.726 1.592l1.86-.796.306.704-1.86.797-.306-.709v.004zm-3.71 1.62l1.855-.796.307.704-1.855.796-.307-.704zm-3.69 1.632l1.843-.796.31.704-1.843.796-.31-.704zm-3.678 1.648l1.835-.824.314.7-1.835.824-.314-.7zm-3.639 1.656l1.827-.832.315.7-1.823.832-.319-.7zm-3.642 1.671l1.82-.836.322.697-1.82.84-.322-.701zm-3.627 1.684l1.812-.844.326.701-1.811.843-.327-.7zm-3.606 1.696l1.8-.848.33.696-1.804.848-.326-.696zm-3.583 1.715l.896-.43.895-.43.33.697-.895.43-.895.43-.33-.693v-.004zm-3.583 1.724l1.784-.864.334.692-1.783.864-.334-.692zm-3.554 1.735l1.775-.868.334.689-1.775.872-.334-.693zm-3.543 1.747l.856-.43.883-.433.343.688-.884.438-.88.438-.346-.693.028-.008zm-3.523 1.78l1.76-.884.342.688-1.76.88-.342-.684zm-3.503 1.771l1.747-.888.35.689-1.751.887-.346-.688zm-3.487 1.791l1.74-.9.353.685-1.74.899-.353-.684zm-3.476 1.791l1.732-.9.354.685-1.731.9-.355-.685zm-3.467 1.819l1.724-.907.358.68-1.724.908-.358-.681zm-3.431 1.823l1.711-.912.363.681-1.712.912-.362-.681zm-3.412 1.839l.852-.462.852-.462.362.681-.852.462-.852.462-.362-.681zm-3.396 1.847l1.692-.924.37.677-1.695.923-.367-.676zm-3.375 1.863l1.684-.932.37.673-1.684.935-.37-.676zm-3.364 1.874l1.676-.939.398.673-1.676.935-.378-.669h-.02zm-3.324 1.887l1.668-.943.378.668-1.648.944-.398-.669zm1023.394 72.063l.85.729.84.732V713h-1.13l-.2-.171-.84-.725.5-.589h-.02zm-3.39-2.893l.85.724.85.721-.51.585-.84-.721-.85-.724.5-.585zm-3.42-2.882l1.71 1.437-.49.589-1.71-1.441.49-.585zm-3.43-2.862l1.72 1.429-.49.589-1.72-1.425.49-.593zm-3.45-2.842l1.69 1.393.04.028-.5.593-.03-.028-1.7-1.385.49-.601h.01zm-3.47-2.818l1.3 1.055.44.354-.49.597-.43-.354-1.3-1.055.48-.597zm-3.48-2.786l1.74 1.397-.48.601-1.74-1.397.48-.601zm-3.51-2.786l.88.692.88.697-.48.605-.88-.697-.873-.692.473-.605zm-3.518-2.763c.398.311 1.043.796 1.692 1.326l.067.052-.473.609-.072-.056-1.692-1.318.474-.609.004-.004zm-3.539-2.738l.887.681.884.684-.469.609-.884-.684-.888-.685.47-.605zm-3.555-2.727l1.533 1.194.246.184-.469.613-.243-.184-1.537-1.194.47-.613zm-3.583-2.698l.892.672.892.673-.462.613-.896-.673-.891-.672.461-.613h.004zm-3.582-2.687l.899.669.9.668-.466.621-.895-.668-.896-.665.458-.621v-.004zm-3.611-2.659l.904.661.903.665-.453.621-.904-.665-.904-.661.454-.621zm-3.626-2.643l.911.661.904.661-.45.617-.908-.657-.907-.657.45-.625zm-3.643-2.619l.912.649.907.657-.449.625-.908-.653-.912-.653.446-.625h.004zm-3.658-2.615l1.385.983.446.315-.446.629-.446-.319-1.381-.979.442-.629zm-3.678-2.579l.923.641.92.645-.442.632-.92-.644-.919-.645.438-.629zm-3.691-2.559l1.847 1.277-.437.633-1.848-1.278.438-.632zm-3.71-2.54l.928.633.927.633-.434.637-.927-.633-.928-.633.434-.637zm-3.726-2.519l1.863 1.253-.43.645-1.863-1.258.43-.64zm-3.742-2.496l.936.621.935.625-.426.641-.935-.621-.935-.621.425-.645zm-3.761-2.476l.943.617.94.621-.422.641-.94-.617-.943-.617.422-.645zm-3.774-2.452l.191.124 1.7 1.098-.422.649c-.566-.37-1.131-.74-1.7-1.102l-.187-.124.418-.645zm-3.794-2.432l.952.601.947.609-.398.649-.947-.609-.948-.605.398-.645h-.004zm-3.805-2.416l1.902 1.194-.398.649-1.907-1.194.399-.649h.004zm-3.822-2.388l1.911 1.194-.398.653-1.915-1.194.398-.653h.004zm-3.845-2.388l.963.589.963.593-.398.657-.959-.593-.96-.589.399-.657h-.008zm-3.854-2.348l1.931 1.17-.398.657-1.931-1.167.398-.66zm-3.869-2.329l1.887 1.135.048.027-.398.661-.048-.028-1.887-1.134.398-.661zm-3.889-2.304l1.946 1.15-.398.665-1.942-1.155.398-.66h-.004zm-3.902-2.281l1.951 1.134-.398.669-1.951-1.139.398-.664zm-3.917-2.261l1.959 1.126-.398.665-1.959-1.126.398-.665zm-3.933-2.241l.084.048 1.883 1.071-.398.668-1.883-1.07-.088-.044.398-.673h.004zm-3.952-2.217l.999.557.979.55-.374.672-.983-.549-.992-.557.371-.673zm-3.981-2.193l.991.545.991.549-.37.673-.991-.545-.991-.549.37-.673zm-3.981-2.173l.995.541.995.541-.37.677-.995-.545-.995-.538.37-.676zm-3.981-2.15l.999.534 1 .537-.363.681-.999-.538-.999-.537.362-.677zm-4.008-2.129l1.99 1.059-.358.684-1.991-1.063.359-.68zm-4.021-2.102l1.99 1.047-.354.685-2.014-1.051.358-.681h.02zm-4.032-2.081l2.01 1.03-.354.685-2.011-1.035.362-.68h-.007zm-4.065-2.058l1.015.513 1.011.51-.346.688-1.011-.513-1.015-.51.346-.688zm-4.068-2.038l2.034 1.015-.342.688-2.035-1.015.343-.688zm-4.08-2.014l1.918.943.124.06-.343.692-.119-.059-1.919-.944.339-.692zm-4.097-1.99l1.613.796.437.211-.338.696-.438-.215-1.592-.796.334-.692h-.016zm-4.112-1.971l1.031.49 1.027.493-.334.693-1.023-.49-1.027-.489.33-.697h-.004zm-4.124-1.942l1.031.482 1.031.485-.33.697-1.031-.486-1.031-.481.326-.697h.004zm-4.136-1.923l2.07.956-.322.7-2.07-.959.322-.697zm-4.152-1.898l1.592.716.494.231-.318.697-.498-.223-1.592-.721.322-.7zm-4.168-1.875l1.302.581.796.355-.31.7-.797-.35-1.301-.581.314-.705h-.004zm-4.18-1.855l2.09.924-.31.708-2.09-.923.31-.709zm-4.195-1.823c.505.215 1.194.51 1.879.796l.219.096-.307.704-.223-.095-1.875-.796.307-.705zm-4.208-1.807l1.055.45 1.051.45-.303.708-1.051-.449-1.054-.45.302-.709zm-4.219-1.779l1.054.442 1.055.446-.298.708-1.051-.446-1.059-.441.299-.709zm-4.236-1.759l2.118.875-.291.713-2.118-.876.291-.712zm-4.244-1.732l2.122.86-.29.717-2.126-.86.294-.717zm-4.263-1.707l2.07.828.06.024-.287.716-.064-.028c-.796-.314-1.544-.621-2.066-.824l.287-.716zm-4.275-1.684l2.137.836-.278.72-2.142-.839.283-.717zm-4.288-1.66l1.442.554.704.27-.279.721-.704-.275-1.437-.553.274-.717zm-4.299-1.64l1.075.398 1.071.399-.275.72-1.075-.398-1.074-.398.27-.725.008.004zm-4.311-1.612l1.075.398 1.079.399-.267.72-1.079-.398-1.079-.398.271-.725v.004zm-4.327-1.592l1.083.398 1.078.398-.262.725-1.079-.398-1.083-.398.263-.721v-.004zm-4.339-1.564l2.169.796-.258.721-2.17-.796.259-.725v.004zm-4.351-1.536l.227.079 1.946.685-.25.728-1.951-.688-.223-.08.251-.724zm-4.379-1.517l1.091.398 1.091.398-.251.725-1.087-.375-1.091-.374.251-.732-.004-.04zm-4.379-1.485l2.19.741-.247.728-2.19-.74.247-.729zm-4.379-1.464l2.198.728-.243.733-2.193-.729.238-.732zm-4.378-1.437l1.098.354 1.103.358-.239.737-1.099-.363-1.102-.354.239-.732zm-4.411-1.413l1.103.35 1.102.354-.231.729-1.106-.351-1.103-.35.235-.732zm-4.427-1.389l2.214.688-.227.737-2.218-.693.231-.732zm-4.434-1.362l1.106.339 1.111.334-.223.74-1.107-.342-1.114-.334.227-.737zm-4.447-1.341l2.225.669-.223.74-2.225-.669.223-.74zm-4.462-1.305l1.114.322 1.115.326-.215.741-1.115-.327-1.114-.322.215-.736v-.004zm-4.471-1.29l1.119.314 1.118.323-.215.744-1.114-.322-1.119-.319.211-.74zm-4.482-1.262l2.241.629-.207.736-2.241-.624.207-.741zm-4.494-1.234l1.122.303 1.123.306-.199.745-1.127-.311-1.122-.302.203-.745v.004zm-4.507-1.194l1.78.474.47.127-.199.745-.47-.128-1.784-.473.199-.745h.004zm-4.518-1.194l2.261.585-.195.749-2.257-.594.191-.74zm-4.526-1.162l.076.024 2.189.557-.191.744-2.185-.557h-.076l.191-.748-.004-.02zm-4.542-1.131l2.273.566-.187.748-2.269-.561.183-.753zm-4.55-1.102l1.139.275 1.138.274-.179.748-1.139-.274-1.138-.275.179-.748zm-4.562-1.079l1.143.267 1.138.267-.175.752-1.139-.267-1.138-.266.171-.753zm-4.57-1.055l1.143.263 1.142.263-.171.748-1.143-.259-1.138-.262.167-.753zm-4.582-1.022l2.289.509-.163.752-2.273-.505.167-.749-.02-.007zm-4.594-1.004l1.151.251 1.146.247-.163.752-1.146-.246-1.151-.247.163-.757zm-4.605-.971l2.05.43.255.056-.16.752-.25-.056-2.051-.425.156-.757zm-4.614-.943l1.154.231 1.155.235-.155.756-1.151-.235-1.154-.235.151-.752zm-4.622-.923l2.313.457-.147.757-2.317-.454.151-.76zm-4.637-.892l1.592.306.709.14-.148.756-.704-.139-1.593-.307.144-.756zm-4.646-.864c.717.132 1.35.247 1.991.366l.354.064-.139.756-.355-.063-1.966-.367.135-.756h-.02zm-4.653-.84l2.328.398-.135.761-2.329-.398.136-.761zm-4.666-.796l2.333.398-.127.757-2.333-.398.127-.761v.004zm-4.673-.796l1.17.191 1.163.195-.128.761-1.162-.195-1.171-.192.124-.76h.004zm-4.686-.756c.761.115 1.43.227 2.106.338l.239.032-.123.764-.235-.039-2.106-.335.119-.76zm-4.693-.732l2.349.362-.12.76-2.344-.362.115-.76zm-4.705-.701c.724.104 1.381.199 2.03.299l.322.047-.111.761-.322-.044c-.701-.104-1.402-.211-2.027-.299l.108-.764zm-4.713-.673l1.194.164 1.194.171-.107.76-1.195-.167-1.194-.167.104-.761h.004zm-4.722-.648l2.186.294.175.028-.103.76-.176-.024-2.185-.294.103-.764zm-4.733-.617l1.195.151 1.194.155-.104.764-1.194-.155-1.194-.147.095-.764.008-.004zm-4.741-.593l1.194.147 1.195.143-.096.764-1.194-.143-1.194-.147.091-.764h.004zm-4.753-.562l1.194.136 1.195.143-.088.764-1.194-.139-1.194-.139.087-.765zm-4.777-.537l1.194.131 1.195.136-.084.764-1.194-.131-1.194-.132.083-.768zm-4.777-.505l1.195.123 1.194.127-.08.765-1.194-.124-1.194-.127.079-.764zm-4.777-.478l2.389.235-.08.768-2.388-.239.075-.764h.004zm-4.777-.45l2.389.219-.068.768-2.388-.223.071-.764h-.004zm-4.776-.426l1.194.108 1.194.103-.068.768-1.194-.103-1.194-.104.06-.772h.008zm-4.801-.398l1.194.096 1.194.095-.059.772-1.195-.099-1.194-.096.06-.768zm-4.813-.366l1.194.088 1.194.091-.059.768-1.194-.091-1.195-.088.056-.768h.004zm-4.821-.338l1.835.127.578.04-.052.768-.573-.04-1.835-.123.047-.772zm-4.828-.303l1.194.072 1.194.071-.044.773-1.194-.072-1.194-.076.044-.768zm-4.837-.278c.589.027 1.142.059 1.696.095l.724.036-.044.772-.724-.04-1.692-.095.04-.768zm-4.841-.251l1.195.06 1.194.059-.04.772-1.194-.063-1.194-.06.035-.768h.004zm-4.856-.219l1.743.072.685.035-.032.769-.688-.032c-.59-.028-1.195-.056-1.736-.076l.028-.768zm-4.861-.191l1.951.071h.482l-.028.769h-.482l-1.951-.072.028-.768zm-4.868-.163l2.436.075-.024.768-2.432-.071v-.772h.02zm-4.873-.132l1.218.028 1.219.032v.772l-1.219-.036-1.218-.028v-.768zm-4.884-.103h1.218l1.218.024v.772l-1.222-.028h-1.218v-.768h.004zm-4.892-.076h2.444v.768h-2.444v-.768zm-4.901-.044h2.448v.769h-2.448v-.769zm-4.904 0h2.452v.769H517.5v-.773.004zm-4.904 0h2.452v.769h-2.452v-.769zm-4.897.044h2.445v.768h-2.449v-.768h.004zm-4.896.076l1.222-.024h1.222v.772h-2.444v-.768.02zm-4.884.103l1.222-.032 1.222-.023v.768l-1.218.028-1.219.027v-.768h-.007zm-4.873.132l2.436-.068v.768l-2.436.072v-.772zm-4.868.163l1.214-.044 1.194-.04.024.768-1.194.04-1.195.044-.027-.768h-.016zm-4.861.191l2.428-.1.032.769-2.428.103-.032-.772zm-4.852.219h.298l2.126-.1.032.768-2.122.1h-.299l-.035-.772v.004zm-4.845.251l2.388-.128h.024l.04.772h-.024l-2.388.128-.04-.768v-.004zm-4.837.278l1.195-.075 1.194-.068.044.768-1.195.072-1.194.071-.044-.768zm-4.828.307l2.412-.156.048.769-2.413.159-.047-.772zm-4.821.334l1.194-.084 1.194-.083.048.768-1.194.084-1.194.087-.056-.772h.008zm-4.809.366l2.389-.183.055.768-2.388.183-.056-.768zm-4.805.398l2.389-.203.064.772-2.389.199-.064-.768zm-4.777.422l.275-.024 2.122-.191.068.768-2.122.188-.271.023-.072-.764zm-4.776.45l1.194-.115 1.194-.112.072.764-1.195.112-1.194.115-.071-.764zm-4.777.478l2.281-.231h.107l.076.768h-.108l-2.277.235-.079-.768v-.004zm-4.777.505l1.592-.167.796-.088.08.769-.796.083-1.593.171-.083-.768h.004zm-4.777.537l2.388-.27.088.764-2.389.271-.087-.765zm-4.749.562l1.194-.144 1.194-.139.092.764-1.194.144-1.195.143-.091-.768zm-4.741.593l1.194-.148 1.194-.147.092.764-1.195.148-1.194.151-.095-.764.004-.004zm-4.73.621l1.195-.16 1.194-.155.099.764-1.194.156-1.194.155-.1-.76zm-4.725.644l2.361-.326.103.764-2.356.327-.108-.765zm-4.713.673l1.194-.171 1.194-.167.108.76-1.194.171-1.195.171-.107-.764zm-4.697.721l1.194-.176 1.194-.175.112.761-1.175.175-1.194.179-.115-.764h-.016zm-4.694.732l1.195-.183 1.17-.187.119.76-1.194.183-1.17.187-.12-.76zm-4.685.756l1.17-.191 1.171-.195.123.764-1.17.191-1.171.191-.123-.76zm-4.673.796l2.336-.398.128.764-2.337.398-.127-.76v-.004zm-4.658.808l2.329-.398.135.756-2.333.398-.131-.756zm-4.653.84l2.324-.422.136.756-2.345.418-.135-.756.02.004zm-4.646.864l2.321-.434.139.756-2.321.434-.139-.756zm-4.634.879l2.313-.445.148.756-2.317.45-.144-.761zm-4.625.924l2.309-.466.151.756-2.309.466-.151-.756zm-4.614.943l1.15-.239 1.155-.238.155.756-1.154.239-1.151.238-.155-.756zm-4.606.975l1.151-.246 1.15-.243.159.752-1.15.243-1.147.247-.163-.753zm-4.594.999l1.147-.254 1.146-.247.164.752-1.147.251-1.146.251-.167-.753h.003zm-4.581 1.027l.191-.043 2.102-.474.163.752-2.094.47-.191.044-.171-.749zm-4.57 1.051l2.281-.529.175.752-2.285.529-.171-.752zm-4.562 1.079l1.138-.271 1.143-.271.175.749-1.143.27-1.134.275-.179-.752zm-4.55 1.106l1.134-.278 1.139-.279.179.748-1.135.279-1.134.279-.183-.749zm-4.542 1.131l1.134-.287 1.135-.282.187.748-1.135.282-1.134.287-.187-.748zm-4.534 1.158l1.13-.291 1.131-.29.191.744-1.131.287-1.13.294-.191-.744zm-4.519 1.194l2.257-.597.196.748-2.254.593-.199-.744zm-4.502 1.194l2.249-.609.199.745-2.249.609-.199-.745zm-4.498 1.234l2.245-.617.207.74-2.245.617-.207-.74zm-4.482 1.262l1.122-.319 1.119-.314.207.74-1.119.315-1.122.318-.207-.74zm-4.471 1.289l.454-.135 1.779-.513.211.74-1.775.513-.454.132-.215-.737zm-4.458 1.306l1.11-.33 1.115-.327.219.741-1.115.326-1.114.33-.215-.74zm-4.451 1.337l2.221-.668.223.74-2.221.669-.223-.741zm-4.446 1.37l1.106-.343 1.107-.342.227.736-1.111.343-1.102.338-.227-.732zm-4.427 1.385l1.107-.346 1.106-.351.227.737-1.102.35-1.103.35-.235-.74zm-4.411 1.417l1.103-.358 1.103-.351.235.729-1.103.354-1.103.358-.235-.732zm-4.379 1.437l1.095-.363 1.099-.358.239.733-1.099.358-1.099.362-.238-.732h.003zm-4.378 1.464l1.098-.366 1.095-.37.243.732-1.095.367-1.095.366-.246-.729zm-4.379 1.485l1.091-.37 1.09-.374.247.728-1.091.374-1.09.374-.251-.732h.004zm-4.379 1.517l1.091-.398 1.09-.379.251.725-1.091.398-1.086.398-.255-.725v-.019zm-4.351 1.536l2.173-.772.255.728-2.169.772-.259-.728zm-4.339 1.564l1.083-.398 1.086-.398.259.725-1.083.398-1.082.398-.263-.725zm-4.323 1.592l1.079-.398 1.078-.398.267.725-1.079.398-1.082.398-.263-.725zm-4.315 1.612l1.078-.398 1.079-.398.267.721-1.075.398-1.079.398-.27-.725v.004zm-4.3 1.636l2.15-.82.271.721-2.146.82-.275-.721zm-4.287 1.664l.398-.163 1.728-.673.279.721-1.728.668-.398.163-.279-.716zm-4.275 1.684l2.138-.848.282.72-2.134.844-.286-.716zm-4.26 1.707l1.063-.43 1.067-.425.287.716-1.067.426-1.063.43-.287-.717zm-4.259 1.708l.605-.247 1.517-.621.29.713-1.516.621-.605.25-.291-.716zm-4.236 1.759l1.059-.442 1.059-.442.303.717-1.059.442-1.055.438-.299-.709-.008-.004zm-4.219 1.779h.036c.621-.266 1.254-.537 2.074-.879l.298.708-2.074.876h-.036l-.298-.709v.004zm-4.208 1.807h.028c.74-.318 1.469-.637 2.07-.891l.303.708c-.797.335-1.434.613-2.066.892h-.032l-.307-.705.004-.004zm-4.192 1.823l1.047-.457 1.047-.458.307.704-1.047.458-1.047.462-.307-.709zm-4.183 1.855l1.043-.466 1.043-.457.31.704-1.043.462-1.043.466-.314-.705.004-.004zm-4.164 1.875l1.039-.474 1.039-.465.318.7-1.043.47-1.039.469-.314-.7zm-4.152 1.898l.533-.246 1.541-.705.318.697-1.536.708-.538.243-.318-.697zm-4.14 1.923l1.031-.486 1.035-.481.326.7-1.035.482-1.031.486-.326-.697v-.004zm-4.124 1.942l1.715-.796.343-.159.33.697-.342.159-1.716.796-.33-.697zm-4.112 1.971l2.038-.98.334.697-2.034.975-.338-.692zm-4.097 1.99l2.046-.999.339.696-2.046.995-.339-.692zm-4.08 2.014l.155-.08 1.883-.931.343.692-1.883.932-.156.075-.342-.688zm-4.056 2.042l1.906-.96.128-.063.342.688-.127.064c-.546.275-1.075.537-1.903.959l-.346-.688zm-4.053 2.058l1.011-.514 1.011-.513.351.688-1.011.514-1.011.513-.351-.684v-.004zm-4.036 2.081l2.018-1.043.35.689-2.018 1.039-.35-.685zm-4.025 2.106l1.003-.53 1.007-.521.355.681-1.003.525-1.004.529-.358-.684zm-4.008 2.129l.999-.533 1.003-.533.362.68-1.003.534-.999.529-.362-.677zm-3.981 2.15l.995-.542.999-.537.362.681-.995.537-.999.537-.362-.676zm-3.981 2.173l.995-.545.995-.546.367.681-.992.541-.995.546-.37-.677zm-3.981 2.193l1.991-1.099.374.673-1.991 1.103-.374-.677zm-3.945 2.217l1.971-1.106.398.668-1.991 1.111-.374-.673h-.004zm-3.937 2.241l.223-.127 1.744-.995.378.668-1.74.995-.223.128-.398-.669h.016zm-3.917 2.261l1.955-1.135.398.665-1.955 1.134-.398-.664zm-3.901 2.281l.975-.57.972-.573.398.665-.976.569-.971.573-.398-.664zm-3.889 2.304l1.943-1.154.398.665-1.939 1.154-.398-.665h-.004zm-3.869 2.329l.278-.168 1.652-.999.398.661-1.652.999-.278.167-.398-.66zm-3.854 2.348l1.923-1.194.398.661-1.927 1.194-.398-.657.004-.004zm-3.841 2.388l1.918-1.194.399.657-1.919 1.194-.398-.657zm-3.826 2.388l.944-.621.955-.597.398.653-.955.597-.952.597-.398-.649.008.02zm-3.805 2.416l.947-.609.951-.601.398.649-.95.605-.948.601-.398-.645zm-3.794 2.428l.947-.609.948-.609.398.649-.948.609-.943.609-.398-.649h-.004zm-3.774 2.456l1.883-1.23.422.649-1.887 1.226-.418-.645zm-3.762 2.476l.94-.621.935-.617.422.641-.935.617-.94.621-.426-.645.004.004zm-3.742 2.496l1.871-1.25.426.641-1.867 1.249-.43-.64zm-3.726 2.519l1.86-1.258.433.633-1.859 1.262-.434-.637zm-3.71 2.54l.924-.637.927-.637.434.637-.927.637-.924.636-.438-.632.004-.004zm-3.694 2.559l1.843-1.282.442.633-1.843 1.282-.442-.633zm-3.682 2.575l.334-.239 1.501-1.05.442.628-1.48 1.059-.34.235-.457-.633zm-3.658 2.603l.911-.652.916-.653.446.629-.916.648-.912.653-.445-.625zm-3.643 2.619l1.82-1.313.45.625-1.82 1.313-.45-.625zm-3.626 2.643l1.433-1.051.374-.27.458.617-.374.274-1.437 1.051-.454-.621zm-3.61 2.659l1.803-1.329.457.617-1.803 1.333-.458-.621zm-3.584 2.687l.896-.677.9-.673.462.621-.9.669-.896.673-.462-.613zm-3.582 2.698l1.783-1.349.462.609-1.783 1.353-.462-.613zm-3.559 2.727l.888-.685.887-.68.47.613-.888.684-.887.677-.47-.605v-.004zm-3.539 2.742l.884-.688.884-.689.47.609-.88.685-.884.688-.474-.605zm-3.523 2.759l1.76-1.385.477.609-1.76 1.381-.477-.605zm-3.503 2.786l1.752-1.393.477.605-1.747 1.393-.482-.609v.004zm-3.487 2.786l1.628-1.309.116-.096.481.601-.115.096-1.624 1.305-.486-.597zm-3.463 2.818l.863-.704.864-.705.49.597-.868.705-.864.708-.485-.601zm-3.452 2.842l1.724-1.421.486.593-1.72 1.421-.49-.593zm-3.431 2.862l1.712-1.433.497.617-1.712 1.433-.493-.589-.004-.028zm-3.416 2.882l.852-.725.852-.72.498.589-.848.74-.852.721-.498-.585-.004-.02zm-3.395 2.893l1.696-1.448.501.585-1.696 1.453-.501-.59zm-1.72 1.485l.028-.024.02.024h-.048zm140.509-238.87l.104-.796.103-.796.697.091-.108.797-.103.796-.693-.088v-.004zm.426-3.124l.227-1.557.693.1-.227 1.556-.693-.099zm.462-3.113l.119-.796.124-.796.693.111-.124.796-.123.796-.689-.107v-.004zm.494-3.109l.127-.772.135-.772.689.115-.131.796-.128.761-.692-.116v-.012zm.529-3.096l.279-1.545.688.124c-.071.398-.167.923-.274 1.544l-.693-.123zm.565-3.089l.148-.768.147-.772.689.131-.148.772-.147.768-.689-.131zm.601-3.081l.315-1.532.685.139-.311 1.536-.689-.143zm.637-3.069l.164-.764.167-.768.684.151-.167.764-.163.761-.685-.144zm.669-3.061l.35-1.524.685.151-.35 1.529-.685-.156zm.705-3.052l.183-.761.187-.76.677.163-.183.761-.184.76-.684-.163h.004zm.744-3.045l.187-.757.195-.76.681.175-.195.757-.191.756-.677-.171zm.776-3.033l.199-.753.203-.756.677.179-.203.756-.199.753-.677-.179zm.797-3.021l.418-1.505.676.187-.418 1.505-.676-.187zm.847-3.013l.438-1.505.673.199-.438 1.501-.673-.195zm.884-3.01l.227-.748.231-.744.669.203-.227.756-.227.752-.673-.207v-.012zm.92-2.993l.239-.748.234-.74.669.211-.239.74-.238.748-.669-.211h.004zm.955-2.985v-.044c.151-.466.307-.931.478-1.441l.665.223c-.152.446-.315.94-.478 1.437v.048l-.665-.223zm.991-2.969l.255-.741.255-.74.661.227-.255.74-.251.741-.665-.223v-.004zm1.027-2.966l.263-.74.267-.74.657.239-.263.736-.263.736-.661-.231zm1.063-2.953l.271-.74.271-.733.656.243-.274.732-.271.737-.661-.239h.008zm1.099-2.941l.279-.733.282-.728.653.251-.279.728-.278.732-.657-.25zm1.13-2.922c.156-.398.367-.923.578-1.449l.653.255-.578 1.449-.653-.255zm1.167-2.902l.294-.72.299-.721.649.267-.299.721-.298.72-.645-.267zm1.194-2.881l.581-1.362.028-.071.645.274-.028.072-.581 1.357-.645-.27zm1.23-2.862l.311-.713.314-.712.641.282-.31.713-.311.708-.641-.278h-.004zm1.262-2.846l.318-.705.319-.704.637.29-.323.705-.322.708-.637-.29.008-.004zm1.294-2.822c.203-.446.398-.868.605-1.294l.052-.111.633.298-.052.116-.589 1.269-.633-.294-.016.016zm1.325-2.786l.335-.697.338-.697.633.303-.338.697-.339.696-.629-.302zm1.358-2.787l.557-1.118.131-.267.629.315-.131.262c-.171.335-.342.685-.557 1.119l-.629-.311zm1.389-2.786l.35-.688.355-.685.625.322-.355.685-.35.685-.625-.315v-.004zm1.421-2.75l.359-.685.362-.68.621.33-.362.677-.359.684-.621-.326zm1.453-2.727l.366-.68.367-.677.617.334-.371.677-.366.681-.617-.335h.004zm1.485-2.71l.752-1.346.613.343-.732 1.341-.613-.338h-.02zm1.517-2.691l.398-.669.398-.668.609.35-.398.669-.398.668-.609-.35zm1.548-2.671l.398-.661.398-.66.605.354-.398.665-.398.66-.605-.354v-.004zm1.593-2.647l.768-1.269.032-.052.601.362-.032.052-.768 1.262-.601-.355zm1.592-2.635l.398-.656.398-.653.593.37-.398.653-.398.656-.597-.37h.004zm1.64-2.615c.235-.366.521-.796.796-1.257l.028-.044.585.398-.024.04c-.251.398-.505.796-.796 1.253l-.593-.374.004-.016zm1.672-2.595l.426-.645.422-.641.585.399-.41.624-.398.649-.589-.398-.036.012zm1.704-2.571l.43-.641.429-.641.586.398-.434.637-.43.641-.581-.398v.004zm1.747-2.563l.844-1.218.036-.052.573.398-.036.052-.84 1.194-.577-.398v.024zm1.764-2.536l.446-.629.449-.629.57.398-.446.629-.434.641-.573-.398-.012-.012zm1.795-2.515l.45-.629.458-.625.565.398-.454.621-.454.625-.565-.398v.008zm1.823-2.5l.458-.621.462-.621.561.418-.462.621-.469.629-.562-.418.012-.008zm1.851-2.476l.936-1.234.557.426-.935 1.23-.558-.422zm1.883-2.46l.936-1.194.549.434v.024c-.311.398-.629.796-.932 1.194l-.553-.45v-.008zm1.911-2.44l.478-.597.485-.605.546.438-.486.601-.482.609-.549-.438.008-.008zm1.943-2.42l.493-.601.49-.593.545.442-.489.597-.494.601-.545-.442v-.004zm1.99-2.388l.498-.593.497-.593.538.45-.514.569-.498.597-.537-.45.016.02zm1.99-2.388l.502-.589.509-.593.53.458-.506.589-.509.597-.53-.458.004-.004zm2.031-2.36l.991-1.135.032-.036.529.462-.032.036c-.263.295-.541.617-.991 1.134l-.529-.461zm2.058-2.341l.517-.581.518-.581.521.466-.517.581-.518.581-.525-.466h.004zm2.089-2.324l.526-.577.529-.574.514.474-.526.573-.529.593-.518-.473.004-.016zm2.11-2.297l.824-.876.247-.266.51.481-.247.263c-.211.231-.335.358-.82.88l-.514-.482zm2.15-2.285l.545-.573.538-.557.505.482-.537.545-.546.569-.505-.482v.016zm2.173-2.26l.55-.566.549-.561.502.49-.55.561-.545.561-.506-.485zm2.206-2.245l.553-.558.553-.557.494.494-.553.557-.554.557-.497-.493h.004zm2.233-2.225c.291-.291.589-.581.884-.868l.239-.235.493.498-.243.235-.883.867-.49-.497zm2.261-2.205l.565-.55.574-.545.485.506-.573.545-.569.545-.482-.501zm2.285-2.186c.506-.477.796-.744 1.043-.979l.111-.107.482.509-.115.108-1.039.975-.482-.506zm619.153 84.359l-1.083 1.138-.505-.481 1.074-1.158.506.485.008.016zm2.169-2.293l-1.086 1.147-.506-.482 1.083-1.142.509.477zm2.17-2.292l-1.087 1.146-.505-.478 1.086-1.15.506.482zm2.173-2.305l-1.086 1.15-.51-.477 1.087-1.154.509.481zm2.178-2.308l-1.091 1.154-.509-.482 1.086-1.154.514.482zm2.177-2.321l-1.086 1.162-.514-.481 1.091-1.159.509.478zm2.182-2.328l-1.091 1.166-.509-.478 1.086-1.162.514.474zm2.181-2.329l-1.09 1.166-.51-.477 1.091-1.167.509.478zm2.19-2.34l-1.095 1.17-.513-.478 1.094-1.17.514.478zm2.185-2.349l-1.095 1.174-.513-.473 1.095-1.194.513.473v.02zm2.19-2.352l-1.095 1.194-.514-.478 1.095-1.194.514.478zm2.189-2.36l-1.095 1.194-.513-.478 1.095-1.194.513.478zm-10.191 64.879l1.238 1.11-.469.521-1.234-1.11.465-.521zm-2.484-2.206l1.242 1.103-.462.521-1.241-1.098.461-.526zm-2.488-2.193l1.246 1.095-.462.525-1.245-1.09.461-.53zm-2.5-2.169l1.25 1.083-.458.529-1.249-1.083.457-.529zm-2.504-2.161l.398.358.84.724-.457.53-.836-.721-.398-.358.453-.533zm-2.515-2.142l1.258 1.071-.454.533-1.258-1.066.454-.538zm-2.52-2.125l.131.111 1.127.948-.45.537-1.127-.951-.131-.112.45-.537v.004zm-2.532-2.11l1.266 1.055-.446.537-1.266-1.054.446-.538zm-46.742-1.914l-1.593.278-.115-.692 1.592-.275.116.689zm3.153-.538l-1.593.267-.115-.689 1.592-.27.116.692zm3.14-.525l-1.592.263-.111-.693 1.592-.259.111.689zm3.137-.513l-1.568.254-.112-.688 1.569-.255.111.689zm3.129-.51l-1.564.247-.104-.693 1.561-.247.107.693zm3.121-.486l-1.556.239-.108-.692 1.561-.243.103.696zm3.117-.473l-1.118.167-.438.068-.104-.697.438-.064 1.119-.167.103.693zm-66.825 12.602l-1.616.374-.104-.454 1.616-.374.104.454zm3.228-.737l-1.616.366-.1-.453 1.617-.363.099.45zm3.237-.724l-1.621.358-.095-.45 1.616-.362.1.454zm3.236-.713l-1.62.355-.096-.454 1.616-.354.1.453zm3.228-.7l-1.616.35-.095-.454 1.592-.35.119.454zm-57.733 14.468l-1.592.45-.187-.677 1.592-.449.191.676h-.004zm3.185-.891l-1.592.445-.187-.676 1.592-.442.187.673zm3.185-.88l-1.593.438-.187-.677 1.592-.438.184.677h.004zm3.184-.868l-1.592.434-.183-.681 1.592-.429.183.676zm3.185-.86l-1.593.43-.179-.68 1.593-.426.179.676zm-56.571 1.123l1.592.398-.167.68-1.592-.398.167-.68zm-3.185-.796l1.593.398-.167.68-1.593-.398.171-.68h-.004zm-3.184-.796l1.592.398-.171.676-1.592-.398.175-.68-.004.004zm-3.185-.796l1.593.398-.172.676-1.592-.398.175-.676h-.004zm-3.184-.832l1.592.398-.175.676-1.593-.398.176-.676z" fill="#231F20"/></g><defs><clipPath id="a"><path fill="#fff" d="M0 0h1035v713H0z"/></clipPath></defs></svg>